<svg width="125" height="125" viewBox="0 0 125 125" fill="none" xmlns="http://www.w3.org/2000/svg">
<path d="M120.828 68.6216C121.429 66.5131 121.752 64.2744 121.752 61.9545C121.752 60.4936 121.624 59.0649 121.379 57.6807H27.4509C27.2062 59.0649 27.0781 60.4936 27.0781 61.9545C27.0781 64.2744 27.4011 66.5131 28.0014 68.6216H120.828Z" fill="url(#paint0_linear)"/>
<path d="M117.827 74.4568C119.114 69.9588 119.807 65.1828 119.807 60.2336C119.807 57.1171 119.532 54.0692 119.007 51.1162H29.9248C29.3997 54.0692 29.125 57.1171 29.125 60.2336C29.125 65.1828 29.8179 69.9588 31.1056 74.4568H117.827Z" fill="url(#paint1_linear)"/>
<ellipse cx="74.2991" cy="60.2337" rx="41.932" ry="44.8577" fill="url(#paint2_linear)"/>
<path d="M75.1763 98.5927C113.604 97.7894 121.227 50.4455 97.5701 37.429C89.8616 33.1877 84.8633 35.1625 80.4475 36.9072C78.4716 37.6879 76.6124 38.4225 74.6792 38.5335C72.746 38.4225 70.8867 37.6879 68.9108 36.9072C64.495 35.1625 59.4967 33.1877 51.7882 37.429C28.1315 50.4455 35.7543 97.7894 74.182 98.5927V98.603C74.3483 98.603 74.514 98.6021 74.6792 98.6004C74.8443 98.6021 75.01 98.603 75.1763 98.603V98.5927Z" fill="url(#paint3_linear)"/>
<circle opacity="0.4" cx="99.5662" cy="78.1952" r="3.48422" fill="url(#paint4_linear)"/>
<path d="M94.0898 45.8418C99.0673 48.4964 105.737 55.4981 102.552 68.2403" stroke="url(#paint5_linear)" stroke-width="7.96392" stroke-linecap="round" stroke-linejoin="round"/>
<path opacity="0.2" d="M51.0039 23.2612C57.5891 18.6576 65.4585 15.9814 73.9122 15.9814C82.3659 15.9814 90.2353 18.6576 96.8205 23.2612C91.6775 26.3638 83.3324 28.3811 73.9122 28.3811C64.492 28.3811 56.1469 26.3638 51.0039 23.2612Z" fill="url(#paint6_linear)"/>
<path opacity="0.2" d="M51.2773 23.6558C57.8626 19.0521 65.7319 16.376 74.1856 16.376V28.7757C64.7654 28.7757 56.4203 26.7583 51.2773 23.6558Z" fill="url(#paint7_linear)"/>
<ellipse cx="105.827" cy="86.4916" rx="1.02273" ry="1.09409" fill="url(#paint8_radial)"/>
<ellipse cx="107.874" cy="82.8451" rx="1.02273" ry="1.09409" fill="url(#paint9_radial)"/>
<ellipse cx="109.917" cy="78.4691" rx="1.02273" ry="1.09409" fill="url(#paint10_radial)"/>
<path opacity="0.4" fill-rule="evenodd" clip-rule="evenodd" d="M65.7949 104.132C54.4139 101.573 44.7317 94.0774 38.7969 83.8355C38.8254 83.8458 38.855 83.8565 38.8859 83.8676C39.3159 84.0221 39.9743 84.2514 40.8367 84.5309C42.5629 85.0905 45.0975 85.8484 48.2465 86.6096C54.5677 88.1376 63.2436 89.6489 72.7592 89.6489C82.2747 89.6489 90.9506 88.1376 97.2718 86.6096C100.421 85.8484 102.955 85.0905 104.682 84.5309C105.544 84.2514 106.202 84.0221 106.632 83.8676C106.847 83.7904 107.005 83.732 107.102 83.6954C107.151 83.6772 107.185 83.6644 107.203 83.6574L107.21 83.6546L107.213 83.6537L107.214 83.653L107.217 83.6519C108.288 83.235 109.392 83.1229 110.448 83.2742C104.864 93.2334 95.77 100.683 84.9954 103.665C81.1552 104.094 77.0424 104.362 72.7592 104.362C70.3793 104.362 68.052 104.28 65.7949 104.132Z" fill="black"/>
<path opacity="0.2" fill-rule="evenodd" clip-rule="evenodd" d="M36.1992 41.8688C37.877 37.8741 40.0852 34.1896 42.728 30.918L45.8309 36.8929L40.0354 43.4574L36.1992 41.8688Z" fill="url(#paint11_linear)"/>
<path d="M105.148 37.7217C105.148 37.7217 109.58 41.3686 111.285 48.6626" stroke="url(#paint12_linear)" stroke-width="2.98647" stroke-dasharray="1 1.99"/>
<ellipse opacity="0.3" cx="100.054" cy="38.3519" rx="1.02273" ry="1.09409" fill="url(#paint13_linear)"/>
<mask id="mask0" mask-type="alpha" maskUnits="userSpaceOnUse" x="39" y="91" width="70" height="18">
<path fill-rule="evenodd" clip-rule="evenodd" d="M46.6697 91.5844L46.666 91.583L46.6774 91.5873C46.6919 91.5928 46.7186 91.603 46.7574 91.6175C46.835 91.6465 46.9607 91.6928 47.132 91.7541C47.4747 91.8766 47.9994 92.0585 48.6866 92.2802C50.0622 92.724 52.0821 93.3252 54.5915 93.9289C59.629 95.1409 66.5428 96.3396 74.1259 96.3396C81.7089 96.3396 88.6228 95.1409 93.6602 93.9289C96.1697 93.3252 98.1896 92.724 99.5652 92.2802C100.252 92.0585 100.777 91.8766 101.12 91.7541C101.291 91.6928 101.417 91.6465 101.494 91.6175C101.533 91.603 101.56 91.5928 101.574 91.5873L101.58 91.5851L101.582 91.5844L101.584 91.5838L101.586 91.583C104.415 90.4863 107.542 92.0485 108.57 95.075C109.599 98.1023 108.141 101.449 105.312 102.551C105.312 102.551 105.306 102.554 105.306 102.554V102.554L105.298 102.557L105.283 102.563L105.238 102.58C105.201 102.594 105.153 102.612 105.091 102.635C104.969 102.681 104.797 102.744 104.577 102.823C104.139 102.979 103.512 103.196 102.715 103.453C101.124 103.967 98.8499 104.642 96.0538 105.315C90.4802 106.656 82.7349 108.01 74.1259 108.01C65.5169 108.01 57.7716 106.656 52.1979 105.315C49.4018 104.642 47.1281 103.967 45.5366 103.453C44.7402 103.196 44.1129 102.979 43.6745 102.823C43.4553 102.744 43.2831 102.681 43.1605 102.635C43.0992 102.612 43.0503 102.594 43.0141 102.58L42.9693 102.563L42.9541 102.557L42.9458 102.554V102.554C42.9458 102.554 42.9413 102.552 42.9413 102.552C40.1118 101.45 38.6523 98.1029 39.6814 95.075C40.7101 92.0486 43.8364 90.4864 46.666 91.583" fill="url(#paint14_linear)"/>
</mask>
<g mask="url(#mask0)">
<path fill-rule="evenodd" clip-rule="evenodd" d="M46.6697 91.5844L46.666 91.583L46.6774 91.5873C46.6919 91.5928 46.7186 91.603 46.7574 91.6175C46.835 91.6465 46.9607 91.6928 47.132 91.7541C47.4747 91.8766 47.9994 92.0585 48.6866 92.2802C50.0622 92.724 52.0821 93.3252 54.5915 93.9289C59.629 95.1409 66.5428 96.3396 74.1259 96.3396C81.7089 96.3396 88.6228 95.1409 93.6602 93.9289C96.1697 93.3252 98.1896 92.724 99.5652 92.2802C100.252 92.0585 100.777 91.8766 101.12 91.7541C101.291 91.6928 101.417 91.6465 101.494 91.6175C101.533 91.603 101.56 91.5928 101.574 91.5873L101.58 91.5851L101.582 91.5844L101.584 91.5838L101.586 91.583C104.415 90.4863 107.542 92.0485 108.57 95.075C109.6 98.1037 108.139 101.452 105.308 102.553C105.308 102.553 105.311 102.552 105.306 102.554L105.298 102.557L105.283 102.563L105.238 102.58C105.201 102.594 105.153 102.612 105.091 102.635C104.969 102.681 104.797 102.744 104.577 102.823C104.139 102.979 103.512 103.196 102.715 103.453C101.124 103.967 98.8499 104.642 96.0538 105.315C90.4802 106.656 82.7349 108.01 74.1259 108.01C65.5169 108.01 57.7716 106.656 52.1979 105.315C49.4018 104.642 47.1281 103.967 45.5366 103.453C44.7402 103.196 44.1129 102.979 43.6745 102.823C43.4553 102.744 43.2831 102.681 43.1605 102.635C43.0992 102.612 43.0503 102.594 43.0141 102.58L42.9693 102.563L42.9541 102.557L42.9458 102.554C42.9429 102.553 42.9437 102.553 42.9437 102.553C40.1126 101.452 38.652 98.1037 39.6814 95.075C40.7101 92.0486 43.8364 90.4864 46.666 91.583" fill="url(#paint15_linear)"/>
<path d="M110.261 94.8799C110.261 94.8799 94.0824 101.444 74.1248 101.444C54.1671 101.444 37.9883 94.8799 37.9883 94.8799" stroke="url(#paint16_linear)" stroke-width="17.9188" stroke-dasharray="1 3.98"/>
<path opacity="0.4" fill-rule="evenodd" clip-rule="evenodd" d="M39.6714 94.0688L39.6667 94.0669L39.6812 94.0725C39.6993 94.0794 39.7328 94.0922 39.7815 94.1105C39.8789 94.147 40.0366 94.2055 40.2515 94.2827C40.6816 94.4371 41.34 94.6664 42.2023 94.946C43.9285 95.5055 46.4631 96.2635 49.6121 97.0246C55.9334 98.5526 64.6092 100.064 74.1248 100.064C83.6404 100.064 92.3162 98.5526 98.6374 97.0246C101.786 96.2635 104.321 95.5055 106.047 94.946C106.91 94.6664 107.568 94.4371 107.998 94.2827C108.213 94.2055 108.371 94.147 108.468 94.1105C108.517 94.0922 108.55 94.0794 108.568 94.0725L108.576 94.0697L108.578 94.0688L108.58 94.068L108.583 94.0669C112.134 92.6843 116.057 94.6539 117.347 98.4696C118.639 102.288 116.806 106.509 113.254 107.897C113.254 107.897 113.258 107.896 113.251 107.898L113.241 107.902L113.222 107.91L113.165 107.932C113.12 107.949 113.059 107.972 112.982 108.001C112.828 108.059 112.612 108.139 112.337 108.238C111.787 108.435 110.999 108.709 110 109.033C108.003 109.68 105.15 110.531 101.641 111.38C94.6469 113.07 84.9278 114.777 74.1248 114.777C63.3218 114.777 53.6027 113.07 46.6085 111.38C43.0999 110.531 40.2467 109.68 38.2495 109.033C37.2502 108.709 36.463 108.435 35.9129 108.238C35.6378 108.139 35.4218 108.059 35.268 108.001C35.191 107.972 35.1297 107.949 35.0842 107.932L35.028 107.91L35.0089 107.902L34.9986 107.898C34.9948 107.897 34.9959 107.897 34.9959 107.897C31.4432 106.509 29.6104 102.288 30.9022 98.4696C32.193 94.654 36.1161 92.6844 39.6667 94.0669" fill="black"/>
<path opacity="0.4" fill-rule="evenodd" clip-rule="evenodd" d="M39.6714 99.0463L39.6667 99.0445L39.6812 99.05C39.6993 99.0569 39.7328 99.0697 39.7815 99.088C39.8789 99.1246 40.0366 99.183 40.2515 99.2602C40.6816 99.4147 41.34 99.644 42.2023 99.9235C43.9285 100.483 46.4631 101.241 49.6121 102.002C55.9334 103.53 64.6092 105.041 74.1248 105.041C83.6404 105.041 92.3162 103.53 98.6374 102.002C101.786 101.241 104.321 100.483 106.047 99.9235C106.91 99.644 107.568 99.4147 107.998 99.2602C108.213 99.183 108.371 99.1246 108.468 99.088C108.517 99.0697 108.55 99.0569 108.568 99.05L108.576 99.0472L108.578 99.0463L108.58 99.0455L108.583 99.0445C112.134 97.6618 116.057 99.6314 117.347 103.447C118.639 107.266 116.806 111.487 113.254 112.875C113.254 112.875 113.258 112.873 113.251 112.876L113.241 112.88L113.222 112.887L113.165 112.909C113.12 112.926 113.059 112.95 112.982 112.979C112.828 113.036 112.612 113.116 112.337 113.215C111.787 113.413 110.999 113.686 110 114.01C108.003 114.658 105.15 115.509 101.641 116.357C94.6469 118.048 84.9278 119.755 74.1248 119.755C63.3218 119.755 53.6027 118.048 46.6085 116.357C43.0999 115.509 40.2467 114.658 38.2495 114.01C37.2502 113.686 36.463 113.413 35.9129 113.215C35.6378 113.116 35.4218 113.036 35.268 112.979C35.191 112.95 35.1297 112.926 35.0842 112.909L35.028 112.887L35.0089 112.88L34.9986 112.876C34.9948 112.875 34.9959 112.875 34.9959 112.875C31.4432 111.487 29.6104 107.266 30.9022 103.447C32.193 99.6315 36.1161 97.6619 39.6667 99.0445" fill="black"/>
</g>
<path d="M54.6821 88.6498C55.0107 87.4959 55.1874 86.2707 55.1874 85.001C55.1874 84.2015 55.1173 83.4197 54.9834 82.6621H3.57903C3.44509 83.4197 3.375 84.2015 3.375 85.001C3.375 86.2707 3.55177 87.4959 3.88028 88.6498H54.6821Z" fill="url(#paint17_linear)"/>
<path d="M53.0363 91.843C53.741 89.3814 54.1202 86.7676 54.1202 84.0591C54.1202 82.3535 53.9698 80.6854 53.6825 79.0693H4.92987C4.64255 80.6854 4.49219 82.3535 4.49219 84.0591C4.49219 86.7676 4.87139 89.3814 5.5761 91.843H53.0363Z" fill="url(#paint18_linear)"/>
<ellipse cx="29.2178" cy="84.0592" rx="22.9483" ry="24.5495" fill="url(#paint19_linear)"/>
<path d="M29.6966 105.052C50.7271 104.613 54.8988 78.7027 41.9521 71.5791C37.7335 69.2579 34.998 70.3387 32.5813 71.2935C31.5 71.7208 30.4825 72.1228 29.4245 72.1835C28.3665 72.1228 27.349 71.7208 26.2677 71.2935C23.851 70.3387 21.1155 69.2579 16.8969 71.5791C3.95017 78.7027 8.12191 104.613 29.1524 105.052V105.058C29.2434 105.058 29.3341 105.058 29.4245 105.057C29.5149 105.058 29.6056 105.058 29.6966 105.058V105.052Z" fill="url(#paint20_linear)"/>
<circle opacity="0.4" cx="43.0435" cy="93.8892" r="1.90682" fill="url(#paint21_linear)"/>
<path d="M40.0469 76.1826C42.7709 77.6354 46.4211 81.4672 44.6777 88.4408" stroke="url(#paint22_linear)" stroke-width="4.35845" stroke-linecap="round" stroke-linejoin="round"/>
<path opacity="0.2" d="M16.6211 63.278C20.225 60.7585 24.5317 59.2939 29.1582 59.2939C33.7847 59.2939 38.0914 60.7585 41.6953 63.278C38.8807 64.976 34.3137 66.08 29.1582 66.08C24.0028 66.08 19.4357 64.976 16.6211 63.278Z" fill="url(#paint23_linear)"/>
<path opacity="0.2" d="M16.7734 63.4938C20.3774 60.9744 24.6841 59.5098 29.3106 59.5098V66.2958C24.1551 66.2958 19.5881 65.1918 16.7734 63.4938Z" fill="url(#paint24_linear)"/>
<ellipse cx="46.4738" cy="98.4298" rx="0.559714" ry="0.598767" fill="url(#paint25_radial)"/>
<ellipse cx="47.591" cy="96.4337" rx="0.559714" ry="0.598767" fill="url(#paint26_radial)"/>
<ellipse cx="48.7121" cy="94.0392" rx="0.559714" ry="0.598767" fill="url(#paint27_radial)"/>
<path opacity="0.4" fill-rule="evenodd" clip-rule="evenodd" d="M24.5644 108.084C18.3358 106.684 13.037 102.581 9.78905 96.9761C9.80465 96.9818 9.82089 96.9876 9.83778 96.9937C10.0731 97.0782 10.4335 97.2037 10.9054 97.3567C11.8501 97.663 13.2372 98.0778 14.9606 98.4943C18.42 99.3305 23.1681 100.158 28.3757 100.158C33.5834 100.158 38.3314 99.3305 41.7909 98.4943C43.5143 98.0778 44.9014 97.663 45.8461 97.3567C46.318 97.2037 46.6784 97.0782 46.9137 96.9937C47.0314 96.9515 47.1177 96.9195 47.1709 96.8995L47.2259 96.8787L47.2299 96.8771L47.2312 96.8766L47.2323 96.8762L47.2338 96.8756C47.8196 96.6475 48.424 96.5861 49.0019 96.6689C45.946 102.119 40.969 106.196 35.0723 107.828C32.9707 108.063 30.7198 108.21 28.3757 108.21C27.0733 108.21 25.7997 108.165 24.5644 108.084Z" fill="black"/>
<path opacity="0.2" fill-rule="evenodd" clip-rule="evenodd" d="M8.36719 74.0088C9.28537 71.8225 10.4939 69.8061 11.9402 68.0156L13.6384 71.2856L10.4667 74.8782L8.36719 74.0088Z" fill="url(#paint28_linear)"/>
<path d="M46.1016 71.7393C46.1016 71.7393 48.527 73.7351 49.4598 77.7269" stroke="url(#paint29_linear)" stroke-width="1.63442" stroke-dasharray="0.54 1.09"/>
<ellipse opacity="0.3" cx="11.0246" cy="72.0841" rx="0.559714" ry="0.598767" fill="url(#paint30_linear)"/>
<mask id="mask1" mask-type="alpha" maskUnits="userSpaceOnUse" x="10" y="101" width="39" height="10">
<path fill-rule="evenodd" clip-rule="evenodd" d="M14.0949 101.217L14.0928 101.216L14.0991 101.219C14.107 101.222 14.1217 101.227 14.1429 101.235C14.1853 101.251 14.2541 101.276 14.3479 101.31C14.5354 101.377 14.8226 101.476 15.1987 101.598C15.9515 101.841 17.0569 102.17 18.4303 102.5C21.1872 103.163 24.9709 103.819 29.1209 103.819C33.271 103.819 37.0547 103.163 39.8116 102.5C41.185 102.17 42.2904 101.841 43.0432 101.598C43.4193 101.476 43.7065 101.377 43.894 101.31C43.9878 101.276 44.0565 101.251 44.099 101.235C44.1202 101.227 44.1349 101.222 44.1428 101.219L44.146 101.217L44.147 101.217L44.1479 101.217L44.1491 101.216C45.6976 100.616 47.4086 101.471 47.9715 103.127C48.5346 104.784 47.7363 106.615 46.1883 107.219C46.1883 107.219 46.185 107.22 46.185 107.22V107.22L46.1805 107.222L46.1722 107.225L46.1476 107.235C46.1278 107.242 46.101 107.252 46.0675 107.265C46.0004 107.29 45.9062 107.325 45.7862 107.367C45.5463 107.453 45.203 107.572 44.7671 107.713C43.8961 107.994 42.6518 108.363 41.1216 108.731C38.0712 109.465 33.8324 110.206 29.1209 110.206C24.4095 110.206 20.1707 109.465 17.1203 108.731C15.5901 108.363 14.3458 107.994 13.4747 107.713C13.0389 107.572 12.6956 107.453 12.4557 107.367C12.3357 107.325 12.2415 107.29 12.1744 107.265C12.1408 107.252 12.1141 107.242 12.0942 107.235L12.0697 107.225L12.0614 107.222L12.0569 107.22V107.22C12.0569 107.22 12.0544 107.219 12.0544 107.219C10.5059 106.616 9.70714 104.784 10.2704 103.127C10.8333 101.471 12.5443 100.616 14.0928 101.216" fill="url(#paint31_linear)"/>
</mask>
<g mask="url(#mask1)">
<path fill-rule="evenodd" clip-rule="evenodd" d="M14.0949 101.217L14.0928 101.216L14.0991 101.219C14.107 101.222 14.1217 101.227 14.1429 101.235C14.1853 101.251 14.2541 101.276 14.3479 101.31C14.5354 101.377 14.8226 101.476 15.1987 101.598C15.9515 101.841 17.0569 102.17 18.4303 102.5C21.1872 103.163 24.9709 103.819 29.1209 103.819C33.271 103.819 37.0547 103.163 39.8116 102.5C41.185 102.17 42.2904 101.841 43.0432 101.598C43.4193 101.476 43.7065 101.377 43.894 101.31C43.9878 101.276 44.0565 101.251 44.099 101.235C44.1202 101.227 44.1349 101.222 44.1428 101.219L44.146 101.217L44.147 101.217L44.1479 101.217L44.1491 101.216C45.6976 100.616 47.4086 101.471 47.9715 103.127C48.5349 104.785 47.7356 106.617 46.1862 107.22C46.1862 107.22 46.1879 107.219 46.185 107.22L46.1805 107.222L46.1722 107.225L46.1476 107.235C46.1278 107.242 46.101 107.252 46.0675 107.265C46.0004 107.29 45.9062 107.325 45.7862 107.367C45.5463 107.453 45.203 107.572 44.7671 107.713C43.8961 107.994 42.6518 108.363 41.1216 108.731C38.0712 109.465 33.8324 110.206 29.1209 110.206C24.4095 110.206 20.1707 109.465 17.1203 108.731C15.5901 108.363 14.3458 107.994 13.4747 107.713C13.0389 107.572 12.6956 107.453 12.4557 107.367C12.3357 107.325 12.2415 107.29 12.1744 107.265C12.1408 107.252 12.1141 107.242 12.0942 107.235L12.0697 107.225L12.0614 107.222L12.0569 107.22C12.0553 107.22 12.0557 107.22 12.0557 107.22C10.5063 106.617 9.70698 104.785 10.2704 103.127C10.8333 101.471 12.5443 100.616 14.0928 101.216" fill="url(#paint32_linear)"/>
<path d="M48.8969 103.021C48.8969 103.021 40.0426 106.613 29.1203 106.613C18.198 106.613 9.34375 103.021 9.34375 103.021" stroke="url(#paint33_linear)" stroke-width="9.80652" stroke-dasharray="0.54 2.18"/>
<path opacity="0.4" fill-rule="evenodd" clip-rule="evenodd" d="M10.264 102.577L10.2614 102.576L10.2693 102.579C10.2792 102.583 10.2976 102.59 10.3242 102.6C10.3775 102.62 10.4638 102.652 10.5815 102.694C10.8168 102.778 11.1771 102.904 11.6491 103.057C12.5938 103.363 13.9809 103.778 15.7043 104.195C19.1637 105.031 23.9118 105.858 29.1194 105.858C34.3271 105.858 39.0751 105.031 42.5346 104.195C44.2579 103.778 45.6451 103.363 46.5898 103.057C47.0617 102.904 47.422 102.778 47.6574 102.694C47.775 102.652 47.8613 102.62 47.9146 102.6C47.9413 102.59 47.9596 102.583 47.9695 102.579L47.9736 102.577L47.9749 102.577L47.9759 102.576L47.9774 102.576C49.9206 101.819 52.0676 102.897 52.7741 104.985C53.481 107.075 52.4779 109.385 50.5337 110.145C50.5337 110.145 50.5358 110.144 50.5322 110.145L50.5266 110.148L50.5161 110.152L50.4854 110.164C50.4605 110.173 50.4269 110.186 50.3848 110.202C50.3006 110.233 50.1824 110.277 50.0318 110.331C49.7307 110.439 49.2999 110.589 48.753 110.766C47.66 111.121 46.0986 111.586 44.1784 112.051C40.3507 112.976 35.0316 113.91 29.1194 113.91C23.2072 113.91 17.8882 112.976 14.0605 112.051C12.1403 111.586 10.5788 111.121 9.48582 110.766C8.93892 110.589 8.50812 110.439 8.20706 110.331C8.05649 110.277 7.93827 110.233 7.85408 110.202C7.81198 110.186 7.77838 110.173 7.7535 110.164L7.72273 110.152L7.71229 110.148L7.70664 110.145C7.70459 110.145 7.70517 110.145 7.70517 110.145C5.7609 109.385 4.75785 107.075 5.46479 104.985C6.17122 102.897 8.31825 101.819 10.2614 102.576" fill="black"/>
<path opacity="0.4" fill-rule="evenodd" clip-rule="evenodd" d="M10.264 105.3L10.2614 105.299L10.2693 105.303C10.2792 105.306 10.2976 105.313 10.3242 105.323C10.3775 105.343 10.4638 105.375 10.5815 105.418C10.8168 105.502 11.1771 105.628 11.6491 105.781C12.5938 106.087 13.9809 106.502 15.7043 106.918C19.1637 107.754 23.9118 108.581 29.1194 108.581C34.3271 108.581 39.0751 107.754 42.5346 106.918C44.2579 106.502 45.6451 106.087 46.5898 105.781C47.0617 105.628 47.422 105.502 47.6574 105.418C47.775 105.375 47.8613 105.343 47.9146 105.323C47.9413 105.313 47.9596 105.306 47.9695 105.303L47.9736 105.301L47.9749 105.3L47.9759 105.3L47.9774 105.299C49.9206 104.543 52.0676 105.621 52.7741 107.709C53.481 109.799 52.4779 112.109 50.5337 112.869C50.5337 112.869 50.5358 112.868 50.5322 112.869L50.5266 112.871L50.5161 112.875L50.4854 112.887C50.4605 112.897 50.4269 112.91 50.3848 112.925C50.3006 112.957 50.1824 113.001 50.0318 113.055C49.7307 113.163 49.2999 113.313 48.753 113.49C47.66 113.844 46.0986 114.31 44.1784 114.774C40.3507 115.699 35.0316 116.634 29.1194 116.634C23.2072 116.634 17.8882 115.699 14.0605 114.774C12.1403 114.31 10.5788 113.844 9.48582 113.49C8.93892 113.313 8.50812 113.163 8.20706 113.055C8.05649 113.001 7.93827 112.957 7.85408 112.925C7.81198 112.91 7.77838 112.897 7.7535 112.887L7.72273 112.875L7.71229 112.871L7.70664 112.869C7.70459 112.868 7.70517 112.869 7.70517 112.869C5.7609 112.109 4.75785 109.799 5.46479 107.709C6.17122 105.621 8.31825 104.543 10.2614 105.299" fill="black"/>
</g>
<defs>
<linearGradient id="paint0_linear" x1="110.942" y1="62.7864" x2="38.8812" y2="93.1877" gradientUnits="userSpaceOnUse">
<stop stop-color="#0F6E83"/>
<stop offset="1" stop-color="#14959D"/>
</linearGradient>
<linearGradient id="paint1_linear" x1="7.95392" y1="49.4115" x2="69.9466" y2="39.5979" gradientUnits="userSpaceOnUse">
<stop stop-color="#045162"/>
<stop offset="1" stop-color="#14959D"/>
</linearGradient>
<linearGradient id="paint2_linear" x1="12.7879" y1="8.82367" x2="71.4711" y2="6.58854" gradientUnits="userSpaceOnUse">
<stop stop-color="#066A81"/>
<stop offset="1" stop-color="#12E2EF"/>
</linearGradient>
<linearGradient id="paint3_linear" x1="81.0228" y1="34.4489" x2="22.9342" y2="79.8956" gradientUnits="userSpaceOnUse">
<stop stop-color="#042635"/>
<stop offset="1" stop-color="#001431"/>
</linearGradient>
<linearGradient id="paint4_linear" x1="99.5662" y1="74.7109" x2="99.5662" y2="81.6794" gradientUnits="userSpaceOnUse">
<stop stop-color="white"/>
<stop offset="1" stop-color="white" stop-opacity="0"/>
</linearGradient>
<linearGradient id="paint5_linear" x1="67.2116" y1="29.4162" x2="98.7355" y2="68.2403" gradientUnits="userSpaceOnUse">
<stop stop-color="white"/>
<stop offset="1" stop-color="white" stop-opacity="0"/>
</linearGradient>
<linearGradient id="paint6_linear" x1="76.9826" y1="14.5109" x2="69.1232" y2="35.6561" gradientUnits="userSpaceOnUse">
<stop stop-color="#042635"/>
<stop offset="1" stop-color="#001431"/>
</linearGradient>
<linearGradient id="paint7_linear" x1="77.2561" y1="14.9055" x2="69.3967" y2="36.0506" gradientUnits="userSpaceOnUse">
<stop stop-color="#042635"/>
<stop offset="1" stop-color="#001431"/>
</linearGradient>
<radialGradient id="paint8_radial" cx="0" cy="0" r="1" gradientUnits="userSpaceOnUse" gradientTransform="translate(104.051 85.8774) rotate(-0.959364) scale(3.30845 3.53917)">
<stop stop-color="#F5FCFF"/>
<stop offset="1" stop-color="white"/>
</radialGradient>
<radialGradient id="paint9_radial" cx="0" cy="0" r="1" gradientUnits="userSpaceOnUse" gradientTransform="translate(106.098 82.231) rotate(-0.959364) scale(3.30845 3.53917)">
<stop stop-color="#F5FCFF"/>
<stop offset="1" stop-color="white"/>
</radialGradient>
<radialGradient id="paint10_radial" cx="0" cy="0" r="1" gradientUnits="userSpaceOnUse" gradientTransform="translate(108.141 77.855) rotate(-0.959364) scale(3.30845 3.53917)">
<stop stop-color="#F5FCFF"/>
<stop offset="1" stop-color="white"/>
</radialGradient>
<linearGradient id="paint11_linear" x1="41.6606" y1="29.4309" x2="31.2921" y2="35.2298" gradientUnits="userSpaceOnUse">
<stop stop-color="#042635"/>
<stop offset="1" stop-color="#001431"/>
</linearGradient>
<linearGradient id="paint12_linear" x1="108.217" y1="37.7217" x2="108.217" y2="61.948" gradientUnits="userSpaceOnUse">
<stop stop-color="white"/>
<stop offset="1" stop-color="white"/>
</linearGradient>
<linearGradient id="paint13_linear" x1="99.8818" y1="37.1901" x2="101.723" y2="38.4841" gradientUnits="userSpaceOnUse">
<stop stop-color="#042635"/>
<stop offset="1" stop-color="#001431"/>
</linearGradient>
<linearGradient id="paint14_linear" x1="78.7868" y1="89.2427" x2="69.0655" y2="118.585" gradientUnits="userSpaceOnUse">
<stop stop-color="#042635"/>
<stop offset="1" stop-color="#001431"/>
</linearGradient>
<linearGradient id="paint15_linear" x1="94.4444" y1="93.0739" x2="94.1865" y2="108.349" gradientUnits="userSpaceOnUse">
<stop stop-color="#73DDFE"/>
<stop offset="1" stop-color="#A2E9FF"/>
</linearGradient>
<linearGradient id="paint16_linear" x1="74.1248" y1="94.8799" x2="74.1248" y2="109.416" gradientUnits="userSpaceOnUse">
<stop stop-color="#032134"/>
<stop offset="1" stop-color="#194B42"/>
</linearGradient>
<linearGradient id="paint17_linear" x1="49.2716" y1="85.4564" x2="9.83452" y2="102.094" gradientUnits="userSpaceOnUse">
<stop stop-color="#0F6E83"/>
<stop offset="1" stop-color="#14959D"/>
</linearGradient>
<linearGradient id="paint18_linear" x1="-7.0942" y1="78.1364" x2="26.8328" y2="72.7657" gradientUnits="userSpaceOnUse">
<stop stop-color="#045162"/>
<stop offset="1" stop-color="#14959D"/>
</linearGradient>
<linearGradient id="paint19_linear" x1="-4.4457" y1="55.9239" x2="27.6701" y2="54.7006" gradientUnits="userSpaceOnUse">
<stop stop-color="#066A81"/>
<stop offset="1" stop-color="#12E2EF"/>
</linearGradient>
<linearGradient id="paint20_linear" x1="32.8962" y1="69.9482" x2="1.10579" y2="94.82" gradientUnits="userSpaceOnUse">
<stop stop-color="#042635"/>
<stop offset="1" stop-color="#001431"/>
</linearGradient>
<linearGradient id="paint21_linear" x1="43.0435" y1="91.9824" x2="43.0435" y2="95.7961" gradientUnits="userSpaceOnUse">
<stop stop-color="white"/>
<stop offset="1" stop-color="white" stop-opacity="0"/>
</linearGradient>
<linearGradient id="paint22_linear" x1="25.3371" y1="67.1933" x2="42.5893" y2="88.4408" gradientUnits="userSpaceOnUse">
<stop stop-color="white"/>
<stop offset="1" stop-color="white" stop-opacity="0"/>
</linearGradient>
<linearGradient id="paint23_linear" x1="30.8386" y1="58.4892" x2="26.5373" y2="70.0614" gradientUnits="userSpaceOnUse">
<stop stop-color="#042635"/>
<stop offset="1" stop-color="#001431"/>
</linearGradient>
<linearGradient id="paint24_linear" x1="30.9909" y1="58.705" x2="26.6897" y2="70.2772" gradientUnits="userSpaceOnUse">
<stop stop-color="#042635"/>
<stop offset="1" stop-color="#001431"/>
</linearGradient>
<radialGradient id="paint25_radial" cx="0" cy="0" r="1" gradientUnits="userSpaceOnUse" gradientTransform="translate(45.5016 98.0937) rotate(-0.959364) scale(1.81063 1.93689)">
<stop stop-color="#F5FCFF"/>
<stop offset="1" stop-color="white"/>
</radialGradient>
<radialGradient id="paint26_radial" cx="0" cy="0" r="1" gradientUnits="userSpaceOnUse" gradientTransform="translate(46.6188 96.0976) rotate(-0.959364) scale(1.81063 1.93689)">
<stop stop-color="#F5FCFF"/>
<stop offset="1" stop-color="white"/>
</radialGradient>
<radialGradient id="paint27_radial" cx="0" cy="0" r="1" gradientUnits="userSpaceOnUse" gradientTransform="translate(47.7399 93.7031) rotate(-0.959364) scale(1.81063 1.93689)">
<stop stop-color="#F5FCFF"/>
<stop offset="1" stop-color="white"/>
</radialGradient>
<linearGradient id="paint28_linear" x1="11.356" y1="67.2018" x2="5.68164" y2="70.3754" gradientUnits="userSpaceOnUse">
<stop stop-color="#042635"/>
<stop offset="1" stop-color="#001431"/>
</linearGradient>
<linearGradient id="paint29_linear" x1="47.7807" y1="71.7393" x2="47.7807" y2="84.9977" gradientUnits="userSpaceOnUse">
<stop stop-color="white"/>
<stop offset="1" stop-color="white"/>
</linearGradient>
<linearGradient id="paint30_linear" x1="10.9303" y1="71.4483" x2="11.9381" y2="72.1565" gradientUnits="userSpaceOnUse">
<stop stop-color="#042635"/>
<stop offset="1" stop-color="#001431"/>
</linearGradient>
<linearGradient id="paint31_linear" x1="31.6717" y1="99.9355" x2="26.3515" y2="115.994" gradientUnits="userSpaceOnUse">
<stop stop-color="#042635"/>
<stop offset="1" stop-color="#001431"/>
</linearGradient>
<linearGradient id="paint32_linear" x1="40.2408" y1="102.032" x2="40.0996" y2="110.392" gradientUnits="userSpaceOnUse">
<stop stop-color="#73DDFE"/>
<stop offset="1" stop-color="#A2E9FF"/>
</linearGradient>
<linearGradient id="paint33_linear" x1="29.1203" y1="103.021" x2="29.1203" y2="110.976" gradientUnits="userSpaceOnUse">
<stop stop-color="#032134"/>
<stop offset="1" stop-color="#194B42"/>
</linearGradient>
</defs>
</svg>
