<svg width="125" height="125" viewBox="0 0 125 125" fill="none" xmlns="http://www.w3.org/2000/svg">
<path d="M109.434 68.6216C110.034 66.5131 110.357 64.2744 110.357 61.9545C110.357 60.4936 110.229 59.0649 109.984 57.6807H16.0564C15.8117 59.0649 15.6836 60.4936 15.6836 61.9545C15.6836 64.2744 16.0066 66.5131 16.6069 68.6216H109.434Z" fill="url(#paint0_linear)"/>
<path d="M106.428 74.4568C107.716 69.9588 108.409 65.1828 108.409 60.2336C108.409 57.1171 108.134 54.0692 107.609 51.1162H18.5263C18.0013 54.0692 17.7266 57.1171 17.7266 60.2336C17.7266 65.1828 18.4195 69.9588 19.7071 74.4568H106.428Z" fill="url(#paint1_linear)"/>
<ellipse cx="62.9046" cy="60.2337" rx="41.932" ry="44.8577" fill="url(#paint2_linear)"/>
<path d="M63.7818 98.5927C102.21 97.7894 109.832 50.4455 86.1756 37.429C78.4671 33.1877 73.4687 35.1625 69.0529 36.9072C67.0771 37.6879 65.2178 38.4225 63.2846 38.5335C61.3514 38.4225 59.4922 37.6879 57.5163 36.9072C53.1005 35.1625 48.1021 33.1877 40.3937 37.429C16.737 50.4455 24.3597 97.7894 62.7875 98.5927V98.603C62.9538 98.603 63.1195 98.6021 63.2846 98.6004C63.4498 98.6021 63.6155 98.603 63.7818 98.603V98.5927Z" fill="url(#paint3_linear)"/>
<circle opacity="0.4" cx="88.1717" cy="78.1952" r="3.48422" fill="url(#paint4_linear)"/>
<path d="M82.6953 45.8418C87.6728 48.4964 94.3426 55.4981 91.157 68.2403" stroke="url(#paint5_linear)" stroke-width="7.96392" stroke-linecap="round" stroke-linejoin="round"/>
<path opacity="0.2" d="M39.8906 22.2612C46.4758 17.6576 54.3452 14.9814 62.7989 14.9814C71.2526 14.9814 79.122 17.6576 85.7072 22.2612C80.5642 25.3638 72.2191 27.3811 62.7989 27.3811C53.3787 27.3811 45.0336 25.3638 39.8906 22.2612Z" fill="url(#paint6_linear)"/>
<path opacity="0.2" d="M40.1641 22.6558C46.7493 18.0521 54.6187 15.376 63.0723 15.376V27.7757C53.6521 27.7757 45.3071 25.7583 40.1641 22.6558Z" fill="url(#paint7_linear)"/>
<ellipse cx="94.4329" cy="86.4916" rx="1.02273" ry="1.09409" fill="url(#paint8_radial)"/>
<ellipse cx="96.4798" cy="82.8451" rx="1.02273" ry="1.09409" fill="url(#paint9_radial)"/>
<ellipse cx="98.5227" cy="78.4691" rx="1.02273" ry="1.09409" fill="url(#paint10_radial)"/>
<path opacity="0.4" fill-rule="evenodd" clip-rule="evenodd" d="M54.4004 104.132C43.0194 101.573 33.3372 94.0774 27.4023 83.8355C27.4308 83.8458 27.4605 83.8565 27.4914 83.8676C27.9214 84.0221 28.5798 84.2514 29.4422 84.5309C31.1683 85.0905 33.703 85.8484 36.852 86.6096C43.1732 88.1376 51.849 89.6489 61.3646 89.6489C70.8802 89.6489 79.556 88.1376 85.8773 86.6096C89.0263 85.8484 91.5609 85.0905 93.2871 84.5309C94.1494 84.2514 94.8078 84.0221 95.2379 83.8676C95.4528 83.7904 95.6105 83.732 95.7079 83.6954C95.7566 83.6772 95.7902 83.6644 95.8083 83.6574L95.8157 83.6546L95.818 83.6537L95.8199 83.653L95.8227 83.6519C96.8932 83.235 97.9976 83.1229 99.0535 83.2742C93.4696 93.2334 84.3755 100.683 73.6008 103.665C69.7607 104.094 65.6478 104.362 61.3646 104.362C58.9848 104.362 56.6575 104.28 54.4004 104.132Z" fill="black"/>
<path opacity="0.2" fill-rule="evenodd" clip-rule="evenodd" d="M24.8047 41.8688C26.4824 37.8741 28.6907 34.1896 31.3335 30.918L34.4364 36.8929L28.6409 43.4574L24.8047 41.8688Z" fill="url(#paint11_linear)"/>
<path d="M93.75 37.7217C93.75 37.7217 98.1818 41.3686 99.8864 48.6626" stroke="url(#paint12_linear)" stroke-width="2.98647" stroke-dasharray="1 1.99"/>
<ellipse opacity="0.3" cx="29.6595" cy="38.3519" rx="1.02273" ry="1.09409" fill="url(#paint13_linear)"/>
<mask id="mask0" mask-type="alpha" maskUnits="userSpaceOnUse" x="27" y="91" width="71" height="18">
<path fill-rule="evenodd" clip-rule="evenodd" d="M35.2752 91.5844L35.2714 91.583L35.2829 91.5873C35.2973 91.5928 35.3241 91.603 35.3629 91.6175C35.4405 91.6465 35.5662 91.6928 35.7375 91.7541C36.0802 91.8766 36.6048 92.0585 37.2921 92.2802C38.6677 92.724 40.6875 93.3252 43.197 93.9289C48.2344 95.1409 55.1483 96.3396 62.7314 96.3396C70.3144 96.3396 77.2283 95.1409 82.2657 93.9289C84.7752 93.3252 86.795 92.724 88.1707 92.2802C88.8579 92.0585 89.3826 91.8766 89.7253 91.7541C89.8966 91.6928 90.0222 91.6465 90.0998 91.6175C90.1386 91.603 90.1654 91.5928 90.1798 91.5873L90.1857 91.5851L90.1876 91.5844L90.1891 91.5838L90.1913 91.583C93.0208 90.4863 96.1472 92.0485 97.1759 95.075C98.2048 98.1023 96.746 101.449 93.9175 102.551C93.9175 102.551 93.9114 102.554 93.9114 102.554V102.554L93.9032 102.557L93.888 102.563L93.8432 102.58C93.8069 102.594 93.758 102.612 93.6967 102.635C93.5741 102.681 93.402 102.744 93.1827 102.823C92.7443 102.979 92.117 103.196 91.3207 103.453C89.7291 103.967 87.4554 104.642 84.6593 105.315C79.0856 106.656 71.3403 108.01 62.7314 108.01C54.1224 108.01 46.3771 106.656 40.8034 105.315C38.0073 104.642 35.7336 103.967 34.1421 103.453C33.3457 103.196 32.7184 102.979 32.28 102.823C32.0607 102.744 31.8886 102.681 31.766 102.635C31.7047 102.612 31.6558 102.594 31.6195 102.58L31.5747 102.563L31.5595 102.557L31.5513 102.554V102.554C31.5513 102.554 31.5468 102.552 31.5468 102.552C28.7172 101.45 27.2577 98.1029 28.2869 95.075C29.3155 92.0486 32.4419 90.4864 35.2714 91.583" fill="url(#paint14_linear)"/>
</mask>
<g mask="url(#mask0)">
<path fill-rule="evenodd" clip-rule="evenodd" d="M35.2752 91.5844L35.2714 91.583L35.2829 91.5873C35.2973 91.5928 35.3241 91.603 35.3629 91.6175C35.4405 91.6465 35.5662 91.6928 35.7375 91.7541C36.0802 91.8766 36.6048 92.0585 37.2921 92.2802C38.6677 92.724 40.6875 93.3252 43.197 93.9289C48.2344 95.1409 55.1483 96.3396 62.7314 96.3396C70.3144 96.3396 77.2283 95.1409 82.2657 93.9289C84.7752 93.3252 86.795 92.724 88.1707 92.2802C88.8579 92.0585 89.3826 91.8766 89.7253 91.7541C89.8966 91.6928 90.0222 91.6465 90.0998 91.6175C90.1386 91.603 90.1654 91.5928 90.1798 91.5873L90.1857 91.5851L90.1876 91.5844L90.1891 91.5838L90.1913 91.583C93.0208 90.4863 96.1472 92.0485 97.1759 95.075C98.2053 98.1037 96.7447 101.452 93.9135 102.553C93.9135 102.553 93.9167 102.552 93.9114 102.554L93.9032 102.557L93.888 102.563L93.8432 102.58C93.8069 102.594 93.758 102.612 93.6967 102.635C93.5741 102.681 93.402 102.744 93.1827 102.823C92.7443 102.979 92.117 103.196 91.3207 103.453C89.7291 103.967 87.4554 104.642 84.6593 105.315C79.0856 106.656 71.3403 108.01 62.7314 108.01C54.1224 108.01 46.3771 106.656 40.8034 105.315C38.0073 104.642 35.7336 103.967 34.1421 103.453C33.3457 103.196 32.7184 102.979 32.28 102.823C32.0607 102.744 31.8886 102.681 31.766 102.635C31.7047 102.612 31.6558 102.594 31.6195 102.58L31.5747 102.563L31.5595 102.557L31.5513 102.554C31.5483 102.553 31.5492 102.553 31.5492 102.553C28.718 101.452 27.2575 98.1037 28.2869 95.075C29.3155 92.0486 32.4419 90.4864 35.2714 91.583" fill="url(#paint15_linear)"/>
<path d="M98.8667 94.8799C98.8667 94.8799 82.6879 101.444 62.7302 101.444C42.7726 101.444 26.5938 94.8799 26.5938 94.8799" stroke="url(#paint16_linear)" stroke-width="17.9188" stroke-dasharray="1 3.98"/>
<path opacity="0.4" fill-rule="evenodd" clip-rule="evenodd" d="M28.2769 94.0688L28.2722 94.0669L28.2866 94.0725C28.3047 94.0794 28.3383 94.0922 28.387 94.1105C28.4844 94.147 28.642 94.2055 28.857 94.2827C29.287 94.4371 29.9454 94.6664 30.8078 94.946C32.534 95.5055 35.0686 96.2635 38.2176 97.0246C44.5388 98.5526 53.2147 100.064 62.7303 100.064C72.2458 100.064 80.9217 98.5526 87.2429 97.0246C90.3919 96.2635 92.9265 95.5055 94.6527 94.946C95.5151 94.6664 96.1735 94.4371 96.6035 94.2827C96.8185 94.2055 96.9762 94.147 97.0735 94.1105C97.1222 94.0922 97.1558 94.0794 97.1739 94.0725L97.1813 94.0697L97.1836 94.0688L97.1856 94.068L97.1883 94.0669C100.739 92.6843 104.662 94.6539 105.953 98.4696C107.245 102.288 105.412 106.509 101.859 107.897C101.859 107.897 101.863 107.896 101.857 107.898L101.846 107.902L101.827 107.91L101.771 107.932C101.725 107.949 101.664 107.972 101.587 108.001C101.433 108.059 101.217 108.139 100.942 108.238C100.392 108.435 99.6048 108.709 98.6055 109.033C96.6083 109.68 93.7552 110.531 90.2465 111.38C83.2524 113.07 73.5332 114.777 62.7303 114.777C51.9273 114.777 42.2081 113.07 35.214 111.38C31.7053 110.531 28.8522 109.68 26.855 109.033C25.8557 108.709 25.0685 108.435 24.5184 108.238C24.2433 108.139 24.0273 108.059 23.8734 108.001C23.7965 107.972 23.7351 107.949 23.6896 107.932L23.6334 107.91L23.6143 107.902L23.604 107.898C23.6003 107.897 23.6013 107.897 23.6013 107.897C20.0487 106.509 18.2159 102.288 19.5076 98.4696C20.7985 94.654 24.7216 92.6844 28.2722 94.0669" fill="black"/>
<path opacity="0.4" fill-rule="evenodd" clip-rule="evenodd" d="M28.2769 99.0463L28.2722 99.0445L28.2866 99.05C28.3047 99.0569 28.3383 99.0697 28.387 99.088C28.4844 99.1246 28.642 99.183 28.857 99.2602C29.287 99.4147 29.9454 99.644 30.8078 99.9235C32.534 100.483 35.0686 101.241 38.2176 102.002C44.5388 103.53 53.2147 105.041 62.7303 105.041C72.2458 105.041 80.9217 103.53 87.2429 102.002C90.3919 101.241 92.9265 100.483 94.6527 99.9235C95.5151 99.644 96.1735 99.4147 96.6035 99.2602C96.8185 99.183 96.9762 99.1246 97.0735 99.088C97.1222 99.0697 97.1558 99.0569 97.1739 99.05L97.1813 99.0472L97.1836 99.0463L97.1856 99.0455L97.1883 99.0445C100.739 97.6618 104.662 99.6314 105.953 103.447C107.245 107.266 105.412 111.487 101.859 112.875C101.859 112.875 101.863 112.873 101.857 112.876L101.846 112.88L101.827 112.887L101.771 112.909C101.725 112.926 101.664 112.95 101.587 112.979C101.433 113.036 101.217 113.116 100.942 113.215C100.392 113.413 99.6048 113.686 98.6055 114.01C96.6083 114.658 93.7552 115.509 90.2465 116.357C83.2524 118.048 73.5332 119.755 62.7303 119.755C51.9273 119.755 42.2081 118.048 35.214 116.357C31.7053 115.509 28.8522 114.658 26.855 114.01C25.8557 113.686 25.0685 113.413 24.5184 113.215C24.2433 113.116 24.0273 113.036 23.8734 112.979C23.7965 112.95 23.7351 112.926 23.6896 112.909L23.6334 112.887L23.6143 112.88L23.604 112.876C23.6003 112.875 23.6013 112.875 23.6013 112.875C20.0487 111.487 18.2159 107.266 19.5076 103.447C20.7985 99.6315 24.7216 97.6619 28.2722 99.0445" fill="black"/>
</g>
<defs>
<linearGradient id="paint0_linear" x1="99.5475" y1="62.7864" x2="27.4867" y2="93.1877" gradientUnits="userSpaceOnUse">
<stop stop-color="#0F6E83"/>
<stop offset="1" stop-color="#14959D"/>
</linearGradient>
<linearGradient id="paint1_linear" x1="-3.44452" y1="49.4115" x2="58.5481" y2="39.5979" gradientUnits="userSpaceOnUse">
<stop stop-color="#045162"/>
<stop offset="1" stop-color="#14959D"/>
</linearGradient>
<linearGradient id="paint2_linear" x1="1.39339" y1="8.82367" x2="60.0765" y2="6.58854" gradientUnits="userSpaceOnUse">
<stop stop-color="#066A81"/>
<stop offset="1" stop-color="#12E2EF"/>
</linearGradient>
<linearGradient id="paint3_linear" x1="69.6283" y1="34.4489" x2="11.5396" y2="79.8956" gradientUnits="userSpaceOnUse">
<stop stop-color="#042635"/>
<stop offset="1" stop-color="#001431"/>
</linearGradient>
<linearGradient id="paint4_linear" x1="88.1717" y1="74.7109" x2="88.1717" y2="81.6794" gradientUnits="userSpaceOnUse">
<stop stop-color="white"/>
<stop offset="1" stop-color="white" stop-opacity="0"/>
</linearGradient>
<linearGradient id="paint5_linear" x1="55.8171" y1="29.4162" x2="87.341" y2="68.2403" gradientUnits="userSpaceOnUse">
<stop stop-color="white"/>
<stop offset="1" stop-color="white" stop-opacity="0"/>
</linearGradient>
<linearGradient id="paint6_linear" x1="65.8694" y1="13.5109" x2="58.01" y2="34.6561" gradientUnits="userSpaceOnUse">
<stop stop-color="#042635"/>
<stop offset="1" stop-color="#001431"/>
</linearGradient>
<linearGradient id="paint7_linear" x1="66.1428" y1="13.9055" x2="58.2834" y2="35.0506" gradientUnits="userSpaceOnUse">
<stop stop-color="#042635"/>
<stop offset="1" stop-color="#001431"/>
</linearGradient>
<radialGradient id="paint8_radial" cx="0" cy="0" r="1" gradientUnits="userSpaceOnUse" gradientTransform="translate(92.6565 85.8774) rotate(-0.959364) scale(3.30845 3.53917)">
<stop stop-color="#F5FCFF"/>
<stop offset="1" stop-color="white"/>
</radialGradient>
<radialGradient id="paint9_radial" cx="0" cy="0" r="1" gradientUnits="userSpaceOnUse" gradientTransform="translate(94.7034 82.231) rotate(-0.959364) scale(3.30845 3.53917)">
<stop stop-color="#F5FCFF"/>
<stop offset="1" stop-color="white"/>
</radialGradient>
<radialGradient id="paint10_radial" cx="0" cy="0" r="1" gradientUnits="userSpaceOnUse" gradientTransform="translate(96.7464 77.855) rotate(-0.959364) scale(3.30845 3.53917)">
<stop stop-color="#F5FCFF"/>
<stop offset="1" stop-color="white"/>
</radialGradient>
<linearGradient id="paint11_linear" x1="30.266" y1="29.4309" x2="19.8976" y2="35.2298" gradientUnits="userSpaceOnUse">
<stop stop-color="#042635"/>
<stop offset="1" stop-color="#001431"/>
</linearGradient>
<linearGradient id="paint12_linear" x1="96.8182" y1="37.7217" x2="96.8182" y2="61.948" gradientUnits="userSpaceOnUse">
<stop stop-color="white"/>
<stop offset="1" stop-color="white"/>
</linearGradient>
<linearGradient id="paint13_linear" x1="29.4872" y1="37.1901" x2="31.3287" y2="38.4841" gradientUnits="userSpaceOnUse">
<stop stop-color="#042635"/>
<stop offset="1" stop-color="#001431"/>
</linearGradient>
<linearGradient id="paint14_linear" x1="67.3922" y1="89.2427" x2="57.6709" y2="118.585" gradientUnits="userSpaceOnUse">
<stop stop-color="#042635"/>
<stop offset="1" stop-color="#001431"/>
</linearGradient>
<linearGradient id="paint15_linear" x1="83.0499" y1="93.0739" x2="82.792" y2="108.349" gradientUnits="userSpaceOnUse">
<stop stop-color="#73DDFE"/>
<stop offset="1" stop-color="#A2E9FF"/>
</linearGradient>
<linearGradient id="paint16_linear" x1="62.7302" y1="94.8799" x2="62.7302" y2="109.416" gradientUnits="userSpaceOnUse">
<stop stop-color="#032134"/>
<stop offset="1" stop-color="#194B42"/>
</linearGradient>
</defs>
</svg>
