<svg width="14" height="14" viewBox="0 0 14 14" fill="none" xmlns="http://www.w3.org/2000/svg">
<path d="M8.12908 7.77345C7.67359 7.77345 7.30435 8.13837 7.30435 8.58851V10.5678C7.30435 11.0179 7.67359 11.3828 8.12908 11.3828H10.7405C11.196 11.3828 11.5652 11.0179 11.5652 10.5678V8.58851C11.5652 8.13837 11.196 7.77345 10.7405 7.77345H8.12908Z" fill="#B2B5BB"/>
<path fill-rule="evenodd" clip-rule="evenodd" d="M3.39389 1.1836C3.39389 0.836259 3.6788 0.554688 4.03026 0.554688C4.38171 0.554688 4.66662 0.836259 4.66662 1.18359V2.23175H8.90901V1.1836C8.90901 0.836259 9.19392 0.554688 9.54537 0.554688C9.89683 0.554688 10.1817 0.836259 10.1817 1.18359V2.23175H11.8788C12.2855 2.23175 12.6587 2.37313 12.951 2.60888C13.5409 2.97166 14 3.56222 14 4.22911V11.974C14 13.0771 12.7438 13.9714 11.7176 13.9714H1.85813C0.831915 13.9714 0 13.0771 0 11.974V3.90884C0 2.98261 0.759759 2.23175 1.69697 2.23175H3.39389V1.1836ZM1.21739 11.4759V6.0052H12.7826V11.4759C12.7826 12.089 12.2841 12.586 11.6692 12.586H2.33081C1.71589 12.586 1.21739 12.089 1.21739 11.4759Z" fill="#B2B5BB"/>
</svg>
