<svg width="1211" height="594" viewBox="0 0 1211 594" fill="none" xmlns="http://www.w3.org/2000/svg">
<path d="M1211 327H0C44.7737 416 225.744 594 591.435 594C957.126 594 1156.85 416 1211 327Z" fill="url(#paint0_radial)"/>
<path opacity="0.5" fill-rule="evenodd" clip-rule="evenodd" d="M473.25 179.073C468.747 179.073 465.415 183.264 466.431 187.651L486.131 272.781C487.601 279.129 493.255 283.625 499.771 283.625H592.437C596.779 283.625 600.074 279.712 599.334 275.433L583.688 184.881C583.108 181.525 580.197 179.073 576.791 179.073H473.25Z" fill="#12E2EF" fill-opacity="0.7"/>
<path opacity="0.5" fill-rule="evenodd" clip-rule="evenodd" d="M386.51 127.481C382.102 127.481 378.791 131.506 379.642 135.831L392.304 200.231C393.226 204.921 397.337 208.302 402.116 208.302H497.606C501.975 208.302 505.277 204.343 504.492 200.045L492.288 133.223C491.681 129.897 488.783 127.481 485.402 127.481H386.51Z" fill="url(#paint1_linear)" fill-opacity="0.7"/>
<path d="M392 120H416.5" stroke="#171717" stroke-linecap="round"/>
<path d="M423 120L427 120" stroke="#171717" stroke-linecap="round"/>
<path d="M434 120H451" stroke="#171717" stroke-linecap="round"/>
<path d="M457 120H478" stroke="#171717" stroke-linecap="round"/>
<path d="M394 131H418.5" stroke="#171717" stroke-linecap="round"/>
<path d="M425 131L429 131" stroke="#171717" stroke-linecap="round"/>
<path d="M436 131H453" stroke="#171717" stroke-linecap="round"/>
<path d="M459 131H480" stroke="#171717" stroke-linecap="round"/>
<path d="M396 142H420.5" stroke="#171717" stroke-linecap="round"/>
<path d="M427 142L431 142" stroke="#171717" stroke-linecap="round"/>
<path d="M438 142H455" stroke="#171717" stroke-linecap="round"/>
<path d="M461 142H482" stroke="#171717" stroke-linecap="round"/>
<path d="M398 153H422.5" stroke="#171717" stroke-linecap="round"/>
<path d="M429 153L433 153" stroke="#171717" stroke-linecap="round"/>
<path d="M440 153H457" stroke="#171717" stroke-linecap="round"/>
<path d="M463 153H484" stroke="#171717" stroke-linecap="round"/>
<path d="M400 164H424.5" stroke="#171717" stroke-linecap="round"/>
<path d="M431 164L435 164" stroke="#171717" stroke-linecap="round"/>
<path d="M442 164H459" stroke="#171717" stroke-linecap="round"/>
<path d="M465 164H486" stroke="#171717" stroke-linecap="round"/>
<path d="M402 175H426.5" stroke="#171717" stroke-linecap="round"/>
<path d="M433 175L437 175" stroke="#171717" stroke-linecap="round"/>
<path d="M444 175H461" stroke="#171717" stroke-linecap="round"/>
<path d="M467 175H488" stroke="#171717" stroke-linecap="round"/>
<path fill-rule="evenodd" clip-rule="evenodd" d="M513.512 258.816C513.782 258.816 514 259.042 514 259.321C514 259.569 513.828 259.775 513.6 259.818L513.512 259.826H499.488C499.218 259.826 499 259.6 499 259.321C499 259.073 499.172 258.867 499.4 258.824L499.488 258.816H513.512Z" fill="#5CA2DF"/>
<path fill-rule="evenodd" clip-rule="evenodd" d="M513.505 266.898C513.778 266.898 514 267.124 514 267.402C514 267.65 513.825 267.856 513.594 267.899L513.505 267.907H501.495C501.222 267.907 501 267.681 501 267.402C501 267.155 501.175 266.949 501.406 266.906L501.495 266.898H513.505Z" fill="#5CA2DF"/>
<path fill-rule="evenodd" clip-rule="evenodd" d="M576.615 212.03C576.892 212.03 577.115 212.256 577.115 212.534C577.115 212.782 576.939 212.988 576.705 213.031L576.615 213.039H558.5C558.224 213.039 558 212.813 558 212.534C558 212.287 558.177 212.081 558.41 212.038L558.5 212.03H576.615Z" fill="#5CA2DF"/>
<path fill-rule="evenodd" clip-rule="evenodd" d="M577.696 216.577C577.973 216.577 578.196 216.803 578.196 217.082C578.196 217.33 578.02 217.536 577.786 217.579L577.696 217.587H566.5C566.224 217.587 566 217.361 566 217.082C566 216.834 566.177 216.628 566.41 216.585L566.5 216.577H577.696Z" fill="#5CA2DF"/>
<path fill-rule="evenodd" clip-rule="evenodd" d="M578.932 221.545C579.208 221.545 579.432 221.771 579.432 222.05C579.432 222.298 579.255 222.504 579.022 222.546L578.932 222.555H571.5C571.224 222.555 571 222.329 571 222.05C571 221.802 571.177 221.596 571.41 221.553L571.5 221.545H578.932Z" fill="#5CA2DF"/>
<g opacity="0.6" filter="url(#filter0_d)">
<path fill-rule="evenodd" clip-rule="evenodd" d="M433.092 200.22C431.065 200.22 429.621 202.189 430.231 204.123L434.141 216.519C434.929 219.017 437.245 220.714 439.864 220.714H484.77C486.747 220.714 488.183 218.835 487.664 216.927L484.324 204.645C483.614 202.033 481.242 200.22 478.534 200.22H433.092Z" fill="url(#paint2_linear)"/>
</g>
<path fill-rule="evenodd" clip-rule="evenodd" d="M469.705 205.84C469.981 205.84 470.205 206.066 470.205 206.345C470.205 206.593 470.028 206.799 469.795 206.842L469.705 206.85H452.48C452.204 206.85 451.98 206.624 451.98 206.345C451.98 206.097 452.157 205.891 452.391 205.848L452.48 205.84H469.705Z" fill="#1A1B1D"/>
<path fill-rule="evenodd" clip-rule="evenodd" d="M470.705 209.962C470.981 209.962 471.205 210.188 471.205 210.467C471.205 210.715 471.028 210.922 470.795 210.964L470.705 210.972H453.48C453.204 210.972 452.98 210.746 452.98 210.467C452.98 210.219 453.157 210.013 453.391 209.97L453.48 209.962H470.705Z" fill="#1A1B1D"/>
<path fill-rule="evenodd" clip-rule="evenodd" d="M463.683 214.326C463.959 214.326 464.183 214.552 464.183 214.831C464.183 215.079 464.006 215.286 463.773 215.328L463.683 215.337H454.641C454.364 215.337 454.141 215.11 454.141 214.831C454.141 214.583 454.317 214.377 454.551 214.334L454.641 214.326H463.683Z" fill="#1A1B1D"/>
<path d="M439.776 207.818C439.661 207.722 439.491 207.72 439.373 207.821C439.241 207.935 439.224 208.136 439.336 208.27L441.863 211.297L440.188 214.132L440.163 214.183C440.111 214.325 440.164 214.488 440.296 214.568C440.445 214.659 440.638 214.61 440.727 214.459L442.292 211.811L444.707 214.705L444.748 214.745C444.863 214.841 445.033 214.843 445.15 214.742C445.283 214.629 445.299 214.428 445.187 214.293L442.633 211.233L444.047 208.839L444.072 208.788C444.124 208.646 444.071 208.483 443.939 208.403C443.79 208.312 443.597 208.361 443.507 208.512L442.204 210.719L439.816 207.859L439.776 207.818Z" fill="white"/>
<path fill-rule="evenodd" clip-rule="evenodd" d="M528.288 214.206C529.241 220.07 531.021 223.003 533.629 223.003C537.541 223.003 538.03 215.039 537.054 211.685C536.404 209.45 535.262 206.67 533.629 203.346C540.249 210.865 544.757 218.467 547.152 226.151C550.744 237.678 546.994 249.589 537.054 251.519C530.428 252.806 525.403 249.629 521.979 241.989V246.064C519.81 242.021 519.098 237.872 519.846 233.616C520.593 229.36 523.407 222.89 528.288 214.206Z" fill="#00FF9E"/>
<path fill-rule="evenodd" clip-rule="evenodd" d="M531.816 233.381C530.345 237.273 530.345 240.367 531.816 242.663C534.022 246.108 539.246 244.748 539.596 240.209C539.829 237.183 539.095 233.998 537.393 230.653C537.111 233.797 536.246 235.469 534.8 235.67C533.353 235.871 532.358 235.108 531.816 233.381Z" fill="url(#paint3_linear)"/>
<path opacity="0.5" fill-rule="evenodd" clip-rule="evenodd" d="M576.694 214.364C574.79 214.364 573.367 216.116 573.758 217.98L577.505 235.85C578.185 239.092 581.044 241.414 584.356 241.414H637.67C639.545 241.414 640.96 239.714 640.621 237.871L637.35 220.097C636.739 216.775 633.843 214.364 630.466 214.364H576.694Z" fill="url(#paint4_linear)"/>
<path fill-rule="evenodd" clip-rule="evenodd" d="M602.876 224.493C603.153 224.493 603.376 224.719 603.376 224.998C603.376 225.246 603.2 225.452 602.966 225.495L602.876 225.503H590.543C590.267 225.503 590.043 225.277 590.043 224.998C590.043 224.75 590.22 224.543 590.453 224.501L590.543 224.493H602.876Z" fill="#B2FFF9"/>
<path fill-rule="evenodd" clip-rule="evenodd" d="M604.876 229.707C605.153 229.707 605.376 229.933 605.376 230.212C605.376 230.46 605.2 230.666 604.966 230.709L604.876 230.717H592.543C592.267 230.717 592.043 230.491 592.043 230.212C592.043 229.964 592.22 229.758 592.453 229.715L592.543 229.707H604.876Z" fill="#B2FFF9"/>
<path d="M627.379 235.256C630.851 233.655 632.29 229.041 630.592 224.95C628.894 220.86 624.703 218.842 621.23 220.443C617.758 222.045 616.32 226.659 618.018 230.749C619.716 234.84 623.907 236.858 627.379 235.256Z" fill="#B2FFF9"/>
<path fill-rule="evenodd" clip-rule="evenodd" d="M625.111 231.234C625.134 231.28 625.153 231.328 625.168 231.377L625.169 231.379L625.429 232.64C625.478 232.879 625.326 233.113 625.09 233.163C624.88 233.207 624.673 233.091 624.595 232.897L624.572 232.821L624.312 231.56C624.263 231.321 624.415 231.087 624.651 231.037C624.835 230.998 625.016 231.082 625.111 231.234ZM623.363 222.753C623.386 222.798 623.405 222.846 623.42 222.896L623.421 222.898L624.773 229.46C624.823 229.699 624.671 229.933 624.434 229.983C624.224 230.027 624.017 229.911 623.94 229.716L623.917 229.64L622.564 223.078C622.515 222.839 622.667 222.605 622.903 222.555C623.087 222.517 623.268 222.601 623.363 222.753Z" fill="url(#paint5_linear)"/>
<path opacity="0.5" fill-rule="evenodd" clip-rule="evenodd" d="M416.579 143.417C418.484 143.417 419.906 141.666 419.515 139.802L415.768 121.931C415.089 118.689 412.23 116.368 408.917 116.368H355.603C353.729 116.368 352.313 118.067 352.652 119.911L355.923 137.684C356.534 141.006 359.43 143.417 362.808 143.417H416.579Z" fill="url(#paint6_linear)"/>
<path fill-rule="evenodd" clip-rule="evenodd" d="M390.397 133.289C390.121 133.289 389.897 133.063 389.897 132.784C389.897 132.536 390.074 132.329 390.307 132.287L390.397 132.279H402.73C403.007 132.279 403.23 132.505 403.23 132.784C403.23 133.032 403.054 133.238 402.82 133.281L402.73 133.289H390.397Z" fill="#B2FFF9"/>
<path fill-rule="evenodd" clip-rule="evenodd" d="M388.397 128.075C388.121 128.075 387.897 127.848 387.897 127.569C387.897 127.321 388.074 127.115 388.307 127.072L388.397 127.064H400.73C401.007 127.064 401.23 127.29 401.23 127.569C401.23 127.817 401.054 128.024 400.82 128.066L400.73 128.075H388.397Z" fill="#B2FFF9"/>
<path d="M365.894 122.525C362.422 124.126 360.984 128.74 362.682 132.831C364.38 136.921 368.571 138.939 372.043 137.338C375.515 135.737 376.954 131.123 375.256 127.032C373.558 122.942 369.367 120.924 365.894 122.525Z" fill="#B2FFF9"/>
<path fill-rule="evenodd" clip-rule="evenodd" d="M370.392 133.297C370.416 133.343 370.435 133.391 370.449 133.44L370.45 133.442L370.71 134.703C370.759 134.942 370.608 135.176 370.371 135.226C370.161 135.27 369.954 135.154 369.876 134.96L369.853 134.883L369.594 133.622C369.544 133.383 369.696 133.149 369.933 133.1C370.117 133.061 370.298 133.145 370.392 133.297ZM368.644 124.815C368.667 124.861 368.686 124.909 368.701 124.959L368.702 124.961L370.054 131.523C370.104 131.762 369.952 131.996 369.715 132.045C369.505 132.09 369.299 131.973 369.221 131.779L369.198 131.703L367.845 125.141C367.796 124.902 367.948 124.668 368.184 124.618C368.368 124.579 368.549 124.664 368.644 124.815Z" fill="url(#paint7_linear)"/>
<path opacity="0.5" fill-rule="evenodd" clip-rule="evenodd" d="M463.766 106.265C461.839 106.265 460.411 108.057 460.842 109.936L468.203 142.021C468.933 145.201 471.763 147.455 475.026 147.455H595.101C596.996 147.455 598.416 145.72 598.042 143.863L591.6 111.883C590.942 108.615 588.071 106.265 584.738 106.265H463.766Z" fill="#12E2EF" fill-opacity="0.7"/>
<path fill-rule="evenodd" clip-rule="evenodd" d="M557.234 119.109C557.51 119.109 557.734 119.335 557.734 119.614C557.734 119.862 557.557 120.068 557.324 120.111L557.234 120.119H506.051C505.775 120.119 505.551 119.893 505.551 119.614C505.551 119.366 505.728 119.16 505.961 119.117L506.051 119.109H557.234Z" fill="#181A1C"/>
<path fill-rule="evenodd" clip-rule="evenodd" d="M531.643 126.355C531.919 126.355 532.143 126.581 532.143 126.86C532.143 127.108 531.966 127.314 531.733 127.357L531.643 127.365H507.803C507.527 127.365 507.303 127.139 507.303 126.86C507.303 126.612 507.48 126.406 507.713 126.363L507.803 126.355H531.643Z" fill="#181A1C"/>
<path fill-rule="evenodd" clip-rule="evenodd" d="M521.434 133.691C521.71 133.691 521.934 133.917 521.934 134.196C521.934 134.444 521.757 134.651 521.523 134.693L521.434 134.701H509.842C509.566 134.701 509.342 134.475 509.342 134.196C509.342 133.948 509.519 133.742 509.752 133.699L509.842 133.691H521.434Z" fill="#181A1C"/>
<path d="M488.953 137.147C493.417 135.088 495.266 129.156 493.083 123.897C490.9 118.638 485.512 116.043 481.047 118.102C476.583 120.161 474.734 126.093 476.917 131.352C479.1 136.612 484.488 139.206 488.953 137.147Z" fill="#00FF9E"/>
<path fill-rule="evenodd" clip-rule="evenodd" d="M486.037 131.976C486.067 132.035 486.091 132.096 486.11 132.16L486.111 132.163L486.445 133.784C486.509 134.091 486.314 134.392 486.009 134.456C485.739 134.513 485.474 134.364 485.374 134.114L485.344 134.016L485.01 132.394C484.946 132.087 485.142 131.786 485.446 131.722C485.682 131.672 485.915 131.781 486.037 131.976ZM483.789 121.071C483.819 121.13 483.843 121.192 483.862 121.255L483.863 121.258L485.602 129.695C485.666 130.002 485.471 130.303 485.166 130.367C484.896 130.424 484.631 130.274 484.531 130.024L484.501 129.926L482.762 121.49C482.699 121.182 482.894 120.881 483.198 120.817C483.434 120.768 483.667 120.876 483.789 121.071Z" fill="url(#paint8_linear)"/>
<path fill-rule="evenodd" clip-rule="evenodd" d="M756.046 0.186768C763.648 0.186768 769.831 6.32908 769.997 13.9696L770 14.2845V148.941H764V14.2845C764 9.84626 760.439 6.24839 756.046 6.24839C751.233 6.24839 747.091 9.6458 746.083 14.3734L746.027 14.653L742.181 35.4336L736.283 34.3195L740.129 13.5389C741.562 5.79789 748.251 0.186768 756.046 0.186768Z" fill="url(#paint9_linear)"/>
<path fill-rule="evenodd" clip-rule="evenodd" d="M721.219 62.52L585.896 322.589L738.157 346.721L791.532 309.158L749.031 62.52H721.219Z" fill="url(#paint10_linear)"/>
<path fill-rule="evenodd" clip-rule="evenodd" d="M718.777 73.4978C730.81 80.5116 742.036 79.6198 749.201 76.5245C751.55 75.5097 752.942 73.0386 752.606 70.4801C752.523 69.8448 752.451 69.299 752.391 68.8427C751.652 63.2079 750.221 52.4316 748.099 36.5137C747.436 31.537 742.905 28.0458 737.979 28.7159C735.061 29.1129 732.52 30.9265 731.174 33.5723L716.199 63.0237L715.896 63.6186C714.095 67.1608 715.362 71.5077 718.777 73.4978Z" fill="url(#paint11_radial)"/>
<path fill-rule="evenodd" clip-rule="evenodd" d="M662.219 361.093C670.91 364.216 675.865 365.778 677.085 365.778C678.305 365.778 680.35 362.504 683.219 355.956L713.603 368.006C713.865 375.435 715.2 379.786 717.608 381.058C721.219 382.967 740.787 385.902 746.558 384.434C750.405 383.456 752.341 379.059 752.366 371.244L791.077 363.001C793.066 368.496 795.131 371.244 797.271 371.244C800.48 371.244 806.941 369.389 808.263 368.006C809.144 367.084 809.144 362.56 808.263 354.436L664.64 346.721L662.219 361.093Z" fill="#01130D"/>
<path fill-rule="evenodd" clip-rule="evenodd" d="M836.519 259.155C846.911 245.864 853.96 228.017 857.665 205.614C863.223 172.01 856.813 127.713 839.576 121.842C822.338 115.971 761.567 122.468 755.809 130.099C750.051 137.73 750.618 160.935 741.091 190.138C734.74 209.606 730.306 232.612 727.789 259.155H836.519Z" fill="url(#paint12_radial)"/>
<path fill-rule="evenodd" clip-rule="evenodd" d="M816.703 119.574L818.306 119.571C827.251 119.587 834.968 120.273 839.575 121.842C856.813 127.713 863.223 172.01 857.665 205.614C854.016 227.673 847.127 245.314 836.995 258.539L836.518 259.155H807.779L808.433 256.79C819.007 218.351 824.294 189.445 824.294 170.074C824.294 150.331 821.764 133.498 816.703 119.574Z" fill="url(#paint13_linear)"/>
<path d="M764.396 183.706C765.777 183.706 766.896 181.897 766.896 179.665C766.896 177.433 765.777 175.624 764.396 175.624C763.016 175.624 761.896 177.433 761.896 179.665C761.896 181.897 763.016 183.706 764.396 183.706Z" fill="url(#paint14_linear)"/>
<path d="M791.396 183.706C792.777 183.706 793.896 181.897 793.896 179.665C793.896 177.433 792.777 175.624 791.396 175.624C790.016 175.624 788.896 177.433 788.896 179.665C788.896 181.897 790.016 183.706 791.396 183.706Z" fill="url(#paint15_linear)"/>
<path d="M787.396 237.25C788.777 237.25 789.896 235.441 789.896 233.209C789.896 230.977 788.777 229.168 787.396 229.168C786.016 229.168 784.896 230.977 784.896 233.209C784.896 235.441 786.016 237.25 787.396 237.25Z" fill="url(#paint16_linear)"/>
<path d="M762.396 236.24C763.777 236.24 764.896 234.431 764.896 232.199C764.896 229.967 763.777 228.158 762.396 228.158C761.016 228.158 759.896 229.967 759.896 232.199C759.896 234.431 761.016 236.24 762.396 236.24Z" fill="url(#paint17_linear)"/>
<path fill-rule="evenodd" clip-rule="evenodd" d="M683.135 289.93C696.257 267.204 705.206 254.183 709.984 250.866C717.15 245.891 722.047 262.699 730.821 253.971C736.671 248.153 770.918 257.981 833.563 283.456C820.206 309.487 812.757 331.312 811.216 348.931C811.108 350.171 810.997 351.749 810.885 353.664C810.649 357.665 808.095 361.148 804.374 362.539C802.588 363.207 801.106 363.753 799.929 364.177C773.637 373.636 749.396 379.472 733.189 377.981C720.942 376.854 694.538 367.898 653.977 351.111L683.135 289.93Z" fill="url(#paint18_radial)"/>
<path fill-rule="evenodd" clip-rule="evenodd" d="M741.09 285.961C738.682 283.178 729.094 279.254 712.327 274.187C695.56 269.12 702.866 258.982 734.244 243.773L767 259.155L741.09 285.961Z" fill="url(#paint19_radial)"/>
<path fill-rule="evenodd" clip-rule="evenodd" d="M833.563 283.456L832.572 285.4C820 310.252 812.902 331.208 811.276 348.268L811.216 348.931C811.146 349.727 811.075 350.662 811.004 351.735L810.884 353.664C810.649 357.665 808.094 361.148 804.373 362.539L802.299 363.311C801.405 363.641 800.615 363.93 799.928 364.177L798.157 364.809C773.113 373.695 750.066 379.193 734.244 378.067C740.114 373.887 734.274 347.876 736.741 325.388C738.37 310.535 742.329 297.63 748.616 286.673L749.03 285.961L817.123 277.999L820.288 279.03C824.55 280.426 828.975 281.901 833.563 283.456Z" fill="url(#paint20_linear)"/>
<path opacity="0.2" fill-rule="evenodd" clip-rule="evenodd" d="M751.614 296.686C756.836 301.568 772.598 302.354 798.902 299.043C838.357 294.078 844.792 287.497 849.816 278.85C854.84 270.203 853.512 256.288 845.059 253.183C836.605 250.078 809.477 248.915 783.686 250.302C757.894 251.69 752.083 257.832 747.561 265.016C744.547 269.804 745.898 280.361 751.614 296.686Z" fill="#161616"/>
<path fill-rule="evenodd" clip-rule="evenodd" d="M743.77 294.37C748.992 299.252 764.755 300.038 791.058 296.727C830.513 291.761 836.948 285.18 841.972 276.533C846.996 267.886 845.668 253.971 837.215 250.866C828.762 247.762 801.634 246.598 775.842 247.986C750.05 249.373 744.239 255.516 739.717 262.699C736.703 267.488 738.054 278.045 743.77 294.37Z" fill="url(#paint21_linear)"/>
<path fill-rule="evenodd" clip-rule="evenodd" d="M743.771 294.369C745.478 295.16 750.211 296.477 756.019 290.605C761.828 284.733 763.431 265.712 757.949 258.289C752.468 250.866 748.894 253.363 745.478 255.409C742.062 257.455 736.742 263.943 736.742 275.42C736.742 286.897 742.063 293.579 743.771 294.369Z" fill="url(#paint22_linear)"/>
<path opacity="0.5" fill-rule="evenodd" clip-rule="evenodd" d="M746.432 283.73C747.265 284.112 749.576 284.749 752.412 281.91C755.248 279.07 756.03 269.872 753.354 266.282C750.678 262.692 748.933 263.899 747.265 264.889C745.598 265.878 743 269.016 743 274.566C743 280.116 745.598 283.348 746.432 283.73Z" fill="url(#paint23_linear)"/>
<path fill-rule="evenodd" clip-rule="evenodd" d="M655.832 259.155C653.583 242.541 652.459 227.303 652.459 213.442C652.459 192.65 661.174 182.349 667.486 180.211C673.797 178.073 682.819 180.505 681.874 193.612C680.93 206.719 678.673 226.317 684.079 240.557C687.683 250.05 678.267 256.25 655.832 259.155Z" fill="url(#paint24_linear)"/>
<path fill-rule="evenodd" clip-rule="evenodd" d="M665.07 250.32L665.398 250.866C666.703 253.011 667.622 255.025 668.155 256.911C664.612 257.802 660.504 258.55 655.832 259.155C653.583 242.541 652.459 227.304 652.459 213.442C652.459 208.234 653.006 203.685 653.925 199.756C654.075 221.193 657.79 238.047 665.07 250.32Z" fill="#076C78"/>
<path fill-rule="evenodd" clip-rule="evenodd" d="M726.463 196.52C715.383 195.418 708.059 195.418 704.49 196.52C699.136 198.174 699.169 203.442 699.73 208.137C700.292 212.831 694.238 213.081 688.998 215.901C683.758 218.721 681.069 225.504 685.033 236.167C687.676 243.275 699.15 233.932 719.454 208.137L726.463 196.52Z" fill="url(#paint25_linear)"/>
<path fill-rule="evenodd" clip-rule="evenodd" d="M467.446 388.835C457.969 393.309 451.04 396.982 446.66 399.854C440.09 404.163 442.436 409.806 453.13 407.967C463.825 406.128 479.515 401.129 486.563 402.147C493.61 403.165 502.672 404.236 502.672 388.835C502.672 378.568 495.794 377.099 482.04 384.427L467.446 388.835Z" fill="url(#paint26_radial)"/>
<path fill-rule="evenodd" clip-rule="evenodd" d="M522.671 344.707C505.149 361.311 493.28 371.948 487.065 376.618C480.85 381.288 474.31 385.36 467.445 388.835C469.95 391.402 474.05 391.743 479.745 389.86C488.289 387.034 491.938 385.955 495.058 385.955C498.178 385.955 500.182 391.715 502.671 388.835C505.16 385.955 504.866 377.972 537.738 362.494C559.652 352.176 554.63 346.247 522.671 344.707Z" fill="url(#paint27_linear)"/>
<path fill-rule="evenodd" clip-rule="evenodd" d="M564.957 336.38C582.6 360.88 596.119 375.953 605.516 381.599C614.913 387.245 624.873 389.136 635.395 387.271L601.539 322.589L571.874 324.031L564.957 336.38Z" fill="url(#paint28_linear)"/>
<path fill-rule="evenodd" clip-rule="evenodd" d="M584.1 333.58C571.785 339.732 564.543 344.886 562.375 349.043C559.122 355.278 557.874 358.077 548.669 360.286C539.465 362.494 538.893 364.703 534.487 362.494C530.081 360.286 519.234 352.55 519.234 348.495C519.234 344.44 521.726 345.259 523.514 340.09C525.301 334.92 524.018 331.516 537.842 322.589C551.667 313.662 561.856 303.43 571.193 299.727C577.417 297.259 584.587 297.655 592.703 300.917L584.1 333.58Z" fill="url(#paint29_linear)"/>
<g filter="url(#filter1_d)">
<path fill-rule="evenodd" clip-rule="evenodd" d="M556.604 249.373H612.66C614.547 249.373 616.178 250.706 616.572 252.571L625.372 294.202C625.718 295.839 624.685 297.45 623.065 297.799C622.859 297.844 622.649 297.866 622.438 297.866H566.383C564.495 297.866 562.865 296.534 562.471 294.669L553.67 253.037C553.324 251.4 554.357 249.79 555.978 249.44C556.184 249.396 556.394 249.373 556.604 249.373Z" fill="url(#paint30_linear)"/>
</g>
<path opacity="0.9" fill-rule="evenodd" clip-rule="evenodd" d="M555.609 249.545C555.614 249.647 555.625 249.75 555.642 249.852L555.67 250.006L564.471 291.638C564.851 293.436 566.38 294.739 568.181 294.83L568.383 294.835H624.438C624.649 294.835 624.859 294.813 625.065 294.768C625.191 294.741 625.314 294.706 625.433 294.664C625.518 296.132 624.532 297.483 623.065 297.799C622.859 297.844 622.649 297.866 622.438 297.866H566.383C564.495 297.866 562.865 296.534 562.471 294.669L553.67 253.037C553.361 251.575 554.152 250.135 555.478 249.594L555.609 249.545Z" fill="url(#paint31_linear)"/>
<path opacity="0.1" fill-rule="evenodd" clip-rule="evenodd" d="M612.66 249.373C614.547 249.373 616.178 250.706 616.572 252.571L625.372 294.202C625.718 295.839 624.685 297.45 623.065 297.799C622.859 297.844 622.649 297.866 622.438 297.866H621.079L612.572 257.622C612.192 255.824 610.662 254.521 608.861 254.43L608.66 254.425H553.963L553.67 253.037C553.324 251.4 554.357 249.79 555.978 249.44C556.184 249.396 556.394 249.373 556.604 249.373H612.66Z" fill="url(#paint32_linear)"/>
<g filter="url(#filter2_d)">
<path d="M587.554 277.959C589.687 277.382 590.722 274.292 589.864 271.058C589.007 267.825 586.582 265.672 584.448 266.249C582.314 266.827 581.279 269.917 582.137 273.15C582.995 276.384 585.42 278.537 587.554 277.959Z" fill="url(#paint33_linear)"/>
</g>
<path fill-rule="evenodd" clip-rule="evenodd" d="M567.829 379.655C556.331 385.263 547.608 390.619 541.662 395.724C532.744 403.381 533.72 409.3 548.865 405.601C564.01 401.903 575.701 396.601 584.487 395.724C593.274 394.846 595.463 388.39 592.982 380.736C591.328 375.633 582.944 375.273 567.829 379.655Z" fill="url(#paint34_radial)"/>
<path fill-rule="evenodd" clip-rule="evenodd" d="M688.056 231.529C670.673 240.089 658.86 248.711 652.617 257.396C646.374 266.081 640.634 281.878 635.396 304.788C642.513 326.749 655.671 338.564 674.871 340.231C681.708 323.013 696.227 300.566 705.047 290.107C713.866 279.648 725.424 269.221 725.424 262.699C725.424 258.351 722.696 254.327 717.24 250.628L718.909 236.808L688.056 231.529Z" fill="url(#paint35_linear)"/>
<path fill-rule="evenodd" clip-rule="evenodd" d="M703.569 259.998L709.621 284.895C708.064 286.619 706.517 288.363 705.046 290.107C696.226 300.566 685.837 319.388 679 336.606C675.926 336.339 668.877 339.437 666.112 338.65C666.349 327.491 662.303 318.318 653.977 311.131C666.088 304.341 670.132 299.43 666.109 296.397L665.971 296.296C659.657 291.805 651.662 273.443 656.613 278.132L657.107 278.613C663.048 284.326 687.629 304.384 688.714 289.088C689.438 278.869 694.228 269.333 703.082 260.48L703.569 259.998Z" fill="#076C78"/>
<path fill-rule="evenodd" clip-rule="evenodd" d="M740.688 193.612C734.219 193.9 730.002 194.443 728.039 195.241C725.093 196.437 723.463 193.612 721.671 194.426C719.88 195.241 720.777 196.987 719.094 197.675C717.411 198.364 711.115 199.438 706.075 202.976C701.035 206.513 703 213.509 703 220.076C703 231.669 688 226.643 679.682 239.105C678.313 241.457 676.694 248.477 678.443 251.938C680.192 255.4 695.336 247.412 701.508 244.827C707.679 242.243 716 243.312 719 249.879C721.362 251.735 729.669 238.966 747.447 210.072L750.05 197.675L740.688 193.612Z" fill="url(#paint36_linear)"/>
<path opacity="0.2" fill-rule="evenodd" clip-rule="evenodd" d="M740.688 193.612L745.002 195.485C743.671 197.59 741.266 198.942 737.787 199.54C732.839 200.391 727.62 198.643 722.129 194.295C723.752 194.066 725.346 196.335 728.04 195.241C729.897 194.486 733.77 193.96 739.659 193.661L740.688 193.612Z" fill="#076C78"/>
<path opacity="0.2" d="M700.902 225.833C714.919 228.108 733.556 221.626 733.556 220.093C733.556 219.535 731.023 219.679 727.42 219.885C719.412 220.342 706.118 221.101 703.567 215.124C703.191 214.241 702.881 213.392 702.639 212.575C702.669 213.587 702.738 214.627 702.806 215.678C702.902 217.137 702.999 218.617 702.999 220.076C702.999 222.729 702.214 224.512 700.902 225.833Z" fill="#076C78"/>
<path fill-rule="evenodd" clip-rule="evenodd" d="M725.593 261.778C706.65 258.228 707.403 243.581 714.968 236.901C722.533 230.22 733.169 228.309 734.868 224.161C736.567 220.014 731.789 215.597 732.793 211.249C733.796 206.902 742.43 204.164 744.537 201.633C746.643 199.103 743.749 198.921 740.927 200.277C738.105 201.633 734.642 199.548 736.374 193.434C738.105 187.321 748.685 191.159 752.158 193.434C755.631 195.709 761.043 203.19 762.725 208.041C764.408 212.891 760.116 219.065 757.979 224.161C755.842 229.257 756.015 232.423 759.991 237.857C763.967 243.292 767.37 246.266 764.557 252.067C761.743 257.869 744.537 265.328 725.593 261.778Z" fill="url(#paint37_linear)"/>
<path fill-rule="evenodd" clip-rule="evenodd" d="M699.351 321.117C697.695 309.103 696.867 298.176 696.867 288.336C696.867 273.576 698.811 255.203 707.201 252.138C715.591 249.072 722.485 251.596 725.424 259.21C728.363 266.824 727.732 278.086 727.732 292.125C727.732 306.164 726.968 327.969 718.476 335.84C712.815 341.087 706.44 336.179 699.351 321.117Z" fill="url(#paint38_linear)"/>
<path fill-rule="evenodd" clip-rule="evenodd" d="M655.504 297.044C648.664 293.601 643.918 290.514 641.266 287.782C637.288 283.684 628.345 287.782 623.104 287.782C617.862 287.782 618.83 293.939 623.946 297.044C629.061 300.149 635.266 307.509 642.089 309.008C646.638 310.008 651.11 306.02 655.504 297.044Z" fill="url(#paint39_linear)"/>
<path fill-rule="evenodd" clip-rule="evenodd" d="M721.218 332.525C717.223 325.561 710.001 319.848 699.551 315.386C683.875 308.693 666.498 303.368 663.304 300.5C660.11 297.633 654.187 292.584 652.757 292.584C651.328 292.584 650.234 297.721 647.597 300.5C644.961 303.28 639.312 308.349 639.312 309.356C639.312 310.363 657.529 313.138 663.304 318.315C669.079 323.492 684.271 337.656 694.496 342.773C704.722 347.889 711.45 342.65 715.352 339.235C717.953 336.958 719.909 334.721 721.218 332.525Z" fill="url(#paint40_linear)"/>
<path fill-rule="evenodd" clip-rule="evenodd" d="M678.914 336.253C675.048 345.59 671.942 354.983 669.595 364.433C666.074 378.608 656.265 393.705 640.763 393.705C625.26 393.705 617.075 382.629 610.806 371.379C604.537 360.129 598.162 323.864 598.162 313.383C598.162 302.903 605.69 279.055 619.612 279.055C633.534 279.055 639.63 290.109 642.32 296.651C644.114 301.013 647.653 311.17 652.939 327.123C657.045 330.023 661.338 332.195 665.815 333.64C670.293 335.084 674.659 335.956 678.914 336.253Z" fill="url(#paint41_linear)"/>
<path fill-rule="evenodd" clip-rule="evenodd" d="M629.921 304.403C630.799 321.253 629.383 335.875 625.674 348.271L625.439 349.042C620.281 365.721 627.394 394.316 648.31 392.428C645.969 393.251 643.452 393.705 640.763 393.705C625.261 393.705 617.076 382.629 610.807 371.379C606.527 363.698 602.197 344.357 599.881 329.523L629.921 304.403Z" fill="url(#paint42_linear)"/>
<path fill-rule="evenodd" clip-rule="evenodd" d="M583.15 334.92C579.591 353.742 576.439 366.003 573.695 371.703C569.579 380.254 559.52 383.704 555.059 388.704C550.599 393.705 590.652 383.489 592.454 381.57C594.256 379.651 588.888 376.344 609.509 346.501C601.944 338.781 593.158 334.92 583.15 334.92Z" fill="url(#paint43_linear)"/>
<path fill-rule="evenodd" clip-rule="evenodd" d="M626.103 318.422C632.908 305.679 636.727 297.067 637.558 292.584C639.086 284.35 627.12 278.281 618.16 278.281C609.2 278.281 602.971 283.331 592.622 295.506C582.273 307.682 580.01 311.162 581.647 314.955C583.284 318.747 581.553 320.225 579.384 323.933C577.216 327.642 577.122 332.076 579.384 334.228C581.647 336.38 579.702 339.236 581.647 340.231C583.592 341.226 592.448 339.562 598.162 342.236C603.877 344.91 607.992 349.042 609.405 349.042C610.819 349.042 611.557 344.91 613.996 344.91C616.435 344.91 622.079 344.007 623.656 338.392C624.139 336.671 624.218 334.984 623.891 333.33C622.886 328.252 623.669 322.979 626.103 318.422Z" fill="url(#paint44_linear)"/>
<path fill-rule="evenodd" clip-rule="evenodd" d="M723.853 182.815C727.749 185.228 733.089 185.582 739.873 183.875C750.05 181.314 754.618 187.073 760.389 188.898C766.16 190.723 762.829 192.756 760.989 192.756C765.017 194.926 766.303 194.438 766.303 195.693C766.303 196.949 763.256 198.258 760.989 196.976C762.251 199.287 760.958 199.699 757.652 199.493C754.345 199.287 749.325 194.737 747.202 194.737C745.078 194.737 741.936 195.592 736.632 196.976C733.095 197.898 726.177 196.492 715.877 192.756L723.853 182.815Z" fill="url(#paint45_linear)"/>
<path fill-rule="evenodd" clip-rule="evenodd" d="M679.367 204.58C681.43 199.92 686.797 197.59 695.467 197.59C708.472 197.59 718.725 197.54 723.256 192.012C727.788 186.483 727.589 181.106 725.423 179.525C723.256 177.943 703.762 173.138 688.281 174.987C672.8 176.835 665.603 179.113 660.687 185.392C657.41 189.578 663.637 195.974 679.367 204.58Z" fill="url(#paint46_linear)"/>
<path fill-rule="evenodd" clip-rule="evenodd" d="M713.779 201.886C717.591 201.567 720.191 203.187 721.456 206.683C721.551 206.945 721.418 207.235 721.158 207.331C720.899 207.427 720.612 207.292 720.517 207.03C719.408 203.968 717.231 202.61 713.862 202.893C713.586 202.916 713.345 202.709 713.322 202.431C713.299 202.153 713.504 201.909 713.779 201.886Z" fill="#312312"/>
<path d="M790.682 364.344L820.833 399.167L839.63 393.725C841.626 393.148 842.999 391.32 842.999 389.243V375.379C842.999 373.244 841.551 371.382 839.482 370.856L809.322 363.188C808.832 363.063 808.326 363.019 807.822 363.057L790.682 364.344Z" fill="url(#paint47_linear)"/>
<path opacity="0.12" d="M801.449 363.536L790.682 364.344L820.832 399.167L834.863 395.105C834.881 394.921 834.89 394.735 834.89 394.547V377.472C834.89 374.934 833.21 372.701 830.771 371.997L801.449 363.536Z" fill="#01130D"/>
<path d="M787.445 367.833C787.513 365.451 789.89 363.832 792.131 364.64L820.083 374.721C821.933 375.389 823.167 377.144 823.167 379.111V395.837C823.167 398.439 820.429 400.131 818.101 398.967L789.663 384.748C788.039 383.936 787.033 382.256 787.085 380.441L787.445 367.833Z" fill="url(#paint48_linear)"/>
<ellipse opacity="0.2" rx="7" ry="8.75" transform="matrix(0.987688 0.156434 0 1 796.248 376.928)" fill="url(#paint49_linear)"/>
<path d="M795.75 371.75V378.167L799.25 377.583" stroke="#142631" stroke-width="1.16667" stroke-linecap="round" stroke-linejoin="round"/>
<ellipse opacity="0.3" rx="7.51305" ry="9.39131" transform="matrix(0.987688 0.156434 0 1 813.087 384.65)" fill="url(#paint50_linear)"/>
<path d="M812.667 379.917V386.333L809.75 384.583" stroke="#142631" stroke-width="1.16667" stroke-linecap="round" stroke-linejoin="round"/>
<path opacity="0.5" fill-rule="evenodd" clip-rule="evenodd" d="M559.383 122.429C556.077 122.429 553.594 125.448 554.231 128.692L563.728 176.992C564.42 180.509 567.503 183.046 571.087 183.046H642.704C645.982 183.046 648.458 180.076 647.869 176.852L638.716 126.736C638.261 124.242 636.087 122.429 633.552 122.429H559.383Z" fill="url(#paint51_linear)" fill-opacity="0.7"/>
<path d="M568 147L572.804 138L579.087 146.077L580.196 144L582.413 145.615L585 138.462L589.435 141.692L590.543 140.769L594.609 143.308L597.935 138L602 142.154" stroke="#54FF8D" stroke-linecap="round"/>
<path d="M568.309 173.231L574.041 162.388L575.619 164.773L577.843 162.463L581.9 170.861L586.347 166.24L587.738 167.209L591.883 163.492L596.47 169.515L600.352 163.815" stroke="#12E2EF" stroke-width="0.5" stroke-linecap="round"/>
<path d="M601.309 148.231L607.041 137.388L608.619 139.773L610.843 137.463L614.9 145.861L619.347 141.24L620.738 142.209L624.883 138.492L629.47 144.515L633.352 138.815" stroke="#FF96AF" stroke-width="0.5" stroke-linecap="round"/>
<path d="M608.515 170.951L613.514 166.329L620.414 170.951L624.861 166.329L627.014 169.09L631.514 165.09L634.984 169.605L638.866 163.905" stroke="#12E2EF" stroke-width="0.5" stroke-linecap="round"/>
<path d="M563.5 154H640" stroke="#171717" stroke-linecap="round"/>
<path opacity="0.2" d="M559 131H635.5" stroke="#12E2EF" stroke-width="0.5" stroke-linecap="round"/>
<path opacity="0.2" d="M569 175H645.5" stroke="#12E2EF" stroke-width="0.5" stroke-linecap="round"/>
<g opacity="0.5" filter="url(#filter3_d)">
<path fill-rule="evenodd" clip-rule="evenodd" d="M411.726 230.528C406.688 230.528 402.905 235.128 403.876 240.072L412.649 284.688C413.386 288.439 416.675 291.144 420.499 291.144H488.407C493.4 291.144 497.174 286.62 496.276 281.707L488.128 237.091C487.434 233.29 484.122 230.528 480.258 230.528H411.726Z" fill="url(#paint52_linear)"/>
</g>
<path d="M416 251L424.478 243L435.565 250.179L437.522 248.333L441.435 249.769L446 243.41L453.826 246.282L455.783 245.462L462.957 247.718L468.826 243L476 246.692" stroke="#FF96AF" stroke-width="0.5" stroke-linecap="round"/>
<path d="M476 245L467.522 253L456.435 245.821L454.478 247.667L450.565 246.231L446 252.59L438.174 249.718L436.217 250.538L429.043 248.282L423.174 253L416 249.308" stroke="#5BD8FF" stroke-width="0.5" stroke-linecap="round"/>
<path d="M415.596 278.073L431.043 267.377L433.962 269.822L439.482 267.575L446.418 276.133L457.458 271.639L460.313 272.656L470.456 269.06L479.16 275.252L489.214 269.658" stroke="#12E2EF" stroke-width="0.5" stroke-linecap="round"/>
<path d="M486 267.073L470.552 256.377L467.634 258.822L462.114 256.575L455.178 265.133L444.138 260.639L441.283 261.656L431.14 258.06L422.436 264.252L412.381 258.658" stroke="#FFFFFE" stroke-width="0.5" stroke-linecap="round"/>
<path d="M412.596 267.073L428.043 256.377L430.962 258.822L436.482 256.575L443.418 265.133L454.458 260.639L457.313 261.656L467.456 258.06L476.16 264.252L486.214 258.658" stroke="#12E2EF" stroke-width="0.5" stroke-linecap="round"/>
<path opacity="0.2" d="M407 239H483.5" stroke="#12E2EF" stroke-width="0.5" stroke-linecap="round"/>
<path opacity="0.2" d="M417 283H493.5" stroke="#12E2EF" stroke-width="0.5" stroke-linecap="round"/>
<defs>
<filter id="filter0_d" x="340.354" y="93.805" width="257.681" height="220.494" filterUnits="userSpaceOnUse" color-interpolation-filters="sRGB">
<feFlood flood-opacity="0" result="BackgroundImageFix"/>
<feColorMatrix in="SourceAlpha" type="matrix" values="0 0 0 0 0 0 0 0 0 0 0 0 0 0 0 0 0 0 127 0"/>
<feOffset dx="10.2642" dy="-6.41514"/>
<feGaussianBlur stdDeviation="50"/>
<feColorMatrix type="matrix" values="0 0 0 0 0.566667 0 0 0 0 0.74 0 0 0 0 1 0 0 0 0.74 0"/>
<feBlend mode="normal" in2="BackgroundImageFix" result="effect1_dropShadow"/>
<feBlend mode="normal" in="SourceGraphic" in2="effect1_dropShadow" result="shape"/>
</filter>
<filter id="filter1_d" x="463.868" y="142.958" width="271.835" height="248.493" filterUnits="userSpaceOnUse" color-interpolation-filters="sRGB">
<feFlood flood-opacity="0" result="BackgroundImageFix"/>
<feColorMatrix in="SourceAlpha" type="matrix" values="0 0 0 0 0 0 0 0 0 0 0 0 0 0 0 0 0 0 127 0"/>
<feOffset dx="10.2642" dy="-6.41514"/>
<feGaussianBlur stdDeviation="50"/>
<feColorMatrix type="matrix" values="0 0 0 0 0.566667 0 0 0 0 0.74 0 0 0 0 1 0 0 0 0.74 0"/>
<feBlend mode="normal" in2="BackgroundImageFix" result="effect1_dropShadow"/>
<feBlend mode="normal" in="SourceGraphic" in2="effect1_dropShadow" result="shape"/>
</filter>
<filter id="filter2_d" x="577.836" y="262.156" width="16.3304" height="19.8976" filterUnits="userSpaceOnUse" color-interpolation-filters="sRGB">
<feFlood flood-opacity="0" result="BackgroundImageFix"/>
<feColorMatrix in="SourceAlpha" type="matrix" values="0 0 0 0 0 0 0 0 0 0 0 0 0 0 0 0 0 0 127 0"/>
<feOffset/>
<feGaussianBlur stdDeviation="2"/>
<feColorMatrix type="matrix" values="0 0 0 0 0 0 0 0 0 1 0 0 0 0 0.94 0 0 0 0.34 0"/>
<feBlend mode="normal" in2="BackgroundImageFix" result="effect1_dropShadow"/>
<feBlend mode="normal" in="SourceGraphic" in2="effect1_dropShadow" result="shape"/>
</filter>
<filter id="filter3_d" x="313.987" y="124.113" width="292.685" height="260.616" filterUnits="userSpaceOnUse" color-interpolation-filters="sRGB">
<feFlood flood-opacity="0" result="BackgroundImageFix"/>
<feColorMatrix in="SourceAlpha" type="matrix" values="0 0 0 0 0 0 0 0 0 0 0 0 0 0 0 0 0 0 127 0"/>
<feOffset dx="10.2642" dy="-6.41514"/>
<feGaussianBlur stdDeviation="50"/>
<feColorMatrix type="matrix" values="0 0 0 0 0.566667 0 0 0 0 0.74 0 0 0 0 1 0 0 0 0.74 0"/>
<feBlend mode="normal" in2="BackgroundImageFix" result="effect1_dropShadow"/>
<feBlend mode="normal" in="SourceGraphic" in2="effect1_dropShadow" result="shape"/>
</filter>
<radialGradient id="paint0_radial" cx="0" cy="0" r="1" gradientUnits="userSpaceOnUse" gradientTransform="translate(620.555 281.705) rotate(-88.4087) scale(186.359 528.25)">
<stop stop-color="#00A3FF" stop-opacity="0.26"/>
<stop offset="1" stop-color="#00A5FF" stop-opacity="0"/>
</radialGradient>
<linearGradient id="paint1_linear" x1="487" y1="138.594" x2="441.323" y2="213.446" gradientUnits="userSpaceOnUse">
<stop stop-color="#2480A8"/>
<stop offset="1" stop-color="#4BB9E8"/>
</linearGradient>
<linearGradient id="paint2_linear" x1="484.262" y1="210.777" x2="440.611" y2="221.113" gradientUnits="userSpaceOnUse">
<stop stop-color="#37B679"/>
<stop offset="1" stop-color="#00A5FF"/>
</linearGradient>
<linearGradient id="paint3_linear" x1="528.629" y1="229.634" x2="534.879" y2="229.471" gradientUnits="userSpaceOnUse">
<stop stop-color="#01A5FF"/>
<stop offset="1" stop-color="#019AED"/>
</linearGradient>
<linearGradient id="paint4_linear" x1="579.805" y1="238.836" x2="591.516" y2="202.733" gradientUnits="userSpaceOnUse">
<stop stop-color="#60D8AA"/>
<stop offset="1" stop-color="#1BB1D1"/>
</linearGradient>
<linearGradient id="paint5_linear" x1="623.337" y1="230.721" x2="627.132" y2="229.476" gradientUnits="userSpaceOnUse">
<stop stop-color="#28674F"/>
<stop offset="1" stop-color="#1C4B40"/>
</linearGradient>
<linearGradient id="paint6_linear" x1="413.469" y1="118.945" x2="401.757" y2="155.048" gradientUnits="userSpaceOnUse">
<stop stop-color="#60D8AA"/>
<stop offset="1" stop-color="#1BB1D1"/>
</linearGradient>
<linearGradient id="paint7_linear" x1="368.619" y1="132.784" x2="372.413" y2="131.539" gradientUnits="userSpaceOnUse">
<stop stop-color="#28674F"/>
<stop offset="1" stop-color="#1C4B40"/>
</linearGradient>
<linearGradient id="paint8_linear" x1="483.756" y1="131.317" x2="488.635" y2="129.716" gradientUnits="userSpaceOnUse">
<stop stop-color="#28674F"/>
<stop offset="1" stop-color="#1C4B40"/>
</linearGradient>
<linearGradient id="paint9_linear" x1="745.435" y1="114.63" x2="791.15" y2="102.099" gradientUnits="userSpaceOnUse">
<stop stop-color="#28675F"/>
<stop offset="1" stop-color="#2F93A0"/>
</linearGradient>
<linearGradient id="paint10_linear" x1="688.714" y1="316.839" x2="754.545" y2="72.1222" gradientUnits="userSpaceOnUse">
<stop stop-color="#00F0FF" stop-opacity="0"/>
<stop offset="1" stop-color="#12E2EF" stop-opacity="0.42"/>
</linearGradient>
<radialGradient id="paint11_radial" cx="0" cy="0" r="1" gradientUnits="userSpaceOnUse" gradientTransform="translate(741.813 31.6047) rotate(-71.2135) scale(30.3133 27.8614)">
<stop stop-color="#00D1FF"/>
<stop offset="1" stop-color="#00A5FF"/>
</radialGradient>
<radialGradient id="paint12_radial" cx="0" cy="0" r="1" gradientUnits="userSpaceOnUse" gradientTransform="translate(748 153.243) rotate(66.7841) scale(82.4461 110.472)">
<stop stop-color="#2C849F"/>
<stop offset="1" stop-color="#10313A"/>
</radialGradient>
<linearGradient id="paint13_linear" x1="844.447" y1="238.493" x2="785.54" y2="223.791" gradientUnits="userSpaceOnUse">
<stop stop-color="#1A4048"/>
<stop offset="1" stop-color="#205D71"/>
</linearGradient>
<linearGradient id="paint14_linear" x1="760.92" y1="175.097" x2="763.484" y2="180.278" gradientUnits="userSpaceOnUse">
<stop/>
<stop offset="1" stop-color="#071D1C"/>
</linearGradient>
<linearGradient id="paint15_linear" x1="787.92" y1="175.097" x2="790.484" y2="180.278" gradientUnits="userSpaceOnUse">
<stop/>
<stop offset="1" stop-color="#071D1C"/>
</linearGradient>
<linearGradient id="paint16_linear" x1="783.92" y1="228.641" x2="786.484" y2="233.822" gradientUnits="userSpaceOnUse">
<stop/>
<stop offset="1" stop-color="#071D1C"/>
</linearGradient>
<linearGradient id="paint17_linear" x1="758.92" y1="227.631" x2="761.484" y2="232.812" gradientUnits="userSpaceOnUse">
<stop/>
<stop offset="1" stop-color="#071D1C"/>
</linearGradient>
<radialGradient id="paint18_radial" cx="0" cy="0" r="1" gradientUnits="userSpaceOnUse" gradientTransform="translate(687 308.98) rotate(18.622) scale(64.37 112.738)">
<stop stop-color="#010D11"/>
<stop offset="1" stop-color="#2B4A54"/>
</radialGradient>
<radialGradient id="paint19_radial" cx="0" cy="0" r="1" gradientUnits="userSpaceOnUse" gradientTransform="translate(715.232 263.193) rotate(17.4183) scale(22.5811 37.3286)">
<stop stop-color="#010D11"/>
<stop offset="1" stop-color="#091B21"/>
</radialGradient>
<linearGradient id="paint20_linear" x1="804.5" y1="363.378" x2="721.447" y2="308.061" gradientUnits="userSpaceOnUse">
<stop stop-color="#1A4048"/>
<stop offset="1" stop-color="#355D6A"/>
</linearGradient>
<linearGradient id="paint21_linear" x1="766.5" y1="289.629" x2="841.113" y2="306.412" gradientUnits="userSpaceOnUse">
<stop stop-color="#1A4048"/>
<stop offset="1" stop-color="#205262"/>
</linearGradient>
<linearGradient id="paint22_linear" x1="744.074" y1="280.676" x2="760.845" y2="279.519" gradientUnits="userSpaceOnUse">
<stop stop-color="#084A58"/>
<stop offset="1" stop-color="#1D4955"/>
</linearGradient>
<linearGradient id="paint23_linear" x1="740.657" y1="262.55" x2="747.224" y2="275.29" gradientUnits="userSpaceOnUse">
<stop/>
<stop offset="1" stop-color="#071D1C"/>
</linearGradient>
<linearGradient id="paint24_linear" x1="676.498" y1="207.953" x2="666.196" y2="236.273" gradientUnits="userSpaceOnUse">
<stop stop-color="#12E1EE"/>
<stop offset="1" stop-color="#09AAB5"/>
</linearGradient>
<linearGradient id="paint25_linear" x1="674.673" y1="192.904" x2="684.129" y2="224.186" gradientUnits="userSpaceOnUse">
<stop/>
<stop offset="1" stop-color="#071D1C"/>
</linearGradient>
<radialGradient id="paint26_radial" cx="0" cy="0" r="1" gradientUnits="userSpaceOnUse" gradientTransform="translate(472.894 396.789) rotate(-48.3311) scale(42.2095 66.158)">
<stop stop-color="#6DE1FB"/>
<stop offset="1" stop-color="#00A5FF"/>
</radialGradient>
<linearGradient id="paint27_linear" x1="418.427" y1="353.016" x2="422.258" y2="405.872" gradientUnits="userSpaceOnUse">
<stop stop-color="#CEFFDD"/>
<stop offset="1" stop-color="#B2FFF9"/>
</linearGradient>
<linearGradient id="paint28_linear" x1="551.201" y1="318.327" x2="564.92" y2="366.604" gradientUnits="userSpaceOnUse">
<stop stop-color="#28674F"/>
<stop offset="1" stop-color="#123635"/>
</linearGradient>
<linearGradient id="paint29_linear" x1="523" y1="346.865" x2="588.916" y2="316.802" gradientUnits="userSpaceOnUse">
<stop stop-color="#28674F"/>
<stop offset="1" stop-color="#123635"/>
</linearGradient>
<linearGradient id="paint30_linear" x1="491.587" y1="269.736" x2="550.206" y2="319.723" gradientUnits="userSpaceOnUse">
<stop stop-color="#CAECFF"/>
<stop offset="1" stop-color="#00A5FF"/>
</linearGradient>
<linearGradient id="paint31_linear" x1="536.833" y1="246.016" x2="595.022" y2="297.276" gradientUnits="userSpaceOnUse">
<stop stop-color="#C1F4FF" stop-opacity="0"/>
<stop offset="1" stop-color="#A4FAFF"/>
</linearGradient>
<linearGradient id="paint32_linear" x1="615.502" y1="245.838" x2="569.356" y2="267.32" gradientUnits="userSpaceOnUse">
<stop stop-color="#042635"/>
<stop offset="1" stop-color="#001431" stop-opacity="0"/>
</linearGradient>
<linearGradient id="paint33_linear" x1="578.553" y1="266.928" x2="583.934" y2="265.345" gradientUnits="userSpaceOnUse">
<stop stop-color="#C1F4FF"/>
<stop offset="1" stop-color="#A4FAFF"/>
</linearGradient>
<radialGradient id="paint34_radial" cx="0" cy="0" r="1" gradientUnits="userSpaceOnUse" gradientTransform="translate(565.013 394.533) rotate(-50.736) scale(43.0677 66.6042)">
<stop stop-color="#6DE1FB"/>
<stop offset="1" stop-color="#00A5FF"/>
</radialGradient>
<linearGradient id="paint35_linear" x1="664" y1="284.578" x2="661.959" y2="331.553" gradientUnits="userSpaceOnUse">
<stop stop-color="#12E1EE"/>
<stop offset="1" stop-color="#058A93"/>
</linearGradient>
<linearGradient id="paint36_linear" x1="635.279" y1="204.433" x2="642.74" y2="272.813" gradientUnits="userSpaceOnUse">
<stop stop-color="#CEFFDD"/>
<stop offset="1" stop-color="#B2FFF9"/>
</linearGradient>
<linearGradient id="paint37_linear" x1="699.125" y1="185.407" x2="719.077" y2="235.346" gradientUnits="userSpaceOnUse">
<stop/>
<stop offset="1" stop-color="#071D1C"/>
</linearGradient>
<linearGradient id="paint38_linear" x1="689.648" y1="244.512" x2="712.742" y2="313.7" gradientUnits="userSpaceOnUse">
<stop stop-color="#12E1EE"/>
<stop offset="1" stop-color="#12E2EF"/>
</linearGradient>
<linearGradient id="paint39_linear" x1="598.582" y1="290.203" x2="600.904" y2="317.124" gradientUnits="userSpaceOnUse">
<stop stop-color="#CEFFDD"/>
<stop offset="1" stop-color="#B2FFF9"/>
</linearGradient>
<linearGradient id="paint40_linear" x1="620.19" y1="288.763" x2="677.354" y2="285.117" gradientUnits="userSpaceOnUse">
<stop stop-color="#00D1FF"/>
<stop offset="1" stop-color="#12E2EF"/>
</linearGradient>
<linearGradient id="paint41_linear" x1="582.392" y1="271.58" x2="615.845" y2="348.539" gradientUnits="userSpaceOnUse">
<stop stop-color="#28674F"/>
<stop offset="1" stop-color="#0A3A39"/>
</linearGradient>
<linearGradient id="paint42_linear" x1="590.423" y1="298.581" x2="620.934" y2="352.626" gradientUnits="userSpaceOnUse">
<stop/>
<stop offset="1" stop-color="#071D1C"/>
</linearGradient>
<linearGradient id="paint43_linear" x1="522.608" y1="344.807" x2="530.791" y2="406.95" gradientUnits="userSpaceOnUse">
<stop stop-color="#CEFFDD"/>
<stop offset="1" stop-color="#B2FFF9"/>
</linearGradient>
<linearGradient id="paint44_linear" x1="638" y1="313.37" x2="580.782" y2="330.022" gradientUnits="userSpaceOnUse">
<stop stop-color="#164C42"/>
<stop offset="1" stop-color="#117875"/>
</linearGradient>
<linearGradient id="paint45_linear" x1="686.333" y1="185.813" x2="687.163" y2="204.951" gradientUnits="userSpaceOnUse">
<stop stop-color="#CEFFDD"/>
<stop offset="1" stop-color="#B2FFF9"/>
</linearGradient>
<linearGradient id="paint46_linear" x1="678" y1="204.922" x2="721.181" y2="183.054" gradientUnits="userSpaceOnUse">
<stop stop-color="#16E0EE"/>
<stop offset="1" stop-color="#12E2EF"/>
</linearGradient>
<linearGradient id="paint47_linear" x1="803.916" y1="369.417" x2="833.083" y2="397.417" gradientUnits="userSpaceOnUse">
<stop stop-color="#138BA5"/>
<stop offset="1" stop-color="#065D63"/>
</linearGradient>
<linearGradient id="paint48_linear" x1="766.867" y1="359.008" x2="809.666" y2="356.72" gradientUnits="userSpaceOnUse">
<stop stop-color="#429CAF"/>
<stop offset="1" stop-color="#2BA6AE"/>
</linearGradient>
<linearGradient id="paint49_linear" x1="3.06711" y1="2.8" x2="12.5312" y2="7.63754" gradientUnits="userSpaceOnUse">
<stop stop-color="#093843"/>
<stop offset="1" stop-color="#065D63"/>
</linearGradient>
<linearGradient id="paint50_linear" x1="3.29191" y1="3.00522" x2="13.4496" y2="8.19731" gradientUnits="userSpaceOnUse">
<stop stop-color="#093843"/>
<stop offset="1" stop-color="#065D63"/>
</linearGradient>
<linearGradient id="paint51_linear" x1="634.75" y1="130.764" x2="600.492" y2="186.903" gradientUnits="userSpaceOnUse">
<stop stop-color="#2471A8"/>
<stop offset="1" stop-color="#4BE877"/>
</linearGradient>
<linearGradient id="paint52_linear" x1="319.122" y1="255.981" x2="393.011" y2="323.345" gradientUnits="userSpaceOnUse">
<stop stop-color="#CAECFF"/>
<stop offset="1" stop-color="#00A5FF"/>
</linearGradient>
</defs>
</svg>
