<svg width="27" height="33" viewBox="0 0 27 33" fill="none" xmlns="http://www.w3.org/2000/svg">
<path d="M3.85845 0.75H16.334C16.8955 0.75 17.439 0.949 17.8677 1.31167L25.4101 7.69124C25.9436 8.1425 26.2513 8.80581 26.2513 9.50457V29.3819C26.2513 32.217 26.2189 32.4167 23.3108 32.4167H3.85845C0.950345 32.4167 0.917969 32.217 0.917969 29.3819V3.78472C0.917969 0.949697 0.950345 0.75 3.85845 0.75ZM5.66797 15C4.79352 15 4.08464 15.7089 4.08464 16.5833C4.08464 17.4578 4.79352 18.1667 5.66797 18.1667H16.7513C17.6258 18.1667 18.3346 17.4578 18.3346 16.5833C18.3346 15.7089 17.6258 15 16.7513 15H5.66797ZM5.66797 21.3333C4.79352 21.3333 4.08464 22.0422 4.08464 22.9167C4.08464 23.7911 4.79352 24.5 5.66797 24.5H10.418C11.2924 24.5 12.0013 23.7911 12.0013 22.9167C12.0013 22.0422 11.2924 21.3333 10.418 21.3333H5.66797Z" fill="#12D6D6"/>
</svg>
