<svg width="19" height="14" viewBox="0 0 19 14" fill="none" xmlns="http://www.w3.org/2000/svg">
<path fill-rule="evenodd" clip-rule="evenodd" d="M18.4391 1.21285C17.6914 0.458999 16.4791 0.458999 15.7313 1.21285L8.07739 8.92942L3.33961 4.15286C2.57563 3.38263 1.33697 3.38263 0.572987 4.15286C-0.190995 4.9231 -0.190996 6.1719 0.572986 6.94213L6.63602 13.0548C6.6671 13.0861 6.69896 13.1162 6.73154 13.145C7.47364 13.8267 8.6188 13.8148 9.34673 13.109C9.36563 13.0914 9.38428 13.0733 9.40265 13.0548C9.41858 13.0387 9.43419 13.0224 9.44946 13.006L18.4391 3.94277C19.1868 3.18892 19.1868 1.96669 18.4391 1.21285Z" fill="#00DBA6"/>
</svg>
