<svg width="60" height="61" viewBox="0 0 60 61" fill="none" xmlns="http://www.w3.org/2000/svg">
<rect y="0.790039" width="60" height="60" rx="15" fill="url(#paint0_linear)"/>
<path fill-rule="evenodd" clip-rule="evenodd" d="M24.4937 23.4237L22.4522 25.4652C22.4131 25.5043 22.4131 25.5677 22.4522 25.6068L26.6769 29.8315C26.716 29.8706 26.7794 29.8706 26.8185 29.8315L28.86 27.79C28.8991 27.7509 28.8991 27.6875 28.86 27.6484L24.6353 23.4237C24.5962 23.3846 24.5328 23.3846 24.4937 23.4237ZM22.4522 36.3808L35.4073 23.4257C35.4464 23.3866 35.5098 23.3866 35.5488 23.4257L37.59 25.4669C37.6291 25.5059 37.6291 25.5693 37.59 25.6084L24.6349 38.5635C24.5958 38.6026 24.5325 38.6026 24.4934 38.5635L22.4522 36.5223C22.4131 36.4832 22.4131 36.4199 22.4522 36.3808ZM33.2258 32.156L31.1843 34.1975C31.1452 34.2366 31.1452 34.2999 31.1843 34.339L35.409 38.5638C35.4481 38.6028 35.5115 38.6028 35.5506 38.5638L37.5921 36.5223C37.6312 36.4832 37.6312 36.4198 37.5921 36.3807L33.3674 32.156C33.3283 32.1169 33.2649 32.1169 33.2258 32.156ZM10.3281 23.8833V26.3756C10.3281 26.434 10.3513 26.49 10.3926 26.5312C10.4339 26.5725 10.4899 26.5957 10.5483 26.5957H16.9295V32.6081C16.9294 32.637 16.935 32.6656 16.9461 32.6923C16.9571 32.719 16.9732 32.7432 16.9936 32.7637C17.014 32.7841 17.0383 32.8004 17.0649 32.8114C17.0916 32.8225 17.1202 32.8282 17.1491 32.8282H20.0098C20.0682 32.8282 20.1242 32.805 20.1654 32.7637C20.2067 32.7224 20.2299 32.6664 20.2299 32.6081V23.8833C20.2298 23.825 20.2065 23.7691 20.1653 23.728C20.124 23.6868 20.0681 23.6637 20.0098 23.6637H10.5483C10.5194 23.6636 10.4908 23.6692 10.4641 23.6802C10.4373 23.6912 10.4131 23.7074 10.3926 23.7278C10.3722 23.7482 10.356 23.7725 10.3449 23.7991C10.3338 23.8258 10.3281 23.8544 10.3281 23.8833ZM13.5287 29.5277H10.4282C10.3729 29.5277 10.3281 29.5725 10.3281 29.6278V38.224C10.3281 38.2793 10.3729 38.3241 10.4282 38.3241H13.5287C13.584 38.3241 13.6288 38.2793 13.6288 38.224V29.6278C13.6288 29.5725 13.584 29.5277 13.5287 29.5277ZM49.765 36.17H40.7705V38.9375H49.765V36.17Z" fill="#12D6D6"/>
<defs>
<linearGradient id="paint0_linear" x1="27.5294" y1="-17.6648" x2="27.5294" y2="65.1449" gradientUnits="userSpaceOnUse">
<stop stop-color="#1F2527" stop-opacity="0.62"/>
<stop offset="1" stop-color="#242F30"/>
</linearGradient>
</defs>
</svg>
