<svg width="60" height="61" viewBox="0 0 60 61" fill="none" xmlns="http://www.w3.org/2000/svg">
<rect y="0.612305" width="60" height="60" rx="15" fill="url(#paint0_linear)"/>
<path fill-rule="evenodd" clip-rule="evenodd" d="M34.5578 17.9556C35.0913 18.0986 35.4078 18.6469 35.2649 19.1804L28.8435 43.1455C28.7005 43.679 28.1522 43.9956 27.6187 43.8526L25.4413 43.2692C24.9078 43.1263 24.5913 42.5779 24.7342 42.0444L31.1556 18.0793C31.2986 17.5459 31.8469 17.2293 32.3804 17.3722L34.5578 17.9556ZM37.7384 23.1757C37.3479 23.5662 37.3479 24.1994 37.7384 24.5899L43.6923 30.5438L37.7384 36.4977C37.3479 36.8882 37.3479 37.5214 37.7384 37.9119L39.3324 39.5059C39.7229 39.8964 40.3561 39.8964 40.7466 39.5059L47.4076 32.8449L49.0016 31.2509C49.1968 31.0557 49.2945 30.7997 49.2945 30.5438C49.2945 30.4846 49.2892 30.4253 49.2788 30.3669C49.2441 30.1727 49.1517 29.9868 49.0016 29.8367L40.7466 21.5817C40.3561 21.1912 39.7229 21.1912 39.3324 21.5817L37.7384 23.1757ZM22.2592 23.176C22.6497 23.5666 22.6497 24.1997 22.2592 24.5902L16.3053 30.5441L22.2592 36.4981C22.6497 36.8886 22.6497 37.5217 22.2592 37.9123L20.6652 39.5062C20.2747 39.8968 19.6415 39.8968 19.251 39.5062L12.59 32.8452L10.996 31.2513C10.8076 31.0629 10.7101 30.818 10.7035 30.5711C10.6964 30.3063 10.7939 30.0392 10.996 29.837L19.251 21.5821C19.6415 21.1915 20.2747 21.1915 20.6652 21.5821L22.2592 23.176Z" fill="#12D6D6"/>
<defs>
<linearGradient id="paint0_linear" x1="27.5294" y1="-17.8425" x2="27.5294" y2="64.9671" gradientUnits="userSpaceOnUse">
<stop stop-color="#1F2527" stop-opacity="0.62"/>
<stop offset="1" stop-color="#242F30"/>
</linearGradient>
</defs>
</svg>
