<svg width="60" height="61" viewBox="0 0 60 61" fill="none" xmlns="http://www.w3.org/2000/svg">
<rect y="0.790039" width="60" height="60" rx="15" fill="url(#paint0_linear)"/>
<path d="M21.5547 18.6612V22.9112C21.5547 23.0107 21.5942 23.1062 21.6646 23.1766C21.735 23.247 21.8305 23.2865 21.9301 23.2865H32.8118V33.5392C32.8116 33.5885 32.8213 33.6373 32.84 33.6828C32.8588 33.7283 32.8864 33.7697 32.9211 33.8046C32.9559 33.8395 32.9973 33.8671 33.0428 33.886C33.0883 33.9049 33.137 33.9146 33.1863 33.9146H38.0645C38.164 33.9146 38.2595 33.875 38.3299 33.8046C38.4003 33.7342 38.4399 33.6388 38.4399 33.5392V18.6612C38.4396 18.5617 38.4 18.4665 38.3296 18.3963C38.2592 18.3261 38.1639 18.2866 38.0645 18.2866H21.9301C21.8808 18.2865 21.832 18.2961 21.7865 18.3149C21.7409 18.3337 21.6996 18.3612 21.6647 18.396C21.6298 18.4308 21.6022 18.4721 21.5833 18.5176C21.5644 18.5631 21.5547 18.6119 21.5547 18.6612Z" fill="#12D6D6"/>
<path d="M21.7254 28.2864H27.0126C27.1068 28.2864 27.1832 28.3628 27.1832 28.4571V43.116C27.1832 43.2102 27.1068 43.2866 27.0126 43.2866H21.7254C21.6311 43.2866 21.5547 43.2102 21.5547 43.116V28.4571C21.5547 28.3628 21.6311 28.2864 21.7254 28.2864Z" fill="#12D6D6"/>
<defs>
<linearGradient id="paint0_linear" x1="27.5294" y1="-17.6648" x2="27.5294" y2="65.1449" gradientUnits="userSpaceOnUse">
<stop stop-color="#1F2527" stop-opacity="0.62"/>
<stop offset="1" stop-color="#242F30"/>
</linearGradient>
</defs>
</svg>
