<svg width="569" height="678" viewBox="0 0 569 678" fill="none" xmlns="http://www.w3.org/2000/svg">
<g clip-path="url(#clip0)">
<path d="M1051.12 678.5L-396.331 677.417C-49.5814 498.631 726.148 515.582 1051.12 678.5Z" fill="url(#paint0_radial)"/>
<path opacity="0.12" d="M490.193 555.585L422.078 564.804L423.615 551.488L490.193 555.585Z" fill="url(#paint1_linear)"/>
<path opacity="0.12" d="M370.862 549.439L298.138 564.804L299.686 547.391L370.862 549.439Z" fill="url(#paint2_linear)"/>
<g opacity="0.5">
<path opacity="0.1" fill-rule="evenodd" clip-rule="evenodd" d="M143.484 641.702C180.853 641.702 211.145 635.403 211.145 627.633C211.145 619.863 180.853 613.564 143.484 613.564C106.116 613.564 75.8232 619.863 75.8232 627.633C75.8232 635.403 106.116 641.702 143.484 641.702Z" fill="url(#paint3_linear)"/>
<mask id="mask0" mask-type="alpha" maskUnits="userSpaceOnUse" x="75" y="613" width="137" height="29">
<path opacity="0.12" fill-rule="evenodd" clip-rule="evenodd" d="M143.484 641.702C180.853 641.702 211.145 635.403 211.145 627.633C211.145 619.863 180.853 613.564 143.484 613.564C106.116 613.564 75.8232 619.863 75.8232 627.633C75.8232 635.403 106.116 641.702 143.484 641.702Z" fill="white"/>
</mask>
<g mask="url(#mask0)">
<path d="M125.972 651.082C163.34 651.082 193.633 644.783 193.633 637.012C193.633 629.242 163.34 622.943 125.972 622.943C88.6034 622.943 58.3105 629.242 58.3105 637.012C58.3105 644.783 88.6034 651.082 125.972 651.082Z" fill="#011016"/>
</g>
</g>
<path opacity="0.12" fill-rule="evenodd" clip-rule="evenodd" d="M263.781 576.104C277.733 576.104 289.044 573.487 289.044 570.257C289.044 567.028 277.733 562.284 263.781 564.41C249.829 566.536 238.518 567.028 238.518 570.257C238.518 573.487 249.829 576.104 263.781 576.104Z" fill="url(#paint4_linear)"/>
<g opacity="0.5">
<path opacity="0.1" fill-rule="evenodd" clip-rule="evenodd" d="M433.09 604.122C453.52 604.122 470.081 600.077 470.081 595.086C470.081 590.095 453.52 586.05 433.09 586.05C412.659 586.05 396.098 590.095 396.098 595.086C396.098 600.077 412.659 604.122 433.09 604.122Z" fill="url(#paint5_linear)"/>
<mask id="mask1" mask-type="alpha" maskUnits="userSpaceOnUse" x="396" y="586" width="75" height="19">
<path opacity="0.12" fill-rule="evenodd" clip-rule="evenodd" d="M433.09 604.122C453.52 604.122 470.081 600.077 470.081 595.086C470.081 590.095 453.52 586.05 433.09 586.05C412.659 586.05 396.098 590.095 396.098 595.086C396.098 600.077 412.659 604.122 433.09 604.122Z" fill="white"/>
</mask>
<g mask="url(#mask1)">
<path opacity="0.4" d="M425.872 605.185C446.302 605.185 462.864 601.14 462.864 596.149C462.864 591.158 446.302 587.113 425.872 587.113C405.442 587.113 388.88 591.158 388.88 596.149C388.88 601.14 405.442 605.185 425.872 605.185Z" fill="#011016"/>
</g>
</g>
<g opacity="0.6">
<path opacity="0.1" d="M438.392 642.916C438.392 646.367 465.143 649.884 489.345 649.884C513.547 649.884 515.063 646.227 515.063 644.061C515.063 641.895 510.549 634.476 486.643 634.476C462.738 634.476 438.392 639.465 438.392 642.916Z" fill="url(#paint6_linear)"/>
<mask id="mask2" mask-type="alpha" maskUnits="userSpaceOnUse" x="438" y="634" width="78" height="16">
<path opacity="0.12" d="M438.392 642.916C438.392 646.367 465.143 649.884 489.345 649.884C513.547 649.884 515.063 646.227 515.063 644.061C515.063 641.895 510.549 634.476 486.643 634.476C462.738 634.476 438.392 639.465 438.392 642.916Z" fill="white"/>
</mask>
<g mask="url(#mask2)">
<path d="M515.063 634.476C515.063 634.476 514.025 643.109 500.839 646.024C487.654 648.939 457.181 649.884 457.181 649.884L528.429 652.779L523.242 640.809L515.063 634.476Z" fill="#011016"/>
</g>
</g>
<path d="M405.626 507.324C406.129 515.504 410.396 531.966 423.437 532.38C439.738 532.897 447.155 523.41 466.82 527.895C482.552 531.483 485.766 546.956 485.407 554.244" stroke="url(#paint7_linear)" stroke-width="8.0441"/>
<path d="M405.626 507.324C406.129 515.504 410.396 531.966 423.437 532.38C439.738 532.897 447.155 523.41 466.82 527.895C482.552 531.483 485.766 546.956 485.407 554.244" stroke="url(#paint8_linear)" stroke-width="8.0441" stroke-dasharray="3.71 3.63"/>
<path d="M197.484 182.121C200.92 185.973 200.589 206.659 171.782 258.581C135.773 323.484 171.782 371.655 208.395 374.889C245.008 378.123 261.74 342.804 293.221 358.847C318.406 371.681 324.703 415.599 324.703 435.954" stroke="url(#paint9_linear)" stroke-width="8.0441"/>
<path d="M197.484 182.121C200.92 185.973 200.589 206.659 171.782 258.581C135.773 323.484 171.782 371.655 208.395 374.889C245.008 378.123 261.74 342.804 293.221 358.847C318.406 371.681 324.703 415.599 324.703 435.954" stroke="url(#paint10_linear)" stroke-width="8.0441" stroke-dasharray="3.71 3.63"/>
<path d="M183.792 204.879C181.811 202.013 178.404 195.251 175.43 189.029C173.368 184.714 176.61 179.803 181.391 179.907L189.326 180.079C190.961 180.115 192.529 180.756 193.666 181.931C199.974 188.455 208.477 199.503 202.551 202.755C194.41 207.225 187.69 210.52 183.792 204.879Z" fill="url(#paint11_linear)"/>
<path d="M266.067 151.171C260.41 148.04 249.047 138.717 243.609 134.054C243.325 133.811 242.911 133.795 242.609 134.017L240.058 135.895C239.861 136.04 239.741 136.261 239.733 136.505C239.521 142.981 240.264 156.134 244.916 159.883C250.847 164.662 260.009 167.444 265.4 168.556C270.791 169.668 282.967 167.055 281.028 162.005C279.088 156.955 273.355 155.205 266.067 151.171Z" fill="url(#paint12_linear)"/>
<path opacity="0.3" d="M270.706 168.682C258.288 161.091 249.017 148.718 245.72 143.032L239.704 139.313C239.777 146.221 240.863 156.619 244.915 159.883C250.846 164.662 260.008 167.445 265.399 168.557C266.823 168.85 268.72 168.884 270.706 168.682Z" fill="url(#paint13_linear)"/>
<path d="M246.976 137.662C248.946 144.341 245.007 150.459 242.791 152.683L230.729 133.364L239.006 125.111C240.842 126.512 245.006 130.983 246.976 137.662Z" fill="url(#paint14_linear)"/>
<path d="M262.045 176.392C257.076 165.233 238.936 140.429 231.918 136.591C231.677 136.46 231.396 136.503 231.179 136.672L203.526 158.245C203.207 158.494 203.141 158.943 203.391 159.262C214.833 173.865 240.8 202.219 256.729 203.183C276.899 204.404 282.457 213.41 290.2 210.826C297.943 208.242 302.907 199.285 292.097 187.878C283.664 178.979 269.325 176.818 262.729 176.828C262.43 176.829 262.167 176.665 262.045 176.392Z" fill="url(#paint15_linear)"/>
<path d="M213.58 219.185C203.623 213.819 189.102 185.908 183.086 172.624L179.212 161.016C179.079 160.62 179.305 160.192 179.707 160.078L211.529 151.008C211.741 150.947 211.968 150.983 212.146 151.113C214.046 152.494 219.005 156.552 225.898 163.44C233.081 170.618 242.82 185.429 246.936 192.168C247.028 192.32 247.163 192.426 247.333 192.477C251.497 193.722 263.2 195.721 271.24 211.455C279.453 227.528 274.864 237.606 267.939 239.62C261.015 241.634 251.877 227.769 246.09 223.944C240.302 220.118 226.027 225.892 213.58 219.185Z" fill="url(#paint16_linear)"/>
<path opacity="0.12" fill-rule="evenodd" clip-rule="evenodd" d="M185.775 178.341C196.262 175.951 204.24 173.013 212.171 169.084C220.533 164.943 230.72 165.221 232.605 172.91C234.49 180.598 221.648 191.741 212.878 194.875C212.078 195.161 211.309 195.438 210.566 195.706C205.698 197.46 201.912 198.824 197.414 199.791C193.012 192.604 188.876 184.724 185.775 178.341Z" fill="#262626"/>
<path opacity="0.12" d="M213.58 219.185C203.623 213.819 189.101 185.909 183.085 172.624L178.968 160.288C204.64 163.405 204.511 209.807 222.063 212.653C234.288 214.636 246.366 203.112 254.579 219.185C262.792 235.258 274.863 237.606 267.939 239.621C261.014 241.635 251.877 227.77 246.089 223.944C240.302 220.119 226.027 225.892 213.58 219.185Z" fill="#262626"/>
<path d="M263.93 239.15C266.686 235.248 271.108 233.681 274.466 233.22C273.121 236.531 270.705 238.662 267.907 239.476C266.643 239.843 265.307 239.682 263.93 239.15Z" fill="url(#paint17_linear)"/>
<path opacity="0.2" d="M275.6 226.851C271.238 216.297 264.661 211.411 253.22 207.979C242.526 204.771 242.324 195.717 243.56 191.592C244.209 191.156 244.93 190.681 245.708 190.177C246.163 190.903 246.579 191.574 246.948 192.179C247.012 192.285 247.104 192.357 247.222 192.393C247.58 192.502 247.997 192.616 248.465 192.744C253.349 194.08 263.825 196.944 271.21 211.396C274.292 217.429 275.571 222.617 275.6 226.851Z" fill="#262626"/>
<path opacity="0.2" d="M266.943 204.632C272.007 205.807 275.799 207.433 278.95 208.784C283.387 210.687 286.551 212.044 290.201 210.826C291.428 210.416 292.586 209.847 293.622 209.133C288.245 209.78 280.817 208.163 276.062 201.36C270.042 192.746 260.107 188.227 251.098 187.732C243.892 187.336 235.137 191.892 231.66 194.219C237.684 192.067 244.554 192.191 247.237 192.523C257.327 194.184 264.575 201.282 266.943 204.632Z" fill="#262626"/>
<path opacity="0.2" d="M201.243 205.744C205.93 204.85 213.187 202.732 219.754 198.712C221.509 197.637 223.84 197.975 225.059 199.634C226.16 201.132 225.983 203.217 224.497 204.334C220.692 207.199 214.169 210.957 206.276 212.515C204.619 210.521 202.928 208.225 201.243 205.744Z" fill="#262626"/>
<path d="M167.834 161.118C166.129 155.006 170.849 151.87 172.676 150.441C192.595 142.933 233.067 128.086 235.598 128.763C238.761 129.61 247.877 137.507 243.552 145.263C239.228 153.019 225.944 160.511 203.39 165.937C180.837 171.362 169.539 167.231 167.834 161.118Z" fill="url(#paint18_linear)"/>
<path d="M222.965 159.849C228.46 157.631 232.923 155.247 236.365 152.767C237.837 145.753 231.67 138.015 228.096 134.793L226.041 131.276C212.268 135.731 187.091 145.008 172.676 150.441C172.566 150.527 172.444 150.62 172.315 150.72C170.301 152.261 166.233 155.376 167.834 161.118C168.654 164.058 171.692 166.539 177.133 167.719C176.615 162.187 177.349 156.012 177.911 153.066C182.62 151.123 192.086 147.889 192.275 150.493C192.437 152.715 192.551 161.793 192.604 167.944C195.863 167.539 199.455 166.883 203.39 165.937C204.66 165.631 205.901 165.319 207.112 165.001C206.76 159.899 205.036 153.523 204 150.373C206.877 145.884 213.92 138.726 219.076 146.006C222.898 151.402 223.402 156.537 222.965 159.849Z" fill="url(#paint19_linear)"/>
<path d="M179.505 192.157C186.179 194.459 193.206 190.581 195.886 188.354C197.901 185.685 201.57 178.683 200.123 172.025C198.315 163.702 190.304 158.168 182.48 159.101C174.656 160.033 168.251 167.035 168.066 174.03C167.881 181.025 171.163 189.279 179.505 192.157Z" fill="url(#paint20_linear)"/>
<path d="M156.24 135.359C162.189 147.116 169.155 152.612 172.017 153.963C172.097 154 172.179 154.019 172.267 154.025C177.245 154.364 182.218 155.661 193.328 154.165C204.538 152.654 233.827 146.199 240.42 134.105C247.014 122.011 246.24 107.846 237.885 94.9438C229.53 82.0413 214.919 73.2363 201.781 73.5079C188.644 73.7794 172.041 79.5236 162.336 91.8763C152.63 104.229 148.701 120.459 156.24 135.359Z" fill="url(#paint21_linear)"/>
<path d="M231.089 86.6217C226.786 90.4103 220.84 92.9434 207.94 91.71C192.363 90.2208 186.455 92.0299 179.574 97.3493C172.693 102.669 169.664 121.157 179.024 136.115C183.06 142.565 188.915 148.888 194.384 154.015C206.274 152.262 234.024 145.836 240.42 134.105C247.013 122.011 246.239 107.846 237.884 94.9438C235.929 91.924 233.63 89.1287 231.089 86.6217Z" fill="url(#paint22_linear)"/>
<path fill-rule="evenodd" clip-rule="evenodd" d="M227.266 95.5392C228.152 94.806 229.434 95.0081 230.127 95.9894C233.135 100.249 235.323 105.232 236.693 110.923C236.978 112.115 236.329 113.311 235.241 113.596C234.151 113.881 233.037 113.146 232.75 111.954C231.518 106.835 229.573 102.405 226.917 98.6426C226.223 97.6614 226.379 96.2706 227.266 95.5392Z" fill="url(#paint23_linear)"/>
<path fill-rule="evenodd" clip-rule="evenodd" d="M236.002 121.987C237.125 122.015 238.06 121.044 238.091 119.817C238.121 118.591 237.235 117.575 236.112 117.547C234.989 117.519 234.054 118.491 234.023 119.717C233.993 120.944 234.879 121.96 236.002 121.987Z" fill="url(#paint24_linear)"/>
<path d="M224.945 75.9851C278.369 96.7493 318.33 137.901 331.632 155.882L240.931 207.587C225.614 165.787 224.277 103.437 224.945 75.9851Z" fill="url(#paint25_linear)"/>
<circle r="1.55791" transform="matrix(-1 3.9287e-10 3.9287e-10 1 306.247 139.418)" fill="white"/>
<circle r="1.55791" transform="matrix(-1 3.9287e-10 3.9287e-10 1 300.795 133.771)" fill="white"/>
<circle r="1.55791" transform="matrix(-1 3.9287e-10 3.9287e-10 1 295.635 128.61)" fill="white"/>
<path opacity="0.2" d="M273.339 190.519C250.287 147.948 234.131 103.857 226.125 77.5258C225.846 77.4157 225.566 77.3062 225.286 77.1973C224.618 104.649 225.955 166.999 241.271 208.799L273.339 190.519Z" fill="#262626"/>
<path opacity="0.2" d="M257.771 195.965C234.719 153.394 229.482 106.61 226.125 77.5258C225.846 77.4157 225.566 77.3062 225.286 77.1973C224.618 104.649 225.955 166.999 241.271 208.799L257.771 195.965Z" fill="#262626"/>
<ellipse rx="52.3912" ry="17.0883" transform="matrix(-0.877536 0.479511 0.479511 0.877536 286.918 182.599)" fill="url(#paint26_linear)"/>
<ellipse rx="46.0402" ry="13.6332" transform="matrix(-0.877536 0.479511 0.479511 0.877536 286.917 182.599)" fill="url(#paint27_linear)"/>
<path d="M293.737 108.192C290.584 103.345 280.554 103.182 275.971 103.72C278.429 105.617 281.32 109.909 281.521 115.116C281.723 120.322 285.318 124.71 289.973 123.255C294.627 121.8 297.679 114.251 293.737 108.192Z" fill="url(#paint28_linear)"/>
<path opacity="0.3" d="M281.57 115.826C282.054 120.712 285.531 124.643 289.972 123.255C291.113 122.898 292.157 122.176 293.026 121.199C292.669 119.142 291.626 117.015 289.233 115.815C286.381 114.386 283.636 114.67 281.57 115.826Z" fill="url(#paint29_linear)"/>
<path d="M168.132 126.651C166.947 123.133 165.984 118.881 165.333 115.458C164.904 113.201 162.766 111.646 160.501 112.031L149.089 113.969C147.696 121.266 150.396 131.29 151.296 134.411L156.895 136.683L165.926 132.355C168.002 131.36 168.867 128.832 168.132 126.651Z" fill="url(#paint30_linear)"/>
<path d="M148.971 114.964C148.923 115.094 148.89 115.231 148.873 115.374C148.105 121.844 150.034 129.851 151.027 133.459C151.149 133.903 151.419 134.283 151.785 134.547L161.194 129.423C162.136 128.91 162.588 127.805 162.32 126.766C161.56 123.814 160.554 119.107 159.962 115.51C159.784 114.424 158.871 113.608 157.774 113.694C155.362 113.882 151.932 114.41 148.971 114.964Z" fill="url(#paint31_linear)"/>
<path d="M180.034 78.4856C183.887 78.7997 189.518 79.6776 194.465 81.6881C202.65 85.0148 214.308 83.5813 218.54 77.6002C213.075 74.8812 207.298 73.3943 201.781 73.5083C194.981 73.6489 187.253 75.2555 180.034 78.4856Z" fill="url(#paint32_linear)"/>
<path d="M195.857 73.9783C199.787 75.0053 205.504 77.4207 211.503 82.3102C214.481 81.3481 217.001 79.7748 218.54 77.6005C213.075 74.8814 207.298 73.3945 201.78 73.5086C199.868 73.5481 197.883 73.7035 195.857 73.9783Z" fill="url(#paint33_linear)"/>
<path d="M198.008 186.272C207.594 185.347 212.567 183.302 221.338 180.167C230.108 177.033 242.95 165.891 241.065 158.202C239.18 150.514 228.993 150.235 220.631 154.376C212.27 158.518 203.856 161.56 192.506 164.017C181.155 166.475 179.646 173.963 179.928 177.524C180.211 181.086 186.025 187.429 198.008 186.272Z" fill="url(#paint34_linear)"/>
<path opacity="0.3" d="M180.578 179.576C187.699 181.207 200.398 182.409 211.11 177.817C225.336 171.718 235.273 162.221 240.144 155.911C240.544 156.586 240.855 157.348 241.064 158.201C242.949 165.89 230.108 177.032 221.337 180.167C220.537 180.453 219.769 180.729 219.026 180.997C211.621 183.665 206.72 185.431 198.008 186.271C188.105 187.227 182.415 183.061 180.578 179.576Z" fill="url(#paint35_linear)"/>
<path opacity="0.3" d="M235.182 152.253C234.673 157.276 237.671 161.518 240.248 163.934C241.15 161.934 241.499 159.976 241.064 158.202C240.285 155.022 238.085 153.11 235.182 152.253Z" fill="url(#paint36_linear)"/>
<ellipse cx="210.533" cy="178.243" rx="2.14814" ry="2.6596" transform="rotate(-101.111 210.533 178.243)" fill="url(#paint37_linear)"/>
<path d="M201.879 233.096C199.912 239.789 195.252 247.988 193.168 251.251C188.553 243.877 183.939 227.921 185.664 222.875C187.389 217.83 191.486 214.725 196.876 216.32C202.267 217.916 204.337 224.73 201.879 233.096Z" fill="url(#paint38_linear)"/>
<path d="M198.702 225.573C197.739 228.855 195.457 232.876 194.436 234.476C192.176 230.86 189.916 223.035 190.761 220.561C191.606 218.086 193.612 216.564 196.252 217.346C198.893 218.128 199.906 221.47 198.702 225.573Z" fill="url(#paint39_linear)"/>
<path d="M218.535 233.903C218.123 237.906 216.342 243.048 215.503 245.118C212.109 241.42 207.813 232.854 208.261 229.81C208.709 226.766 210.706 224.574 213.932 224.912C217.158 225.25 219.049 228.898 218.535 233.903Z" fill="url(#paint40_linear)"/>
<path d="M215.941 229.969C215.74 231.932 214.868 234.453 214.457 235.468C212.795 233.655 210.69 229.453 210.909 227.961C211.128 226.468 212.106 225.394 213.686 225.56C215.266 225.726 216.192 227.515 215.941 229.969Z" fill="url(#paint41_linear)"/>
<path d="M306.497 560.333L287.823 473.588L325.17 473.588L306.497 560.333Z" fill="url(#paint42_linear)"/>
<path d="M245.739 391.05C253.363 378.131 260.2 366.546 264.333 356.365L343.076 356.365C347.209 366.546 354.046 378.131 361.671 391.05C386.865 433.742 420.661 491.008 393.938 560.356C390.821 538.212 359.521 497.803 319.917 459.116L287.493 459.116C247.888 497.803 216.588 538.211 213.472 560.356C186.748 491.008 220.544 433.742 245.739 391.05Z" fill="url(#paint43_linear)"/>
<path d="M264.333 356.365C260.2 366.546 253.363 378.131 245.739 391.05C220.544 433.742 186.748 491.008 213.472 560.356C214.003 556.579 215.354 552.271 217.427 547.53C200.231 484.689 231.07 432.434 254.482 392.763C262.107 379.843 268.944 368.259 273.077 358.078C368.854 358.078 344.95 356.365 264.333 356.365Z" fill="url(#paint44_linear)"/>
<path opacity="0.8" fill-rule="evenodd" clip-rule="evenodd" d="M231.806 522.601C245.297 503.217 265.063 480.755 287.493 458.845L319.917 458.845C342.348 480.756 362.115 503.22 375.606 522.604C381.24 496.463 385.703 469.608 388.94 442.294C380.875 423.32 370.718 406.11 361.671 390.78C354.046 377.86 347.209 366.275 343.076 356.094L264.334 356.094C260.2 366.275 253.363 377.86 245.739 390.779C236.692 406.108 226.537 423.316 218.473 442.287C221.709 469.602 226.172 496.458 231.806 522.601Z" fill="url(#paint45_linear)"/>
<path opacity="0.8" fill-rule="evenodd" clip-rule="evenodd" d="M244.326 505.934C256.404 490.867 271.25 474.711 287.493 458.845L319.917 458.845C349.942 488.174 375.194 518.493 387.011 541.093C392.131 519.84 396.463 498.06 399.978 475.894C392.627 443.234 375.797 414.716 361.671 390.78L361.671 390.779C354.046 377.86 347.21 366.275 343.076 356.094L264.334 356.094C260.2 366.275 253.364 377.86 245.739 390.779C241.159 398.54 236.295 406.782 231.562 415.491C234.297 446.226 238.578 476.492 244.326 505.934Z" fill="url(#paint46_linear)"/>
<mask id="mask3" mask-type="alpha" maskUnits="userSpaceOnUse" x="229" y="224" width="148" height="232">
<path fill-rule="evenodd" clip-rule="evenodd" d="M247.253 224.046C216.413 301.018 227.186 386.052 265.25 455.626H340.032C378.096 386.052 389.134 301.018 358.442 224.046H247.253Z" fill="url(#paint47_linear)"/>
</mask>
<g mask="url(#mask3)">
<path d="M251.754 466.108H355.544C416.471 321.89 408.241 133.177 303.649 -6.02633C199.058 133.177 190.827 321.89 251.754 466.108Z" fill="url(#paint48_linear)"/>
<path opacity="0.3" d="M215.517 203.124C215.517 203.124 253.01 225.122 303.636 225.122C354.262 225.122 380.568 208.28 380.568 208.28V458.365H226.703L215.517 203.124Z" fill="url(#paint49_linear)"/>
<path opacity="0.4" d="M284.026 220.311C253.123 220.311 197.83 201.817 195.817 197.643L238.14 443.018C240.632 446.25 256.346 451.937 299.266 448.835C278.399 409.446 280.511 252.968 284.026 220.311Z" fill="url(#paint50_linear)"/>
<path opacity="0.6" d="M227.833 243.959C253.086 264.541 312.995 283.36 380.679 243.959" stroke="white" stroke-width="1.34946" stroke-linecap="round" stroke-dasharray="0.07 3.37"/>
<g filter="url(#filter0_d)">
<circle cx="304.204" cy="295.916" r="45.0469" fill="url(#paint51_linear)"/>
</g>
<g filter="url(#filter1_d)">
<circle cx="304.206" cy="295.916" r="34.3055" fill="url(#paint52_linear)"/>
</g>
<circle opacity="0.65" cx="320.699" cy="280.272" r="7.6785" fill="url(#paint53_linear)"/>
<path opacity="0.8" d="M299.416 466.149H342.706C388.574 321.909 382.378 133.165 303.637 -6.06079C334.421 132.702 348.227 312.654 299.416 466.149Z" fill="url(#paint54_linear)"/>
<path opacity="0.8" d="M323.07 466.149H366.36C412.228 321.909 406.033 133.165 327.291 -6.06079C358.076 132.702 371.882 312.654 323.07 466.149Z" fill="url(#paint55_linear)"/>
<path opacity="0.5" d="M274.197 468.949L230.989 465.051C191.219 316.951 205.271 129.12 289.669 -2.75386C253.158 132.976 231.876 311.347 274.197 468.949Z" fill="url(#paint56_linear)"/>
<path d="M288.828 380.164L302.097 380.236L300.379 414.425L287.623 414.469L288.828 380.164Z" fill="url(#paint57_linear)"/>
<path d="M322.709 359.547L322.703 359.679L322.856 359.678L321.815 389.346L310 389.213L310.786 369.06L288.753 369.153L288.815 359.716L322.709 359.547Z" fill="url(#paint58_linear)"/>
</g>
<path d="M270.537 462.155L253.872 516.594H353.037L336.371 462.155H270.537Z" fill="url(#paint59_linear)"/>
<path d="M270.537 462.156L253.872 516.595H353.037L336.371 462.156H270.537Z" fill="url(#paint60_linear)"/>
<path opacity="0.4" d="M283.735 462.155L273.75 516.594H333.159L323.174 462.155H283.735Z" fill="url(#paint61_linear)"/>
<path opacity="0.4" d="M294.538 462.155L290.024 516.594H316.884L312.37 462.155H294.538Z" fill="url(#paint62_linear)"/>
<path opacity="0.4" fill-rule="evenodd" clip-rule="evenodd" d="M343.141 484.26C342.739 484.303 342.331 484.324 341.918 484.324H265.353C264.821 484.324 264.298 484.288 263.785 484.218L270.54 462.155H336.373L343.141 484.26Z" fill="url(#paint63_linear)"/>
<rect x="253.357" y="455.6" width="100.111" height="17.1319" rx="8.56596" fill="url(#paint64_linear)"/>
<path opacity="0.6" d="M264.045 464.617H342.898" stroke="white" stroke-width="5.71912" stroke-linecap="round" stroke-dasharray="0.06 12.71"/>
<rect opacity="0.4" x="301.726" y="455.6" width="51.7429" height="17.1319" rx="8.56596" fill="url(#paint65_linear)"/>
<mask id="mask4" mask-type="alpha" maskUnits="userSpaceOnUse" x="233" y="364" width="41" height="57">
<path d="M260.696 364.287H233.183C235.598 381.503 243.748 408.145 248.708 420.177H273.504C268.26 403.824 262.781 376.104 260.696 364.287Z" fill="url(#paint66_linear)"/>
</mask>
<g mask="url(#mask4)">
<g filter="url(#filter2_i)">
<path d="M260.783 364.287H233.27C235.685 381.503 243.835 408.145 248.794 420.177H273.591C268.347 403.824 262.868 376.104 260.783 364.287Z" fill="url(#paint67_linear)"/>
</g>
<path d="M260.697 431.476C248.553 409.672 241.406 374.81 239.35 360.104L273.419 353.765L306.539 431.476C296.318 440.561 272.841 453.28 260.697 431.476Z" fill="url(#paint68_linear)"/>
<path fill-rule="evenodd" clip-rule="evenodd" d="M259.763 383.314C262.953 382.388 266.46 381.871 269.144 381.64C269.951 381.571 270.641 382.193 270.684 383.002C270.727 383.81 270.107 384.499 269.3 384.57C266.777 384.792 263.51 385.28 260.58 386.13C258.81 386.644 257.228 387.271 256.021 388.011C254.794 388.762 254.119 389.528 253.872 390.248C253.762 390.57 253.68 391.244 253.721 392.358C253.761 393.427 253.905 394.76 254.141 396.307C254.614 399.399 255.435 403.233 256.428 407.316C258.262 414.848 260.661 423.131 262.461 428.946C262.701 429.72 262.271 430.541 261.498 430.784C260.726 431.027 259.903 430.6 259.664 429.826C257.85 423.97 255.432 415.621 253.579 408.009C252.577 403.892 251.733 399.963 251.243 396.75C250.997 395.145 250.836 393.69 250.791 392.465C250.747 391.284 250.804 390.156 251.098 389.296C251.662 387.653 252.993 386.427 254.489 385.51C256.004 384.582 257.86 383.866 259.763 383.314Z" fill="url(#paint69_linear)"/>
<path fill-rule="evenodd" clip-rule="evenodd" d="M267.464 388.66C270.655 387.734 274.162 387.216 276.846 386.986C277.652 386.916 278.343 387.538 278.386 388.347C278.429 389.156 277.809 389.845 277.002 389.916C274.478 390.137 271.211 390.626 268.282 391.476C266.511 391.989 264.929 392.617 263.723 393.356C262.496 394.108 261.821 394.873 261.574 395.593C261.463 395.916 261.382 396.589 261.423 397.703C261.462 398.773 261.607 400.106 261.843 401.653C262.315 404.744 263.136 408.579 264.13 412.661C265.964 420.194 268.362 428.476 270.163 434.292C270.402 435.065 269.973 435.886 269.2 436.129C268.428 436.372 267.605 435.945 267.365 435.172C265.552 429.315 263.134 420.966 261.281 413.355C260.279 409.238 259.435 405.309 258.944 402.096C258.699 400.49 258.538 399.036 258.492 397.811C258.449 396.63 258.505 395.501 258.8 394.642C259.364 392.999 260.695 391.772 262.191 390.856C263.706 389.928 265.561 389.212 267.464 388.66Z" fill="url(#paint70_linear)"/>
</g>
<g opacity="0.6" filter="url(#filter3_f)">
<path d="M257.666 378.974C261.294 384.432 268.18 379.742 271.169 376.714C270.96 379.452 270.849 386.188 272.079 391.224C273.309 396.261 280.635 398.082 284.145 398.363C281.019 398.881 274.246 400.918 272.166 404.923C270.087 408.927 272.067 412.998 273.317 414.532C271.716 414.875 267.666 416.145 264.27 418.489C260.874 420.832 258.331 430.924 257.485 435.677C257.656 434.012 256.817 429.122 252.096 422.873C247.374 416.624 243.31 422.79 241.868 426.655C241.178 425.192 239.584 421.244 238.723 417.148C237.862 413.053 229.901 411.351 226.028 411.012C228.065 410.319 232.758 407.904 235.235 403.788C238.332 398.643 225.104 401.265 233.07 391.463C238.56 384.708 235.849 381.066 232.987 379.649C232.406 379.446 231.95 379.27 231.63 379.134C232.064 379.251 232.528 379.421 232.987 379.649C235.329 380.465 239.714 381.725 245.533 382.678C252.799 383.867 250.889 373.694 249.026 368.458C250.394 369.69 254.039 373.517 257.666 378.974Z" fill="url(#paint71_linear)"/>
</g>
<path opacity="0.32" d="M241.569 390.475C245.881 391.372 246.959 385.875 246.959 383.015C248.152 384.423 251.28 387.698 254.247 389.527C257.214 391.355 261.579 388.765 263.39 387.241C262.139 388.966 259.862 393.14 260.759 396.038C261.656 398.936 264.526 399.948 265.848 400.092C265.244 401.012 263.907 403.533 263.39 406.259C262.872 408.984 266.423 415.013 268.263 417.687C267.559 416.81 264.848 414.867 259.638 414.108C254.429 413.349 255.397 418.219 256.533 420.749C255.512 420.375 252.885 419.24 250.539 417.687C248.193 416.135 243.581 419.081 241.569 420.749C242.216 419.455 243.32 416.083 242.561 412.943C241.612 409.019 236.523 416.523 235.704 408.07C235.139 402.244 232.122 401.784 230.084 402.457C229.71 402.635 229.409 402.766 229.192 402.852C229.455 402.703 229.757 402.565 230.084 402.457C231.589 401.742 234.282 400.272 237.515 397.979C241.551 395.115 235.833 391.151 232.469 389.527C233.706 389.469 237.256 389.578 241.569 390.475Z" fill="url(#paint72_linear)"/>
<path opacity="0.56" d="M248.731 393.314C250.756 395.263 253.203 392.66 254.174 391.116C254.341 392.281 254.919 395.111 255.901 397.106C256.884 399.1 260.12 399.183 261.615 398.975C260.355 399.482 257.708 400.963 257.209 402.832C256.711 404.702 257.917 406.222 258.583 406.748C257.944 407.04 256.367 407.948 255.162 409.244C253.958 410.54 253.83 415 253.917 417.069C253.834 416.356 253.029 414.386 250.473 412.208C247.916 410.03 246.787 412.989 246.542 414.74C246.118 414.192 245.083 412.687 244.343 411.052C243.603 409.418 240.112 409.443 238.459 409.661C239.247 409.182 240.988 407.736 241.643 405.783C242.462 403.342 237.167 405.666 239.593 400.824C241.264 397.487 239.791 396.214 238.462 395.886C238.199 395.855 237.992 395.823 237.846 395.796C238.038 395.805 238.248 395.833 238.462 395.886C239.518 396.01 241.471 396.131 243.995 395.99C247.147 395.814 245.403 391.732 244.138 389.713C244.825 390.102 246.706 391.366 248.731 393.314Z" fill="url(#paint73_linear)"/>
<path fill-rule="evenodd" clip-rule="evenodd" d="M231.652 404.229C233.258 400.625 237.08 398.591 240.953 399.188L255.828 401.481C256.769 401.626 257.415 402.507 257.27 403.449C257.125 404.39 256.244 405.036 255.302 404.891L240.427 402.597C238.066 402.233 235.765 403.475 234.804 405.633C229.08 418.483 220.167 440.055 217.489 452.37C215.6 461.061 215.544 472.454 215.986 484.266C216.146 488.558 216.374 492.914 216.597 497.195C216.982 504.585 217.356 511.752 217.356 517.984C217.356 527.844 216.53 537.35 213.468 544.931C210.364 552.617 204.933 558.372 195.88 560.461C194.952 560.676 194.025 560.097 193.811 559.168C193.597 558.24 194.176 557.314 195.104 557.1C202.87 555.308 207.508 550.476 210.269 543.639C213.072 536.698 213.906 527.746 213.906 517.984C213.906 511.828 213.541 504.835 213.159 497.523C212.934 493.222 212.704 488.811 212.538 484.395C212.096 472.586 212.126 460.799 214.118 451.637C216.883 438.92 225.949 417.032 231.652 404.229Z" fill="url(#paint74_linear)"/>
<path d="M161.23 373.257C162.472 369.497 164.551 368.298 165.542 367.953L170.502 366.875L183.267 367.953L197.843 373.257L206.425 383.909L201.724 396.416L185.897 398.486C177.157 391.643 159.988 377.018 161.23 373.257Z" fill="url(#paint75_linear)"/>
<mask id="mask5" mask-type="alpha" maskUnits="userSpaceOnUse" x="126" y="483" width="31" height="48">
<path d="M156.982 490.981L126.95 483.281L130.915 523.838C131.287 527.639 134.483 530.538 138.303 530.538H144.465C148.124 530.538 151.237 527.873 151.8 524.258L156.982 490.981Z" fill="white"/>
</mask>
<g mask="url(#mask5)">
<path d="M156.982 490.981L126.95 483.281L130.607 520.683C131.154 526.275 135.854 530.538 141.473 530.538C146.854 530.538 151.432 526.618 152.26 521.301L156.982 490.981Z" fill="#239EA6"/>
<ellipse opacity="0.3" cx="145.568" cy="502.978" rx="19.678" ry="12.2323" fill="url(#paint76_linear)"/>
<ellipse opacity="0.4" cx="145.568" cy="498.723" rx="19.678" ry="12.2323" fill="url(#paint77_linear)"/>
</g>
<mask id="mask6" mask-type="alpha" maskUnits="userSpaceOnUse" x="154" y="490" width="34" height="41">
<path d="M187.783 490.982H154.671L161.196 524.26C161.879 527.743 164.931 530.255 168.48 530.255H175.274C178.929 530.255 182.04 527.593 182.607 523.982L187.783 490.982Z" fill="white"/>
</mask>
<g mask="url(#mask6)">
<path d="M187.783 490.982H154.671L160.555 520.991C161.611 526.373 166.327 530.255 171.811 530.255C177.46 530.255 182.268 526.142 183.143 520.562L187.783 490.982Z" fill="#239EA6"/>
<ellipse opacity="0.2" cx="171.097" cy="504.396" rx="19.678" ry="12.2323" fill="url(#paint78_linear)"/>
<ellipse opacity="0.4" cx="170.742" cy="500.496" rx="19.678" ry="12.2323" fill="url(#paint79_linear)"/>
</g>
<mask id="mask7" mask-type="alpha" maskUnits="userSpaceOnUse" x="121" y="441" width="72" height="70">
<path d="M190.35 454.112L130.13 441.128L122.177 471.973C118.642 485.683 127.221 499.581 141.062 502.565L177.628 510.449C185.505 512.148 192.851 505.918 192.462 497.87L190.35 454.112Z" fill="white"/>
</mask>
<g mask="url(#mask7)">
<path d="M190.35 454.112L130.13 441.128L122.445 470.933C118.764 485.21 127.699 499.684 142.112 502.792L146.492 503.736C170.086 508.823 192.09 490.163 190.926 466.055L190.35 454.112Z" fill="#3EC4BD"/>
<path d="M122.23 444.435C123.474 438.667 129.158 434.999 134.925 436.243L157.985 441.215C164.528 442.625 168.278 449.677 166.415 456.105C163.243 467.047 159.879 483.534 162.812 497.744C164.61 506.453 160.059 517.52 151.292 516.026C138.511 513.848 125.565 509.353 117.566 506.25C112.878 504.431 110.367 499.456 111.427 494.54L122.23 444.435Z" fill="url(#paint80_linear)"/>
<path opacity="0.3" d="M146.325 448.456C146.812 448.561 147.133 449.018 147.079 449.502L147.063 449.6L140.596 479.593C140.484 480.113 139.972 480.443 139.452 480.331C138.965 480.226 138.644 479.77 138.698 479.285L138.714 479.187L145.181 449.194C145.293 448.674 145.805 448.344 146.325 448.456Z" fill="#17413B"/>
</g>
<path fill-rule="evenodd" clip-rule="evenodd" d="M133.194 434.357C131.603 432.227 128.588 431.79 126.458 433.381C124.328 434.972 123.892 437.988 125.482 440.117C132.788 449.898 145.123 456.284 159.323 458.785C172.039 461.025 184.894 459.813 192.534 455.473C194.845 454.16 195.654 451.222 194.341 448.911C193.06 446.657 190.233 445.831 187.949 447.012L187.779 447.104C182.356 450.185 171.692 451.19 160.993 449.306C149.014 447.195 138.856 441.937 133.194 434.357Z" fill="url(#paint81_linear)"/>
<mask id="mask8" mask-type="alpha" maskUnits="userSpaceOnUse" x="124" y="432" width="71" height="28">
<path fill-rule="evenodd" clip-rule="evenodd" d="M133.194 434.357C131.603 432.227 128.588 431.79 126.458 433.381C124.328 434.972 123.892 437.988 125.482 440.117C132.788 449.898 145.123 456.284 159.323 458.785C172.039 461.025 184.894 459.813 192.534 455.473C194.845 454.16 195.654 451.222 194.341 448.911C193.06 446.657 190.233 445.831 187.949 447.012L187.779 447.104C182.356 450.185 171.692 451.19 160.993 449.306C149.014 447.195 138.856 441.937 133.194 434.357Z" fill="white"/>
</mask>
<g mask="url(#mask8)">
<path opacity="0.969457" d="M184.174 446.583L183.407 447.447C187.392 450.987 188.519 455.387 186.716 460.802L186.614 461.099L187.704 461.48C189.765 455.597 188.628 450.676 184.399 446.787L184.174 446.583Z" fill="url(#paint82_linear)"/>
<path opacity="0.969457" d="M175.495 448.196L174.439 448.663C176.235 452.718 176.78 457.051 176.234 461.849L176.176 462.33L177.321 462.477C177.966 457.451 177.475 452.884 175.673 448.608L175.495 448.196Z" fill="url(#paint83_linear)"/>
<path opacity="0.969457" d="M165.526 446.491L164.373 446.434L164.34 447.189L164.303 448.384C164.152 453.607 163.682 456.616 161.602 462.646L161.439 463.116L162.53 463.497L162.856 462.551C164.788 456.863 165.282 453.777 165.445 448.823L165.504 446.98L165.526 446.491Z" fill="url(#paint84_linear)"/>
<path opacity="0.969457" d="M155.746 443.013L154.677 442.575L154.095 443.985C151.402 450.475 150.316 454.003 149.618 460.156L149.559 460.69L150.708 460.813C151.371 454.632 152.373 451.203 154.938 444.969L155.746 443.013Z" fill="url(#paint85_linear)"/>
<path opacity="0.969457" d="M143.868 440.066C140.474 445.725 138.674 449.714 137.49 455.195L137.38 455.713L138.512 455.945C139.629 450.513 141.314 446.635 144.55 441.177L144.858 440.66L143.868 440.066Z" fill="url(#paint86_linear)"/>
<path opacity="0.969457" d="M136.925 434.954L136.098 434.148L135.622 434.634C130.63 439.729 128.69 442.63 127.729 448.137L127.669 448.492L128.809 448.679C129.664 443.458 131.353 440.724 135.845 436.062L136.925 434.954Z" fill="url(#paint87_linear)"/>
</g>
<mask id="mask9" mask-type="alpha" maskUnits="userSpaceOnUse" x="124" y="369" width="86" height="86">
<path d="M167.53 454.756C143.928 455.006 124.592 436.075 124.342 412.473C124.093 388.871 143.023 369.536 166.625 369.286C190.227 369.036 209.563 387.966 209.813 411.568C210.063 435.17 191.132 454.506 167.53 454.756Z" fill="white"/>
</mask>
<g mask="url(#mask9)">
<path d="M167.53 454.756C143.928 455.006 124.592 436.075 124.342 412.473C124.093 388.871 143.023 369.536 166.625 369.286C190.227 369.036 209.563 387.966 209.813 411.568C210.063 435.17 191.132 454.506 167.53 454.756Z" fill="#4BD8C8"/>
<path opacity="0.36" d="M195.835 384.954C198.629 379.883 192.375 376.693 189.155 373.948L205.327 382.659L210.545 407.585C207.957 422.118 200.367 450.805 190.707 449.287C181.047 447.769 178.862 431.318 178.977 423.282L141.243 414.701C141.243 414.701 123.111 402.157 127.95 392.325C142.691 405.901 173.935 406.809 178.977 402.022C184.973 396.331 187.688 385.73 195.835 384.954Z" fill="#05454D"/>
<path opacity="0.4" d="M119.604 385.646C119.854 392.558 119.787 403.018 133.238 400.843C156.709 397.048 174.416 405.194 190.642 430.729C197.756 441.924 208.324 436.962 217.508 429.792L227.944 420.666C224.942 423.415 221.346 426.796 217.508 429.792L182.798 460.147L129.88 452.021L116.065 403.058L119.604 385.646Z" fill="url(#paint88_linear)"/>
<path opacity="0.2" d="M113.926 418.775C114.177 425.687 114.11 436.147 127.561 433.972C151.032 430.177 168.738 438.323 184.965 463.858C192.079 475.053 202.647 470.091 211.831 462.921L222.266 453.795C219.265 456.544 215.668 459.925 211.831 462.921L177.121 493.277L124.203 485.15L110.388 436.187L113.926 418.775Z" fill="url(#paint89_linear)"/>
<path opacity="0.36" d="M208.643 387.912C208.643 387.912 193.264 378.917 183.628 379.019C173.993 379.121 161.415 386.004 149.151 386.134C136.887 386.264 136.644 373.075 136.644 373.075L176.016 365.16L201.374 372.389L208.643 387.912Z" fill="#05454D"/>
<path d="M185.347 368.926L184.264 368.754C176.082 367.479 170.544 367.254 165.381 368.345C158.583 369.781 153.319 373.575 149.481 380.332C149.187 380.849 149.368 381.508 149.886 381.802C150.403 382.096 151.061 381.915 151.355 381.397C154.886 375.181 159.627 371.764 165.827 370.454C170.886 369.386 176.463 369.669 185.001 371.054C185.589 371.15 186.143 370.751 186.238 370.163C186.333 369.575 185.934 369.021 185.347 368.926Z" fill="#17413B"/>
</g>
<rect width="13.8608" height="16.941" rx="3.54997" transform="matrix(-0.974203 0.225675 0.225675 0.974203 201.416 402.864)" fill="#053340"/>
<rect width="13.8608" height="16.941" rx="3.54997" transform="matrix(-0.974203 0.225675 0.225675 0.974203 202.948 402.702)" fill="#246D56"/>
<rect opacity="0.3" width="9.18586" height="11.2272" rx="2.03495" transform="matrix(-0.974203 0.225675 0.225675 0.974203 201.314 406.011)" fill="url(#paint90_linear)"/>
<path opacity="0.3" fill-rule="evenodd" clip-rule="evenodd" d="M199.333 406.47C200.428 406.217 201.521 406.899 201.775 407.993L203.39 414.966C203.644 416.061 202.962 417.154 201.867 417.408L200.827 417.649C201.894 417.375 202.553 416.298 202.303 415.219L200.688 408.246C200.434 407.151 199.341 406.469 198.246 406.723L194.302 407.636C194.318 407.632 194.334 407.628 194.349 407.625L199.333 406.47Z" fill="url(#paint91_linear)"/>
<path fill-rule="evenodd" clip-rule="evenodd" d="M197.759 436.725C197.334 436.729 196.985 436.388 196.981 435.963C196.976 435.538 197.317 435.189 197.743 435.185C198.168 435.18 198.516 435.521 198.521 435.947C198.525 436.372 198.184 436.72 197.759 436.725Z" fill="url(#paint92_linear)"/>
<path fill-rule="evenodd" clip-rule="evenodd" d="M194.714 439.836C194.288 439.841 193.94 439.5 193.935 439.075C193.931 438.649 194.272 438.301 194.697 438.296C195.123 438.292 195.471 438.633 195.475 439.058C195.48 439.484 195.139 439.832 194.714 439.836Z" fill="url(#paint93_linear)"/>
<path fill-rule="evenodd" clip-rule="evenodd" d="M191.654 442.179C191.228 442.184 190.88 441.842 190.875 441.417C190.871 440.992 191.212 440.644 191.637 440.639C192.062 440.635 192.411 440.976 192.415 441.401C192.42 441.826 192.079 442.175 191.654 442.179Z" fill="url(#paint94_linear)"/>
<path d="M153.386 405.989C137.413 403.126 130.084 396.66 128.417 393.785L125.485 394.259C123.63 397.263 120.534 403.436 121.776 405.989C123.328 409.18 124.853 415.218 144.217 421.385C159.707 426.318 178.659 426.042 185.271 426.085L187.584 408.706C182.84 408.993 169.36 408.853 153.386 405.989Z" fill="url(#paint95_linear)"/>
<path opacity="0.4" d="M125.457 394.345C126.578 397.163 131.969 403.738 144.561 407.498C159.594 411.988 180.369 412.937 187.09 412.412L187.584 408.706C182.84 408.993 169.359 408.853 153.386 405.989C137.412 403.126 130.084 396.66 128.416 393.785L125.484 394.259C125.471 394.281 125.457 394.302 125.444 394.324L125.457 394.345Z" fill="url(#paint96_linear)"/>
<path d="M199.324 375.256C187.292 365.37 168.266 366.799 165.564 367.92C168.77 366.281 178.7 362.866 192.776 366.799C208.861 371.294 214.424 385.084 214.209 401.169C214.036 414.038 211.607 438.329 210.414 448.865C186.135 452.45 183.101 427.455 184.196 412.496C185.36 396.591 194.026 393.263 197.002 392.458C206.307 389.941 207.13 383.062 199.324 375.256Z" fill="url(#paint97_linear)"/>
<path d="M218.694 390.863C217.659 389 213.376 385.171 211.363 383.489C212.269 386.551 212.915 389.225 211.363 390.863C209.811 392.502 203.428 394.917 198.598 397.806C193.768 400.696 194.415 412.728 194.674 419.196C194.932 425.665 198.339 427.304 201.574 427.821C204.808 428.339 216.797 428.359 218.694 425.297C221.435 420.874 219.988 393.192 218.694 390.863Z" fill="url(#paint98_linear)"/>
<path d="M187.52 469.623C182.812 470.474 178.305 467.346 177.455 462.638C176.605 457.93 179.732 453.424 184.44 452.573C195.877 450.507 204.581 446.224 213.05 437.51C216.385 434.079 221.869 434.001 225.3 437.336C228.731 440.67 228.809 446.155 225.474 449.586C214.509 460.867 202.549 466.908 187.52 469.623Z" fill="url(#paint99_linear)"/>
<circle opacity="0.3" cx="203.882" cy="453.166" r="2.5271" fill="url(#paint100_linear)"/>
<path opacity="0.3" d="M189.968 459.027C192.116 458.761 197.461 456.852 198.925 455.722" stroke="black" stroke-width="0.55659"/>
<path opacity="0.3" d="M209.776 449.754C213.279 447.55 216.57 444.581 218.544 442.8" stroke="black" stroke-width="0.55659"/>
<path opacity="0.34" d="M219.756 434.899C221.765 435.013 223.744 435.824 225.3 437.336C227.674 439.643 228.442 442.98 227.586 445.953C225.613 445.576 223.69 444.533 222.181 442.861C220.095 440.549 219.287 437.57 219.756 434.899Z" fill="url(#paint101_linear)"/>
<path fill-rule="evenodd" clip-rule="evenodd" d="M189.447 471.214C181.335 469.55 177.684 456.913 184.992 450.325C187.162 448.369 191.521 449.834 190.579 450.846C185.702 456.086 187.613 465.658 193.399 468.303L193.579 468.383C194.851 468.925 192.887 471.921 189.447 471.214Z" fill="url(#paint102_linear)"/>
<path d="M109.301 560.275C29.8197 560.275 68.614 498.519 102.736 520.001C119.209 526.979 128.487 486.578 129.967 478.223" stroke="#9BDDFB" stroke-width="8.0441" stroke-miterlimit="16"/>
<path d="M109.301 560.275C29.8197 560.275 68.614 498.519 102.736 520.001C119.209 526.979 128.487 486.578 129.967 478.223" stroke="url(#paint103_linear)" stroke-width="8.0441" stroke-dasharray="3.71 3.63"/>
<rect opacity="0.6" width="36.8741" height="49.2836" rx="10.6835" transform="matrix(-0.977536 -0.210767 -0.210767 0.977536 164.189 446.643)" fill="url(#paint104_linear)"/>
<rect width="38.8029" height="50.1598" rx="11.2728" transform="matrix(-0.977536 -0.210767 -0.210767 0.977536 162.223 442.217)" fill="#1995DA"/>
<rect x="151.538" y="464.951" width="10.9913" height="7.80029" rx="3.90015" transform="rotate(12.1673 151.538 464.951)" fill="url(#paint105_linear)"/>
<rect x="151.761" y="463.911" width="10.9913" height="7.80029" rx="3.90015" transform="rotate(12.1673 151.761 463.911)" fill="url(#paint106_linear)"/>
<circle cx="158.776" cy="469.232" r="1.59551" transform="rotate(12.1673 158.776 469.232)" fill="url(#paint107_linear)"/>
<path opacity="0.4" d="M152.096 448.63C152.743 445.632 150.836 442.678 147.838 442.032L129.154 438.003C126.156 437.357 123.202 439.263 122.556 442.261L116.166 471.898C114.832 478.082 118.764 484.175 124.948 485.509L133.346 487.319C138.839 488.504 144.252 485.011 145.437 479.518L152.096 448.63Z" fill="url(#paint108_linear)"/>
<rect opacity="0.6" x="123.211" y="461.746" width="21.2735" height="18.0825" rx="9.04125" transform="rotate(12.1673 123.211 461.746)" fill="url(#paint109_linear)"/>
<rect width="35.8104" height="18.0825" rx="9.04125" transform="matrix(-0.977536 -0.210767 -0.210767 0.977536 149.327 446.604)" fill="url(#paint110_linear)"/>
<rect width="30.8466" height="18.0825" rx="9.04125" transform="matrix(-0.977536 -0.210767 -0.210767 0.977536 144.455 445.651)" fill="url(#paint111_linear)"/>
<circle cx="119.574" cy="449.173" r="1.59551" transform="rotate(12.1673 119.574 449.173)" fill="url(#paint112_linear)"/>
<circle cx="126.852" cy="450.743" r="1.59551" transform="rotate(12.1673 126.852 450.743)" fill="url(#paint113_linear)"/>
<circle cx="134.132" cy="452.312" r="1.59551" transform="rotate(12.1673 134.132 452.312)" fill="url(#paint114_linear)"/>
<path fill-rule="evenodd" clip-rule="evenodd" d="M130.345 472.303L129.124 477.965L127.065 477.521L128.286 471.859L130.345 472.303ZM135.295 469.331L134.074 474.993L132.015 474.549L132.792 470.946L128.674 470.058L129.118 467.999L135.295 469.331Z" fill="#A7DFFF"/>
<path d="M110.378 546.501C110.378 537.821 117.415 530.784 126.095 530.784H188.525C197.206 530.784 204.242 537.821 204.242 546.501V564.358L191.968 568.329H110.378L110.378 546.501Z" fill="url(#paint115_linear)"/>
<path d="M110.378 546.501C110.378 537.821 117.415 530.784 126.095 530.784H176.251C184.931 530.784 191.968 537.821 191.968 546.501V568.329H110.378L110.378 546.501Z" fill="url(#paint116_linear)"/>
<g filter="url(#filter4_d)">
<rect x="243.232" y="218.867" width="117.691" height="6.49827" rx="3.24913" fill="url(#paint117_linear)"/>
</g>
<path d="M388.706 491.96C394.108 500.904 403.063 509.81 407.614 513.825C408.013 514.178 408.639 513.99 408.787 513.478L414.941 492.276C415.023 491.993 414.931 491.691 414.703 491.505C409.509 487.246 398.91 478.257 395.21 473.997C390.472 468.54 382.531 464.175 380.299 469.323C378.066 474.471 381.498 480.028 388.706 491.96Z" fill="url(#paint118_linear)"/>
<path opacity="0.2" d="M394.36 473.066C393.301 478.759 394.377 491.075 405.081 508.351C406.44 510.545 407.683 512.194 408.818 513.373L415.076 491.81C410.033 487.691 399.001 478.362 395.21 473.997C394.937 473.683 394.653 473.372 394.36 473.066Z" fill="#262626"/>
<path d="M385.606 467.281C384.621 470.595 381.87 472.265 379.634 472.969C379.578 471.686 379.792 470.494 380.3 469.323C381.256 467.12 383.257 466.659 385.606 467.281Z" fill="url(#paint119_linear)"/>
<path d="M475.673 543.772C474.371 545.2 471.714 545.982 468.915 546.379C465.061 546.925 462.42 543.063 463.624 539.362L466.118 531.699C466.823 529.534 468.701 527.96 470.956 527.646L472.908 527.374C476.757 526.837 480.074 530.077 479.279 533.881C478.429 537.945 477.21 542.084 475.673 543.772Z" fill="url(#paint120_linear)"/>
<path d="M409.219 517.569C405.751 514.98 401.143 505.922 410.456 490.408C419.769 474.895 413.511 502.052 409.219 517.569Z" fill="url(#paint121_linear)"/>
<path d="M397.046 559.306C399.726 550.381 405.645 540.098 408.64 535.481C408.864 535.136 409.322 535.048 409.659 535.285C418.807 541.71 435.021 554.384 431.17 556.928C426.247 560.18 407.246 575.561 402.351 574.748C397.456 573.936 393.535 570.996 397.046 559.306Z" fill="url(#paint122_linear)"/>
<path opacity="0.3" d="M405.003 541.54C406.586 538.721 408.042 536.372 409.049 534.858C418.064 541.131 435.109 554.326 431.17 556.928C430.042 557.673 428.175 559.055 425.908 560.732C423.95 562.181 421.694 563.851 419.358 565.522C409.813 557.967 406.044 547.918 405.003 541.54Z" fill="url(#paint123_linear)"/>
<path opacity="0.3" d="M395.866 568.982C395.469 566.72 395.755 563.604 397.046 559.305C399.763 550.258 405.808 539.814 408.762 535.293C408.919 535.053 409.237 534.988 409.472 535.153C411.477 536.557 413.838 538.273 416.26 540.124C407.338 548.556 399.635 561.514 395.866 568.982Z" fill="url(#paint124_linear)"/>
<path d="M437.029 573.113C428.949 565.777 425.005 554.508 423.844 548.975C423.747 548.512 424.121 548.096 424.594 548.123L456.845 549.959C457.195 549.979 457.481 550.242 457.537 550.588C458.223 554.794 460.345 561.995 462.235 565.738C465.022 571.255 469.087 578.379 464.468 581.487C459.739 584.669 447.717 582.816 437.029 573.113Z" fill="url(#paint125_linear)"/>
<path opacity="0.3" d="M460.694 562.097C450.192 567.856 436.473 564.509 428.096 560.887C425.544 555.755 424.156 550.862 423.67 548.07L457.447 549.993C457.87 553.034 459.216 558.091 460.694 562.097Z" fill="url(#paint126_linear)"/>
<path opacity="0.3" d="M452.126 581.896C439.06 570.797 433.672 556.388 432.257 548.56L423.671 548.071C424.561 553.184 428.48 565.351 437.03 573.114C442.067 577.686 447.4 580.516 452.126 581.896Z" fill="url(#paint127_linear)"/>
<path d="M466.393 575.643C466.842 578.04 466.471 580.14 464.47 581.487C463.333 582.252 461.775 582.726 459.915 582.87C460.655 580.036 462.414 576.446 466.393 575.643Z" fill="url(#paint128_linear)"/>
<path d="M406.174 535.761C403.013 523.437 409.122 507.025 412.777 499.921C412.915 499.654 413.2 499.507 413.498 499.538L474.283 505.945C474.702 505.989 475 506.369 474.931 506.785C472.994 518.416 468.26 541.924 463.78 548.746C458.056 557.462 446.776 561.485 435.067 559.391C423.359 557.296 410.207 551.49 406.174 535.761Z" fill="url(#paint129_linear)"/>
<path opacity="0.2" d="M423.354 555.869C418.397 539.35 423.951 518.292 427.529 509.468L429.526 501.228L475.055 506.026C473.204 517.361 468.359 541.772 463.779 548.746C458.055 557.462 446.774 561.486 435.066 559.391C431.192 558.698 427.161 557.599 423.354 555.869Z" fill="#262626"/>
<path opacity="0.2" d="M451.171 507.262C447.746 511.27 442.683 483.373 432.437 493.376C419.628 505.882 442.093 545.857 463.636 549.015C468.107 542.206 472.832 518.774 474.776 507.121L451.171 507.262Z" fill="#262626"/>
<path opacity="0.3" d="M422.44 515.155C420.743 512.787 418.882 506.939 418.163 504.311C428.14 504.448 447.424 505.42 444.745 508.207C442.066 510.993 435.962 516.065 433.244 518.253L422.44 515.155Z" fill="url(#paint130_linear)"/>
<path d="M411.643 502.314C408.832 497.739 411.422 493.924 413.068 492.589C432.388 492.677 472.297 493.474 477.382 495.96C483.739 499.068 481.272 507.505 475.373 509.668C469.474 511.831 458.361 513.419 443.442 513.219C428.523 513.019 415.157 508.033 411.643 502.314Z" fill="url(#paint131_linear)"/>
<path d="M448.157 513.223C447.942 507.915 447.978 502.521 448.044 499.891C444.995 497.458 438.053 493.829 434.678 498.784C432.311 502.258 432.164 507.831 432.629 512.227C427.134 511.28 422.231 509.718 418.466 507.81C417.938 501.484 419.494 496.597 420.634 494.549L425.128 492.71C445.58 493.017 473.209 493.92 477.382 495.96C483.567 498.984 481.399 507.053 475.844 509.479C475.602 503.335 474.017 498.668 473.01 496.739C467.904 495.643 457.862 494.102 458.541 496.699C459.072 498.732 460.403 506.499 461.39 512.487C457.501 512.9 453.07 513.162 448.157 513.223Z" fill="url(#paint132_linear)"/>
<path d="M463.928 504.49C454.438 510.365 451.818 514.365 453.832 518.697C454.437 521.024 459.22 527.712 462.208 529.644C467.265 532.913 480.136 535.91 485.692 522.533C491.248 509.156 475.79 497.146 463.928 504.49Z" fill="url(#paint133_linear)"/>
<path opacity="0.3" d="M449.774 558.742C445.241 560.052 440.194 560.309 435.066 559.391C424.736 557.543 413.282 552.806 407.958 540.913C410.402 539.003 414.423 536.644 418.548 536.534C425.102 536.36 438.393 539.916 440.914 542.083C441.718 542.775 442.084 543.96 442.6 545.631C443.498 548.543 444.852 552.93 449.774 558.742Z" fill="url(#paint134_linear)"/>
<path d="M405.309 574.157C404.081 574.64 403.066 574.866 402.352 574.748C398.829 574.164 395.811 572.477 395.704 567.221C398.874 567.885 402.942 569.797 405.309 574.157Z" fill="url(#paint135_linear)"/>
<path d="M409.025 459.339C405.8 471.96 409.665 482.012 412.064 485.575C412.111 485.645 412.168 485.702 412.237 485.752C417.46 489.504 423.868 494.89 440.651 500.036C457.403 505.172 469.293 503.137 474.778 502.302C474.871 502.288 474.957 502.256 475.038 502.208C491.043 492.642 494.743 466.464 487.087 452.351C479.411 438.201 464.722 427.865 446.482 428.716C428.241 429.568 413.094 443.408 409.025 459.339Z" fill="url(#paint136_linear)"/>
<path d="M420.279 497.773C415.6 495.813 412.015 491.901 410.274 487.135C407.195 478.704 406.496 469.238 409.025 459.338C410.92 451.923 415.214 444.96 421.104 439.55C424.019 442.142 427.53 444.129 431.428 444.312C435.187 444.489 438.692 444.255 442.137 444.026C448.966 443.571 455.559 443.132 463.42 445.934C475.247 450.15 476.979 466.728 471.002 481.881C467.311 491.238 460.023 498.703 454.678 502.982C444.228 503.232 430.777 502.17 420.279 497.773Z" fill="url(#paint137_linear)"/>
<path fill-rule="evenodd" clip-rule="evenodd" d="M422.124 447.91C421.342 447.205 420.163 447.34 419.49 448.21C416.575 451.987 414.38 456.459 412.907 461.608C412.599 462.687 413.147 463.806 414.13 464.108C415.115 464.411 416.162 463.783 416.471 462.704C417.797 458.072 419.748 454.097 422.323 450.761C422.995 449.891 422.907 448.613 422.124 447.91Z" fill="url(#paint138_linear)"/>
<path fill-rule="evenodd" clip-rule="evenodd" d="M413.107 471.751C412.079 471.733 411.262 470.808 411.282 469.686C411.302 468.563 412.152 467.669 413.18 467.687C414.208 467.706 415.025 468.63 415.005 469.753C414.985 470.875 414.135 471.77 413.107 471.751Z" fill="url(#paint139_linear)"/>
<path d="M432.215 432.178C434.263 434.153 437.744 436.348 442.931 437.176C446.946 437.817 450.519 436.742 454.29 435.607C458.658 434.293 463.291 432.899 469.188 433.996C462.61 430.326 454.926 428.322 446.481 428.716C441.433 428.952 436.621 430.183 432.215 432.178Z" fill="url(#paint140_linear)"/>
<path d="M454.736 429.105C447.788 430.238 442.094 433.62 438.915 436.174C435.881 435.117 433.681 433.591 432.215 432.177C436.621 430.183 441.433 428.952 446.482 428.716C449.324 428.583 452.079 428.722 454.736 429.105Z" fill="url(#paint141_linear)"/>
<path d="M474.74 483.689C476.12 481.089 477.425 478.064 478.45 475.459C479.373 473.111 481.989 471.852 484.36 472.713L492.619 475.712C493.207 475.925 493.606 476.48 493.575 477.105C493.253 483.712 489.516 491.581 488.261 494.109L482.848 495.238L476.049 490.313C474.001 488.829 473.554 485.922 474.74 483.689Z" fill="url(#paint142_linear)"/>
<path d="M493.54 476.981C493.561 477.106 493.569 477.235 493.561 477.366C493.192 483.317 490.144 490.21 488.659 493.296C488.476 493.675 488.171 493.973 487.799 494.151L480.167 487.996C479.403 487.38 479.177 486.311 479.588 485.42C480.756 482.887 482.433 478.813 483.554 475.672C483.893 474.724 484.848 474.138 485.822 474.395C487.963 474.96 490.965 475.997 493.54 476.981Z" fill="url(#paint143_linear)"/>
<path fill-rule="evenodd" clip-rule="evenodd" d="M403.572 437.797C404.122 437.513 404.798 437.728 405.083 438.278L435.576 497.273C435.86 497.823 435.645 498.5 435.095 498.784C434.545 499.068 433.868 498.853 433.584 498.303L403.09 439.308C402.806 438.758 403.022 438.081 403.572 437.797Z" fill="url(#paint144_linear)"/>
<path d="M395.417 457.789C395.613 446.695 401.155 441.734 403.901 440.64L412.27 456.991C409.047 459.656 406.758 465.161 404.511 474.247C402.714 481.515 395.932 485.891 392.767 487.17C395.332 480.965 395.171 471.657 395.417 457.789Z" fill="url(#paint145_linear)"/>
<path d="M457.34 525.801C446.312 521.556 434.157 510.136 430.563 505.712C426.969 501.288 424.527 491.763 427.753 488.061C430.465 484.948 436.072 483.787 440.548 487.18C445.024 490.573 458.001 501.563 465.859 506.91C473.717 512.256 476.83 514.968 476.42 519.662C476.01 524.355 471.126 531.107 457.34 525.801Z" fill="url(#paint146_linear)"/>
<path opacity="0.2" d="M426.967 489.301C429.894 495.919 436.689 506.705 448.246 514.09C457.659 520.105 466.645 523.839 472.876 525.87C469.959 527.968 465.037 528.764 457.341 525.801C446.312 521.556 434.158 510.136 430.564 505.712C427.32 501.72 425.015 493.573 426.967 489.301Z" fill="#262626"/>
<path d="M426.295 494.383C426.1 491.823 426.498 489.501 427.753 488.061C429.41 486.159 432.148 484.985 435.048 485.134C434.103 488.448 431.595 492.734 426.295 494.383Z" fill="url(#paint147_linear)"/>
<ellipse cx="448.45" cy="514.276" rx="1.87219" ry="2.9019" transform="rotate(122.942 448.45 514.276)" fill="url(#paint148_linear)"/>
<path fill-rule="evenodd" clip-rule="evenodd" d="M361.75 426.011C362.317 425.764 362.978 426.023 363.226 426.59L389.787 487.457C390.034 488.025 389.775 488.686 389.207 488.933C388.64 489.181 387.979 488.922 387.731 488.354L361.171 427.487C360.923 426.92 361.182 426.259 361.75 426.011Z" fill="url(#paint149_linear)"/>
<path d="M352.301 445.426C353.224 434.368 359.079 429.781 361.892 428.869L371.585 451.354C368.194 453.803 363.135 453.525 360.297 462.444C358.027 469.578 350.974 473.5 347.731 474.569C350.698 468.545 351.147 459.248 352.301 445.426Z" fill="url(#paint150_linear)"/>
<circle opacity="0.34" cx="192.536" cy="472.989" r="1.74234" fill="url(#paint151_linear)"/>
</g>
<defs>
<filter id="filter0_d" x="240.564" y="236.651" width="127.279" height="127.279" filterUnits="userSpaceOnUse" color-interpolation-filters="sRGB">
<feFlood flood-opacity="0" result="BackgroundImageFix"/>
<feColorMatrix in="SourceAlpha" type="matrix" values="0 0 0 0 0 0 0 0 0 0 0 0 0 0 0 0 0 0 127 0"/>
<feOffset dy="4.37469"/>
<feGaussianBlur stdDeviation="9.29621"/>
<feColorMatrix type="matrix" values="0 0 0 0 0 0 0 0 0 0 0 0 0 0 0 0 0 0 0.25 0"/>
<feBlend mode="normal" in2="BackgroundImageFix" result="effect1_dropShadow"/>
<feBlend mode="normal" in="SourceGraphic" in2="effect1_dropShadow" result="shape"/>
</filter>
<filter id="filter1_d" x="258.964" y="252.861" width="90.4845" height="90.4845" filterUnits="userSpaceOnUse" color-interpolation-filters="sRGB">
<feFlood flood-opacity="0" result="BackgroundImageFix"/>
<feColorMatrix in="SourceAlpha" type="matrix" values="0 0 0 0 0 0 0 0 0 0 0 0 0 0 0 0 0 0 127 0"/>
<feOffset dy="2.18734"/>
<feGaussianBlur stdDeviation="5.46836"/>
<feColorMatrix type="matrix" values="0 0 0 0 0 0 0 0 0 0 0 0 0 0 0 0 0 0 0.25 0"/>
<feBlend mode="normal" in2="BackgroundImageFix" result="effect1_dropShadow"/>
<feBlend mode="normal" in="SourceGraphic" in2="effect1_dropShadow" result="shape"/>
</filter>
<filter id="filter2_i" x="233.27" y="364.287" width="49.8509" height="59.1075" filterUnits="userSpaceOnUse" color-interpolation-filters="sRGB">
<feFlood flood-opacity="0" result="BackgroundImageFix"/>
<feBlend mode="normal" in="SourceGraphic" in2="BackgroundImageFix" result="shape"/>
<feColorMatrix in="SourceAlpha" type="matrix" values="0 0 0 0 0 0 0 0 0 0 0 0 0 0 0 0 0 0 127 0" result="hardAlpha"/>
<feOffset dx="9.52916" dy="3.21764"/>
<feGaussianBlur stdDeviation="5.46836"/>
<feComposite in2="hardAlpha" operator="arithmetic" k2="-1" k3="1"/>
<feColorMatrix type="matrix" values="0 0 0 0 0 0 0 0 0 0 0 0 0 0 0 0 0 0 0.25 0"/>
<feBlend mode="normal" in2="shape" result="effect1_innerShadow"/>
</filter>
<filter id="filter3_f" x="212.786" y="355.216" width="84.6009" height="93.7021" filterUnits="userSpaceOnUse" color-interpolation-filters="sRGB">
<feFlood flood-opacity="0" result="BackgroundImageFix"/>
<feBlend mode="normal" in="SourceGraphic" in2="BackgroundImageFix" result="shape"/>
<feGaussianBlur stdDeviation="6.62091" result="effect1_foregroundBlur"/>
</filter>
<filter id="filter4_d" x="224.64" y="204.649" width="154.876" height="43.6831" filterUnits="userSpaceOnUse" color-interpolation-filters="sRGB">
<feFlood flood-opacity="0" result="BackgroundImageFix"/>
<feColorMatrix in="SourceAlpha" type="matrix" values="0 0 0 0 0 0 0 0 0 0 0 0 0 0 0 0 0 0 127 0"/>
<feOffset dy="4.37469"/>
<feGaussianBlur stdDeviation="9.29621"/>
<feColorMatrix type="matrix" values="0 0 0 0 0 0 0 0 0 0 0 0 0 0 0 0 0 0 0.25 0"/>
<feBlend mode="normal" in2="BackgroundImageFix" result="effect1_dropShadow"/>
<feBlend mode="normal" in="SourceGraphic" in2="effect1_dropShadow" result="shape"/>
</filter>
<radialGradient id="paint0_radial" cx="0" cy="0" r="1" gradientUnits="userSpaceOnUse" gradientTransform="translate(284.113 549.73) rotate(90) scale(128.77 279.39)">
<stop stop-color="#86F6F4"/>
<stop offset="1" stop-color="white" stop-opacity="0"/>
</radialGradient>
<linearGradient id="paint1_linear" x1="427.457" y1="554.889" x2="485.171" y2="564.041" gradientUnits="userSpaceOnUse">
<stop stop-color="#011016" stop-opacity="0.5"/>
<stop offset="1" stop-color="#011016" stop-opacity="0.12"/>
</linearGradient>
<linearGradient id="paint2_linear" x1="303.557" y1="551.838" x2="362.29" y2="559.014" gradientUnits="userSpaceOnUse">
<stop stop-color="#011016" stop-opacity="0.5"/>
<stop offset="1" stop-color="#011016" stop-opacity="0.12"/>
</linearGradient>
<linearGradient id="paint3_linear" x1="37.5492" y1="616.584" x2="38.8315" y2="658.31" gradientUnits="userSpaceOnUse">
<stop stop-color="#02151D"/>
<stop offset="1" stop-color="#023E42"/>
</linearGradient>
<linearGradient id="paint4_linear" x1="224.228" y1="565.192" x2="224.876" y2="583.313" gradientUnits="userSpaceOnUse">
<stop stop-color="#02151D"/>
<stop offset="1" stop-color="#023E42"/>
</linearGradient>
<linearGradient id="paint5_linear" x1="375.172" y1="587.99" x2="376.14" y2="614.78" gradientUnits="userSpaceOnUse">
<stop stop-color="#02151D"/>
<stop offset="1" stop-color="#023E42"/>
</linearGradient>
<linearGradient id="paint6_linear" x1="416.707" y1="636.13" x2="417.385" y2="658.98" gradientUnits="userSpaceOnUse">
<stop stop-color="#02151D"/>
<stop offset="1" stop-color="#023E42"/>
</linearGradient>
<linearGradient id="paint7_linear" x1="494.069" y1="562.795" x2="405.626" y2="486.377" gradientUnits="userSpaceOnUse">
<stop stop-color="#00A5FF" stop-opacity="0"/>
<stop offset="1" stop-color="#6CCAFF"/>
</linearGradient>
<linearGradient id="paint8_linear" x1="404.462" y1="506.16" x2="490.19" y2="549.994" gradientUnits="userSpaceOnUse">
<stop stop-color="#121E2F" stop-opacity="0"/>
<stop offset="1" stop-color="#162D3E"/>
</linearGradient>
<linearGradient id="paint9_linear" x1="333.491" y1="384.295" x2="164.836" y2="386.495" gradientUnits="userSpaceOnUse">
<stop stop-color="#00A5FF" stop-opacity="0"/>
<stop offset="0.416977" stop-color="#2DB4FF" stop-opacity="0.13"/>
<stop offset="1" stop-color="#6CCAFF"/>
</linearGradient>
<linearGradient id="paint10_linear" x1="308.077" y1="532.608" x2="122.972" y2="524.78" gradientUnits="userSpaceOnUse">
<stop stop-color="#121E2F" stop-opacity="0"/>
<stop offset="1" stop-color="#162D3E"/>
</linearGradient>
<linearGradient id="paint11_linear" x1="135.708" y1="205.727" x2="199.758" y2="199.268" gradientUnits="userSpaceOnUse">
<stop stop-color="#77CEFF"/>
<stop offset="0.653213" stop-color="#20B0FF"/>
<stop offset="1" stop-color="#1070A5"/>
</linearGradient>
<linearGradient id="paint12_linear" x1="224.94" y1="150.537" x2="275.455" y2="176.818" gradientUnits="userSpaceOnUse">
<stop stop-color="#5DF1D7"/>
<stop offset="1" stop-color="#128698"/>
</linearGradient>
<linearGradient id="paint13_linear" x1="222.394" y1="122.075" x2="209.706" y2="137.097" gradientUnits="userSpaceOnUse">
<stop stop-color="#165B7A"/>
<stop offset="1" stop-color="#001431"/>
</linearGradient>
<linearGradient id="paint14_linear" x1="235.557" y1="137.821" x2="239.607" y2="159.682" gradientUnits="userSpaceOnUse">
<stop stop-color="#042635"/>
<stop offset="1" stop-color="#06565B"/>
</linearGradient>
<linearGradient id="paint15_linear" x1="301.594" y1="118.61" x2="301.412" y2="231.453" gradientUnits="userSpaceOnUse">
<stop stop-color="#5DF1D7"/>
<stop offset="1" stop-color="#128698"/>
</linearGradient>
<linearGradient id="paint16_linear" x1="273.972" y1="135.071" x2="264.212" y2="261.904" gradientUnits="userSpaceOnUse">
<stop stop-color="#5DF1D7"/>
<stop offset="1" stop-color="#128698"/>
</linearGradient>
<linearGradient id="paint17_linear" x1="272.207" y1="235.383" x2="273.28" y2="241.724" gradientUnits="userSpaceOnUse">
<stop stop-color="#042635"/>
<stop offset="1" stop-color="#06565B"/>
</linearGradient>
<linearGradient id="paint18_linear" x1="185.147" y1="157.749" x2="203.881" y2="192.693" gradientUnits="userSpaceOnUse">
<stop stop-color="#042635"/>
<stop offset="1" stop-color="#06565B"/>
</linearGradient>
<linearGradient id="paint19_linear" x1="194.318" y1="159.335" x2="153.396" y2="169.638" gradientUnits="userSpaceOnUse">
<stop stop-color="#2D8B67"/>
<stop offset="1" stop-color="#123635"/>
</linearGradient>
<linearGradient id="paint20_linear" x1="173.579" y1="177.064" x2="185.065" y2="207.653" gradientUnits="userSpaceOnUse">
<stop stop-color="#042635"/>
<stop offset="1" stop-color="#06565B"/>
</linearGradient>
<linearGradient id="paint21_linear" x1="112.342" y1="132.986" x2="196.317" y2="199.953" gradientUnits="userSpaceOnUse">
<stop stop-color="#5DF1D7"/>
<stop offset="1" stop-color="#128698"/>
</linearGradient>
<linearGradient id="paint22_linear" x1="186.362" y1="120.305" x2="210.921" y2="181.349" gradientUnits="userSpaceOnUse">
<stop stop-color="#042635"/>
<stop offset="1" stop-color="#06565B"/>
</linearGradient>
<linearGradient id="paint23_linear" x1="239.649" y1="120.525" x2="233.185" y2="94.8148" gradientUnits="userSpaceOnUse">
<stop stop-color="#CEFFDD" stop-opacity="0.37"/>
<stop offset="1" stop-color="#B2FFF9" stop-opacity="0.79"/>
</linearGradient>
<linearGradient id="paint24_linear" x1="239.649" y1="120.525" x2="233.185" y2="94.8148" gradientUnits="userSpaceOnUse">
<stop stop-color="#CEFFDD" stop-opacity="0.37"/>
<stop offset="1" stop-color="#B2FFF9" stop-opacity="0.79"/>
</linearGradient>
<linearGradient id="paint25_linear" x1="317.922" y1="141.453" x2="235.587" y2="166.953" gradientUnits="userSpaceOnUse">
<stop stop-color="#5CDEAC"/>
<stop offset="1" stop-color="#196967"/>
</linearGradient>
<linearGradient id="paint26_linear" x1="2.40811" y1="5.32935" x2="87.9439" y2="33.8756" gradientUnits="userSpaceOnUse">
<stop stop-color="#BBFFEA"/>
<stop offset="1" stop-color="#108698"/>
</linearGradient>
<linearGradient id="paint27_linear" x1="18.7229" y1="-0.731898" x2="15.013" y2="54.7139" gradientUnits="userSpaceOnUse">
<stop stop-color="#042635"/>
<stop offset="1" stop-color="#23B8C1"/>
</linearGradient>
<linearGradient id="paint28_linear" x1="303.612" y1="106.413" x2="295.02" y2="129.871" gradientUnits="userSpaceOnUse">
<stop stop-color="#5DF1D7"/>
<stop offset="1" stop-color="#128698"/>
</linearGradient>
<linearGradient id="paint29_linear" x1="290.721" y1="118.093" x2="291.71" y2="126.444" gradientUnits="userSpaceOnUse">
<stop stop-color="#042635"/>
<stop offset="1" stop-color="#06565B"/>
</linearGradient>
<linearGradient id="paint30_linear" x1="149.664" y1="123.889" x2="157.787" y2="146.55" gradientUnits="userSpaceOnUse">
<stop stop-color="#042635"/>
<stop offset="1" stop-color="#06565B"/>
</linearGradient>
<linearGradient id="paint31_linear" x1="153.203" y1="114.15" x2="165.818" y2="138.031" gradientUnits="userSpaceOnUse">
<stop stop-color="#2D8B67"/>
<stop offset="1" stop-color="#123635"/>
</linearGradient>
<linearGradient id="paint32_linear" x1="189.054" y1="75.0327" x2="205.034" y2="81.7366" gradientUnits="userSpaceOnUse">
<stop stop-color="#042635"/>
<stop offset="1" stop-color="#06565B"/>
</linearGradient>
<linearGradient id="paint33_linear" x1="195.148" y1="68.4717" x2="212.42" y2="78.9304" gradientUnits="userSpaceOnUse">
<stop stop-color="#042635"/>
<stop offset="1" stop-color="#06565B"/>
</linearGradient>
<linearGradient id="paint34_linear" x1="174.98" y1="198.787" x2="242.692" y2="199.402" gradientUnits="userSpaceOnUse">
<stop stop-color="#5DF1D7"/>
<stop offset="1" stop-color="#128698"/>
</linearGradient>
<linearGradient id="paint35_linear" x1="155.917" y1="160.683" x2="164.663" y2="210.14" gradientUnits="userSpaceOnUse">
<stop stop-color="#165B7A"/>
<stop offset="1" stop-color="#001431"/>
</linearGradient>
<linearGradient id="paint36_linear" x1="235.515" y1="160.165" x2="242.602" y2="164.834" gradientUnits="userSpaceOnUse">
<stop stop-color="#042635"/>
<stop offset="1" stop-color="#06565B"/>
</linearGradient>
<linearGradient id="paint37_linear" x1="209.306" y1="177.365" x2="207.66" y2="182.179" gradientUnits="userSpaceOnUse">
<stop stop-color="#042635"/>
<stop offset="1" stop-color="#06565B"/>
</linearGradient>
<linearGradient id="paint38_linear" x1="194.117" y1="255.219" x2="214.742" y2="227.71" gradientUnits="userSpaceOnUse">
<stop stop-color="#066A81" stop-opacity="0.249126"/>
<stop offset="1" stop-color="#12E2EF"/>
</linearGradient>
<linearGradient id="paint39_linear" x1="194.901" y1="236.421" x2="205.019" y2="222.944" gradientUnits="userSpaceOnUse">
<stop stop-color="white" stop-opacity="0"/>
<stop offset="1" stop-color="white"/>
</linearGradient>
<linearGradient id="paint40_linear" x1="216.458" y1="247.269" x2="225.265" y2="229.494" gradientUnits="userSpaceOnUse">
<stop stop-color="#066A81" stop-opacity="0.249126"/>
<stop offset="1" stop-color="#12E2EF"/>
</linearGradient>
<linearGradient id="paint41_linear" x1="214.925" y1="236.523" x2="219.248" y2="227.813" gradientUnits="userSpaceOnUse">
<stop stop-color="white" stop-opacity="0"/>
<stop offset="1" stop-color="white"/>
</linearGradient>
<linearGradient id="paint42_linear" x1="325.309" y1="524.037" x2="279.568" y2="521.561" gradientUnits="userSpaceOnUse">
<stop stop-color="#5DF1D7"/>
<stop offset="1" stop-color="#0C7E8F"/>
</linearGradient>
<linearGradient id="paint43_linear" x1="216.444" y1="420.38" x2="425.011" y2="450.072" gradientUnits="userSpaceOnUse">
<stop stop-color="#5DF1D7"/>
<stop offset="1" stop-color="#0C7E8F"/>
</linearGradient>
<linearGradient id="paint44_linear" x1="336.996" y1="401.245" x2="190.844" y2="435.325" gradientUnits="userSpaceOnUse">
<stop stop-color="#CEFFDD"/>
<stop offset="1" stop-color="#B2FFF9"/>
</linearGradient>
<linearGradient id="paint45_linear" x1="389.142" y1="385.175" x2="388.27" y2="517.05" gradientUnits="userSpaceOnUse">
<stop stop-color="#103A30" stop-opacity="0.7"/>
<stop offset="1" stop-color="#0A1520" stop-opacity="0"/>
</linearGradient>
<linearGradient id="paint46_linear" x1="389.14" y1="385.174" x2="388.268" y2="517.048" gradientUnits="userSpaceOnUse">
<stop stop-color="#103A30" stop-opacity="0.7"/>
<stop offset="1" stop-color="#0A1520" stop-opacity="0"/>
</linearGradient>
<linearGradient id="paint47_linear" x1="244.285" y1="122.784" x2="349.293" y2="112.779" gradientUnits="userSpaceOnUse">
<stop stop-color="#5DF1D7"/>
<stop offset="1" stop-color="#128698"/>
</linearGradient>
<linearGradient id="paint48_linear" x1="232.485" y1="133.323" x2="359.833" y2="118.542" gradientUnits="userSpaceOnUse">
<stop stop-color="#5DF1D7"/>
<stop offset="1" stop-color="#128698"/>
</linearGradient>
<linearGradient id="paint49_linear" x1="247.987" y1="508.462" x2="443.338" y2="510.114" gradientUnits="userSpaceOnUse">
<stop stop-color="#165B7A"/>
<stop offset="1" stop-color="#3E516B"/>
</linearGradient>
<linearGradient id="paint50_linear" x1="186.607" y1="259.452" x2="292.506" y2="476.75" gradientUnits="userSpaceOnUse">
<stop stop-color="#CEFFDD"/>
<stop offset="1" stop-color="#B2FFF9"/>
</linearGradient>
<linearGradient id="paint51_linear" x1="202.821" y1="285.371" x2="235.931" y2="382.078" gradientUnits="userSpaceOnUse">
<stop stop-color="#CEFFDD"/>
<stop offset="1" stop-color="#B2FFF9"/>
</linearGradient>
<linearGradient id="paint52_linear" x1="279.392" y1="343.966" x2="366.492" y2="345.163" gradientUnits="userSpaceOnUse">
<stop stop-color="#145C7B"/>
<stop offset="1" stop-color="#3E516B"/>
</linearGradient>
<linearGradient id="paint53_linear" x1="304.023" y1="275.346" x2="306.578" y2="292.617" gradientUnits="userSpaceOnUse">
<stop stop-color="#CEFFDD"/>
<stop offset="1" stop-color="#B2FFF9"/>
</linearGradient>
<linearGradient id="paint54_linear" x1="371.543" y1="76.4101" x2="354.975" y2="449.678" gradientUnits="userSpaceOnUse">
<stop stop-color="#103A30" stop-opacity="0.7"/>
<stop offset="1" stop-color="#0A1520" stop-opacity="0"/>
</linearGradient>
<linearGradient id="paint55_linear" x1="395.197" y1="76.4101" x2="378.629" y2="449.678" gradientUnits="userSpaceOnUse">
<stop stop-color="#103A30" stop-opacity="0.7"/>
<stop offset="1" stop-color="#0A1520" stop-opacity="0"/>
</linearGradient>
<linearGradient id="paint56_linear" x1="332.456" y1="86.5671" x2="48.5151" y2="341.731" gradientUnits="userSpaceOnUse">
<stop stop-color="#CEFFDD"/>
<stop offset="1" stop-color="#B2FFF9"/>
</linearGradient>
<linearGradient id="paint57_linear" x1="291.127" y1="365.649" x2="290.275" y2="411.903" gradientUnits="userSpaceOnUse">
<stop stop-color="#A9FEFF"/>
<stop offset="1" stop-color="#9EFFFE"/>
</linearGradient>
<linearGradient id="paint58_linear" x1="291.127" y1="365.649" x2="290.275" y2="411.903" gradientUnits="userSpaceOnUse">
<stop stop-color="#A9FEFF"/>
<stop offset="1" stop-color="#9EFFFE"/>
</linearGradient>
<linearGradient id="paint59_linear" x1="257.745" y1="507.368" x2="346.516" y2="499.969" gradientUnits="userSpaceOnUse">
<stop stop-color="#B8FFF2"/>
<stop offset="1" stop-color="#53D9EE"/>
</linearGradient>
<linearGradient id="paint60_linear" x1="257.745" y1="507.369" x2="346.516" y2="499.97" gradientUnits="userSpaceOnUse">
<stop stop-color="#B8FFF2"/>
<stop offset="1" stop-color="#007688"/>
</linearGradient>
<linearGradient id="paint61_linear" x1="259.189" y1="506.852" x2="336.332" y2="543.906" gradientUnits="userSpaceOnUse">
<stop stop-color="#165B7A"/>
<stop offset="1" stop-color="#001431"/>
</linearGradient>
<linearGradient id="paint62_linear" x1="283.441" y1="506.852" x2="324.432" y2="515.754" gradientUnits="userSpaceOnUse">
<stop stop-color="#165B7A"/>
<stop offset="1" stop-color="#001431"/>
</linearGradient>
<linearGradient id="paint63_linear" x1="229.551" y1="479.646" x2="271.339" y2="549.607" gradientUnits="userSpaceOnUse">
<stop stop-color="#165B7A"/>
<stop offset="1" stop-color="#001431"/>
</linearGradient>
<linearGradient id="paint64_linear" x1="243.954" y1="468.538" x2="353.388" y2="478.788" gradientUnits="userSpaceOnUse">
<stop stop-color="#77CEFF"/>
<stop offset="1" stop-color="#107CB8"/>
</linearGradient>
<linearGradient id="paint65_linear" x1="308.883" y1="476.164" x2="374.469" y2="478.886" gradientUnits="userSpaceOnUse">
<stop stop-color="#07364A"/>
<stop offset="1" stop-color="#3E516B"/>
</linearGradient>
<linearGradient id="paint66_linear" x1="238.76" y1="431.373" x2="289.953" y2="431.881" gradientUnits="userSpaceOnUse">
<stop stop-color="#145C7B"/>
<stop offset="1" stop-color="#3E516B"/>
</linearGradient>
<linearGradient id="paint67_linear" x1="238.847" y1="431.373" x2="290.039" y2="431.881" gradientUnits="userSpaceOnUse">
<stop stop-color="#145C7B"/>
<stop offset="1" stop-color="#3E516B"/>
</linearGradient>
<linearGradient id="paint68_linear" x1="259.489" y1="326.337" x2="294.082" y2="396.523" gradientUnits="userSpaceOnUse">
<stop stop-color="#3DDABE"/>
<stop offset="1" stop-color="#096675"/>
</linearGradient>
<linearGradient id="paint69_linear" x1="248.901" y1="419.059" x2="235.849" y2="384.921" gradientUnits="userSpaceOnUse">
<stop stop-color="white"/>
<stop offset="1" stop-color="#5CC2FB"/>
</linearGradient>
<linearGradient id="paint70_linear" x1="256.602" y1="424.405" x2="245.16" y2="392.471" gradientUnits="userSpaceOnUse">
<stop stop-color="white"/>
<stop offset="1" stop-color="#5CC2FB"/>
</linearGradient>
<linearGradient id="paint71_linear" x1="285.541" y1="408.261" x2="227.419" y2="382.218" gradientUnits="userSpaceOnUse">
<stop stop-color="#FEFFFE"/>
<stop offset="1" stop-color="#D3FFFC"/>
</linearGradient>
<linearGradient id="paint72_linear" x1="268.733" y1="391.317" x2="228.632" y2="406.31" gradientUnits="userSpaceOnUse">
<stop stop-color="#FEFFFE"/>
<stop offset="1" stop-color="#D3FFFC"/>
</linearGradient>
<linearGradient id="paint73_linear" x1="263.118" y1="402.989" x2="236.368" y2="397.48" gradientUnits="userSpaceOnUse">
<stop stop-color="#FEFFFE"/>
<stop offset="1" stop-color="#D3FFFC"/>
</linearGradient>
<linearGradient id="paint74_linear" x1="276.567" y1="412.07" x2="207.265" y2="527.299" gradientUnits="userSpaceOnUse">
<stop stop-color="#82D3FF"/>
<stop offset="0.320398" stop-color="#326EE2"/>
<stop offset="1" stop-color="#178BCB"/>
</linearGradient>
<linearGradient id="paint75_linear" x1="170.87" y1="376.625" x2="165.809" y2="405.136" gradientUnits="userSpaceOnUse">
<stop stop-color="#042635"/>
<stop offset="1" stop-color="#06565B"/>
</linearGradient>
<linearGradient id="paint76_linear" x1="134.328" y1="498.942" x2="130.206" y2="522.96" gradientUnits="userSpaceOnUse">
<stop stop-color="#042635"/>
<stop offset="1" stop-color="#06565B"/>
</linearGradient>
<linearGradient id="paint77_linear" x1="134.328" y1="494.687" x2="130.206" y2="518.705" gradientUnits="userSpaceOnUse">
<stop stop-color="#042635"/>
<stop offset="1" stop-color="#06565B"/>
</linearGradient>
<linearGradient id="paint78_linear" x1="159.858" y1="500.36" x2="155.736" y2="524.378" gradientUnits="userSpaceOnUse">
<stop stop-color="#042635"/>
<stop offset="1" stop-color="#06565B"/>
</linearGradient>
<linearGradient id="paint79_linear" x1="159.503" y1="496.46" x2="155.381" y2="520.478" gradientUnits="userSpaceOnUse">
<stop stop-color="#042635"/>
<stop offset="1" stop-color="#06565B"/>
</linearGradient>
<linearGradient id="paint80_linear" x1="191.969" y1="461.469" x2="141.992" y2="498.655" gradientUnits="userSpaceOnUse">
<stop stop-color="#042B3D" stop-opacity="0.44"/>
<stop offset="1" stop-color="#044448" stop-opacity="0.5"/>
</linearGradient>
<linearGradient id="paint81_linear" x1="179.585" y1="449.869" x2="176.879" y2="469.447" gradientUnits="userSpaceOnUse">
<stop stop-color="#042635"/>
<stop offset="1" stop-color="#06565B"/>
</linearGradient>
<linearGradient id="paint82_linear" x1="195.203" y1="440.319" x2="190.586" y2="465.969" gradientUnits="userSpaceOnUse">
<stop stop-color="#5DF1D7"/>
<stop offset="1" stop-color="#021F24"/>
</linearGradient>
<linearGradient id="paint83_linear" x1="184.025" y1="441.483" x2="179.686" y2="466.895" gradientUnits="userSpaceOnUse">
<stop stop-color="#5DF1D7"/>
<stop offset="1" stop-color="#021F24"/>
</linearGradient>
<linearGradient id="paint84_linear" x1="169.773" y1="436.615" x2="167.213" y2="468.79" gradientUnits="userSpaceOnUse">
<stop stop-color="#5DF1D7"/>
<stop offset="1" stop-color="#021F24"/>
</linearGradient>
<linearGradient id="paint85_linear" x1="159.183" y1="431.797" x2="156.165" y2="466.838" gradientUnits="userSpaceOnUse">
<stop stop-color="#5DF1D7"/>
<stop offset="1" stop-color="#021F24"/>
</linearGradient>
<linearGradient id="paint86_linear" x1="148.364" y1="430.555" x2="145.259" y2="461.538" gradientUnits="userSpaceOnUse">
<stop stop-color="#5DF1D7"/>
<stop offset="1" stop-color="#021F24"/>
</linearGradient>
<linearGradient id="paint87_linear" x1="141.354" y1="425.4" x2="136.42" y2="454.772" gradientUnits="userSpaceOnUse">
<stop stop-color="#5DF1D7"/>
<stop offset="1" stop-color="#021F24"/>
</linearGradient>
<linearGradient id="paint88_linear" x1="140.092" y1="410.614" x2="127.226" y2="484.187" gradientUnits="userSpaceOnUse">
<stop stop-color="#042635"/>
<stop offset="1" stop-color="#06565B"/>
</linearGradient>
<linearGradient id="paint89_linear" x1="134.415" y1="443.743" x2="121.549" y2="517.316" gradientUnits="userSpaceOnUse">
<stop stop-color="#042635"/>
<stop offset="1" stop-color="#06565B"/>
</linearGradient>
<linearGradient id="paint90_linear" x1="1.96949" y1="3.76155" x2="-1.46784" y2="13.9485" gradientUnits="userSpaceOnUse">
<stop stop-color="#042635"/>
<stop offset="1" stop-color="#06565B"/>
</linearGradient>
<linearGradient id="paint91_linear" x1="200.389" y1="410.19" x2="206.239" y2="418.999" gradientUnits="userSpaceOnUse">
<stop stop-color="#042635"/>
<stop offset="1" stop-color="#06565B"/>
</linearGradient>
<linearGradient id="paint92_linear" x1="198.188" y1="435.696" x2="198.603" y2="437.138" gradientUnits="userSpaceOnUse">
<stop stop-color="#042635"/>
<stop offset="1" stop-color="#06565B"/>
</linearGradient>
<linearGradient id="paint93_linear" x1="195.143" y1="438.808" x2="195.557" y2="440.25" gradientUnits="userSpaceOnUse">
<stop stop-color="#042635"/>
<stop offset="1" stop-color="#06565B"/>
</linearGradient>
<linearGradient id="paint94_linear" x1="192.083" y1="441.15" x2="192.497" y2="442.592" gradientUnits="userSpaceOnUse">
<stop stop-color="#042635"/>
<stop offset="1" stop-color="#06565B"/>
</linearGradient>
<linearGradient id="paint95_linear" x1="190.79" y1="411.72" x2="133.767" y2="414.435" gradientUnits="userSpaceOnUse">
<stop stop-color="#056FA9"/>
<stop offset="1" stop-color="#025684"/>
</linearGradient>
<linearGradient id="paint96_linear" x1="138.104" y1="396.399" x2="135.965" y2="420.747" gradientUnits="userSpaceOnUse">
<stop stop-color="#042635"/>
<stop offset="1" stop-color="#06565B"/>
</linearGradient>
<linearGradient id="paint97_linear" x1="214.453" y1="409.78" x2="188.463" y2="409.004" gradientUnits="userSpaceOnUse">
<stop stop-color="#BEFFF3"/>
<stop offset="0.590888" stop-color="#20B0FF"/>
<stop offset="1" stop-color="#1E9BE0"/>
</linearGradient>
<linearGradient id="paint98_linear" x1="202.816" y1="414.048" x2="221.435" y2="412.884" gradientUnits="userSpaceOnUse">
<stop stop-color="#042635"/>
<stop offset="1" stop-color="#8CF6FD"/>
</linearGradient>
<linearGradient id="paint99_linear" x1="220.272" y1="440.037" x2="183.809" y2="462.148" gradientUnits="userSpaceOnUse">
<stop stop-color="#23F7ED"/>
<stop offset="1" stop-color="#16AEA7"/>
</linearGradient>
<linearGradient id="paint100_linear" x1="202.438" y1="452.332" x2="201.128" y2="457.078" gradientUnits="userSpaceOnUse">
<stop stop-color="#042635"/>
<stop offset="1" stop-color="#06565B"/>
</linearGradient>
<linearGradient id="paint101_linear" x1="225.713" y1="443.758" x2="230.673" y2="440.287" gradientUnits="userSpaceOnUse">
<stop stop-color="#042635"/>
<stop offset="1" stop-color="#06565B"/>
</linearGradient>
<linearGradient id="paint102_linear" x1="191.024" y1="466.497" x2="205.354" y2="457.083" gradientUnits="userSpaceOnUse">
<stop stop-color="#042635"/>
<stop offset="1" stop-color="#06565B"/>
</linearGradient>
<linearGradient id="paint103_linear" x1="-23.7537" y1="628.964" x2="145.305" y2="624.982" gradientUnits="userSpaceOnUse">
<stop stop-color="#121E2F" stop-opacity="0"/>
<stop offset="1" stop-color="#162D3E"/>
</linearGradient>
<linearGradient id="paint104_linear" x1="7.90598" y1="16.512" x2="-8.27029" y2="60.3518" gradientUnits="userSpaceOnUse">
<stop stop-color="#042635"/>
<stop offset="1" stop-color="#06565B"/>
</linearGradient>
<linearGradient id="paint105_linear" x1="146.712" y1="459.223" x2="146.712" y2="470.852" gradientUnits="userSpaceOnUse">
<stop stop-color="#2F81AD"/>
<stop offset="1" stop-color="#0B247D"/>
</linearGradient>
<linearGradient id="paint106_linear" x1="137.341" y1="470.603" x2="161.606" y2="481.654" gradientUnits="userSpaceOnUse">
<stop stop-color="#83D3FF"/>
<stop offset="1" stop-color="#456AF1"/>
</linearGradient>
<linearGradient id="paint107_linear" x1="155.78" y1="465.293" x2="155.78" y2="470.05" gradientUnits="userSpaceOnUse">
<stop stop-color="#2F81AD"/>
<stop offset="1" stop-color="#0B247D"/>
</linearGradient>
<linearGradient id="paint108_linear" x1="155.844" y1="446.655" x2="117.603" y2="490.277" gradientUnits="userSpaceOnUse">
<stop stop-color="#0E7AB5"/>
<stop offset="1" stop-color="#0F38CD"/>
</linearGradient>
<linearGradient id="paint109_linear" x1="113.87" y1="448.467" x2="113.87" y2="475.425" gradientUnits="userSpaceOnUse">
<stop stop-color="#2F81AD"/>
<stop offset="1" stop-color="#0B247D"/>
</linearGradient>
<linearGradient id="paint110_linear" x1="-15.7232" y1="-13.2788" x2="-15.7232" y2="13.679" gradientUnits="userSpaceOnUse">
<stop stop-color="#2F81AD"/>
<stop offset="1" stop-color="#0B247D"/>
</linearGradient>
<linearGradient id="paint111_linear" x1="-13.5438" y1="-13.2788" x2="-13.5438" y2="13.679" gradientUnits="userSpaceOnUse">
<stop stop-color="#00A5FF"/>
<stop offset="1" stop-color="#0F38CD"/>
</linearGradient>
<linearGradient id="paint112_linear" x1="116.577" y1="445.234" x2="116.577" y2="449.992" gradientUnits="userSpaceOnUse">
<stop stop-color="#2F81AD"/>
<stop offset="1" stop-color="#0B247D"/>
</linearGradient>
<linearGradient id="paint113_linear" x1="123.856" y1="446.804" x2="123.856" y2="451.562" gradientUnits="userSpaceOnUse">
<stop stop-color="#2F81AD"/>
<stop offset="1" stop-color="#0B247D"/>
</linearGradient>
<linearGradient id="paint114_linear" x1="131.135" y1="448.373" x2="131.135" y2="453.13" gradientUnits="userSpaceOnUse">
<stop stop-color="#2F81AD"/>
<stop offset="1" stop-color="#0B247D"/>
</linearGradient>
<linearGradient id="paint115_linear" x1="121.326" y1="567.967" x2="202.237" y2="520.262" gradientUnits="userSpaceOnUse">
<stop stop-color="#042635"/>
<stop offset="1" stop-color="#1BA0A8"/>
</linearGradient>
<linearGradient id="paint116_linear" x1="119.894" y1="567.967" x2="194.958" y2="529.497" gradientUnits="userSpaceOnUse">
<stop stop-color="#042635"/>
<stop offset="1" stop-color="#0E757B"/>
</linearGradient>
<linearGradient id="paint117_linear" x1="247.203" y1="225.365" x2="360.923" y2="221.755" gradientUnits="userSpaceOnUse">
<stop stop-color="#CEFFDD"/>
<stop offset="1" stop-color="#3897A4"/>
</linearGradient>
<linearGradient id="paint118_linear" x1="367.098" y1="471.241" x2="395.035" y2="524.955" gradientUnits="userSpaceOnUse">
<stop stop-color="#5DF1D7"/>
<stop offset="1" stop-color="#128698"/>
</linearGradient>
<linearGradient id="paint119_linear" x1="380.713" y1="469.139" x2="379.827" y2="474.586" gradientUnits="userSpaceOnUse">
<stop stop-color="#042635"/>
<stop offset="1" stop-color="#06565B"/>
</linearGradient>
<linearGradient id="paint120_linear" x1="436.415" y1="519.853" x2="468.844" y2="550.34" gradientUnits="userSpaceOnUse">
<stop stop-color="#77CEFF"/>
<stop offset="0.854221" stop-color="#20B0FF"/>
<stop offset="1" stop-color="#1070A5"/>
</linearGradient>
<linearGradient id="paint121_linear" x1="408.124" y1="495.757" x2="390.016" y2="507.734" gradientUnits="userSpaceOnUse">
<stop stop-color="#042635"/>
<stop offset="1" stop-color="#06565B"/>
</linearGradient>
<linearGradient id="paint122_linear" x1="387.693" y1="534.161" x2="397.198" y2="584.281" gradientUnits="userSpaceOnUse">
<stop stop-color="#5DF1D7"/>
<stop offset="1" stop-color="#128698"/>
</linearGradient>
<linearGradient id="paint123_linear" x1="416.492" y1="519.202" x2="388.186" y2="531.769" gradientUnits="userSpaceOnUse">
<stop stop-color="#165B7A"/>
<stop offset="1" stop-color="#001431"/>
</linearGradient>
<linearGradient id="paint124_linear" x1="408.019" y1="514.276" x2="387.785" y2="517.232" gradientUnits="userSpaceOnUse">
<stop stop-color="#165B7A"/>
<stop offset="1" stop-color="#001431"/>
</linearGradient>
<linearGradient id="paint125_linear" x1="406.957" y1="544.554" x2="409.343" y2="587.123" gradientUnits="userSpaceOnUse">
<stop stop-color="#5DF1D7"/>
<stop offset="1" stop-color="#128698"/>
</linearGradient>
<linearGradient id="paint126_linear" x1="436.404" y1="537.089" x2="417.354" y2="557.678" gradientUnits="userSpaceOnUse">
<stop stop-color="#165B7A"/>
<stop offset="1" stop-color="#001431"/>
</linearGradient>
<linearGradient id="paint127_linear" x1="435.6" y1="531.573" x2="404.567" y2="547.167" gradientUnits="userSpaceOnUse">
<stop stop-color="#165B7A"/>
<stop offset="1" stop-color="#001431"/>
</linearGradient>
<linearGradient id="paint128_linear" x1="461.935" y1="577.729" x2="458.204" y2="584.393" gradientUnits="userSpaceOnUse">
<stop stop-color="#042635"/>
<stop offset="1" stop-color="#06565B"/>
</linearGradient>
<linearGradient id="paint129_linear" x1="385.081" y1="496.365" x2="393.25" y2="571.661" gradientUnits="userSpaceOnUse">
<stop stop-color="#5DF1D7"/>
<stop offset="1" stop-color="#128698"/>
</linearGradient>
<linearGradient id="paint130_linear" x1="427.144" y1="496.124" x2="411.863" y2="510.854" gradientUnits="userSpaceOnUse">
<stop stop-color="#165B7A"/>
<stop offset="1" stop-color="#001431"/>
</linearGradient>
<linearGradient id="paint131_linear" x1="425.975" y1="495.843" x2="420.593" y2="518.319" gradientUnits="userSpaceOnUse">
<stop stop-color="#042635"/>
<stop offset="1" stop-color="#06565B"/>
</linearGradient>
<linearGradient id="paint132_linear" x1="440.467" y1="501.888" x2="413.807" y2="477.692" gradientUnits="userSpaceOnUse">
<stop stop-color="#2D8B67"/>
<stop offset="1" stop-color="#123635"/>
</linearGradient>
<linearGradient id="paint133_linear" x1="463.996" y1="511.595" x2="451.391" y2="539.308" gradientUnits="userSpaceOnUse">
<stop stop-color="#042635"/>
<stop offset="1" stop-color="#06565B"/>
</linearGradient>
<linearGradient id="paint134_linear" x1="422.962" y1="524.835" x2="399.492" y2="548.592" gradientUnits="userSpaceOnUse">
<stop stop-color="#165B7A"/>
<stop offset="1" stop-color="#001431"/>
</linearGradient>
<linearGradient id="paint135_linear" x1="397.618" y1="569.697" x2="395.622" y2="575.84" gradientUnits="userSpaceOnUse">
<stop stop-color="#042635"/>
<stop offset="1" stop-color="#06565B"/>
</linearGradient>
<linearGradient id="paint136_linear" x1="396.456" y1="408.674" x2="383.596" y2="501.851" gradientUnits="userSpaceOnUse">
<stop stop-color="#5DF1D7"/>
<stop offset="1" stop-color="#128698"/>
</linearGradient>
<linearGradient id="paint137_linear" x1="426.816" y1="452.411" x2="392.636" y2="499.382" gradientUnits="userSpaceOnUse">
<stop stop-color="#042635"/>
<stop offset="1" stop-color="#06565B"/>
</linearGradient>
<linearGradient id="paint138_linear" x1="409.83" y1="470.272" x2="416.74" y2="447.017" gradientUnits="userSpaceOnUse">
<stop stop-color="#CEFFDD" stop-opacity="0.37"/>
<stop offset="1" stop-color="#B2FFF9" stop-opacity="0.79"/>
</linearGradient>
<linearGradient id="paint139_linear" x1="409.83" y1="470.272" x2="416.74" y2="447.017" gradientUnits="userSpaceOnUse">
<stop stop-color="#CEFFDD" stop-opacity="0.37"/>
<stop offset="1" stop-color="#B2FFF9" stop-opacity="0.79"/>
</linearGradient>
<linearGradient id="paint140_linear" x1="445.927" y1="425.862" x2="445.118" y2="437.521" gradientUnits="userSpaceOnUse">
<stop stop-color="#042635"/>
<stop offset="1" stop-color="#06565B"/>
</linearGradient>
<linearGradient id="paint141_linear" x1="440.911" y1="419.57" x2="438.698" y2="435.165" gradientUnits="userSpaceOnUse">
<stop stop-color="#042635"/>
<stop offset="1" stop-color="#06565B"/>
</linearGradient>
<linearGradient id="paint142_linear" x1="480.61" y1="478.691" x2="466.758" y2="494.074" gradientUnits="userSpaceOnUse">
<stop stop-color="#042635"/>
<stop offset="1" stop-color="#06565B"/>
</linearGradient>
<linearGradient id="paint143_linear" x1="489.863" y1="475.554" x2="474.593" y2="494.989" gradientUnits="userSpaceOnUse">
<stop stop-color="#2D8B67"/>
<stop offset="1" stop-color="#123635"/>
</linearGradient>
<linearGradient id="paint144_linear" x1="380.288" y1="463.303" x2="425.65" y2="495.073" gradientUnits="userSpaceOnUse">
<stop stop-color="#356FA8"/>
<stop offset="1" stop-color="#183C6F"/>
</linearGradient>
<linearGradient id="paint145_linear" x1="398.688" y1="445.227" x2="391.545" y2="484.709" gradientUnits="userSpaceOnUse">
<stop stop-color="#A9FEFF"/>
<stop offset="1" stop-color="#9EFFFE"/>
</linearGradient>
<linearGradient id="paint146_linear" x1="457.049" y1="459.101" x2="409.522" y2="486.193" gradientUnits="userSpaceOnUse">
<stop stop-color="#5DF1D7"/>
<stop offset="1" stop-color="#128698"/>
</linearGradient>
<linearGradient id="paint147_linear" x1="431.788" y1="487.088" x2="421.705" y2="485.779" gradientUnits="userSpaceOnUse">
<stop stop-color="#042635"/>
<stop offset="1" stop-color="#06565B"/>
</linearGradient>
<linearGradient id="paint148_linear" x1="447.381" y1="513.318" x2="445.26" y2="518.276" gradientUnits="userSpaceOnUse">
<stop stop-color="#042635"/>
<stop offset="1" stop-color="#06565B"/>
</linearGradient>
<linearGradient id="paint149_linear" x1="336.844" y1="449.936" x2="380.027" y2="484.611" gradientUnits="userSpaceOnUse">
<stop stop-color="#356FA8"/>
<stop offset="1" stop-color="#183C6F"/>
</linearGradient>
<linearGradient id="paint150_linear" x1="356.733" y1="433.179" x2="347.242" y2="472.17" gradientUnits="userSpaceOnUse">
<stop stop-color="#A9FEFF"/>
<stop offset="1" stop-color="#9EFFFE"/>
</linearGradient>
<linearGradient id="paint151_linear" x1="193.531" y1="472.415" x2="194.434" y2="475.687" gradientUnits="userSpaceOnUse">
<stop stop-color="#042635"/>
<stop offset="1" stop-color="#06565B"/>
</linearGradient>
<clipPath id="clip0">
<rect width="569" height="678" fill="white"/>
</clipPath>
</defs>
</svg>
