<svg width="32" height="32" viewBox="0 0 32 32" fill="none" xmlns="http://www.w3.org/2000/svg">
<path fill-rule="evenodd" clip-rule="evenodd" d="M9.90241 7.00171L9.94675 7.00339C11.9879 7.08103 13.215 8.7894 13.7499 10.7529L13.8176 11.0055L13.9009 11.3101L13.9602 11.5226L14.0489 11.8356L14.1402 12.1524C13.5851 11.8882 12.9655 11.7713 12.2935 11.834C10.1247 12.0371 8.77063 13.7694 8.77063 16.0746V16.1537L8.77716 16.2017L8.782 16.2861C8.90511 18.415 9.21167 20.1961 9.71075 21.636C10.352 23.4859 11.4591 25.0909 12.8758 26.3293C11.7941 25.9098 10.7917 25.3266 9.90241 24.6083H9.90157C8.2513 23.2764 6.98999 21.4815 6.33257 19.4064C6.21211 19.0261 6.11177 18.6366 6.03312 18.2388C5.96788 17.9102 5.91771 17.5766 5.8834 17.2379L5.87421 17.1428C5.86612 17.0596 5.8596 16.9756 5.85309 16.8916L5.85246 16.8834C5.83239 16.614 5.81983 16.343 5.81563 16.0702C5.81395 15.9852 5.81311 15.9001 5.81311 15.815V10.9676C5.81311 8.74069 7.65492 6.94084 9.90241 7.00171ZM7.11478 9.81784C7.11478 9.39807 7.45605 9.05777 7.87702 9.05777C8.298 9.05777 8.63927 9.39807 8.63927 9.81784C8.63927 10.2376 8.298 10.5779 7.87702 10.5779C7.45605 10.5779 7.11478 10.2376 7.11478 9.81784Z" fill="#12D6D6"/>
<path d="M13.9045 13.3443L13.8639 13.415C12.3545 16.0953 12.7433 19.5518 15.0303 21.8322L15.1035 21.9042L15.1748 21.9723L15.2456 22.0381C16.4266 23.1205 17.9018 23.7372 19.4179 23.8673L19.572 24.1815L20.4626 25.983C20.6579 26.3763 20.8294 26.7202 20.9692 27C14.7351 27 12.0996 25.0002 10.803 21.2595C10.3325 19.9023 10.041 18.1794 9.92852 16.0908L9.92628 16.0746C9.92628 14.3661 10.8372 13.1278 12.4011 12.9813C12.9503 12.9301 13.4373 13.0608 13.8595 13.3164L13.9045 13.3443Z" fill="#12D6D6"/>
<path d="M5.38342 8.8524C5.13509 9.3659 4.97433 9.9296 4.92063 10.5244L3.01758 10.5245C3.01758 9.60119 3.88913 8.85263 4.96427 8.85263L5.38342 8.8524Z" fill="#12D6D6"/>
<path d="M24.4063 12.4829C24.9564 13.0314 25.3815 13.6573 25.6818 14.3253L23.5882 14.3253C23.4488 14.1304 23.2914 13.9444 23.1161 13.7695C21.4058 12.0642 18.633 12.0642 16.9227 13.7695C15.9498 14.7397 15.5303 16.0529 15.6644 17.3188L13.8325 17.3188C13.7033 15.5855 14.3033 13.8083 15.6325 12.4829C18.0553 10.067 21.9835 10.067 24.4063 12.4829Z" fill="#12D6D6"/>
<path fill-rule="evenodd" clip-rule="evenodd" d="M20.8072 15.38L20.7861 15.364C20.4795 15.1422 20.0423 15.2515 19.8791 15.5972L18.4943 18.5318L14.0458 18.5319C14.3236 19.5206 14.8525 20.454 15.6325 21.2318C17.8362 23.4292 21.2851 23.628 23.7141 21.8282L27.6523 25.7551L27.6735 25.7756C28.0312 26.1103 28.5933 26.1034 28.9426 25.7551C29.2989 25.3998 29.2989 24.8238 28.9426 24.4685L25.0045 20.5415C25.8393 19.4212 26.2453 18.0834 26.2226 16.7515L28.7075 16.7514L28.7339 16.7509C29.0576 16.7371 29.3157 16.4711 29.3157 16.1449C29.3157 15.8099 29.0434 15.5384 28.7075 15.5384H23.5105L23.4824 15.539C23.268 15.5489 23.0737 15.671 22.9727 15.8614L22.5133 16.728L20.8072 15.38ZM23.8769 16.7515L24.3975 16.7515C24.4254 17.9041 23.9983 19.0656 23.1161 19.9453C21.4059 21.6506 18.633 21.6506 16.9228 19.9453C16.8574 19.88 16.7944 19.8132 16.734 19.7449L18.8804 19.7448L18.9085 19.7442C19.133 19.7338 19.3344 19.6006 19.4307 19.3965L20.6532 16.8059L22.3313 18.1318L22.3523 18.1477C22.6498 18.363 23.073 18.2675 23.2467 17.9399L23.8769 16.7515Z" fill="#12D6D6"/>
</svg>
