<svg width="32" height="32" viewBox="0 0 32 32" fill="none" xmlns="http://www.w3.org/2000/svg">
<path d="M14.0183 12.3853C18.4468 12.3853 22.0367 10.7321 22.0367 8.69266C22.0367 6.65326 18.4468 5 14.0183 5C9.58994 5 6 6.65326 6 8.69266C6 10.7321 9.58994 12.3853 14.0183 12.3853Z" fill="#12D6D6"/>
<path d="M14.0185 13.5459C10.5461 13.5459 7.48435 12.5997 6.00017 11.0616V13.0183C6.00017 15.0577 9.59011 16.711 14.0185 16.711C18.4469 16.711 22.0369 15.0577 22.0369 13.0183V11.0616C20.5527 12.5997 17.4909 13.5459 14.0185 13.5459Z" fill="#12D6D6"/>
<path d="M14.0185 17.7183C10.546 17.7183 7.48414 16.7721 6.00002 15.2338L6.00019 17.1907L6.00126 17.2518C6.07207 19.263 9.63441 20.8834 14.0185 20.8834C15.186 20.8834 16.2952 20.7685 17.2957 20.5619C18.1942 18.7843 19.9553 17.5095 22.0348 17.2768C22.0362 17.2482 22.0369 17.2195 22.0369 17.1907L22.0368 15.2341C20.5526 16.7721 17.4909 17.7183 14.0185 17.7183Z" fill="#12D6D6"/>
<path d="M14.0186 21.9385C15.0065 21.9385 15.9612 21.8619 16.8558 21.7169C16.7256 22.207 16.6562 22.7216 16.6562 23.2523C16.6562 23.8099 16.7328 24.3498 16.8761 24.8622C15.9884 25.0182 15.0252 25.1036 14.0186 25.1036C9.63447 25.1036 6.07213 23.4832 6.00132 21.472L6.00024 21.4109L6.00008 19.454C7.4842 20.9923 10.5461 21.9385 14.0186 21.9385Z" fill="#12D6D6"/>
<path fill-rule="evenodd" clip-rule="evenodd" d="M22.7227 28C25.3739 28 27.5232 25.8508 27.5232 23.1995C27.5232 20.5483 25.3739 18.3991 22.7227 18.3991C20.0715 18.3991 17.9222 20.5483 17.9222 23.1995C17.9222 25.8508 20.0715 28 22.7227 28ZM23.6197 20.9312H21.8261V22.3555H20.5073V24.0436H21.8261V25.3624H23.6197V24.0436H25.044V22.3555H23.6197V20.9312Z" fill="#12D6D6"/>
</svg>
