<svg width="32" height="32" viewBox="0 0 32 32" fill="none" xmlns="http://www.w3.org/2000/svg">
<path d="M22.6097 5.22453L20.638 4.23372L21.2192 3.07715L23.1909 4.06796L22.6097 5.22453Z" fill="#12D6D6"/>
<path d="M18.8329 14.942L15.0871 13.0597L19.1511 4.97243L22.8969 6.85474L18.8329 14.942Z" fill="#12D6D6"/>
<path d="M21.3432 12.2475L22.4386 10.0677C24.5363 11.7684 25.8758 14.3969 25.8758 17.3369C25.8758 19.8662 24.8815 22.1708 23.2636 23.8493H24.6943V27H11.3037V23.8493H19.0487C21.6368 22.9048 23.5128 20.363 23.5128 17.3369C23.5128 15.3175 22.674 13.5073 21.3432 12.2475Z" fill="#12D6D6"/>
<path d="M14.2584 14.1882H12.7517L9.57109 22.4589H11.083L14.2584 14.1882Z" fill="#12D6D6"/>
<path d="M9.61723 17.4256V15.705L5 17.8386V18.9854L9.61723 21.1247V19.4017L7.19638 18.4233L9.61723 17.4256Z" fill="#12D6D6"/>
<path d="M14.3275 15.7098L19.1171 17.8298V18.9846L14.3275 21.1102V19.4144L16.8875 18.3996L14.3275 17.3965V15.7098Z" fill="#12D6D6"/>
</svg>
