<svg width="32" height="32" viewBox="0 0 32 32" fill="none" xmlns="http://www.w3.org/2000/svg">
<path fill-rule="evenodd" clip-rule="evenodd" d="M14.9023 5.45873C14.8897 5.10987 14.6152 4.82359 14.2836 4.82359C14.1238 4.82359 13.964 4.90361 13.8442 5.02364C13.7243 5.14367 13.6644 5.30371 13.6644 5.48375V5.64379L13.6651 5.68976C13.6691 5.8105 13.6888 5.9172 13.7243 6.02389C13.7351 6.05643 13.7401 6.08897 13.7456 6.1247C13.7502 6.15486 13.7551 6.18731 13.7642 6.22394V6.24394L13.7715 6.31413C13.7776 6.37165 13.7839 6.42831 13.7902 6.48413C13.8245 6.78947 13.8559 7.06953 13.8242 7.32421C13.8066 7.44711 13.743 7.50837 13.6871 7.56209C13.6793 7.56958 13.6717 7.57693 13.6644 7.58427L13.6245 7.62428L13.6045 7.88434L13.3781 7.9099C13.094 7.94291 12.8099 7.98116 12.5259 8.04438C10.9879 8.38447 9.62962 9.16466 8.57099 10.2849L8.37125 10.1449H8.3313L8.30733 10.147C8.29534 10.1489 8.28336 10.1519 8.27137 10.1549C8.2514 10.1599 8.23143 10.1649 8.21145 10.1649C8.15153 10.1649 8.09161 10.1449 8.03169 10.1049C7.77202 9.92484 7.51236 9.66478 7.23272 9.36471C7.22008 9.35205 7.20745 9.33739 7.19417 9.32199C7.16551 9.28873 7.13385 9.25201 7.09291 9.22467C7.03584 9.15323 6.97877 9.09199 6.91442 9.02637L6.83324 8.9446C6.82497 8.93632 6.81327 8.92803 6.79956 8.91832C6.78018 8.90459 6.75677 8.88802 6.73337 8.86458C6.72574 8.85694 6.71811 8.85222 6.7116 8.84819C6.70105 8.84166 6.69342 8.83694 6.69342 8.82458C6.57358 8.72455 6.41379 8.66454 6.25399 8.66454C6.07422 8.66454 5.89446 8.74456 5.79459 8.88459C5.59485 9.14465 5.65477 9.54475 5.93441 9.78481C5.94439 9.78481 5.94938 9.78981 5.95438 9.79481C5.95937 9.79982 5.96437 9.80482 5.97436 9.80482C5.99433 9.81482 6.00931 9.82982 6.02429 9.84483C6.03927 9.85983 6.05425 9.87483 6.07422 9.88484C6.19407 9.96485 6.29394 10.0249 6.41379 10.0849C6.47371 10.1049 6.53363 10.1449 6.59355 10.1849L6.63834 10.2123C6.97804 10.4201 7.26272 10.5942 7.49238 10.8051C7.58601 10.8988 7.59187 10.9926 7.59223 11.0864L7.59226 11.1451L7.792 11.3252L7.77494 11.3498C7.7688 11.3584 7.76273 11.3666 7.7568 11.3746C7.73003 11.4108 7.70614 11.4431 7.69213 11.4852C6.69342 13.0656 6.31391 14.9261 6.57358 16.7665L6.31391 16.8465L6.31184 16.8565C6.30992 16.8606 6.30692 16.8636 6.30392 16.8666C6.29893 16.8716 6.29394 16.8766 6.29394 16.8865C6.25399 16.9666 6.19407 17.0466 6.07422 17.1066C5.80986 17.1949 5.49885 17.2364 5.14118 17.2724L4.99563 17.2866L4.94886 17.2867C4.89331 17.287 4.82727 17.2895 4.77591 17.3067C4.70101 17.3067 4.62611 17.3145 4.54633 17.3252L4.3964 17.3466C4.37643 17.3466 4.35645 17.3517 4.33648 17.3567C4.31651 17.3617 4.29653 17.3667 4.27656 17.3667C4.25659 17.3667 4.23661 17.3667 4.21664 17.3867C3.8571 17.4667 3.63739 17.8068 3.69731 18.1269C3.75723 18.4069 4.0169 18.587 4.33648 18.587C4.3964 18.587 4.43635 18.587 4.49628 18.567C4.51625 18.567 4.53622 18.567 4.53622 18.5469C4.5562 18.5469 4.57617 18.542 4.59614 18.537C4.61612 18.532 4.63609 18.527 4.65606 18.527C4.79588 18.4869 4.89575 18.4469 5.0156 18.3869C5.04556 18.3769 5.07552 18.3619 5.10548 18.3469C5.13544 18.3319 5.16541 18.3169 5.19537 18.3069H5.21534L5.35582 18.2554C5.67943 18.1381 5.97436 18.0418 6.25399 18.0068H6.29394L6.3209 18.0079C6.40845 18.0146 6.47327 18.0532 6.52446 18.0873L6.5536 18.1069C6.56359 18.1069 6.56859 18.1119 6.57358 18.1169C6.57857 18.1219 6.58357 18.1269 6.59355 18.1269L6.87319 18.0868L6.89882 18.1646C7.3849 19.6134 8.29275 20.9044 9.48979 21.8477C9.76941 22.0678 10.049 22.2478 10.3487 22.4279L10.2288 22.688L10.2309 22.6979C10.2328 22.702 10.2358 22.705 10.2388 22.708C10.2438 22.713 10.2488 22.718 10.2488 22.728C10.2887 22.808 10.3287 22.908 10.2887 23.048C10.1689 23.3481 9.98912 23.6482 9.76941 23.9883V24.0083L9.74545 24.0422C9.73344 24.0583 9.72142 24.0734 9.7094 24.0885C9.68946 24.1134 9.66952 24.1384 9.64956 24.1684C9.59031 24.2426 9.54203 24.3168 9.48844 24.3991L9.48806 24.3997C9.46953 24.4282 9.45036 24.4576 9.42987 24.4884C9.4156 24.5027 9.40134 24.5272 9.38707 24.5546L9.36995 24.5884C9.36995 24.6027 9.35976 24.617 9.35393 24.624L9.34998 24.6285C9.19018 24.9686 9.31003 25.3486 9.60963 25.4886C9.68955 25.5287 9.76941 25.5487 9.84933 25.5487C10.089 25.5487 10.3287 25.3886 10.4485 25.1686C10.4485 25.1543 10.4587 25.14 10.4646 25.133L10.4685 25.1286L10.4687 25.1282C10.4886 25.0883 10.5085 25.0485 10.5284 25.0286C10.5684 24.9351 10.5906 24.8595 10.6128 24.7839C10.6239 24.7462 10.635 24.7084 10.6483 24.6685L10.7082 24.4884L10.8243 24.1551C10.9137 23.9035 11.0008 23.6859 11.1276 23.4882C11.191 23.3931 11.2668 23.3608 11.3353 23.3316C11.3533 23.3239 11.3707 23.3165 11.3873 23.3081C11.4073 23.3081 11.4073 23.3081 11.4273 23.2881L11.5671 23.0281L11.6553 23.0616C12.5099 23.38 13.4366 23.5482 14.3635 23.5482C14.9427 23.5482 15.5419 23.4882 16.1012 23.3481C16.4132 23.2787 16.7101 23.1942 17.0049 23.0946C17.0035 23.04 17.0028 22.9851 17.0028 22.9302C17.0028 22.1063 17.1625 21.3197 17.4526 20.5996L16.3808 18.0268L16.3754 18.0027C16.3277 17.7696 16.4288 17.5227 16.6605 17.4067C16.7404 17.3667 16.8402 17.3466 16.9401 17.3466L19.6767 17.809C20.3727 17.3234 21.1724 16.9761 22.0359 16.807L22.0454 16.7312C22.1504 15.8401 22.1059 14.9136 21.8937 14.0059C21.674 13.0656 21.2945 12.1854 20.7751 11.3852L20.9749 11.2052V11.1652L20.9752 11.1421C20.9783 11.0497 21.001 10.9574 21.0748 10.8651C21.2665 10.689 21.4966 10.5386 21.7651 10.3728L22.0096 10.223C22.0275 10.2129 22.0455 10.2039 22.0635 10.1949C22.0934 10.1799 22.1234 10.1649 22.1534 10.1449C22.2732 10.0849 22.3731 10.0249 22.4929 9.94485C22.5012 9.93655 22.5129 9.92826 22.5266 9.91853C22.546 9.90481 22.5694 9.88824 22.5928 9.86483C22.6004 9.8572 22.608 9.85248 22.6145 9.84845C22.6251 9.84192 22.6327 9.83719 22.6327 9.82482C22.9123 9.58476 22.9723 9.18466 22.7726 8.9246C22.6727 8.78457 22.4929 8.70455 22.3132 8.70455C22.1534 8.70455 22.0135 8.76456 21.8737 8.86458L21.8337 8.90459C21.8138 8.9146 21.7988 8.9296 21.7838 8.9446C21.7688 8.95961 21.7539 8.97461 21.7339 8.98461L21.7333 8.98517C21.6337 9.08494 21.554 9.16485 21.4743 9.26468C21.4616 9.27738 21.4489 9.29209 21.4356 9.30753C21.4069 9.34076 21.3753 9.3774 21.3344 9.40472C21.0548 9.70479 20.7951 9.94485 20.5354 10.1249C20.4755 10.1649 20.4156 10.1849 20.3557 10.1849C20.3157 10.1849 20.2758 10.1849 20.2358 10.1649H20.1959L19.9562 10.3249L19.8777 10.2421C19.6407 9.99689 19.389 9.78086 19.1374 9.56484C17.9389 8.62461 16.4807 8.04438 14.9627 7.90435L14.9427 7.64428L14.8553 7.55801C14.8066 7.50925 14.758 7.44924 14.743 7.34421C14.727 7.08815 14.7494 6.80648 14.7794 6.4992L14.8029 6.26395V6.24394L14.8041 6.21711C14.8086 6.16147 14.8257 6.09534 14.8428 6.04389C14.8628 5.92391 14.8828 5.80378 14.9028 5.6638V5.48375L14.9023 5.45873ZM28.3124 22.9302C28.3124 22.4325 28.2407 21.9517 28.107 21.4973L26.5979 21.4973L24.9901 23.9227L24.9751 23.9443C24.7947 24.1908 24.448 24.2458 24.2002 24.067L24.1798 24.0516L22.4181 22.6559L20.9751 25.0046L20.96 25.0278C20.8615 25.1717 20.701 25.2612 20.5267 25.2695L20.5004 25.2701L18.7438 25.2702C19.5894 26.8924 21.2866 28 23.2425 28C26.0425 28 28.3124 25.7302 28.3124 22.9302ZM23.2425 17.8603C25.114 17.8603 26.7487 18.8744 27.627 20.383L26.2987 20.3831L26.2721 20.3837C26.1047 20.3917 25.9498 20.4746 25.8504 20.6094L25.8343 20.6324L24.3966 22.8017L22.6178 21.3927L22.5975 21.3773C22.3434 21.1939 21.9869 21.2569 21.811 21.5163L21.7972 21.5378L20.1887 24.156L18.3219 24.1559C18.2244 23.7634 18.1727 23.3528 18.1727 22.9302C18.1727 20.1302 20.4425 17.8603 23.2425 17.8603ZM13.8241 18.8671L13.8404 18.8494C14.0011 18.6819 14.2509 18.611 14.4633 18.727C14.5631 18.787 14.6431 18.8671 14.703 18.947L16.241 21.7277L16.1628 21.7523C16.0863 21.7751 16.007 21.7954 15.9262 21.8161L15.9257 21.8162C15.8389 21.8385 15.7502 21.8612 15.6617 21.8878C15.2023 21.9878 14.7429 22.0478 14.2635 22.0478C13.5645 22.0478 12.8853 21.9278 12.2462 21.7277L13.8241 18.8671ZM11.5714 17.3654L11.5471 17.3667L8.3712 17.9068C8.84217 19.204 9.71802 20.2887 10.8093 21.0093L10.868 21.0476L12.0864 18.1069C12.1263 18.0069 12.1263 17.9068 12.1063 17.7868C12.0483 17.5348 11.8216 17.358 11.5714 17.3654ZM13.7642 14.766H14.7429L15.3421 15.5262L15.1424 16.4665L14.2635 16.8865L13.3847 16.4665L13.165 15.5262L13.7642 14.766ZM19.5966 12.4855L17.1797 14.666C17.1198 14.726 17.0799 14.8061 17.0599 14.886C17.0017 15.1579 17.1506 15.4298 17.415 15.5186L17.4394 15.5262L20.4954 16.4065C20.5553 15.7463 20.5154 15.0661 20.3556 14.3859C20.2024 13.715 19.9576 13.0991 19.6386 12.5559L19.5966 12.4855ZM8.00545 16.3309C7.90307 14.9951 8.20476 13.6439 8.91051 12.4855L11.2874 14.606L11.3069 14.6228C11.5082 14.8065 11.5216 15.1328 11.3474 15.3462L11.332 15.3657C11.274 15.4359 11.1992 15.4879 11.1077 15.5062L8.01168 16.4065L8.00545 16.3309ZM13.4845 9.52475C13.3747 9.54475 13.2698 9.56475 13.1649 9.58476C13.0601 9.60476 12.9552 9.62477 12.8453 9.64478C11.7316 9.89918 10.7325 10.4408 9.92292 11.2321L9.86923 11.2852L12.5258 13.1856C12.5857 13.2257 12.6855 13.2456 12.7655 13.2456C13.0565 13.2456 13.2722 13.0191 13.3025 12.7494L13.3047 12.7255L13.4845 9.52475ZM15.2223 12.8055L15.0426 9.54474L15.115 9.55359C16.4648 9.72664 17.6959 10.3418 18.6379 11.2852L16.0213 13.1456L15.9998 13.1586C15.7823 13.2829 15.4962 13.2385 15.3222 13.0256C15.2742 12.9776 15.2519 12.9168 15.2346 12.8534L15.2223 12.8055Z" fill="#12D6D6"/>
</svg>
