<svg width="25" height="24" viewBox="0 0 25 24" fill="none" xmlns="http://www.w3.org/2000/svg">
<path d="M12.2735 0.343959C12.0611 0.35466 11.853 0.407331 11.6613 0.498881L3.30729 4.49052C3.09106 4.59379 2.90108 4.74404 2.75144 4.93011C2.6018 5.11619 2.49635 5.33332 2.44293 5.56536L0.381932 14.5316C0.334341 14.7382 0.329015 14.9521 0.366269 15.1608C0.403524 15.3695 0.482601 15.5686 0.598823 15.7464C0.627004 15.7899 0.657312 15.832 0.689639 15.8725L6.47197 23.0619C6.62164 23.248 6.81165 23.3982 7.02787 23.5014C7.2441 23.6046 7.48099 23.6582 7.72096 23.6581L16.9938 23.656C17.2337 23.6561 17.4706 23.6027 17.6868 23.4997C17.903 23.3967 18.0931 23.2467 18.2428 23.0609L24.023 15.8703C24.1728 15.6842 24.2783 15.467 24.3318 15.2349C24.3852 15.0027 24.3852 14.7616 24.3318 14.5295L22.2676 5.56323C22.2142 5.33118 22.1087 5.11406 21.9591 4.92798C21.8094 4.7419 21.6195 4.59165 21.4032 4.48839L13.0481 0.498881C12.8071 0.383718 12.5407 0.330448 12.2735 0.343959Z" fill="#12D6D6"/>
<path d="M12.3566 3.39529C12.0805 3.39532 11.8565 3.64406 11.8566 3.95088C11.8566 3.95559 11.8575 3.96009 11.8576 3.96477C11.8572 4.00646 11.8552 4.05668 11.8566 4.09298C11.8632 4.26994 11.9017 4.40539 11.925 4.56843C11.967 4.91739 12.0023 5.20666 11.9805 5.47552C11.9594 5.57691 11.8847 5.66963 11.8181 5.73408L11.8064 5.94563C11.5063 5.97049 11.2042 6.01602 10.9025 6.08453C9.60413 6.37932 8.48628 7.0481 7.63522 7.95107C7.58 7.91339 7.48338 7.84408 7.45465 7.82286C7.36538 7.83491 7.27515 7.86246 7.15763 7.79401C6.93386 7.64338 6.73006 7.43546 6.48345 7.18501C6.37046 7.0652 6.28863 6.95111 6.15438 6.83563C6.12389 6.8094 6.07736 6.77393 6.04326 6.74695C5.9383 6.66327 5.81451 6.61963 5.69496 6.61553C5.54124 6.61027 5.39327 6.67037 5.29643 6.79182C5.12428 7.00775 5.1794 7.33777 5.4193 7.52904C5.42174 7.53098 5.42433 7.53249 5.42678 7.53438C5.45975 7.56111 5.50012 7.59535 5.53042 7.61772C5.67288 7.72291 5.80302 7.77675 5.94497 7.86025C6.24402 8.04494 6.49195 8.19808 6.68859 8.38271C6.76538 8.46457 6.7788 8.60881 6.78902 8.67119L6.94929 8.81436C6.09135 10.1055 5.69429 11.7003 5.92894 13.3253L5.71953 13.3862C5.66434 13.4574 5.58635 13.5696 5.50478 13.603C5.24749 13.6841 4.95794 13.7138 4.60836 13.7505C4.44424 13.7641 4.30263 13.756 4.12864 13.789C4.09035 13.7962 4.03699 13.8101 3.99509 13.8199C3.99363 13.8202 3.99227 13.8207 3.99081 13.821C3.98853 13.8215 3.98553 13.8226 3.98333 13.8231C3.68861 13.8944 3.49929 14.1652 3.56024 14.4321C3.6212 14.6991 3.90908 14.8615 4.20557 14.7975C4.20771 14.7971 4.21082 14.797 4.21305 14.7965C4.21639 14.7957 4.21934 14.7941 4.22266 14.7933C4.26399 14.7842 4.31579 14.7741 4.35194 14.7644C4.523 14.7186 4.64689 14.6513 4.80068 14.5924C5.13153 14.4738 5.40556 14.3746 5.67252 14.336C5.78402 14.3273 5.90149 14.4048 5.95993 14.4375L6.17788 14.4001C6.67945 15.9551 7.73058 17.212 9.06157 18.0007L8.97075 18.2187C9.00349 18.3033 9.03959 18.4178 9.01521 18.5014C8.91815 18.7531 8.75191 19.0187 8.56261 19.3149C8.47096 19.4517 8.37715 19.5579 8.29444 19.7145C8.27465 19.7519 8.24944 19.8095 8.23033 19.8491C8.10182 20.124 8.19609 20.4407 8.44295 20.5596C8.69136 20.6792 8.99971 20.553 9.13315 20.2775C9.13336 20.2771 9.13403 20.2768 9.13422 20.2764C9.13436 20.2761 9.13408 20.2757 9.13422 20.2754C9.15323 20.2363 9.18016 20.185 9.19619 20.1482C9.26704 19.9859 9.29061 19.8469 9.34043 19.6899C9.47273 19.3576 9.54542 19.0089 9.72754 18.7916C9.77742 18.7321 9.85872 18.7092 9.94302 18.6866L10.0563 18.4815C11.2166 18.9269 12.5154 19.0464 13.8129 18.7518C14.1088 18.6846 14.3946 18.5976 14.6708 18.4932C14.7026 18.5497 14.7618 18.6582 14.7777 18.6856C14.8633 18.7134 14.9568 18.7278 15.033 18.8405C15.1693 19.0733 15.2625 19.3487 15.376 19.6813C15.4258 19.8383 15.4504 19.9774 15.5213 20.1397C15.5374 20.1767 15.5642 20.2288 15.5832 20.2679C15.7164 20.5443 16.0257 20.6709 16.2745 20.551C16.5214 20.4321 16.6157 20.1155 16.4871 19.8405C16.468 19.8009 16.4418 19.7434 16.422 19.7059C16.3392 19.5493 16.2455 19.4442 16.1538 19.3074C15.9645 19.0112 15.8075 18.7652 15.7104 18.5135C15.6698 18.3837 15.7172 18.303 15.7489 18.2187C15.7299 18.197 15.6894 18.0744 15.6655 18.0167C17.0487 17.2 18.069 15.8962 18.5481 14.3905C18.6128 14.4007 18.7253 14.4205 18.7618 14.4279C18.837 14.3783 18.9062 14.3136 19.0417 14.3242C19.3087 14.3629 19.5827 14.462 19.9136 14.5807C20.0674 14.6396 20.1913 14.708 20.3623 14.7537C20.3985 14.7634 20.4503 14.7725 20.4916 14.7815C20.4949 14.7823 20.4979 14.784 20.5012 14.7847C20.5035 14.7852 20.5066 14.7853 20.5087 14.7858C20.8052 14.8496 21.0931 14.6874 21.154 14.4204C21.2149 14.1535 21.0257 13.8825 20.7309 13.8114C20.6881 13.8016 20.6273 13.7851 20.5856 13.7772C20.4116 13.7443 20.27 13.7524 20.1059 13.7387C19.7563 13.7021 19.4668 13.6723 19.2095 13.5913C19.1046 13.5506 19.03 13.4258 18.9937 13.3744L18.7917 13.3156C18.8964 12.5582 18.8682 11.7699 18.687 10.9811C18.5042 10.185 18.181 9.45692 17.75 8.81543C17.8018 8.76834 17.8996 8.68171 17.9274 8.65623C17.9355 8.56651 17.9285 8.47244 18.0214 8.3731C18.218 8.18845 18.466 8.03534 18.765 7.85064C18.907 7.76713 19.0382 7.7133 19.1806 7.6081C19.2129 7.58432 19.2568 7.54665 19.2907 7.51942C19.5305 7.32809 19.5858 6.99809 19.4136 6.78221C19.2414 6.56633 18.9077 6.546 18.6678 6.73734C18.6337 6.76437 18.5873 6.79965 18.5567 6.82602C18.4224 6.94151 18.3395 7.05558 18.2265 7.17539C17.9799 7.42586 17.7761 7.63482 17.5524 7.78546C17.4554 7.84191 17.3134 7.82238 17.2489 7.81858L17.0587 7.95427C15.9743 6.81711 14.4978 6.09007 12.9079 5.94884C12.9035 5.88221 12.8976 5.76178 12.8962 5.72553C12.8311 5.66325 12.7524 5.61008 12.7327 5.47552C12.7109 5.20666 12.7473 4.91739 12.7893 4.56843C12.8125 4.40539 12.8511 4.26994 12.8577 4.09298C12.8592 4.05275 12.8568 3.99437 12.8566 3.95088C12.8566 3.64406 12.6328 3.39527 12.3566 3.39529H12.3566ZM11.7305 7.27369L11.582 9.89667L11.5713 9.90202C11.5613 10.1367 11.3682 10.324 11.1311 10.324C11.034 10.324 10.9443 10.2929 10.8715 10.2396L10.8672 10.2418L8.71647 8.71713C9.37748 8.06715 10.223 7.58681 11.1974 7.36557C11.3753 7.32516 11.5533 7.29517 11.7305 7.27369ZM12.9838 7.27369C14.1214 7.4136 15.1734 7.92872 15.9796 8.7182L13.8428 10.2332L13.8353 10.23C13.6456 10.3686 13.3784 10.3342 13.2306 10.1488C13.17 10.0729 13.1382 9.98361 13.1344 9.89347L13.1323 9.8924L12.9838 7.27369ZM7.93652 9.69688L9.90029 11.4534L9.89815 11.4641C10.0754 11.6181 10.1015 11.8855 9.95371 12.0709C9.89315 12.1469 9.81209 12.1978 9.72507 12.2216L9.72293 12.2301L7.20571 12.9567C7.07759 11.7851 7.3537 10.6463 7.93652 9.69688ZM16.7628 9.69795C17.0546 10.1709 17.2755 10.6991 17.4071 11.2717C17.537 11.8375 17.5696 12.4023 17.516 12.9481L14.986 12.2194L14.9839 12.2087C14.7573 12.1468 14.6181 11.9164 14.6708 11.6852C14.6924 11.5905 14.7427 11.5104 14.8108 11.4512L14.8097 11.4459L16.7628 9.69795H16.7628ZM11.9538 11.5891H12.7583L13.2584 12.2141L13.0789 12.994L12.3566 13.3413L11.6322 12.993L11.4527 12.213L11.9538 11.5891ZM14.533 13.7281C14.5672 13.7263 14.6012 13.7294 14.6345 13.7355L14.6388 13.7302L17.2425 14.1704C16.8615 15.241 16.1323 16.1684 15.158 16.7891L14.1473 14.3477L14.1505 14.3435C14.0576 14.1277 14.1506 13.8747 14.3642 13.7719C14.4189 13.7455 14.476 13.7309 14.533 13.7281H14.533ZM10.1599 13.7387C10.3586 13.7415 10.5368 13.8794 10.583 14.0817C10.6046 14.1764 10.5941 14.2702 10.5584 14.3531L10.5659 14.3627L9.56587 16.7795C8.63088 16.1795 7.88616 15.2812 7.48778 14.1789L10.0691 13.7409L10.0734 13.7462C10.1022 13.7409 10.1315 13.7383 10.1599 13.7387V13.7387ZM12.3406 14.7976C12.4098 14.795 12.48 14.8092 12.5468 14.8414C12.6343 14.8835 12.7019 14.9498 12.7444 15.0294H12.7541L14.0266 17.3287C13.8614 17.384 13.6916 17.4313 13.518 17.4708C12.5448 17.6917 11.5747 17.6248 10.6963 17.3254L11.9656 15.0305H11.9677C12.0439 14.8881 12.1883 14.8031 12.3406 14.7976Z" fill="#121212"/>
</svg>
