<svg width="24" height="24" viewBox="0 0 24 24" fill="none" xmlns="http://www.w3.org/2000/svg">
<rect width="24" height="24" rx="12" fill="#12D6D6"/>
<path d="M18.4357 17.2867C18.0232 16.9522 18.1838 16.2135 17.7555 15.849C18.1702 13.3252 17.0078 11.1007 15.6217 9.675C14.4585 8.47875 14.8335 7.31475 14.8335 6.3075C14.8335 4.698 14.1727 3 12.171 3C10.0312 3 9.44475 4.785 9.42375 5.8035C9.37275 8.25 9.918 8.886 8.48625 10.6665C6.80175 12.7613 6.5535 14.8507 6.93375 15.9592C6.756 16.1662 6.516 16.3958 6.0675 16.5855C4.8285 17.1255 5.73675 18.0292 5.394 18.6705C5.2965 18.8527 5.25 19.0433 5.25 19.2255C5.25 19.788 5.697 20.2747 6.50925 20.202C7.605 20.1045 8.616 20.8807 9.27 20.8807C9.8475 20.8807 10.3215 20.5522 10.542 20.1C11.5747 19.8457 12.8498 19.878 13.8818 20.1442C14.067 20.6625 14.5695 21 15.1283 21C16.3515 21 16.587 19.6132 17.9902 19.1437C18.4957 18.975 18.75 18.4845 18.75 18.0278C18.75 17.7353 18.6457 17.457 18.4357 17.2867ZM11.5755 9.438C11.3362 9.438 11.1382 9.2445 10.8255 9.012C10.4295 8.718 10.0268 8.5485 10.0312 8.2395C10.0312 8.02725 10.3155 7.962 10.683 7.72875C11.0775 7.479 11.2312 7.2255 11.6198 7.2255C12.0173 7.2255 12.1372 7.4265 12.6772 7.65975C13.2083 7.89 13.578 7.98 13.578 8.2395C13.578 8.50575 13.0223 8.69625 12.7095 8.8905C12.2498 9.174 12.0135 9.438 11.5755 9.438ZM12.8243 5.52675C13.4858 5.6325 13.56 6.795 13.2435 7.36725L12.9773 7.2585C13.1153 6.85125 13.113 6.18075 12.651 6.138C12.3577 6.111 12.1687 6.498 12.1282 6.8295C12.0135 6.7815 11.8882 6.747 11.736 6.73425C11.7825 6.042 12.2295 5.4315 12.8243 5.52675ZM10.272 5.775C10.779 5.649 11.0782 6.2385 11.0805 6.85125L10.848 6.99375C10.8165 6.7365 10.7018 6.321 10.4138 6.4095C10.1055 6.5055 10.1558 7.22175 10.3275 7.36875L10.098 7.49625C9.783 6.966 9.78375 5.8965 10.272 5.775ZM8.68575 20.2073C7.2135 19.5375 6.71325 19.6898 6.432 19.6898C5.84925 19.6898 5.65875 19.2555 5.87775 18.8445C6.06375 18.4957 6.006 18.1305 5.96025 17.8373C5.88975 17.388 5.877 17.2418 6.31875 17.0483C6.93 16.7888 7.2015 16.455 7.404 16.2052C7.9725 15.5025 8.54625 16.608 9.0165 17.5928C9.32175 18.231 9.9225 18.5542 10.1077 19.2615C10.278 19.9147 9.57525 20.6123 8.68575 20.2073ZM13.926 18.8018C12.888 19.3065 11.5658 19.5382 10.5765 19.026C10.4303 18.6038 10.1962 18.3308 9.94425 18.0563C10.3485 17.9498 10.6485 17.4458 10.2892 16.9395C9.906 16.3988 9.123 16.0215 8.33175 15.4095C7.5915 14.8372 7.3575 13.4265 8.3655 11.85C7.87425 13.2465 8.1615 14.5335 8.40825 14.9018C8.45925 14.1608 8.51775 12.9233 9.53025 11.4405C10.041 10.692 10.0485 9.7035 10.0598 9.0855L10.5247 9.4035C10.8667 9.65625 11.1532 9.9345 11.5642 9.9345C12.1717 9.9345 12.5077 9.585 12.9757 9.29475C13.1587 9.18225 13.4355 9.06825 13.668 8.91C14.058 10.767 15.6735 13.0005 15.7642 14.2725C16.14 13.4985 15.6578 11.637 15.6578 11.637C16.2893 12.6007 16.3395 13.404 16.3673 14.3895C16.809 14.5702 17.283 15.0413 17.3265 15.6615L17.1427 15.6405C17.0483 14.9513 15.1875 13.9388 15.0203 15.2362C14.1278 15.372 14.4525 16.7858 14.2725 17.7023C14.19 18.1215 14.037 18.453 13.926 18.8018ZM17.5605 18.771C16.8217 19.056 16.323 19.6612 15.9802 20.037C15.3202 20.7615 14.4473 20.4143 14.3542 19.7362C14.256 19.0118 14.6243 18.6165 14.7833 17.8057C14.928 17.0655 14.766 15.9262 15.1065 15.8048C15.3278 17.1195 16.656 16.5667 16.959 16.2083C17.4517 16.2083 17.493 16.3748 17.6033 16.836C17.6723 17.1248 17.7675 17.3678 18.0367 17.6535C18.3503 17.9888 18.2542 18.5033 17.5605 18.771ZM11.5605 9.0165C11.0722 9.0165 10.707 8.69175 10.41 8.43975C10.2578 8.3115 10.4475 8.0745 10.5998 8.2035C10.89 8.4495 11.1825 8.70975 11.5605 8.70975C12.0157 8.70975 12.417 8.3205 12.9608 8.106C13.146 8.03325 13.2517 8.31975 13.068 8.3925C12.54 8.60025 12.1162 9.0165 11.5605 9.0165Z" fill="#121212"/>
</svg>
