<svg width="32" height="32" viewBox="0 0 32 32" fill="none" xmlns="http://www.w3.org/2000/svg">
<path d="M18.5 23.75C18.5 24.9926 17.4926 26 16.25 26C15.0074 26 14 24.9926 14 23.75C14 22.5074 15.0074 21.5 16.25 21.5C17.4926 21.5 18.5 22.5074 18.5 23.75ZM18.5 16C18.5 17.2426 17.4926 18.25 16.25 18.25C15.0074 18.25 14 17.2426 14 16C14 14.7574 15.0074 13.75 16.25 13.75C17.4926 13.75 18.5 14.7574 18.5 16ZM18.5 8.25C18.5 9.49264 17.4926 10.5 16.25 10.5C15.0074 10.5 14 9.49264 14 8.25C14 7.00736 15.0074 6 16.25 6C17.4926 6 18.5 7.00736 18.5 8.25Z" fill="#12D6D6"/>
</svg>
