<svg width="32" height="32" viewBox="0 0 32 32" fill="none" xmlns="http://www.w3.org/2000/svg">
<path fill-rule="evenodd" clip-rule="evenodd" d="M20.5896 20.9512L20.5885 21.0346L18.1737 21.0347C18.1298 22.1636 17.1998 23.0683 16.0628 23.0683C14.9258 23.0683 13.9958 22.1636 13.9519 21.0347L18.1737 21.0347C18.1748 21.007 18.1752 20.9792 18.1752 20.9512C18.1752 19.7838 17.2276 18.8341 16.0627 18.8341C14.8978 18.8341 13.9502 19.7838 13.9502 20.9512C13.9502 20.9792 13.9509 21.007 13.9519 21.0347L11.5371 21.0347C11.5364 21.0069 11.536 20.979 11.536 20.9512C11.536 20.7801 11.5493 20.609 11.5683 20.4417L11.5783 20.3584L10.3048 19.3604L10.2889 19.3469C10.1917 19.2585 10.1606 19.1145 10.2223 18.9916L10.2323 18.9732L11.4395 16.8803L11.4504 16.8618C11.5232 16.748 11.6614 16.7001 11.7886 16.7405L11.8076 16.7473L13.3105 17.3522L13.3782 17.3021C13.6502 17.1037 13.9402 16.9288 14.2521 16.7926L14.3306 16.7594L14.5599 15.1564L14.5631 15.1368C14.5884 15.0077 14.7007 14.9115 14.8361 14.903L14.8557 14.9024H17.27L17.2904 14.9031C17.4257 14.912 17.5378 15.0085 17.5627 15.1377L17.5657 15.1564L17.7951 16.7594L17.8735 16.7925C18.1854 16.928 18.4755 17.0988 18.7475 17.301L18.8151 17.3522L20.318 16.7473L20.3382 16.7407C20.4604 16.7058 20.6023 16.7491 20.6752 16.8619L20.6862 16.8803L21.8933 18.9732L21.9034 18.9935C21.9596 19.116 21.9329 19.259 21.8367 19.3469L21.8209 19.3604L20.5474 20.3584L20.5573 20.4414C20.5763 20.6075 20.5896 20.7749 20.5896 20.9512ZM11.5371 21.0347C11.5412 21.2064 11.5575 21.3774 11.5783 21.544L10.3048 22.542L10.2889 22.5555C10.1874 22.6482 10.1633 22.8024 10.2323 22.9292L11.4395 25.022L11.4504 25.0405C11.5273 25.1595 11.6812 25.2012 11.8076 25.1551L13.3105 24.5502L13.3782 24.6014C13.6728 24.8205 13.9887 25.0026 14.3306 25.143L14.5599 26.746L14.5629 26.7647C14.5891 26.9004 14.7113 27 14.8557 27H17.27L17.2895 26.9994C17.4317 26.9905 17.5484 26.8848 17.5657 26.746L17.7951 25.143L17.8735 25.1098C18.2114 24.9623 18.5237 24.7693 18.8151 24.5502L20.318 25.1551L20.337 25.1619C20.4709 25.2044 20.617 25.1491 20.6862 25.022L21.8933 22.9292L21.903 22.9099C21.9627 22.7807 21.9301 22.6284 21.8209 22.542L20.5474 21.544L20.5573 21.461C20.5731 21.3225 20.585 21.1832 20.5885 21.0386L20.5885 21.0346L23 21.0347L23.0826 21.034C25.8046 20.9898 28 18.7622 28 16.0239C28 13.3781 25.945 11.2335 23.355 11.0481C22.675 7.60063 19.64 5 16 5C13.11 5 10.605 6.64356 9.35 9.04375C6.345 9.36946 4 11.92 4 15.0217C4 18.3439 6.685 21.0347 10 21.0347L11.5371 21.0347Z" fill="#12D6D6"/>
</svg>
