<svg width="32" height="32" viewBox="0 0 32 32" fill="none" xmlns="http://www.w3.org/2000/svg">
<path d="M18.7584 15.457L16.623 19.8943C16.3652 20.4344 15.6176 20.4165 15.3813 19.8675L12.9365 14.2294L11.6475 17.4301H7.60439L15.4457 25.7555C15.7508 26.0814 16.2449 26.0814 16.55 25.7555L24.3956 17.4301H19.708L18.7584 15.457ZM25.3538 7.8726L25.2506 7.761C23.0379 5.41292 19.4158 5.41292 17.1988 7.761L16 9.03772L14.8012 7.76547C12.5885 5.41292 8.96213 5.41292 6.74937 7.76547L6.64625 7.8726C4.55379 10.0957 4.46356 13.6357 6.33259 16.0016H10.7323L12.2748 12.1536C12.5068 11.5778 13.2888 11.5644 13.538 12.1358L16.0387 17.9078L18.144 13.5375C18.3975 13.0107 19.1194 13.0107 19.3729 13.5375L20.5587 16.0016H25.6674C27.5364 13.6357 27.4462 10.0957 25.3538 7.8726Z" fill="#12D6D6"/>
</svg>
