<svg width="32" height="32" viewBox="0 0 32 32" fill="none" xmlns="http://www.w3.org/2000/svg">
<path d="M7.20193 26.5426C4.26602 23.6066 4.26602 18.8551 7.20193 15.9192L17.3424 5.77873C19.4767 3.6444 22.9342 3.6444 25.0685 5.77872C27.2028 7.91305 27.2028 11.3705 25.0685 13.5048L16.8595 21.7138C15.5268 23.0465 13.3635 23.0465 12.0307 21.7138C10.698 20.381 10.698 18.2177 12.0307 16.885L19.2739 9.64176L21.2054 11.5733L13.8753 18.9034C13.3442 19.4346 14.3099 20.4003 14.8411 19.8692L23.137 11.5733C24.1993 10.5109 24.1993 8.77258 23.137 7.71024C22.0746 6.64791 20.3363 6.64791 19.2739 7.71024L9.13345 17.8507C7.26953 19.7146 7.26953 22.7471 9.13345 24.611C10.9974 26.475 14.0299 26.475 15.8938 24.611L25.0685 15.4363L27 17.3678L17.8253 26.5426C14.8894 29.4785 10.1378 29.4785 7.20193 26.5426Z" fill="#B2B5BB"/>
</svg>
