<svg width="1920" height="1296" viewBox="0 0 1920 1296" fill="none" xmlns="http://www.w3.org/2000/svg">
<path d="M455.5 427L445 441.031L504.781 438.066L492.414 424L455.5 427Z" fill="url(#paint0_linear)"/>
<path d="M93.9812 499.018L80.628 516.439L173.687 492.266L151.186 482.952L93.9812 499.018Z" fill="url(#paint1_linear)"/>
<path d="M2203 814.733V1296H-321L-321 814.733C-321 586.787 244.017 402 941 402C1637.98 402 2203 586.787 2203 814.733Z" fill="url(#paint2_radial)"/>
<path opacity="0.5" d="M955.31 590.894C955.31 590.894 976.847 609.35 1011.23 611.558C1045.61 613.766 1086.14 599.296 1086.14 599.296C1086.14 599.296 1080.82 568.022 1079.66 562.872C1076.68 549.626 1056.06 539.19 1025.66 540.018C995.264 540.846 975.617 554.76 969.582 565.87C963.547 576.979 955.31 590.894 955.31 590.894Z" fill="url(#paint3_radial)"/>
<path d="M1023.84 582.635C1046.48 582.018 1065.18 573.341 1065.61 563.254C1066.04 553.167 1048.04 545.489 1025.4 546.106C1002.77 546.722 984.069 555.399 983.638 565.487C983.206 575.574 1001.21 583.251 1023.84 582.635Z" fill="url(#paint4_linear)"/>
<g opacity="0.4">
<path d="M134.616 567.582C134.616 567.582 124.973 582.747 106.173 589.224C87.372 595.7 63.0732 592.228 63.0732 592.228C63.0732 592.228 62.112 571.103 62.112 567.582C62.112 558.527 72.2467 548.716 89.2171 544.798C106.188 540.88 118.829 547.052 123.567 553.394C128.305 559.737 134.616 567.582 134.616 567.582Z" fill="url(#paint5_radial)"/>
<path d="M95.5554 572.256C82.9178 575.174 71.4567 572.27 69.9562 565.771C68.4557 559.272 77.4841 551.638 90.1216 548.72C102.759 545.803 114.22 548.706 115.721 555.206C117.221 561.705 108.193 569.339 95.5554 572.256Z" fill="url(#paint6_linear)"/>
</g>
<path opacity="0.3" d="M926.733 493.573C935.975 494.219 943.739 490.847 944.075 486.042C944.412 481.236 937.192 476.816 927.95 476.17C918.709 475.524 910.944 478.896 910.608 483.701C910.272 488.507 917.492 492.927 926.733 493.573Z" fill="url(#paint7_linear)"/>
<path opacity="0.2" d="M1036.84 425.181C1047.88 426.458 1057.28 423.614 1057.84 418.828C1058.39 414.043 1049.88 409.128 1038.84 407.851C1027.8 406.574 1018.4 409.419 1017.84 414.204C1017.29 418.99 1025.79 423.904 1036.84 425.181Z" fill="url(#paint8_linear)"/>
<path d="M544.405 539.918C553.299 539.918 560.509 536.613 560.509 532.537C560.509 528.461 553.299 525.156 544.405 525.156C535.512 525.156 528.302 528.461 528.302 532.537C528.302 536.613 535.512 539.918 544.405 539.918Z" fill="url(#paint9_linear)"/>
<path opacity="0.2" d="M244.103 613.761C252.997 613.761 260.207 610.457 260.207 606.381C260.207 602.304 252.997 599 244.103 599C235.21 599 228 602.304 228 606.381C228 610.457 235.21 613.761 244.103 613.761Z" fill="url(#paint10_linear)"/>
<path d="M380.943 473.366L382.144 473.143C395.734 470.719 407.834 472.273 412.814 476.644C413.683 477.407 430.201 496.451 430.201 496.451C419.829 508.039 407.169 515.58 392.222 519.075C377.275 522.571 360.534 520.375 342 512.489C342 512.489 352.762 487.968 353.385 487.062C357.272 481.405 367.857 475.91 380.943 473.366Z" fill="url(#paint11_linear)"/>
<path d="M385.168 495.102C399.355 492.344 410.11 486.275 409.191 481.546C408.272 476.817 396.026 475.219 381.84 477.977C367.653 480.735 356.897 486.804 357.817 491.533C358.736 496.262 370.982 497.86 385.168 495.102Z" fill="url(#paint12_linear)"/>
<path d="M820.848 562.731C822.33 562.731 823.532 561.529 823.532 560.047C823.532 558.564 822.33 557.363 820.848 557.363C819.366 557.363 818.164 558.564 818.164 560.047C818.164 561.529 819.366 562.731 820.848 562.731Z" fill="url(#paint13_linear)"/>
<path d="M794.008 484.897C796.232 484.897 798.034 483.095 798.034 480.872C798.034 478.648 796.232 476.846 794.008 476.846C791.785 476.846 789.982 478.648 789.982 480.872C789.982 483.095 791.785 484.897 794.008 484.897Z" fill="url(#paint14_linear)"/>
<path d="M929.546 533.208C931.77 533.208 933.572 531.406 933.572 529.182C933.572 526.959 931.77 525.156 929.546 525.156C927.323 525.156 925.521 526.959 925.521 529.182C925.521 531.406 927.323 533.208 929.546 533.208Z" fill="url(#paint15_linear)"/>
<path opacity="0.1" d="M718.729 570.63C726.312 572.381 732.999 571.458 733.666 568.57C734.333 565.681 728.727 561.92 721.144 560.17C713.562 558.419 706.874 559.342 706.208 562.23C705.541 565.119 711.147 568.88 718.729 570.63Z" fill="url(#paint16_linear)"/>
<g opacity="0.2" filter="url(#filter0_f)">
<path d="M430.987 437.265L529.949 511.044L579.955 497.543L831.982 631.057L865.985 611.555L814.48 518.545V440.036H861.485L872.486 410.033L825.609 403.764C686.283 407.93 553.505 419.501 430.987 437.265Z" fill="black"/>
</g>
<g opacity="0.4" filter="url(#filter1_f)">
<path d="M405.935 422.035L529.948 511.045L579.953 497.544L831.98 631.058L865.984 611.556L814.479 518.546V440.037H861.484L872.485 410.034L839.981 367.03C700.655 371.196 529.948 387.032 405.935 422.035Z" fill="black"/>
</g>
<g filter="url(#filter2_f)">
<path d="M391 415.857L529.949 511.044L608.457 585.552L554.951 504.293L579.954 497.542L831.981 631.057L865.985 611.555L814.479 518.544V440.036H861.484L864.133 386.829C643.627 307.869 507.142 346.181 391 415.857Z" fill="url(#paint17_linear)"/>
</g>
<path d="M690.491 429.525L703.423 416.18L735.924 421.008L749.612 440.671L690.491 429.525Z" fill="url(#paint18_linear)"/>
<path d="M877.086 443.039C893.104 443.039 906.089 435.203 906.089 425.537C906.089 415.871 893.104 408.035 877.086 408.035C861.068 408.035 848.083 415.871 848.083 425.537C848.083 435.203 861.068 443.039 877.086 443.039Z" fill="url(#paint19_linear)"/>
<path d="M789.301 356.534L875.094 421.58" stroke="#C4F3FF" stroke-width="16.0017" stroke-linecap="round" stroke-linejoin="round"/>
<path d="M553.05 517.049C569.068 517.049 582.053 509.213 582.053 499.547C582.053 489.881 569.068 482.045 553.05 482.045C537.032 482.045 524.047 489.881 524.047 499.547C524.047 509.213 537.032 517.049 553.05 517.049Z" fill="url(#paint20_linear)"/>
<path d="M620.557 388.592L552.747 493.131" stroke="#C4F3FF" stroke-width="16.0017" stroke-linecap="round" stroke-linejoin="round"/>
<path d="M539.085 258.141L585.337 278.734" stroke="#0EA9B7" stroke-width="2.00022" stroke-linecap="round" stroke-linejoin="round"/>
<path d="M524.15 245.474L570.403 266.067" stroke="#157E92" stroke-width="1.00011" stroke-linecap="round" stroke-linejoin="round"/>
<path d="M511.587 232.153L590.444 267.262" stroke="#48E0E2" stroke-width="2.00022" stroke-linecap="round" stroke-linejoin="round"/>
<path d="M549.481 234.792L595.734 255.385" stroke="#BAFEFF" stroke-width="2.00022" stroke-linecap="round" stroke-linejoin="round"/>
<path d="M579.969 241.797L598.175 249.903L598.175 290.522L564.918 275.602L564.813 260.904L579.969 241.797Z" fill="#5BD8FF"/>
<path opacity="0.23" d="M592.455 272.519L598.174 290.521L564.917 275.602L564.812 260.904L592.455 272.519Z" fill="url(#paint21_linear)"/>
<path d="M592.265 241.801L615.106 251.971L595.988 294.912L573.146 284.742L573.1 266.111L592.265 241.801Z" fill="url(#paint22_linear)"/>
<path d="M604.457 277.521L595.991 294.911L573.15 284.742L573.104 266.11L604.457 277.521Z" fill="url(#paint23_linear)"/>
<path d="M684.215 428.037L763.595 432.566L789.296 454.044L785.229 488.959L751.094 520.112L704.301 516.92L671.064 495.933L684.215 428.037Z" fill="url(#paint24_linear)"/>
<path opacity="0.3" d="M748.097 440.733L781.027 442.952L785.232 488.959L751.097 520.112L748.097 440.733Z" fill="#072E3B"/>
<path opacity="0.3" d="M684.215 428.037L704.301 442.952V516.92L671.064 495.933L684.215 428.037Z" fill="#072E3B"/>
<path opacity="0.3" d="M687.682 419.177L789.296 433.043L783.959 476.677L750.266 495.645L704.301 493.13L674.734 477.473L687.682 419.177Z" fill="black"/>
<path d="M619.26 432.742L604.797 364.138L857.675 322.027L846.434 408.473L838.18 435.871L769.077 484.807L678.351 479.022L619.26 432.742Z" fill="url(#paint25_linear)"/>
<path opacity="0.23" d="M769.076 368.176L843.347 329.028L838.179 435.872L769.076 484.807V368.176Z" fill="#072E3B"/>
<path opacity="0.4" d="M815.774 451.738L797.642 464.578L797.642 421.58L815.774 451.738Z" fill="black"/>
<path opacity="0.3" d="M619.26 432.743L604.797 364.138L657.55 378.061L678.351 479.022L619.26 432.743Z" fill="#072E3B"/>
<path d="M620.561 314.675L604.797 364.137L662.769 403.416L769.077 405.829L841.776 358.825L857.675 322.026L827.068 284.982L620.561 314.675Z" fill="url(#paint26_linear)"/>
<g opacity="0.2" filter="url(#filter3_f)">
<path d="M620.486 348.175L651.565 371.31L687.52 378.09L769.078 378.09L830.084 336.027V314.773L620.562 334.534L620.486 348.175Z" fill="black"/>
</g>
<g opacity="0.2" filter="url(#filter4_f)">
<path d="M620.486 348.175L651.565 371.31L687.52 378.09L769.078 378.09L830.084 336.027V314.773L620.562 334.534L620.486 348.175Z" fill="black"/>
</g>
<path opacity="0.2" d="M623.148 346.099L650.879 366.928L682.961 373.032L771.47 373.032L825.976 333.028V313.893L623.216 333.818L623.148 346.099Z" fill="black"/>
<path d="M835.154 312.225L843.082 330.426" stroke="#2B4246" stroke-width="2.00022" stroke-linecap="round" stroke-linejoin="round"/>
<path d="M653.074 181.505L649.544 159.863L675.993 170.684" stroke="#0D313D" stroke-width="2.00022" stroke-linecap="round" stroke-linejoin="round"/>
<path d="M685.804 151.008L625.798 194.013L808.344 341.619L868.35 298.614V236.712L816.421 171.005L685.804 151.008Z" fill="url(#paint27_linear)"/>
<path opacity="0.2" d="M761.97 185.512L774.471 190.512L788.972 182.512L783.767 166.005L751.113 161.006L761.97 185.512Z" fill="black"/>
<path d="M756.415 214.009L808.345 279.717L868.351 236.712L816.422 171.004L756.415 214.009Z" fill="#27738B"/>
<path opacity="0.3" d="M756.415 214.009L763.442 222.901L799.457 205.666L822.189 178.302L816.422 171.004L756.415 214.009Z" fill="#072E3B"/>
<path d="M625.801 194.011L585.013 238.838L595.041 300.894L611.023 332.868L647.436 359.845L693.949 368.174L775.163 365.96L808.347 341.618V279.715L756.418 214.008L625.801 194.011Z" fill="url(#paint28_linear)"/>
<path d="M712.493 320.432C713.967 320.609 715.09 321.184 715.864 322.159C716.654 323.116 717.074 324.344 717.123 325.842C717.172 327.324 716.834 328.577 716.11 329.601C715.386 330.625 714.303 331.282 712.861 331.571C712.461 331.649 712.003 331.696 711.487 331.713L707.186 331.855L707.386 337.921L704.487 338.016L703.912 320.618L711.113 320.381C711.628 320.363 712.088 320.381 712.493 320.432ZM712.36 328.83C713.015 328.647 713.487 328.285 713.775 327.743C714.063 327.185 714.196 326.584 714.175 325.94C714.154 325.295 713.981 324.713 713.658 324.191C713.334 323.67 712.839 323.339 712.174 323.2C711.881 323.129 711.517 323.101 711.082 323.115L706.902 323.253L707.096 329.125L711.276 328.987C711.711 328.972 712.072 328.92 712.36 328.83ZM726.991 322.589L727.133 326.891L734.02 326.663L734.109 329.369L727.223 329.597L727.385 334.526L735.722 334.251L735.812 336.981L724.576 337.353L724.001 319.955L735.237 319.583L735.328 322.314L726.991 322.589ZM760.628 336.161L757.898 336.252L757.529 325.088L752.582 336.427L751.422 336.466L745.714 325.503L746.082 336.642L743.351 336.732L742.776 319.334L745.386 319.248L751.834 331.372L757.444 318.85L760.054 318.763L760.628 336.161Z" fill="#0C8895"/>
<path opacity="0.2" d="M595.038 300.895L611.02 332.869L647.433 359.846L693.946 368.175L775.161 365.961L808.345 341.618L696.677 346.346L633.312 332.215L595.038 300.895Z" fill="#042732"/>
<path opacity="0.3" d="M625.801 194.011L585.013 238.838L634.991 268.509L697.071 286.686L808.347 279.715L756.418 214.008L625.801 194.011Z" fill="url(#paint29_linear)"/>
<path d="M600.573 238.877L640.397 260.929" stroke="#E8FF5E" stroke-width="3.00032" stroke-linecap="round" stroke-linejoin="round" stroke-dasharray="2 7"/>
<path opacity="0.2" d="M625.798 194.013L619.259 201.199L641.543 218.991L697.805 227.991L763.345 222.779L756.414 214.009L625.798 194.013Z" fill="#042732"/>
<path d="M662.292 419.036L607.059 584.029" stroke="#57E1FF" stroke-width="2.00022" stroke-linecap="round" stroke-linejoin="round"/>
<path d="M640.288 400.035L585.055 565.028" stroke="#57E1FF" stroke-width="2.00022" stroke-linecap="round" stroke-linejoin="round"/>
<path d="M591.275 547.644L612.672 567.834" stroke="#57E1FF" stroke-width="2.00022" stroke-linecap="round" stroke-linejoin="round"/>
<path d="M598.057 526.048L619.453 546.238" stroke="#57E1FF" stroke-width="2.00022" stroke-linecap="round" stroke-linejoin="round"/>
<path d="M605.058 505.046L626.454 525.237" stroke="#57E1FF" stroke-width="2.00022" stroke-linecap="round" stroke-linejoin="round"/>
<path d="M612.059 484.043L633.455 504.234" stroke="#57E1FF" stroke-width="2.00022" stroke-linecap="round" stroke-linejoin="round"/>
<path d="M620.059 461.042L641.455 481.233" stroke="#57E1FF" stroke-width="2.00022" stroke-linecap="round" stroke-linejoin="round"/>
<path d="M627.06 439.039L648.456 459.23" stroke="#57E1FF" stroke-width="2.00022" stroke-linecap="round" stroke-linejoin="round"/>
<path d="M635.062 416.036L656.458 436.227" stroke="#57E1FF" stroke-width="2.00022" stroke-linecap="round" stroke-linejoin="round"/>
<path d="M648.297 197.536L604.796 282.687L647.664 359.891L694.29 368.544L658.894 291.949L686.714 203.329L648.297 197.536Z" fill="url(#paint30_linear)"/>
<path opacity="0.804757" d="M604.796 282.687L647.664 359.891L694.29 368.544L658.894 291.949L604.796 282.687Z" fill="#072E3B"/>
<path opacity="0.1" d="M700.12 368.174L678.35 403.801L671.507 426.264L667.909 428.163L657.501 422.29L663.538 392.887L694.29 368.543L700.12 368.174Z" fill="#042732"/>
<path d="M611.806 405.83L620.559 388.592L647.663 359.891L694.29 368.544L665.548 406.819L658.894 432.693L611.806 405.83Z" fill="url(#paint31_linear)"/>
<path d="M611.806 405.829L620.559 388.591L665.548 406.818L658.894 432.693L611.806 405.829Z" fill="url(#paint32_linear)"/>
<path d="M648.906 208.974L613.986 277.586L653.777 284.982L675.993 213.486L648.906 208.974Z" fill="#52B7D7"/>
<path opacity="0.2" d="M651.979 213.015L674.95 216.842L653.776 284.983L618.673 278.457L651.979 213.015Z" fill="#072E3B"/>
<path d="M644.944 253.651C648.926 254.792 653.327 251.629 654.773 246.585C656.22 241.541 654.164 236.526 650.182 235.385C646.2 234.243 641.799 237.406 640.353 242.45C638.906 247.494 640.962 252.509 644.944 253.651Z" fill="#A2E9FF"/>
<path d="M697.805 227.99L694.29 368.544L658.894 291.949L686.713 203.329L697.805 227.99Z" fill="url(#paint33_linear)"/>
<path d="M635.143 322.149C632.402 316.214 637.549 309.676 643.961 310.946L649.626 312.068C656.885 313.506 663.01 318.349 666.082 325.081L674.18 342.822C676.844 348.658 671.901 355.098 665.575 354.035L660.521 353.185C653.026 351.924 646.637 347.043 643.451 340.143L635.143 322.149Z" fill="black"/>
<path d="M721.571 194.012C738.97 194.012 753.074 187.519 753.074 179.51C753.074 171.501 738.97 165.009 721.571 165.009C704.172 165.009 690.067 171.501 690.067 179.51C690.067 187.519 704.172 194.012 721.571 194.012Z" fill="#1C596C"/>
<path d="M721.57 191.013C735.102 191.013 746.073 185.864 746.073 179.512C746.073 173.16 735.102 168.01 721.57 168.01C708.038 168.01 697.067 173.16 697.067 179.512C697.067 185.864 708.038 191.013 721.57 191.013Z" fill="#072E3B"/>
<path d="M721.57 178.011C731.284 178.011 739.678 180.665 743.641 184.512C739.678 188.359 731.284 191.013 721.57 191.013C711.855 191.013 703.461 188.359 699.498 184.512C703.461 180.665 711.855 178.011 721.57 178.011Z" fill="black"/>
<path opacity="0.5" d="M824.681 244.978C831.707 240.588 832.658 229.434 826.804 220.066C820.95 210.698 810.508 206.662 803.482 211.053C796.456 215.443 795.505 226.597 801.359 235.965C807.213 245.333 817.655 249.369 824.681 244.978Z" fill="#072E3B"/>
<path opacity="0.6" d="M798.638 217.69C805.364 215.91 813.775 220.022 818.802 228.068C822.612 234.164 823.54 241.017 821.787 246.27C815.018 248.231 806.452 244.117 801.359 235.966C797.549 229.869 796.621 223.016 798.375 217.763L798.638 217.69Z" fill="black"/>
<path d="M704.964 279.584L782.525 273.021" stroke="#E8FF5E" stroke-width="3.00032" stroke-linecap="round" stroke-linejoin="round" stroke-dasharray="2 7"/>
<rect width="36.0039" height="20.0022" transform="matrix(0.809014 -0.587789 0.587781 0.80902 625.622 158.499)" fill="url(#paint34_linear)"/>
<path opacity="0.5" d="M625.622 158.499L640.186 147.917L651.943 164.099L637.379 174.681L625.622 158.499Z" fill="#072E3B"/>
<path opacity="0.5" d="M769.076 325.76C769.076 323.915 770.509 322.386 772.351 322.267C774.369 322.137 776.077 323.738 776.077 325.76V332.295C776.077 334.141 774.644 335.669 772.802 335.788C770.784 335.918 769.076 334.317 769.076 332.295V325.76Z" fill="#072E3B"/>
<path opacity="0.5" d="M782.076 327.693C782.076 326.374 783.1 325.282 784.415 325.198C785.857 325.105 787.077 326.248 787.077 327.693V332.36C787.077 333.679 786.053 334.77 784.737 334.855C783.296 334.948 782.076 333.804 782.076 332.36V327.693Z" fill="#072E3B"/>
<path opacity="0.5" d="M792.077 326.694C792.077 325.375 793.101 324.283 794.416 324.199C795.858 324.106 797.078 325.249 797.078 326.694V331.361C797.078 332.68 796.054 333.771 794.738 333.856C793.297 333.949 792.077 332.805 792.077 331.361V326.694Z" fill="#072E3B"/>
<path d="M621.731 299.848C623.052 299.445 623.599 297.404 622.953 295.292C622.307 293.179 620.713 291.793 619.392 292.197C618.071 292.601 617.525 294.641 618.171 296.754C618.817 298.866 620.411 300.252 621.731 299.848Z" fill="#A2E9FF"/>
<path d="M637.731 301.85C639.052 301.446 639.599 299.406 638.953 297.293C638.307 295.18 636.713 293.795 635.392 294.199C634.071 294.602 633.525 296.642 634.171 298.755C634.817 300.868 636.411 302.254 637.731 301.85Z" fill="#A2E9FF"/>
<path d="M652.732 303.849C654.053 303.446 654.6 301.406 653.954 299.293C653.308 297.18 651.713 295.794 650.393 296.198C649.072 296.602 648.526 298.642 649.172 300.755C649.818 302.868 651.412 304.253 652.732 303.849Z" fill="#A2E9FF"/>
<path d="M757.075 359.03L766.076 354.029L787.078 386.789L769.076 396.393L757.075 359.03Z" fill="#105769"/>
<path d="M618.673 332.215L610.526 358.002L620.56 364.138V336.077L618.673 332.215Z" fill="black"/>
<path d="M629.122 388.591V373.144L646.575 354.03V368.544" stroke="#00A7A1" stroke-width="2.00022" stroke-linecap="round" stroke-linejoin="round"/>
<path d="M665.761 401.284V385.837L687.519 360.03V374.543" stroke="#00A7A1" stroke-width="2.00022" stroke-linecap="round" stroke-linejoin="round"/>
<path d="M747.076 359.891V396.292" stroke="#2B4246" stroke-width="2.00022" stroke-linecap="round" stroke-linejoin="round"/>
<path d="M866.086 650.062C885.97 650.062 902.09 640.435 902.09 628.56C902.09 616.684 885.97 607.057 866.086 607.057C846.202 607.057 830.082 616.684 830.082 628.56C830.082 640.435 846.202 650.062 866.086 650.062Z" fill="url(#paint35_linear)"/>
<path d="M805.08 422.037L865.233 622.167" stroke="#C4F3FF" stroke-width="16.0017" stroke-linecap="round" stroke-linejoin="round"/>
<path d="M790.278 143.625L808.345 117.26" stroke="#48E0E2" stroke-width="2.00022" stroke-linecap="round" stroke-linejoin="round"/>
<g filter="url(#filter5_f)">
<path d="M808.976 136.007C819.47 136.007 827.978 127.499 827.978 117.004C827.978 106.51 819.47 98.0024 808.976 98.0024C798.481 98.0024 789.974 106.51 789.974 117.004C789.974 127.499 798.481 136.007 808.976 136.007Z" fill="#FFFEF5"/>
</g>
<g opacity="0.6" filter="url(#filter6_f)">
<path d="M808.974 156.008C830.515 156.008 847.978 138.546 847.978 117.004C847.978 95.4628 830.515 78 808.974 78C787.433 78 769.97 95.4628 769.97 117.004C769.97 138.546 787.433 156.008 808.974 156.008Z" fill="#24B2FF"/>
</g>
<path d="M809.08 121.005C811.289 121.005 813.08 119.213 813.08 117.004C813.08 114.795 811.289 113.004 809.08 113.004C806.87 113.004 805.079 114.795 805.079 117.004C805.079 119.213 806.87 121.005 809.08 121.005Z" fill="#E9EAFF"/>
<path d="M808.977 137.006C820.024 137.006 828.979 128.05 828.979 117.003C828.979 105.956 820.024 97.0012 808.977 97.0012C797.93 97.0012 788.975 105.956 788.975 117.003C788.975 128.05 797.93 137.006 808.977 137.006Z" stroke="#3EBBFF" stroke-width="1.00011"/>
<path d="M761.237 184.51L769.082 170.358C769.731 169.187 771.326 168.972 772.262 169.93L779.531 177.369" stroke="#0D313D" stroke-width="2.00022" stroke-linecap="round" stroke-linejoin="round"/>
<path d="M770.669 176.401C769.063 175.461 768.076 173.739 768.076 171.878V130.388C768.076 130.388 806.864 129.016 812.479 156.386L775.837 176.474C774.221 177.36 772.259 177.332 770.669 176.401Z" fill="url(#paint36_linear)"/>
<path d="M804.066 161L775.852 176.467C774.227 177.358 772.254 177.33 770.654 176.394C769.057 175.459 768.076 173.747 768.076 171.897L768.077 140.068C787.298 140.785 799.294 147.762 804.066 161Z" fill="url(#paint37_linear)"/>
<path opacity="0.3" d="M802.321 140.087C807.15 143.866 810.987 149.111 812.48 156.387L774.346 177.293C773.656 177.672 772.818 177.66 772.139 177.262L802.321 140.087Z" fill="black"/>
<path opacity="0.3" d="M778.077 174.009C779.735 174.009 781.078 172.666 781.078 171.009C781.078 169.352 779.735 168.009 778.077 168.009C776.42 168.009 775.077 169.352 775.077 171.009C775.077 172.666 776.42 174.009 778.077 174.009Z" fill="#A2E9FF"/>
<path d="M774.848 190.779L777.412 173.4C777.667 171.677 779.849 171.079 780.945 172.433L789.302 182.747" stroke="#0D313D" stroke-width="2.00022" stroke-linecap="round" stroke-linejoin="round"/>
<defs>
<filter id="filter0_f" x="399.984" y="372.761" width="503.505" height="289.3" filterUnits="userSpaceOnUse" color-interpolation-filters="sRGB">
<feFlood flood-opacity="0" result="BackgroundImageFix"/>
<feBlend mode="normal" in="SourceGraphic" in2="BackgroundImageFix" result="shape"/>
<feGaussianBlur stdDeviation="15.5017" result="effect1_foregroundBlur"/>
</filter>
<filter id="filter1_f" x="355.929" y="317.024" width="566.561" height="364.039" filterUnits="userSpaceOnUse" color-interpolation-filters="sRGB">
<feFlood flood-opacity="0" result="BackgroundImageFix"/>
<feBlend mode="normal" in="SourceGraphic" in2="BackgroundImageFix" result="shape"/>
<feGaussianBlur stdDeviation="25.0027" result="effect1_foregroundBlur"/>
</filter>
<filter id="filter2_f" x="382.999" y="334.858" width="490.986" height="304.2" filterUnits="userSpaceOnUse" color-interpolation-filters="sRGB">
<feFlood flood-opacity="0" result="BackgroundImageFix"/>
<feBlend mode="normal" in="SourceGraphic" in2="BackgroundImageFix" result="shape"/>
<feGaussianBlur stdDeviation="4.00043" result="effect1_foregroundBlur"/>
</filter>
<filter id="filter3_f" x="614.486" y="308.772" width="221.599" height="75.3184" filterUnits="userSpaceOnUse" color-interpolation-filters="sRGB">
<feFlood flood-opacity="0" result="BackgroundImageFix"/>
<feBlend mode="normal" in="SourceGraphic" in2="BackgroundImageFix" result="shape"/>
<feGaussianBlur stdDeviation="3.00032" result="effect1_foregroundBlur"/>
</filter>
<filter id="filter4_f" x="589.483" y="283.77" width="271.605" height="125.324" filterUnits="userSpaceOnUse" color-interpolation-filters="sRGB">
<feFlood flood-opacity="0" result="BackgroundImageFix"/>
<feBlend mode="normal" in="SourceGraphic" in2="BackgroundImageFix" result="shape"/>
<feGaussianBlur stdDeviation="15.5017" result="effect1_foregroundBlur"/>
</filter>
<filter id="filter5_f" x="758.97" y="66.9991" width="100.011" height="100.011" filterUnits="userSpaceOnUse" color-interpolation-filters="sRGB">
<feFlood flood-opacity="0" result="BackgroundImageFix"/>
<feBlend mode="normal" in="SourceGraphic" in2="BackgroundImageFix" result="shape"/>
<feGaussianBlur stdDeviation="15.5017" result="effect1_foregroundBlur"/>
</filter>
<filter id="filter6_f" x="692.961" y="0.991707" width="232.025" height="232.025" filterUnits="userSpaceOnUse" color-interpolation-filters="sRGB">
<feFlood flood-opacity="0" result="BackgroundImageFix"/>
<feBlend mode="normal" in="SourceGraphic" in2="BackgroundImageFix" result="shape"/>
<feGaussianBlur stdDeviation="38.5041" result="effect1_foregroundBlur"/>
</filter>
<linearGradient id="paint0_linear" x1="438.18" y1="396.839" x2="432.594" y2="439.844" gradientUnits="userSpaceOnUse">
<stop stop-color="#28674F"/>
<stop offset="1" stop-color="#123635"/>
</linearGradient>
<linearGradient id="paint1_linear" x1="60.15" y1="475.772" x2="66.3481" y2="518.918" gradientUnits="userSpaceOnUse">
<stop stop-color="#28674F"/>
<stop offset="1" stop-color="#123635"/>
</linearGradient>
<radialGradient id="paint2_radial" cx="0" cy="0" r="1" gradientUnits="userSpaceOnUse" gradientTransform="translate(595 450) rotate(90.594) scale(530.528 1730.04)">
<stop stop-color="#296B67"/>
<stop offset="1" stop-color="#132331" stop-opacity="0"/>
</radialGradient>
<radialGradient id="paint3_radial" cx="0" cy="0" r="1" gradientUnits="userSpaceOnUse" gradientTransform="translate(1035.98 631.512) rotate(-82.898) scale(101.201 294.089)">
<stop offset="0.51211" stop-color="#2E898E" stop-opacity="0.01"/>
<stop offset="1" stop-color="#3AC8C4"/>
</radialGradient>
<linearGradient id="paint4_linear" x1="1053.98" y1="491.425" x2="1055.23" y2="585.629" gradientUnits="userSpaceOnUse">
<stop stop-color="#28674F" stop-opacity="0.01"/>
<stop offset="1"/>
</linearGradient>
<radialGradient id="paint5_radial" cx="0" cy="0" r="1" gradientUnits="userSpaceOnUse" gradientTransform="translate(94.9298 605.835) rotate(-107.071) scale(66.4267 169.955)">
<stop offset="0.51211" stop-color="#2E898E" stop-opacity="0.01"/>
<stop offset="1" stop-color="#3AC8C4"/>
</radialGradient>
<linearGradient id="paint6_linear" x1="67.4296" y1="517.335" x2="82.4295" y2="577.835" gradientUnits="userSpaceOnUse">
<stop stop-color="#28674F" stop-opacity="0.01"/>
<stop offset="1"/>
</linearGradient>
<linearGradient id="paint7_linear" x1="872.825" y1="422.278" x2="874.347" y2="467.407" gradientUnits="userSpaceOnUse">
<stop stop-color="#28674F"/>
<stop offset="1"/>
</linearGradient>
<linearGradient id="paint8_linear" x1="974.54" y1="350.168" x2="973.24" y2="395.378" gradientUnits="userSpaceOnUse">
<stop stop-color="#28674F"/>
<stop offset="1"/>
</linearGradient>
<linearGradient id="paint9_linear" x1="579.953" y1="550.15" x2="578.547" y2="523.364" gradientUnits="userSpaceOnUse">
<stop stop-color="#28674F" stop-opacity="0.01"/>
<stop offset="1" stop-color="#123635"/>
</linearGradient>
<linearGradient id="paint10_linear" x1="187.703" y1="556.764" x2="191.191" y2="594.858" gradientUnits="userSpaceOnUse">
<stop stop-color="#28674F"/>
<stop offset="1"/>
</linearGradient>
<linearGradient id="paint11_linear" x1="434.036" y1="518.113" x2="431.167" y2="475.056" gradientUnits="userSpaceOnUse">
<stop stop-color="#28674F" stop-opacity="0.01"/>
<stop offset="1" stop-color="#123635"/>
</linearGradient>
<linearGradient id="paint12_linear" x1="437.726" y1="499.219" x2="431.263" y2="465.97" gradientUnits="userSpaceOnUse">
<stop stop-color="#28674F" stop-opacity="0.01"/>
<stop offset="1"/>
</linearGradient>
<linearGradient id="paint13_linear" x1="822.9" y1="562.879" x2="823.198" y2="558.18" gradientUnits="userSpaceOnUse">
<stop stop-color="#28674F" stop-opacity="0.01"/>
<stop offset="1" stop-color="#123635"/>
</linearGradient>
<linearGradient id="paint14_linear" x1="797.087" y1="485.121" x2="797.533" y2="478.071" gradientUnits="userSpaceOnUse">
<stop stop-color="#28674F" stop-opacity="0.01"/>
<stop offset="1" stop-color="#123635"/>
</linearGradient>
<linearGradient id="paint15_linear" x1="932.625" y1="533.431" x2="933.071" y2="526.381" gradientUnits="userSpaceOnUse">
<stop stop-color="#28674F" stop-opacity="0.01"/>
<stop offset="1" stop-color="#123635"/>
</linearGradient>
<linearGradient id="paint16_linear" x1="679.969" y1="519.138" x2="675.78" y2="546.678" gradientUnits="userSpaceOnUse">
<stop stop-color="#28674F"/>
<stop offset="1"/>
</linearGradient>
<linearGradient id="paint17_linear" x1="694.968" y1="595.552" x2="535.951" y2="421.033" gradientUnits="userSpaceOnUse">
<stop stop-opacity="0.51"/>
<stop offset="1" stop-opacity="0.06"/>
</linearGradient>
<linearGradient id="paint18_linear" x1="683.746" y1="377.124" x2="672.28" y2="437.842" gradientUnits="userSpaceOnUse">
<stop stop-color="#28674F"/>
<stop offset="1" stop-color="#123635"/>
</linearGradient>
<linearGradient id="paint19_linear" x1="877.086" y1="408.035" x2="877.086" y2="443.039" gradientUnits="userSpaceOnUse">
<stop stop-color="#3A7F95"/>
<stop offset="1" stop-color="#3489A4"/>
</linearGradient>
<linearGradient id="paint20_linear" x1="553.05" y1="482.045" x2="553.05" y2="517.049" gradientUnits="userSpaceOnUse">
<stop stop-color="#78D2EE"/>
<stop offset="1" stop-color="#5FC3E2"/>
</linearGradient>
<linearGradient id="paint21_linear" x1="554.515" y1="247.734" x2="556.202" y2="291.787" gradientUnits="userSpaceOnUse">
<stop stop-color="#05484F"/>
<stop offset="1" stop-color="#051F25"/>
</linearGradient>
<linearGradient id="paint22_linear" x1="567.505" y1="250.265" x2="582.165" y2="299.099" gradientUnits="userSpaceOnUse">
<stop stop-color="#139BA9"/>
<stop offset="1" stop-color="#051F25"/>
</linearGradient>
<linearGradient id="paint23_linear" x1="567.509" y1="250.265" x2="582.169" y2="299.098" gradientUnits="userSpaceOnUse">
<stop stop-color="#05484F"/>
<stop offset="1" stop-color="#051F25"/>
</linearGradient>
<linearGradient id="paint24_linear" x1="811.541" y1="503.884" x2="742.666" y2="555.097" gradientUnits="userSpaceOnUse">
<stop stop-color="#027466"/>
<stop offset="1" stop-color="#919B99"/>
</linearGradient>
<linearGradient id="paint25_linear" x1="545.759" y1="310.138" x2="722.258" y2="298.966" gradientUnits="userSpaceOnUse">
<stop stop-color="#062881"/>
<stop offset="1" stop-color="#56D6FF"/>
</linearGradient>
<linearGradient id="paint26_linear" x1="670.46" y1="323.526" x2="731.236" y2="405.829" gradientUnits="userSpaceOnUse">
<stop stop-color="#7ED2EC"/>
<stop offset="1" stop-color="#CCF3FF"/>
</linearGradient>
<linearGradient id="paint27_linear" x1="913.985" y1="308.025" x2="771.778" y2="412.811" gradientUnits="userSpaceOnUse">
<stop stop-color="#027466"/>
<stop offset="1" stop-color="#12E2EF"/>
</linearGradient>
<linearGradient id="paint28_linear" x1="532.872" y1="181.292" x2="688.949" y2="173.137" gradientUnits="userSpaceOnUse">
<stop stop-color="#066A81"/>
<stop offset="1" stop-color="#12E2EF"/>
</linearGradient>
<linearGradient id="paint29_linear" x1="711.647" y1="183.021" x2="634.27" y2="318.795" gradientUnits="userSpaceOnUse">
<stop stop-color="#042635"/>
<stop offset="1" stop-color="#001431"/>
</linearGradient>
<linearGradient id="paint30_linear" x1="573.094" y1="262.305" x2="694.389" y2="368.604" gradientUnits="userSpaceOnUse">
<stop stop-color="#066D77"/>
<stop offset="1" stop-color="#051F25"/>
</linearGradient>
<linearGradient id="paint31_linear" x1="653.048" y1="359.891" x2="653.048" y2="432.693" gradientUnits="userSpaceOnUse">
<stop stop-color="#CAECFF"/>
<stop offset="1" stop-color="#6CCAFF"/>
</linearGradient>
<linearGradient id="paint32_linear" x1="638.677" y1="388.591" x2="638.677" y2="432.693" gradientUnits="userSpaceOnUse">
<stop stop-color="#24B2FF"/>
<stop offset="1" stop-color="#6CCAFF"/>
</linearGradient>
<linearGradient id="paint33_linear" x1="649.809" y1="191.262" x2="678.34" y2="322.909" gradientUnits="userSpaceOnUse">
<stop stop-color="#119AB8"/>
<stop offset="1" stop-color="#B6FBFF"/>
</linearGradient>
<linearGradient id="paint34_linear" x1="-12.7537" y1="7.57583" x2="-4.19964" y2="33.36" gradientUnits="userSpaceOnUse">
<stop stop-color="#066D77"/>
<stop offset="1" stop-color="#248094"/>
</linearGradient>
<linearGradient id="paint35_linear" x1="866.086" y1="607.057" x2="866.086" y2="650.062" gradientUnits="userSpaceOnUse">
<stop stop-color="#78D2EE"/>
<stop offset="1" stop-color="#5FC3E2"/>
</linearGradient>
<linearGradient id="paint36_linear" x1="798.473" y1="174.009" x2="768.971" y2="171.625" gradientUnits="userSpaceOnUse">
<stop stop-color="#11B1BB"/>
<stop offset="1" stop-color="#CDF3FF"/>
</linearGradient>
<linearGradient id="paint37_linear" x1="764.97" y1="154.508" x2="791.473" y2="173.51" gradientUnits="userSpaceOnUse">
<stop stop-color="#3FEAD5"/>
<stop offset="0.961309" stop-color="#034E53"/>
</linearGradient>
</defs>
</svg>
