<svg width="423" height="649" viewBox="0 0 423 649" fill="none" xmlns="http://www.w3.org/2000/svg">
<path d="M375.105 442C391.122 442 404.105 434.165 404.105 424.5C404.105 414.835 391.122 407 375.105 407C359.089 407 346.105 414.835 346.105 424.5C346.105 434.165 359.089 442 375.105 442Z" fill="url(#paint0_linear)"/>
<path d="M287.329 355.504L373.113 420.542" stroke="#C4F3FF" stroke-width="16" stroke-linecap="round" stroke-linejoin="round"/>
<path d="M51.1055 516C67.1217 516 80.1055 508.165 80.1055 498.5C80.1055 488.835 67.1217 481 51.1055 481C35.0892 481 22.1055 488.835 22.1055 498.5C22.1055 508.165 35.0892 516 51.1055 516Z" fill="url(#paint1_linear)"/>
<path d="M118.605 387.558L50.8027 492.085" stroke="#C4F3FF" stroke-width="16" stroke-linecap="round" stroke-linejoin="round"/>
<path d="M37.1355 257.123L83.3831 277.714" stroke="#0EA9B7" stroke-width="2" stroke-linecap="round" stroke-linejoin="round"/>
<path d="M22.2029 244.457L68.4505 265.048" stroke="#157E92" stroke-linecap="round" stroke-linejoin="round"/>
<path d="M9.6417 231.138L88.4897 266.243" stroke="#48E0E2" stroke-width="2" stroke-linecap="round" stroke-linejoin="round"/>
<path d="M47.53 233.776L93.7777 254.367" stroke="#BAFEFF" stroke-width="2" stroke-linecap="round" stroke-linejoin="round"/>
<path d="M78.014 240.781L96.218 248.886L96.218 289.5L62.9648 274.582L62.8599 259.886L78.014 240.781Z" fill="#5BD8FF"/>
<path opacity="0.23" d="M90.4995 271.5L96.2182 289.5L62.965 274.582L62.8601 259.886L90.4995 271.5Z" fill="url(#paint2_linear)"/>
<path d="M90.3123 240.784L113.151 250.952L94.0343 293.889L71.1957 283.72L71.1495 265.091L90.3123 240.784Z" fill="url(#paint3_linear)"/>
<path d="M102.5 276.5L94.0346 293.889L71.196 283.72L71.1497 265.091L102.5 276.5Z" fill="url(#paint4_linear)"/>
<path d="M182.255 427L261.626 431.528L287.325 453.004L283.258 487.915L249.126 519.065L202.339 515.873L169.105 494.888L182.255 427Z" fill="url(#paint5_linear)"/>
<path opacity="0.3" d="M246.127 439.695L279.054 441.913L283.259 487.915L249.127 519.065L246.127 439.695Z" fill="#072E3B"/>
<path opacity="0.3" d="M182.255 427L202.339 441.913V515.873L169.105 494.888L182.255 427Z" fill="#072E3B"/>
<path opacity="0.3" d="M185.722 418.14L287.324 432.004L281.988 475.633L248.299 494.599L202.338 492.085L172.775 476.429L185.722 418.14Z" fill="black"/>
<path d="M117.306 431.704L102.844 363.107L355.695 321L344.455 407.437L336.201 434.832L267.106 483.762L176.39 477.978L117.306 431.704Z" fill="url(#paint6_linear)"/>
<path opacity="0.23" d="M267.105 367.144L341.369 328L336.201 434.832L267.105 483.762L267.105 367.144Z" fill="#072E3B"/>
<path opacity="0.4" d="M313.797 450.698L295.667 463.537L295.667 420.542L313.797 450.698Z" fill="black"/>
<path opacity="0.3" d="M117.306 431.704L102.844 363.106L155.592 377.028L176.39 477.978L117.306 431.704Z" fill="#072E3B"/>
<path d="M118.606 313.65L102.844 363.107L160.809 402.381L267.106 404.794L339.798 357.795L355.695 321L325.091 283.96L118.606 313.65Z" fill="url(#paint7_linear)"/>
<g opacity="0.2" filter="url(#filter0_f)">
<path d="M118.53 347.147L149.606 370.279L185.556 377.059H267.106L328.106 335V313.749L118.606 333.508L118.53 347.147Z" fill="black"/>
</g>
<g opacity="0.2" filter="url(#filter1_f)">
<path d="M118.53 347.147L149.606 370.279L185.556 377.059H267.106L328.106 335V313.749L118.606 333.508L118.53 347.147Z" fill="black"/>
</g>
<path opacity="0.2" d="M121.194 345.07L148.922 365.896L181 372H269.5L324 332V312.867L121.262 332.79L121.194 345.07Z" fill="black"/>
<path d="M333.179 311.199L341.106 329.397" stroke="#2B4246" stroke-width="2" stroke-linecap="round" stroke-linejoin="round"/>
<path d="M151.115 180.494L147.586 158.854L174.032 169.674" stroke="#0D313D" stroke-width="2" stroke-linecap="round" stroke-linejoin="round"/>
<path d="M183.844 150L123.844 193L306.37 340.59L366.37 297.59V235.695L314.446 169.994L183.844 150Z" fill="url(#paint8_linear)"/>
<path opacity="0.2" d="M260 184.5L272.5 189.5L287 181.5L281.795 164.996L249.145 159.997L260 184.5Z" fill="black"/>
<path d="M254.445 212.994L306.369 278.695L366.369 235.695L314.445 169.994L254.445 212.994Z" fill="#27738B"/>
<path opacity="0.3" d="M254.445 212.994L261.472 221.885L297.482 204.652L320.212 177.291L314.445 169.994L254.445 212.994Z" fill="#072E3B"/>
<path d="M123.844 193L83.0596 237.821L93.0866 299.871L109.067 331.841L145.476 358.815L191.984 367.144L273.19 364.93L306.37 340.59V278.695L254.446 212.994L123.844 193Z" fill="url(#paint9_linear)"/>
<path opacity="0.2" d="M93.0859 299.871L109.066 331.842L145.475 358.815L191.983 367.144L273.189 364.93L306.369 340.59L194.714 345.317L131.356 331.187L93.0859 299.871Z" fill="#042732"/>
<path opacity="0.3" d="M123.844 193L83.0596 237.821L133.032 267.49L195.106 285.665L306.37 278.695L254.446 212.994L123.844 193Z" fill="url(#paint10_linear)"/>
<path d="M98.6211 237.86L138.44 259.91" stroke="#E8FF5E" stroke-width="3" stroke-linecap="round" stroke-linejoin="round" stroke-dasharray="2 7"/>
<path opacity="0.2" d="M123.844 193L117.306 200.185L139.588 217.976L195.844 226.974L261.376 221.763L254.446 212.994L123.844 193Z" fill="#042732"/>
<path d="M160.333 418L105.105 582.975" stroke="#57E1FF" stroke-width="2" stroke-linecap="round" stroke-linejoin="round"/>
<path d="M138.333 399L83.1055 563.975" stroke="#57E1FF" stroke-width="2" stroke-linecap="round" stroke-linejoin="round"/>
<path d="M89.3252 546.593L110.719 566.782" stroke="#57E1FF" stroke-width="2" stroke-linecap="round" stroke-linejoin="round"/>
<path d="M96.1055 525L117.5 545.188" stroke="#57E1FF" stroke-width="2" stroke-linecap="round" stroke-linejoin="round"/>
<path d="M103.105 504L124.5 524.188" stroke="#57E1FF" stroke-width="2" stroke-linecap="round" stroke-linejoin="round"/>
<path d="M110.105 483L131.5 503.188" stroke="#57E1FF" stroke-width="2" stroke-linecap="round" stroke-linejoin="round"/>
<path d="M118.105 460L139.5 480.188" stroke="#57E1FF" stroke-width="2" stroke-linecap="round" stroke-linejoin="round"/>
<path d="M125.105 438L146.5 458.188" stroke="#57E1FF" stroke-width="2" stroke-linecap="round" stroke-linejoin="round"/>
<path d="M133.105 415L154.5 435.188" stroke="#57E1FF" stroke-width="2" stroke-linecap="round" stroke-linejoin="round"/>
<path d="M146.34 196.522L102.844 281.665L145.707 358.86L192.329 367.513L156.936 290.926L184.753 202.315L146.34 196.522Z" fill="url(#paint11_linear)"/>
<path opacity="0.804757" d="M102.844 281.665L145.707 358.86L192.329 367.512L156.936 290.926L102.844 281.665Z" fill="#072E3B"/>
<path opacity="0.1" d="M198.157 367.144L176.39 402.766L169.548 425.227L165.949 427.126L155.543 421.254L161.579 391.854L192.329 367.512L198.157 367.144Z" fill="#042732"/>
<path d="M109.853 404.794L118.605 387.558L145.706 358.86L192.328 367.512L163.589 405.783L156.935 431.655L109.853 404.794Z" fill="url(#paint12_linear)"/>
<path d="M109.853 404.794L118.605 387.558L163.589 405.783L156.935 431.655L109.853 404.794Z" fill="url(#paint13_linear)"/>
<path d="M146.948 207.96L112.032 276.565L151.819 283.96L174.032 212.471L146.948 207.96Z" fill="#52B7D7"/>
<path opacity="0.2" d="M150.021 212L172.99 215.826L151.819 283.96L116.719 277.435L150.021 212Z" fill="#072E3B"/>
<path d="M142.987 252.632C146.969 253.774 151.369 250.611 152.815 245.567C154.261 240.524 152.206 235.51 148.224 234.368C144.242 233.226 139.842 236.389 138.396 241.433C136.95 246.476 139.005 251.49 142.987 252.632Z" fill="#A2E9FF"/>
<path d="M195.843 226.974L192.328 367.513L156.936 290.926L184.752 202.315L195.843 226.974Z" fill="url(#paint14_linear)"/>
<path d="M133.187 321.122C130.447 315.188 135.593 308.651 142.004 309.921L147.669 311.043C154.927 312.481 161.051 317.323 164.123 324.054L172.22 341.794C174.884 347.629 169.941 354.068 163.616 353.005L158.562 352.155C151.068 350.895 144.68 346.014 141.495 339.115L133.187 321.122Z" fill="black"/>
<path d="M219.605 193C237.002 193 251.105 186.508 251.105 178.5C251.105 170.492 237.002 164 219.605 164C202.208 164 188.105 170.492 188.105 178.5C188.105 186.508 202.208 193 219.605 193Z" fill="#1C596C"/>
<path d="M219.605 190C233.136 190 244.105 184.851 244.105 178.5C244.105 172.149 233.136 167 219.605 167C206.074 167 195.105 172.149 195.105 178.5C195.105 184.851 206.074 190 219.605 190Z" fill="#072E3B"/>
<path d="M219.605 177C229.318 177 237.711 179.653 241.674 183.5C237.711 187.347 229.318 190 219.605 190C209.892 190 201.499 187.347 197.536 183.5C201.499 179.653 209.892 177 219.605 177Z" fill="black"/>
<path opacity="0.5" d="M322.704 243.961C329.729 239.571 330.679 228.418 324.826 219.051C318.973 209.684 308.532 205.649 301.507 210.039C294.481 214.429 293.531 225.581 299.385 234.949C305.238 244.316 315.678 248.351 322.704 243.961Z" fill="#072E3B"/>
<path opacity="0.6" d="M296.664 216.675C303.389 214.895 311.799 219.007 316.826 227.051C320.636 233.148 321.563 240 319.81 245.252C313.042 247.212 304.477 243.099 299.385 234.949C295.575 228.853 294.648 222 296.401 216.748L296.664 216.675Z" fill="black"/>
<path d="M203 278.561L280.553 272" stroke="#E8FF5E" stroke-width="3" stroke-linecap="round" stroke-linejoin="round" stroke-dasharray="2 7"/>
<rect width="36" height="20" transform="matrix(0.809015 -0.587788 0.587783 0.809019 123.665 157.49)" fill="url(#paint15_linear)"/>
<path opacity="0.5" d="M123.666 157.49L138.228 146.91L149.984 163.09L135.422 173.67L123.666 157.49Z" fill="#072E3B"/>
<path opacity="0.5" d="M267.105 324.733C267.105 322.888 268.538 321.359 270.38 321.24C272.398 321.11 274.105 322.711 274.105 324.733V331.267C274.105 333.112 272.672 334.641 270.831 334.76C268.813 334.89 267.105 333.289 267.105 331.267V324.733Z" fill="#072E3B"/>
<path opacity="0.5" d="M280.105 326.666C280.105 325.348 281.129 324.257 282.445 324.172C283.886 324.079 285.105 325.222 285.105 326.666V331.334C285.105 332.652 284.082 333.743 282.766 333.828C281.325 333.921 280.105 332.778 280.105 331.334V326.666Z" fill="#072E3B"/>
<path opacity="0.5" d="M290.105 325.666C290.105 324.348 291.129 323.257 292.445 323.172C293.886 323.079 295.105 324.222 295.105 325.666V330.334C295.105 331.652 294.082 332.743 292.766 332.828C291.325 332.921 290.105 331.778 290.105 330.334V325.666Z" fill="#072E3B"/>
<path d="M119.776 298.825C121.096 298.422 121.643 296.382 120.997 294.269C120.351 292.157 118.757 290.771 117.437 291.175C116.116 291.579 115.569 293.618 116.215 295.731C116.861 297.844 118.455 299.229 119.776 298.825Z" fill="#A2E9FF"/>
<path d="M135.776 300.825C137.096 300.422 137.643 298.382 136.997 296.269C136.351 294.157 134.757 292.771 133.437 293.175C132.116 293.579 131.569 295.618 132.215 297.731C132.861 299.844 134.455 301.229 135.776 300.825Z" fill="#A2E9FF"/>
<path d="M150.776 302.825C152.096 302.422 152.643 300.382 151.997 298.269C151.351 296.157 149.757 294.771 148.437 295.175C147.116 295.579 146.569 297.618 147.215 299.731C147.861 301.844 149.455 303.229 150.776 302.825Z" fill="#A2E9FF"/>
<path d="M255.105 358L264.105 353L285.105 385.756L267.105 395.359L255.105 358Z" fill="#105769"/>
<path d="M116.719 331.188L108.573 356.972L118.606 363.107V335.049L116.719 331.188Z" fill="black"/>
<path d="M127.166 387.558V372.112L144.617 353V367.512" stroke="#00A7A1" stroke-width="2" stroke-linecap="round" stroke-linejoin="round"/>
<path d="M163.801 400.25V384.805L185.557 359V373.512" stroke="#00A7A1" stroke-width="2" stroke-linecap="round" stroke-linejoin="round"/>
<path d="M245.106 358.86V395.257" stroke="#2B4246" stroke-width="2" stroke-linecap="round" stroke-linejoin="round"/>
<path d="M364.105 649C383.988 649 400.105 639.374 400.105 627.5C400.105 615.626 383.988 606 364.105 606C344.223 606 328.105 615.626 328.105 627.5C328.105 639.374 344.223 649 364.105 649Z" fill="url(#paint16_linear)"/>
<path d="M303.105 421L363.252 621.109" stroke="#C4F3FF" stroke-width="16" stroke-linecap="round" stroke-linejoin="round"/>
<path d="M288.305 142.619L306.37 116.257" stroke="#48E0E2" stroke-width="2" stroke-linecap="round" stroke-linejoin="round"/>
<g filter="url(#filter2_f)">
<path d="M307 135C317.493 135 326 126.493 326 116C326 105.507 317.493 97 307 97C296.507 97 288 105.507 288 116C288 126.493 296.507 135 307 135Z" fill="#FFFEF5"/>
</g>
<g opacity="0.6" filter="url(#filter3_f)">
<path d="M307 155C328.539 155 346 137.539 346 116C346 94.4609 328.539 77 307 77C285.461 77 268 94.4609 268 116C268 137.539 285.461 155 307 155Z" fill="#24B2FF"/>
</g>
<path d="M307.105 120C309.315 120 311.105 118.209 311.105 116C311.105 113.791 309.315 112 307.105 112C304.896 112 303.105 113.791 303.105 116C303.105 118.209 304.896 120 307.105 120Z" fill="#E9EAFF"/>
<path d="M307 136C318.046 136 327 127.046 327 116C327 104.954 318.046 96 307 96C295.954 96 287 104.954 287 116C287 127.046 295.954 136 307 136Z" stroke="#3EBBFF"/>
<path d="M259.267 183.5L267.11 169.35C267.759 168.178 269.354 167.963 270.29 168.921L277.558 176.36" stroke="#0D313D" stroke-width="2" stroke-linecap="round" stroke-linejoin="round"/>
<path d="M268.698 175.392C267.092 174.451 266.105 172.73 266.105 170.869V129.383C266.105 129.383 304.889 128.011 310.504 155.378L273.865 175.464C272.25 176.35 270.288 176.322 268.698 175.392Z" fill="url(#paint17_linear)"/>
<path d="M302.091 159.991L273.881 175.456C272.256 176.347 270.283 176.319 268.683 175.383C267.087 174.448 266.105 172.737 266.105 170.887L266.106 139.062C285.325 139.778 297.32 146.755 302.091 159.991Z" fill="url(#paint18_linear)"/>
<path opacity="0.3" d="M300.346 139.08C305.175 142.859 309.011 148.103 310.504 155.379L272.374 176.282C271.684 176.661 270.846 176.649 270.167 176.251L300.346 139.08Z" fill="black"/>
<path opacity="0.3" d="M276.105 173C277.762 173 279.105 171.657 279.105 170C279.105 168.343 277.762 167 276.105 167C274.449 167 273.105 168.343 273.105 170C273.105 171.657 274.449 173 276.105 173Z" fill="#A2E9FF"/>
<path d="M272.876 189.767L275.44 172.39C275.695 170.667 277.877 170.07 278.973 171.423L287.329 181.736" stroke="#0D313D" stroke-width="2" stroke-linecap="round" stroke-linejoin="round"/>
<defs>
<filter id="filter0_f" x="112.53" y="307.749" width="221.575" height="75.3102" filterUnits="userSpaceOnUse" color-interpolation-filters="sRGB">
<feFlood flood-opacity="0" result="BackgroundImageFix"/>
<feBlend mode="normal" in="SourceGraphic" in2="BackgroundImageFix" result="shape"/>
<feGaussianBlur stdDeviation="3" result="effect1_foregroundBlur"/>
</filter>
<filter id="filter1_f" x="87.5303" y="282.749" width="271.575" height="125.31" filterUnits="userSpaceOnUse" color-interpolation-filters="sRGB">
<feFlood flood-opacity="0" result="BackgroundImageFix"/>
<feBlend mode="normal" in="SourceGraphic" in2="BackgroundImageFix" result="shape"/>
<feGaussianBlur stdDeviation="15.5" result="effect1_foregroundBlur"/>
</filter>
<filter id="filter2_f" x="257" y="66" width="100" height="100" filterUnits="userSpaceOnUse" color-interpolation-filters="sRGB">
<feFlood flood-opacity="0" result="BackgroundImageFix"/>
<feBlend mode="normal" in="SourceGraphic" in2="BackgroundImageFix" result="shape"/>
<feGaussianBlur stdDeviation="15.5" result="effect1_foregroundBlur"/>
</filter>
<filter id="filter3_f" x="191" y="0" width="232" height="232" filterUnits="userSpaceOnUse" color-interpolation-filters="sRGB">
<feFlood flood-opacity="0" result="BackgroundImageFix"/>
<feBlend mode="normal" in="SourceGraphic" in2="BackgroundImageFix" result="shape"/>
<feGaussianBlur stdDeviation="38.5" result="effect1_foregroundBlur"/>
</filter>
<linearGradient id="paint0_linear" x1="375.105" y1="407" x2="375.105" y2="442" gradientUnits="userSpaceOnUse">
<stop stop-color="#3A7F95"/>
<stop offset="1" stop-color="#3489A4"/>
</linearGradient>
<linearGradient id="paint1_linear" x1="51.1055" y1="481" x2="51.1055" y2="516" gradientUnits="userSpaceOnUse">
<stop stop-color="#78D2EE"/>
<stop offset="1" stop-color="#5FC3E2"/>
</linearGradient>
<linearGradient id="paint2_linear" x1="52.5635" y1="246.718" x2="54.2505" y2="290.766" gradientUnits="userSpaceOnUse">
<stop stop-color="#05484F"/>
<stop offset="1" stop-color="#051F25"/>
</linearGradient>
<linearGradient id="paint3_linear" x1="65.5553" y1="249.247" x2="80.2132" y2="298.075" gradientUnits="userSpaceOnUse">
<stop stop-color="#139BA9"/>
<stop offset="1" stop-color="#051F25"/>
</linearGradient>
<linearGradient id="paint4_linear" x1="65.5557" y1="249.247" x2="80.2137" y2="298.075" gradientUnits="userSpaceOnUse">
<stop stop-color="#05484F"/>
<stop offset="1" stop-color="#051F25"/>
</linearGradient>
<linearGradient id="paint5_linear" x1="309.567" y1="502.839" x2="240.699" y2="554.046" gradientUnits="userSpaceOnUse">
<stop stop-color="#027466"/>
<stop offset="1" stop-color="#919B99"/>
</linearGradient>
<linearGradient id="paint6_linear" x1="43.812" y1="309.113" x2="220.292" y2="297.942" gradientUnits="userSpaceOnUse">
<stop stop-color="#062881"/>
<stop offset="1" stop-color="#56D6FF"/>
</linearGradient>
<linearGradient id="paint7_linear" x1="168.5" y1="322.5" x2="229.269" y2="404.794" gradientUnits="userSpaceOnUse">
<stop stop-color="#7ED2EC"/>
<stop offset="1" stop-color="#CCF3FF"/>
</linearGradient>
<linearGradient id="paint8_linear" x1="412" y1="307" x2="269.808" y2="411.774" gradientUnits="userSpaceOnUse">
<stop stop-color="#027466"/>
<stop offset="1" stop-color="#12E2EF"/>
</linearGradient>
<linearGradient id="paint9_linear" x1="30.9244" y1="180.282" x2="186.985" y2="172.127" gradientUnits="userSpaceOnUse">
<stop stop-color="#066A81"/>
<stop offset="1" stop-color="#12E2EF"/>
</linearGradient>
<linearGradient id="paint10_linear" x1="209.68" y1="182.011" x2="132.312" y2="317.77" gradientUnits="userSpaceOnUse">
<stop stop-color="#042635"/>
<stop offset="1" stop-color="#001431"/>
</linearGradient>
<linearGradient id="paint11_linear" x1="71.1454" y1="261.285" x2="192.427" y2="367.573" gradientUnits="userSpaceOnUse">
<stop stop-color="#066D77"/>
<stop offset="1" stop-color="#051F25"/>
</linearGradient>
<linearGradient id="paint12_linear" x1="151.09" y1="358.86" x2="151.09" y2="431.655" gradientUnits="userSpaceOnUse">
<stop stop-color="#CAECFF"/>
<stop offset="1" stop-color="#6CCAFF"/>
</linearGradient>
<linearGradient id="paint13_linear" x1="136.721" y1="387.558" x2="136.721" y2="431.655" gradientUnits="userSpaceOnUse">
<stop stop-color="#24B2FF"/>
<stop offset="1" stop-color="#6CCAFF"/>
</linearGradient>
<linearGradient id="paint14_linear" x1="147.852" y1="190.25" x2="176.38" y2="321.883" gradientUnits="userSpaceOnUse">
<stop stop-color="#119AB8"/>
<stop offset="1" stop-color="#B6FBFF"/>
</linearGradient>
<linearGradient id="paint15_linear" x1="-12.7523" y1="7.57501" x2="-4.19919" y2="33.3565" gradientUnits="userSpaceOnUse">
<stop stop-color="#066D77"/>
<stop offset="1" stop-color="#248094"/>
</linearGradient>
<linearGradient id="paint16_linear" x1="364.105" y1="606" x2="364.105" y2="649" gradientUnits="userSpaceOnUse">
<stop stop-color="#78D2EE"/>
<stop offset="1" stop-color="#5FC3E2"/>
</linearGradient>
<linearGradient id="paint17_linear" x1="296.5" y1="173" x2="267" y2="170.616" gradientUnits="userSpaceOnUse">
<stop stop-color="#11B1BB"/>
<stop offset="1" stop-color="#CDF3FF"/>
</linearGradient>
<linearGradient id="paint18_linear" x1="263" y1="153.5" x2="289.5" y2="172.5" gradientUnits="userSpaceOnUse">
<stop stop-color="#3FEAD5"/>
<stop offset="0.961309" stop-color="#034E53"/>
</linearGradient>
</defs>
</svg>
