<svg width="1920" height="774" viewBox="0 0 1920 774" fill="none" xmlns="http://www.w3.org/2000/svg">
<path d="M455.5 25L445 39.0311L504.781 36.0665L492.414 22L455.5 25Z" fill="url(#paint0_linear)"/>
<path d="M93.9812 97.0184L80.628 114.439L173.687 90.2667L151.186 80.9517L93.9812 97.0184Z" fill="url(#paint1_linear)"/>
<path d="M2203 412.733V774H-321L-321 412.733C-321 184.787 244.017 0 941 0C1637.98 0 2203 184.787 2203 412.733Z" fill="url(#paint2_radial)"/>
<path opacity="0.5" d="M955.31 188.894C955.31 188.894 976.847 207.35 1011.23 209.558C1045.61 211.766 1086.14 197.296 1086.14 197.296C1086.14 197.296 1080.82 166.022 1079.66 160.872C1076.68 147.626 1056.06 137.19 1025.66 138.018C995.264 138.846 975.617 152.76 969.582 163.87C963.547 174.979 955.31 188.894 955.31 188.894Z" fill="url(#paint3_radial)"/>
<path d="M1023.84 180.635C1046.48 180.018 1065.18 171.341 1065.61 161.254C1066.04 151.167 1048.04 143.489 1025.4 144.106C1002.77 144.722 984.069 153.399 983.638 163.487C983.206 173.574 1001.21 181.251 1023.84 180.635Z" fill="url(#paint4_linear)"/>
<g opacity="0.4">
<path d="M134.616 165.582C134.616 165.582 124.973 180.747 106.173 187.224C87.372 193.7 63.0732 190.229 63.0732 190.229C63.0732 190.229 62.112 169.103 62.112 165.582C62.112 156.527 72.2467 146.716 89.2171 142.798C106.188 138.88 118.829 145.052 123.567 151.394C128.305 157.737 134.616 165.582 134.616 165.582Z" fill="url(#paint5_radial)"/>
<path d="M95.5554 170.256C82.9178 173.174 71.4567 170.27 69.9562 163.771C68.4557 157.272 77.4841 149.638 90.1216 146.72C102.759 143.803 114.22 146.706 115.721 153.206C117.221 159.705 108.193 167.339 95.5554 170.256Z" fill="url(#paint6_linear)"/>
</g>
<path opacity="0.3" d="M926.733 91.573C935.975 92.2193 943.739 88.8474 944.075 84.0417C944.412 79.236 937.192 74.8164 927.95 74.1701C918.709 73.5239 910.944 76.8958 910.608 81.7015C910.272 86.5071 917.492 90.9268 926.733 91.573Z" fill="url(#paint7_linear)"/>
<path opacity="0.2" d="M1036.84 23.1811C1047.88 24.458 1057.28 21.6137 1057.84 16.8281C1058.39 12.0426 1049.88 7.12803 1038.84 5.85112C1027.8 4.5742 1018.4 7.4185 1017.84 12.204C1017.29 16.9896 1025.79 21.9041 1036.84 23.1811Z" fill="url(#paint8_linear)"/>
<path d="M544.405 137.918C553.299 137.918 560.509 134.613 560.509 130.537C560.509 126.461 553.299 123.156 544.405 123.156C535.512 123.156 528.302 126.461 528.302 130.537C528.302 134.613 535.512 137.918 544.405 137.918Z" fill="url(#paint9_linear)"/>
<path opacity="0.2" d="M244.103 211.761C252.997 211.761 260.207 208.457 260.207 204.381C260.207 200.304 252.997 197 244.103 197C235.21 197 228 200.304 228 204.381C228 208.457 235.21 211.761 244.103 211.761Z" fill="url(#paint10_linear)"/>
<path d="M380.943 71.3664L382.144 71.1427C395.734 68.7195 407.834 70.2727 412.814 74.6444C413.683 75.4067 430.201 94.4511 430.201 94.4511C419.829 106.039 407.169 113.58 392.222 117.075C377.275 120.571 360.534 118.375 342 110.489C342 110.489 352.762 85.9676 353.385 85.0619C357.272 79.4053 367.857 73.91 380.943 71.3664Z" fill="url(#paint11_linear)"/>
<path d="M385.168 93.1019C399.355 90.3443 410.111 84.2753 409.191 79.5464C408.272 74.8174 396.026 73.2194 381.84 75.9771C367.653 78.7347 356.898 84.8038 357.817 89.5327C358.736 94.2616 370.982 95.8596 385.168 93.1019Z" fill="url(#paint12_linear)"/>
<path d="M820.848 160.731C822.33 160.731 823.532 159.529 823.532 158.047C823.532 156.564 822.33 155.363 820.848 155.363C819.366 155.363 818.164 156.564 818.164 158.047C818.164 159.529 819.366 160.731 820.848 160.731Z" fill="url(#paint13_linear)"/>
<path d="M794.008 82.8974C796.232 82.8974 798.034 81.095 798.034 78.8716C798.034 76.6481 796.232 74.8457 794.008 74.8457C791.785 74.8457 789.982 76.6481 789.982 78.8716C789.982 81.095 791.785 82.8974 794.008 82.8974Z" fill="url(#paint14_linear)"/>
<path d="M929.546 131.208C931.77 131.208 933.572 129.406 933.572 127.182C933.572 124.959 931.77 123.156 929.546 123.156C927.323 123.156 925.521 124.959 925.521 127.182C925.521 129.406 927.323 131.208 929.546 131.208Z" fill="url(#paint15_linear)"/>
<path opacity="0.1" d="M718.729 168.63C726.312 170.381 732.999 169.458 733.666 166.57C734.333 163.681 728.727 159.92 721.144 158.17C713.562 156.419 706.874 157.342 706.208 160.23C705.541 163.119 711.147 166.88 718.729 168.63Z" fill="url(#paint16_linear)"/>
<defs>
<linearGradient id="paint0_linear" x1="438.18" y1="-5.16053" x2="432.594" y2="37.8445" gradientUnits="userSpaceOnUse">
<stop stop-color="#28674F"/>
<stop offset="1" stop-color="#123635"/>
</linearGradient>
<linearGradient id="paint1_linear" x1="60.15" y1="73.7726" x2="66.3481" y2="116.918" gradientUnits="userSpaceOnUse">
<stop stop-color="#28674F"/>
<stop offset="1" stop-color="#123635"/>
</linearGradient>
<radialGradient id="paint2_radial" cx="0" cy="0" r="1" gradientUnits="userSpaceOnUse" gradientTransform="translate(595 48) rotate(90.594) scale(530.529 1730.04)">
<stop stop-color="#296B67"/>
<stop offset="1" stop-color="#132331" stop-opacity="0"/>
</radialGradient>
<radialGradient id="paint3_radial" cx="0" cy="0" r="1" gradientUnits="userSpaceOnUse" gradientTransform="translate(1035.98 229.512) rotate(-82.898) scale(101.201 294.089)">
<stop offset="0.51211" stop-color="#2E898E" stop-opacity="0.01"/>
<stop offset="1" stop-color="#3AC8C4"/>
</radialGradient>
<linearGradient id="paint4_linear" x1="1053.98" y1="89.425" x2="1055.23" y2="183.629" gradientUnits="userSpaceOnUse">
<stop stop-color="#28674F" stop-opacity="0.01"/>
<stop offset="1"/>
</linearGradient>
<radialGradient id="paint5_radial" cx="0" cy="0" r="1" gradientUnits="userSpaceOnUse" gradientTransform="translate(94.9297 203.835) rotate(-107.071) scale(66.4267 169.955)">
<stop offset="0.51211" stop-color="#2E898E" stop-opacity="0.01"/>
<stop offset="1" stop-color="#3AC8C4"/>
</radialGradient>
<linearGradient id="paint6_linear" x1="67.4297" y1="115.335" x2="82.4296" y2="175.835" gradientUnits="userSpaceOnUse">
<stop stop-color="#28674F" stop-opacity="0.01"/>
<stop offset="1"/>
</linearGradient>
<linearGradient id="paint7_linear" x1="872.825" y1="20.2779" x2="874.347" y2="65.4074" gradientUnits="userSpaceOnUse">
<stop stop-color="#28674F"/>
<stop offset="1"/>
</linearGradient>
<linearGradient id="paint8_linear" x1="974.54" y1="-51.8318" x2="973.24" y2="-6.62153" gradientUnits="userSpaceOnUse">
<stop stop-color="#28674F"/>
<stop offset="1"/>
</linearGradient>
<linearGradient id="paint9_linear" x1="579.953" y1="148.15" x2="578.547" y2="121.364" gradientUnits="userSpaceOnUse">
<stop stop-color="#28674F" stop-opacity="0.01"/>
<stop offset="1" stop-color="#123635"/>
</linearGradient>
<linearGradient id="paint10_linear" x1="187.703" y1="154.764" x2="191.191" y2="192.858" gradientUnits="userSpaceOnUse">
<stop stop-color="#28674F"/>
<stop offset="1"/>
</linearGradient>
<linearGradient id="paint11_linear" x1="434.036" y1="116.113" x2="431.167" y2="73.0563" gradientUnits="userSpaceOnUse">
<stop stop-color="#28674F" stop-opacity="0.01"/>
<stop offset="1" stop-color="#123635"/>
</linearGradient>
<linearGradient id="paint12_linear" x1="437.726" y1="97.2191" x2="431.263" y2="63.9702" gradientUnits="userSpaceOnUse">
<stop stop-color="#28674F" stop-opacity="0.01"/>
<stop offset="1"/>
</linearGradient>
<linearGradient id="paint13_linear" x1="822.9" y1="160.879" x2="823.198" y2="156.18" gradientUnits="userSpaceOnUse">
<stop stop-color="#28674F" stop-opacity="0.01"/>
<stop offset="1" stop-color="#123635"/>
</linearGradient>
<linearGradient id="paint14_linear" x1="797.087" y1="83.1205" x2="797.533" y2="76.0709" gradientUnits="userSpaceOnUse">
<stop stop-color="#28674F" stop-opacity="0.01"/>
<stop offset="1" stop-color="#123635"/>
</linearGradient>
<linearGradient id="paint15_linear" x1="932.625" y1="131.431" x2="933.071" y2="124.381" gradientUnits="userSpaceOnUse">
<stop stop-color="#28674F" stop-opacity="0.01"/>
<stop offset="1" stop-color="#123635"/>
</linearGradient>
<linearGradient id="paint16_linear" x1="679.969" y1="117.138" x2="675.78" y2="144.678" gradientUnits="userSpaceOnUse">
<stop stop-color="#28674F"/>
<stop offset="1"/>
</linearGradient>
</defs>
</svg>
