<svg width="10" height="14" viewBox="0 0 10 14" fill="none" xmlns="http://www.w3.org/2000/svg">
<path d="M5 14C4.94856 13.9454 0 8.58097 0 4.94118C0 3.6307 0.526784 2.37389 1.46447 1.44724C2.40215 0.520587 3.67392 0 5 0C6.32608 0 7.59785 0.520587 8.53553 1.44724C9.47322 2.37389 10 3.6307 10 4.94118C10 8.58097 5.05144 13.9454 5.00129 13.9987L5 14ZM5 3.29412C4.66935 3.29412 4.34612 3.39101 4.07119 3.57255C3.79626 3.75409 3.58198 4.01212 3.45545 4.31401C3.32891 4.6159 3.29581 4.94809 3.36031 5.26858C3.42482 5.58906 3.58404 5.88345 3.81785 6.1145C4.05166 6.34556 4.34955 6.50291 4.67385 6.56666C4.99815 6.63041 5.33429 6.59769 5.63977 6.47264C5.94526 6.34759 6.20636 6.13583 6.39006 5.86414C6.57376 5.59245 6.67181 5.27302 6.67181 4.94626C6.67181 4.50808 6.49567 4.08786 6.18215 3.77802C5.86862 3.46818 5.44339 3.29412 5 3.29412Z" fill="#B2B5BB"/>
</svg>
