<svg width="24" height="23" viewBox="0 0 24 23" fill="none" xmlns="http://www.w3.org/2000/svg">
<path d="M21.3241 8.80763C20.5661 8.80763 19.8991 9.12661 19.4081 9.62359C17.6032 8.35565 15.1693 7.53968 12.4724 7.45269L13.8734 1.04696L18.3342 2.06291C18.3342 3.17087 19.2242 4.07583 20.3161 4.07583C21.4291 4.07583 22.324 3.14687 22.324 2.03791C22.324 0.928961 21.4351 0 20.3171 0C19.5381 0 18.8662 0.47698 18.5312 1.12895L13.6044 0.0209991C13.3564 -0.045998 13.1134 0.133994 13.0474 0.385984L11.5095 7.44769C8.83359 7.56068 6.42569 8.37565 4.61477 9.64459C4.12379 9.12662 3.43082 8.80763 2.67285 8.80763C-0.139032 8.80763 -1.05999 12.6365 1.5149 13.9454C1.4239 14.3504 1.3829 14.7824 1.3829 15.2134C1.3829 19.5142 6.1577 22.999 12.0205 22.999C17.9082 22.999 22.683 19.5142 22.683 15.2134C22.683 14.7824 22.638 14.3304 22.527 13.9244C25.0499 12.6105 24.1209 8.80963 21.3241 8.80763ZM5.60073 14.2174C5.60073 13.0884 6.49069 12.1795 7.60864 12.1795C8.7006 12.1795 9.59156 13.0824 9.59156 14.2174C9.59156 15.3264 8.7016 16.2303 7.60864 16.2303C6.49569 16.2353 5.60073 15.3264 5.60073 14.2174ZM16.4393 19.0152C14.5983 20.8831 9.40357 20.8831 7.56164 19.0152C7.35865 18.8352 7.35865 18.5172 7.56164 18.3122C7.73864 18.1322 8.05262 18.1322 8.22961 18.3122C9.63555 19.7752 14.2994 19.8002 15.7663 18.3122C15.9433 18.1322 16.2573 18.1322 16.4343 18.3122C16.6413 18.5182 16.6413 18.8362 16.4393 19.0152ZM16.3983 16.2343C15.3063 16.2343 14.4164 15.3314 14.4164 14.2234C14.4164 13.0944 15.3063 12.1855 16.3983 12.1855C17.5112 12.1855 18.4062 13.0884 18.4062 14.2234C18.4012 15.3264 17.5112 16.2343 16.3983 16.2343Z" fill="black"/>
</svg>
