<svg width="25" height="22" viewBox="0 0 25 22" fill="none" xmlns="http://www.w3.org/2000/svg">
<path fill-rule="evenodd" clip-rule="evenodd" d="M7.8625 22.001C17.2962 22.001 22.4563 13.536 22.4563 6.19599C22.4563 5.95502 22.4563 5.71541 22.4412 5.47715C23.445 4.69197 24.3112 3.71728 25 2.60179C24.065 3.05123 23.0712 3.34635 22.055 3.47631C23.125 2.78184 23.9262 1.69072 24.31 0.403305C23.3025 1.0504 22.2013 1.50661 21.0525 1.75164C19.11 -0.484753 15.8612 -0.593053 13.795 1.51067C12.4637 2.86712 11.8975 4.88962 12.3112 6.81871C8.1875 6.59399 4.345 4.48485 1.74 1.0152C0.37875 3.55347 1.075 6.79976 3.32875 8.42967C2.5125 8.40395 1.71375 8.16569 1 7.7352V7.80559C1.00125 10.4495 2.7225 12.7265 5.115 13.2504C4.36 13.4737 3.5675 13.5062 2.8 13.3451C3.47125 15.6086 5.3975 17.1586 7.59125 17.2033C5.775 18.7493 3.53125 19.5886 1.22125 19.5859C0.81375 19.5845 0.40625 19.5588 0 19.506C2.34625 21.1359 5.075 22.001 7.8625 21.9969" fill="#121212"/>
</svg>
