<svg width="26" height="18" viewBox="0 0 26 18" fill="none" xmlns="http://www.w3.org/2000/svg">
<path fill-rule="evenodd" clip-rule="evenodd" d="M23.1728 0.55056C24.2864 0.847121 25.1646 1.71523 25.4643 2.81655C26.0213 4.82814 25.9999 9.02118 25.9999 9.02118C25.9999 9.02118 25.9999 13.1928 25.4645 15.2046C25.1646 16.3058 24.2866 17.1741 23.1728 17.4704C21.1382 18 12.9999 18 12.9999 18C12.9999 18 4.88291 18 2.82708 17.4494C1.71326 17.1529 0.835308 16.2846 0.535383 15.1835C0 13.1928 0 9 0 9C0 9 0 4.82814 0.535383 2.81655C0.83511 1.71543 1.73469 0.825938 2.82688 0.529573C4.86149 0 12.9997 0 12.9997 0C12.9997 0 21.1382 0 23.1728 0.55056ZM17.1761 9.00002L10.4085 12.8541V5.14588L17.1761 9.00002Z" fill="black"/>
</svg>
