<svg width="38" height="38" viewBox="0 0 38 38" fill="none" xmlns="http://www.w3.org/2000/svg">
<path d="M22 26H10C7.23858 26 5 23.7614 5 21V9C5 6.23858 7.23858 4 10 4H28C30.7614 4 33 6.23858 33 9V13.4286" stroke="#12D6D6" stroke-width="3" stroke-linecap="round" stroke-linejoin="round"/>
<path d="M5 32H33" stroke="#12D6D6" stroke-width="3" stroke-linecap="round" stroke-linejoin="round"/>
<path opacity="0.4" d="M23.7224 12.6682C23.5066 12.2269 23.5421 11.6829 23.8894 11.3356L23.9875 11.2375C24.3258 10.8992 24.3258 10.3508 23.9875 10.0125C23.6492 9.67423 23.1008 9.67423 22.7625 10.0125L22.6644 10.1106C22.3171 10.4579 21.7731 10.4934 21.3318 10.2776C21.1352 10.1815 20.9301 10.0967 20.7203 10.0269C20.2515 9.87095 19.875 9.46371 19.875 8.96963V8.875C19.875 8.39175 19.4832 8 19 8C18.5168 8 18.125 8.39175 18.125 8.875V9.0196C18.125 9.49749 17.7903 9.90304 17.3349 10.0478C17.1003 10.1224 16.8712 10.2079 16.6526 10.3068C16.2233 10.5011 15.6971 10.4549 15.3756 10.1104L15.3567 10.0902C15.0045 9.71291 14.4098 9.70266 14.0449 10.0676C13.6887 10.4238 13.6887 11.0012 14.0449 11.3574L14.086 11.3985C14.4408 11.7533 14.4576 12.3195 14.2376 12.7705C14.1584 12.9329 14.0878 13.1038 14.0282 13.28C13.8697 13.748 13.4637 14.125 12.9696 14.125H12.875C12.3918 14.125 12 14.5168 12 15C12 15.4832 12.3918 15.875 12.875 15.875H13.0196C13.4975 15.875 13.903 16.2097 14.0478 16.6651C14.1195 16.8907 14.2013 17.1111 14.2954 17.3221C14.4956 17.7707 14.4579 18.3171 14.1106 18.6644L14.0125 18.7625C13.6742 19.1008 13.6742 19.6492 14.0125 19.9875C14.3508 20.3258 14.8992 20.3258 15.2375 19.9875L15.3356 19.8894C15.6829 19.5421 16.2269 19.5066 16.6682 19.7224C16.8648 19.8185 17.0699 19.9033 17.2797 19.9731C17.7485 20.1291 18.125 20.5363 18.125 21.0304V21.125C18.125 21.6082 18.5168 22 19 22C19.4832 22 19.875 21.6082 19.875 21.125V20.9804C19.875 20.5025 20.2097 20.097 20.6651 19.9522C20.8907 19.8805 21.1111 19.7987 21.3221 19.7046C21.7707 19.5044 22.3171 19.5421 22.6644 19.8894L22.7625 19.9875C23.1008 20.3258 23.6492 20.3258 23.9875 19.9875C24.3258 19.6492 24.3258 19.1008 23.9875 18.7625L23.8894 18.6644C23.5421 18.3171 23.5066 17.7731 23.7224 17.3318C23.8185 17.1352 23.9033 16.9301 23.9731 16.7203C24.1291 16.2515 24.5363 15.875 25.0304 15.875H25.125C25.6082 15.875 26 15.4832 26 15C26 14.5168 25.6082 14.125 25.125 14.125H25.0304C24.5363 14.125 24.1291 13.7485 23.9731 13.2797C23.9033 13.0699 23.8185 12.8648 23.7224 12.6682ZM19 17.625C17.5125 17.625 16.375 16.4875 16.375 15C16.375 13.5125 17.5125 12.375 19 12.375C20.4875 12.375 21.625 13.5125 21.625 15C21.625 16.4875 20.4875 17.625 19 17.625Z" fill="#3EF3F3"/>
<path opacity="0.4" d="M33.3731 20.3344C33.219 20.0192 33.2443 19.6307 33.4925 19.3825L33.5625 19.3125C33.8041 19.0709 33.8041 18.6791 33.5625 18.4375C33.3209 18.1959 32.9291 18.1959 32.6875 18.4375L32.6175 18.5075C32.3693 18.7557 31.9808 18.781 31.6656 18.6269C31.5251 18.5582 31.3787 18.4976 31.2288 18.4478C30.8939 18.3364 30.625 18.0455 30.625 17.6926V17.625C30.625 17.2798 30.3452 17 30 17C29.6548 17 29.375 17.2798 29.375 17.625V17.7283C29.375 18.0696 29.1359 18.3593 28.8106 18.4627C28.6431 18.516 28.4794 18.577 28.3233 18.6477C28.0167 18.7865 27.6408 18.7535 27.4111 18.5075L27.3976 18.493C27.1461 18.2235 26.7213 18.2162 26.4607 18.4768C26.2062 18.7313 26.2062 19.1437 26.4607 19.3982L26.49 19.4275C26.7434 19.6809 26.7555 20.0854 26.5983 20.4075C26.5417 20.5235 26.4913 20.6456 26.4487 20.7714C26.3355 21.1057 26.0455 21.375 25.6926 21.375H25.625C25.2798 21.375 25 21.6548 25 22C25 22.3452 25.2798 22.625 25.625 22.625H25.7283C26.0696 22.625 26.3593 22.8641 26.4627 23.1894C26.5139 23.3505 26.5723 23.508 26.6396 23.6586C26.7826 23.979 26.7557 24.3693 26.5075 24.6175L26.4375 24.6875C26.1959 24.9291 26.1959 25.3209 26.4375 25.5625C26.6791 25.8041 27.0709 25.8041 27.3125 25.5625L27.3825 25.4925C27.6307 25.2443 28.0192 25.219 28.3344 25.3731C28.4749 25.4418 28.6213 25.5024 28.7712 25.5522C29.1061 25.6636 29.375 25.9545 29.375 26.3074V26.375C29.375 26.7202 29.6548 27 30 27C30.3452 27 30.625 26.7202 30.625 26.375V26.2717C30.625 25.9304 30.8641 25.6407 31.1894 25.5373C31.3505 25.4861 31.508 25.4277 31.6586 25.3604C31.979 25.2174 32.3693 25.2443 32.6175 25.4925L32.6875 25.5625C32.9291 25.8041 33.3209 25.8041 33.5625 25.5625C33.8041 25.3209 33.8041 24.9291 33.5625 24.6875L33.4925 24.6175C33.2443 24.3693 33.219 23.9808 33.3731 23.6656C33.4418 23.5251 33.5024 23.3787 33.5522 23.2288C33.6636 22.8939 33.9545 22.625 34.3074 22.625H34.375C34.7202 22.625 35 22.3452 35 22C35 21.6548 34.7202 21.375 34.375 21.375H34.3074C33.9545 21.375 33.6636 21.1061 33.5522 20.7712C33.5024 20.6213 33.4418 20.4749 33.3731 20.3344ZM30 23.875C28.9375 23.875 28.125 23.0625 28.125 22C28.125 20.9375 28.9375 20.125 30 20.125C31.0625 20.125 31.875 20.9375 31.875 22C31.875 23.0625 31.0625 23.875 30 23.875Z" fill="#3EF3F3"/>
</svg>
