<svg width="38" height="38" viewBox="0 0 38 38" fill="none" xmlns="http://www.w3.org/2000/svg">
<path opacity="0.4" d="M23.7224 15.6682C23.5066 15.2269 23.5421 14.6829 23.8894 14.3356L23.9875 14.2375C24.3258 13.8992 24.3258 13.3508 23.9875 13.0125C23.6492 12.6742 23.1008 12.6742 22.7625 13.0125L22.6644 13.1106C22.3171 13.4579 21.7731 13.4934 21.3318 13.2776C21.1352 13.1815 20.9301 13.0967 20.7203 13.0269C20.2515 12.8709 19.875 12.4637 19.875 11.9696V11.875C19.875 11.3918 19.4832 11 19 11C18.5168 11 18.125 11.3918 18.125 11.875V12.0196C18.125 12.4975 17.7903 12.903 17.3349 13.0478C17.1003 13.1224 16.8712 13.2079 16.6526 13.3068C16.2233 13.5011 15.6971 13.4549 15.3756 13.1104L15.3567 13.0902C15.0045 12.7129 14.4098 12.7027 14.0449 13.0676C13.6887 13.4238 13.6887 14.0012 14.0449 14.3574L14.086 14.3985C14.4408 14.7533 14.4576 15.3195 14.2376 15.7705C14.1584 15.9329 14.0878 16.1038 14.0282 16.28C13.8697 16.748 13.4637 17.125 12.9696 17.125H12.875C12.3918 17.125 12 17.5168 12 18C12 18.4832 12.3918 18.875 12.875 18.875H13.0196C13.4975 18.875 13.903 19.2097 14.0478 19.6651C14.1195 19.8907 14.2013 20.1111 14.2954 20.3221C14.4956 20.7707 14.4579 21.3171 14.1106 21.6644L14.0125 21.7625C13.6742 22.1008 13.6742 22.6492 14.0125 22.9875C14.3508 23.3258 14.8992 23.3258 15.2375 22.9875L15.3356 22.8894C15.6829 22.5421 16.2269 22.5066 16.6682 22.7224C16.8648 22.8185 17.0699 22.9033 17.2797 22.9731C17.7485 23.1291 18.125 23.5363 18.125 24.0304V24.125C18.125 24.6082 18.5168 25 19 25C19.4832 25 19.875 24.6082 19.875 24.125V23.9804C19.875 23.5025 20.2097 23.097 20.6651 22.9522C20.8907 22.8805 21.1111 22.7987 21.3221 22.7046C21.7707 22.5044 22.3171 22.5421 22.6644 22.8894L22.7625 22.9875C23.1008 23.3258 23.6492 23.3258 23.9875 22.9875C24.3258 22.6492 24.3258 22.1008 23.9875 21.7625L23.8894 21.6644C23.5421 21.3171 23.5066 20.7731 23.7224 20.3318C23.8185 20.1352 23.9033 19.9301 23.9731 19.7203C24.1291 19.2515 24.5363 18.875 25.0304 18.875H25.125C25.6082 18.875 26 18.4832 26 18C26 17.5168 25.6082 17.125 25.125 17.125H25.0304C24.5363 17.125 24.1291 16.7485 23.9731 16.2797C23.9033 16.0699 23.8185 15.8648 23.7224 15.6682ZM19 20.625C17.5125 20.625 16.375 19.4875 16.375 18C16.375 16.5125 17.5125 15.375 19 15.375C20.4875 15.375 21.625 16.5125 21.625 18C21.625 19.4875 20.4875 20.625 19 20.625Z" fill="#3EF3F3"/>
<path opacity="0.4" d="M21.3938 27.7082C21.124 27.4839 20.9878 27.1191 21.1124 26.7911L21.1476 26.6985C21.2689 26.379 21.1083 26.0217 20.7888 25.9004C20.4694 25.7791 20.1121 25.9397 19.9907 26.2591L19.9556 26.3517C19.831 26.6797 19.487 26.8622 19.1363 26.8508C18.98 26.8457 18.8216 26.8505 18.6645 26.8665C18.3134 26.9022 17.9488 26.7471 17.8041 26.4252L17.7764 26.3636C17.6349 26.0488 17.265 25.9082 16.9501 26.0498C16.6353 26.1913 16.4948 26.5612 16.6363 26.8761L16.6787 26.9703C16.8186 27.2816 16.7193 27.6438 16.465 27.8715C16.334 27.9888 16.2098 28.1116 16.0963 28.24C15.8736 28.4923 15.5172 28.6164 15.2068 28.4861L15.1886 28.4784C14.8487 28.3357 14.4583 28.5032 14.3274 28.8478C14.1996 29.1842 14.3687 29.5604 14.7051 29.6881L14.7439 29.7029C15.079 29.8301 15.2557 30.1941 15.2444 30.5523C15.2404 30.6813 15.2445 30.8134 15.2572 30.9456C15.291 31.2969 15.1369 31.6614 14.815 31.8061L14.7533 31.8338C14.4385 31.9753 14.298 32.3453 14.4395 32.6601C14.581 32.9749 14.951 33.1154 15.2658 32.9739L15.36 32.9316C15.6713 32.7916 16.0336 32.8909 16.2612 33.1453C16.374 33.2712 16.4919 33.3909 16.6149 33.5007C16.8767 33.7344 17.0122 34.1014 16.8876 34.4294L16.8524 34.522C16.7311 34.8415 16.8917 35.1988 17.2112 35.3201C17.5306 35.4415 17.8879 35.2808 18.0092 34.9614L18.0444 34.8688C18.169 34.5408 18.513 34.3584 18.8637 34.3697C19.02 34.3748 19.1784 34.37 19.3355 34.354C19.6866 34.3183 20.0512 34.4734 20.1958 34.7953L20.2236 34.8569C20.3651 35.1718 20.735 35.3123 21.0498 35.1707C21.3647 35.0292 21.5052 34.6593 21.3637 34.3445L21.3213 34.2502C21.1814 33.9389 21.2807 33.5767 21.535 33.349C21.661 33.2362 21.7806 33.1184 21.8905 32.9953C22.1241 32.7335 22.4912 32.5981 22.8192 32.7226L22.9118 32.7578C23.2312 32.8791 23.5885 32.7185 23.7099 32.3991C23.8312 32.0796 23.6706 31.7223 23.3511 31.601L23.2585 31.5658C22.9305 31.4412 22.7481 31.0972 22.7595 30.7466C22.7645 30.5903 22.7597 30.4319 22.7437 30.2747C22.7081 29.9236 22.8631 29.5591 23.185 29.4144L23.2467 29.3867C23.5615 29.2452 23.702 28.8752 23.5605 28.5604C23.419 28.2456 23.049 28.1051 22.7342 28.2466L22.6725 28.2743C22.3506 28.419 21.9751 28.2929 21.7362 28.0332C21.6293 27.9169 21.514 27.8082 21.3938 27.7082ZM19.7687 32.3204C18.7996 32.756 17.7254 32.3481 17.2898 31.3789C16.8542 30.4098 17.2622 29.3357 18.2313 28.9001C19.2004 28.4645 20.2746 28.8725 20.7102 29.8416C21.1458 30.8107 20.7378 31.8848 19.7687 32.3204Z" fill="#3EF3F3"/>
<path d="M11.7778 33H11C8.23858 33 6 30.7614 6 28V13.0934C6 11.3929 6.86433 9.80891 8.2944 8.88871L16.2944 3.74097C17.9423 2.6806 20.0577 2.6806 21.7056 3.74097L29.7056 8.88871C31.1357 9.80891 32 11.3929 32 13.0934V28C32 30.7614 29.7614 33 27 33H26.7037" stroke="#12D6D6" stroke-width="3" stroke-linecap="round" stroke-linejoin="round"/>
</svg>
