<svg width="32" height="32" viewBox="0 0 32 32" fill="none" xmlns="http://www.w3.org/2000/svg">
<path fill-rule="evenodd" clip-rule="evenodd" d="M14.9812 4.33647C15.3266 4.34777 15.6417 4.53663 15.8145 4.83594L24.5539 19.9729C24.7267 20.2722 24.7327 20.6396 24.5697 20.9444C24.4068 21.2492 24.0981 21.4482 23.7532 21.4708L13.8956 22.1164C13.3445 22.1525 12.8685 21.735 12.8324 21.1839C12.7963 20.6328 13.2138 20.1568 13.7649 20.1207L22.0177 19.5802L14.8866 7.2287L5.93052 20.6338L8.8361 20.4435C9.32672 20.4114 9.76791 20.7407 9.87668 21.2201L11.2902 27.4516C11.4123 27.9902 11.0748 28.5258 10.5362 28.648C9.99756 28.7702 9.4619 28.4326 9.33972 27.894L8.11505 22.495L4.03801 22.762C3.65809 22.7869 3.297 22.5939 3.10663 22.2642C2.91626 21.9344 2.92965 21.5252 3.14116 21.2086L14.117 4.78041C14.309 4.49304 14.6357 4.32517 14.9812 4.33647ZM20.3119 7.18481C20.0357 6.70652 20.1996 6.09493 20.6779 5.81879C23.403 4.24543 26.8877 5.17913 28.461 7.90426C30.0344 10.6294 29.1007 14.114 26.3755 15.6874C25.8972 15.9635 25.2857 15.7996 25.0095 15.3213C24.7334 14.843 24.8972 14.2315 25.3755 13.9553C27.1441 12.9342 27.75 10.6728 26.729 8.90426C25.7079 7.13572 23.4465 6.52977 21.6779 7.55084C21.1996 7.82698 20.588 7.66311 20.3119 7.18481ZM23.4681 12.1213C24.251 12.1213 24.8857 11.4866 24.8857 10.7037C24.8857 9.92081 24.251 9.28613 23.4681 9.28613C22.6851 9.28613 22.0505 9.92081 22.0505 10.7037C22.0505 11.4866 22.6851 12.1213 23.4681 12.1213Z" fill="#12D6D6"/>
</svg>
