<svg width="44" height="41" viewBox="0 0 44 41" fill="none" xmlns="http://www.w3.org/2000/svg">
<path d="M38.1427 10.3051H33.1289V8.12341C33.1289 3.64393 29.4505 0 24.9286 0H19.0714C14.5495 0 10.8711 3.64393 10.8711 8.12341V10.3051H5.8573C2.63578 10.3051 0 12.9162 0 16.1076V35.186C0 38.3773 2.63578 40.9884 5.8573 40.9884H38.1427C41.3642 40.9884 44 38.3773 44 35.186V16.1076C44 12.9162 41.3642 10.3051 38.1427 10.3051ZM15.557 8.12341C15.557 6.2086 17.1384 4.64195 19.0714 4.64195H24.9286C26.8616 4.64195 28.443 6.2086 28.443 8.12341V10.3051H15.557V8.12341Z" fill="#3FE7E7"/>
</svg>
