<svg width="70" height="54" viewBox="0 0 70 54" fill="none" xmlns="http://www.w3.org/2000/svg">
<path d="M63.4375 0.75H6.5625C2.93809 0.75 0 3.68809 0 7.3125V46.6875C0 50.3119 2.93809 53.25 6.5625 53.25H63.4375C67.0619 53.25 70 50.3119 70 46.6875V7.3125C70 3.68809 67.0619 0.75 63.4375 0.75ZM63.4375 7.3125V12.8913C60.372 15.3877 55.4848 19.2694 45.0369 27.4505C42.7345 29.2616 38.1735 33.6127 35 33.562C31.827 33.6132 27.2646 29.2609 24.9631 27.4505C14.5168 19.2706 9.62842 15.3881 6.5625 12.8913V7.3125H63.4375ZM6.5625 46.6875V21.3122C9.69527 23.8075 14.1379 27.309 20.9095 32.6115C23.8978 34.9637 29.1309 40.1564 35 40.1249C40.8402 40.1564 46.0071 35.0391 49.0893 32.6126C55.8607 27.3102 60.3046 23.8078 63.4375 21.3124V46.6875H6.5625Z" fill="#00DBA6"/>
</svg>
