<svg width="142" height="42" viewBox="0 0 142 42" fill="none" xmlns="http://www.w3.org/2000/svg">
<path d="M48.4385 37.1445H45.5576L44.5859 39H43.6045L47.4668 31.8906H48.2725L49.6787 39H48.7754L48.4385 37.1445ZM45.9629 36.373H48.3018L47.7109 33.0576L45.9629 36.373ZM58.4238 39H57.5352L54.9961 33.4824L54.0391 39H53.1162L54.3516 31.8906H55.2402L57.7842 37.4326L58.7461 31.8906H59.6592L58.4238 39ZM62.2275 39.0977C61.57 39.0846 61.0557 38.8421 60.6846 38.3701C60.3135 37.8981 60.1572 37.2943 60.2158 36.5586L60.2402 36.3486C60.2956 35.8245 60.4502 35.346 60.7041 34.9131C60.9613 34.4801 61.2738 34.1546 61.6416 33.9365C62.0094 33.7152 62.4066 33.6094 62.833 33.6191C63.3766 33.6322 63.8031 33.8128 64.1123 34.1611C64.4215 34.5094 64.5908 34.9814 64.6201 35.5771C64.6299 35.7887 64.6234 36.0003 64.6006 36.2119L64.5469 36.6172H61.0947C61.0361 37.0957 61.1143 37.5026 61.3291 37.8379C61.5472 38.1732 61.8711 38.3473 62.3008 38.3604C62.8216 38.3734 63.3034 38.139 63.7461 37.6572L64.2539 38.0869C64.0326 38.4059 63.7461 38.6566 63.3945 38.8389C63.0462 39.0179 62.6572 39.1042 62.2275 39.0977ZM62.7891 34.3564C62.4245 34.3467 62.1055 34.4704 61.832 34.7275C61.5618 34.9847 61.347 35.3672 61.1875 35.875L63.7559 35.8799L63.7754 35.8018C63.8275 35.3916 63.7607 35.0514 63.5752 34.7812C63.3929 34.5078 63.1309 34.3662 62.7891 34.3564ZM69.8691 37.75L71.5537 33.7168H72.4668L70.0596 39H69.3418L68.7949 35.0059L66.8906 39H66.1729L65.6016 33.7168H66.4463L66.7686 37.6523L68.6436 33.7168H69.3564L69.8691 37.75ZM78.1162 36.124H76.4756L75.9775 39H75.0547L76.29 31.8906L78.4287 31.8955C79.1742 31.8988 79.7422 32.0876 80.1328 32.4619C80.5234 32.8363 80.6878 33.3457 80.626 33.9902C80.5902 34.4362 80.4274 34.8285 80.1377 35.167C79.8512 35.5055 79.4688 35.7611 78.9902 35.9336L80.0938 38.9365L80.0889 39H79.1123L78.1162 36.124ZM76.6074 35.3574L77.9551 35.3623C78.4238 35.3623 78.8193 35.2386 79.1416 34.9912C79.4639 34.7406 79.6527 34.4069 79.708 33.9902C79.7568 33.5833 79.6755 33.2643 79.4639 33.0332C79.2523 32.8021 78.93 32.68 78.4971 32.667L77.0762 32.6621L76.6074 35.3574ZM83.2334 39.0977C82.5758 39.0846 82.0615 38.8421 81.6904 38.3701C81.3193 37.8981 81.1631 37.2943 81.2217 36.5586L81.2461 36.3486C81.3014 35.8245 81.4561 35.346 81.71 34.9131C81.9671 34.4801 82.2796 34.1546 82.6475 33.9365C83.0153 33.7152 83.4124 33.6094 83.8389 33.6191C84.3825 33.6322 84.8089 33.8128 85.1182 34.1611C85.4274 34.5094 85.5967 34.9814 85.626 35.5771C85.6357 35.7887 85.6292 36.0003 85.6064 36.2119L85.5527 36.6172H82.1006C82.042 37.0957 82.1201 37.5026 82.335 37.8379C82.5531 38.1732 82.877 38.3473 83.3066 38.3604C83.8275 38.3734 84.3092 38.139 84.752 37.6572L85.2598 38.0869C85.0384 38.4059 84.752 38.6566 84.4004 38.8389C84.0521 39.0179 83.6631 39.1042 83.2334 39.0977ZM83.7949 34.3564C83.4303 34.3467 83.1113 34.4704 82.8379 34.7275C82.5677 34.9847 82.3529 35.3672 82.1934 35.875L84.7617 35.8799L84.7812 35.8018C84.8333 35.3916 84.7666 35.0514 84.5811 34.7812C84.3988 34.5078 84.1367 34.3662 83.7949 34.3564ZM87.0908 39H86.2119L87.5107 31.5H88.3945L87.0908 39ZM89.4932 39H88.6143L89.5322 33.7168H90.4111L89.4932 39ZM90.2207 31.7881C90.3704 31.7816 90.4941 31.8271 90.5918 31.9248C90.6927 32.0192 90.7432 32.1445 90.7432 32.3008C90.7399 32.4538 90.6895 32.5791 90.5918 32.6768C90.4974 32.7744 90.3737 32.8265 90.2207 32.833C90.0677 32.8395 89.9424 32.7956 89.8447 32.7012C89.7471 32.6068 89.6999 32.4831 89.7031 32.3301C89.7064 32.1771 89.7552 32.0501 89.8496 31.9492C89.944 31.8483 90.0677 31.7946 90.2207 31.7881ZM93.1699 38.3652C93.4857 38.3717 93.7705 38.2806 94.0244 38.0918C94.2783 37.8997 94.4443 37.6491 94.5225 37.3398L95.3574 37.335C95.3086 37.667 95.1751 37.9697 94.957 38.2432C94.7422 38.5166 94.4704 38.7298 94.1416 38.8828C93.8128 39.0358 93.4759 39.1074 93.1309 39.0977C92.6914 39.0911 92.3187 38.9772 92.0127 38.7559C91.71 38.5312 91.487 38.2204 91.3438 37.8232C91.2005 37.4229 91.1517 36.9736 91.1973 36.4756L91.2217 36.2314C91.2835 35.7236 91.4316 35.2695 91.666 34.8691C91.9004 34.4688 92.2064 34.1579 92.584 33.9365C92.9616 33.7119 93.3783 33.6061 93.834 33.6191C94.3874 33.6322 94.8301 33.8177 95.1621 34.1758C95.4941 34.5339 95.6602 34.988 95.6602 35.5381L94.835 35.5332C94.8285 35.1882 94.7324 34.9098 94.5469 34.6982C94.3613 34.4834 94.1107 34.3695 93.7949 34.3564C93.3359 34.3467 92.9535 34.5176 92.6475 34.8691C92.3447 35.2207 92.1559 35.7122 92.0811 36.3438L92.0664 36.4707C92.0469 36.679 92.0436 36.8939 92.0566 37.1152C92.0794 37.4961 92.1868 37.7972 92.3789 38.0186C92.571 38.2399 92.8346 38.3555 93.1699 38.3652ZM104.073 36.7344C103.937 37.4701 103.603 38.0527 103.072 38.4824C102.545 38.9121 101.912 39.1172 101.173 39.0977C100.733 39.0879 100.349 38.9805 100.021 38.7754C99.6917 38.5671 99.4362 38.2692 99.2539 37.8818C99.0716 37.4912 98.9707 37.0599 98.9512 36.5879C98.9382 36.321 98.9495 36.0605 98.9854 35.8066L99.0684 35.2207C99.2214 34.153 99.5957 33.3115 100.191 32.6963C100.79 32.0778 101.518 31.7767 102.374 31.793C103.041 31.806 103.57 32.0225 103.961 32.4424C104.352 32.859 104.558 33.4385 104.581 34.1807H103.668C103.626 33.1846 103.235 32.6475 102.496 32.5693L102.335 32.5596C101.72 32.5433 101.205 32.7728 100.792 33.248C100.382 33.7201 100.117 34.3662 99.9961 35.1865L99.8887 35.9238L99.8594 36.3535C99.8398 36.9525 99.9456 37.4294 100.177 37.7842C100.411 38.1357 100.758 38.318 101.217 38.3311C101.712 38.3473 102.12 38.2285 102.442 37.9746C102.768 37.7207 103.015 37.3122 103.185 36.749L104.073 36.7344ZM107.818 33.6191C108.261 33.6257 108.64 33.7461 108.956 33.9805C109.272 34.2148 109.505 34.5387 109.654 34.9521C109.807 35.3623 109.859 35.8115 109.811 36.2998L109.801 36.4072C109.739 36.9215 109.586 37.387 109.342 37.8037C109.098 38.2171 108.782 38.5394 108.395 38.7705C108.007 39.0016 107.582 39.1107 107.12 39.0977C106.681 39.0911 106.301 38.9707 105.982 38.7363C105.667 38.502 105.436 38.1829 105.289 37.7793C105.143 37.3757 105.09 36.9313 105.133 36.4463C105.182 35.8994 105.33 35.4079 105.577 34.9717C105.825 34.5355 106.142 34.1986 106.529 33.9609C106.92 33.7201 107.35 33.6061 107.818 33.6191ZM106.021 36.4512C105.999 36.6562 105.999 36.8695 106.021 37.0908C106.054 37.4749 106.168 37.7809 106.363 38.0088C106.562 38.2367 106.826 38.3555 107.154 38.3652C107.447 38.375 107.717 38.3034 107.965 38.1504C108.212 37.9941 108.421 37.7598 108.59 37.4473C108.759 37.1348 108.868 36.7881 108.917 36.4072C108.943 36.1077 108.948 35.8555 108.932 35.6504C108.893 35.2565 108.774 34.9456 108.575 34.7178C108.377 34.4899 108.113 34.3695 107.784 34.3564C107.328 34.3467 106.941 34.5257 106.622 34.8936C106.303 35.2614 106.106 35.7432 106.031 36.3389L106.021 36.4512ZM112.213 33.7119L112.101 34.3027C112.543 33.834 113.079 33.6061 113.707 33.6191C114.042 33.6257 114.326 33.7021 114.557 33.8486C114.791 33.9951 114.952 34.2018 115.04 34.4688C115.535 33.8893 116.119 33.6061 116.793 33.6191C117.32 33.6322 117.709 33.8096 117.96 34.1514C118.211 34.4932 118.303 34.9521 118.238 35.5283L117.657 39H116.778L117.354 35.5186C117.374 35.3493 117.374 35.1947 117.354 35.0547C117.293 34.612 117.003 34.3857 116.485 34.376C116.163 34.3695 115.87 34.4704 115.606 34.6787C115.346 34.8838 115.178 35.154 115.104 35.4893L114.503 39H113.614L114.2 35.5234C114.243 35.1621 114.187 34.8838 114.034 34.6885C113.884 34.4932 113.65 34.3923 113.331 34.3857C112.781 34.3727 112.343 34.6234 112.018 35.1377L111.349 39H110.465L111.383 33.7168L112.213 33.7119ZM123.81 36.3828C123.744 36.9199 123.6 37.4033 123.375 37.833C123.15 38.2627 122.872 38.585 122.54 38.7998C122.208 39.0114 121.84 39.1123 121.437 39.1025C120.825 39.0895 120.356 38.8828 120.03 38.4824L119.557 41.0312H118.673L119.942 33.7168L120.743 33.7119L120.646 34.3027C121.082 33.834 121.604 33.6061 122.213 33.6191C122.721 33.6322 123.116 33.8193 123.399 34.1807C123.683 34.542 123.832 35.04 123.849 35.6748C123.852 35.8831 123.844 36.085 123.824 36.2803L123.81 36.3828ZM122.94 36.2803L122.965 35.8701C122.965 35.3949 122.874 35.0319 122.691 34.7812C122.512 34.5273 122.252 34.3939 121.91 34.3809C121.399 34.3678 120.958 34.6104 120.587 35.1084L120.143 37.6426C120.341 38.1113 120.698 38.3522 121.212 38.3652C121.651 38.375 122.024 38.2041 122.33 37.8525C122.639 37.4977 122.843 36.9736 122.94 36.2803ZM127.755 39C127.732 38.9056 127.721 38.8128 127.721 38.7217L127.735 38.4434C127.25 38.8926 126.736 39.1107 126.192 39.0977C125.727 39.0911 125.348 38.9447 125.055 38.6582C124.765 38.3685 124.633 38.0072 124.659 37.5742C124.692 37.0143 124.936 36.5781 125.392 36.2656C125.851 35.9499 126.453 35.792 127.198 35.792L128.121 35.7969L128.18 35.377C128.212 35.0612 128.15 34.8122 127.994 34.6299C127.841 34.4443 127.61 34.3483 127.301 34.3418C126.998 34.3353 126.729 34.4102 126.495 34.5664C126.264 34.7194 126.122 34.9229 126.07 35.1768L125.182 35.1816C125.211 34.8724 125.331 34.599 125.543 34.3613C125.755 34.1204 126.026 33.9349 126.358 33.8047C126.69 33.6712 127.034 33.6077 127.389 33.6143C127.939 33.6273 128.367 33.7949 128.673 34.1172C128.979 34.4362 129.107 34.861 129.059 35.3916L128.629 38.0088L128.604 38.3848C128.598 38.5638 128.618 38.7412 128.663 38.917L128.653 39H127.755ZM126.368 38.3164C126.651 38.3229 126.918 38.2562 127.169 38.1162C127.423 37.973 127.641 37.776 127.823 37.5254L128.014 36.4365L127.345 36.4316C126.788 36.4316 126.362 36.5195 126.065 36.6953C125.769 36.8711 125.602 37.1201 125.562 37.4424C125.533 37.6898 125.59 37.8965 125.733 38.0625C125.88 38.2253 126.091 38.3099 126.368 38.3164ZM131.607 33.7119L131.48 34.3809C131.956 33.86 132.496 33.6061 133.102 33.6191C133.6 33.6322 133.967 33.8047 134.205 34.1367C134.443 34.4688 134.531 34.9359 134.469 35.5381L133.893 39H133.009L133.59 35.5234C133.609 35.3639 133.611 35.2158 133.595 35.0791C133.539 34.6234 133.271 34.3906 132.789 34.3809C132.258 34.3711 131.793 34.6543 131.393 35.2305L130.738 39H129.854L130.772 33.7168L131.607 33.7119ZM137.149 37.667L139.029 33.7168H140.006L136.871 39.8789C136.435 40.735 135.875 41.1582 135.191 41.1484C135.071 41.1452 134.894 41.1159 134.659 41.0605L134.737 40.3281L134.967 40.3525C135.247 40.3656 135.488 40.3021 135.689 40.1621C135.895 40.0254 136.075 39.8024 136.231 39.4932L136.549 38.8877L135.636 33.7168H136.559L137.149 37.667Z" fill="#1AC9C9"/>
<path d="M35.0735 9.44488C35.1311 9.50249 35.2222 9.50249 35.2798 9.44488L38.2514 6.44913C38.309 6.39152 38.309 6.2986 38.2514 6.24099L32.1019 0.0432079C32.0443 -0.0144026 31.9533 -0.0144026 31.8957 0.0432079L28.9241 3.03896C28.8665 3.09657 28.8665 3.18949 28.9241 3.2471L35.0735 9.44488Z" fill="url(#paint0_linear)"/>
<path d="M50.9574 3.04125L47.9858 0.0473583C47.9282 -0.0102523 47.8372 -0.0102523 47.7795 0.0473583L28.926 19.0551C28.8684 19.1127 28.8684 19.2057 28.926 19.2633L31.8958 22.259C31.9534 22.3166 32.0444 22.3166 32.102 22.259L50.9574 3.24939C51.0132 3.19178 51.0132 3.09886 50.9574 3.04125Z" fill="url(#paint1_linear)"/>
<path d="M44.8117 12.8577C44.754 12.8001 44.663 12.8001 44.6054 12.8577L41.6338 15.8534C41.5762 15.911 41.5762 16.0039 41.6338 16.0616L47.7832 22.2612C47.8409 22.3188 47.9319 22.3188 47.9895 22.2612L50.9611 19.2654C51.0187 19.2078 51.0187 19.1149 50.9611 19.0573L44.8117 12.8577Z" fill="url(#paint2_linear)"/>
<path d="M79.8187 0.491019C79.789 0.461284 79.7537 0.437125 79.7146 0.420399C79.6756 0.403674 79.6347 0.39624 79.592 0.39624H65.8231C65.7803 0.39624 65.7394 0.403674 65.7004 0.420399C65.6614 0.437125 65.6261 0.461284 65.5963 0.491019C65.5666 0.520753 65.5424 0.556063 65.5276 0.59509C65.5109 0.634116 65.5034 0.676859 65.5034 0.719603V21.5839C65.5034 21.6267 65.5109 21.6676 65.5276 21.7066C65.5443 21.7456 65.5666 21.7809 65.5963 21.8106C65.6261 21.8404 65.6614 21.8645 65.7004 21.8813C65.7394 21.898 65.7803 21.9054 65.8231 21.9054H79.592C79.6347 21.9054 79.6756 21.8961 79.7146 21.8813C79.7537 21.8645 79.789 21.8404 79.8187 21.8106C79.8485 21.7809 79.8726 21.7456 79.8875 21.7066C79.9023 21.6676 79.9116 21.6248 79.9116 21.5839V17.9284C79.9116 17.8857 79.9042 17.8448 79.8875 17.8039C79.8708 17.763 79.8485 17.7296 79.8187 17.6999C79.789 17.6701 79.7537 17.646 79.7146 17.6292C79.6756 17.6125 79.6347 17.6051 79.592 17.6051H70.3055V13.3029H79.592C79.6347 13.3029 79.6756 13.2954 79.7146 13.2787C79.7537 13.262 79.789 13.2378 79.8187 13.2081C79.8485 13.1784 79.8726 13.143 79.8875 13.104C79.9023 13.065 79.9116 13.0222 79.9116 12.9795V9.32402C79.9116 9.28128 79.9042 9.24039 79.8875 9.19951C79.8708 9.15862 79.8485 9.12517 79.8187 9.09544C79.789 9.0657 79.7537 9.04154 79.7146 9.02482C79.6756 9.00809 79.6347 9.00066 79.592 9.00066H70.3055V4.69845H79.592C79.6347 4.69845 79.6756 4.69102 79.7146 4.67429C79.7537 4.65756 79.789 4.63341 79.8187 4.60367C79.8485 4.57394 79.8726 4.53863 79.8875 4.4996C79.9042 4.46057 79.9116 4.41783 79.9116 4.37509V0.719603C79.9116 0.676859 79.9042 0.635975 79.8875 0.59509C79.8708 0.554205 79.8485 0.520753 79.8187 0.491019Z" fill="url(#paint3_linear)"/>
<path d="M14.0904 0.39624H0.319646C0.276902 0.39624 0.236017 0.403674 0.196991 0.420399C0.157964 0.437125 0.122655 0.459426 0.0929203 0.491019C0.0650442 0.518895 0.0408849 0.554205 0.0241593 0.59509C0.00743362 0.635975 0 0.675001 0 0.717744V4.37509C0 4.46057 0.0334513 4.54234 0.0929203 4.60367C0.152389 4.665 0.234159 4.69845 0.319646 4.69845H9.60796V13.5203C9.60796 13.563 9.61539 13.6039 9.63212 13.643C9.64884 13.682 9.67114 13.7173 9.70088 13.747C9.73061 13.7768 9.76592 13.8009 9.80495 13.8176C9.84397 13.8344 9.88486 13.8418 9.9276 13.8418H14.0904C14.1759 13.8418 14.2577 13.8084 14.3172 13.747C14.3766 13.6857 14.4101 13.6039 14.4101 13.5184V0.717744C14.4101 0.632258 14.3766 0.550488 14.3153 0.489161C14.254 0.427833 14.1759 0.39624 14.0904 0.39624Z" fill="url(#paint4_linear)"/>
<path d="M4.65902 9H0.144956C0.0650442 9 0 9.06504 0 9.14681V21.7598C0 21.8416 0.0650442 21.9066 0.144956 21.9066H4.65716C4.73708 21.9066 4.80212 21.8416 4.80212 21.7598V9.14681C4.80398 9.06504 4.73893 9 4.65902 9Z" fill="url(#paint5_linear)"/>
<path d="M23.8735 0.394775H19.3613C19.2814 0.394775 19.2163 0.45982 19.2163 0.541589V21.759C19.2163 21.8408 19.2814 21.9058 19.3613 21.9058H23.8735C23.9534 21.9058 24.0184 21.8408 24.0184 21.759V0.541589C24.0184 0.461678 23.9534 0.394775 23.8735 0.394775Z" fill="url(#paint6_linear)"/>
<path d="M60.5522 0.394775H56.04C55.9601 0.394775 55.895 0.45982 55.895 0.541589V21.759C55.895 21.8408 55.9601 21.9058 56.04 21.9058H60.5522C60.6321 21.9058 60.6971 21.8408 60.6971 21.759V0.541589C60.6971 0.461678 60.6321 0.394775 60.5522 0.394775Z" fill="url(#paint7_linear)"/>
<path d="M108.93 6.59717H97.0176C96.9749 6.59717 96.934 6.6046 96.895 6.62133C96.856 6.63805 96.8207 6.66035 96.7909 6.69195C96.7612 6.72168 96.737 6.75699 96.7222 6.79602C96.7073 6.83504 96.698 6.87779 96.698 6.91867V9.27513C96.698 9.36062 96.7314 9.44239 96.7909 9.50371C96.8504 9.56504 96.9322 9.59849 97.0176 9.59849H105.747V12.7485H97.0176C96.9749 12.7485 96.934 12.7559 96.895 12.7727C96.856 12.7894 96.8207 12.8117 96.7909 12.8433C96.7612 12.873 96.737 12.9083 96.7222 12.9473C96.7073 12.9864 96.698 13.0291 96.698 13.07V13.9676V15.4265V19.225V20.3048V21.5796C96.698 21.6651 96.7314 21.7469 96.7909 21.8082C96.8504 21.8695 96.9322 21.903 97.0176 21.903H107.153L107.155 21.8993H108.928C109.014 21.8993 109.095 21.8658 109.155 21.8045C109.214 21.7432 109.248 21.6614 109.248 21.5759V6.92053C109.248 6.83504 109.214 6.75327 109.153 6.69195C109.092 6.63062 109.016 6.59717 108.93 6.59717ZM105.748 18.9054H100.201V15.7517H105.748V18.9054Z" fill="url(#paint8_linear)"/>
<path d="M93.0605 0.39209H89.8603C89.7804 0.39209 89.7153 0.457134 89.7153 0.538904V21.7563C89.7153 21.8381 89.7804 21.9031 89.8603 21.9031H93.0605C93.1404 21.9031 93.2054 21.8381 93.2054 21.7563V0.538904C93.2054 0.457134 93.1404 0.39209 93.0605 0.39209Z" fill="url(#paint9_linear)"/>
<path d="M141.019 9.59932C141.104 9.59932 141.186 9.56587 141.245 9.50454C141.305 9.44321 141.338 9.36144 141.338 9.27596V6.92136C141.338 6.87861 141.331 6.83773 141.314 6.7987C141.297 6.75968 141.275 6.72437 141.245 6.69463C141.216 6.6649 141.18 6.64074 141.141 6.62401C141.102 6.60729 141.061 6.59985 141.019 6.59985H129.106C129.021 6.59985 128.941 6.63331 128.879 6.69463C128.82 6.75596 128.785 6.83773 128.785 6.92322V15.431C128.785 15.5165 128.818 15.5983 128.878 15.6596C128.937 15.7209 129.019 15.7544 129.104 15.7544H130.279H131.966H137.833V18.9044H129.104C129.019 18.9044 128.937 18.9378 128.878 18.9991C128.818 19.0605 128.785 19.1422 128.785 19.2277V21.5842C128.785 21.6269 128.792 21.6678 128.809 21.7068C128.826 21.7459 128.848 21.7812 128.878 21.8109C128.907 21.8406 128.943 21.8648 128.982 21.8815C129.021 21.8982 129.062 21.9057 129.104 21.9057H141.017C141.102 21.9057 141.182 21.8722 141.243 21.8109C141.303 21.7496 141.338 21.6678 141.338 21.5823V15.4291V13.0745C141.338 13.0318 141.331 12.9909 141.314 12.9519C141.297 12.9129 141.275 12.8775 141.245 12.8478C141.216 12.8181 141.18 12.7939 141.141 12.7772C141.102 12.7605 141.061 12.753 141.019 12.753H138.157H132.29V9.59932H141.019Z" fill="url(#paint10_linear)"/>
<path d="M125.2 6.76882C125.17 6.73909 125.135 6.71493 125.096 6.6982C125.056 6.68148 125.016 6.67404 124.973 6.67404H116.244V0.718965C116.244 0.676222 116.236 0.635337 116.22 0.59631C116.203 0.557284 116.181 0.521974 116.151 0.49224C116.121 0.462505 116.086 0.438346 116.047 0.42162C116.008 0.404895 115.967 0.397461 115.924 0.397461H113.062C112.977 0.397461 112.895 0.430912 112.836 0.49224C112.776 0.553567 112.743 0.635337 112.743 0.720823V21.5833C112.743 21.6688 112.776 21.7505 112.837 21.8119C112.897 21.8732 112.979 21.9066 113.064 21.9066H124.977C125.019 21.9066 125.06 21.8992 125.099 21.8825C125.138 21.8658 125.174 21.8435 125.203 21.8119C125.233 21.7821 125.257 21.7468 125.272 21.7078C125.289 21.6688 125.296 21.626 125.296 21.5851V20.3121V19.2287V9.35201V8.79263V6.99555C125.296 6.9528 125.289 6.91192 125.272 6.87289C125.255 6.83387 125.229 6.79856 125.2 6.76882ZM121.791 18.9016H116.244V9.67537H121.791V18.9016Z" fill="url(#paint11_linear)"/>
<defs>
<linearGradient id="paint0_linear" x1="-1.57109" y1="-0.420445" x2="138.429" y2="20.1459" gradientUnits="userSpaceOnUse">
<stop stop-color="#12D6D6"/>
<stop offset="1" stop-color="#00DBA6"/>
</linearGradient>
<linearGradient id="paint1_linear" x1="-2.35822" y1="4.93872" x2="137.642" y2="25.5051" gradientUnits="userSpaceOnUse">
<stop stop-color="#12D6D6"/>
<stop offset="1" stop-color="#00DBA6"/>
</linearGradient>
<linearGradient id="paint2_linear" x1="-3.14502" y1="10.2949" x2="136.855" y2="30.8613" gradientUnits="userSpaceOnUse">
<stop stop-color="#12D6D6"/>
<stop offset="1" stop-color="#00DBA6"/>
</linearGradient>
<linearGradient id="paint3_linear" x1="-1.66573" y1="0.226142" x2="138.334" y2="20.7925" gradientUnits="userSpaceOnUse">
<stop stop-color="#12D6D6"/>
<stop offset="1" stop-color="#00DBA6"/>
</linearGradient>
<linearGradient id="paint4_linear" x1="-2.36824" y1="5.00696" x2="137.632" y2="25.5733" gradientUnits="userSpaceOnUse">
<stop stop-color="#12D6D6"/>
<stop offset="1" stop-color="#00DBA6"/>
</linearGradient>
<linearGradient id="paint5_linear" x1="-3.76965" y1="14.546" x2="136.23" y2="35.1123" gradientUnits="userSpaceOnUse">
<stop stop-color="#12D6D6"/>
<stop offset="1" stop-color="#00DBA6"/>
</linearGradient>
<linearGradient id="paint6_linear" x1="-2.74466" y1="7.5724" x2="137.255" y2="28.1388" gradientUnits="userSpaceOnUse">
<stop stop-color="#12D6D6"/>
<stop offset="1" stop-color="#00DBA6"/>
</linearGradient>
<linearGradient id="paint7_linear" x1="-1.97046" y1="2.29799" x2="138.029" y2="22.8643" gradientUnits="userSpaceOnUse">
<stop stop-color="#12D6D6"/>
<stop offset="1" stop-color="#00DBA6"/>
</linearGradient>
<linearGradient id="paint8_linear" x1="1.05212" y1="-0.72047" x2="141.052" y2="19.8459" gradientUnits="userSpaceOnUse">
<stop stop-color="#12D6D6"/>
<stop offset="1" stop-color="#00DBA6"/>
</linearGradient>
<linearGradient id="paint9_linear" x1="1.25468" y1="-2.10379" x2="141.255" y2="18.4626" gradientUnits="userSpaceOnUse">
<stop stop-color="#12D6D6"/>
<stop offset="1" stop-color="#00DBA6"/>
</linearGradient>
<linearGradient id="paint10_linear" x1="1.72964" y1="-5.33557" x2="141.73" y2="15.2308" gradientUnits="userSpaceOnUse">
<stop stop-color="#12D6D6"/>
<stop offset="1" stop-color="#00DBA6"/>
</linearGradient>
<linearGradient id="paint11_linear" x1="1.74073" y1="-5.41424" x2="141.741" y2="15.1522" gradientUnits="userSpaceOnUse">
<stop stop-color="#12D6D6"/>
<stop offset="1" stop-color="#00DBA6"/>
</linearGradient>
</defs>
</svg>
