<svg width="1920" height="985" viewBox="0 0 1920 985" fill="none" xmlns="http://www.w3.org/2000/svg">
<path opacity="0.5" d="M509.758 951.438C494.985 890.548 508.353 856.349 549.861 848.84C612.124 837.577 642.688 871.638 657.487 794.152C672.286 716.666 749.842 740.417 810.98 711.268C872.118 682.119 851.189 638.766 893.01 634.123C934.831 629.48 956.399 635.136 965.54 609.423C974.681 583.711 1045.77 573.076 1063.31 592.769C1080.84 612.463 1101.71 631.705 1123.32 621.019C1144.94 610.332 1168.99 611.232 1168.99 628.576C1168.99 645.919 1185.4 614.014 1228.89 661.755C1272.38 709.496 1256.84 823.587 1365.17 808.869C1437.4 799.058 1498.59 846.581 1548.74 951.438H509.758Z" fill="url(#paint0_radial)"/>
<path opacity="0.5" d="M1526.58 225.7C1512.05 233.498 1501.71 237.551 1495.57 237.86C1486.36 238.323 1487.01 242.78 1480.2 240.336C1473.4 237.893 1468.94 243.077 1464.94 244.646C1460.94 246.215 1458.85 238.596 1455.77 238.503C1452.7 238.411 1447.33 244.483 1441.88 246.617C1436.44 248.751 1423.29 252.539 1395.17 241.752C1404.77 242.997 1407.23 239.591 1408.68 233.46C1410.14 227.329 1416.86 225.577 1419.7 227.828C1422.54 230.079 1423.08 231.133 1424.15 228.4C1425.21 225.667 1427.33 224.208 1429.85 225.16C1432.38 226.112 1432.66 224.796 1434.15 220.889C1435.64 216.983 1441.04 211.107 1450.08 212.899C1459.11 214.692 1463 229.337 1466.52 227.303C1470.04 225.268 1469.01 223.482 1471.96 222.325C1474.91 221.167 1476.66 226.191 1479.01 226.328C1481.36 226.465 1481.55 223.758 1488.16 222.739C1494.78 221.72 1498.74 223.557 1507.9 225.217C1514.02 226.324 1520.24 226.485 1526.58 225.7Z" fill="url(#paint1_linear)"/>
<path opacity="0.5" d="M1212.89 262.356C1221.42 271.612 1229.61 277.848 1237.48 281.062C1249.29 285.884 1251.13 274.65 1257.71 273.296C1262.1 272.394 1265.2 275.023 1267.02 281.183C1269.29 278.568 1271.25 277.745 1272.9 278.715C1275.37 280.17 1276.71 284.966 1279.42 283.868C1282.13 282.77 1284.65 279.986 1287.55 282.651C1290.44 285.316 1292.45 283.133 1296.83 282.571C1301.21 282.009 1302.51 284.988 1309.33 289.921C1313.87 293.209 1326.28 295.669 1346.56 297.3C1332.04 308.317 1321.05 314.198 1313.6 314.945C1302.41 316.065 1298.85 309.682 1294.78 310.514C1290.7 311.347 1288.81 316.37 1284.17 314.975C1279.54 313.58 1280.32 313.001 1272.71 316C1265.1 318.999 1261.56 313.864 1257.15 307.645C1252.74 301.425 1251.34 299.453 1243.75 299.764C1236.15 300.074 1232.61 295.532 1226.72 288.056C1222.79 283.072 1218.18 274.506 1212.89 262.356Z" fill="url(#paint2_linear)"/>
<path opacity="0.5" d="M5.74023 513.642C39.1976 490.791 68.7471 482.343 94.3888 488.297C132.851 497.23 145.428 487.872 158.433 473.633C171.437 459.395 193.761 449.966 214.934 449.966C236.108 449.966 246.38 456.632 257.679 467.212C268.979 477.791 278.468 468.867 293.69 464.131C308.911 459.395 321.672 465.922 321.672 476.13C321.672 486.337 326.661 504.384 359.814 507.689C392.966 510.994 419.729 510.912 443.803 525.117C467.877 539.322 496.267 525.507 491.341 505.922C488.058 492.866 494.071 485.89 509.382 484.996C509.301 479.169 513.194 475.381 521.062 473.633C532.863 471.011 538.036 478.337 546.637 473.633C555.239 468.929 565.15 469.091 569.763 472.064C574.375 475.038 584.597 472.222 588.851 476.13C593.104 480.037 597.941 478.622 604.023 481.809C610.105 484.996 610.13 491.494 610.117 497.23C610.105 502.966 613.772 503.84 621.073 505.922C628.374 508.004 626.7 514.588 626.7 517.435C626.7 520.282 630.572 519.342 635.938 520.282C641.303 521.222 647.79 524.242 647.79 533.068C647.79 541.894 671.841 544.715 671.841 530.442C671.841 516.168 685.91 516.094 691.384 516.094C696.858 516.094 693.765 505.475 704.063 504.507C714.36 503.539 716.994 508.21 721.405 503.195C725.815 498.18 734.853 495.1 745.312 497.23C755.772 499.359 769.574 504.363 785.477 498.258C801.379 492.153 813.579 476.13 839.219 476.13C864.859 476.13 861.432 476.917 873.888 472.064C886.344 467.212 888.854 472.613 893.677 466.004C898.5 459.395 904.018 453.56 915.912 449.966C927.806 446.372 924.768 446.929 928.138 440.53C931.508 434.131 946.73 430.214 963.056 434.561C979.381 438.907 977.098 447.918 985.604 447.918C994.109 447.918 1008.62 449.116 1013.34 461.375C1018.05 473.633 1022.37 481.809 1031.7 481.809C1041.03 481.809 1050.85 482.564 1058.36 492.88C1065.88 503.195 1080.88 513.097 1096.23 510.393C1111.57 507.689 1117.51 508.232 1130.34 511.648C1143.17 515.063 1130.67 543.84 1200.36 528.206C1270.06 512.573 1259.66 507.711 1289.95 512.573C1320.24 517.435 1338.18 510.002 1348.3 505.531C1358.42 501.06 1369.73 503.363 1373.17 506.786C1376.61 510.208 1376.35 512.257 1382.56 511.232C1388.76 510.208 1395.95 512.305 1400.59 520.255C1405.24 528.206 1492.61 530.383 1504.24 523.688C1575.97 482.386 1557.24 646.615 1667.86 620.718C1708.74 582.201 1730.14 716.676 1813.69 703.523C1869.38 694.755 1909.73 687.356 1934.74 681.325V974.582H5.74023V513.642Z" fill="url(#paint3_linear)"/>
<path d="M1923.74 658.373C1902.03 652.635 1883.93 651.678 1869.46 655.501C1847.74 661.236 1839.81 673.747 1814.66 664.624C1789.51 655.501 1803.7 621.216 1778.32 613.795C1752.94 606.373 1751.94 609.636 1744.23 594.774C1736.52 579.912 1727.55 569.664 1708.88 565.475C1690.21 561.286 1663.42 574.245 1644.89 569.86C1626.37 565.475 1613.02 557.295 1589.6 563.577C1566.17 569.86 1556.63 574.547 1531.6 563.577C1506.58 552.608 1484.11 535.834 1459.91 532.047C1435.71 528.26 1432.52 514.733 1422.35 512.486C1412.17 510.24 1400.16 516.987 1400.16 512.486C1397.24 500.173 1384.74 499.218 1379.24 485.847C1363.2 480.716 1355.62 453.379 1352.21 428.543C1348.79 403.706 1378.71 199.82 1382.24 176.396C1379.74 169.71 1368.24 166.367 1362.74 172.097C1352.42 214.287 1315.9 459.902 1281.24 478.621C1270.83 484.246 1264.27 485.9 1258.92 493.233C1253.57 500.566 1243.36 504.042 1228.75 506.293C1214.14 508.544 1213.29 517.193 1203.73 517.193C1194.16 517.193 1180.53 517.284 1173.26 522.772C1165.99 528.26 1160.98 519.826 1145.84 522.772C1135.74 524.736 1129.84 527.828 1128.14 532.047C1119.5 531.467 1094.17 532.432 1082.15 534.942C1070.13 537.452 1062.41 541.597 1059 547.379C1046.48 545.559 1036.91 546.361 1030.28 549.787C1020.33 554.925 1020.66 554.941 1013 549.787C1007.89 546.351 998.444 546.351 984.657 549.787C980.354 540.67 972.387 535.722 960.755 534.942C943.307 533.772 936.478 541.322 931.125 532.047C925.771 522.772 920.58 519.329 906.955 517.193C893.33 515.058 900.255 505.446 890.322 496.145C880.389 486.843 870.941 485.287 855.346 486.065C839.751 486.843 844.576 481.853 833.01 478.621C821.445 475.388 809.146 481.644 805.76 490.272C802.373 498.9 774.034 491.732 753.685 503.32C733.336 514.907 751.162 528.26 731.274 528.26C711.387 528.26 699.484 525.197 684.287 535.803C669.09 546.408 665.93 557.952 636.132 561.669C606.334 565.386 590.107 582.529 536.102 551.068C482.097 519.606 412.886 540.534 405.76 571.09C398.635 601.647 348.311 561.701 291.926 556.572C235.542 551.442 245.687 580.265 221.464 583.172C197.24 586.078 197.805 574.245 168.045 569.86C138.285 565.475 123.768 581.387 116.629 601.647C111.871 615.153 74.9075 612.862 5.74023 594.774V950.98H1923.74V658.373Z" fill="url(#paint4_linear)"/>
<path d="M1321.84 416.738C1327.74 392.076 1367.06 177.416 1367.06 177.416C1367.06 177.416 1371.86 173.794 1374.85 179.318C1374.85 179.318 1350.55 340.942 1341.66 416.738C1332.77 492.535 1359.4 528.64 1373.83 537.218C1364.47 542.092 1331.13 548.096 1272.65 533.124C1287.62 520.491 1315.93 441.401 1321.84 416.738Z" fill="url(#paint5_linear)"/>
<path d="M1370.19 180.963L1318.64 493.012" stroke="url(#paint6_linear)" stroke-width="2" stroke-linecap="round" stroke-linejoin="round"/>
<path opacity="0.5" d="M1362.3 489.491C1367.99 451.099 1384.57 428.667 1412.03 422.196C1453.22 412.488 1473.27 444.411 1502.49 415.301C1531.72 386.191 1557.35 390.806 1573.87 390.806C1590.39 390.806 1587.39 382.764 1603.84 366.515C1620.29 350.267 1645.34 351.08 1653.93 362.185C1662.51 373.29 1666.71 384.965 1677.68 379.128C1688.65 373.29 1714.23 363.35 1739.24 374.555C1764.25 385.759 1763.57 408.832 1772.12 415.301C1780.67 421.77 1790.33 410.03 1802.05 422.196C1813.77 434.361 1810.22 454.002 1829.47 454.002C1848.72 454.002 1871.23 452.279 1889.96 472.9C1902.44 486.648 1924.37 486.648 1955.74 472.9V831.004H1171.06C1142.88 764.048 1145.53 720.35 1178.98 699.912C1229.17 669.254 1250.14 692.963 1250.14 633.055C1250.14 573.147 1274.57 574.376 1299.22 574.376C1323.88 574.376 1314.29 556.678 1323.84 523.085C1330.21 500.689 1343.03 489.491 1362.3 489.491Z" fill="url(#paint7_linear)"/>
<path opacity="0.5" d="M1241.18 489.491C1235.49 451.099 1218.91 428.667 1191.45 422.196C1150.26 412.488 1130.21 444.411 1100.99 415.301C1071.76 386.191 1046.13 390.806 1029.61 390.806C1013.09 390.806 1016.09 382.764 999.638 366.515C983.187 350.267 958.137 351.08 949.552 362.185C940.967 373.29 936.773 384.965 925.8 379.128C914.826 373.29 889.253 363.35 864.243 374.555C839.233 385.759 839.91 408.832 831.361 415.301C822.812 421.77 813.144 410.03 801.426 422.196C789.707 434.361 793.255 454.002 774.009 454.002C754.763 454.002 732.245 452.279 713.519 472.9C701.035 486.648 679.109 486.648 647.739 472.9V831.004H1432.42C1460.59 764.048 1457.95 720.35 1424.49 699.912C1374.31 669.254 1353.34 692.963 1353.34 633.055C1353.34 573.147 1328.91 574.376 1304.25 574.376C1279.6 574.376 1289.19 556.678 1279.64 523.085C1273.27 500.689 1260.45 489.491 1241.18 489.491Z" fill="url(#paint8_linear)"/>
<path opacity="0.5" d="M1123.74 831.004C1124.31 780.341 1140.2 744.864 1171.39 724.574C1218.18 694.137 1274.87 751.075 1301.76 751.075C1328.64 751.075 1324.01 745.518 1345.86 724.574C1360.43 710.61 1375.2 710.61 1390.17 724.574C1393.85 701.697 1403.25 691.745 1418.35 694.72C1441.01 699.181 1465.79 720.153 1499.45 678.436C1533.12 636.718 1549.86 605.512 1584.26 599.385C1618.66 593.259 1634.12 620.115 1659.01 615.838C1683.9 611.562 1678.04 558.637 1708.86 509.174C1729.42 476.198 1759.9 474.536 1800.31 504.187C1816.43 478.835 1839.13 466.159 1868.39 466.159C1897.66 466.159 1924.44 475.163 1948.74 493.172V831.004H1123.74Z" fill="url(#paint9_radial)"/>
<path d="M9.73828 983.675L519.935 832.698C523.819 831.549 524.796 826.501 521.622 823.985L466.593 780.377C463.349 777.806 464.455 772.632 468.466 771.612L579.493 743.371C580.932 743.005 582.459 743.297 583.661 744.169L595.971 753.094C597.191 753.978 598.745 754.265 600.201 753.875L652.848 739.757" stroke="url(#paint10_linear)" stroke-width="1.52074"/>
<path d="M0.214844 888.133L390.383 804.564C393.651 803.864 394.67 799.703 392.096 797.572L376.332 784.522C373.753 782.388 374.78 778.22 378.054 777.527L736.666 701.667" stroke="url(#paint11_linear)" stroke-width="1.52074"/>
<path d="M0.738281 833.213L343.349 765.367C345.893 764.863 346.643 761.588 344.572 760.028L331.209 749.961C329.1 748.372 329.924 745.029 332.531 744.604L437.797 727.414C442.248 726.688 446.813 727.486 450.753 729.681L473.2 742.185C477.315 744.478 482.108 745.244 486.734 744.349L744.272 694.496" stroke="url(#paint12_linear)" stroke-width="1.52074"/>
<path d="M-35.7402 738.367L196.101 707.704C200.569 707.113 205.106 708.048 208.976 710.359L249.674 734.657C253.69 737.054 258.42 737.969 263.04 737.241L466.786 705.133C471.483 704.392 476.291 705.35 480.346 707.834L513.127 727.914C517.337 730.493 522.352 731.423 527.207 730.526L655.697 706.791" stroke="url(#paint13_linear)" stroke-width="1.52074"/>
<path d="M836.238 771.193L840.574 778.511L950.188 765.459V723.632L907.022 721.79L836.238 771.193Z" fill="url(#paint14_linear)"/>
<path d="M553.161 543.508V546.645C601.166 553.22 645.452 566.527 686.02 586.568C746.872 616.629 838.929 676.775 838.929 769.118C845.39 755.519 841.42 709.819 827.02 632.017L632.118 533.336L553.161 543.508Z" fill="url(#paint15_linear)"/>
<path d="M553.162 543.508C584.958 523.771 600.857 513.903 600.857 513.903C730.24 517.422 916.24 589.922 950.189 723.633C879.426 753.359 841.443 769.213 836.239 771.194C840.836 735.743 829.778 701.415 803.064 668.21C762.993 618.404 709.275 590.814 675.717 576.088C642.159 561.362 573.664 543.508 553.162 543.508Z" fill="url(#paint16_linear)"/>
<path fill-rule="evenodd" clip-rule="evenodd" d="M656.651 560.35C635.57 551.522 615.666 545.573 596.938 542.502C601.778 538.347 606.916 534.353 612.353 530.52C624.096 531.697 634.976 533.503 644.996 535.938C655.015 538.374 663.677 541.124 670.983 544.189L656.651 560.35Z" fill="url(#paint17_linear)"/>
<path fill-rule="evenodd" clip-rule="evenodd" d="M703.078 569.641C704.421 558.155 710.054 551.038 719.976 548.287C734.859 544.162 746.557 554.606 748.452 564.196C750.347 573.787 745.941 583.901 737.92 588.657C719.957 589.648 708.343 583.309 703.078 569.641Z" fill="url(#paint18_linear)"/>
<path d="M707.778 571.745C708.617 571.745 709.298 571.076 709.298 570.25C709.298 569.424 708.617 568.754 707.778 568.754C706.938 568.754 706.257 569.424 706.257 570.25C706.257 571.076 706.938 571.745 707.778 571.745Z" fill="url(#paint19_linear)"/>
<path d="M712.339 559.781C713.179 559.781 713.86 559.112 713.86 558.286C713.86 557.46 713.179 556.791 712.339 556.791C711.499 556.791 710.818 557.46 710.818 558.286C710.818 559.112 711.499 559.781 712.339 559.781Z" fill="url(#paint20_linear)"/>
<path d="M722.985 553.799C723.825 553.799 724.505 553.13 724.505 552.304C724.505 551.478 723.825 550.808 722.985 550.808C722.145 550.808 721.464 551.478 721.464 552.304C721.464 553.13 722.145 553.799 722.985 553.799Z" fill="url(#paint21_linear)"/>
<path d="M736.671 558.286C737.511 558.286 738.192 557.616 738.192 556.79C738.192 555.964 737.511 555.295 736.671 555.295C735.831 555.295 735.15 555.964 735.15 556.79C735.15 557.616 735.831 558.286 736.671 558.286Z" fill="url(#paint22_linear)"/>
<path d="M742.754 571.745C743.594 571.745 744.275 571.076 744.275 570.25C744.275 569.424 743.594 568.754 742.754 568.754C741.914 568.754 741.233 569.424 741.233 570.25C741.233 571.076 741.914 571.745 742.754 571.745Z" fill="url(#paint23_linear)"/>
<path d="M736.671 583.709C737.511 583.709 738.192 583.04 738.192 582.214C738.192 581.388 737.511 580.718 736.671 580.718C735.831 580.718 735.15 581.388 735.15 582.214C735.15 583.04 735.831 583.709 736.671 583.709Z" fill="url(#paint24_linear)"/>
<path fill-rule="evenodd" clip-rule="evenodd" d="M731.085 553.126C731.431 553.264 731.618 553.624 731.545 553.971L731.505 554.1L724.851 570.298C725.555 570.91 725.826 571.914 725.454 572.819C724.983 573.968 723.653 574.523 722.485 574.059C721.317 573.595 720.753 572.287 721.224 571.138C721.597 570.233 722.502 569.696 723.441 569.737L730.095 553.54C730.252 553.157 730.695 552.972 731.085 553.126Z" fill="url(#paint25_linear)"/>
<path d="M857.101 733.829C855.022 734.846 854.027 737.253 854.779 739.442C855.648 741.969 858.484 743.221 860.937 742.162L895.1 727.41C897.991 726.162 899.235 722.738 897.82 719.925C896.472 717.244 893.217 716.148 890.522 717.468L857.101 733.829Z" fill="url(#paint26_linear)"/>
<path opacity="0.3" fill-rule="evenodd" clip-rule="evenodd" d="M836.238 672.62L856.308 661.754C870.665 677.831 879.943 690.231 884.142 698.954C879.057 701.432 871.073 704.981 860.19 709.6L836.238 672.62Z" fill="url(#paint27_linear)"/>
<path opacity="0.5" d="M862.342 679.804L852.045 666.973" stroke="#EBFFFB" stroke-width="1.52074" stroke-linecap="round"/>
<path opacity="0.5" d="M845.104 670.417L850.464 677.751" stroke="#EBFFFB" stroke-width="1.52074" stroke-linecap="round"/>
<path d="M753.399 607.638C755.919 607.638 757.961 605.629 757.961 603.151C757.961 600.673 755.919 598.665 753.399 598.665C750.879 598.665 748.837 600.673 748.837 603.151C748.837 605.629 750.879 607.638 753.399 607.638Z" fill="url(#paint28_linear)"/>
<path d="M835.519 640.539C838.039 640.539 840.081 638.53 840.081 636.052C840.081 633.575 838.039 631.566 835.519 631.566C833 631.566 830.957 633.575 830.957 636.052C830.957 638.53 833 640.539 835.519 640.539Z" fill="url(#paint29_linear)"/>
<path opacity="0.5" d="M759.833 586.928L780.494 603.153" stroke="#1D5047" stroke-width="1.52074" stroke-linecap="round"/>
<path opacity="0.5" d="M762.024 582.214L768.874 586.927" stroke="#1D5047" stroke-width="1.52074" stroke-linecap="round"/>
<path opacity="0.5" d="M764.365 577.4L796.453 598.666" stroke="#1D5047" stroke-width="1.52074" stroke-linecap="round"/>
<path opacity="0.5" d="M766.94 572.969L779.322 579.41" stroke="#1D5047" stroke-width="1.52074" stroke-linecap="round"/>
<path d="M771.648 567.259C772.488 567.259 773.168 566.59 773.168 565.764C773.168 564.938 772.488 564.268 771.648 564.268C770.808 564.268 770.127 564.938 770.127 565.764C770.127 566.59 770.808 567.259 771.648 567.259Z" fill="url(#paint30_linear)"/>
<path d="M780.773 571.746C781.613 571.746 782.293 571.076 782.293 570.25C782.293 569.424 781.613 568.755 780.773 568.755C779.933 568.755 779.252 569.424 779.252 570.25C779.252 571.076 779.933 571.746 780.773 571.746Z" fill="url(#paint31_linear)"/>
<path d="M788.376 576.232C789.216 576.232 789.897 575.563 789.897 574.737C789.897 573.911 789.216 573.241 788.376 573.241C787.536 573.241 786.855 573.911 786.855 574.737C786.855 575.563 787.536 576.232 788.376 576.232Z" fill="url(#paint32_linear)"/>
<path fill-rule="evenodd" clip-rule="evenodd" d="M631.21 510.183C661.378 512.814 694.43 517.742 728.549 526.969V408.499C696.972 411.735 664.329 413.451 631.21 413.409V510.183ZM856.08 584.37C816.155 557.524 774.614 540.013 734.403 528.591V407.88C777.544 403.183 818.611 395.653 856.08 385.905V584.37ZM861.934 588.382C915.209 625.59 965.324 679.844 1005.2 758.953V322.377C970.932 346.94 921.115 368.432 861.934 384.356V588.382ZM628.292 509.935V413.401C599.607 413.276 570.58 411.829 541.592 408.906V507.167C565.167 507.167 594.904 507.167 628.292 509.935Z" fill="url(#paint33_linear)"/>
<path opacity="0.5" fill-rule="evenodd" clip-rule="evenodd" d="M1005.2 502.065V555.088L921.285 638.999C912.362 629.795 903.25 621.233 893.992 613.269L1005.2 502.065ZM1005.2 402.778V437.798L861.933 581.061V546.041L1005.2 402.778ZM1005.2 344.283V351.595L861.933 494.858V487.546L1005.2 344.283ZM785.967 400.775C795.967 399.1 805.808 397.272 815.469 395.302L734.403 476.368V452.34L785.967 400.775ZM728.549 428.973V430.918L647.643 511.825C645.341 511.565 643.053 511.319 640.779 511.088L722.893 428.973H728.549ZM649.132 413.261C675.36 412.794 701.219 411.239 726.411 408.716L631.209 503.917V431.183L649.132 413.261ZM555.208 507.185L628.291 434.102V506.835L625.423 509.703C599.302 507.648 575.488 507.258 555.208 507.185ZM671.712 515.031L728.549 458.194V482.222L692.19 518.58C685.284 517.247 678.452 516.07 671.712 515.031ZM764.272 538.173C766.995 539.151 769.72 540.16 772.447 541.2L855.18 458.467H843.978L764.272 538.173ZM797.712 551.767L856.079 493.4V500.712L802.705 554.086C801.041 553.3 799.377 552.527 797.712 551.767ZM836.164 571.81C842.838 575.751 849.48 579.933 856.079 584.37V551.895L836.164 571.81Z" fill="url(#paint34_radial)"/>
<path fill-rule="evenodd" clip-rule="evenodd" d="M862.506 568.334C859.498 567.45 856.316 569.031 855.204 571.962L838.255 616.619C836.597 620.987 837.626 625.921 840.891 629.263L905.564 695.448C909.271 699.242 915.687 697.694 917.257 692.627L945.875 600.247C947.03 596.516 944.909 592.561 941.162 591.459L862.506 568.334Z" fill="url(#paint35_linear)"/>
<path opacity="0.78" d="M853.046 623.691C851.716 615.049 853.281 609.653 857.741 607.502C858.839 608.232 860.982 607.744 861.368 608.93C863.085 614.192 860.311 619.113 853.046 623.691Z" fill="url(#paint36_linear)"/>
<path fill-rule="evenodd" clip-rule="evenodd" d="M857.221 602.834C855.117 603.055 853.396 604.079 852.058 605.906C850.72 607.732 850.082 609.844 850.145 612.239C852.097 609.375 854.455 607.808 857.221 607.537C861.369 607.13 863.139 609.869 863.65 613.125C863.99 615.296 863.978 617.385 863.612 619.392C865.653 617.495 867.037 615.277 867.763 612.737C868.489 610.197 867.878 607.456 865.931 604.514L857.221 602.834Z" fill="url(#paint37_linear)"/>
<path d="M855.106 606.444C855.888 607.842 857.102 608.939 858.749 609.736C860.396 610.533 862.306 610.533 864.478 609.736C867.496 604.014 869.615 597.886 870.835 591.352C872.667 581.551 872.416 574.008 870.835 574.008C869.255 574.008 863.953 581.078 859.53 592.113C856.581 599.469 855.106 604.246 855.106 606.444Z" fill="url(#paint38_linear)"/>
<path d="M870.837 574.008C872.142 574.008 872.54 579.151 871.608 586.462C868.436 586.946 865.575 586.283 863.022 584.474L863.531 583.511C866.742 577.541 869.719 574.008 870.837 574.008Z" fill="url(#paint39_linear)"/>
<path d="M864.65 598.31C866.554 598.31 868.098 596.792 868.098 594.919C868.098 593.046 866.554 591.527 864.65 591.527C862.745 591.527 861.201 593.046 861.201 594.919C861.201 596.792 862.745 598.31 864.65 598.31Z" fill="url(#paint40_linear)"/>
<path d="M864.649 596.654C865.624 596.654 866.414 595.877 866.414 594.919C866.414 593.96 865.624 593.183 864.649 593.183C863.675 593.183 862.885 593.96 862.885 594.919C862.885 595.877 863.675 596.654 864.649 596.654Z" fill="url(#paint41_linear)"/>
<path opacity="0.5" d="M870.469 578.538L894.781 587.857" stroke="#1D5047" stroke-width="1.3" stroke-linecap="round"/>
<path opacity="0.5" d="M865.93 597.649L891.798 611.493" stroke="#1D5047" stroke-width="1.3" stroke-linecap="round"/>
<path opacity="0.5" d="M861.368 605.527L875.497 616.536C877.58 618.159 878.357 620.952 877.412 623.417L876.38 626.108C875.381 628.714 876.31 631.663 878.622 633.226L886.211 638.358" stroke="#1D5047" stroke-width="1.3" stroke-linecap="round"/>
<path opacity="0.78" fill-rule="evenodd" clip-rule="evenodd" d="M897.504 584.264C896.499 583.968 895.435 584.497 895.066 585.479L892.488 592.336C892.105 593.354 892.606 594.491 893.616 594.896L930.616 609.721C931.676 610.145 932.875 609.598 933.249 608.52L936.878 598.07C937.252 596.992 936.649 595.819 935.554 595.496L897.504 584.264Z" fill="url(#paint42_linear)"/>
<path opacity="0.5" d="M898.006 589.184L898.707 592.93L904.762 591.057" stroke="#1D5047" stroke-width="1.52074" stroke-linecap="round"/>
<path opacity="0.78" fill-rule="evenodd" clip-rule="evenodd" d="M893.979 604.975C893.454 604.733 892.833 604.985 892.626 605.524L888.354 616.647C888.176 617.11 888.365 617.634 888.799 617.877L921.545 636.235C922.088 636.539 922.774 636.279 922.979 635.691L927.871 621.625C928.04 621.139 927.813 620.605 927.346 620.389L893.979 604.975Z" fill="url(#paint43_linear)"/>
<path opacity="0.5" d="M894.78 611.464L896.005 614.597L902.761 613.031" stroke="#1D5047" stroke-width="1.52074" stroke-linecap="round"/>
<path opacity="0.78" fill-rule="evenodd" clip-rule="evenodd" d="M887.47 629.594C886.952 629.244 886.243 629.45 885.993 630.023L880.131 643.445C879.96 643.836 880.056 644.293 880.371 644.582L910.909 672.583C911.449 673.078 912.321 672.844 912.539 672.145L918.931 651.718C919.063 651.297 918.903 650.838 918.537 650.591L887.47 629.594Z" fill="url(#paint44_linear)"/>
<path opacity="0.5" d="M887.676 638.358V643.424L896.137 642.548" stroke="#1D5047" stroke-width="1.52074" stroke-linecap="round"/>
<path opacity="0.5" d="M880.086 650L908.301 677.66" stroke="#1D5047" stroke-width="1.52074" stroke-linecap="round"/>
<path opacity="0.5" d="M878.284 655.111L894.961 671.746" stroke="#1D5047" stroke-width="1.52074" stroke-linecap="round"/>
<path opacity="0.5" d="M876.284 659.83L883.358 666.718" stroke="#1D5047" stroke-width="1.52074" stroke-linecap="round"/>
<path d="M861.128 633.063C862.388 633.063 863.409 632.058 863.409 630.819C863.409 629.581 862.388 628.576 861.128 628.576C859.868 628.576 858.847 629.581 858.847 630.819C858.847 632.058 859.868 633.063 861.128 633.063Z" fill="url(#paint45_linear)"/>
<path d="M868.211 640.54C869.471 640.54 870.492 639.536 870.492 638.297C870.492 637.058 869.471 636.053 868.211 636.053C866.951 636.053 865.93 637.058 865.93 638.297C865.93 639.536 866.951 640.54 868.211 640.54Z" fill="url(#paint46_linear)"/>
<path fill-rule="evenodd" clip-rule="evenodd" d="M629.878 490.764C628.548 490.659 627.309 491.445 626.837 492.693L617.223 518.101C616.584 519.791 617.572 521.659 619.329 522.08L673.517 535.083C675.081 535.458 676.664 534.533 677.103 532.985L686.791 498.849C687.308 497.027 686.029 495.187 684.141 495.039L629.878 490.764Z" fill="url(#paint47_linear)"/>
<path d="M631.386 498.51L641.46 499.864" stroke="#1D5047" stroke-width="1.52074" stroke-linecap="round"/>
<path d="M630.646 502.786L635.633 503.405" stroke="#1D5047" stroke-width="1.52074" stroke-linecap="round"/>
<path d="M667.672 514.413C671.871 514.413 675.276 511.065 675.276 506.935C675.276 502.806 671.871 499.458 667.672 499.458C663.473 499.458 660.068 502.806 660.068 506.935C660.068 511.065 663.473 514.413 667.672 514.413Z" stroke="#1D5047" stroke-width="1.52074" stroke-linecap="round" stroke-linejoin="round"/>
<path d="M663.913 504.459L666.206 509.437L673.789 504.459" stroke="#1D5047" stroke-width="1.52074" stroke-linecap="round" stroke-linejoin="round"/>
<path fill-rule="evenodd" clip-rule="evenodd" d="M633.388 531.182C641.657 526.636 646.237 524.363 647.129 524.363C648.466 524.363 642.13 528.518 641.452 531.182C640.773 533.846 640.414 534.68 635.458 536.599C632.153 537.878 631.463 536.072 633.388 531.182Z" fill="url(#paint48_linear)"/>
<path fill-rule="evenodd" clip-rule="evenodd" d="M567.37 623.104C566.297 648.925 565.761 666.132 565.761 674.726C565.761 687.618 569.282 686.558 575.059 687.508C580.836 688.458 587.618 686.475 587.618 684.137C587.618 681.798 578.319 681.924 576.689 676.128C575.603 672.264 577.344 656.105 581.914 627.652L567.37 623.104Z" fill="url(#paint49_linear)"/>
<path d="M576.803 676.487C578.707 681.919 587.618 681.847 587.618 684.136C587.618 686.424 581.128 688.372 575.438 687.566L574.266 687.387C569.42 686.692 566.33 686.957 565.832 677.637C570.105 678.827 573.719 678.472 576.674 676.571L576.803 676.487Z" fill="url(#paint50_linear)"/>
<path fill-rule="evenodd" clip-rule="evenodd" d="M580.187 627.53C583.089 659.932 584.54 678.861 584.54 684.315C584.54 692.497 583.347 697.516 589.705 697.516C596.062 697.516 611.57 693.875 611.57 691.384C611.57 688.893 597.608 689.221 594.732 684.315C592.814 681.045 594.542 662.116 599.916 627.53H580.187Z" fill="url(#paint51_linear)"/>
<path d="M595.441 685.224C599.395 689.191 611.57 689.059 611.57 691.385C611.57 693.876 596.063 697.518 589.705 697.518C584.054 697.518 584.368 693.552 584.508 686.925C588.571 687.985 592.09 687.507 595.064 685.492L595.441 685.224Z" fill="url(#paint52_linear)"/>
<path d="M561.112 593.176C563.386 609.701 564.523 620.923 564.523 626.841C576.877 636.991 600.265 633.112 601.491 632.143C602.308 631.497 602.716 620.432 602.716 598.948L577.289 576.09L561.112 593.176Z" fill="url(#paint53_linear)"/>
<path d="M568.906 560.034C565.051 557.794 562.589 555.424 561.519 552.924C559.915 549.174 568.938 531.434 570.948 527.629C572.288 525.093 574.146 523.744 576.522 523.583L568.906 560.034Z" fill="url(#paint54_linear)"/>
<path opacity="0.1" fill-rule="evenodd" clip-rule="evenodd" d="M574.498 533.26L568.904 560.036C566.085 558.398 564.01 556.69 562.681 554.913C566.435 545.214 570.375 537.996 574.498 533.26Z" fill="#262626"/>
<path d="M576.521 523.584C573.398 531.156 570.582 540.179 568.075 550.654C564.314 566.367 558.742 593.631 558.742 596.115C569.607 604.46 580.052 608.05 604.705 602.941C604.705 601.701 598.811 571.873 602.717 546.039C611.924 550.654 612.967 551.018 621.142 547.643C626.592 545.393 632.012 541.797 637.401 536.853L633.387 531.182C624.133 534.51 618.497 536.4 616.48 536.853C613.455 537.532 605.627 528.941 598.801 525.384C594.25 523.013 591.016 521.828 589.1 521.828L576.521 523.584Z" fill="url(#paint55_linear)"/>
<path opacity="0.1" fill-rule="evenodd" clip-rule="evenodd" d="M595.404 541.81L602.716 546.038C600.677 559.528 601.309 574.107 602.379 585.136C597.667 573.907 595.339 559.887 595.396 543.076L595.404 541.81Z" fill="#262626"/>
<path fill-rule="evenodd" clip-rule="evenodd" d="M585.186 508.169C585.864 513.779 584.831 517.914 582.087 520.575C577.971 524.565 589.909 526.48 592.669 524.737C595.43 522.995 593.519 514.791 596.16 513.508C598.801 512.225 602.034 511.684 602.644 508.647C603.254 505.611 599.901 495.553 597.546 494.09C595.976 493.114 592.38 493.344 586.757 494.78L585.186 508.169Z" fill="url(#paint56_linear)"/>
<path fill-rule="evenodd" clip-rule="evenodd" d="M593.485 499.936C592.41 498.16 591.088 497.271 589.519 497.271C587.164 497.271 587.802 500.926 590.349 502.093C592.896 503.26 590.254 510.061 586.709 511.084C583.164 512.106 578.432 508.419 577.178 504.177C575.923 499.936 575.849 492.753 582.684 488.323C589.519 483.893 597.969 489.033 598.718 491.76C599.217 493.578 597.473 496.304 593.485 499.936Z" fill="url(#paint57_linear)"/>
<path d="M573.869 504.084C574.58 500.643 576.337 498.922 579.139 498.922C583.343 498.922 587.622 506.092 581.558 510.839C577.515 514.003 574.952 511.752 573.869 504.084Z" fill="url(#paint58_linear)"/>
<path fill-rule="evenodd" clip-rule="evenodd" d="M581.522 504.327L581.545 504.388C582.838 507.754 583.214 511.678 582.674 516.159C581.719 524.084 576.762 529.456 568.074 533.339C569.955 528.076 569.54 522.499 568.807 515.387C568.091 508.434 572.003 503.367 575.272 501.895L575.493 501.801C577.76 500.885 580.34 501.879 581.387 504.024L581.522 504.327Z" fill="url(#paint59_linear)"/>
<path fill-rule="evenodd" clip-rule="evenodd" d="M837.082 713C835.99 718.306 836.303 722.056 838.021 724.249C840.599 727.539 848.707 731.201 852.214 731.201C855.72 731.201 857.395 726.517 853.892 722.7C850.388 718.884 846.35 716.508 847.029 715.42C847.708 714.332 851.034 713.214 850.184 711.774C849.618 710.815 847.123 711.223 842.7 713H837.082Z" fill="url(#paint60_linear)"/>
<path d="M777.394 843.477C775.547 845.624 774.623 848.216 774.623 851.252C774.623 855.806 776.694 859.578 782.866 859.578C789.038 859.578 809.417 850.881 810.897 847.179C811.883 844.711 803.712 843.146 786.384 842.483L777.394 843.477Z" fill="url(#paint61_linear)"/>
<path fill-rule="evenodd" clip-rule="evenodd" d="M773.486 832.306C775.019 840.716 776.114 845.824 776.772 847.632C777.759 850.343 790.046 848.098 790.046 844.838C790.046 842.664 789.741 836.49 789.131 826.315L773.486 832.306Z" fill="url(#paint62_linear)"/>
<path d="M734.256 820.58C734.256 822.777 734.256 824.981 734.256 827.193C734.256 830.51 740.182 831.423 743.134 828.713C746.086 826.003 747.72 815.843 747.72 812.979C747.72 810.115 741.801 810.562 739.457 812.979C737.895 814.59 736.161 817.123 734.256 820.58Z" fill="url(#paint63_linear)"/>
<path fill-rule="evenodd" clip-rule="evenodd" d="M734.256 810.988C734.256 816.569 734.256 819.766 734.256 820.58C734.256 821.802 741.588 823.091 742.199 820.021C742.607 817.975 742.918 814.257 743.134 808.869L734.256 810.988Z" fill="url(#paint64_linear)"/>
<path d="M736.324 694.471C733.65 714.786 732.313 735.644 732.313 757.046C732.313 789.149 732.406 808.861 733.362 812.274C734.319 815.687 742.809 815.004 744.026 812.274C745.244 809.544 749.261 771.414 754.453 749.995C758.949 772.244 762.787 799.182 765.222 815.378C767.657 831.575 769.103 836.45 775.464 836.45C781.825 836.45 787.882 833.391 789.704 830.268C790.918 828.187 788.899 789.723 783.647 714.877L736.324 694.471Z" fill="url(#paint65_linear)"/>
<path opacity="0.447312" fill-rule="evenodd" clip-rule="evenodd" d="M747.722 732.455C750.78 737.197 753.023 743.044 754.454 749.996L754.144 751.301C749.102 772.927 745.22 809.6 744.027 812.276C743.513 813.43 741.699 814.218 739.703 814.486C743.803 803.042 747.722 765.581 747.722 732.455Z" fill="#262626"/>
<path fill-rule="evenodd" clip-rule="evenodd" d="M833.216 580.217C830.782 588.439 828.629 594.107 826.754 597.22C824.879 600.333 820.883 601.387 814.764 600.381V615.185H797.768L786.541 606.551L785.913 601.614C790.709 600.299 794.661 596.404 797.768 589.929C800.874 583.454 812.69 580.217 833.216 580.217Z" fill="url(#paint66_linear)"/>
<path opacity="0.1" fill-rule="evenodd" clip-rule="evenodd" d="M814.765 604.041L807.18 599.15L814.765 600.383L814.765 604.041Z" fill="#262626"/>
<path fill-rule="evenodd" clip-rule="evenodd" d="M825.161 585.903C825.002 584.074 824.056 583.16 822.322 583.16C819.722 583.16 819.827 586.71 821.075 587.942C822.322 589.175 818.009 588.781 817.332 592.478C816.655 596.174 811.881 594.222 810.265 596.181C808.649 598.14 803.996 596.976 801.025 595.601C798.054 594.225 793.772 591.548 792.381 585.903C790.991 580.257 789.768 575.111 792.381 573.676C794.994 572.24 795.371 572.223 795.371 569.148C795.371 566.073 799.744 567.529 800.385 566.801C801.025 566.073 801.986 560.509 805.625 558.912C809.264 557.315 812.802 560.371 815.067 560.371C817.332 560.371 819.483 558.306 822.322 558.912C825.161 559.519 824.777 562.785 826.391 562.785C828.005 562.785 832.156 562.929 833.277 565.611C834.397 568.293 834.53 569.095 837.071 570.477C839.613 571.858 841.465 574.553 841.465 578.856C841.465 583.16 833.44 582.561 830.469 583.16C828.488 583.56 826.719 584.474 825.161 585.903Z" fill="url(#paint67_linear)"/>
<path d="M787.799 598.411C793.223 604.907 798.207 609.046 802.75 610.829C809.564 613.504 810.668 611.192 816.155 612.348C821.643 613.504 829.595 627.42 833.215 641.195C836.835 654.969 842.273 688.417 844.249 714.428C842.13 716.223 839.012 716.655 834.894 715.724C821.059 682.529 813.022 663.51 810.783 658.665C802.75 666.29 787.391 693.01 786.385 703.719C785.38 714.428 786.385 715.66 786.385 718.659C786.385 721.657 769.932 724.558 750.683 716.937C731.434 709.317 732.799 696.393 735.988 691.193C739.176 685.993 737.831 667.464 748.515 636.159C755.637 615.289 768.732 602.706 787.799 598.411Z" fill="url(#paint68_linear)"/>
<path opacity="0.1" fill-rule="evenodd" clip-rule="evenodd" d="M803.017 638.743L810.782 658.666C802.749 666.291 787.39 693.011 786.384 703.72L786.274 704.948C785.987 708.306 785.915 710.64 785.943 712.38C779.693 693.323 790.044 653.909 803.017 638.743Z" fill="#262626"/>
<path opacity="0.1" fill-rule="evenodd" clip-rule="evenodd" d="M806.855 648.493L810.783 658.666C802.749 666.291 787.39 693.011 786.385 703.72L786.274 704.948C785.988 708.306 785.916 710.64 785.943 712.38C779.693 693.323 793.881 663.658 806.855 648.493Z" fill="#262626"/>
<path fill-rule="evenodd" clip-rule="evenodd" d="M708.003 572.491C705.681 566.806 704.52 562.83 704.52 560.561C704.52 557.158 704.677 554.691 703.698 552.613C703.046 551.227 701.306 549.976 698.479 548.858L692.816 556.479C693.769 559.026 695.156 561.175 696.978 562.927C698.799 564.679 700.321 570.368 701.544 579.993L708.003 572.491Z" fill="url(#paint69_linear)"/>
<path d="M680.031 772.574C679.418 774.071 679.112 776.355 679.112 779.425C679.112 784.031 686.017 785.673 698.345 783.194C710.673 780.715 714.815 776.558 713.417 773.484C712.485 771.435 704.983 769.981 690.913 769.121L680.031 772.574Z" fill="url(#paint70_linear)"/>
<path fill-rule="evenodd" clip-rule="evenodd" d="M677.458 754.99C678.704 764.759 679.562 770.62 680.03 772.573C680.732 775.503 690.678 775.848 692.344 773.379C693.454 771.733 694.095 765.861 694.265 755.765L677.458 754.99Z" fill="url(#paint71_linear)"/>
<path d="M652.302 754.433C651.735 755.71 651.307 757.625 651.016 760.179C650.581 764.009 657.263 765.659 660.625 762.382C663.986 759.106 666.349 750.554 665.465 747.412C664.876 745.318 662.496 745.318 658.324 747.412L652.302 754.433Z" fill="url(#paint72_linear)"/>
<path fill-rule="evenodd" clip-rule="evenodd" d="M652.3 744.946C652.3 749.761 652.3 752.924 652.3 754.434C652.3 756.7 659.17 757.587 659.607 754.434C659.899 752.332 660.238 748.495 660.623 742.923L652.3 744.946Z" fill="url(#paint73_linear)"/>
<path d="M652.143 655.409C651.39 694.741 651.014 719.964 651.014 731.079C651.014 747.751 651.556 745.743 653.373 747.576C655.19 749.409 660.438 748.818 661.456 745.173C662.135 742.743 665.648 724.914 671.994 691.684C672.911 716.605 673.637 733.816 674.172 743.317C674.974 757.568 675.867 761.113 682.755 763.351C689.643 765.589 694.947 761.891 696.073 755.887C696.824 751.885 698.409 721.405 700.828 664.447L667.465 636.149L660.028 637.469L652.143 655.409Z" fill="url(#paint74_linear)"/>
<path opacity="0.447312" fill-rule="evenodd" clip-rule="evenodd" d="M657.716 748.428L657.486 748.472L658.63 738.561C663.583 696.357 667.031 676.527 668.975 679.07C671.191 681.969 672.198 686.173 671.996 691.683L666.244 721.583C663.488 735.754 661.893 743.617 661.459 745.172C660.949 746.994 659.383 748.053 657.716 748.428Z" fill="#262626"/>
<path fill-rule="evenodd" clip-rule="evenodd" d="M698.866 532.725C700.125 538.867 700.754 544.319 700.754 549.08C700.754 556.221 698.212 557.341 695.481 557.829C693.661 558.154 691.851 558.453 690.051 558.726L691.667 575.331L679.59 579.146L671.698 573.505C675.017 565.409 676.677 558.127 676.677 551.657C676.677 545.187 682.003 537.916 692.654 529.843L698.866 532.725Z" fill="url(#paint75_linear)"/>
<path opacity="0.1" fill-rule="evenodd" clip-rule="evenodd" d="M690.051 558.728L690.563 564.001L683.559 558.728H690.051Z" fill="#262626"/>
<path fill-rule="evenodd" clip-rule="evenodd" d="M691.583 541.864C690.762 539.91 689.526 538.933 687.873 538.933C685.395 538.933 685.7 542.532 688.332 544.981C690.963 547.43 687.386 551.974 681.812 554.488C676.238 557.001 675.23 555.902 673.401 549.243C671.572 542.584 671.228 533.249 678.378 528.4C685.528 523.55 695.477 526.793 697.621 528.4C699.765 530.006 703.697 528.45 703.697 530.876C703.697 532.493 699.659 536.156 691.583 541.864Z" fill="url(#paint76_linear)"/>
<path d="M656.67 613.458C650.525 611.814 648.708 604.198 649.84 598.643L658.679 599.607C658.679 600.062 657.12 602.852 656.67 613.458Z" fill="url(#paint77_linear)"/>
<path opacity="0.1" d="M658.614 613.935C652.469 612.291 650.652 604.675 651.785 599.12L660.623 600.084C660.623 600.539 659.064 603.329 658.614 613.935Z" fill="#262626"/>
<path d="M691.088 571.915C693.179 572.573 695.313 574.983 697.49 579.146C704.239 607.922 700.739 638.922 700.739 664.422C668.739 674.422 651.739 657.116 651.739 654.422C651.739 648.981 654.152 620.447 655.739 600.922C655.739 600.922 651.239 600.922 648.739 598.922C651.739 584.922 659.376 574.213 662.263 570.533C665.151 566.854 670.442 564.889 673.983 568.402C676.344 570.744 682.046 571.915 691.088 571.915Z" fill="url(#paint78_linear)"/>
<path opacity="0.1" fill-rule="evenodd" clip-rule="evenodd" d="M657.739 587.422L655.739 600.922C655.739 600.922 653.629 601.275 651.629 600.275L657.739 587.422Z" fill="#262626"/>
<path opacity="0.1" fill-rule="evenodd" clip-rule="evenodd" d="M691.236 585.553L699.434 589.624C700.51 602.203 700.395 622.144 701.299 634.273C701.619 638.567 702.092 643.045 702.721 647.71C695.811 633.871 691.994 613.599 691.27 586.894L691.236 585.553Z" fill="#262626"/>
<path d="M691.738 586.922C693.466 593.11 699.34 616.68 706.986 620.643C714.632 624.606 717.238 619.452 717.238 608.422C717.238 601.069 716.51 590.723 707.238 570.922L700.738 572.922L702.238 583.422L691.738 586.922Z" fill="url(#paint79_linear)"/>
<path d="M691.087 571.917C688.783 577.889 688.207 582.937 689.359 587.062C690.529 591.253 693.353 599.042 694.766 602.422C694.766 602.422 707.239 604.922 711.239 596.922C709.895 590.651 702.739 568.922 691.087 571.917Z" fill="url(#paint80_linear)"/>
<path opacity="0.1" fill-rule="evenodd" clip-rule="evenodd" d="M713.091 605.437C711.002 596.628 709.787 586.161 700.883 575.36C700.709 573.675 699.025 566.909 699.025 566.909C710.179 575.397 712.084 591.985 713.091 605.437Z" fill="#262626"/>
<path fill-rule="evenodd" clip-rule="evenodd" d="M1385.79 495.327C1383.49 493.096 1381.35 490.467 1379.71 486.922L1379.71 425.405L1369.78 425.408C1369.76 424.438 1369.75 423.44 1369.74 422.416L1379.71 422.414V393.999H1385.79V444.846H1394.92V432.882H1401L1401 513.855C1400.46 513.625 1400.16 513.195 1400.16 512.486C1399.22 508.524 1397.29 505.739 1394.92 503.337L1394.92 486.721H1385.79L1385.79 495.327ZM1385.79 447.837H1394.92V483.73H1385.79V447.837Z" fill="url(#paint81_linear)"/>
<path d="M1361.64 129.595C1365.03 126.969 1368.07 124.615 1370.06 122.41L1398.51 128.1C1399.51 130.902 1401.41 134.244 1403.53 137.972C1410.53 150.288 1419.93 166.81 1406.86 181.929C1406.83 176.259 1397.5 164.063 1385.09 151.689L1373.38 149.346C1357.16 155.996 1343.87 163.669 1341.65 168.889C1335.41 149.908 1350.43 138.27 1361.64 129.595Z" fill="url(#paint82_linear)"/>
<path d="M1367.63 152.321C1364.78 139.983 1364.2 128.961 1365.89 119.254C1368.43 104.693 1378.02 57.1979 1383.32 38.6956C1388.63 20.1932 1402.91 6.70613 1405.44 6.74854C1407.97 6.79095 1414.6 22.9293 1414.26 43.4696C1413.91 64.01 1401.41 117.203 1397.79 130.854C1395.38 139.954 1391.09 148.589 1384.91 156.76L1367.63 152.321Z" fill="url(#paint83_linear)"/>
<path opacity="0.4" fill-rule="evenodd" clip-rule="evenodd" d="M1402.92 136.893C1401.77 141.589 1400.8 145.443 1400.08 148.146C1398.8 152.981 1397.12 157.719 1395.05 162.36C1392.1 158.924 1388.73 155.314 1385.09 151.689L1373.38 149.346C1367.07 151.931 1361.21 154.671 1356.27 157.361C1355.52 148.749 1355.77 140.709 1357 133.241C1358.57 131.966 1360.14 130.754 1361.64 129.594C1365.03 126.969 1368.07 124.615 1370.06 122.41L1398.51 128.1C1399.41 130.629 1401.05 133.598 1402.92 136.893Z" fill="url(#paint84_linear)"/>
<path d="M1386.98 80.8506L1390.91 81.6617L1388.13 92.9243L1384.34 92.1824L1386.98 80.8506Z" fill="url(#paint85_linear)"/>
<path d="M1398.4 76.0075L1398.39 76.0511L1398.44 76.0599L1396.16 85.8599L1392.66 85.1146L1394.23 78.4622L1387.69 77.1861L1388.34 74.0527L1398.4 76.0075Z" fill="url(#paint86_linear)"/>
<path d="M1405.44 6.74823C1407.97 6.79064 1414.6 22.9289 1414.25 43.4693C1414.21 45.9994 1413.98 49.0249 1413.61 52.411C1412.03 45.5285 1407.26 41.4377 1399.28 40.14C1392.17 38.9828 1386.32 40.4832 1381.72 44.6411L1382.34 42.2499C1382.68 40.9728 1383.01 39.7839 1383.32 38.6953C1388.63 20.1929 1402.91 6.70582 1405.44 6.74823Z" fill="url(#paint87_linear)"/>
<path d="M1386.18 103.595C1394.28 104.835 1399.59 108.007 1402.13 113.111L1401.25 116.878C1399.81 122.938 1398.59 127.853 1397.79 130.855C1395.38 139.955 1391.09 148.59 1384.91 156.761L1367.63 152.322C1364.78 139.985 1364.2 128.962 1365.89 119.255L1366.36 116.608C1366.83 114.079 1367.41 110.963 1368.1 107.434C1371.79 103.595 1377.82 102.316 1386.18 103.595Z" fill="url(#paint88_linear)"/>
<path d="M1386.78 153.192C1387.14 156.231 1388.72 170.247 1386.6 175.586C1384.03 182.061 1377.05 182.789 1371.02 181.532C1364.96 180.37 1358.8 177.016 1358.92 170.05C1359.01 164.306 1365.86 151.974 1367.36 149.31C1370.88 146.842 1376.68 148.106 1377.65 148.341C1378.64 148.497 1384.48 149.561 1386.78 153.192Z" fill="url(#paint89_linear)"/>
<ellipse cx="1372.37" cy="175.334" rx="10.5952" ry="5.04192" transform="rotate(11.3084 1372.37 175.334)" fill="url(#paint90_linear)"/>
<path fill-rule="evenodd" clip-rule="evenodd" d="M1364.23 170.88C1366.36 169.911 1369.73 169.664 1373.35 170.39C1376.98 171.115 1380 172.639 1381.59 174.351C1379.46 175.32 1376.09 175.566 1372.46 174.841C1368.84 174.115 1365.82 172.592 1364.23 170.88Z" fill="url(#paint91_linear)"/>
<path d="M1394.84 65.6169C1400.36 66.7196 1405.71 63.2175 1406.79 57.7948C1407.87 52.3722 1404.28 47.0823 1398.77 45.9796C1393.26 44.8769 1387.91 48.379 1386.82 53.8017C1385.74 59.2244 1389.33 64.5142 1394.84 65.6169Z" fill="url(#paint92_linear)"/>
<path d="M1395.33 63.1656C1399.47 63.993 1403.48 61.3653 1404.3 57.2965C1405.11 53.2277 1402.42 49.2586 1398.28 48.4312C1394.14 47.6038 1390.13 50.2315 1389.31 54.3003C1388.5 58.3691 1391.2 62.3383 1395.33 63.1656Z" fill="url(#paint93_linear)"/>
<path opacity="0.6" fill-rule="evenodd" clip-rule="evenodd" d="M1381.32 151.447C1381.74 151.46 1382.07 151.805 1382.06 152.218L1381.91 156.48C1381.78 159.989 1381.65 162.556 1381.51 164.188L1381.45 164.892L1381.38 165.456C1381.14 167.292 1380.44 169.09 1379.29 170.845C1379.06 171.192 1378.59 171.292 1378.24 171.069C1377.89 170.845 1377.78 170.382 1378.01 170.035C1379.04 168.46 1379.66 166.87 1379.87 165.261L1379.92 164.896C1380.05 163.7 1380.18 161.578 1380.31 158.539L1380.38 156.943L1380.54 152.172C1380.55 151.759 1380.9 151.435 1381.32 151.447ZM1372.96 149.086C1373.36 149.219 1373.57 149.644 1373.44 150.035L1372.18 153.691L1370.82 157.714C1369.89 160.512 1369.29 162.391 1369.04 163.345C1368.63 164.916 1368.6 166.619 1368.96 168.459C1369.04 168.864 1368.77 169.256 1368.36 169.334C1367.95 169.411 1367.55 169.145 1367.47 168.74C1367.07 166.69 1367.1 164.765 1367.57 162.971L1367.78 162.228L1368.17 160.958C1368.9 158.622 1370.17 154.825 1372 149.553C1372.13 149.162 1372.56 148.953 1372.96 149.086Z" fill="url(#paint94_linear)"/>
<path opacity="0.8" d="M1367.63 152.32C1361.71 126.74 1400.87 109.847 1405.44 6.74832C1407.97 6.79073 1414.6 22.929 1414.26 43.4694C1413.91 64.0098 1401.41 117.203 1397.79 130.853C1395.38 139.954 1391.09 148.589 1384.91 156.76L1367.63 152.32Z" fill="url(#paint95_linear)"/>
<path opacity="0.8" d="M1376.78 154.149C1372.62 136.188 1390.33 127.193 1414.26 43.4695C1413.91 64.0099 1401.41 117.203 1397.79 130.853C1395.38 139.954 1391.09 148.589 1384.91 156.76L1376.78 154.149Z" fill="url(#paint96_linear)"/>
<defs>
<radialGradient id="paint0_radial" cx="0" cy="0" r="1" gradientUnits="userSpaceOnUse" gradientTransform="translate(335.087 839.657) rotate(81.1085) scale(811.505 122.875)">
<stop stop-color="#409C86" stop-opacity="0.4"/>
<stop offset="1" stop-color="#132331" stop-opacity="0"/>
</radialGradient>
<linearGradient id="paint1_linear" x1="1474.58" y1="193.379" x2="1489.72" y2="232.002" gradientUnits="userSpaceOnUse">
<stop stop-color="#409C86" stop-opacity="0.4"/>
<stop offset="1" stop-color="#132331" stop-opacity="0"/>
</linearGradient>
<linearGradient id="paint2_linear" x1="1318.32" y1="270.419" x2="1242.32" y2="387.594" gradientUnits="userSpaceOnUse">
<stop stop-color="#409C86" stop-opacity="0.4"/>
<stop offset="1" stop-color="#132331" stop-opacity="0"/>
</linearGradient>
<linearGradient id="paint3_linear" x1="1332.36" y1="215.881" x2="1280.49" y2="751.025" gradientUnits="userSpaceOnUse">
<stop stop-color="#87E9D1"/>
<stop offset="1" stop-color="#132331" stop-opacity="0"/>
</linearGradient>
<linearGradient id="paint4_linear" x1="1362.74" y1="186.424" x2="1333.99" y2="663.929" gradientUnits="userSpaceOnUse">
<stop stop-color="#C5FFF1" stop-opacity="0.62"/>
<stop offset="0.417693" stop-color="#24806A" stop-opacity="0.43"/>
<stop offset="1" stop-color="#132331" stop-opacity="0"/>
</linearGradient>
<linearGradient id="paint5_linear" x1="1344.96" y1="184.337" x2="1188.87" y2="434.165" gradientUnits="userSpaceOnUse">
<stop stop-color="#C5FFF1" stop-opacity="0.62"/>
<stop offset="1" stop-color="#132331" stop-opacity="0"/>
</linearGradient>
<linearGradient id="paint6_linear" x1="1370.19" y1="186.026" x2="1344.42" y2="493.012" gradientUnits="userSpaceOnUse">
<stop stop-color="white"/>
<stop offset="1" stop-color="#19302C" stop-opacity="0"/>
</linearGradient>
<linearGradient id="paint7_linear" x1="1726.1" y1="280.631" x2="1726.1" y2="732.398" gradientUnits="userSpaceOnUse">
<stop stop-color="#409C86" stop-opacity="0.4"/>
<stop offset="1" stop-color="#132331" stop-opacity="0"/>
</linearGradient>
<linearGradient id="paint8_linear" x1="877.376" y1="280.631" x2="877.376" y2="732.398" gradientUnits="userSpaceOnUse">
<stop stop-color="#409C86" stop-opacity="0.4"/>
<stop offset="1" stop-color="#132331" stop-opacity="0"/>
</linearGradient>
<radialGradient id="paint9_radial" cx="0" cy="0" r="1" gradientUnits="userSpaceOnUse" gradientTransform="translate(1681.5 532.751) rotate(90.1257) scale(297.614 371.193)">
<stop stop-color="#409C86" stop-opacity="0.89"/>
<stop offset="1" stop-color="#132331" stop-opacity="0"/>
</radialGradient>
<linearGradient id="paint10_linear" x1="9.73829" y1="886.466" x2="553.545" y2="718.505" gradientUnits="userSpaceOnUse">
<stop stop-color="#6887B3" stop-opacity="0.48"/>
<stop offset="0.509598" stop-color="#098599" stop-opacity="0.249703"/>
<stop offset="1" stop-color="#00E8FF" stop-opacity="0.49"/>
</linearGradient>
<linearGradient id="paint11_linear" x1="-89.8421" y1="950.262" x2="615.497" y2="690.225" gradientUnits="userSpaceOnUse">
<stop stop-color="#121E2F" stop-opacity="0"/>
<stop offset="1" stop-color="#00E8FF"/>
</linearGradient>
<linearGradient id="paint12_linear" x1="39.223" y1="842.586" x2="629.888" y2="691.531" gradientUnits="userSpaceOnUse">
<stop stop-color="#121E2F" stop-opacity="0"/>
<stop offset="0.575245" stop-color="#0892A7" stop-opacity="0.575245"/>
<stop offset="1" stop-color="#00E8FF" stop-opacity="0.63"/>
</linearGradient>
<linearGradient id="paint13_linear" x1="-25.3107" y1="773.707" x2="572.411" y2="698.104" gradientUnits="userSpaceOnUse">
<stop stop-color="#74DAA9" stop-opacity="0.5"/>
<stop offset="0.454788" stop-color="#21AFC8" stop-opacity="0.454788"/>
<stop offset="1" stop-color="#00E8FF" stop-opacity="0.28"/>
</linearGradient>
<linearGradient id="paint14_linear" x1="1062.26" y1="688.529" x2="956.009" y2="879.506" gradientUnits="userSpaceOnUse">
<stop stop-color="#5CDEAC"/>
<stop offset="1" stop-color="#123635"/>
</linearGradient>
<linearGradient id="paint15_linear" x1="1171.96" y1="-160.401" x2="783.343" y2="866.632" gradientUnits="userSpaceOnUse">
<stop stop-color="#5CDEAC"/>
<stop offset="1" stop-color="#123635"/>
</linearGradient>
<linearGradient id="paint16_linear" x1="725.009" y1="576.912" x2="691.97" y2="756.775" gradientUnits="userSpaceOnUse">
<stop stop-color="#5CDEAC"/>
<stop offset="1" stop-color="#123635"/>
</linearGradient>
<linearGradient id="paint17_linear" x1="553.556" y1="543.829" x2="556.711" y2="552.714" gradientUnits="userSpaceOnUse">
<stop stop-color="#CEFFDD"/>
<stop offset="1" stop-color="#B2FFF9"/>
</linearGradient>
<linearGradient id="paint18_linear" x1="733.608" y1="550.584" x2="719.501" y2="582.271" gradientUnits="userSpaceOnUse">
<stop stop-color="#CEFFDD"/>
<stop offset="1" stop-color="#B2FFF9" stop-opacity="0"/>
</linearGradient>
<linearGradient id="paint19_linear" x1="706.257" y1="546.629" x2="711.243" y2="576.126" gradientUnits="userSpaceOnUse">
<stop stop-color="#066A81"/>
<stop offset="1" stop-color="#12E2EF"/>
</linearGradient>
<linearGradient id="paint20_linear" x1="710.818" y1="534.665" x2="715.805" y2="564.162" gradientUnits="userSpaceOnUse">
<stop stop-color="#066A81"/>
<stop offset="1" stop-color="#12E2EF"/>
</linearGradient>
<linearGradient id="paint21_linear" x1="721.464" y1="528.682" x2="726.45" y2="558.179" gradientUnits="userSpaceOnUse">
<stop stop-color="#066A81"/>
<stop offset="1" stop-color="#12E2EF"/>
</linearGradient>
<linearGradient id="paint22_linear" x1="735.15" y1="533.169" x2="740.136" y2="562.666" gradientUnits="userSpaceOnUse">
<stop stop-color="#066A81"/>
<stop offset="1" stop-color="#12E2EF"/>
</linearGradient>
<linearGradient id="paint23_linear" x1="741.233" y1="546.629" x2="746.22" y2="576.126" gradientUnits="userSpaceOnUse">
<stop stop-color="#066A81"/>
<stop offset="1" stop-color="#12E2EF"/>
</linearGradient>
<linearGradient id="paint24_linear" x1="735.15" y1="558.593" x2="740.136" y2="588.09" gradientUnits="userSpaceOnUse">
<stop stop-color="#066A81"/>
<stop offset="1" stop-color="#12E2EF"/>
</linearGradient>
<linearGradient id="paint25_linear" x1="729.362" y1="556.807" x2="720.662" y2="580.702" gradientUnits="userSpaceOnUse">
<stop stop-color="#CEFFDD"/>
<stop offset="1" stop-color="#B2FFF9"/>
</linearGradient>
<linearGradient id="paint26_linear" x1="840.068" y1="711.451" x2="847.073" y2="748.279" gradientUnits="userSpaceOnUse">
<stop stop-color="#5DF1D7"/>
<stop offset="1" stop-color="#128698"/>
</linearGradient>
<linearGradient id="paint27_linear" x1="900.171" y1="664.697" x2="842.641" y2="693.368" gradientUnits="userSpaceOnUse">
<stop stop-color="#070707"/>
<stop offset="1" stop-color="#3E2F24"/>
</linearGradient>
<linearGradient id="paint28_linear" x1="743.491" y1="600.273" x2="744.96" y2="610.372" gradientUnits="userSpaceOnUse">
<stop stop-color="#CEFFDD"/>
<stop offset="1" stop-color="#B2FFF9"/>
</linearGradient>
<linearGradient id="paint29_linear" x1="825.611" y1="633.175" x2="827.08" y2="643.273" gradientUnits="userSpaceOnUse">
<stop stop-color="#CEFFDD"/>
<stop offset="1" stop-color="#B2FFF9"/>
</linearGradient>
<linearGradient id="paint30_linear" x1="768.345" y1="564.804" x2="768.835" y2="568.17" gradientUnits="userSpaceOnUse">
<stop stop-color="#CEFFDD"/>
<stop offset="1" stop-color="#B2FFF9"/>
</linearGradient>
<linearGradient id="paint31_linear" x1="777.47" y1="569.291" x2="777.96" y2="572.657" gradientUnits="userSpaceOnUse">
<stop stop-color="#CEFFDD"/>
<stop offset="1" stop-color="#B2FFF9"/>
</linearGradient>
<linearGradient id="paint32_linear" x1="785.073" y1="573.777" x2="785.563" y2="577.143" gradientUnits="userSpaceOnUse">
<stop stop-color="#CEFFDD"/>
<stop offset="1" stop-color="#B2FFF9"/>
</linearGradient>
<linearGradient id="paint33_linear" x1="657.574" y1="376.904" x2="871.136" y2="841.217" gradientUnits="userSpaceOnUse">
<stop stop-color="#066A81" stop-opacity="0.249126"/>
<stop offset="1" stop-color="#12E2EF"/>
</linearGradient>
<radialGradient id="paint34_radial" cx="0" cy="0" r="1" gradientUnits="userSpaceOnUse" gradientTransform="translate(682.251 560.54) rotate(-29.0546) scale(265.356 161.091)">
<stop stop-color="white" stop-opacity="0.22"/>
<stop offset="1" stop-color="white" stop-opacity="0.12"/>
</radialGradient>
<linearGradient id="paint35_linear" x1="869.153" y1="551.079" x2="936.569" y2="722.006" gradientUnits="userSpaceOnUse">
<stop stop-color="#DBFFEE" stop-opacity="0.56"/>
<stop offset="1" stop-color="#12E2EF"/>
</linearGradient>
<linearGradient id="paint36_linear" x1="850.64" y1="610.405" x2="853.658" y2="628.271" gradientUnits="userSpaceOnUse">
<stop stop-color="#CEFFDD"/>
<stop offset="1" stop-color="#B2FFF9"/>
</linearGradient>
<linearGradient id="paint37_linear" x1="837.445" y1="611.204" x2="876.04" y2="618.695" gradientUnits="userSpaceOnUse">
<stop stop-color="#5CDEAC"/>
<stop offset="1" stop-color="#123635"/>
</linearGradient>
<linearGradient id="paint38_linear" x1="850.009" y1="582.042" x2="878.663" y2="588.031" gradientUnits="userSpaceOnUse">
<stop stop-color="#5DF1D7"/>
<stop offset="1" stop-color="#128698"/>
</linearGradient>
<linearGradient id="paint39_linear" x1="856.578" y1="580.381" x2="876.573" y2="582.968" gradientUnits="userSpaceOnUse">
<stop stop-color="#5CDEAC"/>
<stop offset="1" stop-color="#123635"/>
</linearGradient>
<linearGradient id="paint40_linear" x1="857.16" y1="592.743" x2="858.271" y2="600.376" gradientUnits="userSpaceOnUse">
<stop stop-color="#CEFFDD"/>
<stop offset="1" stop-color="#B2FFF9"/>
</linearGradient>
<linearGradient id="paint41_linear" x1="860.384" y1="594.938" x2="868.019" y2="596.33" gradientUnits="userSpaceOnUse">
<stop stop-color="#5CDEAC"/>
<stop offset="1" stop-color="#123635"/>
</linearGradient>
<linearGradient id="paint42_linear" x1="865.415" y1="593.853" x2="868.158" y2="604.806" gradientUnits="userSpaceOnUse">
<stop stop-color="#CEFFDD"/>
<stop offset="1" stop-color="#B2FFF9"/>
</linearGradient>
<linearGradient id="paint43_linear" x1="867.217" y1="613.379" x2="871.43" y2="637.049" gradientUnits="userSpaceOnUse">
<stop stop-color="#CEFFDD"/>
<stop offset="1" stop-color="#B2FFF9"/>
</linearGradient>
<linearGradient id="paint44_linear" x1="874.1" y1="636.486" x2="880.064" y2="687.18" gradientUnits="userSpaceOnUse">
<stop stop-color="#CEFFDD"/>
<stop offset="1" stop-color="#B2FFF9"/>
</linearGradient>
<linearGradient id="paint45_linear" x1="856.174" y1="629.381" x2="856.908" y2="634.43" gradientUnits="userSpaceOnUse">
<stop stop-color="#CEFFDD"/>
<stop offset="1" stop-color="#B2FFF9"/>
</linearGradient>
<linearGradient id="paint46_linear" x1="863.257" y1="636.858" x2="863.991" y2="641.907" gradientUnits="userSpaceOnUse">
<stop stop-color="#CEFFDD"/>
<stop offset="1" stop-color="#B2FFF9"/>
</linearGradient>
<linearGradient id="paint47_linear" x1="647.629" y1="490.587" x2="639.491" y2="528.312" gradientUnits="userSpaceOnUse">
<stop stop-color="#24D5BF" stop-opacity="0.49"/>
<stop offset="1" stop-color="white" stop-opacity="0.56"/>
</linearGradient>
<linearGradient id="paint48_linear" x1="623.544" y1="526.673" x2="625.184" y2="541.259" gradientUnits="userSpaceOnUse">
<stop stop-color="#CEFFDD"/>
<stop offset="1" stop-color="#B2FFF9"/>
</linearGradient>
<linearGradient id="paint49_linear" x1="552.955" y1="634.925" x2="578.764" y2="700.322" gradientUnits="userSpaceOnUse">
<stop stop-color="#CEFFDD"/>
<stop offset="1" stop-color="#B2FFF9"/>
</linearGradient>
<linearGradient id="paint50_linear" x1="587.658" y1="668.794" x2="581.47" y2="698.255" gradientUnits="userSpaceOnUse">
<stop stop-color="#5CDEAC"/>
<stop offset="1" stop-color="#123635"/>
</linearGradient>
<linearGradient id="paint51_linear" x1="561.799" y1="640.327" x2="584.167" y2="715.497" gradientUnits="userSpaceOnUse">
<stop stop-color="#CEFFDD"/>
<stop offset="1" stop-color="#B2FFF9"/>
</linearGradient>
<linearGradient id="paint52_linear" x1="611.62" y1="676.828" x2="605.64" y2="709.299" gradientUnits="userSpaceOnUse">
<stop stop-color="#5CDEAC"/>
<stop offset="1" stop-color="#123635"/>
</linearGradient>
<linearGradient id="paint53_linear" x1="567.314" y1="572.334" x2="587.809" y2="602.317" gradientUnits="userSpaceOnUse">
<stop stop-color="#28674F"/>
<stop offset="1" stop-color="#123635"/>
</linearGradient>
<linearGradient id="paint54_linear" x1="566.632" y1="523.589" x2="565.987" y2="549.139" gradientUnits="userSpaceOnUse">
<stop stop-color="#5DF1D7"/>
<stop offset="1" stop-color="#128698"/>
</linearGradient>
<linearGradient id="paint55_linear" x1="536.309" y1="510.771" x2="572.121" y2="614.455" gradientUnits="userSpaceOnUse">
<stop stop-color="#5DF1D7"/>
<stop offset="1" stop-color="#128698"/>
</linearGradient>
<linearGradient id="paint56_linear" x1="568.645" y1="499.328" x2="575.748" y2="535.201" gradientUnits="userSpaceOnUse">
<stop stop-color="#CEFFDD"/>
<stop offset="1" stop-color="#B2FFF9"/>
</linearGradient>
<linearGradient id="paint57_linear" x1="576.979" y1="514.299" x2="604.942" y2="519.194" gradientUnits="userSpaceOnUse">
<stop stop-color="#165B7A"/>
<stop offset="1" stop-color="#3E516B"/>
</linearGradient>
<linearGradient id="paint58_linear" x1="573.2" y1="498.924" x2="572.746" y2="508.246" gradientUnits="userSpaceOnUse">
<stop stop-color="#5DF1D7"/>
<stop offset="1" stop-color="#128698"/>
</linearGradient>
<linearGradient id="paint59_linear" x1="568.379" y1="537.272" x2="587.418" y2="538.989" gradientUnits="userSpaceOnUse">
<stop stop-color="#165B7A"/>
<stop offset="1" stop-color="#3E516B"/>
</linearGradient>
<linearGradient id="paint60_linear" x1="825.09" y1="714.914" x2="828.229" y2="737.787" gradientUnits="userSpaceOnUse">
<stop stop-color="#CEFFDD"/>
<stop offset="1" stop-color="#B2FFF9"/>
</linearGradient>
<linearGradient id="paint61_linear" x1="811.044" y1="830.808" x2="802.44" y2="875.848" gradientUnits="userSpaceOnUse">
<stop stop-color="#5CDEAC"/>
<stop offset="1" stop-color="#123635"/>
</linearGradient>
<linearGradient id="paint62_linear" x1="763.784" y1="830.434" x2="768.412" y2="855.931" gradientUnits="userSpaceOnUse">
<stop stop-color="#CEFFDD"/>
<stop offset="1" stop-color="#B2FFF9"/>
</linearGradient>
<linearGradient id="paint63_linear" x1="747.745" y1="797.808" x2="724.81" y2="837.175" gradientUnits="userSpaceOnUse">
<stop stop-color="#5CDEAC"/>
<stop offset="1" stop-color="#123635"/>
</linearGradient>
<linearGradient id="paint64_linear" x1="729.054" y1="811.255" x2="731.937" y2="825.95" gradientUnits="userSpaceOnUse">
<stop stop-color="#CEFFDD"/>
<stop offset="1" stop-color="#B2FFF9"/>
</linearGradient>
<linearGradient id="paint65_linear" x1="754.761" y1="685.213" x2="784.698" y2="763.022" gradientUnits="userSpaceOnUse">
<stop stop-color="#28674F"/>
<stop offset="1" stop-color="#123635"/>
</linearGradient>
<linearGradient id="paint66_linear" x1="758.199" y1="586.611" x2="762.193" y2="627.1" gradientUnits="userSpaceOnUse">
<stop stop-color="#CEFFDD"/>
<stop offset="1" stop-color="#B2FFF9"/>
</linearGradient>
<linearGradient id="paint67_linear" x1="791.886" y1="602.004" x2="853.424" y2="617.574" gradientUnits="userSpaceOnUse">
<stop stop-color="#165B7A"/>
<stop offset="1" stop-color="#3E516B"/>
</linearGradient>
<linearGradient id="paint68_linear" x1="702.689" y1="582.964" x2="752.63" y2="727.89" gradientUnits="userSpaceOnUse">
<stop stop-color="#65FFE4"/>
<stop offset="1" stop-color="#1CABC1"/>
</linearGradient>
<linearGradient id="paint69_linear" x1="683.919" y1="554.551" x2="693.184" y2="588.418" gradientUnits="userSpaceOnUse">
<stop stop-color="#CEFFDD"/>
<stop offset="1" stop-color="#B2FFF9"/>
</linearGradient>
<linearGradient id="paint70_linear" x1="713.74" y1="758.723" x2="706.531" y2="799.01" gradientUnits="userSpaceOnUse">
<stop stop-color="#5CDEAC"/>
<stop offset="1" stop-color="#123635"/>
</linearGradient>
<linearGradient id="paint71_linear" x1="667.611" y1="758.653" x2="671.244" y2="781.498" gradientUnits="userSpaceOnUse">
<stop stop-color="#CEFFDD"/>
<stop offset="1" stop-color="#B2FFF9"/>
</linearGradient>
<linearGradient id="paint72_linear" x1="665.679" y1="733.348" x2="645.528" y2="773.087" gradientUnits="userSpaceOnUse">
<stop stop-color="#5CDEAC"/>
<stop offset="1" stop-color="#123635"/>
</linearGradient>
<linearGradient id="paint73_linear" x1="647.423" y1="745.402" x2="650.713" y2="760.537" gradientUnits="userSpaceOnUse">
<stop stop-color="#CEFFDD"/>
<stop offset="1" stop-color="#B2FFF9"/>
</linearGradient>
<linearGradient id="paint74_linear" x1="670.837" y1="627.811" x2="696.845" y2="698.367" gradientUnits="userSpaceOnUse">
<stop stop-color="#28674F"/>
<stop offset="1" stop-color="#123635"/>
</linearGradient>
<linearGradient id="paint75_linear" x1="654.675" y1="538.858" x2="667.089" y2="593.69" gradientUnits="userSpaceOnUse">
<stop stop-color="#CEFFDD"/>
<stop offset="1" stop-color="#B2FFF9"/>
</linearGradient>
<linearGradient id="paint76_linear" x1="672.928" y1="559.414" x2="711.944" y2="567.361" gradientUnits="userSpaceOnUse">
<stop stop-color="#165B7A"/>
<stop offset="1" stop-color="#3E516B"/>
</linearGradient>
<linearGradient id="paint77_linear" x1="644.63" y1="601.493" x2="648.685" y2="618.765" gradientUnits="userSpaceOnUse">
<stop stop-color="#CEFFDD"/>
<stop offset="1" stop-color="#B2FFF9"/>
</linearGradient>
<linearGradient id="paint78_linear" x1="665.314" y1="577.143" x2="713.81" y2="654.969" gradientUnits="userSpaceOnUse">
<stop stop-color="#1F98CD"/>
<stop offset="1" stop-color="#1184C5"/>
</linearGradient>
<linearGradient id="paint79_linear" x1="700.238" y1="570.922" x2="714.597" y2="618.141" gradientUnits="userSpaceOnUse">
<stop stop-color="#BEFFED"/>
<stop offset="1" stop-color="#B2FFF9"/>
</linearGradient>
<linearGradient id="paint80_linear" x1="695.818" y1="574.901" x2="708.356" y2="602.569" gradientUnits="userSpaceOnUse">
<stop stop-color="#1F98CD"/>
<stop offset="1" stop-color="#1184C5"/>
</linearGradient>
<linearGradient id="paint81_linear" x1="1362.44" y1="384.652" x2="1362.44" y2="913.527" gradientUnits="userSpaceOnUse">
<stop stop-color="#066A81"/>
<stop offset="1" stop-color="#12E2EF"/>
</linearGradient>
<linearGradient id="paint82_linear" x1="1304" y1="118.551" x2="1298.45" y2="176.758" gradientUnits="userSpaceOnUse">
<stop stop-color="#CEFFDD"/>
<stop offset="1" stop-color="#B2FFF9"/>
</linearGradient>
<linearGradient id="paint83_linear" x1="1383.73" y1="47.8859" x2="1408.51" y2="51.0534" gradientUnits="userSpaceOnUse">
<stop stop-color="#5DF1D7"/>
<stop offset="1" stop-color="#128698"/>
</linearGradient>
<linearGradient id="paint84_linear" x1="1352.36" y1="161.232" x2="1404.6" y2="185.355" gradientUnits="userSpaceOnUse">
<stop stop-color="#165B7A"/>
<stop offset="1" stop-color="#3E516B"/>
</linearGradient>
<linearGradient id="paint85_linear" x1="1388.63" y1="76.1622" x2="1385.24" y2="91.4725" gradientUnits="userSpaceOnUse">
<stop stop-color="#A9FEFF"/>
<stop offset="1" stop-color="#9EFFFE"/>
</linearGradient>
<linearGradient id="paint86_linear" x1="1388.63" y1="76.1622" x2="1385.24" y2="91.4725" gradientUnits="userSpaceOnUse">
<stop stop-color="#A9FEFF"/>
<stop offset="1" stop-color="#9EFFFE"/>
</linearGradient>
<linearGradient id="paint87_linear" x1="1380.93" y1="29.101" x2="1412.51" y2="36.5184" gradientUnits="userSpaceOnUse">
<stop stop-color="#5CDEAC"/>
<stop offset="1" stop-color="#123635"/>
</linearGradient>
<linearGradient id="paint88_linear" x1="1362.62" y1="116.929" x2="1395.65" y2="129.523" gradientUnits="userSpaceOnUse">
<stop stop-color="#5CDEAC"/>
<stop offset="1" stop-color="#123635"/>
</linearGradient>
<linearGradient id="paint89_linear" x1="1369.72" y1="179.201" x2="1376.79" y2="143.804" gradientUnits="userSpaceOnUse">
<stop stop-color="#5DF1D7"/>
<stop offset="1" stop-color="#128698"/>
</linearGradient>
<linearGradient id="paint90_linear" x1="1369.8" y1="170.292" x2="1369.62" y2="180.376" gradientUnits="userSpaceOnUse">
<stop stop-color="#E0FFEA"/>
<stop offset="1" stop-color="#93FFF7"/>
</linearGradient>
<linearGradient id="paint91_linear" x1="1371.92" y1="164.449" x2="1369.77" y2="174.301" gradientUnits="userSpaceOnUse">
<stop stop-color="#E0FFEA"/>
<stop offset="1" stop-color="white"/>
</linearGradient>
<linearGradient id="paint92_linear" x1="1376.38" y1="45.1643" x2="1375.18" y2="67.9068" gradientUnits="userSpaceOnUse">
<stop stop-color="#CEFFDD"/>
<stop offset="1" stop-color="#B2FFF9"/>
</linearGradient>
<linearGradient id="paint93_linear" x1="1387.79" y1="63.5472" x2="1405.71" y2="70.9545" gradientUnits="userSpaceOnUse">
<stop stop-color="#165B7A"/>
<stop offset="1" stop-color="#3E516B"/>
</linearGradient>
<linearGradient id="paint94_linear" x1="1367.95" y1="152.918" x2="1369.88" y2="177.615" gradientUnits="userSpaceOnUse">
<stop stop-color="#F0FFF5"/>
<stop offset="1" stop-color="#E4FFFD"/>
</linearGradient>
<linearGradient id="paint95_linear" x1="1412.58" y1="33.9312" x2="1381.23" y2="151.598" gradientUnits="userSpaceOnUse">
<stop stop-color="#104438" stop-opacity="0.4"/>
<stop offset="1" stop-color="#0A1520" stop-opacity="0"/>
</linearGradient>
<linearGradient id="paint96_linear" x1="1412.45" y1="63.9194" x2="1389.74" y2="153.512" gradientUnits="userSpaceOnUse">
<stop stop-color="#103A30" stop-opacity="0.7"/>
<stop offset="1" stop-color="#0A1520" stop-opacity="0"/>
</linearGradient>
</defs>
</svg>
