<svg width="32" height="9" viewBox="0 0 32 9" fill="none" xmlns="http://www.w3.org/2000/svg">
<path d="M12.8468 0.0166711L11.6846 1.1788C11.6624 1.20105 11.6624 1.23712 11.6846 1.25937L14.0896 3.66429C14.1118 3.68654 14.1479 3.68654 14.1701 3.66429L15.3323 2.50216C15.3545 2.47991 15.3545 2.44384 15.3323 2.42159L12.9273 0.0166712C12.9051 -0.0055774 12.869 -0.00557739 12.8468 0.0166711Z" fill="#596274"/>
<path d="M11.6846 7.39247L19.0593 0.0177779C19.0816 -0.00446742 19.1176 -0.00446756 19.1399 0.0177777L20.3018 1.17973C20.3241 1.20197 20.3241 1.23804 20.3018 1.26029L12.9271 8.63497C12.9049 8.65722 12.8688 8.65722 12.8466 8.63497L11.6846 7.47302C11.6624 7.45078 11.6624 7.41471 11.6846 7.39247Z" fill="#596274"/>
<path d="M16.6554 6.14964L17.8175 4.98751C17.8398 4.96526 17.8758 4.96526 17.8981 4.98751L20.303 7.39243C20.3252 7.41468 20.3252 7.45075 20.303 7.473L19.1409 8.63513C19.1186 8.65738 19.0826 8.65738 19.0603 8.63513L16.6554 6.23021C16.6331 6.20796 16.6331 6.17188 16.6554 6.14964Z" fill="#596274"/>
<path d="M27.8694 3.49167V1.8226H31.5016C31.5181 1.82262 31.5344 1.81939 31.5496 1.8131C31.5648 1.80681 31.5786 1.79758 31.5903 1.78594C31.6019 1.7743 31.6112 1.76048 31.6174 1.74527C31.6237 1.73006 31.627 1.71375 31.6269 1.69729V0.278839C31.627 0.262378 31.6237 0.246076 31.6174 0.230864C31.6112 0.215653 31.6019 0.201831 31.5903 0.190191C31.5786 0.178551 31.5648 0.169323 31.5496 0.163032C31.5344 0.156742 31.5181 0.153512 31.5016 0.153531H26.1159C26.0995 0.153531 26.0832 0.156772 26.068 0.163069C26.0528 0.169366 26.039 0.178599 26.0273 0.190234C26.0157 0.20187 26.0065 0.215683 26.0002 0.230886C25.9939 0.246089 25.9906 0.262383 25.9906 0.278839V8.37356C25.9906 8.39002 25.9939 8.40631 26.0002 8.42152C26.0065 8.43672 26.0157 8.45053 26.0273 8.46217C26.039 8.47381 26.0528 8.48304 26.068 8.48933C26.0832 8.49563 26.0995 8.49887 26.1159 8.49887H31.5016C31.5181 8.49889 31.5344 8.49566 31.5496 8.48937C31.5648 8.48308 31.5786 8.47385 31.5903 8.46221C31.6019 8.45057 31.6112 8.43675 31.6174 8.42154C31.6237 8.40633 31.627 8.39003 31.6269 8.37356V6.95511C31.627 6.93865 31.6237 6.92235 31.6174 6.90714C31.6112 6.89192 31.6019 6.8781 31.5903 6.86646C31.5786 6.85482 31.5648 6.84559 31.5496 6.8393C31.5344 6.83301 31.5181 6.82978 31.5016 6.8298H27.8694V5.16074H31.5016C31.5181 5.16075 31.5344 5.15753 31.5496 5.15124C31.5648 5.14494 31.5786 5.13571 31.5903 5.12407C31.6019 5.11243 31.6112 5.09861 31.6174 5.0834C31.6237 5.06819 31.627 5.05189 31.6269 5.03543V3.61698C31.627 3.60051 31.6237 3.58421 31.6174 3.569C31.6112 3.55379 31.6019 3.53997 31.5903 3.52833C31.5786 3.51669 31.5648 3.50746 31.5496 3.50117C31.5344 3.49488 31.5181 3.49165 31.5016 3.49167H27.8694Z" fill="#596274"/>
<path d="M0.371094 0.278283V1.69702C0.371094 1.73025 0.384296 1.76212 0.407796 1.78562C0.431295 1.80912 0.463169 1.82233 0.496402 1.82233H4.12891V5.24485C4.12887 5.2613 4.13208 5.27758 4.13835 5.29279C4.14461 5.30799 4.15382 5.3218 4.16543 5.33344C4.17704 5.34508 4.19084 5.35432 4.20603 5.36062C4.22121 5.36692 4.23749 5.37016 4.25394 5.37016H5.88237C5.91561 5.37016 5.94748 5.35696 5.97098 5.33346C5.99448 5.30996 6.00768 5.27809 6.00768 5.24485V0.278283C6.0076 0.245098 5.99437 0.213299 5.97088 0.18986C5.94738 0.166422 5.91556 0.153258 5.88237 0.153258H0.496402C0.47996 0.153221 0.463672 0.156429 0.448471 0.162695C0.43327 0.168961 0.419453 0.178165 0.407813 0.189778C0.396173 0.201391 0.38694 0.215186 0.380639 0.230373C0.374338 0.24556 0.371094 0.26184 0.371094 0.278283Z" fill="#596274"/>
<path d="M0.428065 3.49138H2.19303C2.2245 3.49138 2.25 3.51688 2.25 3.54835V8.44175C2.25 8.47321 2.2245 8.49872 2.19303 8.49872H0.428065C0.396601 8.49872 0.371094 8.47321 0.371094 8.44175V3.54835C0.371094 3.51688 0.396601 3.49138 0.428065 3.49138Z" fill="#596274"/>
<path d="M9.70848 0.153076H7.94351C7.91204 0.153076 7.88654 0.178583 7.88654 0.210047V8.44173C7.88654 8.47319 7.91204 8.4987 7.94351 8.4987H9.70848C9.73994 8.4987 9.76545 8.47319 9.76545 8.44173V0.210047C9.76545 0.178583 9.73994 0.153076 9.70848 0.153076Z" fill="#596274"/>
<path d="M22.2898 0.153076H24.0548C24.0862 0.153076 24.1117 0.178583 24.1117 0.210047V8.44173C24.1117 8.47319 24.0862 8.4987 24.0548 8.4987H22.2898C22.2583 8.4987 22.2328 8.47319 22.2328 8.44173V0.210047C22.2328 0.178583 22.2583 0.153076 22.2898 0.153076Z" fill="#596274"/>
</svg>
