<svg width="248" height="41" viewBox="0 0 248 41" fill="none" xmlns="http://www.w3.org/2000/svg">
<path d="M9.25836 16.3438H12.3287C15.7298 16.3438 17.4303 14.8638 17.4303 11.9036C17.4303 8.94345 15.7298 7.46337 12.3287 7.46337H9.25836V16.3438ZM9.25836 35.6164H0V0H16.7296C25.0944 0 26.4288 5.38497 28.5387 7.46337C28.5387 9.84095 27.1138 8.12469 27.1138 11.9036C27.1138 15.6825 26.0431 18.6112 23.9017 20.6896C21.7918 22.768 18.7372 23.8072 14.7378 23.8072H9.25836V35.6164Z" fill="#71EFCE"/>
<path d="M21.158 16.7296L16.7296 14.2694C18.2058 15.0895 16.7296 5.41252 21.158 7.38073C23.4613 8.40441 21.6501 16.0736 21.158 16.7296Z" fill="#53CDAD"/>
<path d="M13.1947 20.2802H16.2651C19.6662 20.2802 21.3667 18.8001 21.3667 15.84C21.3667 12.8798 19.6662 11.3998 16.2651 11.3998H13.1947V20.2802ZM13.1947 39.5527H3.93638V3.93638H18.6742C22.6735 3.93638 25.7282 4.97558 27.8381 7.05399C29.9795 9.1324 31.0502 12.0611 31.0502 15.84C31.0502 19.6189 29.9795 22.5476 27.8381 24.626C25.7282 26.7044 22.6735 27.7436 18.6742 27.7436H13.1947V39.5527Z" fill="white"/>
<path d="M3.93638 3.93638L0 0V35.4274L3.93638 39.3638V3.93638Z" fill="#53CDAD"/>
<path d="M12.99 20.0913H16.0604C19.4615 20.0913 21.162 18.6112 21.162 15.651C21.162 12.6909 19.4615 11.2108 16.0604 11.2108H12.99V20.0913ZM12.99 39.3638H3.73168V3.74743H18.4695C22.4688 3.74743 25.5235 4.78663 27.6334 6.86504C29.7748 8.94345 30.8455 11.8721 30.8455 15.651C30.8455 19.43 29.7748 22.3586 27.6334 24.437C25.5235 26.5154 22.4688 27.5547 18.4695 27.5547H12.99V39.3638Z" fill="white"/>
<path d="M42.5476 15.1314V39.3638H33.9978V15.1314H42.5476ZM33.4309 5.82583C33.4309 5.16452 33.5569 4.55045 33.8088 3.98361C34.0607 3.38528 34.4071 2.86568 34.848 2.4248C35.2889 1.98393 35.7928 1.63753 36.3596 1.3856C36.9579 1.13367 37.5877 1.00771 38.2491 1.00771C38.9104 1.00771 39.5244 1.13367 40.0913 1.3856C40.6896 1.63753 41.2092 1.98393 41.6501 2.4248C42.091 2.86568 42.4374 3.38528 42.6893 3.98361C42.9412 4.55045 43.0672 5.16452 43.0672 5.82583C43.0672 6.48715 42.9412 7.11697 42.6893 7.7153C42.4374 8.28214 42.091 8.78599 41.6501 9.22687C41.2092 9.66774 40.6896 10.0141 40.0913 10.2661C39.5244 10.518 38.9104 10.644 38.2491 10.644C37.5877 10.644 36.9579 10.518 36.3596 10.2661C35.7928 10.0141 35.2889 9.66774 34.848 9.22687C34.4071 8.78599 34.0607 8.28214 33.8088 7.7153C33.5569 7.11697 33.4309 6.48715 33.4309 5.82583Z" fill="white"/>
<path d="M56.6093 26.232L46.7841 15.1314H57.9319L62.0888 20.1385L66.34 15.1314H77.4879L67.4265 26.232L79.5663 39.3638H68.2295L62.0415 32.1838L55.8063 39.3638H44.5168L56.6093 26.232Z" fill="white"/>
<path d="M90.1089 15.1314V39.3638H81.5591V15.1314H90.1089ZM80.9922 5.82583C80.9922 5.16452 81.1182 4.55045 81.3701 3.98361C81.622 3.38528 81.9685 2.86568 82.4093 2.4248C82.8502 1.98393 83.3541 1.63753 83.9209 1.3856C84.5192 1.13367 85.149 1.00771 85.8104 1.00771C86.4717 1.00771 87.0857 1.13367 87.6526 1.3856C88.2509 1.63753 88.7705 1.98393 89.2114 2.4248C89.6523 2.86568 89.9987 3.38528 90.2506 3.98361C90.5025 4.55045 90.6285 5.16452 90.6285 5.82583C90.6285 6.48715 90.5025 7.11697 90.2506 7.7153C89.9987 8.28214 89.6523 8.78599 89.2114 9.22687C88.7705 9.66774 88.2509 10.0141 87.6526 10.2661C87.0857 10.518 86.4717 10.644 85.8104 10.644C85.149 10.644 84.5192 10.518 83.9209 10.2661C83.3541 10.0141 82.8502 9.66774 82.4093 9.22687C81.9685 8.78599 81.622 8.28214 81.3701 7.7153C81.1182 7.11697 80.9922 6.48715 80.9922 5.82583Z" fill="white"/>
<path d="M112.72 23.7285C112.437 22.5318 111.854 21.5714 110.973 20.8471C110.091 20.1228 109.02 19.7606 107.761 19.7606C106.438 19.7606 105.352 20.107 104.501 20.7998C103.683 21.4926 103.163 22.4688 102.942 23.7285H112.72ZM102.706 28.6883C102.706 32.3728 104.438 34.215 107.902 34.215C109.76 34.215 111.162 33.4592 112.106 31.9476H120.373C118.704 37.4901 114.531 40.2613 107.855 40.2613C105.808 40.2613 103.934 39.9621 102.234 39.3638C100.533 38.734 99.0691 37.8522 97.8409 36.7185C96.6443 35.5849 95.7153 34.2308 95.054 32.6562C94.3927 31.0816 94.062 29.3181 94.062 27.3657C94.062 25.3503 94.3769 23.5395 95.0067 21.9335C95.6365 20.296 96.534 18.9104 97.6992 17.7767C98.8644 16.643 100.266 15.777 101.903 15.1787C103.572 14.5489 105.446 14.2339 107.524 14.2339C109.571 14.2339 111.414 14.5489 113.051 15.1787C114.689 15.777 116.074 16.6588 117.208 17.8239C118.342 18.9891 119.208 20.4219 119.806 22.1224C120.404 23.7915 120.703 25.6809 120.703 27.7908V28.6883H102.706Z" fill="white"/>
<path d="M149.816 3.74743V31.5225H160.916V39.3638H140.557V3.74743H149.816Z" fill="white"/>
<path d="M171.886 27.1768C171.886 27.964 172.027 28.7041 172.311 29.3969C172.594 30.0582 172.972 30.6408 173.444 31.1446C173.948 31.6485 174.531 32.0421 175.192 32.3255C175.885 32.609 176.625 32.7507 177.412 32.7507C178.168 32.7507 178.877 32.609 179.538 32.3255C180.231 32.0421 180.813 31.6485 181.286 31.1446C181.79 30.6408 182.183 30.0582 182.467 29.3969C182.782 28.7356 182.939 28.027 182.939 27.2712C182.939 26.5154 182.782 25.8069 182.467 25.1456C182.183 24.4528 181.79 23.8545 181.286 23.3506C180.813 22.8467 180.231 22.4531 179.538 22.1697C178.877 21.8863 178.168 21.7446 177.412 21.7446C176.625 21.7446 175.885 21.8863 175.192 22.1697C174.531 22.4531 173.948 22.8467 173.444 23.3506C172.972 23.8545 172.594 24.437 172.311 25.0983C172.027 25.7282 171.886 26.421 171.886 27.1768ZM182.656 15.1314H191.253V39.3638H182.656V36.6713C180.829 38.9702 178.357 40.1196 175.239 40.1196C173.476 40.1196 171.854 39.8047 170.374 39.1748C168.894 38.5135 167.603 37.6003 166.501 36.4351C165.399 35.27 164.533 33.9001 163.903 32.3255C163.304 30.751 163.005 29.0347 163.005 27.1768C163.005 25.4447 163.304 23.8072 163.903 22.2642C164.501 20.6896 165.336 19.3197 166.406 18.1546C167.477 16.9894 168.752 16.0762 170.232 15.4149C171.712 14.7221 173.35 14.3757 175.145 14.3757C178.168 14.3757 180.672 15.4306 182.656 17.5405V15.1314Z" fill="white"/>
<path d="M215.446 27.3185C215.446 26.5627 215.304 25.8541 215.021 25.1928C214.737 24.5 214.344 23.9017 213.84 23.3978C213.336 22.894 212.753 22.5003 212.092 22.2169C211.431 21.902 210.707 21.7446 209.919 21.7446C209.163 21.7446 208.455 21.8863 207.794 22.1697C207.132 22.4531 206.55 22.8467 206.046 23.3506C205.573 23.8545 205.18 24.4528 204.865 25.1456C204.582 25.8069 204.44 26.5154 204.44 27.2712C204.44 28.027 204.582 28.7356 204.865 29.3969C205.148 30.0582 205.542 30.6408 206.046 31.1446C206.55 31.617 207.132 32.0106 207.794 32.3255C208.486 32.609 209.211 32.7507 209.966 32.7507C210.722 32.7507 211.431 32.609 212.092 32.3255C212.753 32.0421 213.32 31.6485 213.793 31.1446C214.296 30.6408 214.69 30.0582 214.974 29.3969C215.288 28.7356 215.446 28.0428 215.446 27.3185ZM204.676 0.157448V17.5405C206.691 15.4306 209.211 14.3757 212.234 14.3757C214.029 14.3757 215.666 14.7221 217.146 15.4149C218.658 16.0762 219.933 16.9894 220.973 18.1546C222.043 19.2883 222.878 20.6424 223.476 22.2169C224.074 23.76 224.374 25.4133 224.374 27.1768C224.374 28.9717 224.059 30.6565 223.429 32.2311C222.831 33.8056 221.98 35.1755 220.878 36.3407C219.776 37.5058 218.469 38.4348 216.957 39.1276C215.477 39.7889 213.871 40.1196 212.139 40.1196C208.99 40.1196 206.502 38.9702 204.676 36.6713V39.3638H196.126V0.157448H204.676Z" fill="white"/>
<path d="M244.363 21.3667C242.788 20.5479 241.245 20.1385 239.734 20.1385C238.946 20.1385 238.301 20.296 237.797 20.6109C237.325 20.9258 237.088 21.3509 237.088 21.8863C237.088 22.1697 237.12 22.4059 237.183 22.5948C237.277 22.7523 237.451 22.9097 237.702 23.0672C237.986 23.2246 238.379 23.3663 238.883 23.4923C239.419 23.6183 240.112 23.7757 240.962 23.9647C243.324 24.437 245.087 25.2873 246.252 26.5154C247.417 27.7121 248 29.2552 248 31.1446C248 32.5617 247.717 33.8371 247.15 34.9708C246.583 36.1045 245.796 37.0649 244.788 37.8522C243.78 38.608 242.568 39.1906 241.151 39.6C239.734 40.0408 238.175 40.2613 236.474 40.2613C233.199 40.2613 229.971 39.3323 226.791 37.4743L229.908 31.428C232.302 33.0656 234.569 33.8843 236.71 33.8843C237.498 33.8843 238.143 33.7112 238.647 33.3647C239.151 33.0183 239.403 32.5775 239.403 32.0421C239.403 31.7272 239.356 31.4753 239.261 31.2863C239.198 31.0659 239.041 30.877 238.789 30.7195C238.537 30.5306 238.159 30.3731 237.655 30.2471C237.183 30.0897 236.553 29.9322 235.766 29.7748C233.12 29.2394 231.263 28.4521 230.192 27.4129C229.153 26.3422 228.633 24.8779 228.633 23.0199C228.633 21.6658 228.885 20.4534 229.389 19.3827C229.893 18.2805 230.617 17.3516 231.562 16.5958C232.506 15.84 233.64 15.2574 234.963 14.848C236.317 14.4386 237.813 14.2339 239.45 14.2339C242.127 14.2339 244.725 14.7535 247.244 15.7927L244.363 21.3667Z" fill="white"/>
</svg>
