<svg width="1823" height="861" viewBox="0 0 1823 861" fill="none" xmlns="http://www.w3.org/2000/svg">
<path d="M560.84 319.964L553.256 330.098L596.433 327.957L587.502 317.797L560.84 319.964Z" fill="url(#paint0_linear)"/>
<path d="M299.727 371.98L290.082 384.563L357.296 367.104L341.044 360.376L299.727 371.98Z" fill="url(#paint1_linear)"/>
<path d="M1823 600.011V860.942H0.000147569L0 600.011C0 435.373 408.092 301.907 911.5 301.907C1414.91 301.907 1823 435.373 1823 600.011Z" fill="url(#paint2_radial)"/>
<path d="M729.869 321.762L739.208 312.125L762.68 315.612L772.565 329.812L729.869 321.762Z" fill="url(#paint3_linear)"/>
<path d="M640.65 315.63C645.58 348.08 690.59 370.758 714.965 372.443L716.593 372.561C732.734 373.782 752.926 376.843 777.169 381.742L779.648 382.247L800.25 397.305L799.483 397.396C793.214 398.106 783.946 398.475 771.679 398.503L768.846 398.504C746.84 398.481 674.791 397.738 625.053 382.247C595.894 373.165 563.588 352.008 533.755 328.631C568.785 323.575 603.815 318.158 640.65 315.63Z" fill="url(#paint4_linear)"/>
<path opacity="0.5" d="M921.836 438.339C921.836 438.339 937.391 451.669 962.223 453.264C987.054 454.858 1016.33 444.407 1016.33 444.407C1016.33 444.407 1012.49 421.819 1011.65 418.099C1009.49 408.533 994.604 400.995 972.649 401.593C950.694 402.191 936.503 412.241 932.144 420.265C927.785 428.289 921.836 438.339 921.836 438.339Z" fill="url(#paint5_radial)"/>
<path d="M971.335 432.373C987.685 431.928 1001.19 425.661 1001.5 418.375C1001.81 411.09 988.812 405.545 972.463 405.99C956.113 406.435 942.607 412.702 942.296 419.988C941.984 427.274 954.986 432.819 971.335 432.373Z" fill="url(#paint6_linear)"/>
<g opacity="0.4">
<path d="M329.075 421.502C329.075 421.502 322.111 432.455 308.532 437.133C294.953 441.81 277.403 439.303 277.403 439.303C277.403 439.303 276.708 424.045 276.708 421.502C276.708 414.962 284.028 407.875 296.286 405.045C308.543 402.215 317.674 406.673 321.096 411.254C324.518 415.835 329.075 421.502 329.075 421.502Z" fill="url(#paint7_radial)"/>
<path d="M300.864 424.878C291.736 426.985 283.458 424.888 282.374 420.194C281.291 415.499 287.812 409.986 296.939 407.878C306.067 405.771 314.345 407.868 315.429 412.562C316.512 417.257 309.991 422.77 300.864 424.878Z" fill="url(#paint8_linear)"/>
</g>
<path opacity="0.3" d="M901.195 368.047C907.87 368.514 913.478 366.079 913.721 362.608C913.964 359.137 908.749 355.945 902.074 355.478C895.399 355.011 889.792 357.447 889.549 360.918C889.306 364.389 894.52 367.581 901.195 368.047Z" fill="url(#paint9_linear)"/>
<path opacity="0.2" d="M980.72 318.65C988.697 319.572 995.487 317.518 995.886 314.062C996.286 310.605 990.144 307.056 982.168 306.133C974.191 305.211 967.401 307.265 967.001 310.722C966.602 314.178 972.744 317.728 980.72 318.65Z" fill="url(#paint10_linear)"/>
<path d="M625.053 401.521C631.476 401.521 636.684 399.134 636.684 396.19C636.684 393.246 631.476 390.859 625.053 390.859C618.629 390.859 613.422 393.246 613.422 396.19C613.422 399.134 618.629 401.521 625.053 401.521Z" fill="url(#paint11_linear)"/>
<path opacity="0.2" d="M408.155 454.855C414.579 454.855 419.786 452.469 419.786 449.524C419.786 446.58 414.579 444.194 408.155 444.194C401.732 444.194 396.524 446.58 396.524 449.524C396.524 452.469 401.732 454.855 408.155 454.855Z" fill="url(#paint12_linear)"/>
<path d="M506.99 353.453L507.857 353.291C517.672 351.541 526.412 352.663 530.009 355.821C530.636 356.371 542.567 370.126 542.567 370.126C535.075 378.496 525.932 383.942 515.136 386.467C504.34 388.992 492.249 387.406 478.862 381.71C478.862 381.71 486.636 363.999 487.085 363.345C489.893 359.259 497.538 355.29 506.99 353.453Z" fill="url(#paint13_linear)"/>
<path d="M510.042 369.152C520.288 367.16 528.057 362.777 527.393 359.361C526.729 355.946 517.884 354.791 507.638 356.783C497.391 358.775 489.623 363.158 490.287 366.574C490.951 369.989 499.795 371.144 510.042 369.152Z" fill="url(#paint14_linear)"/>
<path d="M824.718 417.998C825.788 417.998 826.656 417.13 826.656 416.059C826.656 414.988 825.788 414.121 824.718 414.121C823.647 414.121 822.779 414.988 822.779 416.059C822.779 417.13 823.647 417.998 824.718 417.998Z" fill="url(#paint15_linear)"/>
<path d="M805.333 361.781C806.938 361.781 808.24 360.479 808.24 358.874C808.24 357.268 806.938 355.966 805.333 355.966C803.727 355.966 802.425 357.268 802.425 358.874C802.425 360.479 803.727 361.781 805.333 361.781Z" fill="url(#paint16_linear)"/>
<path d="M903.227 396.674C904.833 396.674 906.135 395.373 906.135 393.767C906.135 392.161 904.833 390.859 903.227 390.859C901.621 390.859 900.319 392.161 900.319 393.767C900.319 395.373 901.621 396.674 903.227 396.674Z" fill="url(#paint17_linear)"/>
<path opacity="0.1" d="M750.962 423.703C756.438 424.967 761.268 424.301 761.75 422.215C762.232 420.128 758.182 417.412 752.706 416.148C747.229 414.883 742.399 415.55 741.917 417.636C741.436 419.722 745.485 422.439 750.962 423.703Z" fill="url(#paint18_linear)"/>
<path fill-rule="evenodd" clip-rule="evenodd" d="M762.681 366.451C762.681 366.451 760.748 373.244 760.748 377.711C760.748 382.178 760.901 386.344 762.681 388.291C764.46 390.238 790.568 398.055 793.591 398.055C796.613 398.055 807.77 396.173 809.094 395.486C810.418 394.799 808.727 385.409 807.613 383.407C806.498 381.404 788.506 374.066 786.116 366.451C783.726 358.836 762.681 366.451 762.681 366.451Z" fill="url(#paint19_linear)"/>
<path opacity="0.2" d="M779.107 362.643C782.872 362.652 785.183 363.848 786.042 366.231L786.116 366.45C788.506 374.065 806.498 381.403 807.613 383.406C808.727 385.409 810.418 394.799 809.094 395.485C808.319 395.888 804.165 396.701 800.251 397.305L800.168 395.488C799.984 391.854 798.627 386.882 798.149 386.091C797.467 384.965 790.726 379.907 783.651 377.525L783.303 377.41C778.525 375.852 775.961 371.939 775.609 365.671L776.602 364.784C777.449 364.034 778.2 363.39 778.855 362.849L779.107 362.643Z" fill="url(#paint20_linear)"/>
<path d="M766.529 382.862C766.726 382.364 767.288 382.119 767.786 382.315L769.093 382.825C772.519 384.146 775.479 385.167 777.971 385.887C778.485 386.035 778.781 386.573 778.633 387.087C778.484 387.601 777.947 387.898 777.433 387.749C774.565 386.921 771.113 385.711 767.075 384.119C766.577 383.922 766.333 383.36 766.529 382.862Z" fill="url(#paint21_linear)"/>
<path fill-rule="evenodd" clip-rule="evenodd" d="M716.169 366.451C716.169 366.451 718.101 373.244 718.101 377.711C718.101 382.178 717.948 386.344 716.169 388.291C714.389 390.238 688.281 398.055 685.258 398.055C682.236 398.055 671.079 396.173 669.755 395.486C668.431 394.799 670.122 385.409 671.237 383.407C672.351 381.404 690.343 374.066 692.733 366.451C695.123 358.836 716.169 366.451 716.169 366.451Z" fill="url(#paint22_linear)"/>
<path opacity="0.2" d="M699.742 362.643C695.977 362.652 693.666 363.848 692.807 366.231L692.733 366.45C690.343 374.065 672.351 381.403 671.236 383.406C670.122 385.409 668.431 394.799 669.755 395.485C670.531 395.888 674.684 396.701 678.598 397.305L678.681 395.488C678.865 391.854 680.222 386.882 680.701 386.091C681.382 384.965 688.123 379.907 695.198 377.525L695.546 377.41C700.324 375.852 702.889 371.939 703.24 365.671L702.247 364.784C701.401 364.034 700.649 363.39 699.994 362.849L699.742 362.643Z" fill="url(#paint23_linear)"/>
<path d="M712.32 382.862C712.124 382.364 711.561 382.119 711.063 382.315L709.756 382.825C706.33 384.146 703.37 385.167 700.878 385.887C700.364 386.035 700.068 386.573 700.216 387.087C700.365 387.601 700.902 387.898 701.416 387.749C704.285 386.921 707.736 385.711 711.774 384.119C712.272 383.922 712.516 383.36 712.32 382.862Z" fill="url(#paint24_linear)"/>
<path d="M689.758 358.71C689.758 358.71 688.523 365.848 694.67 368.825C700.817 371.801 712.126 370.76 715.367 368.825C718.608 366.89 718.505 362.969 717.517 358.71C716.53 354.451 689.758 358.71 689.758 358.71Z" fill="url(#paint25_linear)"/>
<path d="M760.748 359.456C760.748 359.456 760.903 368.697 766.954 370.352C773.006 372.007 784.854 370.745 788.211 366.121C791.567 361.496 789.939 355.966 789.939 355.966L760.748 359.456Z" fill="url(#paint26_linear)"/>
<path fill-rule="evenodd" clip-rule="evenodd" d="M702.864 185.041C702.864 185.041 693.516 251.945 690.43 300.461C687.344 348.977 687.943 358.4 687.943 360.305C687.943 362.209 699.041 365.343 708.459 364.284C717.877 363.225 720.225 358.525 720.225 355.955C720.225 353.384 726.182 305.979 732.077 279.343C737.972 252.708 740.019 243.102 741.814 243.102C743.61 243.102 751.401 273.034 754.213 300.461C757.026 327.888 756.042 355.406 756.534 358.88C757.026 362.353 768.199 366.215 777.372 364.284C786.545 362.353 791.815 355.954 791.815 353.571C791.815 351.187 792.231 286.722 790.183 248.098C788.135 209.474 781.972 175.223 781.972 175.223L702.864 185.041Z" fill="url(#paint27_linear)"/>
<path opacity="0.1" fill-rule="evenodd" clip-rule="evenodd" d="M766.596 179.419C775.05 208.148 779.277 242.22 779.277 281.636L779.268 288.566C779.195 319.124 778.626 344.349 777.562 364.243L777.372 364.284C768.199 366.215 757.026 362.353 756.534 358.88L756.506 358.642C756.084 354.35 756.951 327.888 754.297 301.284L754.213 300.461C751.401 273.033 743.61 243.102 741.814 243.102C740.019 243.102 737.972 252.708 732.077 279.343L731.723 280.966C726.005 307.582 720.342 352.507 720.227 355.864L720.225 355.955C720.225 358.525 717.877 363.225 708.459 364.284C705.384 364.63 702.129 364.529 699.141 364.169C699.455 340.315 701.639 312.804 705.691 281.636L706.095 278.587C710.801 243.673 717.721 213.989 726.855 189.533L727.253 188.473L766.596 179.419Z" fill="#262626"/>
<path fill-rule="evenodd" clip-rule="evenodd" d="M729.87 290.209C727.406 288.591 724.954 287.273 722.513 286.255C722.019 286.049 721.452 286.283 721.246 286.777C721.04 287.271 721.273 287.838 721.767 288.044C724.316 289.107 726.888 290.519 729.483 292.283L729.87 290.209ZM762.012 289.558C762.521 289.391 762.799 288.844 762.632 288.335C762.466 287.826 761.919 287.549 761.41 287.715L761.057 287.834C758.724 288.648 756.113 290.065 753.217 292.082C753.315 292.808 753.41 293.533 753.502 294.257C756.737 291.919 759.577 290.353 762.012 289.558Z" fill="url(#paint28_linear)"/>
<path d="M704.654 175.958C704.654 175.958 698.874 180.253 700.801 186.294C702.727 192.335 721.434 198.926 743.138 196.958C764.843 194.99 777.826 187.789 781.972 182.96C786.118 178.131 786.769 172.272 781.054 168.97C775.338 165.669 704.654 175.958 704.654 175.958Z" fill="url(#paint29_linear)"/>
<path fill-rule="evenodd" clip-rule="evenodd" d="M777.48 172.772L777.811 173.002C780.628 174.96 782.315 177.906 782.89 181.794C782.608 182.188 782.301 182.578 781.972 182.96C781.728 183.245 781.454 183.537 781.148 183.836C780.937 179.79 779.598 176.84 777.155 174.926L777.025 174.827L776.901 174.851C771.094 175.946 767.088 177.122 764.93 178.344L764.739 178.455C763.034 179.476 762.866 180.159 763.999 181.209L764.121 181.319C767.062 183.906 768.098 187.417 767.278 191.759C766.582 192.021 765.863 192.277 765.122 192.527C766.206 188.39 765.491 185.235 763.034 182.949L762.84 182.774C760.527 180.739 760.915 178.486 763.744 176.792C766.097 175.383 770.343 174.115 776.531 172.948L777.48 172.772ZM723.487 184.608L723.381 184.376C721.677 180.802 718.479 179.959 714.241 181.856L714.007 181.965C710.536 183.641 708.879 187.262 708.956 192.69C709.581 192.954 710.235 193.212 710.918 193.46C710.668 188.174 712.071 184.951 715.033 183.625L715.287 183.515C718.297 182.235 720.227 182.668 721.43 184.821L721.456 184.871L721.188 185.221C718.646 188.599 717.826 192.104 718.751 195.658C719.455 195.806 720.174 195.946 720.906 196.077C719.634 192.519 720.434 189.078 723.343 185.626L723.734 185.163L723.487 184.608ZM752.262 184.293L751.69 183.979C745.597 180.712 740.851 181.232 737.822 185.677L737.625 185.974C735.349 189.475 734.795 193.276 735.955 197.31C736.622 197.305 737.294 197.292 737.969 197.272C736.734 193.475 737.222 190.002 739.424 186.769L739.561 186.573C741.96 183.236 745.58 182.897 750.772 185.686L750.818 185.71L750.963 186.012C752.151 188.59 752.406 191.867 751.7 195.852C752.386 195.735 753.061 195.613 753.725 195.485C754.394 191.117 753.961 187.468 752.397 184.545L752.262 184.293ZM708.518 180.865L707.226 179.42L706.979 179.646C704.313 182.143 702.945 185.315 702.865 189.118C703.425 189.611 704.084 190.097 704.835 190.573C704.558 186.516 705.792 183.303 708.518 180.865Z" fill="url(#paint30_linear)"/>
<path fill-rule="evenodd" clip-rule="evenodd" d="M711.035 74.9286C711.035 74.9286 701.325 79.6414 693.586 86.5889C685.847 93.5363 694.233 142.401 698.597 162.603C702.962 182.805 704.362 184.207 725.872 187.683C747.381 191.159 761.136 185.526 768.652 182.034C776.167 178.542 781.971 171.475 781.971 168.655C781.971 165.836 779.993 120.047 779.993 114.928C779.993 109.81 781.971 84.5765 781.971 84.5765C781.971 84.5765 773.171 77.7498 757.486 74.1806C741.802 70.6115 711.035 74.9286 711.035 74.9286Z" fill="url(#paint31_linear)"/>
<path opacity="0.3" fill-rule="evenodd" clip-rule="evenodd" d="M736.208 72.6239C744.761 72.3797 751.854 72.8987 757.488 74.1806C767.944 76.5601 776.105 80.0254 781.972 84.5765L781.277 93.6444C780.477 104.348 780.051 111.247 779.999 114.342L779.994 114.928C779.994 120.047 781.972 165.836 781.972 168.655C781.972 171.475 776.168 178.542 768.653 182.034L767.446 182.587C761.584 185.233 752.461 188.685 739.517 188.773L736.208 72.6239Z" fill="url(#paint32_linear)"/>
<g filter="url(#filter0_d)">
<path fill-rule="evenodd" clip-rule="evenodd" d="M764.625 114.623V101.054H752.025V105.9H759.779V114.623H764.625ZM756.871 123.346V108.808H752.024V123.346H756.871Z" fill="url(#paint33_linear)"/>
</g>
<path opacity="0.5" d="M752.224 154.959C758.631 154.229 765.075 155.974 770.237 159.838L781.972 168.622L781.972 168.655C781.972 171.428 776.357 178.311 769.021 181.859L768.653 182.034C761.137 185.526 747.382 191.159 725.873 187.683L724.234 187.416C713.218 185.596 707.847 184.22 704.53 180.038L714.855 166.827C719.029 161.486 725.173 158.045 731.908 157.277L752.224 154.959Z" stroke="#17413B" stroke-width="0.722266" stroke-linecap="round"/>
<path opacity="0.5" d="M721.38 80.6555L725.56 88.7211C727.941 93.3144 732.809 96.0689 737.973 95.7441V95.7441C742.817 95.4394 747.093 92.4725 749.074 88.0411L752.231 80.9769L721.38 80.6555Z" stroke="#17413B" stroke-width="0.722266" stroke-linecap="round"/>
<path d="M767.035 54.8886C767.035 54.8886 769.783 53.0421 770.993 51.6585C772.202 50.2749 771.617 43.3067 770.438 42.3368C769.26 41.367 765.024 40.3707 765.024 40.3707L767.035 54.8886Z" fill="url(#paint34_linear)"/>
<path fill-rule="evenodd" clip-rule="evenodd" d="M734.578 84.5764C753.314 84.5764 768.502 69.3882 768.502 50.6527C768.502 31.9172 753.314 16.729 734.578 16.729C715.842 16.729 700.654 31.9172 700.654 50.6527C700.654 69.3882 715.842 84.5764 734.578 84.5764Z" fill="url(#paint35_linear)"/>
<path opacity="0.2" d="M734.578 16.729C741.768 16.729 748.435 18.9657 753.923 22.7813C749.051 24.1225 746.356 27.5831 741.276 31.2616C734.867 35.9015 726.815 33.124 720.63 29.0773L720.346 28.8896C717.319 26.8716 714.292 25.9111 711.265 26.0081C717.344 20.2566 725.549 16.729 734.578 16.729Z" fill="url(#paint36_linear)"/>
<path d="M734.314 28.9585C734.338 29.2251 734.141 29.4606 733.875 29.4845C733.608 29.5085 733.373 29.3118 733.349 29.0452C732.924 24.3144 732.273 20.2572 731.396 16.8752C731.721 16.8461 732.048 16.8204 732.377 16.7993C733.247 20.2055 733.892 24.2581 734.314 28.9585Z" fill="url(#paint37_linear)"/>
<path d="M752.841 38.8838C759.001 39.6566 764.079 48.2158 763.132 60.0206C762.775 64.4596 762.01 68.4972 760.834 72.1333C754.614 79.7291 745.162 84.5763 734.578 84.5763C727.458 84.5763 720.85 82.3826 715.393 78.6342C712.154 72.3277 710.253 65.4299 709.69 57.9399C708.757 45.5371 715.079 38.234 723.101 40.4977C731.123 42.7613 733.336 46.0257 738.908 44.3935C744.48 42.7613 746.68 38.111 752.841 38.8838Z" fill="url(#paint38_linear)"/>
<path fill-rule="evenodd" clip-rule="evenodd" d="M751.829 68.6163C749.972 68.8839 748.017 67.5292 748.878 63.2315C749.74 58.9338 749.01 54.4 747.744 51.6254C746.479 48.8508 747.351 45.0775 750.602 45.0775C753.852 45.0775 757.684 48.8214 756.98 57.578C756.275 66.3346 753.686 68.3486 751.829 68.6163Z" fill="url(#paint39_linear)"/>
<path opacity="0.1" d="M752.92 50.3167C753.432 50.1616 753.973 50.4512 754.129 50.9635C754.88 53.4468 755.144 55.9999 754.919 58.616C754.873 59.1493 754.404 59.5445 753.87 59.4986C753.337 59.4527 752.942 58.9832 752.988 58.4499C753.192 56.0782 752.954 53.7722 752.273 51.5253C752.118 51.0129 752.408 50.4719 752.92 50.3167Z" fill="url(#paint40_linear)"/>
<path opacity="0.1" d="M753.635 62.6565C754.17 62.6565 754.604 62.2226 754.604 61.6873C754.604 61.152 754.17 60.718 753.635 60.718C753.099 60.718 752.666 61.152 752.666 61.6873C752.666 62.2226 753.099 62.6565 753.635 62.6565Z" fill="url(#paint41_linear)"/>
<path d="M706.001 65.1914C706.537 65.1914 706.971 64.7575 706.971 64.2222C706.971 63.6869 706.537 63.2529 706.001 63.2529C705.466 63.2529 705.032 63.6869 705.032 64.2222C705.032 64.7575 705.466 65.1914 706.001 65.1914Z" fill="url(#paint42_linear)"/>
<path d="M708.409 68.0991C708.944 68.0991 709.378 67.6652 709.378 67.1299C709.378 66.5946 708.944 66.1606 708.409 66.1606C707.873 66.1606 707.439 66.5946 707.439 67.1299C707.439 67.6652 707.873 68.0991 708.409 68.0991Z" fill="url(#paint43_linear)"/>
<path d="M701.142 45.1759C701.142 45.1759 704.385 46.7633 704.385 47.9243C704.385 49.0853 704.629 54.8889 705.033 57.2026C705.437 59.5162 700.381 59.7342 698.855 58.3058C697.329 56.8774 697.19 49.7754 697.799 47.9243C698.409 46.0732 701.142 45.1759 701.142 45.1759Z" fill="url(#paint44_linear)"/>
<path d="M701.623 49.2459C702.208 50.5161 701.846 54.1244 702.806 59.1385C701.374 59.3424 699.643 59.0438 698.855 58.3058C697.368 56.9141 697.198 50.1359 697.754 48.0769L697.799 47.9243C699.917 47.8674 701.191 48.3079 701.623 49.2459Z" fill="url(#paint45_linear)"/>
<path fill-rule="evenodd" clip-rule="evenodd" d="M717.132 48.7143C718.202 48.7143 719.07 47.8464 719.07 46.7758C719.07 45.7052 718.202 44.8373 717.132 44.8373C716.061 44.8373 715.193 45.7052 715.193 46.7758C715.193 47.8464 716.061 48.7143 717.132 48.7143Z" fill="url(#paint46_linear)"/>
<path d="M708.132 72.0008C708.132 72.0008 705.851 75.9677 710.355 80.2721C714.859 84.5765 731.65 87.0625 744.106 85.1541C756.562 83.2458 762.833 79.0788 764.738 77.1333C766.642 75.1879 767.638 72.0008 766.642 69.6924C765.646 67.3839 764.095 67.2039 764.095 67.2039C764.095 67.2039 753.896 76.6281 735.213 77.1333C716.529 77.6385 708.132 72.0008 708.132 72.0008Z" fill="url(#paint47_linear)"/>
<path fill-rule="evenodd" clip-rule="evenodd" d="M763.587 78.1382L763.601 78.1282C764.22 74.2014 763.494 71.285 761.401 69.4293C761.133 69.6274 760.86 69.8218 760.585 70.0117C762.705 71.767 763.344 74.7174 762.473 78.9323C762.892 78.6551 763.263 78.3889 763.587 78.1382ZM759.298 80.7254L759.11 80.8167C758.832 80.9502 758.544 81.0839 758.246 81.2175C758.874 77.5719 757.978 74.809 755.569 72.8717C755.891 72.7223 756.21 72.5681 756.525 72.41C758.822 74.4349 759.743 77.2212 759.298 80.7254ZM713.956 74.7838C713.611 74.6682 713.274 74.5484 712.943 74.4244L712.801 74.5834C711.465 76.1269 710.889 78.2292 711.067 80.8649C711.378 81.093 711.723 81.3152 712.101 81.5301C711.741 78.5121 712.363 76.278 713.956 74.7838ZM752.755 83.2399L752.422 83.3386C752.201 83.4033 751.977 83.4675 751.75 83.531C752.219 79.9312 751.31 77.1797 749.039 75.2376L749.128 75.2139C749.463 75.1221 749.795 75.0269 750.124 74.9286C752.237 76.9834 753.113 79.7655 752.755 83.2399ZM720.458 76.3408C720.089 76.2812 719.725 76.2185 719.366 76.1525L719.3 76.239C717.946 78.1033 717.372 80.5851 717.568 83.6681C717.891 83.7584 718.222 83.8462 718.559 83.9305C718.29 80.631 718.928 78.1093 720.458 76.3408ZM745.796 84.8742L745.742 84.8847C745.436 84.9387 745.126 84.9913 744.812 85.0425C745.081 81.5039 744.585 78.6358 743.336 76.4305C743.677 76.3806 744.015 76.3259 744.351 76.2684C745.548 78.5513 746.026 81.4225 745.796 84.8742ZM725.873 76.9583C725.508 76.9318 725.147 76.9029 724.79 76.8716L724.713 77.0076C723.406 79.3456 723.007 81.9916 723.51 84.9309C723.844 84.9835 724.181 85.0339 724.521 85.0819C723.927 82.0061 724.38 79.3048 725.873 76.9583ZM737.685 77.0253L737.684 85.7506C737.362 85.7633 737.039 85.7738 736.715 85.7821L736.715 77.0777L737.685 77.0253ZM730.434 77.1594C730.782 77.1656 731.133 77.17 731.487 77.1725C730.397 79.5457 730.162 82.3816 730.789 85.6912C730.456 85.6733 730.124 85.6529 729.793 85.6303C729.237 82.5151 729.416 79.7703 730.335 77.4044L730.434 77.1594Z" fill="url(#paint48_linear)"/>
<path d="M703.802 298.695C707.248 299.18 710.584 295.705 711.255 290.934C711.925 286.163 709.676 281.903 706.23 281.419C702.784 280.935 699.448 284.41 698.777 289.18C698.107 293.951 700.356 298.211 703.802 298.695Z" fill="url(#paint49_linear)"/>
<path d="M779.8 295.871C783.279 295.81 786.031 291.856 785.947 287.039C785.863 282.222 782.975 278.367 779.496 278.427C776.017 278.488 773.265 282.442 773.349 287.259C773.433 292.076 776.321 295.932 779.8 295.871Z" fill="url(#paint50_linear)"/>
<path d="M705.661 104.984C706.464 104.967 707.128 105.605 707.145 106.407C707.349 116.204 708.282 125.018 709.94 132.849C710.107 133.635 709.605 134.406 708.819 134.572C708.034 134.739 707.262 134.237 707.096 133.451C705.398 125.433 704.446 116.439 704.238 106.468C704.221 105.665 704.858 105.001 705.661 104.984Z" fill="url(#paint51_linear)"/>
<path fill-rule="evenodd" clip-rule="evenodd" d="M781.972 123.087C781.972 123.087 792.158 147.33 803.06 151.156C813.962 154.983 820.058 149.157 820.058 137.122C820.058 125.087 814.582 115.457 806.32 105.41C798.058 95.3626 785.212 86.5887 785.212 86.5887L781.15 99.9627L781.972 123.087Z" fill="url(#paint52_linear)"/>
<path opacity="0.1" fill-rule="evenodd" clip-rule="evenodd" d="M813.236 142.897C814.408 147.104 813.663 150.201 811.003 152.185C808.743 152.537 806.087 152.219 803.06 151.156C795.979 148.671 789.123 139.725 782.495 124.317L781.972 123.087L781.693 115.26C798.936 120.083 809.45 129.295 813.236 142.897Z" fill="#262626"/>
<path d="M785.184 121.718C785.184 117.805 783.208 108.263 784.21 100.051C785.212 91.8394 788.043 84.4566 786.654 82.556C785.265 80.6554 781.585 81.0092 779.232 85.805C776.88 90.6007 773.998 106.901 775.875 116.654C777.751 126.407 781.279 126.345 782.745 126.376C784.21 126.407 785.184 125.631 785.184 121.718Z" fill="url(#paint53_linear)"/>
<path fill-rule="evenodd" clip-rule="evenodd" d="M810.027 133.285C805.707 131.575 799.872 130.126 788.072 128.879C776.271 127.632 765.541 127.846 765.541 127.846L761.333 143.081C761.333 143.081 776.676 158.54 790.782 160.882C804.887 163.224 816.42 153.822 818.71 145.985C820.999 138.148 814.348 134.995 810.027 133.285Z" fill="url(#paint54_linear)"/>
<path d="M762.94 122.532C762.94 122.532 752.993 117.025 750.618 110.477C748.244 103.93 749.243 98.323 746.635 98.323C744.027 98.323 740.713 104.629 741.982 113.135C734.869 111.372 732.173 111.021 729.916 118.27C727.659 125.519 729.9 136.881 735.119 137.957C740.338 139.034 755.49 137.957 755.49 137.957L762.94 122.532Z" fill="url(#paint55_linear)"/>
<path d="M770.755 153.822L752.231 139.423C752.231 139.423 755.885 132.315 757.488 126.377C759.09 120.439 759.09 119.456 759.09 119.456L781.151 126.377C781.151 126.377 783.024 134.096 781.151 142.265C779.278 150.433 770.755 153.822 770.755 153.822Z" fill="url(#paint56_linear)"/>
<path fill-rule="evenodd" clip-rule="evenodd" d="M690.43 86.5887C690.43 86.5887 675.032 97.1427 667.143 111.264C659.253 125.385 654.947 142.183 658.838 158.703C662.729 175.223 676.314 176.843 681.515 174.071C686.716 171.298 692.325 130.669 692.325 130.669L690.43 86.5887Z" fill="url(#paint57_linear)"/>
<path d="M692.325 130.669C692.325 130.669 699.983 128.048 700.318 113.185C700.654 98.3231 696.754 83.5311 692.325 83.5311C687.896 83.5311 687.896 88.9383 687.896 100.005C687.896 111.072 692.325 130.669 692.325 130.669Z" fill="url(#paint58_linear)"/>
<path d="M682.229 175.223C680.07 175.283 672.649 175.583 668.262 167.138C663.876 158.692 669.723 151.537 672.289 147.203C674.854 142.868 677.327 135.852 680.84 135.852C684.353 135.852 690.532 140.117 692.325 145.72C694.118 151.324 694.434 156.48 691.165 164.626C687.896 172.771 684.388 175.163 682.229 175.223Z" fill="url(#paint59_linear)"/>
<path d="M687.175 132.746C687.175 132.746 696.777 130.887 698.559 132.746C700.34 134.604 702.865 142.333 698.559 144.654C694.252 146.975 687.175 132.746 687.175 132.746Z" fill="url(#paint60_linear)"/>
<path d="M680.168 4.05957C680.168 4.05957 596.898 22.5727 558.191 50.275C553.189 77.9773 564.996 135.24 570.74 144.531C585.809 127.815 644.434 95.559 687.175 91.074C683.087 59.5023 680.168 4.05957 680.168 4.05957Z" fill="url(#paint61_linear)"/>
<path opacity="0.2" d="M680.168 4.05957L680.369 7.81202C682.274 42.9898 684.543 70.7438 687.175 91.074C644.435 95.559 585.809 127.815 570.74 144.531C568.471 140.86 565.255 129.7 562.503 115.834C586.723 60.5922 666.3 87.2836 657.385 59.5023C652.034 42.8289 653.613 25.7646 662.123 8.30939C667.953 6.85469 673.968 5.43803 680.168 4.05957Z" fill="url(#paint62_linear)"/>
<path fill-rule="evenodd" clip-rule="evenodd" d="M632.415 64.6176L626.749 29.918L599.56 43.7236L600.963 57.4248L619.171 47.2355L623.144 69.5684L632.415 64.6176ZM620.195 101.817L613.721 61.1719L603.409 68.0996L609.113 107.1L620.195 101.817Z" fill="url(#paint63_linear)"/>
<path d="M679.878 0.00976573C682.213 -0.145412 684.241 1.56667 684.501 3.86799L684.519 4.07254L710.635 397.016C710.795 399.42 708.976 401.498 706.572 401.657C704.237 401.813 702.21 400.101 701.949 397.799L701.931 397.595L675.815 4.65102C675.656 2.24747 677.475 0.169508 679.878 0.00976573Z" fill="url(#paint64_linear)"/>
<path d="M694.118 134.604C694.118 134.604 686.946 133.003 684.316 133.537C681.686 134.071 678.868 138.156 678.273 141.3C677.679 144.443 679.351 155.3 681.833 158.882C684.316 162.464 693.989 159.388 696.565 157.802C699.141 156.217 699.582 153.82 698.074 152.464C700.319 150.466 698.074 146.975 698.074 146.975C698.074 146.975 699.82 144.354 699.141 142.576C698.463 140.798 696.565 140.34 696.565 140.34C696.565 140.34 697.814 138.484 697.19 136.766C696.565 135.048 694.118 134.604 694.118 134.604Z" fill="url(#paint65_linear)"/>
<path fill-rule="evenodd" clip-rule="evenodd" d="M689.385 138.079L689.298 138.066C689.069 138.052 688.855 138.203 688.799 138.434C688.735 138.694 688.894 138.957 689.154 139.02L696.449 140.81L696.536 140.823C696.765 140.837 696.979 140.686 697.036 140.455C697.099 140.195 696.94 139.933 696.68 139.869L689.385 138.079ZM690.411 145.399L690.499 145.404L698.142 146.495C698.407 146.533 698.591 146.778 698.553 147.043C698.519 147.279 698.322 147.451 698.092 147.459L698.005 147.455L690.362 146.363C690.097 146.325 689.913 146.08 689.95 145.815C689.984 145.579 690.182 145.408 690.411 145.399ZM698.074 151.979C698.341 151.979 698.558 152.196 698.558 152.464C698.558 152.702 698.387 152.9 698.161 152.941L698.074 152.949H692.325C692.058 152.949 691.841 152.732 691.841 152.464C691.841 152.226 692.012 152.028 692.238 151.987L692.325 151.979H698.074Z" fill="url(#paint66_linear)"/>
<defs>
<filter id="filter0_d" x="730.356" y="79.3856" width="55.9367" height="65.6287" filterUnits="userSpaceOnUse" color-interpolation-filters="sRGB">
<feFlood flood-opacity="0" result="BackgroundImageFix"/>
<feColorMatrix in="SourceAlpha" type="matrix" values="0 0 0 0 0 0 0 0 0 0 0 0 0 0 0 0 0 0 127 0"/>
<feOffset/>
<feGaussianBlur stdDeviation="10.834"/>
<feColorMatrix type="matrix" values="0 0 0 0 0.0333334 0 0 0 0 1 0 0 0 0 0.942 0 0 0 0.66 0"/>
<feBlend mode="normal" in2="BackgroundImageFix" result="effect1_dropShadow"/>
<feBlend mode="normal" in="SourceGraphic" in2="effect1_dropShadow" result="shape"/>
</filter>
<linearGradient id="paint0_linear" x1="548.33" y1="298.18" x2="544.296" y2="329.241" gradientUnits="userSpaceOnUse">
<stop stop-color="#28674F"/>
<stop offset="1" stop-color="#123635"/>
</linearGradient>
<linearGradient id="paint1_linear" x1="275.292" y1="355.191" x2="279.769" y2="386.353" gradientUnits="userSpaceOnUse">
<stop stop-color="#28674F"/>
<stop offset="1" stop-color="#123635"/>
</linearGradient>
<radialGradient id="paint2_radial" cx="0" cy="0" r="1" gradientUnits="userSpaceOnUse" gradientTransform="translate(661.596 336.576) rotate(90.594) scale(383.183 1249.55)">
<stop stop-color="#296B67"/>
<stop offset="1" stop-color="#132331" stop-opacity="0"/>
</radialGradient>
<linearGradient id="paint3_linear" x1="724.997" y1="283.919" x2="716.716" y2="327.769" gradientUnits="userSpaceOnUse">
<stop stop-color="#28674F"/>
<stop offset="1" stop-color="#123635"/>
</linearGradient>
<linearGradient id="paint4_linear" x1="384.988" y1="333.393" x2="420.332" y2="490.028" gradientUnits="userSpaceOnUse">
<stop stop-opacity="0.06"/>
<stop offset="1" stop-opacity="0.48"/>
</linearGradient>
<radialGradient id="paint5_radial" cx="0" cy="0" r="1" gradientUnits="userSpaceOnUse" gradientTransform="translate(980.105 467.676) rotate(-82.898) scale(73.0942 212.41)">
<stop offset="0.51211" stop-color="#2E898E" stop-opacity="0.01"/>
<stop offset="1" stop-color="#3AC8C4"/>
</radialGradient>
<linearGradient id="paint6_linear" x1="993.1" y1="366.496" x2="994.002" y2="434.536" gradientUnits="userSpaceOnUse">
<stop stop-color="#28674F" stop-opacity="0.01"/>
<stop offset="1"/>
</linearGradient>
<radialGradient id="paint7_radial" cx="0" cy="0" r="1" gradientUnits="userSpaceOnUse" gradientTransform="translate(300.412 449.13) rotate(-107.071) scale(47.9777 122.753)">
<stop offset="0.51211" stop-color="#2E898E" stop-opacity="0.01"/>
<stop offset="1" stop-color="#3AC8C4"/>
</radialGradient>
<linearGradient id="paint8_linear" x1="280.55" y1="385.21" x2="291.384" y2="428.907" gradientUnits="userSpaceOnUse">
<stop stop-color="#28674F" stop-opacity="0.01"/>
<stop offset="1"/>
</linearGradient>
<linearGradient id="paint9_linear" x1="862.259" y1="316.553" x2="863.358" y2="349.149" gradientUnits="userSpaceOnUse">
<stop stop-color="#28674F"/>
<stop offset="1"/>
</linearGradient>
<linearGradient id="paint10_linear" x1="935.725" y1="264.471" x2="934.786" y2="297.125" gradientUnits="userSpaceOnUse">
<stop stop-color="#28674F"/>
<stop offset="1"/>
</linearGradient>
<linearGradient id="paint11_linear" x1="650.728" y1="408.911" x2="649.712" y2="389.564" gradientUnits="userSpaceOnUse">
<stop stop-color="#28674F" stop-opacity="0.01"/>
<stop offset="1" stop-color="#123635"/>
</linearGradient>
<linearGradient id="paint12_linear" x1="367.419" y1="413.688" x2="369.939" y2="441.202" gradientUnits="userSpaceOnUse">
<stop stop-color="#28674F"/>
<stop offset="1"/>
</linearGradient>
<linearGradient id="paint13_linear" x1="545.337" y1="385.772" x2="543.264" y2="354.674" gradientUnits="userSpaceOnUse">
<stop stop-color="#28674F" stop-opacity="0.01"/>
<stop offset="1" stop-color="#123635"/>
</linearGradient>
<linearGradient id="paint14_linear" x1="548.003" y1="372.125" x2="543.335" y2="348.111" gradientUnits="userSpaceOnUse">
<stop stop-color="#28674F" stop-opacity="0.01"/>
<stop offset="1"/>
</linearGradient>
<linearGradient id="paint15_linear" x1="826.2" y1="418.105" x2="826.415" y2="414.711" gradientUnits="userSpaceOnUse">
<stop stop-color="#28674F" stop-opacity="0.01"/>
<stop offset="1" stop-color="#123635"/>
</linearGradient>
<linearGradient id="paint16_linear" x1="807.556" y1="361.942" x2="807.878" y2="356.851" gradientUnits="userSpaceOnUse">
<stop stop-color="#28674F" stop-opacity="0.01"/>
<stop offset="1" stop-color="#123635"/>
</linearGradient>
<linearGradient id="paint17_linear" x1="905.451" y1="396.836" x2="905.773" y2="391.744" gradientUnits="userSpaceOnUse">
<stop stop-color="#28674F" stop-opacity="0.01"/>
<stop offset="1" stop-color="#123635"/>
</linearGradient>
<linearGradient id="paint18_linear" x1="722.966" y1="386.512" x2="719.941" y2="406.403" gradientUnits="userSpaceOnUse">
<stop stop-color="#28674F"/>
<stop offset="1"/>
</linearGradient>
<linearGradient id="paint19_linear" x1="749.348" y1="360.057" x2="783.459" y2="358.141" gradientUnits="userSpaceOnUse">
<stop stop-color="#066A81"/>
<stop offset="1" stop-color="#12E2EF"/>
</linearGradient>
<linearGradient id="paint20_linear" x1="768.975" y1="360.383" x2="776.849" y2="385.587" gradientUnits="userSpaceOnUse">
<stop stop-color="#28674F"/>
<stop offset="1" stop-color="#123635"/>
</linearGradient>
<linearGradient id="paint21_linear" x1="764.077" y1="381.886" x2="764.68" y2="386.224" gradientUnits="userSpaceOnUse">
<stop stop-color="#28674F"/>
<stop offset="1" stop-color="#123635"/>
</linearGradient>
<linearGradient id="paint22_linear" x1="729.501" y1="360.057" x2="695.391" y2="358.141" gradientUnits="userSpaceOnUse">
<stop stop-color="#066A81"/>
<stop offset="1" stop-color="#12E2EF"/>
</linearGradient>
<linearGradient id="paint23_linear" x1="709.874" y1="360.383" x2="702" y2="385.587" gradientUnits="userSpaceOnUse">
<stop stop-color="#28674F"/>
<stop offset="1" stop-color="#123635"/>
</linearGradient>
<linearGradient id="paint24_linear" x1="714.772" y1="381.886" x2="714.17" y2="386.224" gradientUnits="userSpaceOnUse">
<stop stop-color="#28674F"/>
<stop offset="1" stop-color="#123635"/>
</linearGradient>
<linearGradient id="paint25_linear" x1="683.971" y1="355.661" x2="685.634" y2="366.667" gradientUnits="userSpaceOnUse">
<stop stop-color="#28674F"/>
<stop offset="1" stop-color="#123635"/>
</linearGradient>
<linearGradient id="paint26_linear" x1="754.944" y1="354.983" x2="756.769" y2="366.735" gradientUnits="userSpaceOnUse">
<stop stop-color="#28674F"/>
<stop offset="1" stop-color="#123635"/>
</linearGradient>
<linearGradient id="paint27_linear" x1="663.627" y1="161.377" x2="736.436" y2="159.75" gradientUnits="userSpaceOnUse">
<stop stop-color="#066A81"/>
<stop offset="1" stop-color="#12E2EF"/>
</linearGradient>
<linearGradient id="paint28_linear" x1="744.708" y1="285.222" x2="740.797" y2="299.854" gradientUnits="userSpaceOnUse">
<stop stop-color="#042635"/>
<stop offset="1" stop-color="#001431"/>
</linearGradient>
<linearGradient id="paint29_linear" x1="683.74" y1="166.268" x2="686.158" y2="189.274" gradientUnits="userSpaceOnUse">
<stop stop-color="#28674F"/>
<stop offset="1" stop-color="#123635"/>
</linearGradient>
<linearGradient id="paint30_linear" x1="704.652" y1="185.041" x2="704.652" y2="206.812" gradientUnits="userSpaceOnUse">
<stop stop-color="#28674F"/>
<stop offset="1" stop-color="#123635"/>
</linearGradient>
<linearGradient id="paint31_linear" x1="669.058" y1="64.078" x2="733.14" y2="62.0212" gradientUnits="userSpaceOnUse">
<stop stop-color="#066A81"/>
<stop offset="1" stop-color="#12E2EF"/>
</linearGradient>
<linearGradient id="paint32_linear" x1="725.524" y1="64.0782" x2="757.585" y2="63.5637" gradientUnits="userSpaceOnUse">
<stop stop-color="#066A81"/>
<stop offset="1" stop-color="#12E2EF"/>
</linearGradient>
<linearGradient id="paint33_linear" x1="752.892" y1="107.004" x2="751.866" y2="112.763" gradientUnits="userSpaceOnUse">
<stop stop-color="#BAFEFF"/>
<stop offset="1" stop-color="#A5FFFE"/>
</linearGradient>
<linearGradient id="paint34_linear" x1="763.475" y1="39.3104" x2="768.123" y2="39.2238" gradientUnits="userSpaceOnUse">
<stop stop-color="#066A81"/>
<stop offset="1" stop-color="#12E2EF"/>
</linearGradient>
<linearGradient id="paint35_linear" x1="684.814" y1="11.7738" x2="732.28" y2="9.83979" gradientUnits="userSpaceOnUse">
<stop stop-color="#066A81"/>
<stop offset="1" stop-color="#12E2EF"/>
</linearGradient>
<linearGradient id="paint36_linear" x1="735.453" y1="14.7191" x2="721.622" y2="40.0665" gradientUnits="userSpaceOnUse">
<stop stop-color="#042635"/>
<stop offset="1" stop-color="#001431"/>
</linearGradient>
<linearGradient id="paint37_linear" x1="730.826" y1="15.9721" x2="735.689" y2="19.6275" gradientUnits="userSpaceOnUse">
<stop stop-color="#28674F"/>
<stop offset="1" stop-color="#123635"/>
</linearGradient>
<linearGradient id="paint38_linear" x1="740.017" y1="33.3689" x2="696.145" y2="70.8049" gradientUnits="userSpaceOnUse">
<stop stop-color="#042635"/>
<stop offset="1" stop-color="#001431"/>
</linearGradient>
<linearGradient id="paint39_linear" x1="741.402" y1="49.3034" x2="749.09" y2="73.9241" gradientUnits="userSpaceOnUse">
<stop stop-color="#CEFFDD"/>
<stop offset="1" stop-color="#B2FFF9"/>
</linearGradient>
<linearGradient id="paint40_linear" x1="751.691" y1="49.6733" x2="755.373" y2="53.2766" gradientUnits="userSpaceOnUse">
<stop stop-color="#28674F"/>
<stop offset="1" stop-color="#123635"/>
</linearGradient>
<linearGradient id="paint41_linear" x1="752.287" y1="60.5916" x2="752.72" y2="62.0061" gradientUnits="userSpaceOnUse">
<stop stop-color="#28674F"/>
<stop offset="1" stop-color="#123635"/>
</linearGradient>
<linearGradient id="paint42_linear" x1="705.386" y1="63.0394" x2="704.953" y2="65.7685" gradientUnits="userSpaceOnUse">
<stop stop-color="#FF8A8A"/>
<stop offset="1" stop-color="#FF685E"/>
</linearGradient>
<linearGradient id="paint43_linear" x1="707.793" y1="65.9471" x2="707.36" y2="68.6762" gradientUnits="userSpaceOnUse">
<stop stop-color="#FF8A8A"/>
<stop offset="1" stop-color="#FF685E"/>
</linearGradient>
<linearGradient id="paint44_linear" x1="695.979" y1="44.2614" x2="700.775" y2="52.7429" gradientUnits="userSpaceOnUse">
<stop stop-color="#28674F"/>
<stop offset="1" stop-color="#123635"/>
</linearGradient>
<linearGradient id="paint45_linear" x1="696.214" y1="47.0955" x2="699.958" y2="47.0232" gradientUnits="userSpaceOnUse">
<stop stop-color="#066A81"/>
<stop offset="1" stop-color="#12E2EF"/>
</linearGradient>
<linearGradient id="paint46_linear" x1="712.922" y1="45.5324" x2="713.494" y2="49.9021" gradientUnits="userSpaceOnUse">
<stop stop-color="#CEFFDD"/>
<stop offset="1" stop-color="#B2FFF9"/>
</linearGradient>
<linearGradient id="paint47_linear" x1="741.199" y1="64.9979" x2="728.136" y2="95.5081" gradientUnits="userSpaceOnUse">
<stop stop-color="#042635"/>
<stop offset="1" stop-color="#001431"/>
</linearGradient>
<linearGradient id="paint48_linear" x1="712.215" y1="77.6057" x2="712.215" y2="92.1141" gradientUnits="userSpaceOnUse">
<stop stop-color="#28674F"/>
<stop offset="1" stop-color="#123635"/>
</linearGradient>
<linearGradient id="paint49_linear" x1="707.354" y1="279.487" x2="692.52" y2="284.81" gradientUnits="userSpaceOnUse">
<stop stop-color="#042635"/>
<stop offset="1" stop-color="#001431"/>
</linearGradient>
<linearGradient id="paint50_linear" x1="780.304" y1="276.344" x2="766.485" y2="283.922" gradientUnits="userSpaceOnUse">
<stop stop-color="#042635"/>
<stop offset="1" stop-color="#001431"/>
</linearGradient>
<linearGradient id="paint51_linear" x1="705.284" y1="101.721" x2="684.32" y2="127.276" gradientUnits="userSpaceOnUse">
<stop stop-color="#FF8A8A"/>
<stop offset="1" stop-color="#FF685E"/>
</linearGradient>
<linearGradient id="paint52_linear" x1="772.067" y1="81.7879" x2="799.316" y2="81.1308" gradientUnits="userSpaceOnUse">
<stop stop-color="#066A81"/>
<stop offset="1" stop-color="#12E2EF"/>
</linearGradient>
<linearGradient id="paint53_linear" x1="781.938" y1="76.1577" x2="765.903" y2="79.2161" gradientUnits="userSpaceOnUse">
<stop stop-color="#042635"/>
<stop offset="1" stop-color="#001431"/>
</linearGradient>
<linearGradient id="paint54_linear" x1="747.829" y1="125.373" x2="788.162" y2="122.53" gradientUnits="userSpaceOnUse">
<stop stop-color="#066A81"/>
<stop offset="1" stop-color="#12E2EF"/>
</linearGradient>
<linearGradient id="paint55_linear" x1="722.421" y1="95.7038" x2="732.7" y2="124.035" gradientUnits="userSpaceOnUse">
<stop stop-color="#28674F"/>
<stop offset="1" stop-color="#123635"/>
</linearGradient>
<linearGradient id="paint56_linear" x1="741.656" y1="132.472" x2="764.612" y2="165.869" gradientUnits="userSpaceOnUse">
<stop stop-color="#5CDEAC"/>
<stop offset="1" stop-color="#123635"/>
</linearGradient>
<linearGradient id="paint57_linear" x1="649.226" y1="80.1198" x2="673.705" y2="79.7263" gradientUnits="userSpaceOnUse">
<stop stop-color="#066A81"/>
<stop offset="1" stop-color="#12E2EF"/>
</linearGradient>
<linearGradient id="paint58_linear" x1="694.951" y1="77.9409" x2="677.993" y2="81.2002" gradientUnits="userSpaceOnUse">
<stop stop-color="#042635"/>
<stop offset="1" stop-color="#001431"/>
</linearGradient>
<linearGradient id="paint59_linear" x1="657.122" y1="150.77" x2="685.04" y2="182.791" gradientUnits="userSpaceOnUse">
<stop stop-color="#5CDEAC"/>
<stop offset="1" stop-color="#123635"/>
</linearGradient>
<linearGradient id="paint60_linear" x1="684.489" y1="130.958" x2="687.323" y2="140.633" gradientUnits="userSpaceOnUse">
<stop stop-color="#28674F"/>
<stop offset="1" stop-color="#123635"/>
</linearGradient>
<linearGradient id="paint61_linear" x1="526.59" y1="-6.19967" x2="617.692" y2="-9.63997" gradientUnits="userSpaceOnUse">
<stop stop-color="#066A81"/>
<stop offset="1" stop-color="#12E2EF"/>
</linearGradient>
<linearGradient id="paint62_linear" x1="506.59" y1="44.5098" x2="593.813" y2="154.997" gradientUnits="userSpaceOnUse">
<stop stop-color="#28674F"/>
<stop offset="1" stop-color="#123635"/>
</linearGradient>
<linearGradient id="paint63_linear" x1="601.91" y1="37.7061" x2="585.658" y2="99.2168" gradientUnits="userSpaceOnUse">
<stop stop-color="#75F2F4"/>
<stop offset="1" stop-color="#5AFFFD"/>
</linearGradient>
<linearGradient id="paint64_linear" x1="660.136" y1="10.7564" x2="660.136" y2="392.246" gradientUnits="userSpaceOnUse">
<stop stop-color="#ACF4FF"/>
<stop offset="1" stop-color="#CDFAFF"/>
</linearGradient>
<linearGradient id="paint65_linear" x1="674.017" y1="131.634" x2="681.383" y2="150.406" gradientUnits="userSpaceOnUse">
<stop stop-color="#28674F"/>
<stop offset="1" stop-color="#123635"/>
</linearGradient>
<linearGradient id="paint66_linear" x1="684.311" y1="155.72" x2="713.897" y2="164.66" gradientUnits="userSpaceOnUse">
<stop stop-color="#28674F"/>
<stop offset="1" stop-color="#123635"/>
</linearGradient>
</defs>
</svg>
