<svg width="220" height="62" viewBox="0 0 220 62" fill="none" xmlns="http://www.w3.org/2000/svg">
    <path d="M131.54 0.291504L79.6321 52.1994C79.4756 52.356 79.4756 52.6099 79.6321 52.7664L87.8107 60.945C87.9673 61.1016 88.2212 61.1016 88.3777 60.945L140.286 9.03709C140.442 8.88051 140.442 8.62665 140.286 8.47008L132.107 0.291503C131.951 0.134927 131.697 0.134928 131.54 0.291504Z" fill="#3FE7E7"/>
    <path d="M122.8 35.2716L114.62 43.4514C114.464 43.608 114.464 43.8619 114.62 44.0185L131.548 60.9459C131.704 61.1025 131.958 61.1025 132.115 60.9459L140.295 52.7661C140.451 52.6095 140.451 52.3556 140.295 52.199L123.367 35.2716C123.211 35.115 122.957 35.115 122.8 35.2716Z" fill="#3FE7E7"/>
    <path d="M87.812 0.283547L79.6322 8.46335C79.4756 8.61995 79.4756 8.87385 79.6322 9.03045L96.5596 25.9579C96.7162 26.1145 96.9701 26.1145 97.1267 25.9579L105.307 17.7781C105.463 17.6215 105.463 17.3676 105.307 17.211L88.3791 0.283547C88.2225 0.126946 87.9686 0.126947 87.812 0.283547Z" fill="#3FE7E7"/>
    <path d="M193.551 12.995V24.743H219.117C219.233 24.7428 219.348 24.7656 219.455 24.8098C219.562 24.8541 219.659 24.9191 219.741 25.001C219.823 25.0829 219.888 25.1802 219.932 25.2873C219.977 25.3943 219.999 25.5091 219.999 25.625V35.609C219.999 35.7248 219.977 35.8396 219.932 35.9466C219.888 36.0537 219.823 36.151 219.741 36.2329C219.659 36.3148 219.562 36.3798 219.455 36.4241C219.348 36.4684 219.233 36.4911 219.117 36.491H193.551V48.239H219.117C219.233 48.2388 219.348 48.2615 219.455 48.3058C219.562 48.3501 219.659 48.4151 219.741 48.497C219.823 48.5789 219.888 48.6762 219.932 48.7833C219.977 48.8903 219.999 49.0051 219.999 49.121V59.105C219.999 59.2208 219.977 59.3356 219.932 59.4426C219.888 59.5497 219.823 59.647 219.741 59.7289C219.659 59.8108 219.562 59.8758 219.455 59.9201C219.348 59.9644 219.233 59.9871 219.117 59.987H181.209C181.093 59.987 180.979 59.9641 180.872 59.9198C180.765 59.8755 180.667 59.8105 180.585 59.7286C180.504 59.6467 180.439 59.5495 180.394 59.4425C180.35 59.3355 180.327 59.2208 180.327 59.105V2.12895C180.327 2.01313 180.35 1.89844 180.394 1.79143C180.439 1.68442 180.504 1.5872 180.585 1.5053C180.667 1.42339 180.765 1.35841 180.872 1.31409C180.979 1.26976 181.093 1.24695 181.209 1.24695H219.117C219.233 1.24682 219.348 1.26955 219.455 1.31383C219.562 1.35811 219.659 1.42306 219.741 1.50499C219.823 1.58692 219.888 1.68421 219.932 1.79128C219.977 1.89834 219.999 2.01309 219.999 2.12895V12.113C219.999 12.2288 219.977 12.3436 219.932 12.4506C219.888 12.5577 219.823 12.655 219.741 12.7369C219.659 12.8189 219.562 12.8838 219.455 12.9281C219.348 12.9724 219.233 12.9951 219.117 12.995H193.551Z" fill="#3FE7E7"/>
    <path d="M0 2.12494V12.1109C0 12.3449 0.0929242 12.5692 0.258331 12.7346C0.423738 12.9 0.648083 12.9929 0.882004 12.9929H26.45V37.083C26.4497 37.1987 26.4723 37.3133 26.5164 37.4203C26.5605 37.5273 26.6253 37.6246 26.707 37.7065C26.7888 37.7884 26.8859 37.8534 26.9928 37.8978C27.0997 37.9421 27.2143 37.9649 27.33 37.9649H38.792C39.0259 37.9649 39.2503 37.872 39.4157 37.7066C39.5811 37.5412 39.674 37.3169 39.674 37.083V2.12494C39.6735 1.89137 39.5803 1.66754 39.415 1.50257C39.2496 1.33759 39.0256 1.24494 38.792 1.24494H0.882004C0.766272 1.24467 0.651629 1.26725 0.544632 1.31136C0.437634 1.35546 0.340381 1.42024 0.258453 1.50199C0.176526 1.58373 0.111534 1.68082 0.0671844 1.78772C0.0228353 1.89462 -2.98891e-07 2.00921 0 2.12494Z" fill="#3FE7E7"/>
    <path d="M12.824 24.7409H0.401C0.179534 24.7409 0 24.9204 0 25.1419V59.5849C0 59.8064 0.179534 59.9859 0.401 59.9859H12.824C13.0455 59.9859 13.225 59.8064 13.225 59.5849V25.1419C13.225 24.9204 13.0455 24.7409 12.824 24.7409Z" fill="#3FE7E7"/>
    <path d="M65.7234 1.24396H53.3004C53.0789 1.24396 52.8994 1.42349 52.8994 1.64496V59.585C52.8994 59.8064 53.0789 59.986 53.3004 59.986H65.7234C65.9449 59.986 66.1244 59.8064 66.1244 59.585V1.64496C66.1244 1.42349 65.9449 1.24396 65.7234 1.24396Z" fill="#3FE7E7"/>
    <path d="M166.702 1.24396H154.279C154.057 1.24396 153.878 1.42349 153.878 1.64496V59.585C153.878 59.8064 154.057 59.986 154.279 59.986H166.702C166.923 59.986 167.103 59.8064 167.103 59.585V1.64496C167.103 1.42349 166.923 1.24396 166.702 1.24396Z" fill="#3FE7E7"/>
</svg>
