<svg width="65" height="65" viewBox="0 0 45 45" fill="none" xmlns="http://www.w3.org/2000/svg">
<path d="M5.85205 34.1702C5.85205 34.4502 6.01205 34.7302 6.27205 34.9302C9.82205 37.5702 14.0421 38.9702 18.4821 38.9702C22.9221 38.9702 27.1421 37.5702 30.6921 34.9302C30.9521 34.7302 31.112 34.4502 31.112 34.1702C31.112 33.9102 30.972 33.6602 30.702 33.4602C30.462 33.2802 30.212 33.1202 29.962 32.9502C27.342 35.0402 24.202 36.3902 20.812 36.8202C20.032 36.9202 19.242 36.9702 18.462 36.9702C14.162 36.9702 10.182 35.4502 7.03205 32.9302C6.78205 33.1002 6.52205 33.2702 6.27205 33.4502C6.00205 33.6502 5.86205 33.9002 5.86205 34.1602L5.85205 34.1702Z" fill="#325B99"/>
<path d="M5.28213 32.15C4.59213 32.66 4.21213 33.38 4.21213 34.17C4.21213 34.96 4.61214 35.74 5.29214 36.24C9.13214 39.09 13.6921 40.6 18.4821 40.6C23.2721 40.6 27.8321 39.09 31.6721 36.24C32.3521 35.74 32.7521 34.96 32.7521 34.17C32.7521 33.38 32.3721 32.67 31.6821 32.15C31.5321 32.04 31.3821 31.95 31.2321 31.84C31.7721 31.32 32.3021 30.78 32.7821 30.18C33.0721 29.82 33.1821 29.36 33.0921 28.91C32.9921 28.44 32.7021 28.05 32.2821 27.83L31.8821 27.62C34.0421 24.45 35.1221 20.53 34.6021 16.43C34.0821 12.34 32.0621 8.8 29.1721 6.28L29.5121 5.98C29.8621 5.67 30.0521 5.21 30.0321 4.74C30.0121 4.27 29.7821 3.85 29.4121 3.58C26.2121 1.24 22.4521 0 18.5121 0C16.9521 0 15.3821 0.2 13.8421 0.59C5.69214 2.67 -0.127865 10.29 0.00213499 18.7C0.082135 23.85 2.29214 28.5 5.77214 31.82C5.61214 31.93 5.45213 32.03 5.30213 32.14H5.28213V32.15ZM29.8121 14.17C29.0121 14.66 27.7721 14.1 27.0521 12.91C26.3321 11.73 26.4021 10.37 27.2021 9.88C28.0021 9.39 29.2421 9.95 29.9621 11.14C30.6821 12.32 30.6121 13.68 29.8121 14.17ZM31.9121 16.93C32.1821 17.74 31.9621 18.54 31.4121 18.73C30.8621 18.92 30.1921 18.41 29.9221 17.6C29.6521 16.79 29.8721 15.99 30.4221 15.8C30.9721 15.61 31.6421 16.12 31.9121 16.93ZM23.5621 17.84C23.7321 19.2 23.3721 20.54 22.5321 21.62C21.6921 22.7 20.4821 23.39 19.1321 23.56C17.7721 23.73 16.4321 23.37 15.3521 22.53C14.2721 21.69 13.5821 20.48 13.4121 19.13C13.2421 17.77 13.6021 16.43 14.4421 15.35C15.2821 14.27 16.4921 13.58 17.8421 13.41C18.0621 13.38 18.2721 13.37 18.4921 13.37C21.0321 13.37 23.2421 15.26 23.5721 17.85H23.5621V17.84ZM1.62213 18.68C1.50213 11.01 6.80214 4.07 14.2321 2.18C15.6421 1.82 17.0721 1.64 18.4921 1.64C22.0421 1.64 25.4421 2.75 28.3321 4.84L20.3321 12C19.4821 11.76 18.5621 11.68 17.6321 11.79C15.8421 12.02 14.2521 12.93 13.1421 14.35C12.0421 15.78 11.5521 17.55 11.7821 19.34C12.0121 21.13 12.9221 22.72 14.3421 23.83C15.5421 24.76 16.9721 25.25 18.4621 25.25C18.7521 25.25 19.0421 25.23 19.3321 25.19C20.2521 25.07 21.1221 24.77 21.8921 24.32L31.4321 29.25C28.6921 32.56 24.8521 34.67 20.6021 35.21C19.8921 35.3 19.1721 35.35 18.4521 35.35C9.31213 35.35 1.76213 27.87 1.62213 18.68ZM18.4521 36.98C19.2321 36.98 20.0221 36.93 20.8021 36.83C24.1921 36.4 27.3321 35.05 29.9521 32.96C30.2021 33.13 30.4521 33.29 30.6921 33.47C30.9621 33.67 31.1021 33.92 31.1021 34.18C31.1021 34.46 30.9421 34.74 30.6821 34.94C27.1321 37.58 22.9121 38.98 18.4721 38.98C14.0321 38.98 9.81214 37.58 6.26214 34.94C6.00214 34.74 5.84213 34.46 5.84213 34.18C5.84213 33.92 5.98213 33.67 6.25213 33.47C6.50213 33.29 6.76214 33.12 7.01214 32.95C10.1721 35.47 14.1421 36.99 18.4421 36.99L18.4521 36.98Z" fill="black"/>
<path d="M18.4521 35.3501C19.1621 35.3501 19.8921 35.3001 20.6021 35.2101C24.8521 34.6701 28.6921 32.5501 31.4321 29.2501L21.8921 24.3201C21.1121 24.7801 20.2521 25.0801 19.3321 25.1901C19.0421 25.2301 18.7521 25.2501 18.4621 25.2501C16.9721 25.2501 15.5321 24.7601 14.3421 23.8301C12.9121 22.7201 12.0021 21.1301 11.7821 19.3401C11.5521 17.5501 12.0421 15.7801 13.1421 14.3501C14.2521 12.9201 15.8421 12.0101 17.6321 11.7901C18.5721 11.6701 19.4821 11.7501 20.3321 12.0001L28.3321 4.84014C25.4421 2.75014 22.0421 1.64014 18.4921 1.64014C17.0721 1.64014 15.6421 1.82014 14.2321 2.18014C6.81211 4.08014 1.50211 11.0101 1.62211 18.6801C1.76211 27.8701 9.31211 35.3501 18.4521 35.3501Z" fill="#325B99"/>
<path d="M17.8319 13.4101C16.4719 13.5801 15.2619 14.2701 14.4319 15.3501C13.5919 16.4301 13.2319 17.7701 13.4019 19.1301C13.5719 20.4901 14.2619 21.7001 15.3419 22.5301C16.4219 23.3701 17.7619 23.7401 19.1219 23.5601C20.4819 23.3901 21.6919 22.7001 22.5219 21.6201C23.3619 20.5401 23.7319 19.2001 23.5519 17.8401C23.2219 15.2601 21.0119 13.3601 18.4719 13.3601C18.2619 13.3601 18.0419 13.3601 17.8219 13.4001H17.8319V13.4101Z" fill="white"/>
<path d="M27.2119 9.87999C26.4119 10.37 26.3419 11.73 27.0619 12.91C27.7819 14.09 29.0219 14.66 29.8219 14.17C30.6219 13.68 30.692 12.32 29.972 11.14C29.252 9.95999 28.0119 9.38999 27.2119 9.87999Z" fill="white"/>
<path d="M29.9221 17.6001C30.1921 18.4101 30.8621 18.9101 31.4121 18.7301C31.9621 18.5401 32.1821 17.7401 31.9121 16.9301C31.6421 16.1201 30.9721 15.6201 30.4221 15.8001C29.8721 15.9901 29.6521 16.7901 29.9221 17.6001Z" fill="white"/>
</svg>
