<svg width="183" height="234" viewBox="0 0 183 234" fill="none" xmlns="http://www.w3.org/2000/svg">
<path d="M137.5 210.876L136.162 202.705L122.807 212.146L129.573 217.27L137.5 210.876Z" fill="url(#paint0_linear)"/>
<path d="M170.138 165.558L165.727 158.55L157.095 172.442L165.321 174.531L170.138 165.558Z" fill="url(#paint1_linear)"/>
<circle cx="61.59" cy="116.59" r="116.59" fill="url(#paint2_radial)"/>
<path d="M125.796 201.13C128.667 198.194 129.903 194.747 128.558 193.431C127.212 192.115 123.794 193.428 120.922 196.364C118.051 199.3 116.815 202.747 118.16 204.063C119.506 205.379 122.924 204.066 125.796 201.13Z" fill="url(#paint3_linear)"/>
<path opacity="0.2" d="M166.786 122.184C168.002 118.261 167.531 114.63 165.733 114.072C163.936 113.515 161.492 116.242 160.276 120.165C159.06 124.087 159.531 127.719 161.329 128.276C163.126 128.834 165.57 126.106 166.786 122.184Z" fill="url(#paint4_linear)"/>
<g opacity="0.4">
<path d="M87.9692 218.562C87.9692 218.562 88.7291 213.64 92.7442 209.957C96.7592 206.274 103.248 204.545 103.248 204.545C103.248 204.545 105.807 209.851 106.193 210.752C107.187 213.071 105.716 216.675 101.88 219.506C98.0445 222.337 94.1898 222.118 92.303 221.004C90.4162 219.891 87.9692 218.562 87.9692 218.562Z" fill="url(#paint5_radial)"/>
<path d="M97.2749 213.158C100.131 211.05 103.331 210.559 104.421 212.061C105.511 213.564 104.079 216.491 101.223 218.599C98.3666 220.707 95.1672 221.198 94.077 219.696C92.9867 218.193 94.4185 215.266 97.2749 213.158Z" fill="url(#paint6_linear)"/>
</g>
<g opacity="0.4">
<path d="M170.875 98.2647C170.875 98.2647 167.028 95.1027 165.906 89.7711C164.783 84.4395 166.603 77.976 166.603 77.976C166.603 77.976 172.472 78.4778 173.444 78.6049C175.945 78.9317 178.296 82.0339 178.777 86.777C179.258 91.52 177.106 94.7252 175.186 95.781C173.266 96.8367 170.875 98.2647 170.875 98.2647Z" fill="url(#paint7_radial)"/>
<path d="M170.968 87.5044C170.61 83.9724 171.818 80.9694 173.666 80.7971C175.515 80.6249 177.303 83.3485 177.661 86.8805C178.02 90.4126 176.811 93.4155 174.963 93.5878C173.115 93.7601 171.326 91.0365 170.968 87.5044Z" fill="url(#paint8_linear)"/>
</g>
<path opacity="0.1" d="M147.609 181.8C149.422 179.815 149.905 177.305 148.688 176.193C147.471 175.081 145.014 175.789 143.201 177.774C141.388 179.759 140.905 182.269 142.122 183.381C143.339 184.493 145.796 183.785 147.609 181.8Z" fill="url(#paint9_linear)"/>
<path opacity="0.1" d="M59.3536 168.307C61.1667 166.322 61.6498 163.811 60.4325 162.7C59.2153 161.588 56.7587 162.296 54.9456 164.281C53.1324 166.266 52.6494 168.776 53.8666 169.888C55.0839 171 57.5405 170.292 59.3536 168.307Z" fill="url(#paint10_linear)"/>
<path opacity="0.3" d="M130.923 117.054C132.737 115.069 133.22 112.558 132.002 111.446C130.785 110.334 128.329 111.042 126.515 113.027C124.702 115.012 124.219 117.523 125.436 118.635C126.654 119.747 129.11 119.039 130.923 117.054Z" fill="url(#paint11_linear)"/>
<path opacity="0.2" d="M111.145 183.03C114.001 180.26 115.061 176.72 113.512 175.124C111.963 173.527 108.393 174.478 105.537 177.248C102.681 180.018 101.621 183.558 103.17 185.155C104.719 186.752 108.289 185.8 111.145 183.03Z" fill="url(#paint12_linear)"/>
<path opacity="0.2" d="M73.5717 208.294C74.924 206.982 75.3223 205.199 74.4615 204.312C73.6006 203.424 71.8065 203.768 70.4543 205.08C69.1021 206.391 68.7037 208.174 69.5646 209.062C70.4254 209.949 72.2195 209.605 73.5717 208.294Z" fill="url(#paint13_linear)"/>
<path opacity="0.2" d="M166.217 151.122C167.008 149.507 166.946 147.854 166.079 147.43C165.213 147.006 163.87 147.971 163.08 149.586C162.29 151.201 162.351 152.854 163.218 153.278C164.084 153.702 165.427 152.736 166.217 151.122Z" fill="url(#paint14_linear)"/>
<path opacity="0.2" d="M130.11 152.678C130.9 151.063 130.839 149.411 129.972 148.987C129.106 148.563 127.763 149.528 126.973 151.143C126.182 152.758 126.244 154.411 127.111 154.835C127.977 155.259 129.32 154.293 130.11 152.678Z" fill="url(#paint15_linear)"/>
<defs>
<linearGradient id="paint0_linear" x1="133.772" y1="213.861" x2="130.363" y2="206.853" gradientUnits="userSpaceOnUse">
<stop stop-color="#296B67" stop-opacity="0.42"/>
<stop offset="1" stop-color="#132331" stop-opacity="0"/>
</linearGradient>
<linearGradient id="paint1_linear" x1="167.865" y1="169.757" x2="161.998" y2="164.627" gradientUnits="userSpaceOnUse">
<stop stop-color="#296B67" stop-opacity="0.42"/>
<stop offset="1" stop-color="#132331" stop-opacity="0"/>
</linearGradient>
<radialGradient id="paint2_radial" cx="0" cy="0" r="1" gradientUnits="userSpaceOnUse" gradientTransform="translate(194.341 193.701) rotate(-175.198) scale(228.904 228.927)">
<stop stop-color="#296B67"/>
<stop offset="1" stop-color="#132331" stop-opacity="0"/>
</radialGradient>
<linearGradient id="paint3_linear" x1="140.65" y1="192.698" x2="131.353" y2="184.515" gradientUnits="userSpaceOnUse">
<stop stop-color="#28674F" stop-opacity="0.01"/>
<stop offset="1" stop-color="#123635"/>
</linearGradient>
<linearGradient id="paint4_linear" x1="133.935" y1="139.262" x2="151.213" y2="142.934" gradientUnits="userSpaceOnUse">
<stop stop-color="#28674F"/>
<stop offset="1"/>
</linearGradient>
<radialGradient id="paint5_radial" cx="0" cy="0" r="1" gradientUnits="userSpaceOnUse" gradientTransform="translate(93.7476 204.493) rotate(50.0284) scale(18.475 46.5489)">
<stop offset="0.51211" stop-color="#2E898E" stop-opacity="0.01"/>
<stop offset="1" stop-color="#3AC8C4"/>
</radialGradient>
<linearGradient id="paint6_linear" x1="110.37" y1="224.191" x2="99.8431" y2="210.407" gradientUnits="userSpaceOnUse">
<stop stop-color="#28674F" stop-opacity="0.01"/>
<stop offset="1"/>
</linearGradient>
<radialGradient id="paint7_radial" cx="0" cy="0" r="1" gradientUnits="userSpaceOnUse" gradientTransform="translate(161.716 86.123) rotate(-9.33154) scale(18.475 46.5489)">
<stop offset="0.51211" stop-color="#2E898E" stop-opacity="0.01"/>
<stop offset="1" stop-color="#3AC8C4"/>
</radialGradient>
<linearGradient id="paint8_linear" x1="187.134" y1="81.8603" x2="169.91" y2="83.8927" gradientUnits="userSpaceOnUse">
<stop stop-color="#28674F" stop-opacity="0.01"/>
<stop offset="1"/>
</linearGradient>
<linearGradient id="paint9_linear" x1="119.09" y1="178.842" x2="131.656" y2="187.78" gradientUnits="userSpaceOnUse">
<stop stop-color="#28674F"/>
<stop offset="1"/>
</linearGradient>
<linearGradient id="paint10_linear" x1="30.8348" y1="165.349" x2="43.401" y2="174.287" gradientUnits="userSpaceOnUse">
<stop stop-color="#28674F"/>
<stop offset="1"/>
</linearGradient>
<linearGradient id="paint11_linear" x1="102.405" y1="114.095" x2="114.971" y2="123.033" gradientUnits="userSpaceOnUse">
<stop stop-color="#28674F"/>
<stop offset="1"/>
</linearGradient>
<linearGradient id="paint12_linear" x1="71.3788" y1="178.271" x2="87.454" y2="191.522" gradientUnits="userSpaceOnUse">
<stop stop-color="#28674F"/>
<stop offset="1"/>
</linearGradient>
<linearGradient id="paint13_linear" x1="52.9591" y1="204.202" x2="62.0128" y2="211.378" gradientUnits="userSpaceOnUse">
<stop stop-color="#28674F"/>
<stop offset="1"/>
</linearGradient>
<linearGradient id="paint14_linear" x1="149.091" y1="155.434" x2="157.587" y2="158.519" gradientUnits="userSpaceOnUse">
<stop stop-color="#28674F"/>
<stop offset="1"/>
</linearGradient>
<linearGradient id="paint15_linear" x1="112.984" y1="156.991" x2="121.48" y2="160.075" gradientUnits="userSpaceOnUse">
<stop stop-color="#28674F"/>
<stop offset="1"/>
</linearGradient>
</defs>
</svg>
