<svg width="85" height="41" viewBox="0 0 85 41" fill="none" xmlns="http://www.w3.org/2000/svg">
<path d="M37.0008 9.96393C37.0615 10.0247 37.1576 10.0247 37.2184 9.96393L40.3533 6.80354C40.4141 6.74277 40.4141 6.64474 40.3533 6.58396L33.8659 0.0455824C33.8051 -0.0151941 33.709 -0.0151941 33.6483 0.0455824L30.5134 3.20596C30.4526 3.26674 30.4526 3.36477 30.5134 3.42554L37.0008 9.96393Z" fill="url(#paint0_linear)"/>
<path d="M53.7579 3.2084L50.623 0.049977C50.5623 -0.0107996 50.4662 -0.0107996 50.4054 0.049977L30.5158 20.1023C30.455 20.1631 30.455 20.2611 30.5158 20.3219L33.6487 23.4823C33.7095 23.5431 33.8056 23.5431 33.8664 23.4823L53.7579 3.42798C53.8168 3.3672 53.8168 3.26917 53.7579 3.2084Z" fill="url(#paint1_linear)"/>
<path d="M47.2738 13.5644C47.2131 13.5036 47.117 13.5036 47.0562 13.5644L43.9213 16.7248C43.8605 16.7855 43.8605 16.8836 43.9213 16.9443L50.4087 23.4847C50.4695 23.5455 50.5656 23.5455 50.6263 23.4847L53.7612 20.3243C53.822 20.2635 53.822 20.1655 53.7612 20.1047L47.2738 13.5644Z" fill="url(#paint2_linear)"/>
<path d="M84.205 0.517956C84.1737 0.486587 84.1364 0.4611 84.0952 0.443456C84.0541 0.425811 84.0109 0.417969 83.9658 0.417969H69.4402C69.3951 0.417969 69.352 0.425811 69.3108 0.443456C69.2697 0.4611 69.2324 0.486587 69.2011 0.517956C69.1697 0.549325 69.1442 0.586575 69.1285 0.627746C69.1109 0.668917 69.103 0.714009 69.103 0.759102V22.77C69.103 22.8151 69.1109 22.8583 69.1285 22.8994C69.1462 22.9406 69.1697 22.9778 69.2011 23.0092C69.2324 23.0406 69.2697 23.0661 69.3108 23.0837C69.352 23.1014 69.3951 23.1092 69.4402 23.1092H83.9658C84.0109 23.1092 84.0541 23.0994 84.0952 23.0837C84.1364 23.0661 84.1737 23.0406 84.205 23.0092C84.2364 22.9778 84.2619 22.9406 84.2776 22.8994C84.2932 22.8583 84.3031 22.8132 84.3031 22.77V18.9137C84.3031 18.8686 84.2952 18.8254 84.2776 18.7823C84.2599 18.7392 84.2364 18.7039 84.205 18.6725C84.1737 18.6411 84.1364 18.6157 84.0952 18.598C84.0541 18.5804 84.0109 18.5725 83.9658 18.5725H74.169V14.0339H83.9658C84.0109 14.0339 84.0541 14.026 84.0952 14.0084C84.1364 13.9908 84.1737 13.9653 84.205 13.9339C84.2364 13.9025 84.2619 13.8653 84.2776 13.8241C84.2932 13.7829 84.3031 13.7378 84.3031 13.6927V9.83638C84.3031 9.79128 84.2952 9.74815 84.2776 9.70502C84.2599 9.66189 84.2364 9.6266 84.205 9.59523C84.1737 9.56386 84.1364 9.53838 84.0952 9.52073C84.0541 9.50309 84.0109 9.49524 83.9658 9.49524H74.169V4.95661H83.9658C84.0109 4.95661 84.0541 4.94876 84.0952 4.93112C84.1364 4.91348 84.1737 4.88799 84.205 4.85662C84.2364 4.82525 84.2619 4.788 84.2776 4.74683C84.2952 4.70566 84.3031 4.66057 84.3031 4.61547V0.759102C84.3031 0.714009 84.2952 0.670878 84.2776 0.627746C84.2599 0.584614 84.2364 0.549325 84.205 0.517956Z" fill="url(#paint3_linear)"/>
<path d="M14.8648 0.417969H0.337212C0.29212 0.417969 0.248988 0.425811 0.207817 0.443456C0.166645 0.4611 0.129395 0.484627 0.0980267 0.517956C0.0686187 0.547364 0.0431318 0.584614 0.0254869 0.627746C0.00784214 0.670878 0 0.712049 0 0.757141V4.61547C0 4.70566 0.0352896 4.79192 0.0980267 4.85662C0.160764 4.92132 0.247027 4.95661 0.337212 4.95661H10.136V14.2633C10.136 14.3084 10.1438 14.3515 10.1615 14.3927C10.1791 14.4338 10.2026 14.4711 10.234 14.5024C10.2654 14.5338 10.3026 14.5593 10.3438 14.5769C10.385 14.5946 10.4281 14.6024 10.4732 14.6024H14.8648C14.955 14.6024 15.0412 14.5671 15.104 14.5024C15.1667 14.4378 15.202 14.3515 15.202 14.2613V0.757141C15.202 0.666957 15.1667 0.580693 15.102 0.515995C15.0373 0.451298 14.955 0.417969 14.8648 0.417969Z" fill="url(#paint4_linear)"/>
<path d="M4.91506 9.49463H0.152922C0.0686187 9.49463 0 9.56325 0 9.64951V22.9557C0 23.0419 0.0686187 23.1105 0.152922 23.1105H4.9131C4.9974 23.1105 5.06602 23.0419 5.06602 22.9557V9.64951C5.06798 9.56325 4.99936 9.49463 4.91506 9.49463Z" fill="url(#paint5_linear)"/>
<path d="M25.1853 0.416504H20.4251C20.3408 0.416504 20.2722 0.485123 20.2722 0.571386V22.9548C20.2722 23.0411 20.3408 23.1097 20.4251 23.1097H25.1853C25.2696 23.1097 25.3382 23.0411 25.3382 22.9548V0.571386C25.3382 0.487083 25.2696 0.416504 25.1853 0.416504Z" fill="url(#paint6_linear)"/>
<path d="M63.8799 0.416504H59.1197C59.0354 0.416504 58.9668 0.485123 58.9668 0.571386V22.9548C58.9668 23.0411 59.0354 23.1097 59.1197 23.1097H63.8799C63.9642 23.1097 64.0328 23.0411 64.0328 22.9548V0.571386C64.0328 0.487083 63.9642 0.416504 63.8799 0.416504Z" fill="url(#paint7_linear)"/>
<path d="M63.2737 31.0659H55.5438C55.5161 31.0659 55.4896 31.0707 55.4643 31.0816C55.4389 31.0924 55.416 31.1069 55.3967 31.1274C55.3774 31.1467 55.3617 31.1696 55.3521 31.1949C55.3425 31.2203 55.3364 31.248 55.3364 31.2745V32.8036C55.3364 32.8591 55.3581 32.9122 55.3967 32.952C55.4353 32.9918 55.4884 33.0135 55.5438 33.0135H61.208V35.0575H55.5438C55.5161 35.0575 55.4896 35.0623 55.4643 35.0731C55.4389 35.084 55.416 35.0985 55.3967 35.119C55.3774 35.1383 55.3617 35.1612 55.3521 35.1865C55.3425 35.2118 55.3364 35.2396 55.3364 35.2661V35.8485V36.7952V39.2601V39.9607V40.7879C55.3364 40.8434 55.3581 40.8965 55.3967 40.9363C55.4353 40.9761 55.4884 40.9978 55.5438 40.9978H62.1209L62.1221 40.9954H63.2725C63.328 40.9954 63.381 40.9736 63.4196 40.9339C63.4582 40.8941 63.4799 40.841 63.4799 40.7855V31.2757C63.4799 31.2203 63.4582 31.1672 63.4184 31.1274C63.3786 31.0876 63.3292 31.0659 63.2737 31.0659ZM61.2092 39.0526H57.6096V37.0062H61.2092V39.0526Z" fill="url(#paint8_linear)"/>
<path d="M52.9761 27.0393H50.8995C50.8476 27.0393 50.8054 27.0815 50.8054 27.1346V40.9024C50.8054 40.9555 50.8476 40.9977 50.8995 40.9977H52.9761C53.0279 40.9977 53.0701 40.9555 53.0701 40.9024V27.1346C53.0701 27.0815 53.0279 27.0393 52.9761 27.0393Z" fill="url(#paint9_linear)"/>
<path d="M84.0957 33.014C84.1512 33.014 84.2042 32.9923 84.2428 32.9525C84.2814 32.9127 84.3031 32.8596 84.3031 32.8041V31.2762C84.3031 31.2485 84.2983 31.222 84.2875 31.1967C84.2766 31.1713 84.2621 31.1484 84.2428 31.1291C84.2235 31.1098 84.2006 31.0942 84.1753 31.0833C84.15 31.0725 84.1234 31.0676 84.0957 31.0676H76.3659C76.3104 31.0676 76.2585 31.0893 76.2187 31.1291C76.1801 31.1689 76.1572 31.222 76.1572 31.2775V36.7981C76.1572 36.8536 76.1789 36.9066 76.2175 36.9464C76.2561 36.9862 76.3092 37.0079 76.3646 37.0079H77.1268H78.2217H82.0288V39.0519H76.3646C76.3092 39.0519 76.2561 39.0736 76.2175 39.1134C76.1789 39.1532 76.1572 39.2063 76.1572 39.2618V40.7909C76.1572 40.8186 76.1621 40.8451 76.1729 40.8704C76.1838 40.8958 76.1982 40.9187 76.2175 40.938C76.2368 40.9573 76.2597 40.9729 76.2851 40.9838C76.3104 40.9946 76.3369 40.9995 76.3646 40.9995H84.0945C84.15 40.9995 84.2018 40.9778 84.2416 40.938C84.2802 40.8982 84.3031 40.8451 84.3031 40.7896V36.7969V35.269C84.3031 35.2413 84.2983 35.2147 84.2875 35.1894C84.2766 35.1641 84.2621 35.1412 84.2428 35.1219C84.2235 35.1026 84.2006 35.0869 84.1753 35.0761C84.15 35.0652 84.1234 35.0604 84.0957 35.0604H82.2386H78.4316V33.014H84.0957Z" fill="url(#paint10_linear)"/>
<path d="M73.831 31.1773C73.8117 31.158 73.7888 31.1423 73.7635 31.1315C73.7381 31.1206 73.7116 31.1158 73.6839 31.1158H68.0197V27.2516C68.0197 27.2239 68.0149 27.1973 68.0041 27.172C67.9932 27.1467 67.9787 27.1238 67.9594 27.1045C67.9401 27.0852 67.9172 27.0695 67.8919 27.0586C67.8666 27.0478 67.8401 27.043 67.8123 27.043H65.9552C65.8998 27.043 65.8467 27.0647 65.8081 27.1045C65.7695 27.1443 65.7478 27.1973 65.7478 27.2528V40.7903C65.7478 40.8458 65.7695 40.8988 65.8093 40.9386C65.8479 40.9784 65.901 41.0001 65.9564 41.0001H73.6863C73.714 41.0001 73.7406 40.9953 73.7659 40.9845C73.7912 40.9736 73.8141 40.9591 73.8334 40.9386C73.8527 40.9193 73.8684 40.8964 73.878 40.8711C73.8889 40.8458 73.8937 40.818 73.8937 40.7915V39.9655V39.2624V32.8535V32.4905V31.3244C73.8937 31.2967 73.8889 31.2702 73.878 31.2448C73.8672 31.2195 73.8503 31.1966 73.831 31.1773ZM71.6194 39.0502H68.0197V33.0633H71.6194V39.0502Z" fill="url(#paint11_linear)"/>
<defs>
<linearGradient id="paint0_linear" x1="35.7785" y1="17.5063" x2="27.5153" y2="15.6707" gradientUnits="userSpaceOnUse">
<stop stop-color="#00DBA6"/>
<stop offset="1" stop-color="#24B2FF"/>
</linearGradient>
<linearGradient id="paint1_linear" x1="42.9471" y1="41.1461" x2="23.5331" y2="36.8349" gradientUnits="userSpaceOnUse">
<stop stop-color="#00DBA6"/>
<stop offset="1" stop-color="#24B2FF"/>
</linearGradient>
<linearGradient id="paint2_linear" x1="49.1865" y1="31.0285" x2="40.9231" y2="29.1933" gradientUnits="userSpaceOnUse">
<stop stop-color="#00DBA6"/>
<stop offset="1" stop-color="#24B2FF"/>
</linearGradient>
<linearGradient id="paint3_linear" x1="77.2313" y1="40.1041" x2="64.2519" y2="38.1575" gradientUnits="userSpaceOnUse">
<stop stop-color="#00DBA6"/>
<stop offset="1" stop-color="#24B2FF"/>
</linearGradient>
<linearGradient id="paint4_linear" x1="8.12937" y1="25.2261" x2="-4.42108" y2="22.2146" gradientUnits="userSpaceOnUse">
<stop stop-color="#00DBA6"/>
<stop offset="1" stop-color="#24B2FF"/>
</linearGradient>
<linearGradient id="paint5_linear" x1="2.70911" y1="33.3084" x2="-1.68366" y2="32.9425" gradientUnits="userSpaceOnUse">
<stop stop-color="#00DBA6"/>
<stop offset="1" stop-color="#24B2FF"/>
</linearGradient>
<linearGradient id="paint6_linear" x1="22.9813" y1="40.1061" x2="18.5691" y2="39.8856" gradientUnits="userSpaceOnUse">
<stop stop-color="#00DBA6"/>
<stop offset="1" stop-color="#24B2FF"/>
</linearGradient>
<linearGradient id="paint7_linear" x1="61.6759" y1="40.1061" x2="57.2637" y2="39.8856" gradientUnits="userSpaceOnUse">
<stop stop-color="#00DBA6"/>
<stop offset="1" stop-color="#24B2FF"/>
</linearGradient>
<linearGradient id="paint8_linear" x1="59.6912" y1="48.4364" x2="52.8128" y2="47.1737" gradientUnits="userSpaceOnUse">
<stop stop-color="#00DBA6"/>
<stop offset="1" stop-color="#24B2FF"/>
</linearGradient>
<linearGradient id="paint9_linear" x1="52.0165" y1="51.452" x2="50.0417" y2="51.3803" gradientUnits="userSpaceOnUse">
<stop stop-color="#00DBA6"/>
<stop offset="1" stop-color="#24B2FF"/>
</linearGradient>
<linearGradient id="paint10_linear" x1="80.5133" y1="48.4381" x2="73.633" y2="47.1746" gradientUnits="userSpaceOnUse">
<stop stop-color="#00DBA6"/>
<stop offset="1" stop-color="#24B2FF"/>
</linearGradient>
<linearGradient id="paint11_linear" x1="70.1039" y1="51.4536" x2="63.111" y2="50.5398" gradientUnits="userSpaceOnUse">
<stop stop-color="#00DBA6"/>
<stop offset="1" stop-color="#24B2FF"/>
</linearGradient>
</defs>
</svg>
