<svg width="39" height="38" viewBox="0 0 39 38" fill="none" xmlns="http://www.w3.org/2000/svg">
<path d="M22.5 26H10.5C7.73858 26 5.5 23.7614 5.5 21V9C5.5 6.23858 7.73858 4 10.5 4H28.5C31.2614 4 33.5 6.23858 33.5 9V13.4286" stroke="#12D6D6" stroke-width="3" stroke-linecap="round" stroke-linejoin="round"/>
<path d="M5.5 32H33.5" stroke="#12D6D6" stroke-width="3" stroke-linecap="round" stroke-linejoin="round"/>
<path opacity="0.4" d="M24.2224 12.6682C24.0066 12.2269 24.0421 11.6829 24.3894 11.3356L24.4875 11.2375C24.8258 10.8992 24.8258 10.3508 24.4875 10.0125C24.1492 9.67423 23.6008 9.67423 23.2625 10.0125L23.1644 10.1106C22.8171 10.4579 22.2731 10.4934 21.8318 10.2776C21.6352 10.1815 21.4301 10.0967 21.2203 10.0269C20.7515 9.87095 20.375 9.46371 20.375 8.96963V8.875C20.375 8.39175 19.9832 8 19.5 8C19.0168 8 18.625 8.39175 18.625 8.875V9.0196C18.625 9.49749 18.2903 9.90304 17.8349 10.0478C17.6003 10.1224 17.3712 10.2079 17.1526 10.3068C16.7233 10.5011 16.1971 10.4549 15.8756 10.1104L15.8567 10.0902C15.5045 9.71291 14.9098 9.70266 14.5449 10.0676C14.1887 10.4238 14.1887 11.0012 14.5449 11.3574L14.586 11.3985C14.9408 11.7533 14.9576 12.3195 14.7376 12.7705C14.6584 12.9329 14.5878 13.1038 14.5282 13.28C14.3697 13.748 13.9637 14.125 13.4696 14.125H13.375C12.8918 14.125 12.5 14.5168 12.5 15C12.5 15.4832 12.8918 15.875 13.375 15.875H13.5196C13.9975 15.875 14.403 16.2097 14.5478 16.6651C14.6195 16.8907 14.7013 17.1111 14.7954 17.3221C14.9956 17.7707 14.9579 18.3171 14.6106 18.6644L14.5125 18.7625C14.1742 19.1008 14.1742 19.6492 14.5125 19.9875C14.8508 20.3258 15.3992 20.3258 15.7375 19.9875L15.8356 19.8894C16.1829 19.5421 16.7269 19.5066 17.1682 19.7224C17.3648 19.8185 17.5699 19.9033 17.7797 19.9731C18.2485 20.1291 18.625 20.5363 18.625 21.0304V21.125C18.625 21.6082 19.0168 22 19.5 22C19.9832 22 20.375 21.6082 20.375 21.125V20.9804C20.375 20.5025 20.7097 20.097 21.1651 19.9522C21.3907 19.8805 21.6111 19.7987 21.8221 19.7046C22.2707 19.5044 22.8171 19.5421 23.1644 19.8894L23.2625 19.9875C23.6008 20.3258 24.1492 20.3258 24.4875 19.9875C24.8258 19.6492 24.8258 19.1008 24.4875 18.7625L24.3894 18.6644C24.0421 18.3171 24.0066 17.7731 24.2224 17.3318C24.3185 17.1352 24.4033 16.9301 24.4731 16.7203C24.6291 16.2515 25.0363 15.875 25.5304 15.875H25.625C26.1082 15.875 26.5 15.4832 26.5 15C26.5 14.5168 26.1082 14.125 25.625 14.125H25.5304C25.0363 14.125 24.6291 13.7485 24.4731 13.2797C24.4033 13.0699 24.3185 12.8648 24.2224 12.6682ZM19.5 17.625C18.0125 17.625 16.875 16.4875 16.875 15C16.875 13.5125 18.0125 12.375 19.5 12.375C20.9875 12.375 22.125 13.5125 22.125 15C22.125 16.4875 20.9875 17.625 19.5 17.625Z" fill="#3EF3F3"/>
<path opacity="0.4" d="M33.8731 20.3344C33.719 20.0192 33.7443 19.6307 33.9925 19.3825L34.0625 19.3125C34.3041 19.0709 34.3041 18.6791 34.0625 18.4375C33.8209 18.1959 33.4291 18.1959 33.1875 18.4375L33.1175 18.5075C32.8693 18.7557 32.4808 18.781 32.1656 18.6269C32.0251 18.5582 31.8787 18.4976 31.7288 18.4478C31.3939 18.3364 31.125 18.0455 31.125 17.6926V17.625C31.125 17.2798 30.8452 17 30.5 17C30.1548 17 29.875 17.2798 29.875 17.625V17.7283C29.875 18.0696 29.6359 18.3593 29.3106 18.4627C29.1431 18.516 28.9794 18.577 28.8233 18.6477C28.5167 18.7865 28.1408 18.7535 27.9111 18.5075L27.8976 18.493C27.6461 18.2235 27.2213 18.2162 26.9607 18.4768C26.7062 18.7313 26.7062 19.1437 26.9607 19.3982L26.99 19.4275C27.2434 19.6809 27.2555 20.0854 27.0983 20.4075C27.0417 20.5235 26.9913 20.6456 26.9487 20.7714C26.8355 21.1057 26.5455 21.375 26.1926 21.375H26.125C25.7798 21.375 25.5 21.6548 25.5 22C25.5 22.3452 25.7798 22.625 26.125 22.625H26.2283C26.5696 22.625 26.8593 22.8641 26.9627 23.1894C27.0139 23.3505 27.0723 23.508 27.1396 23.6586C27.2826 23.979 27.2557 24.3693 27.0075 24.6175L26.9375 24.6875C26.6959 24.9291 26.6959 25.3209 26.9375 25.5625C27.1791 25.8041 27.5709 25.8041 27.8125 25.5625L27.8825 25.4925C28.1307 25.2443 28.5192 25.219 28.8344 25.3731C28.9749 25.4418 29.1213 25.5024 29.2712 25.5522C29.6061 25.6636 29.875 25.9545 29.875 26.3074V26.375C29.875 26.7202 30.1548 27 30.5 27C30.8452 27 31.125 26.7202 31.125 26.375V26.2717C31.125 25.9304 31.3641 25.6407 31.6894 25.5373C31.8505 25.4861 32.008 25.4277 32.1586 25.3604C32.479 25.2174 32.8693 25.2443 33.1175 25.4925L33.1875 25.5625C33.4291 25.8041 33.8209 25.8041 34.0625 25.5625C34.3041 25.3209 34.3041 24.9291 34.0625 24.6875L33.9925 24.6175C33.7443 24.3693 33.719 23.9808 33.8731 23.6656C33.9418 23.5251 34.0024 23.3787 34.0522 23.2288C34.1636 22.8939 34.4545 22.625 34.8074 22.625H34.875C35.2202 22.625 35.5 22.3452 35.5 22C35.5 21.6548 35.2202 21.375 34.875 21.375H34.8074C34.4545 21.375 34.1636 21.1061 34.0522 20.7712C34.0024 20.6213 33.9418 20.4749 33.8731 20.3344ZM30.5 23.875C29.4375 23.875 28.625 23.0625 28.625 22C28.625 20.9375 29.4375 20.125 30.5 20.125C31.5625 20.125 32.375 20.9375 32.375 22C32.375 23.0625 31.5625 23.875 30.5 23.875Z" fill="#3EF3F3"/>
</svg>
