<svg width="63" height="52" viewBox="0 0 63 52" fill="none" xmlns="http://www.w3.org/2000/svg">
<circle opacity="0.2" cx="18.8889" cy="23.8889" r="18.8889" fill="#3EF3F3"/>
<path fill-rule="evenodd" clip-rule="evenodd" d="M45.6247 8.33053C46.057 8.62866 46.3152 9.12027 46.3152 9.64545V37.5628C46.3152 38.096 46.0492 38.594 45.606 38.8904C45.1629 39.1868 44.601 39.2426 44.1082 39.0391L29.6479 33.0666C28.8326 32.7298 28.4446 31.7959 28.7814 30.9806C29.1181 30.1652 30.052 29.7773 30.8674 30.114L43.1207 35.175V11.9618L18.0133 21.5111V24.9687L24.1488 27.7387C24.721 27.9971 25.0888 28.5666 25.0888 29.1945V37.5628C25.0888 38.4449 24.3737 39.16 23.4915 39.16C22.6094 39.16 21.8943 38.4449 21.8943 37.5628V30.2258L15.7588 27.4557C15.1866 27.1974 14.8188 26.6278 14.8188 26V20.4097C14.8188 19.7467 15.2285 19.1526 15.8483 18.9168L44.1502 8.15256C44.641 7.96586 45.1923 8.0324 45.6247 8.33053ZM50.6598 16.486C50.6598 15.6039 51.3749 14.8888 52.257 14.8888C57.283 14.8888 61.3574 18.9632 61.3574 23.9891C61.3574 29.0151 57.283 33.0895 52.257 33.0895C51.3749 33.0895 50.6598 32.3744 50.6598 31.4923C50.6598 30.6102 51.3749 29.8951 52.257 29.8951C55.5188 29.8951 58.1629 27.2509 58.1629 23.9891C58.1629 20.7274 55.5188 18.0832 52.257 18.0832C51.3749 18.0832 50.6598 17.3681 50.6598 16.486ZM51.0834 25.8349C52.1664 26.4601 53.5512 26.0891 54.1764 25.0061C54.8017 23.9232 54.4306 22.5384 53.3476 21.9132C52.2647 21.2879 50.8799 21.659 50.2547 22.7419C49.6294 23.8249 50.0005 25.2097 51.0834 25.8349Z" fill="#12D6D6"/>
</svg>
