<svg width="96" height="103" viewBox="0 0 96 103" fill="none" xmlns="http://www.w3.org/2000/svg">
<path d="M94.4324 57.9531C95.0327 55.8447 95.3557 53.6059 95.3557 51.286C95.3557 49.8251 95.2276 48.3964 94.9829 47.0122H1.05495C0.810204 48.3964 0.682129 49.8251 0.682129 51.286C0.682129 53.6059 1.00513 55.8447 1.6054 57.9531H94.4324Z" fill="url(#paint0_linear)"/>
<path d="M91.4286 63.7883C92.7163 59.2904 93.4092 54.5143 93.4092 49.5652C93.4092 46.4486 93.1344 43.4008 92.6094 40.4478H3.52681C3.00179 43.4008 2.72705 46.4486 2.72705 49.5652C2.72705 54.5143 3.41994 59.2904 4.70761 63.7883H91.4286Z" fill="url(#paint1_linear)"/>
<ellipse cx="47.9051" cy="49.5652" rx="41.932" ry="44.8577" fill="url(#paint2_linear)"/>
<path d="M48.7788 87.9237C87.2066 87.1205 94.8293 39.7765 71.1727 26.7601C63.4642 22.5187 58.4658 24.4936 54.05 26.2383C52.0741 27.0189 50.2149 27.7535 48.2817 27.8645C46.3485 27.7535 44.4893 27.0189 42.5134 26.2383C38.0976 24.4936 33.0992 22.5187 25.3907 26.7601C1.73406 39.7765 9.35681 87.1205 47.7846 87.9237V87.9341C47.9508 87.9341 48.1166 87.9332 48.2817 87.9315C48.4468 87.9332 48.6126 87.9341 48.7788 87.9341V87.9237Z" fill="url(#paint3_linear)"/>
<circle opacity="0.4" cx="73.1688" cy="67.5267" r="3.48422" fill="url(#paint4_linear)"/>
<path d="M67.6934 35.1733C72.6708 37.828 79.3406 44.8296 76.155 57.5719" stroke="url(#paint5_linear)" stroke-width="7.96392" stroke-linecap="round" stroke-linejoin="round"/>
<path opacity="0.2" d="M24.8872 11.5928C31.4724 6.98916 39.3418 4.31299 47.7955 4.31299C56.2492 4.31299 64.1186 6.98916 70.7038 11.5928C65.5608 14.6954 57.2157 16.7127 47.7955 16.7127C38.3753 16.7127 30.0302 14.6954 24.8872 11.5928Z" fill="url(#paint6_linear)"/>
<path opacity="0.2" d="M25.1611 11.9873C31.7463 7.38369 39.6157 4.70752 48.0694 4.70752V17.1072C38.6492 17.1072 30.3041 15.0899 25.1611 11.9873Z" fill="url(#paint7_linear)"/>
<ellipse cx="79.4319" cy="75.8236" rx="1.02273" ry="1.09409" fill="url(#paint8_radial)"/>
<ellipse cx="81.4778" cy="72.1766" rx="1.02273" ry="1.09409" fill="url(#paint9_radial)"/>
<ellipse cx="83.5227" cy="67.8001" rx="1.02273" ry="1.09409" fill="url(#paint10_radial)"/>
<path opacity="0.4" fill-rule="evenodd" clip-rule="evenodd" d="M39.4004 93.4633C28.0194 90.9045 18.3372 83.4085 12.4023 73.1666C12.4308 73.1769 12.4605 73.1876 12.4914 73.1987C12.9214 73.3531 13.5798 73.5824 14.4422 73.862C16.1683 74.4215 18.703 75.1795 21.852 75.9407C28.1732 77.4686 36.849 78.98 46.3646 78.98C55.8802 78.98 64.5561 77.4686 70.8773 75.9407C74.0263 75.1795 76.5609 74.4215 78.2871 73.862C79.1495 73.5824 79.8079 73.3531 80.2379 73.1987C80.4528 73.1215 80.6105 73.063 80.7079 73.0265C80.7566 73.0082 80.7902 72.9954 80.8083 72.9885L80.8157 72.9857L80.818 72.9848L80.8199 72.984L80.8227 72.9829C81.8932 72.5661 82.9976 72.4539 84.0535 72.6052C78.4696 82.5645 69.3755 90.0138 58.6008 92.9957C54.7607 93.425 50.6478 93.6934 46.3646 93.6934C43.9848 93.6934 41.6575 93.6106 39.4004 93.4633Z" fill="black"/>
<path opacity="0.2" fill-rule="evenodd" clip-rule="evenodd" d="M9.80176 31.2004C11.4795 27.2056 13.6877 23.5211 16.3306 20.2495L19.4335 26.2244L13.638 32.789L9.80176 31.2004Z" fill="url(#paint11_linear)"/>
<path d="M78.7505 27.0527C78.7505 27.0527 83.1823 30.6997 84.8869 37.9936" stroke="url(#paint12_linear)" stroke-width="2.98647" stroke-dasharray="1 1.99"/>
<ellipse opacity="0.3" cx="14.658" cy="27.6834" rx="1.02273" ry="1.09409" fill="url(#paint13_linear)"/>
<mask id="mask0" mask-type="alpha" maskUnits="userSpaceOnUse" x="12" y="80" width="71" height="18">
<path fill-rule="evenodd" clip-rule="evenodd" d="M20.2732 80.9164L20.2695 80.915L20.281 80.9194C20.2954 80.9249 20.3221 80.935 20.3609 80.9495C20.4385 80.9785 20.5642 81.0249 20.7355 81.0861C21.0782 81.2086 21.6029 81.3905 22.2901 81.6122C23.6657 82.056 25.6856 82.6572 28.1951 83.261C33.2325 84.4729 40.1464 85.6716 47.7294 85.6716C55.3125 85.6716 62.2263 84.4729 67.2638 83.261C69.7732 82.6572 71.7931 82.056 73.1687 81.6122C73.8559 81.3905 74.3806 81.2086 74.7233 81.0861C74.8946 81.0249 75.0203 80.9785 75.0979 80.9495C75.1367 80.935 75.1634 80.9249 75.1779 80.9194L75.1838 80.9171L75.1856 80.9164L75.1872 80.9158L75.1893 80.915C78.0189 79.8183 81.1452 81.3805 82.1739 84.4071C83.2028 87.4343 81.7441 90.7806 78.9156 91.8834C78.9156 91.8834 78.9095 91.8858 78.9095 91.8858L78.9012 91.8889L78.886 91.8948L78.8412 91.912C78.805 91.9258 78.7561 91.9443 78.6948 91.9672C78.5722 92.013 78.4 92.0764 78.1808 92.1548C77.7424 92.3115 77.1151 92.5285 76.3187 92.7854C74.7272 93.2989 72.4535 93.9742 69.6574 94.6469C64.0837 95.9878 56.3384 97.3419 47.7294 97.3419C39.1204 97.3419 31.3751 95.9878 25.8015 94.6469C23.0054 93.9742 20.7317 93.2989 19.1401 92.7854C18.3437 92.5285 17.7164 92.3115 17.278 92.1548C17.0588 92.0764 16.8866 92.013 16.7641 91.9672C16.7028 91.9443 16.6538 91.9258 16.6176 91.912L16.5728 91.8948L16.5576 91.8889L16.5494 91.8858C16.5494 91.8858 16.5448 91.884 16.5448 91.884C13.7153 90.7818 12.2558 87.4349 13.2849 84.4071C14.3136 81.3806 17.44 79.8184 20.2695 80.915" fill="url(#paint14_linear)"/>
</mask>
<g mask="url(#mask0)">
<path fill-rule="evenodd" clip-rule="evenodd" d="M20.2732 80.9164L20.2695 80.915L20.281 80.9194C20.2954 80.9249 20.3221 80.935 20.3609 80.9495C20.4385 80.9785 20.5642 81.0249 20.7355 81.0861C21.0782 81.2086 21.6029 81.3905 22.2901 81.6122C23.6657 82.056 25.6856 82.6572 28.1951 83.261C33.2325 84.4729 40.1464 85.6716 47.7294 85.6716C55.3125 85.6716 62.2263 84.4729 67.2638 83.261C69.7732 82.6572 71.7931 82.056 73.1687 81.6122C73.8559 81.3905 74.3806 81.2086 74.7233 81.0861C74.8946 81.0249 75.0203 80.9785 75.0979 80.9495C75.1367 80.935 75.1634 80.9249 75.1779 80.9194L75.1838 80.9171L75.1856 80.9164L75.1872 80.9158L75.1893 80.915C78.0189 79.8183 81.1452 81.3805 82.1739 84.4071C83.2033 87.4357 81.7427 90.7837 78.9116 91.8849C78.9116 91.8849 78.9147 91.8837 78.9095 91.8858L78.9012 91.8889L78.886 91.8948L78.8412 91.912C78.805 91.9258 78.7561 91.9443 78.6948 91.9672C78.5722 92.013 78.4 92.0764 78.1808 92.1548C77.7424 92.3115 77.1151 92.5285 76.3187 92.7854C74.7272 93.2989 72.4535 93.9742 69.6574 94.6469C64.0837 95.9878 56.3384 97.3419 47.7294 97.3419C39.1204 97.3419 31.3751 95.9878 25.8015 94.6469C23.0054 93.9742 20.7317 93.2989 19.1401 92.7854C18.3437 92.5285 17.7164 92.3115 17.278 92.1548C17.0588 92.0764 16.8866 92.013 16.7641 91.9672C16.7028 91.9443 16.6538 91.9258 16.6176 91.912L16.5728 91.8948L16.5576 91.8889L16.5494 91.8858C16.5464 91.8846 16.5472 91.8849 16.5472 91.8849C13.7161 90.7837 12.2555 87.4357 13.2849 84.4071C14.3136 81.3806 17.44 79.8184 20.2695 80.915" fill="url(#paint15_linear)"/>
<path d="M83.8638 84.2114C83.8638 84.2114 67.6849 90.776 47.7273 90.776C27.7697 90.776 11.5908 84.2114 11.5908 84.2114" stroke="url(#paint16_linear)" stroke-width="17.9188" stroke-dasharray="1 3.98"/>
<path opacity="0.4" fill-rule="evenodd" clip-rule="evenodd" d="M13.273 83.4008L13.2683 83.399L13.2827 83.4045C13.3008 83.4114 13.3344 83.4242 13.3831 83.4425C13.4804 83.4791 13.6381 83.5375 13.8531 83.6147C14.2831 83.7691 14.9415 83.9985 15.8039 84.278C17.5301 84.8376 20.0647 85.5955 23.2137 86.3567C29.5349 87.8846 38.2108 89.396 47.7264 89.396C57.2419 89.396 65.9178 87.8846 72.239 86.3567C75.388 85.5955 77.9226 84.8376 79.6488 84.278C80.5112 83.9985 81.1696 83.7691 81.5996 83.6147C81.8146 83.5375 81.9723 83.4791 82.0696 83.4425C82.1183 83.4242 82.1519 83.4114 82.17 83.4045L82.1774 83.4017L82.1797 83.4008L82.1817 83.4L82.1844 83.399C85.7351 82.0163 89.6581 83.9859 90.949 87.8017C92.2407 91.6201 90.4079 95.8411 86.8553 97.2294C86.8553 97.2294 86.8592 97.2279 86.8526 97.2305L86.8423 97.2345L86.8232 97.2419L86.767 97.2636C86.7215 97.281 86.6601 97.3043 86.5832 97.3332C86.4294 97.391 86.2133 97.4708 85.9382 97.5696C85.3881 97.7672 84.6009 98.0408 83.6016 98.3647C81.6044 99.0121 78.7513 99.8635 75.2426 100.712C68.2485 102.402 58.5293 104.109 47.7264 104.109C36.9234 104.109 27.2042 102.402 20.2101 100.712C16.7014 99.8635 13.8483 99.0121 11.8511 98.3647C10.8518 98.0408 10.0646 97.7672 9.5145 97.5696C9.23938 97.4708 9.02336 97.391 8.86953 97.3332C8.79261 97.3043 8.73121 97.281 8.68574 97.2636L8.62951 97.2419L8.61044 97.2345L8.60011 97.2305C8.59637 97.229 8.59743 97.2294 8.59743 97.2294C5.04479 95.8411 3.21198 91.6201 4.50373 87.8017C5.79455 83.986 9.71768 82.0164 13.2683 83.399" fill="black"/>
<path opacity="0.4" fill-rule="evenodd" clip-rule="evenodd" d="M13.273 88.3783L13.2683 88.3765L13.2827 88.382C13.3008 88.389 13.3344 88.4018 13.3831 88.4201C13.4804 88.4566 13.6381 88.515 13.8531 88.5922C14.2831 88.7467 14.9415 88.976 15.8039 89.2555C17.5301 89.8151 20.0647 90.573 23.2137 91.3342C29.5349 92.8622 38.2108 94.3735 47.7264 94.3735C57.2419 94.3735 65.9178 92.8622 72.239 91.3342C75.388 90.573 77.9226 89.8151 79.6488 89.2555C80.5112 88.976 81.1696 88.7467 81.5996 88.5922C81.8146 88.515 81.9723 88.4566 82.0696 88.4201C82.1183 88.4018 82.1519 88.389 82.17 88.382L82.1774 88.3792L82.1797 88.3783L82.1817 88.3776L82.1844 88.3765C85.7351 86.9938 89.6581 88.9635 90.949 92.7792C92.2407 96.5976 90.4079 100.819 86.8553 102.207C86.8553 102.207 86.8592 102.205 86.8526 102.208L86.8423 102.212L86.8232 102.219L86.767 102.241C86.7215 102.259 86.6601 102.282 86.5832 102.311C86.4294 102.368 86.2133 102.448 85.9382 102.547C85.3881 102.745 84.6009 103.018 83.6016 103.342C81.6044 103.99 78.7513 104.841 75.2426 105.689C68.2485 107.38 58.5293 109.087 47.7264 109.087C36.9234 109.087 27.2042 107.38 20.2101 105.689C16.7014 104.841 13.8483 103.99 11.8511 103.342C10.8518 103.018 10.0646 102.745 9.5145 102.547C9.23938 102.448 9.02336 102.368 8.86953 102.311C8.79261 102.282 8.73121 102.259 8.68574 102.241L8.62951 102.219L8.61044 102.212L8.60011 102.208C8.59637 102.207 8.59743 102.207 8.59743 102.207C5.04479 100.819 3.21198 96.5976 4.50373 92.7792C5.79455 88.9635 9.71768 86.994 13.2683 88.3765" fill="black"/>
</g>
<defs>
<linearGradient id="paint0_linear" x1="84.546" y1="52.118" x2="12.4852" y2="82.5193" gradientUnits="userSpaceOnUse">
<stop stop-color="#0F6E83"/>
<stop offset="1" stop-color="#14959D"/>
</linearGradient>
<linearGradient id="paint1_linear" x1="-18.444" y1="38.7431" x2="43.5486" y2="28.9294" gradientUnits="userSpaceOnUse">
<stop stop-color="#045162"/>
<stop offset="1" stop-color="#14959D"/>
</linearGradient>
<linearGradient id="paint2_linear" x1="-13.6061" y1="-1.84479" x2="45.077" y2="-4.07991" gradientUnits="userSpaceOnUse">
<stop stop-color="#066A81"/>
<stop offset="1" stop-color="#12E2EF"/>
</linearGradient>
<linearGradient id="paint3_linear" x1="54.6254" y1="23.78" x2="-3.46329" y2="69.2267" gradientUnits="userSpaceOnUse">
<stop stop-color="#042635"/>
<stop offset="1" stop-color="#001431"/>
</linearGradient>
<linearGradient id="paint4_linear" x1="73.1688" y1="64.0425" x2="73.1688" y2="71.0109" gradientUnits="userSpaceOnUse">
<stop stop-color="white"/>
<stop offset="1" stop-color="white" stop-opacity="0"/>
</linearGradient>
<linearGradient id="paint5_linear" x1="40.8151" y1="18.7477" x2="72.339" y2="57.5719" gradientUnits="userSpaceOnUse">
<stop stop-color="white"/>
<stop offset="1" stop-color="white" stop-opacity="0"/>
</linearGradient>
<linearGradient id="paint6_linear" x1="50.8659" y1="2.84248" x2="43.0065" y2="23.9876" gradientUnits="userSpaceOnUse">
<stop stop-color="#042635"/>
<stop offset="1" stop-color="#001431"/>
</linearGradient>
<linearGradient id="paint7_linear" x1="51.1399" y1="3.23701" x2="43.2805" y2="24.3821" gradientUnits="userSpaceOnUse">
<stop stop-color="#042635"/>
<stop offset="1" stop-color="#001431"/>
</linearGradient>
<radialGradient id="paint8_radial" cx="0" cy="0" r="1" gradientUnits="userSpaceOnUse" gradientTransform="translate(77.6556 75.2095) rotate(-0.959364) scale(3.30845 3.53917)">
<stop stop-color="#F5FCFF"/>
<stop offset="1" stop-color="white"/>
</radialGradient>
<radialGradient id="paint9_radial" cx="0" cy="0" r="1" gradientUnits="userSpaceOnUse" gradientTransform="translate(79.7015 71.5625) rotate(-0.959364) scale(3.30845 3.53917)">
<stop stop-color="#F5FCFF"/>
<stop offset="1" stop-color="white"/>
</radialGradient>
<radialGradient id="paint10_radial" cx="0" cy="0" r="1" gradientUnits="userSpaceOnUse" gradientTransform="translate(81.7464 67.186) rotate(-0.959364) scale(3.30845 3.53917)">
<stop stop-color="#F5FCFF"/>
<stop offset="1" stop-color="white"/>
</radialGradient>
<linearGradient id="paint11_linear" x1="15.2631" y1="18.7624" x2="4.89463" y2="24.5613" gradientUnits="userSpaceOnUse">
<stop stop-color="#042635"/>
<stop offset="1" stop-color="#001431"/>
</linearGradient>
<linearGradient id="paint12_linear" x1="81.8187" y1="27.0527" x2="81.8187" y2="51.279" gradientUnits="userSpaceOnUse">
<stop stop-color="white"/>
<stop offset="1" stop-color="white"/>
</linearGradient>
<linearGradient id="paint13_linear" x1="14.4858" y1="26.5216" x2="16.3272" y2="27.8157" gradientUnits="userSpaceOnUse">
<stop stop-color="#042635"/>
<stop offset="1" stop-color="#001431"/>
</linearGradient>
<linearGradient id="paint14_linear" x1="52.3903" y1="78.5748" x2="42.669" y2="107.917" gradientUnits="userSpaceOnUse">
<stop stop-color="#042635"/>
<stop offset="1" stop-color="#001431"/>
</linearGradient>
<linearGradient id="paint15_linear" x1="68.0479" y1="82.4059" x2="67.79" y2="97.6807" gradientUnits="userSpaceOnUse">
<stop stop-color="#73DDFE"/>
<stop offset="1" stop-color="#A2E9FF"/>
</linearGradient>
<linearGradient id="paint16_linear" x1="47.7273" y1="84.2114" x2="47.7273" y2="98.7472" gradientUnits="userSpaceOnUse">
<stop stop-color="#032134"/>
<stop offset="1" stop-color="#194B42"/>
</linearGradient>
</defs>
</svg>
