<svg width="26" height="26" viewBox="0 0 26 26" fill="none" xmlns="http://www.w3.org/2000/svg">
<path d="M24.2561 6.88168C23.0936 4.91846 21.5168 3.36418 19.5252 2.21849C17.5332 1.07273 15.3587 0.5 12.9999 0.5C10.6414 0.5 8.4661 1.07291 6.4746 2.21849C4.4828 3.36412 2.906 4.91846 1.74351 6.88168C0.581189 8.84484 0 10.9886 0 13.313C0 16.105 0.826458 18.6157 2.47979 20.8457C4.13294 23.0759 6.26857 24.6191 8.8865 25.4754C9.19124 25.5312 9.41682 25.492 9.5635 25.3588C9.71023 25.2254 9.78351 25.0584 9.78351 24.8585C9.78351 24.8251 9.78061 24.5249 9.77497 23.9576C9.76916 23.3902 9.76644 22.8952 9.76644 22.4729L9.3771 22.5393C9.12887 22.5841 8.81571 22.6031 8.43764 22.5977C8.05975 22.5925 7.66745 22.5535 7.26127 22.4809C6.85492 22.409 6.47697 22.2422 6.12712 21.9808C5.77744 21.7194 5.52921 21.3773 5.38247 20.9549L5.21321 20.571C5.10039 20.3154 4.92276 20.0314 4.6801 19.7202C4.43744 19.4087 4.19205 19.1975 3.94382 19.0863L3.8253 19.0026C3.74633 18.9471 3.67306 18.8801 3.60529 18.8023C3.53759 18.7245 3.4869 18.6467 3.45304 18.5687C3.41913 18.4907 3.44723 18.4267 3.53764 18.3765C3.62806 18.3263 3.79145 18.3019 4.02854 18.3019L4.36695 18.3518C4.59265 18.3964 4.87184 18.5296 5.20485 18.7521C5.53769 18.9745 5.81129 19.2637 6.02573 19.6194C6.28541 20.0756 6.59827 20.4232 6.96519 20.6623C7.33182 20.9015 7.70148 21.0209 8.0738 21.0209C8.44612 21.0209 8.76769 20.9931 9.03863 20.9378C9.30928 20.8821 9.5632 20.7985 9.80029 20.6874C9.90185 19.9418 10.1784 19.3691 10.6296 18.9688C9.98645 18.9021 9.40823 18.8018 8.89462 18.6684C8.38132 18.5348 7.85088 18.318 7.30366 18.0174C6.75615 17.7172 6.30195 17.3445 5.94095 16.8998C5.5799 16.4548 5.28358 15.8707 5.05242 15.1479C4.82115 14.4248 4.70548 13.5907 4.70548 12.6453C4.70548 11.2993 5.15131 10.1538 6.04281 9.20831C5.62519 8.19631 5.66462 7.06184 6.16121 5.805C6.48847 5.70478 6.97379 5.77998 7.61693 6.03015C8.2602 6.28043 8.73117 6.49483 9.03033 6.67259C9.32949 6.8503 9.56919 7.00089 9.74978 7.12302C10.7994 6.83394 11.8827 6.68937 12.9998 6.68937C14.1168 6.68937 15.2003 6.83394 16.25 7.12302L16.8932 6.72279C17.3331 6.45574 17.8525 6.21101 18.4502 5.98854C19.0483 5.76619 19.5057 5.70495 19.8218 5.80517C20.3294 7.06207 20.3746 8.19649 19.9569 9.20848C20.8483 10.154 21.2943 11.2997 21.2943 12.6455C21.2943 13.5909 21.1783 14.4276 20.9473 15.1563C20.7161 15.885 20.4173 16.4686 20.0506 16.9081C19.6836 17.3476 19.2265 17.7175 18.6793 18.0176C18.1319 18.318 17.6013 18.5348 17.088 18.6683C16.5745 18.8019 15.9962 18.9023 15.3531 18.969C15.9397 19.4694 16.233 20.2591 16.233 21.338V24.858C16.233 25.058 16.3036 25.2249 16.4448 25.3583C16.5858 25.4915 16.8086 25.5307 17.1133 25.4749C19.7316 24.6186 21.8672 23.0754 23.5203 20.8453C25.1732 18.6153 26 16.1046 26 13.3125C25.9994 10.9884 25.4179 8.84484 24.2561 6.88168Z" fill="black"/>
</svg>
