<svg width="28" height="24" viewBox="0 0 28 24" fill="none" xmlns="http://www.w3.org/2000/svg">
<path fill-rule="evenodd" clip-rule="evenodd" d="M0.105347 1.89475C0.105347 1.19713 0.670882 0.631592 1.3685 0.631592H9.78956C11.1167 0.631592 12.4602 0.925782 13.5074 1.68364C13.6833 1.81094 13.8478 1.94925 14.0001 2.09814C14.1524 1.94925 14.3169 1.81094 14.4928 1.68364C15.5399 0.925782 16.8835 0.631592 18.2106 0.631592H26.6317C27.3293 0.631592 27.8948 1.19713 27.8948 1.89475V19.579C27.8948 20.2766 27.3293 20.8421 26.6317 20.8421H16.9475C16.3523 20.8421 15.9148 21.0075 15.654 21.2168C15.4233 21.402 15.2632 21.6693 15.2632 22.1053C15.2632 22.8029 14.6977 23.3684 14.0001 23.3684C13.3025 23.3684 12.7369 22.8029 12.7369 22.1053C12.7369 21.6693 12.5769 21.402 12.3461 21.2168C12.0854 21.0075 11.6479 20.8421 11.0527 20.8421H1.3685C0.670882 20.8421 0.105347 20.2766 0.105347 19.579V1.89475ZM12.7369 18.5922C12.2011 18.4034 11.6264 18.3158 11.0527 18.3158H2.63166V3.15791H9.78956C10.7878 3.15791 11.5496 3.38522 12.0263 3.73023C12.449 4.03612 12.7369 4.4918 12.7369 5.26317V18.5922ZM15.2632 5.26317V18.5922C15.799 18.4034 16.3738 18.3158 16.9475 18.3158H25.3685V3.15791H18.2106C17.2124 3.15791 16.4506 3.38522 15.9739 3.73023C15.5512 4.03612 15.2632 4.4918 15.2632 5.26317Z" fill="black"/>
</svg>
