<svg width="28" height="27" viewBox="0 0 28 27" fill="none" xmlns="http://www.w3.org/2000/svg">
<path d="M16.2582 14.4375C15.3472 14.4375 14.6087 15.1674 14.6087 16.0677V20.0262C14.6087 20.9265 15.3472 21.6563 16.2582 21.6563H21.481C22.3919 21.6563 23.1304 20.9265 23.1304 20.0262V16.0677C23.1304 15.1674 22.3919 14.4375 21.481 14.4375H16.2582Z" fill="black"/>
<path fill-rule="evenodd" clip-rule="evenodd" d="M6.78779 1.25782C6.78779 0.563143 7.35761 0 8.06052 0C8.76342 0 9.33324 0.563143 9.33324 1.25781V3.35413H17.818V1.25782C17.818 0.563143 18.3878 0 19.0907 0C19.7937 0 20.3635 0.563143 20.3635 1.25781V3.35413H23.7576C24.5709 3.35413 25.3175 3.63689 25.902 4.10838C27.0818 4.83394 28 6.01506 28 7.34885V22.8386C28 25.0448 25.4877 26.8333 23.4352 26.8333H3.71627C1.66383 26.8333 0 25.0448 0 22.8386V6.7083C0 4.85584 1.51952 3.35413 3.39394 3.35413H6.78779V1.25782ZM2.43478 21.8425V10.901H25.5652V21.8425C25.5652 23.0686 24.5682 24.0625 23.3384 24.0625H4.66163C3.43177 24.0625 2.43478 23.0686 2.43478 21.8425Z" fill="black"/>
</svg>
