<svg width="25" height="22" viewBox="0 0 25 22" fill="none" xmlns="http://www.w3.org/2000/svg">
<path fill-rule="evenodd" clip-rule="evenodd" d="M7.8625 22C17.2962 22 22.4563 13.535 22.4563 6.19501C22.4563 5.95404 22.4563 5.71443 22.4412 5.47617C23.445 4.691 24.3112 3.7163 25 2.60081C24.065 3.05026 23.0712 3.34537 22.055 3.47533C23.125 2.78086 23.9262 1.68974 24.31 0.402328C23.3025 1.04942 22.2013 1.50563 21.0525 1.75066C19.11 -0.48573 15.8612 -0.594029 13.795 1.50969C12.4637 2.86615 11.8975 4.88864 12.3112 6.81773C8.1875 6.59301 4.345 4.48387 1.74 1.01422C0.37875 3.5525 1.075 6.79878 3.32875 8.42869C2.5125 8.40297 1.71375 8.16471 1 7.73422V7.80461C1.00125 10.4485 2.7225 12.7255 5.115 13.2494C4.36 13.4728 3.5675 13.5052 2.8 13.3441C3.47125 15.6076 5.3975 17.1576 7.59125 17.2023C5.775 18.7483 3.53125 19.5876 1.22125 19.5849C0.81375 19.5836 0.40625 19.5578 0 19.505C2.34625 21.135 5.075 22 7.8625 21.9959" fill="#121212"/>
</svg>
