<svg width="26" height="25" viewBox="0 0 26 25" fill="none" xmlns="http://www.w3.org/2000/svg">
<path d="M24.2561 6.38168C23.0936 4.41846 21.5168 2.86418 19.5252 1.71849C17.5332 0.572731 15.3587 0 12.9999 0C10.6414 0 8.4661 0.572907 6.4746 1.71849C4.4828 2.86412 2.906 4.41846 1.74351 6.38168C0.581189 8.34484 0 10.4886 0 12.813C0 15.605 0.826458 18.1157 2.47979 20.3457C4.13294 22.5759 6.26857 24.1191 8.8865 24.9754C9.19124 25.0312 9.41682 24.992 9.5635 24.8588C9.71023 24.7254 9.78351 24.5584 9.78351 24.3585C9.78351 24.3251 9.78061 24.0249 9.77497 23.4576C9.76916 22.8902 9.76644 22.3952 9.76644 21.9729L9.3771 22.0393C9.12887 22.0841 8.81571 22.1031 8.43764 22.0977C8.05975 22.0925 7.66745 22.0535 7.26127 21.9809C6.85492 21.909 6.47697 21.7422 6.12712 21.4808C5.77744 21.2194 5.52921 20.8773 5.38247 20.4549L5.21321 20.071C5.10039 19.8154 4.92276 19.5314 4.6801 19.2202C4.43744 18.9087 4.19205 18.6975 3.94382 18.5863L3.8253 18.5026C3.74633 18.4471 3.67306 18.3801 3.60529 18.3023C3.53759 18.2245 3.4869 18.1467 3.45304 18.0687C3.41913 17.9907 3.44723 17.9267 3.53764 17.8765C3.62806 17.8263 3.79145 17.8019 4.02854 17.8019L4.36695 17.8518C4.59265 17.8964 4.87184 18.0296 5.20485 18.2521C5.53769 18.4745 5.81129 18.7637 6.02573 19.1194C6.28541 19.5756 6.59827 19.9232 6.96519 20.1623C7.33182 20.4015 7.70148 20.5209 8.0738 20.5209C8.44612 20.5209 8.76769 20.4931 9.03863 20.4378C9.30928 20.3821 9.5632 20.2985 9.80029 20.1874C9.90185 19.4418 10.1784 18.8691 10.6296 18.4688C9.98645 18.4021 9.40823 18.3018 8.89462 18.1684C8.38132 18.0348 7.85088 17.818 7.30366 17.5174C6.75615 17.2172 6.30195 16.8445 5.94095 16.3998C5.5799 15.9548 5.28358 15.3707 5.05242 14.6479C4.82115 13.9248 4.70548 13.0907 4.70548 12.1453C4.70548 10.7993 5.15131 9.6538 6.04281 8.70831C5.62519 7.69631 5.66462 6.56184 6.16121 5.305C6.48847 5.20478 6.97379 5.27998 7.61693 5.53015C8.2602 5.78043 8.73117 5.99483 9.03033 6.17259C9.32949 6.3503 9.56919 6.50089 9.74978 6.62302C10.7994 6.33394 11.8827 6.18937 12.9998 6.18937C14.1168 6.18937 15.2003 6.33394 16.25 6.62302L16.8932 6.22279C17.3331 5.95574 17.8525 5.71101 18.4502 5.48854C19.0483 5.26619 19.5057 5.20495 19.8218 5.30517C20.3294 6.56207 20.3746 7.69649 19.9569 8.70848C20.8483 9.65398 21.2943 10.7997 21.2943 12.1455C21.2943 13.0909 21.1783 13.9276 20.9473 14.6563C20.7161 15.385 20.4173 15.9686 20.0506 16.4081C19.6836 16.8476 19.2265 17.2175 18.6793 17.5176C18.1319 17.818 17.6013 18.0348 17.088 18.1683C16.5745 18.3019 15.9962 18.4023 15.3531 18.469C15.9397 18.9694 16.233 19.7591 16.233 20.838V24.358C16.233 24.558 16.3036 24.7249 16.4448 24.8583C16.5858 24.9915 16.8086 25.0307 17.1133 24.9749C19.7316 24.1186 21.8672 22.5754 23.5203 20.3453C25.1732 18.1153 26 15.6046 26 12.8125C25.9994 10.4884 25.4179 8.34484 24.2561 6.38168Z" fill="black"/>
</svg>
