<svg width="1561" height="517" viewBox="0 0 1561 517" fill="none" xmlns="http://www.w3.org/2000/svg">
<path fill-rule="evenodd" clip-rule="evenodd" d="M1386.67 467.109C1386.67 467.109 1396.76 471.929 1408.64 480.924C1420.52 489.914 1427.25 499.669 1426.87 504.959C1426.5 510.254 1415.58 518.034 1408.48 516.019C1401.37 514.004 1387.47 510.28 1378.7 505.637C1369.94 500.994 1358.91 497.289 1358.27 493.874C1357.63 490.464 1358.35 477.494 1358.35 477.494L1386.67 467.109Z" fill="url(#paint0_linear)"/>
<path opacity="0.3" d="M1386.67 467.109L1385.9 467.389L1379.22 473.484L1382.56 475.749C1390.32 481.039 1409.12 494.049 1412.2 497.979C1418.88 506.509 1419.48 512.489 1419.53 513.304C1422.53 511.064 1426.71 507.274 1426.87 504.959C1427.25 499.669 1420.52 489.914 1408.64 480.924L1407.65 480.184C1398.33 473.249 1390.28 468.939 1387.61 467.574L1386.67 467.109Z" fill="url(#paint1_linear)"/>
<path d="M1387.49 496.8C1386.05 499.025 1367.94 493.13 1368.36 490.22C1368.76 487.31 1388.92 494.58 1387.49 496.8Z" fill="url(#paint2_linear)"/>
<path d="M1352.93 470.409L1357.45 479.454C1357.45 479.454 1366.41 482.049 1376.71 476.664C1387 471.279 1388.64 467.524 1388.64 467.524L1387.71 458.468L1352.93 470.409Z" fill="url(#paint3_linear)"/>
<path fill-rule="evenodd" clip-rule="evenodd" d="M1236.2 179.124C1209.9 179.124 1188.58 158.171 1188.58 132.325C1188.58 106.478 1209.9 85.5254 1236.2 85.5254C1262.51 85.5254 1283.83 106.478 1283.83 132.325C1283.83 158.171 1262.51 179.124 1236.2 179.124Z" fill="url(#paint4_linear)"/>
<path d="M1282.16 120.022C1276.15 120.837 1267.69 121.621 1260.75 120.893C1248.51 119.611 1231 106.285 1219.18 115.481C1207.37 124.678 1212.8 142.064 1220.65 152.877C1228.49 163.691 1222.65 175.661 1222.65 175.661L1244.98 178.329C1267.08 174.276 1283.83 155.207 1283.83 132.325C1283.83 128.069 1283.25 123.944 1282.16 120.022Z" fill="url(#paint5_linear)"/>
<path d="M1203.72 168.067C1203.72 168.067 1197.35 161.684 1193.98 160.339C1190.62 158.994 1160.2 161.23 1155.13 167.753C1150.06 174.275 1146.55 230.702 1146.55 230.702L1203.72 168.067Z" fill="url(#paint6_linear)"/>
<path d="M1194.66 161.504L1181.09 162.393C1180.09 162.458 1179.67 163.699 1180.43 164.356L1188.58 171.46L1194.66 161.504Z" fill="url(#paint7_linear)"/>
<path d="M1179.33 239.539C1151.89 455.945 979.5 264.039 874 158.539C768.5 53.0383 614.6 -83.1612 411 82.0388C207.4 247.239 24.4999 339.539 -45 147.539" stroke="url(#paint8_linear)" stroke-width="8.06746"/>
<path d="M1179.33 239.539C1151.89 455.945 979.5 264.039 874 158.539C768.5 53.0383 614.6 -83.1612 411 82.0388C207.4 247.239 24.4999 339.539 -45 147.539" stroke="url(#paint9_linear)" stroke-width="8.06746" stroke-dasharray="2.02"/>
<path d="M1181.71 172.907C1186.81 178.446 1187.21 183.94 1185.82 189.847C1184.43 195.754 1143.96 238.565 1143.96 238.565C1143.96 238.565 1144.64 168.966 1156.61 166.848C1168.57 164.73 1177.26 168.068 1181.71 172.907Z" fill="url(#paint10_linear)"/>
<path fill-rule="evenodd" clip-rule="evenodd" d="M1455.42 405.426C1455.42 405.426 1472.59 407.339 1483.46 410.591C1494.33 413.833 1500.99 418.21 1500.8 422.838C1500.61 427.463 1492.74 437.214 1488 438.695C1483.25 440.173 1469.34 433.731 1460.2 434.937C1451.06 436.15 1440.08 436.931 1437.92 434.34C1435.76 431.752 1432.41 424.712 1432.41 424.712C1432.41 424.712 1439.99 423.326 1446.84 416.853C1453.68 410.386 1455.42 405.426 1455.42 405.426Z" fill="url(#paint11_linear)"/>
<path opacity="0.3" d="M1456.87 406.927L1450.8 415.031L1455.8 415.894C1472.15 418.733 1482.09 420.829 1485.63 422.183C1488.91 423.435 1492.73 426.094 1497.08 430.159C1498.46 428.6 1499.73 426.879 1500.73 425.22L1500.68 425.068C1500.35 424.078 1498.73 420.557 1491.55 416.268C1486.91 413.493 1465.74 408.815 1458.96 407.369L1456.87 406.927Z" fill="url(#paint12_linear)"/>
<path d="M1458.96 427.707C1458.3 428.365 1457.23 428.369 1456.58 427.711C1455.92 427.053 1455.92 425.986 1456.58 425.328C1457.23 424.67 1458.3 424.674 1458.96 425.332C1459.61 425.989 1459.61 427.05 1458.96 427.707Z" fill="url(#paint13_linear)"/>
<path d="M1451.85 428.531C1451.38 429.001 1450.62 429.001 1450.15 428.531C1449.68 428.061 1449.68 427.297 1450.15 426.827C1450.62 426.353 1451.39 426.353 1451.86 426.823C1452.33 427.293 1452.33 428.057 1451.85 428.531Z" fill="url(#paint14_linear)"/>
<path d="M1445.16 429.419C1444.79 429.79 1444.18 429.794 1443.81 429.422C1443.44 429.051 1443.44 428.443 1443.81 428.072C1444.18 427.701 1444.79 427.704 1445.16 428.075C1445.53 428.447 1445.53 429.048 1445.16 429.419Z" fill="url(#paint15_linear)"/>
<path d="M1447.86 396.602C1447.86 396.602 1458.23 405.239 1456.55 409.234C1454.87 413.229 1451.12 419.194 1446.61 421.8C1442.1 424.405 1435.82 427 1432.75 426.587C1429.68 426.173 1424.45 420.23 1424.45 420.23L1447.86 396.602Z" fill="url(#paint16_linear)"/>
<path fill-rule="evenodd" clip-rule="evenodd" d="M1356.53 245.357C1356.53 245.357 1326.58 245.814 1313.12 241.452C1299.67 237.09 1285.54 211.693 1282.61 202.481C1277.77 187.271 1264.63 182.428 1259.86 179.874C1255.09 177.32 1241.96 183.467 1225.39 176.748C1208.81 170.03 1197.42 161.661 1190.93 164.98C1184.45 168.299 1166.97 184.809 1166.97 184.809C1166.97 184.809 1180.71 192.452 1187.49 204.868C1194.28 217.284 1193.08 217.246 1195.02 229.216C1195.75 233.715 1172.28 245.142 1168.14 257.525C1161.26 278.084 1171.86 301.459 1171.86 301.459C1171.86 301.459 1180.75 333.246 1219.2 344.404C1227.83 346.908 1339.39 350.749 1358.53 359.969C1379.03 369.846 1420.7 422.548 1429.06 422.913C1437.43 423.278 1451.81 415.593 1451.81 401.689C1451.81 384.693 1397.69 324.039 1377.18 313.862C1356.66 303.686 1280.15 295.709 1280.15 295.709C1280.15 295.709 1278.97 295.709 1274.96 281.556C1270.94 267.403 1269.08 254.374 1269.08 254.374C1269.08 254.374 1283.31 269.691 1298.57 272.584C1316.68 276.015 1357.94 281.572 1366.21 275.375C1374.48 269.173 1356.53 245.357 1356.53 245.357Z" fill="url(#paint17_linear)"/>
<path opacity="0.1" fill-rule="evenodd" clip-rule="evenodd" d="M1354.25 358.325L1360.43 348.088C1360.99 347.155 1362.16 346.785 1363.16 347.221C1364.21 347.683 1364.72 348.887 1364.32 349.966L1360.04 361.473C1360.04 361.473 1358.1 360.132 1357.1 359.587C1356.1 359.043 1354.25 358.325 1354.25 358.325Z" fill="#262626"/>
<path opacity="0.205171" fill-rule="evenodd" clip-rule="evenodd" d="M1251.47 280.686L1278.23 291.885L1278.52 292.648C1279.54 295.239 1280 295.637 1280.12 295.698L1280.15 295.709C1280.15 295.709 1281.92 296.019 1285 296.578C1312.07 317.587 1327.69 335.529 1346.31 356.186C1333.7 353.957 1313.4 352.754 1292.48 352.008L1235 295.709L1251.47 280.686Z" fill="url(#paint18_linear)"/>
<path fill-rule="evenodd" clip-rule="evenodd" d="M1335.81 353.74C1355.43 382.473 1386.16 441.213 1388.15 455.109C1390.13 469.005 1361.34 480.079 1350.65 467.726C1334.22 448.739 1302.32 388.476 1290.05 381.047C1279.35 374.566 1187.35 341.411 1173.86 308.829C1193.66 292.815 1235.26 282.386 1256.64 282.077C1254.77 290.018 1258.72 298.198 1265.95 301.987C1285.29 312.13 1321.7 333.081 1335.81 353.74Z" fill="url(#paint19_linear)"/>
<path opacity="0.205171" fill-rule="evenodd" clip-rule="evenodd" d="M1239.2 301.186L1278.21 308.238L1262.68 299.305L1239.2 301.186Z" fill="url(#paint20_linear)"/>
<path opacity="0.5" d="M1216.85 289.077C1227.94 322.868 1277.64 318.433 1300.04 341.411" stroke="#17413B" stroke-width="1.12048" stroke-linecap="round"/>
<path opacity="0.45" d="M1324.88 362.364C1322.45 365.277 1316.36 364.2 1311.28 359.959C1306.21 355.719 1304.07 349.92 1306.5 347.009C1308.94 344.097 1315.02 345.173 1320.1 349.413C1325.17 353.653 1327.32 359.451 1324.88 362.364Z" fill="url(#paint21_linear)"/>
<path opacity="0.1" fill-rule="evenodd" clip-rule="evenodd" d="M1270.34 201.171L1270.55 202.183C1271.19 205.367 1272.87 215.581 1270.94 225.834L1270.84 226.365C1267.45 243.202 1269.07 254.5 1269.07 254.5L1269.09 254.529L1269.08 254.374L1270.54 255.574C1272.59 257.223 1274.61 260.373 1279.52 263.737L1279.03 257.673C1277.89 243.009 1279.31 232.048 1279.31 224.792C1279.31 215.762 1276.32 207.889 1270.34 201.171Z" fill="#262626"/>
<path opacity="0.5" fill-rule="evenodd" clip-rule="evenodd" d="M1276.43 286L1270.78 262.502C1270.44 261.065 1269.84 259.702 1269.01 258.478L1264.54 251.87C1263 249.593 1260.5 248.148 1257.76 247.951L1226.58 245.704L1195.58 292.461C1195.58 292.461 1221.63 283.702 1238.84 282.327C1256.04 280.952 1276.43 286 1276.43 286Z" stroke="#17413B" stroke-width="1.12048" stroke-linecap="round"/>
<path opacity="0.3" fill-rule="evenodd" clip-rule="evenodd" d="M1188.58 228.369C1189.39 233.36 1172.95 243.611 1168.14 257.525C1161.4 276.985 1171.86 301.459 1171.86 301.459L1172.02 302.22C1172.7 305.27 1175.13 315.244 1187.84 326.367C1195.81 322.986 1200.75 318.922 1206.84 306.486C1225.7 267.968 1194.66 217.562 1194.66 217.562L1193.08 217.222L1193.23 217.85C1193.9 220.682 1187.68 222.804 1188.58 228.369Z" fill="url(#paint22_linear)"/>
<path opacity="0.5" d="M1185.04 323.51C1189.79 320.366 1193.58 315.753 1197.96 306.803C1210.52 281.158 1200.96 250.244 1193.16 232.444C1191.53 234.089 1188.99 236.065 1186.13 238.29C1179.25 243.636 1170.51 250.423 1168.14 257.525C1161.26 278.084 1171.86 301.459 1171.86 301.459C1171.86 301.459 1171.86 311.539 1185.04 323.51Z" fill="url(#paint23_linear)"/>
<path d="M1195.36 157.589C1192.42 158.76 1189.4 163.267 1190.49 165.524C1191.58 167.782 1212.97 182.685 1227.75 184.527C1247.84 187.03 1258.22 183.459 1261.21 182.347C1264.2 181.235 1263.94 172.035 1261.19 172.384C1258.44 172.734 1244.52 175.735 1233.29 174.276C1209.14 171.141 1198.3 156.419 1195.36 157.589Z" fill="url(#paint24_linear)"/>
<mask id="mask0" mask-type="alpha" maskUnits="userSpaceOnUse" x="1190" y="157" width="74" height="29">
<path fill-rule="evenodd" clip-rule="evenodd" d="M1195.36 157.589C1192.42 158.76 1189.4 163.267 1190.49 165.524C1191.58 167.782 1212.97 182.685 1227.75 184.527C1247.84 187.03 1258.22 183.459 1261.21 182.347C1264.2 181.235 1263.94 172.035 1261.19 172.384C1258.44 172.734 1244.52 175.735 1233.29 174.276C1209.14 171.141 1198.3 156.419 1195.36 157.589Z" fill="white"/>
</mask>
<g mask="url(#mask0)">
<path d="M1185.5 168.799L1186.82 168.553C1185.59 161.951 1189.31 153.533 1195.03 149.965L1195.38 149.752L1194.71 148.592C1188.42 152.244 1184.3 161.162 1185.43 168.384L1185.5 168.799Z" fill="url(#paint25_linear)"/>
<path d="M1190.07 176.461L1191.36 176.113C1191.18 175.43 1191.09 174.659 1191.07 173.731L1191.06 173.049C1191.06 172.826 1191.07 172.607 1191.08 172.309L1191.11 171.344C1191.33 165.493 1193.59 160.864 1198.02 157.127L1198.44 156.78L1197.6 155.735C1192.74 159.655 1190.16 164.571 1189.8 170.73L1189.74 172.277C1189.72 172.704 1189.72 172.976 1189.72 173.328C1189.72 174.395 1189.8 175.296 1189.98 176.115L1190.07 176.461Z" fill="url(#paint26_linear)"/>
<path d="M1195.17 178.413L1196.5 178.22C1195.53 171.519 1198.23 164.929 1203.62 159.685L1204.02 159.304L1203.1 158.325C1197.28 163.782 1194.25 170.754 1195.1 177.913L1195.17 178.413Z" fill="url(#paint27_linear)"/>
<path d="M1205.34 184.682L1206.63 184.297C1204.52 177.247 1205.11 170.444 1208.64 165.017L1208.93 164.58L1207.83 163.818C1203.89 169.53 1203.1 176.707 1205.18 184.112L1205.34 184.682Z" fill="url(#paint28_linear)"/>
<path d="M1213.41 189.367L1214.68 188.922C1212.34 182.294 1212.66 173.806 1215.71 168.189L1215.96 167.752L1214.8 167.073C1211.39 172.894 1210.92 181.757 1213.23 188.827L1213.41 189.367Z" fill="url(#paint29_linear)"/>
<path d="M1221.3 190.643L1222.53 190.103C1221.64 188.065 1221.26 185.798 1221.07 182.362C1220.81 177.426 1221.21 173.222 1222.45 169.198L1222.67 168.529L1221.4 168.104C1219.92 172.506 1219.44 177.066 1219.73 182.435C1219.92 185.82 1220.28 188.15 1221.15 190.271L1221.3 190.643Z" fill="url(#paint30_linear)"/>
<path d="M1227.71 189.729L1229.05 189.788L1229.37 182.89L1229.39 182.455C1229.51 179.218 1229.53 176.571 1229.42 174.019L1229.35 172.459L1229.32 171.23C1229.31 171.081 1229.31 170.95 1229.3 170.807C1229.25 169.656 1229.15 168.753 1228.96 167.923L1228.88 167.57L1227.58 167.917C1227.77 168.633 1227.88 169.414 1227.94 170.421L1227.98 171.278L1228.04 173.309L1228.05 173.452C1228.17 175.741 1228.18 178.081 1228.1 180.85L1228.01 183.259L1227.71 189.729Z" fill="url(#paint31_linear)"/>
<path d="M1237.18 189.417C1238.4 185.186 1238.74 180.75 1238.3 175.893C1238.04 173.027 1237.62 170.981 1236.75 169.261L1236.57 168.921L1235.4 169.568C1236.27 171.154 1236.7 173.13 1236.96 176.014C1237.36 180.437 1237.1 184.479 1236.09 188.325L1235.89 189.044L1237.18 189.417Z" fill="url(#paint32_linear)"/>
<path d="M1245.36 188.204C1247.35 180.66 1247.61 173.44 1245 168.946L1244.8 168.606L1243.66 169.324C1246.16 173.27 1246.02 180.1 1244.21 187.293L1244.07 187.862L1245.36 188.204Z" fill="url(#paint33_linear)"/>
<path d="M1252.16 187.352C1255.04 181.524 1255.14 173.738 1252.33 168.031L1252.09 167.572L1250.91 168.203C1253.68 173.408 1253.73 180.731 1251.18 186.285L1250.96 186.757L1252.16 187.352Z" fill="url(#paint34_linear)"/>
<path d="M1260.19 185.543C1262.66 179.441 1262.32 171.56 1258.73 167.028L1258.48 166.717L1257.46 167.589C1260.83 171.534 1261.28 178.852 1259.12 184.611L1258.95 185.04L1260.19 185.543Z" fill="url(#paint35_linear)"/>
</g>
<path d="M1263.89 279.582C1253.47 277.212 1242.21 276.052 1230.63 276.763C1213.22 277.834 1203.54 280.998 1189.77 288.933C1184.31 292.078 1179.53 295.451 1175.45 298.835L1174.65 299.505C1172.6 301.248 1171.15 302.634 1170.32 303.512C1168.67 305.266 1168.75 308.027 1170.51 309.677C1172.2 311.267 1174.82 311.248 1176.49 309.678L1177.1 309.059C1177.26 308.9 1177.46 308.706 1177.7 308.48C1178.62 307.603 1179.73 306.617 1181.02 305.549C1184.73 302.469 1189.11 299.378 1194.13 296.49C1206.78 289.194 1215.19 286.453 1231.17 285.47C1241.84 284.813 1252.3 285.89 1261.95 288.087C1264.64 288.699 1267.06 289.352 1269.15 290.003L1269.98 290.264L1271.18 290.669L1271.62 290.826C1273.87 291.68 1276.39 290.546 1277.25 288.293C1278.1 286.041 1276.97 283.523 1274.71 282.67L1274.4 282.552C1273.8 282.338 1272.91 282.036 1271.74 281.672C1269.43 280.957 1266.8 280.245 1263.89 279.582Z" fill="url(#paint36_linear)"/>
<path opacity="0.700777" fill-rule="evenodd" clip-rule="evenodd" d="M1279.57 127.181C1279.21 125.933 1277.91 125.211 1276.66 125.566C1275.48 125.903 1274.77 127.087 1275 128.271L1275.11 128.712C1275.14 128.827 1275.17 128.974 1275.21 129.154C1275.34 129.783 1275.45 130.517 1275.54 131.344C1275.77 133.439 1275.79 135.736 1275.52 138.172C1275.22 140.864 1274.68 143.123 1273.99 144.953L1273.8 145.452L1273.63 145.871C1273.46 146.249 1273.33 146.505 1273.25 146.64C1272.58 147.75 1272.93 149.194 1274.04 149.864C1275.15 150.535 1276.6 150.179 1277.27 149.069C1277.55 148.599 1277.96 147.774 1278.4 146.594C1279.21 144.407 1279.85 141.77 1280.19 138.686C1280.49 135.895 1280.47 133.258 1280.21 130.838C1280.03 129.153 1279.77 127.906 1279.57 127.181Z" fill="url(#paint37_linear)"/>
<path opacity="0.700777" fill-rule="evenodd" clip-rule="evenodd" d="M1272.05 156.555C1270.48 156.555 1269.2 155.279 1269.2 153.706C1269.2 152.133 1270.48 150.858 1272.05 150.858C1273.62 150.858 1274.9 152.133 1274.9 153.706C1274.9 155.279 1273.62 156.555 1272.05 156.555Z" fill="url(#paint38_linear)"/>
<path fill-rule="evenodd" clip-rule="evenodd" d="M1196.01 114.675C1194.04 115.078 1193.15 120.725 1192.69 124.04C1192.22 127.356 1191.45 132.078 1192.17 134.042C1192.9 136.006 1194.39 137.867 1197.64 138.631C1200.89 139.395 1204.32 138.677 1204.48 136.482C1204.64 134.286 1204.47 131.789 1204.95 128.955C1205.59 125.15 1207.18 120.63 1205.21 118.646C1203.87 117.309 1198.58 114.151 1196.01 114.675Z" fill="url(#paint39_linear)"/>
<path d="M1196.01 114.675C1195.28 114.825 1194.7 115.695 1194.23 116.899L1195.13 117.201C1199.46 118.699 1201.72 120.014 1201.89 121.148C1202.19 123.138 1201.33 124.583 1200.62 128.832L1200.55 129.298C1200.39 130.303 1200.16 132.74 1199.86 136.609L1199.68 138.917C1202.19 139.028 1204.35 138.216 1204.48 136.482C1204.64 134.286 1204.47 131.789 1204.95 128.955L1205.07 128.256C1205.77 124.611 1207.06 120.51 1205.21 118.646C1203.87 117.309 1198.58 114.151 1196.01 114.675Z" fill="url(#paint40_linear)"/>
<path fill-rule="evenodd" clip-rule="evenodd" d="M1167.63 184.333C1167.63 184.333 1142.4 220.211 1132.85 247.648C1123.3 275.085 1130.02 292.539 1148.6 298.975C1167.18 305.41 1233.03 301.467 1233.03 301.467L1231.15 279.722L1168.13 264.736C1168.13 264.736 1199.03 228.587 1197.43 224.538C1195.62 219.982 1190.5 205.819 1187.44 201.433C1177.82 187.663 1167.63 184.333 1167.63 184.333Z" fill="url(#paint41_linear)"/>
<path d="M1265.05 285.86C1265.05 285.86 1270.55 286.026 1272.55 287.033C1278.67 290.123 1282.05 294.721 1281.8 295.548C1281.32 297.192 1272.09 293.057 1272.09 293.057L1265.05 285.86Z" fill="url(#paint42_linear)"/>
<path d="M1237.28 283.26C1237.28 283.26 1264.91 283.417 1267.44 284.52C1269.97 285.624 1281.27 295.547 1278.23 296.46C1275.2 297.374 1265.54 290.393 1265.54 290.393L1239.91 289.227L1237.28 283.26Z" fill="url(#paint43_linear)"/>
<path d="M1230.99 299.089C1230.99 299.089 1248.21 297.422 1252.51 296.077C1253.7 295.707 1256.34 292.392 1257.01 292.121C1259.14 291.253 1262.99 292.263 1266.76 294.467C1271.15 297.034 1271.62 297.201 1272.82 296.46C1274.11 295.668 1274.93 294.611 1270 290.378C1266.36 287.255 1261.17 284.477 1258.41 283.425C1251.88 280.947 1227.87 282.409 1227.87 282.409L1230.99 299.089Z" fill="url(#paint44_linear)"/>
<path d="M1240.65 279.399C1239.65 278.363 1221.25 275.068 1221.25 275.068C1221.25 275.068 1215.57 281.775 1216.48 292.765C1216.95 298.559 1219.49 303.212 1221.44 306.008C1221.44 306.008 1238.74 300.694 1239.7 300C1240.65 299.305 1238.94 300.063 1238.94 289.731C1238.94 279.399 1241.65 280.436 1240.65 279.399Z" fill="url(#paint45_linear)"/>
<path d="M1234.98 294.176C1234.62 292.208 1224.72 293.693 1222.38 293.834C1220.05 293.977 1221.37 296.521 1222.89 296.37C1224.44 296.215 1235.24 295.581 1234.98 294.176Z" fill="url(#paint46_linear)"/>
<path opacity="0.5" fill-rule="evenodd" clip-rule="evenodd" d="M1266.44 217.571L1265.71 204.626L1253.86 204.78L1254.11 209.404L1261.41 209.309L1261.89 217.63L1266.44 217.571ZM1259.62 225.988L1258.83 212.119L1254.27 212.177L1255.05 226.047L1259.62 225.988Z" fill="url(#paint47_linear)"/>
<path d="M1168.25 181.999C1166.15 181.173 1163.77 182.221 1162.95 184.341C1162.16 186.388 1163.1 188.685 1165.07 189.585L1165.72 189.866C1165.85 189.924 1166 189.993 1166.18 190.075C1166.99 190.457 1167.9 190.933 1168.89 191.505C1171.75 193.153 1174.62 195.226 1177.28 197.744C1180.11 200.417 1182.54 203.438 1184.47 206.823C1187.72 212.511 1190.11 218.227 1191.77 223.677C1192.34 225.571 1192.79 227.291 1193.11 228.799L1193.3 229.711C1193.38 230.097 1193.43 230.375 1193.45 230.536C1193.78 232.787 1195.86 234.342 1198.1 234.009C1200.33 233.676 1201.88 231.581 1201.55 229.331L1201.5 229.022C1201.42 228.559 1201.29 227.893 1201.11 227.042C1200.74 225.318 1200.24 223.379 1199.59 221.262C1197.76 215.25 1195.14 208.971 1191.57 202.721C1189.22 198.598 1186.28 194.944 1182.88 191.736C1179.72 188.75 1176.34 186.306 1172.96 184.355C1170.9 183.168 1169.26 182.396 1168.25 181.999Z" fill="url(#paint48_linear)"/>
<path opacity="0.5" d="M1207.58 226.293C1208.3 226.808 1209.16 226.339 1209.51 226.005C1209.85 225.671 1209.49 221.443 1210.01 219.004C1210.63 216.157 1211.7 214.529 1211.47 211.569C1211.24 208.7 1211.11 208.079 1210.55 207.761C1210 207.442 1208.58 207.7 1208.71 208.585C1208.85 209.469 1209.11 211.109 1209.01 213.255C1208.93 214.932 1207.84 217.236 1207.55 218.502C1207.19 220.076 1206.85 225.778 1207.58 226.293Z" fill="url(#paint49_linear)"/>
<path opacity="0.45" d="M1381.31 325.161C1380.27 328.148 1375.29 329.026 1370.18 327.122C1365.09 325.217 1361.8 321.251 1362.85 318.263C1363.89 315.275 1368.87 314.397 1373.97 316.302C1379.07 318.207 1382.36 322.173 1381.31 325.161Z" fill="url(#paint50_linear)"/>
<path d="M1268.64 184.751C1266.58 185.844 1265.8 188.398 1266.89 190.456C1270.68 197.585 1272.33 206.387 1271.51 216.608C1271.32 218.93 1273.06 220.964 1275.38 221.15C1277.7 221.337 1279.73 219.605 1279.92 217.282C1280.86 205.509 1278.91 195.1 1274.34 186.497C1273.25 184.44 1270.69 183.658 1268.64 184.751Z" fill="url(#paint51_linear)"/>
<path d="M1213.14 161.505C1211.6 161.505 1210.35 160.258 1210.35 158.719C1210.35 157.181 1211.6 155.934 1213.14 155.934C1214.68 155.934 1215.92 157.181 1215.92 158.719C1215.92 160.258 1214.68 161.505 1213.14 161.505Z" fill="url(#paint52_linear)"/>
<path d="M1206.03 158.261C1205.26 158.261 1204.63 157.635 1204.63 156.862C1204.63 156.09 1205.26 155.464 1206.03 155.464C1206.8 155.464 1207.43 156.09 1207.43 156.862C1207.43 157.635 1206.8 158.261 1206.03 158.261Z" fill="url(#paint53_linear)"/>
<path d="M1200.83 154.907C1200.22 154.907 1199.72 154.409 1199.72 153.795C1199.72 153.181 1200.22 152.683 1200.83 152.683C1201.45 152.683 1201.95 153.181 1201.95 153.795C1201.95 154.409 1201.45 154.907 1200.83 154.907Z" fill="url(#paint54_linear)"/>
<path opacity="0.2" d="M1275.44 105.813C1266.85 93.5629 1252.47 85.5254 1236.2 85.5254C1231.05 85.5254 1226.08 86.3324 1221.43 87.8254C1231.38 95.9934 1246.59 107.159 1256.74 108.415C1265.97 109.555 1271.98 107.659 1275.44 105.813Z" fill="url(#paint55_linear)"/>
<path d="M1248.69 87.0479C1254.47 92.4629 1257.18 98.2319 1258.46 102.433" stroke="#17413B" stroke-width="1.12048" stroke-linecap="round"/>
<path opacity="0.5" d="M1332.41 371.044C1357.09 404.173 1370.52 430.125 1381.19 467.109" stroke="#17413B" stroke-width="1.12048" stroke-linecap="round"/>
<path opacity="0.1" fill-rule="evenodd" clip-rule="evenodd" d="M1286.25 379.325L1298.45 368.328C1299.03 367.798 1299.88 367.662 1300.6 367.979C1301.82 368.513 1302.2 370.066 1301.35 371.098L1292.04 382.473C1292.04 382.473 1290.1 381.132 1289.1 380.587C1288.1 380.043 1286.25 379.325 1286.25 379.325Z" fill="#262626"/>
<path d="M1241.51 298.291L1317.02 287.935L1300.96 298.812L1241.29 300.316L1241.51 298.291Z" fill="url(#paint56_linear)"/>
<path d="M1239.5 300.02C1239.63 298.776 1240.66 297.823 1241.91 297.799L1301.4 296.631C1302.89 296.601 1304.07 297.886 1303.92 299.37C1303.79 300.614 1302.75 301.567 1301.5 301.591L1242.01 302.759C1240.52 302.789 1239.34 301.504 1239.5 300.02Z" fill="url(#paint57_linear)"/>
<path d="M1359.48 245.203C1359.48 245.203 1358.16 237.839 1360.04 236.956C1361.93 236.072 1367.33 244.86 1367.33 244.86L1359.48 245.203Z" fill="url(#paint58_linear)"/>
<path d="M1304.24 248.317C1304.35 247.332 1305.16 246.571 1306.14 246.528L1369.76 243.763C1370.99 243.709 1371.97 244.769 1371.83 245.991L1366.74 289.799C1366.64 290.72 1365.91 291.447 1364.99 291.555L1301.37 299.021C1300.09 299.17 1299.01 298.1 1299.14 296.825L1304.24 248.317Z" fill="url(#paint59_linear)"/>
<path d="M1306.06 250.24C1306.17 249.254 1306.98 248.493 1307.97 248.45L1371.57 245.686C1372.8 245.632 1373.79 246.695 1373.65 247.919L1368.57 290.75C1368.46 291.658 1367.75 292.377 1366.84 292.497L1303.22 300.902C1301.94 301.072 1300.83 299.997 1300.97 298.711L1306.06 250.24Z" fill="url(#paint60_linear)"/>
<path d="M1374.25 248.717C1374.25 248.717 1352.47 254.465 1350.52 256.084C1348.57 257.703 1350.88 259.54 1350.88 259.54C1350.88 259.54 1346.26 260.071 1346.04 262.088C1345.83 264.105 1352.29 264.059 1352.29 264.059C1352.29 264.059 1349 264.78 1348.86 266.125C1348.72 267.47 1352.35 268.341 1352.35 268.341C1352.35 268.341 1351.44 270.083 1353.48 270.974C1355.51 271.866 1364.32 273.312 1370.22 271.728C1376.11 270.144 1381.62 264.299 1381.06 258.4C1380.51 252.501 1374.25 248.717 1374.25 248.717Z" fill="url(#paint61_linear)"/>
<path d="M1350.88 259.54L1367.18 257.687" stroke="#1C6563" stroke-linecap="round"/>
<path d="M1352.29 264.059L1370.25 263.33" stroke="#1C6563" stroke-linecap="round"/>
<path d="M1352.35 268.341C1355.55 268.848 1360.74 268.731 1364.39 268.601" stroke="#1C6563" stroke-linecap="round"/>
<path d="M1337.62 277.287C1339.21 278.396 1341.52 277.828 1342.79 276.018C1344.05 274.209 1343.8 271.843 1342.21 270.734C1340.63 269.625 1338.32 270.194 1337.05 272.003C1335.79 273.813 1336.04 276.179 1337.62 277.287Z" fill="#B9E6FF"/>
<path fill-rule="evenodd" clip-rule="evenodd" d="M1138.93 357.561C1138.93 350.503 1143.85 344.4 1150.74 342.903L1249.74 321.414C1259.09 319.385 1267.93 326.507 1267.93 336.073V417.044C1267.93 423.311 1264.03 428.917 1258.16 431.103L1159.16 467.94C1149.36 471.587 1138.93 464.338 1138.93 453.882V357.561Z" fill="url(#paint62_linear)" fill-opacity="0.385326"/>
<path fill-rule="evenodd" clip-rule="evenodd" d="M1251 71.8661C1251 66.2172 1255.68 61.6895 1261.32 61.8712L1332.32 64.1562C1337.72 64.3298 1342 68.7534 1342 74.151V133.41C1342 138.46 1338.24 142.717 1333.22 143.335L1262.22 152.085C1256.26 152.819 1251 148.168 1251 142.16V71.8661Z" fill="url(#paint63_linear)" fill-opacity="0.385326"/>
<path opacity="0.3" fill-rule="evenodd" clip-rule="evenodd" d="M1476 173.644C1476 171.626 1477.5 169.923 1479.51 169.674L1556.51 160.098C1558.89 159.801 1561 161.662 1561 164.067V233.61C1561 235.487 1559.69 237.112 1557.86 237.516L1480.86 254.469C1478.36 255.019 1476 253.118 1476 250.563V173.644Z" fill="url(#paint64_linear)" fill-opacity="0.385326"/>
<path fill-rule="evenodd" clip-rule="evenodd" d="M1386.93 263.528C1386.93 256.478 1391.84 250.38 1398.72 248.874L1502.79 226.121C1509.03 224.758 1514.93 229.507 1514.93 235.89V294.276C1514.93 298.682 1512.04 302.569 1507.83 303.846L1406.28 334.607C1396.64 337.525 1386.93 330.316 1386.93 320.251V263.528Z" fill="url(#paint65_linear)" fill-opacity="0.385326"/>
<defs>
<linearGradient id="paint0_linear" x1="1322.37" y1="499.503" x2="1400.26" y2="527.278" gradientUnits="userSpaceOnUse">
<stop stop-color="#5DF1D7"/>
<stop offset="1" stop-color="#128698"/>
</linearGradient>
<linearGradient id="paint1_linear" x1="1383.61" y1="482.809" x2="1426.33" y2="515.587" gradientUnits="userSpaceOnUse">
<stop stop-color="#042635"/>
<stop offset="1" stop-color="#001431"/>
</linearGradient>
<linearGradient id="paint2_linear" x1="1383.76" y1="488.887" x2="1383.64" y2="494.99" gradientUnits="userSpaceOnUse">
<stop stop-color="#28674F"/>
<stop offset="1" stop-color="#123635"/>
</linearGradient>
<linearGradient id="paint3_linear" x1="1381.83" y1="456.124" x2="1380.69" y2="472.932" gradientUnits="userSpaceOnUse">
<stop stop-color="#28674F"/>
<stop offset="1" stop-color="#123635"/>
</linearGradient>
<linearGradient id="paint4_linear" x1="1139.32" y1="147.106" x2="1253.06" y2="176.606" gradientUnits="userSpaceOnUse">
<stop stop-color="#5DF1D7"/>
<stop offset="1" stop-color="#128698"/>
</linearGradient>
<linearGradient id="paint5_linear" x1="1216.69" y1="133.228" x2="1274.83" y2="186.905" gradientUnits="userSpaceOnUse">
<stop stop-color="#042635"/>
<stop offset="1" stop-color="#001431"/>
</linearGradient>
<linearGradient id="paint6_linear" x1="1240.63" y1="148.689" x2="1171.41" y2="169.728" gradientUnits="userSpaceOnUse">
<stop stop-color="#00A5FF"/>
<stop offset="1" stop-color="#14329F"/>
</linearGradient>
<linearGradient id="paint7_linear" x1="1192.2" y1="160.364" x2="1191.53" y2="168.108" gradientUnits="userSpaceOnUse">
<stop stop-color="#28674F"/>
<stop offset="1" stop-color="#123635"/>
</linearGradient>
<linearGradient id="paint8_linear" x1="24.5633" y1="464.44" x2="1014.28" y2="616.406" gradientUnits="userSpaceOnUse">
<stop stop-color="#00A5FF" stop-opacity="0.01"/>
<stop offset="0.416977" stop-color="#2DB4FF" stop-opacity="0.13"/>
<stop offset="1" stop-color="#6CCAFF"/>
</linearGradient>
<linearGradient id="paint9_linear" x1="127.5" y1="262.039" x2="1131.26" y2="426.869" gradientUnits="userSpaceOnUse">
<stop stop-color="#121E2F" stop-opacity="0.01"/>
<stop offset="1" stop-color="#162D3E"/>
</linearGradient>
<linearGradient id="paint10_linear" x1="1217.89" y1="150.834" x2="1162.71" y2="157.292" gradientUnits="userSpaceOnUse">
<stop stop-color="#CAECFF"/>
<stop offset="1" stop-color="#00A5FF"/>
</linearGradient>
<linearGradient id="paint11_linear" x1="1433.88" y1="470.097" x2="1491.99" y2="437.077" gradientUnits="userSpaceOnUse">
<stop stop-color="#5DF1D7"/>
<stop offset="1" stop-color="#128698"/>
</linearGradient>
<linearGradient id="paint12_linear" x1="1469.63" y1="423.322" x2="1499.54" y2="403.274" gradientUnits="userSpaceOnUse">
<stop stop-color="#042635"/>
<stop offset="1" stop-color="#001431"/>
</linearGradient>
<linearGradient id="paint13_linear" x1="1456.94" y1="424.119" x2="1458.14" y2="426.389" gradientUnits="userSpaceOnUse">
<stop stop-color="#28674F"/>
<stop offset="1" stop-color="#123635"/>
</linearGradient>
<linearGradient id="paint14_linear" x1="1450.41" y1="425.959" x2="1451.27" y2="427.584" gradientUnits="userSpaceOnUse">
<stop stop-color="#28674F"/>
<stop offset="1" stop-color="#123635"/>
</linearGradient>
<linearGradient id="paint15_linear" x1="1444.02" y1="427.391" x2="1444.71" y2="428.675" gradientUnits="userSpaceOnUse">
<stop stop-color="#28674F"/>
<stop offset="1" stop-color="#123635"/>
</linearGradient>
<linearGradient id="paint16_linear" x1="1442.2" y1="399.918" x2="1451.48" y2="409.965" gradientUnits="userSpaceOnUse">
<stop stop-color="#28674F"/>
<stop offset="1" stop-color="#123635"/>
</linearGradient>
<linearGradient id="paint17_linear" x1="1017.88" y1="334.431" x2="1355.59" y2="429.587" gradientUnits="userSpaceOnUse">
<stop stop-color="#5DF1D7"/>
<stop offset="1" stop-color="#128698"/>
</linearGradient>
<linearGradient id="paint18_linear" x1="1387.81" y1="297.283" x2="1299.37" y2="252.744" gradientUnits="userSpaceOnUse">
<stop stop-color="#0DA8BA"/>
<stop offset="1" stop-color="#211E1E"/>
</linearGradient>
<linearGradient id="paint19_linear" x1="970.265" y1="347.191" x2="1069.89" y2="579.655" gradientUnits="userSpaceOnUse">
<stop stop-color="#5DF1D7"/>
<stop offset="1" stop-color="#128698"/>
</linearGradient>
<linearGradient id="paint20_linear" x1="1292.75" y1="301.269" x2="1280.7" y2="283.297" gradientUnits="userSpaceOnUse">
<stop stop-color="#0DA8BA"/>
<stop offset="1" stop-color="#211E1E"/>
</linearGradient>
<linearGradient id="paint21_linear" x1="1309.93" y1="352.522" x2="1322.54" y2="340.737" gradientUnits="userSpaceOnUse">
<stop stop-color="#042635"/>
<stop offset="1" stop-color="#001431"/>
</linearGradient>
<linearGradient id="paint22_linear" x1="1176.12" y1="263.914" x2="1235.33" y2="274.417" gradientUnits="userSpaceOnUse">
<stop stop-color="#042635"/>
<stop offset="1" stop-color="#001431"/>
</linearGradient>
<linearGradient id="paint23_linear" x1="1167.24" y1="264.231" x2="1226.45" y2="274.735" gradientUnits="userSpaceOnUse">
<stop stop-color="#042635"/>
<stop offset="1" stop-color="#001431"/>
</linearGradient>
<linearGradient id="paint24_linear" x1="1166.25" y1="158.459" x2="1169.6" y2="202.354" gradientUnits="userSpaceOnUse">
<stop stop-color="#042635"/>
<stop offset="1" stop-color="#001431"/>
</linearGradient>
<linearGradient id="paint25_linear" x1="1191.32" y1="161.655" x2="1201.77" y2="148.101" gradientUnits="userSpaceOnUse">
<stop stop-color="#28674F"/>
<stop offset="1" stop-color="#123635"/>
</linearGradient>
<linearGradient id="paint26_linear" x1="1194.43" y1="168.102" x2="1203.24" y2="153.272" gradientUnits="userSpaceOnUse">
<stop stop-color="#28674F"/>
<stop offset="1" stop-color="#123635"/>
</linearGradient>
<linearGradient id="paint27_linear" x1="1200.46" y1="172.12" x2="1211.74" y2="161.319" gradientUnits="userSpaceOnUse">
<stop stop-color="#28674F"/>
<stop offset="1" stop-color="#123635"/>
</linearGradient>
<linearGradient id="paint28_linear" x1="1206.24" y1="172.966" x2="1197.71" y2="159.59" gradientUnits="userSpaceOnUse">
<stop stop-color="#28674F"/>
<stop offset="1" stop-color="#123635"/>
</linearGradient>
<linearGradient id="paint29_linear" x1="1213.68" y1="176.464" x2="1203.48" y2="166.24" gradientUnits="userSpaceOnUse">
<stop stop-color="#28674F"/>
<stop offset="1" stop-color="#123635"/>
</linearGradient>
<linearGradient id="paint30_linear" x1="1221.03" y1="176.834" x2="1212.36" y2="172.373" gradientUnits="userSpaceOnUse">
<stop stop-color="#28674F"/>
<stop offset="1" stop-color="#123635"/>
</linearGradient>
<linearGradient id="paint31_linear" x1="1226.22" y1="190.971" x2="1229.79" y2="190.966" gradientUnits="userSpaceOnUse">
<stop stop-color="#28674F"/>
<stop offset="1" stop-color="#123635"/>
</linearGradient>
<linearGradient id="paint32_linear" x1="1234.28" y1="186.34" x2="1238.79" y2="186.314" gradientUnits="userSpaceOnUse">
<stop stop-color="#28674F"/>
<stop offset="1" stop-color="#123635"/>
</linearGradient>
<linearGradient id="paint33_linear" x1="1245.25" y1="176.622" x2="1236.42" y2="169.679" gradientUnits="userSpaceOnUse">
<stop stop-color="#2D8B67"/>
<stop offset="1" stop-color="#123635"/>
</linearGradient>
<linearGradient id="paint34_linear" x1="1252.26" y1="175.775" x2="1243.21" y2="167.76" gradientUnits="userSpaceOnUse">
<stop stop-color="#2D8B67"/>
<stop offset="1" stop-color="#123635"/>
</linearGradient>
<linearGradient id="paint35_linear" x1="1259.77" y1="174.908" x2="1251.88" y2="163.009" gradientUnits="userSpaceOnUse">
<stop stop-color="#2D8B67"/>
<stop offset="1" stop-color="#123635"/>
</linearGradient>
<linearGradient id="paint36_linear" x1="1127.67" y1="276.357" x2="1130.16" y2="333.273" gradientUnits="userSpaceOnUse">
<stop stop-color="#042635"/>
<stop offset="1" stop-color="#001431"/>
</linearGradient>
<linearGradient id="paint37_linear" x1="1281.18" y1="112.927" x2="1266.44" y2="116.075" gradientUnits="userSpaceOnUse">
<stop stop-color="#CEFFDD"/>
<stop offset="1" stop-color="#B2FFF9"/>
</linearGradient>
<linearGradient id="paint38_linear" x1="1275.02" y1="151.46" x2="1274.18" y2="157.88" gradientUnits="userSpaceOnUse">
<stop stop-color="#CEFFDD"/>
<stop offset="1" stop-color="#B2FFF9"/>
</linearGradient>
<linearGradient id="paint39_linear" x1="1184.48" y1="130.611" x2="1202.3" y2="133.279" gradientUnits="userSpaceOnUse">
<stop stop-color="#5DF1D7"/>
<stop offset="1" stop-color="#128698"/>
</linearGradient>
<linearGradient id="paint40_linear" x1="1198.08" y1="126.97" x2="1213.39" y2="128.287" gradientUnits="userSpaceOnUse">
<stop stop-color="#042635"/>
<stop offset="1" stop-color="#001431"/>
</linearGradient>
<linearGradient id="paint41_linear" x1="1102.09" y1="341.484" x2="1234.8" y2="389.72" gradientUnits="userSpaceOnUse">
<stop stop-color="#5DF1D7"/>
<stop offset="1" stop-color="#128698"/>
</linearGradient>
<linearGradient id="paint42_linear" x1="1279.81" y1="288.032" x2="1272.41" y2="288.226" gradientUnits="userSpaceOnUse">
<stop stop-color="#28674F"/>
<stop offset="1" stop-color="#123635"/>
</linearGradient>
<linearGradient id="paint43_linear" x1="1271.53" y1="287.2" x2="1267.33" y2="293.556" gradientUnits="userSpaceOnUse">
<stop stop-color="#28674F"/>
<stop offset="1" stop-color="#123635"/>
</linearGradient>
<linearGradient id="paint44_linear" x1="1268.89" y1="284.519" x2="1248.23" y2="284.341" gradientUnits="userSpaceOnUse">
<stop stop-color="#28674F"/>
<stop offset="1" stop-color="#123635"/>
</linearGradient>
<linearGradient id="paint45_linear" x1="1245.32" y1="289.501" x2="1207.31" y2="292.279" gradientUnits="userSpaceOnUse">
<stop stop-color="#5CDEAC"/>
<stop offset="1" stop-color="#123635"/>
</linearGradient>
<linearGradient id="paint46_linear" x1="1237.31" y1="291.451" x2="1229.3" y2="290.073" gradientUnits="userSpaceOnUse">
<stop stop-color="#28674F"/>
<stop offset="1" stop-color="#123635"/>
</linearGradient>
<linearGradient id="paint47_linear" x1="1255.08" y1="211.003" x2="1254.74" y2="216.717" gradientUnits="userSpaceOnUse">
<stop stop-color="#BAFEFF"/>
<stop offset="1" stop-color="#A5FFFE"/>
</linearGradient>
<linearGradient id="paint48_linear" x1="1170.96" y1="204.106" x2="1216.32" y2="217.687" gradientUnits="userSpaceOnUse">
<stop stop-color="#042635"/>
<stop offset="1" stop-color="#001431"/>
</linearGradient>
<linearGradient id="paint49_linear" x1="1208.01" y1="221.024" x2="1205.63" y2="217.886" gradientUnits="userSpaceOnUse">
<stop stop-color="#BAFEFF"/>
<stop offset="1" stop-color="#A5FFFE"/>
</linearGradient>
<linearGradient id="paint50_linear" x1="1367.04" y1="321.64" x2="1373.69" y2="308.925" gradientUnits="userSpaceOnUse">
<stop stop-color="#042635"/>
<stop offset="1" stop-color="#001431"/>
</linearGradient>
<linearGradient id="paint51_linear" x1="1271.44" y1="204.167" x2="1289.7" y2="204.856" gradientUnits="userSpaceOnUse">
<stop stop-color="#042635"/>
<stop offset="1" stop-color="#001431"/>
</linearGradient>
<linearGradient id="paint52_linear" x1="1219.03" y1="155.325" x2="1213.14" y2="158.719" gradientUnits="userSpaceOnUse">
<stop stop-color="#8AABFF"/>
<stop offset="1" stop-color="#2146A5"/>
</linearGradient>
<linearGradient id="paint53_linear" x1="1208.99" y1="155.16" x2="1206.03" y2="156.867" gradientUnits="userSpaceOnUse">
<stop stop-color="#8AABFF"/>
<stop offset="1" stop-color="#2146A5"/>
</linearGradient>
<linearGradient id="paint54_linear" x1="1203.19" y1="152.44" x2="1200.83" y2="153.796" gradientUnits="userSpaceOnUse">
<stop stop-color="#8AABFF"/>
<stop offset="1" stop-color="#2146A5"/>
</linearGradient>
<linearGradient id="paint55_linear" x1="1205.96" y1="87.0166" x2="1209.8" y2="122.183" gradientUnits="userSpaceOnUse">
<stop stop-color="#042635"/>
<stop offset="1" stop-color="#001431"/>
</linearGradient>
<linearGradient id="paint56_linear" x1="1367.06" y1="282.786" x2="1270.48" y2="342.898" gradientUnits="userSpaceOnUse">
<stop stop-color="#00A5FF"/>
<stop offset="1" stop-color="#14329F"/>
</linearGradient>
<linearGradient id="paint57_linear" x1="1351.32" y1="300.809" x2="1323.77" y2="329.537" gradientUnits="userSpaceOnUse">
<stop stop-color="#CAECFF"/>
<stop offset="1" stop-color="#00A5FF"/>
</linearGradient>
<linearGradient id="paint58_linear" x1="1358.88" y1="238.678" x2="1362.63" y2="248.317" gradientUnits="userSpaceOnUse">
<stop stop-color="#042635"/>
<stop offset="1" stop-color="#001431"/>
</linearGradient>
<linearGradient id="paint59_linear" x1="1416.16" y1="238.193" x2="1337" y2="260.592" gradientUnits="userSpaceOnUse">
<stop stop-color="#00A5FF"/>
<stop offset="1" stop-color="#14329F"/>
</linearGradient>
<linearGradient id="paint60_linear" x1="1224.63" y1="245.19" x2="1283.48" y2="326.953" gradientUnits="userSpaceOnUse">
<stop stop-color="#CAECFF"/>
<stop offset="1" stop-color="#0399EB"/>
</linearGradient>
<linearGradient id="paint61_linear" x1="1378.24" y1="256.253" x2="1362.45" y2="253.914" gradientUnits="userSpaceOnUse">
<stop stop-color="#28674F"/>
<stop offset="1" stop-color="#123635"/>
</linearGradient>
<linearGradient id="paint62_linear" x1="1142.53" y1="447.68" x2="1338.77" y2="355.883" gradientUnits="userSpaceOnUse">
<stop stop-color="#56E1FF"/>
<stop offset="1" stop-color="white" stop-opacity="0"/>
</linearGradient>
<linearGradient id="paint63_linear" x1="1253.54" y1="137.3" x2="1367.53" y2="84.0065" gradientUnits="userSpaceOnUse">
<stop stop-color="#56FFA4"/>
<stop offset="1" stop-color="#56FFFF" stop-opacity="0"/>
</linearGradient>
<linearGradient id="paint64_linear" x1="1478.37" y1="236.183" x2="1602.06" y2="171.415" gradientUnits="userSpaceOnUse">
<stop stop-color="#56E1FF"/>
<stop offset="1" stop-color="#78FF56" stop-opacity="0"/>
</linearGradient>
<linearGradient id="paint65_linear" x1="1390.5" y1="319.539" x2="1562.5" y2="213.539" gradientUnits="userSpaceOnUse">
<stop stop-color="#56E1FF"/>
<stop offset="1" stop-color="#78FF56" stop-opacity="0"/>
</linearGradient>
</defs>
</svg>
