<svg width="35" height="35" viewBox="0 0 35 35" fill="none" xmlns="http://www.w3.org/2000/svg">
<path d="M19.9699 17.9785C18.9735 17.9785 18.1658 18.7768 18.1658 19.7615V24.0911C18.1658 25.0758 18.9735 25.8741 19.9699 25.8741H25.6823C26.6787 25.8741 27.4864 25.0758 27.4864 24.0911V19.7615C27.4864 18.7768 26.6787 17.9785 25.6823 17.9785H19.9699Z" fill="#12D6D6"/>
<path fill-rule="evenodd" clip-rule="evenodd" d="M9.61164 3.56324C9.61164 2.80344 10.2349 2.1875 11.0037 2.1875C11.7725 2.1875 12.3957 2.80344 12.3957 3.56323V5.85608H21.676V3.56324C21.676 2.80344 22.2992 2.1875 23.068 2.1875C23.8368 2.1875 24.46 2.80344 24.46 3.56323V5.85608H28.1723C29.062 5.85608 29.8785 6.16535 30.5179 6.68104C31.8082 7.47462 32.8125 8.76647 32.8125 10.2253V27.1672C32.8125 29.5803 30.0647 31.5365 27.8198 31.5365H6.25217C4.00731 31.5365 2.1875 29.5803 2.1875 27.1672V9.52471C2.1875 7.49858 3.84947 5.85608 5.89962 5.85608H9.61164V3.56324ZM4.85054 26.0777V14.1105H30.1495V26.0777C30.1495 27.4188 29.059 28.5059 27.7138 28.5059H7.28615C5.941 28.5059 4.85054 27.4188 4.85054 26.0777Z" fill="#12D6D6"/>
</svg>
