<svg width="708" height="685" viewBox="0 0 708 685" fill="none" xmlns="http://www.w3.org/2000/svg">
<path d="M507.433 358.571L452.532 349.144L464.177 412.308C466.012 422.262 475.083 429.212 485.171 428.393C494.807 427.611 502.456 419.961 503.237 410.325L507.433 358.571Z" fill="url(#paint0_linear)"/>
<mask id="mask0" mask-type="alpha" maskUnits="userSpaceOnUse" x="452" y="349" width="56" height="81">
<path d="M507.433 358.571L452.532 349.144L465.885 421.576C466.75 426.266 471.024 429.541 475.777 429.155L494.009 427.676C498.549 427.308 502.153 423.703 502.521 419.163L507.433 358.571Z" fill="white"/>
</mask>
<g mask="url(#mask0)">
<path opacity="0.696289" d="M452.934 378.008L505.279 403.562L508.485 380.113L450.902 352.953L452.934 378.008Z" fill="url(#paint1_linear)"/>
</g>
<path d="M563.823 364.947L504.985 356.152L507.47 411.04C507.916 420.883 515.266 429.033 525.011 430.49C535.049 431.99 544.684 425.959 547.722 416.276L563.823 364.947Z" fill="url(#paint2_linear)"/>
<mask id="mask1" mask-type="alpha" maskUnits="userSpaceOnUse" x="504" y="356" width="60" height="77">
<path d="M563.823 364.947L504.985 356.152L507.891 420.341C508.092 424.78 511.407 428.456 515.802 429.113L534.583 431.92C539.11 432.597 543.455 429.877 544.825 425.51L563.823 364.947Z" fill="white"/>
</mask>
<g mask="url(#mask1)">
<path opacity="0.696289" d="M550.285 380.649L502.078 403.677L503.866 377.253L550.285 380.649Z" fill="url(#paint3_linear)"/>
</g>
<path d="M426.003 248.647C424.967 240.498 417.521 234.733 409.372 235.769C401.224 236.805 395.458 244.251 396.494 252.399C400.7 285.474 426.477 308.732 457.524 312.62C465.675 313.641 473.11 307.861 474.13 299.71C475.134 291.691 469.556 284.365 461.613 283.159L461.22 283.104C443.082 280.833 428.413 267.597 426.003 248.647Z" fill="url(#paint4_linear)"/>
<path opacity="0.4" fill-rule="evenodd" clip-rule="evenodd" d="M423.158 241.843C418.66 243.193 413.443 243.915 407.891 243.806C404.56 243.74 401.36 243.38 398.373 242.773C400.647 239.049 404.531 236.355 409.196 235.762C414.802 235.049 420.076 237.556 423.158 241.843Z" fill="url(#paint5_linear)"/>
<path opacity="0.227028" fill-rule="evenodd" clip-rule="evenodd" d="M462.495 312.406L466.695 284.911C465.162 284.043 463.45 283.436 461.612 283.157L461.219 283.102C443.08 280.831 428.411 267.595 426.002 248.645C425.562 245.192 423.973 242.167 421.666 239.907C421.452 256.917 422.699 282.938 431.316 295.89C435.122 301.611 439.188 305.976 443.06 309.293C447.701 310.873 452.544 311.995 457.523 312.618C459.229 312.832 460.904 312.747 462.495 312.406Z" fill="url(#paint6_linear)"/>
<path opacity="0.227028" fill-rule="evenodd" clip-rule="evenodd" d="M449.589 311.179C452.187 311.8 454.836 312.281 457.523 312.618C465.674 313.639 473.108 307.859 474.129 299.708C475.133 291.689 469.554 284.363 461.612 283.157L461.219 283.102C452.562 282.018 444.696 278.437 438.575 272.929C439.586 286.236 442.077 300.033 447.637 308.39C448.281 309.358 448.933 310.287 449.589 311.179Z" fill="url(#paint7_linear)"/>
<path d="M599.013 295.77C599.126 289.993 594.535 285.217 588.758 285.104C582.981 284.99 578.206 289.581 578.092 295.358L577.972 301.481C577.859 307.258 582.45 312.034 588.227 312.147C594.004 312.261 598.779 307.67 598.892 301.893L599.013 295.77Z" fill="url(#paint8_linear)"/>
<path d="M593.362 288.631C593.616 275.681 583.324 264.976 570.374 264.721L542.765 264.179C539.641 264.117 537.059 266.6 536.997 269.724L535.778 331.724C535.717 334.848 538.2 337.431 541.324 337.492L568.932 338.035C581.883 338.29 592.588 327.997 592.842 315.047L593.362 288.631Z" fill="url(#paint9_linear)"/>
<path opacity="0.4" d="M580.921 287.949C581.125 277.532 572.847 268.921 562.43 268.717L543.438 268.343C533.022 268.138 524.411 276.417 524.206 286.834L523.588 318.275C523.384 328.692 531.662 337.302 542.079 337.507L561.071 337.88C571.487 338.085 580.098 329.807 580.303 319.39L580.921 287.949Z" fill="url(#paint10_linear)"/>
<path d="M563.093 279.799L452.431 277.624L448.203 348.445C447.133 366.367 461.186 381.582 479.137 381.935L525.022 382.837C557.175 383.469 581.191 353.45 573.517 322.22L563.093 279.799Z" fill="url(#paint11_linear)"/>
<mask id="mask2" mask-type="alpha" maskUnits="userSpaceOnUse" x="447" y="277" width="138" height="107">
<path d="M563.093 279.799L452.432 277.624L447.195 365.333C446.675 374.04 453.502 381.431 462.222 381.602L568.735 383.696C578.823 383.894 586.357 374.476 583.95 364.678L563.093 279.799Z" fill="white"/>
</mask>
<g mask="url(#mask2)">
<path opacity="0.3" d="M478.598 301.593C479.493 301.611 480.221 302.044 480.299 302.583L480.306 302.693L479.638 336.657C479.626 337.246 478.843 337.708 477.888 337.689C476.993 337.671 476.265 337.237 476.187 336.698L476.18 336.589L476.847 302.625C476.859 302.036 477.643 301.574 478.598 301.593Z" fill="#17413B"/>
<path opacity="0.522926" d="M562.655 285.403C558.268 278.01 548.719 275.574 541.326 279.961C533.934 284.348 531.497 293.897 535.885 301.29C546.541 319.247 550.97 336.104 549.11 357.857C548.377 366.422 554.727 373.959 563.292 374.692C571.856 375.424 579.394 369.075 580.126 360.51C582.535 332.347 576.659 309.001 562.655 285.403Z" fill="url(#paint12_linear)"/>
<path opacity="0.3" d="M541.23 380.684L487.426 343.546C481.555 339.493 473.668 339.39 468.943 344.736C462.562 351.956 456.009 363.541 462.099 377.033C474.616 386.917 534.037 384.174 541.23 380.684Z" fill="url(#paint13_linear)"/>
</g>
<rect x="527.77" y="338.848" width="65.2472" height="46.3588" rx="5.0986" transform="rotate(1.12623 527.77 338.848)" fill="url(#paint14_linear)"/>
<g filter="url(#filter0_d)">
<rect x="529.313" y="340.129" width="65.2472" height="46.3588" rx="5.0986" transform="rotate(1.12623 529.313 340.129)" fill="url(#paint15_linear)"/>
</g>
<circle opacity="0.4" cx="560.47" cy="365.26" r="8.0166" transform="rotate(1.12623 560.47 365.26)" fill="url(#paint16_linear)"/>
<path d="M506.907 286.998C464.507 286.164 430.811 251.117 431.644 208.717C432.478 166.317 467.525 132.621 509.925 133.455C552.325 134.288 586.021 169.336 585.188 211.736C584.354 254.135 549.307 287.832 506.907 286.998Z" fill="url(#paint17_linear)"/>
<mask id="mask3" mask-type="alpha" maskUnits="userSpaceOnUse" x="431" y="133" width="155" height="155">
<path d="M506.907 286.998C464.507 286.164 430.811 251.117 431.644 208.717C432.478 166.317 467.525 132.621 509.925 133.455C552.325 134.288 586.021 169.336 585.188 211.736C584.354 254.135 549.307 287.832 506.907 286.998Z" fill="white"/>
</mask>
<g mask="url(#mask3)">
<path d="M584.37 169.188C584.37 169.188 557.238 152.198 539.928 151.858C522.619 151.517 499.657 163.196 477.626 162.763C455.594 162.33 455.874 138.63 455.874 138.63L527.011 126.556L572.158 140.916L584.37 169.188Z" fill="url(#paint18_linear)"/>
<path d="M440.193 164.802C440.193 164.802 445.333 160.745 450.762 162.93C456.191 165.116 456.759 172.064 469.967 176.26C483.175 180.455 505.796 170.472 519.664 177.237C537.979 186.17 549.715 214.166 541.617 244.831C534.497 271.792 504.739 286.8 504.739 286.8L447.61 275.779L419.566 213.66L440.193 164.802Z" fill="url(#paint19_linear)"/>
<path opacity="0.3" fill-rule="evenodd" clip-rule="evenodd" d="M522.444 197.071C524.166 195.849 526.553 196.254 527.776 197.976C532.019 203.953 535.274 215.957 534.955 228.898C534.632 242.001 530.634 256.866 519.412 268.293C517.933 269.8 515.512 269.822 514.005 268.342C512.498 266.863 512.476 264.442 513.956 262.935C523.428 253.288 527.019 240.514 527.31 228.71C527.605 216.744 524.499 206.572 521.539 202.403C520.317 200.68 520.722 198.293 522.444 197.071Z" fill="url(#paint20_linear)"/>
<ellipse opacity="0.3" cx="515.99" cy="189.388" rx="4.26591" ry="4.63294" transform="rotate(1.12623 515.99 189.388)" fill="url(#paint21_linear)"/>
<path opacity="0.4" d="M543.564 133.83L541.629 133.462C527.003 130.727 517.072 130.023 507.74 131.701C495.452 133.911 485.794 140.439 478.533 152.364C477.977 153.278 478.267 154.47 479.181 155.026C480.094 155.582 481.286 155.293 481.842 154.379C488.521 143.409 497.221 137.529 508.426 135.514C517.569 133.87 527.569 134.681 542.828 137.633C543.878 137.836 544.894 137.15 545.097 136.099C545.301 135.049 544.614 134.033 543.564 133.83Z" fill="#17413B"/>
</g>
<rect width="24.9037" height="30.4379" rx="4.44523" transform="matrix(-0.99475 0.102337 0.102337 0.99475 572.677 185.868)" fill="url(#paint22_linear)"/>
<rect width="24.9037" height="30.4379" rx="4.44523" transform="matrix(-0.99475 0.102337 0.102337 0.99475 575.444 185.923)" fill="url(#paint23_linear)"/>
<path opacity="0.482399" d="M555.541 200.929L555.852 206.429C555.978 208.656 556.463 210.681 557.206 212.373L561.237 211.299L560.233 193.893L556.552 193.531C555.775 195.707 555.391 198.266 555.541 200.929Z" fill="url(#paint24_linear)"/>
<path d="M558.429 193.242C558.385 192.856 558.859 192.636 559.125 192.919L560.401 194.276L562.293 210.66L561.356 212.354C561.165 212.698 560.645 212.595 560.6 212.204L558.429 193.242Z" fill="#17413B"/>
<path d="M566.805 285.485C562.418 278.092 552.869 275.656 545.477 280.043C538.084 284.43 535.648 293.979 540.035 301.372C550.692 319.329 555.121 336.186 553.26 357.939C552.528 366.504 558.877 374.042 567.442 374.774C576.007 375.507 583.544 369.157 584.277 360.592C586.685 332.429 580.81 309.083 566.805 285.485Z" fill="url(#paint25_linear)"/>
<path opacity="0.4" fill-rule="evenodd" clip-rule="evenodd" d="M580.571 369.199C576.675 367.276 571.682 366.072 566.22 365.964C562.395 365.889 558.778 366.361 555.591 367.257C558.098 371.268 562.395 374.091 567.471 374.526C572.632 374.967 577.421 372.836 580.571 369.199Z" fill="url(#paint26_linear)"/>
<path fill-rule="evenodd" clip-rule="evenodd" d="M455.501 264.632C451.963 261.424 446.495 261.691 443.287 265.229C440.079 268.767 440.346 274.236 443.884 277.444C460.133 292.178 484.083 299.194 509.984 298.719C533.178 298.294 555.431 291.733 567.409 281.451C571.033 278.341 571.449 272.882 568.339 269.258C565.304 265.723 560.034 265.24 556.413 268.107L556.145 268.328C547.642 275.628 529.182 281.07 509.667 281.428C487.816 281.829 468.093 276.051 455.501 264.632Z" fill="url(#paint27_linear)"/>
<mask id="mask4" mask-type="alpha" maskUnits="userSpaceOnUse" x="441" y="262" width="130" height="37">
<path fill-rule="evenodd" clip-rule="evenodd" d="M455.501 264.632C451.963 261.424 446.495 261.691 443.287 265.229C440.079 268.767 440.346 274.236 443.884 277.444C460.133 292.178 484.083 299.194 509.984 298.719C533.178 298.294 555.431 291.733 567.409 281.451C571.033 278.341 571.449 272.882 568.339 269.258C565.304 265.723 560.034 265.24 556.413 268.107L556.145 268.328C547.642 275.628 529.182 281.07 509.667 281.428C487.816 281.829 468.093 276.051 455.501 264.632Z" fill="white"/>
</mask>
<g mask="url(#mask4)">
<path opacity="0.969457" d="M549.604 268.651L548.549 270.438C556.795 275.31 560.295 282.681 558.979 292.851L558.902 293.408L560.956 293.706C562.566 282.622 558.867 274.337 550.072 268.933L549.604 268.651Z" fill="url(#paint28_linear)"/>
<path opacity="0.969457" d="M551.875 264.266L551.161 266.215C560.156 269.508 564.937 276.12 565.491 286.359L565.517 286.921L567.591 286.841C567.159 275.648 562.017 268.173 552.386 264.459L551.875 264.266Z" fill="url(#paint29_linear)"/>
<path opacity="0.969457" d="M534.855 274.483L533.154 275.671C537.717 282.204 540.169 289.657 540.856 298.305L540.919 299.174L542.99 299.039C542.397 289.953 539.96 282.07 535.312 275.15L534.855 274.483Z" fill="url(#paint30_linear)"/>
<path opacity="0.969457" d="M541.388 269.331L539.936 270.814C545.633 276.386 549.428 283.254 551.709 291.623L551.932 292.465L553.942 291.948C551.671 283.131 547.812 275.838 541.96 269.901L541.388 269.331Z" fill="url(#paint31_linear)"/>
<path opacity="0.969457" d="M516.691 274.907L514.636 275.203L514.839 276.546L515.184 278.666C516.716 287.928 516.922 293.396 515.33 304.745L515.204 305.63L517.258 305.927L517.508 304.146C518.958 293.45 518.767 287.839 517.349 279.047L516.82 275.776L516.691 274.907Z" fill="url(#paint32_linear)"/>
<path opacity="0.969457" d="M507.746 274.869L505.692 275.166L505.895 276.508L506.24 278.628C507.771 287.891 507.978 293.359 506.386 304.708L506.26 305.592L508.314 305.889L508.563 304.109C510.013 293.413 509.822 287.802 508.405 279.01L507.875 275.739L507.746 274.869Z" fill="url(#paint33_linear)"/>
<path opacity="0.969457" d="M526.385 273.533L524.374 274.046L524.718 275.36L525.286 277.431C527.792 286.478 528.578 291.894 528.199 303.348L528.167 304.241L530.241 304.318L530.3 302.521C530.607 291.732 529.822 286.173 527.479 277.581L526.606 274.384L526.385 273.533Z" fill="url(#paint34_linear)"/>
<path opacity="0.969457" d="M499.268 272.158L497.232 271.754L496.69 274.44C494.174 286.811 493.473 293.407 494.359 304.498L494.439 305.459L496.507 305.282C495.55 294.154 496.137 287.762 498.516 275.885L499.268 272.158Z" fill="url(#paint35_linear)"/>
<path opacity="0.969457" d="M490.458 270.41L488.462 269.842L487.704 272.475C484.186 284.6 482.95 291.116 482.928 302.242L482.929 303.207L485.004 303.199C484.958 292.03 486.065 285.708 489.405 274.065L490.458 270.41Z" fill="url(#paint36_linear)"/>
<path opacity="0.969457" d="M479.007 272.108C474.969 283.255 473.167 290.909 472.965 300.981L472.951 301.933L475.026 301.954C475.126 291.99 476.763 284.571 480.593 273.832L480.958 272.815L479.007 272.108Z" fill="url(#paint37_linear)"/>
<path opacity="0.969457" d="M470.963 267.299C465.746 277.945 463.129 285.359 461.841 295.351L461.725 296.296L463.785 296.541C464.96 286.645 467.388 279.447 472.354 269.183L472.827 268.212L470.963 267.299Z" fill="url(#paint38_linear)"/>
<path opacity="0.969457" d="M465.745 265.945L464.01 264.806L463.338 265.828C456.288 276.531 453.865 282.314 454.065 292.356L454.081 293.003L456.156 292.94C455.867 283.438 457.905 278.036 464.222 268.269L465.745 265.945Z" fill="url(#paint39_linear)"/>
<path opacity="0.969457" d="M455.78 260.807L454.044 259.668L453.372 260.69C446.322 271.393 443.9 277.176 444.099 287.218L444.116 287.865L446.19 287.802C445.902 278.3 447.939 272.898 454.257 263.131L455.78 260.807Z" fill="url(#paint40_linear)"/>
</g>
<path fill-rule="evenodd" clip-rule="evenodd" d="M562.172 256.257C561.408 256.242 560.8 255.611 560.816 254.847C560.831 254.083 561.462 253.476 562.226 253.491C562.99 253.506 563.597 254.137 563.582 254.901C563.567 255.665 562.936 256.272 562.172 256.257Z" fill="url(#paint41_linear)"/>
<path fill-rule="evenodd" clip-rule="evenodd" d="M556.53 261.682C555.766 261.667 555.159 261.036 555.174 260.272C555.189 259.508 555.82 258.901 556.584 258.916C557.348 258.931 557.955 259.562 557.94 260.326C557.925 261.09 557.294 261.697 556.53 261.682Z" fill="url(#paint42_linear)"/>
<path fill-rule="evenodd" clip-rule="evenodd" d="M550.915 265.722C550.151 265.707 549.544 265.076 549.559 264.312C549.574 263.548 550.205 262.94 550.969 262.955C551.733 262.97 552.34 263.602 552.325 264.366C552.31 265.13 551.679 265.737 550.915 265.722Z" fill="url(#paint43_linear)"/>
<path fill-rule="evenodd" clip-rule="evenodd" d="M571.235 286.228C559.428 277.176 537.976 287.091 537.634 304.767C537.533 310.015 544.652 314.207 544.917 311.738C546.289 298.95 561.533 290.278 571.934 295.019L572.255 295.17C574.487 296.258 576.243 290.067 571.235 286.228Z" fill="url(#paint44_linear)"/>
<rect width="4.44523" height="22.2261" rx="2.22261" transform="matrix(-0.999807 -0.0196552 -0.0196552 0.999807 461.674 301.261)" fill="#A7DFFF"/>
<path fill-rule="evenodd" clip-rule="evenodd" d="M510.446 313.796L510.219 325.327L506.026 325.245L506.253 313.714L510.446 313.796ZM518.987 306.099L518.76 317.63L514.567 317.548L514.711 310.209L506.325 310.045L506.407 305.851L518.987 306.099Z" fill="#A7DFFF"/>
<path d="M708 528.667H0.422852C26.5837 580.669 132.323 684.673 345.993 684.673C559.663 684.673 676.36 580.669 708 528.667Z" fill="url(#paint45_radial)"/>
<path d="M322.367 281.058L356.059 544.521H422.624L440.955 311.885L322.367 281.058Z" fill="url(#paint46_linear)"/>
<path d="M322.367 281.058L356.059 544.521H422.624L440.955 311.885L322.367 281.058Z" fill="url(#paint47_linear)"/>
<path opacity="0.2" d="M330.79 346.923L339.213 412.789L440.955 311.884L381.661 296.471L330.79 346.923Z" fill="url(#paint48_linear)"/>
<path opacity="0.660877" d="M428.112 308.547L440.955 311.886L422.623 544.522L413.914 544.521L428.112 308.547Z" fill="url(#paint49_linear)"/>
<rect x="331.845" y="541.459" width="347.111" height="11.8779" rx="5.93893" fill="url(#paint50_linear)"/>
<path fill-rule="evenodd" clip-rule="evenodd" d="M375.702 374.922V408.061H363.824V374.922H375.702ZM399.458 352.327V385.466H387.58V364.377H363.824V352.327H399.458Z" fill="url(#paint51_linear)"/>
<path d="M331.845 273.75L416.15 297.32C416.545 297.43 416.818 297.79 416.818 298.2V300.895C416.818 301.493 416.254 301.929 415.676 301.78L331.845 280.146V273.75Z" fill="url(#paint52_linear)"/>
<path d="M323.042 231.412C323.267 231.253 323.552 231.204 323.817 231.278L376.446 246.036C377.11 246.222 377.613 246.767 377.746 247.444L386.381 291.484C386.512 292.151 385.894 292.723 385.239 292.54L331.971 277.695C331.33 277.516 330.836 277.003 330.683 276.355L320.472 233.231L323.042 231.412Z" fill="url(#paint53_linear)"/>
<g filter="url(#filter1_d)">
<path d="M319.967 232.635L375.702 248.167L384.839 293.851L329.104 278.319L319.967 232.635Z" fill="url(#paint54_linear)"/>
</g>
<g filter="url(#filter2_d)">
<path d="M353.442 266.549C354.667 265.659 354.578 263.448 353.243 261.611C351.908 259.774 349.834 259.006 348.609 259.896C347.384 260.786 347.473 262.996 348.808 264.833C350.143 266.67 352.218 267.438 353.442 266.549Z" fill="url(#paint55_linear)"/>
</g>
<path fill-rule="evenodd" clip-rule="evenodd" d="M443.424 225.115L444.119 227.292C419.572 235.126 400.206 263.914 401.025 292.265L401.056 293.124L398.774 293.223C397.502 263.883 417.228 233.954 442.652 225.369L443.424 225.115Z" fill="url(#paint56_linear)"/>
<rect x="389.407" y="287.455" width="21.0147" height="13.7052" rx="1.82736" fill="url(#paint57_linear)"/>
<path opacity="0.4" d="M388.738 292.024L410.666 297.049V301.161H388.738V292.024Z" fill="url(#paint58_linear)"/>
<path d="M444.228 229.893C446.247 229.893 447.883 228.257 447.883 226.239C447.883 224.22 446.247 222.584 444.228 222.584C442.21 222.584 440.574 224.22 440.574 226.239C440.574 228.257 442.21 229.893 444.228 229.893Z" fill="url(#paint59_linear)"/>
<path opacity="0.969457" d="M302.185 272.505C302.21 271.923 302.765 271.513 303.328 271.66L453.941 310.947C454.357 311.056 454.641 311.44 454.623 311.871L454.34 318.402C454.315 318.984 453.76 319.394 453.197 319.247L302.584 279.96C302.168 279.851 301.884 279.467 301.902 279.036L302.185 272.505Z" fill="url(#paint60_linear)"/>
<g opacity="0.5" filter="url(#filter3_d)">
<path fill-rule="evenodd" clip-rule="evenodd" d="M198.049 77.4752C198.049 71.1685 202.646 65.803 208.878 64.8352L302.074 50.3619C309.828 49.1577 316.828 55.1549 316.828 63.002V148.789C316.828 155.77 311.232 161.461 304.252 161.579L211.056 163.148C203.909 163.269 198.049 157.507 198.049 150.358V77.4752Z" fill="#12E2EF" fill-opacity="0.7"/>
</g>
<g opacity="0.5">
<mask id="mask5" mask-type="alpha" maskUnits="userSpaceOnUse" x="198" y="50" width="119" height="114">
<path fill-rule="evenodd" clip-rule="evenodd" d="M198.049 77.4752C198.049 71.1685 202.646 65.803 208.878 64.8352L302.074 50.3619C309.828 49.1577 316.828 55.1549 316.828 63.002V148.789C316.828 155.77 311.232 161.461 304.252 161.579L211.056 163.148C203.909 163.269 198.049 157.507 198.049 150.358V77.4752Z" fill="white"/>
</mask>
<g mask="url(#mask5)">
<path d="M302.666 70.9128C305.441 70.9128 307.691 68.6629 307.691 65.8876C307.691 63.1122 305.441 60.8623 302.666 60.8623C299.891 60.8623 297.641 63.1122 297.641 65.8876C297.641 68.6629 299.891 70.9128 302.666 70.9128Z" fill="white"/>
<path d="M302.666 74.5675C307.46 74.5675 311.346 70.6813 311.346 65.8875C311.346 61.0937 307.46 57.2075 302.666 57.2075C297.872 57.2075 293.986 61.0937 293.986 65.8875C293.986 70.6813 297.872 74.5675 302.666 74.5675Z" stroke="white" stroke-width="1.82736"/>
<path d="M282.085 93.0098C283.998 93.0238 285.056 93.2894 285.259 93.8066C285.565 94.5822 285.565 98.9412 285.565 100.036C285.565 100.766 284.568 101.608 282.574 102.562L282.085 93.0098Z" fill="url(#paint61_linear)"/>
<path fill-rule="evenodd" clip-rule="evenodd" d="M289.577 148.366C289.572 148.464 289.587 148.565 289.622 148.656C293.533 159.002 297.244 165.688 300.755 168.717C306.046 173.279 314.538 170.615 319.309 162.04C322.428 156.434 309.087 140.238 308.812 139.706C305.351 133.018 296.306 122.94 293.74 122.824C291.912 122.741 290.525 131.256 289.577 148.366Z" fill="url(#paint62_linear)"/>
<path opacity="0.1" fill-rule="evenodd" clip-rule="evenodd" d="M291.603 131.099C293.877 136.128 296.015 143.803 298.016 154.125C300.598 167.447 310.831 168.974 317.519 164.772C312.62 171.134 305.435 172.753 300.755 168.717C297.229 165.675 293.499 158.941 289.569 148.517L289.667 146.796C290.032 140.595 290.458 135.597 290.946 131.802L291.603 131.099Z" fill="#262626"/>
<path fill-rule="evenodd" clip-rule="evenodd" d="M219.831 139.019C226.978 128.552 230.822 124.089 235.339 122.824C239.975 121.525 240.668 130.411 237.417 149.482C237.406 149.55 237.383 149.618 237.353 149.68C232.405 159.581 228.076 165.964 224.365 168.829C218.781 173.14 210.7 173.14 207.317 163.626C205.531 158.604 204.464 151.01 204.102 137.88C204.092 137.52 204.153 137.189 204.464 137.038L217.036 130.942C217.359 130.785 217.748 130.897 217.938 131.202C217.938 131.202 219.545 139.439 219.831 139.019Z" fill="url(#paint63_linear)"/>
<path opacity="0.1" fill-rule="evenodd" clip-rule="evenodd" d="M234.351 134.851L238.733 140.637L238.596 141.726C238.285 144.12 237.886 146.739 237.399 149.586L236.943 150.495C232.166 159.933 227.973 166.043 224.365 168.829C223.749 169.304 223.113 169.687 222.463 169.986C227.773 166.033 229.219 159.054 229.753 152.418L229.791 151.92C230.201 146.386 231.72 140.697 234.351 134.851Z" fill="#262626"/>
<path fill-rule="evenodd" clip-rule="evenodd" d="M246.27 114.419C246.172 114.423 246.075 114.449 245.987 114.492C240.429 117.274 236.341 120.051 233.721 122.824C229.761 127.017 235.644 144.087 235.644 150.658C235.644 157.229 235.564 181.818 237.4 185.74C239.236 189.663 252.341 192.79 267.639 192.79C282.937 192.79 291.486 184.159 292.629 181.017C293.772 177.874 289.804 158.507 291.216 147.707C292.147 140.585 292.981 132.394 293.716 123.134C293.731 122.937 293.664 122.742 293.526 122.601C290.707 119.742 285.734 117.511 278.606 115.906C271.32 114.266 260.541 113.77 246.27 114.419Z" fill="url(#paint64_linear)"/>
<path d="M242.242 138.889L241.819 138.911C241.352 138.936 240.993 139.335 241.017 139.802L241.616 151.23C241.64 151.697 242.039 152.057 242.507 152.032L242.93 152.011C243.398 151.986 243.757 151.587 243.732 151.119L243.133 139.691C243.109 139.224 242.71 138.865 242.242 138.889Z" fill="url(#paint65_linear)"/>
<path fill-rule="evenodd" clip-rule="evenodd" d="M262.417 114.892C262.436 114.512 262.756 114.216 263.137 114.229C269.382 114.431 274.538 114.99 278.606 115.906C285.732 117.51 290.705 119.742 293.524 122.6C293.663 122.741 293.73 122.936 293.714 123.133L293.522 125.518C292.835 133.806 292.067 141.202 291.215 147.707C289.803 158.507 293.771 177.873 292.628 181.015C292.087 182.504 289.883 185.225 286.088 187.676C285.936 187.774 285.752 187.808 285.575 187.773L264.505 183.538C264.187 183.474 263.954 183.2 263.942 182.875L261.905 124.804L262.417 114.892Z" fill="url(#paint66_linear)"/>
<path opacity="0.1" fill-rule="evenodd" clip-rule="evenodd" d="M237.399 143.756C244.641 151.641 249.696 159.499 252.566 167.332L252.802 167.982C256.664 178.699 260.747 193.563 282.807 189.507C278.878 191.387 273.807 192.79 267.639 192.79C252.34 192.79 239.235 189.663 237.399 185.74C235.637 181.974 235.64 159.163 235.643 151.531L235.644 150.657C235.644 149.276 235.383 147.428 235.009 145.335L237.399 143.756Z" fill="#262626"/>
<path d="M260.765 127.684L261.823 139.385H263.045V127.684H260.765Z" fill="url(#paint67_linear)"/>
<path d="M252.565 118.792L257.086 129.743L267.299 128.813L272.59 118.792H252.565Z" fill="url(#paint68_linear)"/>
<path d="M244.496 111.404C242.549 113.087 241.9 114.934 242.549 116.945C243.522 119.962 248.318 121.765 259.236 122.685C270.154 123.605 277.888 119.746 280.606 117.704C283.325 115.662 284.232 111.624 280.193 109.666C277.5 108.361 265.601 108.94 244.496 111.404Z" fill="url(#paint69_linear)"/>
<path fill-rule="evenodd" clip-rule="evenodd" d="M280.192 109.666C280.079 109.611 279.949 109.559 279.802 109.511L282.883 112.85C282.676 111.626 281.852 110.47 280.192 109.666ZM277.92 109.913L282.457 115.482C282.147 116.127 281.698 116.731 281.147 117.249L276.625 110.901C277.063 110.589 277.494 110.259 277.92 109.913ZM246.26 112.074C245.791 111.847 245.336 111.609 244.894 111.358L244.808 111.368L242.313 115.731C242.337 116.129 242.416 116.533 242.548 116.945C242.697 117.407 242.936 117.84 243.272 118.246L246.26 112.074ZM275.291 111.786L279.425 118.499C278.885 118.83 278.253 119.181 277.533 119.533L273.895 112.58C274.367 112.333 274.832 112.068 275.291 111.786ZM249.314 113.318C248.784 113.139 248.269 112.947 247.766 112.743L244.971 119.622C245.514 119.937 246.15 120.229 246.883 120.501L249.314 113.318ZM272.435 113.278L275.54 120.415C274.908 120.667 274.233 120.912 273.514 121.143L270.947 113.864C271.45 113.686 271.946 113.491 272.435 113.278ZM252.548 114.219C251.988 114.094 251.441 113.957 250.907 113.808L248.873 121.122C249.497 121.287 250.17 121.443 250.895 121.589L252.548 114.219ZM269.416 114.343L271.451 121.734C270.784 121.903 270.088 122.057 269.364 122.194L267.848 114.717C268.379 114.609 268.901 114.485 269.416 114.343ZM255.95 114.818C255.369 114.742 254.8 114.655 254.242 114.557L252.945 121.954C253.587 122.056 254.263 122.151 254.972 122.242L255.95 114.818ZM267.255 122.527L266.238 114.988C265.703 115.06 265.16 115.116 264.608 115.155L265.151 122.734C265.872 122.683 266.574 122.613 267.255 122.527ZM262.574 115.227C262.108 115.227 261.648 115.222 261.193 115.211L261.014 122.795C261.707 122.822 262.386 122.83 263.05 122.821L262.953 115.225L262.574 115.227ZM257.662 115.009C258.236 115.063 258.821 115.106 259.416 115.14L258.989 122.664C258.291 122.604 257.618 122.54 256.97 122.472L257.662 115.009Z" fill="url(#paint70_linear)"/>
<path fill-rule="evenodd" clip-rule="evenodd" d="M246.12 114.426C242.844 112.633 240 111.071 238.093 104.033C236.186 96.9939 238.011 88.1433 246.12 81.8628C254.23 75.5824 267.202 76.6909 273.714 79.8514C280.227 83.0118 286.602 96.4938 282.917 105.914C279.232 115.335 267.276 116.945 261.302 116.945C255.328 116.945 249.397 116.218 246.12 114.426Z" fill="url(#paint71_linear)"/>
<path fill-rule="evenodd" clip-rule="evenodd" d="M250.074 93.0585L249.885 93.4658C247.393 98.7413 247.755 105.905 250.971 114.957C251.154 115.473 250.71 115.999 250.177 115.873C248.595 115.5 247.21 115.022 246.12 114.425L245.383 114.019C242.418 112.365 239.855 110.538 238.093 104.033C236.186 96.9937 238.011 88.1431 246.12 81.8627C247.934 80.4581 249.991 79.4231 252.164 78.698C252.578 78.5598 253.008 78.8446 253.039 79.2799C253.342 83.5093 252.354 88.102 250.074 93.0585Z" fill="url(#paint72_linear)"/>
<path d="M241.148 109.008C241.501 109.008 241.788 108.722 241.788 108.369C241.788 108.016 241.501 107.729 241.148 107.729C240.795 107.729 240.508 108.016 240.508 108.369C240.508 108.722 240.795 109.008 241.148 109.008Z" fill="#D8D8D8"/>
<path d="M242.427 110.287C242.78 110.287 243.066 110.001 243.066 109.648C243.066 109.294 242.78 109.008 242.427 109.008C242.074 109.008 241.787 109.294 241.787 109.648C241.787 110.001 242.074 110.287 242.427 110.287Z" fill="#D8D8D8"/>
<path opacity="0.2" d="M273.713 79.8514L273.803 79.8965C270.063 81.3291 269.089 83.97 265.658 85.4764C261.572 87.2709 255.445 87.1607 251.751 84.6667L251.548 84.5256C249.634 83.1534 247.569 82.471 245.355 82.4783C245.603 82.2706 245.858 82.0653 246.119 81.8628C254.229 75.5824 267.201 76.6909 273.713 79.8514Z" fill="url(#paint73_linear)"/>
<path d="M260.41 83.8912C260.426 84.067 260.297 84.2226 260.121 84.2387C259.945 84.2547 259.789 84.1251 259.773 83.9492L259.681 82.961C259.481 80.8572 259.276 78.997 259.067 77.3806C259.28 77.3669 259.494 77.3548 259.707 77.3447L259.803 78.1074C260.01 79.7965 260.213 81.7243 260.41 83.8912Z" fill="url(#paint74_linear)"/>
<path d="M279.883 100.484C280.231 103.13 280.079 107.2 279.118 111.355C274.014 115.927 266.135 116.912 261.533 116.944L261.301 116.945C255.43 116.945 249.599 116.243 246.29 114.517C244.497 110.903 243.6 106.96 243.6 102.688C243.6 94.1882 248.279 91.8631 251.227 91.8631C254.175 91.8631 256.63 94.5044 261.905 94.5044C267.179 94.5044 267.498 91.4176 271.75 90.7517C276.001 90.0858 279.378 96.6365 279.883 100.484Z" fill="url(#paint75_linear)"/>
<path opacity="0.1" fill-rule="evenodd" clip-rule="evenodd" d="M222.515 135.628C225.46 142.54 224.664 152.996 223.927 149.633C223.4 147.226 221.988 143.909 219.691 139.682C220.64 138.271 221.567 136.94 222.472 135.688L222.515 135.628Z" fill="#262626"/>
<path d="M217.623 110.15L218.522 109.619C220.326 108.553 222.572 110.005 222.342 112.087L222.096 114.315C221.928 115.83 220.457 116.846 218.98 116.466L217.623 110.15Z" fill="url(#paint76_linear)"/>
<path fill-rule="evenodd" clip-rule="evenodd" d="M211.292 78.563C211.262 77.7739 210.335 77.4086 209.801 77.9905C207.798 80.1733 204.335 84.3694 203.939 87.6594C203.38 92.3194 206.518 92.563 203.939 97.6418C201.974 101.514 203.977 106.322 205.041 108.389C205.313 108.918 206.003 108.987 206.39 108.535C207.86 106.817 210.842 102.99 210.216 100.892C209.392 98.1295 211.93 95.4631 211.93 95.4631L211.292 78.563Z" fill="url(#paint77_linear)"/>
<path opacity="0.2" fill-rule="evenodd" clip-rule="evenodd" d="M211.684 82.8999C211.679 82.9049 211.674 82.9099 211.67 82.9149C211.538 83.0485 211.396 83.1962 211.244 83.3559L211.269 83.9986C211.422 83.8326 211.569 83.6763 211.708 83.5315L211.684 82.8999ZM205.333 108.972C205.154 108.891 204.995 108.756 204.88 108.569C204.885 108.26 204.893 107.932 204.905 107.593C205.024 107.848 205.138 108.08 205.244 108.284C205.27 108.336 205.303 108.382 205.34 108.422C205.336 108.612 205.334 108.796 205.333 108.972Z" fill="url(#paint78_linear)"/>
<path d="M211.166 77.3448L214.821 116.992L213.913 117.09L210.258 77.4429L211.166 77.3448Z" fill="url(#paint79_linear)"/>
<path d="M203.831 122.482C203.368 115.872 207.559 109.828 213.911 107.943C216.621 107.139 219.378 109.051 219.575 111.87L219.739 114.21C220.111 119.531 216.261 124.216 210.969 124.882L205.976 125.511C204.935 125.642 203.998 124.872 203.925 123.826L203.831 122.482Z" fill="url(#paint80_linear)"/>
<path d="M217.134 124.621L220.403 137.895C220.842 139.679 219.954 141.525 218.285 142.296C215.997 143.352 213.514 143.813 210.835 143.677C205.121 143.389 202.542 139.444 202.192 138.113C201.842 136.782 203.22 123.618 203.278 122.684C203.488 119.355 207.56 126.548 215.482 123.173C216.214 122.862 216.942 123.84 217.134 124.621Z" fill="url(#paint81_linear)"/>
<path d="M208.547 128.602L208.533 138.054C206.838 138.599 204.703 138.373 202.129 137.376L202.124 137.062C202.117 135.215 202.361 131.485 202.635 128.281L208.547 128.602Z" fill="url(#paint82_linear)"/>
<path d="M212.292 128.265L213.245 136.024L215.637 135.433L214.581 128.03L212.292 128.265Z" fill="url(#paint83_linear)"/>
<path d="M230.52 125.518C232.143 131.989 232.955 137.511 232.955 142.085C232.955 148.945 234.36 153.816 235.539 153.466C238.242 151.25 238.623 142.65 238.242 136.041C237.86 129.433 236.544 124.763 235.201 122.7C233.857 120.636 231.535 121.326 230.789 122.7C230.291 123.615 230.202 124.555 230.52 125.518Z" fill="url(#paint84_linear)"/>
<path d="M290.892 151.692C289.48 151.202 288.543 149.343 288.081 146.116C287.389 141.274 288.081 133.56 289.487 127.564C290.892 121.568 292.739 120.657 293.739 120.657C294.74 120.657 296.436 121.275 294.532 127.004C292.629 132.733 292.629 142.052 292.629 144.462C292.629 146.069 292.05 148.478 290.892 151.692Z" fill="url(#paint85_linear)"/>
<path fill-rule="evenodd" clip-rule="evenodd" d="M277.281 139.385V146.42H274.723V139.385H277.281ZM282.397 134.589V141.624H279.839V137.147H274.723V134.589H282.397Z" fill="url(#paint86_linear)"/>
<path d="M235.838 96.6885C235.464 97.2753 235.472 99.1495 235.838 101.916C236.203 104.682 238.522 104.727 239.8 104.54C241.079 104.353 240.255 102.226 240.255 99.9438C240.255 97.6621 240.456 96.322 238.928 95.8402C237.4 95.3584 236.211 96.1015 235.838 96.6885Z" fill="url(#paint87_linear)"/>
<path fill-rule="evenodd" clip-rule="evenodd" d="M235.805 96.7457C235.825 96.7106 235.863 96.6889 235.904 96.6895C237.118 96.7044 237.83 97.0062 238.039 97.5947C238.312 98.3642 238.193 100.75 238.78 103.741C238.866 104.184 238.53 104.613 238.088 104.523C237.062 104.314 236.067 103.649 235.838 101.916C235.483 99.2336 235.465 97.3902 235.805 96.7457Z" fill="url(#paint88_linear)"/>
<path d="M249.142 98.456C249.848 98.456 250.421 97.8834 250.421 97.177C250.421 96.4707 249.848 95.8979 249.142 95.8979C248.435 95.8979 247.863 96.4707 247.863 97.177C247.863 97.8834 248.435 98.456 249.142 98.456Z" fill="url(#paint89_linear)"/>
<path d="M275.636 98.1436C275.97 98.0271 276.335 98.203 276.451 98.5363C276.974 100.032 277.162 101.815 277.024 103.884C277 104.237 276.696 104.503 276.343 104.48C275.991 104.456 275.724 104.151 275.748 103.799C275.875 101.891 275.705 100.277 275.244 98.9584C275.127 98.625 275.303 98.2602 275.636 98.1436Z" fill="url(#paint90_linear)"/>
<path d="M276.334 106.573C276.688 106.573 276.974 106.286 276.974 105.933C276.974 105.58 276.688 105.293 276.334 105.293C275.981 105.293 275.695 105.58 275.695 105.933C275.695 106.286 275.981 106.573 276.334 106.573Z" fill="url(#paint91_linear)"/>
</g>
</g>
<path d="M243.218 259.314C243.218 258.709 243.709 258.218 244.315 258.218H244.863C245.468 258.218 245.959 258.709 245.959 259.314V438.03C245.959 438.636 245.468 439.127 244.863 439.127H244.315C243.709 439.127 243.218 438.636 243.218 438.03L243.218 259.314Z" fill="url(#paint92_linear)"/>
<path d="M243.218 442.051C243.218 441.445 243.709 440.954 244.315 440.954H244.863C245.468 440.954 245.959 441.445 245.959 442.051V552.241C245.959 552.846 245.468 553.337 244.863 553.337H244.315C243.709 553.337 243.218 552.846 243.218 552.241L243.218 442.051Z" fill="url(#paint93_linear)"/>
<path d="M244.661 447.362C244.426 446.812 244.676 446.174 245.223 445.931L245.72 445.71C246.281 445.46 246.938 445.719 247.176 446.285L291.837 552.082C292.142 552.805 291.611 553.605 290.827 553.605L290.672 553.605C290.233 553.605 289.836 553.343 289.664 552.939L244.661 447.362Z" fill="url(#paint94_linear)"/>
<path d="M244.936 447.362C245.171 446.812 244.92 446.174 244.373 445.931L243.876 445.71C243.315 445.46 242.659 445.719 242.42 446.285L197.76 552.082C197.454 552.805 197.985 553.605 198.77 553.605L198.924 553.605C199.364 553.605 199.761 553.343 199.933 552.939L244.936 447.362Z" fill="url(#paint95_linear)"/>
<path d="M240.477 434.741C240.477 434.136 240.968 433.645 241.574 433.645H247.604C248.209 433.645 248.7 434.136 248.7 434.741V454.477C248.7 455.082 248.209 455.573 247.604 455.573H241.574C240.968 455.573 240.477 455.082 240.477 454.477V434.741Z" fill="url(#paint96_linear)"/>
<path d="M239.426 228.852L256.202 223.723L260.369 237.353L243.593 242.482L239.426 228.852Z" fill="url(#paint97_linear)"/>
<path d="M226.828 222.106C226.802 221.604 227.121 221.148 227.602 221.001L235.402 218.617C235.883 218.47 236.402 218.669 236.662 219.1L240.158 224.91C240.526 225.521 240.221 226.315 239.539 226.524L228.594 229.87C227.912 230.079 227.215 229.591 227.179 228.878L226.828 222.106Z" fill="url(#paint98_linear)"/>
<path d="M222.02 243.17C221.863 242.658 222.1 242.107 222.58 241.868L226.56 239.887C227.166 239.585 227.899 239.9 228.097 240.548L231.507 251.703C231.706 252.351 231.274 253.022 230.603 253.11L226.195 253.694C225.664 253.764 225.159 253.44 225.003 252.927L222.02 243.17Z" fill="url(#paint99_linear)"/>
<rect x="235.031" y="251.979" width="12.0606" height="7.67493" transform="rotate(-17 235.031 251.979)" fill="url(#paint100_linear)"/>
<path d="M262.814 222.848C262.637 222.269 262.963 221.656 263.542 221.479L266.687 220.517C267.266 220.34 267.879 220.666 268.056 221.245L271.582 232.778C271.759 233.357 271.434 233.97 270.855 234.147L267.709 235.109C267.13 235.286 266.517 234.96 266.34 234.381L262.814 222.848Z" fill="url(#paint101_linear)"/>
<path d="M221.688 230.835C221.511 230.256 221.837 229.643 222.416 229.466L244.435 222.734C245.014 222.557 245.627 222.883 245.804 223.462L253.497 248.626C253.674 249.205 253.348 249.818 252.769 249.995L230.751 256.727C230.171 256.904 229.559 256.578 229.381 255.999L221.688 230.835Z" fill="url(#paint102_linear)"/>
<path d="M267.051 212.864C267.538 212.246 268.528 212.52 268.629 213.301C268.647 213.446 268.63 213.594 268.578 213.731L265.916 220.699C265.662 221.366 264.848 221.616 264.263 221.206L262.773 220.163C262.257 219.801 262.151 219.081 262.541 218.586L267.051 212.864Z" fill="url(#paint103_linear)"/>
<path d="M275.39 240.141C276.139 240.381 276.807 239.599 276.454 238.896C276.388 238.765 276.291 238.653 276.171 238.568L270.068 234.279C269.484 233.869 268.67 234.117 268.414 234.783L267.762 236.482C267.536 237.07 267.851 237.727 268.451 237.919L275.39 240.141Z" fill="url(#paint104_linear)"/>
<rect x="248.629" y="221.452" width="16.4463" height="23.0248" rx="1.09642" transform="rotate(-17 248.629 221.452)" fill="url(#paint105_linear)"/>
<rect x="232.44" y="258.504" width="20.832" height="3.28926" rx="1.09642" transform="rotate(-17 232.44 258.504)" fill="url(#paint106_linear)"/>
<path d="M240.561 257.758L241.595 258.792L226.584 273.803L225.55 272.769L240.561 257.758Z" fill="url(#paint107_linear)"/>
<path d="M246.248 268.04C249.433 267.067 251.225 263.695 250.252 260.51C249.278 257.325 245.907 255.533 242.722 256.507C239.537 257.48 237.744 260.852 238.718 264.037C239.692 267.222 243.063 269.014 246.248 268.04Z" fill="url(#paint108_linear)"/>
<path d="M245.607 265.943C247.633 265.324 248.774 263.178 248.154 261.152C247.535 259.125 245.389 257.984 243.363 258.604C241.336 259.224 240.195 261.369 240.815 263.396C241.434 265.422 243.58 266.563 245.607 265.943Z" fill="url(#paint109_linear)"/>
<rect x="218.59" y="278.299" width="13.157" height="4.38567" rx="1.09642" transform="rotate(-45 218.59 278.299)" fill="url(#paint110_linear)"/>
<g opacity="0.5" filter="url(#filter4_d)">
<path fill-rule="evenodd" clip-rule="evenodd" d="M114.226 168.231C114.226 161.744 119.081 156.285 125.523 155.527L177.603 149.4C185.208 148.505 191.889 154.447 191.889 162.104V223.017C191.889 230.288 185.836 236.097 178.571 235.798L126.492 233.653C119.638 233.371 114.226 227.732 114.226 220.873V168.231Z" fill="#12E2EF" fill-opacity="0.7"/>
</g>
<g opacity="0.6">
<mask id="mask6" mask-type="alpha" maskUnits="userSpaceOnUse" x="114" y="149" width="78" height="87">
<path fill-rule="evenodd" clip-rule="evenodd" d="M114.226 168.231C114.226 161.744 119.081 156.285 125.523 155.527L177.603 149.4C185.208 148.505 191.889 154.447 191.889 162.104V223.017C191.889 230.288 185.836 236.097 178.571 235.798L126.492 233.653C119.638 233.371 114.226 227.732 114.226 220.873V168.231Z" fill="white"/>
</mask>
<g mask="url(#mask6)">
<path d="M180.925 164.165C181.934 164.165 182.753 163.347 182.753 162.338C182.753 161.329 181.934 160.51 180.925 160.51C179.916 160.51 179.098 161.329 179.098 162.338C179.098 163.347 179.916 164.165 180.925 164.165Z" fill="white"/>
<path d="M180.925 165.993C182.944 165.993 184.58 164.356 184.58 162.338C184.58 160.319 182.944 158.683 180.925 158.683C178.907 158.683 177.271 160.319 177.271 162.338C177.271 164.356 178.907 165.993 180.925 165.993Z" stroke="white" stroke-width="0.913682"/>
<path fill-rule="evenodd" clip-rule="evenodd" d="M137.956 206.308L145.04 196.38C145.04 196.38 144.846 177.109 153.649 175.454C165.094 173.302 166.167 188.963 164.328 192.672C162.49 196.38 157.815 197.359 157.815 197.359L166.973 211.49L149.876 214.104L137.956 206.308Z" fill="url(#paint111_linear)"/>
<path fill-rule="evenodd" clip-rule="evenodd" d="M114.183 234.27C114.183 234.27 133.583 204.144 137.61 204.144C141.637 204.144 145.026 209.928 150.946 209.789C156.866 209.65 162.881 202.647 168.551 208.869C174.222 215.091 183.666 237.716 183.666 237.716L114.183 234.27Z" fill="url(#paint112_linear)"/>
<path d="M162.503 175.689C163.135 178.395 159.601 182.678 158.372 182.678C157.143 182.678 154.424 181.088 153.159 182.678C151.894 184.268 155.985 186.941 155.985 187.861C155.985 188.78 152.963 197.577 147.792 197.577C142.622 197.577 134.249 178.657 149.047 171.94C156.022 168.774 162.051 173.757 162.503 175.689Z" fill="url(#paint113_linear)"/>
</g>
</g>
<g opacity="0.5" filter="url(#filter5_d)">
<path fill-rule="evenodd" clip-rule="evenodd" d="M328.467 113.363C328.467 107.496 333.077 102.664 338.937 102.388L383.67 100.283C389.933 99.9883 395.173 104.987 395.173 111.258V164.416C395.173 170.662 389.974 175.651 383.734 175.394L339.002 173.552C333.115 173.31 328.467 168.467 328.467 162.574V113.363Z" fill="#12E2EF" fill-opacity="0.7"/>
</g>
<g opacity="0.6">
<mask id="mask7" mask-type="alpha" maskUnits="userSpaceOnUse" x="328" y="101" width="68" height="75">
<path fill-rule="evenodd" clip-rule="evenodd" d="M328.467 117.36C328.467 111.788 332.637 107.099 338.17 106.448L382.902 101.185C389.434 100.417 395.173 105.52 395.173 112.097V164.416C395.173 170.662 389.974 175.651 383.734 175.394L339.002 173.552C333.115 173.31 328.467 168.467 328.467 162.574V117.36Z" fill="white"/>
</mask>
<g mask="url(#mask7)">
<path d="M385.755 113.868C386.622 113.868 387.325 113.166 387.325 112.299C387.325 111.432 386.622 110.729 385.755 110.729C384.889 110.729 384.186 111.432 384.186 112.299C384.186 113.166 384.889 113.868 385.755 113.868Z" fill="white"/>
<path d="M385.756 115.438C387.489 115.438 388.895 114.032 388.895 112.299C388.895 110.565 387.489 109.16 385.756 109.16C384.022 109.16 382.616 110.565 382.616 112.299C382.616 114.032 384.022 115.438 385.756 115.438Z" stroke="white" stroke-width="0.784776"/>
<path d="M381.149 150.427C381.429 148.224 383.442 146.665 385.646 146.945C387.849 147.225 389.408 149.239 389.128 151.442C387.99 160.386 381.021 166.675 372.625 167.726C370.421 168.002 368.411 166.439 368.135 164.235C367.863 162.067 369.372 160.086 371.52 159.759L371.626 159.745C376.53 159.131 380.497 155.552 381.149 150.427Z" fill="url(#paint114_linear)"/>
<path opacity="0.227028" fill-rule="evenodd" clip-rule="evenodd" d="M371.283 167.667L370.147 160.232C370.562 159.998 371.024 159.834 371.521 159.758L371.627 159.743C376.532 159.129 380.499 155.55 381.15 150.426C381.269 149.492 381.699 148.674 382.323 148.062C382.382 152.662 382.044 159.699 379.714 163.202C378.686 164.748 377.587 165.928 376.541 166.824C375.285 167.252 373.974 167.556 372.627 167.725C372.166 167.782 371.713 167.76 371.283 167.667Z" fill="url(#paint115_linear)"/>
<path opacity="0.4" d="M339.259 161.055C339.204 158.238 341.442 155.91 344.259 155.854L349.394 155.753C352.211 155.698 354.539 157.937 354.595 160.753L354.762 169.255C354.817 172.072 352.579 174.4 349.762 174.455L344.627 174.556C341.81 174.612 339.482 172.373 339.426 169.557L339.259 161.055Z" fill="url(#paint116_linear)"/>
<path d="M344.08 158.851L374.003 158.263L375.147 177.413C375.436 182.26 371.636 186.374 366.782 186.469L354.374 186.713C345.68 186.884 339.186 178.767 341.261 170.322L344.08 158.851Z" fill="url(#paint117_linear)"/>
<mask id="mask8" mask-type="alpha" maskUnits="userSpaceOnUse" x="338" y="158" width="38" height="29">
<path d="M344.08 158.851L374.003 158.263L375.419 181.98C375.56 184.334 373.714 186.333 371.356 186.379L342.554 186.945C339.827 186.999 337.789 184.452 338.44 181.803L344.08 158.851Z" fill="white"/>
</mask>
<g mask="url(#mask8)">
<path opacity="0.3" d="M366.929 164.745C366.687 164.75 366.49 164.867 366.469 165.013L366.467 165.042L366.647 174.226C366.65 174.386 366.862 174.51 367.121 174.505C367.363 174.501 367.56 174.383 367.581 174.238L367.582 174.208L367.402 165.024C367.399 164.865 367.187 164.74 366.929 164.745Z" fill="#17413B"/>
<path opacity="0.522926" d="M344.2 160.367C345.386 158.368 347.969 157.709 349.968 158.895C351.966 160.082 352.625 162.664 351.439 164.663C348.557 169.518 347.36 174.077 347.863 179.959C348.061 182.275 346.344 184.313 344.028 184.511C341.712 184.709 339.674 182.992 339.476 180.676C338.825 173.061 340.413 166.748 344.2 160.367Z" fill="url(#paint118_linear)"/>
<path opacity="0.3" d="M349.993 186.13L364.541 176.088C366.129 174.992 368.262 174.965 369.539 176.41C371.265 178.362 373.037 181.495 371.39 185.143C368.005 187.816 351.938 187.074 349.993 186.13Z" fill="url(#paint119_linear)"/>
</g>
<rect width="17.643" height="12.5355" rx="1.37868" transform="matrix(-0.999807 0.0196552 0.0196552 0.999807 353.63 174.818)" fill="url(#paint120_linear)"/>
<g filter="url(#filter6_d)">
<rect width="17.643" height="12.5355" rx="1.37868" transform="matrix(-0.999807 0.0196552 0.0196552 0.999807 353.214 175.165)" fill="url(#paint121_linear)"/>
</g>
<path d="M359.272 160.798C370.737 160.573 379.848 151.096 379.623 139.631C379.398 128.166 369.921 119.054 358.456 119.28C346.991 119.505 337.879 128.982 338.105 140.447C338.33 151.912 347.807 161.024 359.272 160.798Z" fill="url(#paint122_linear)"/>
<mask id="mask9" mask-type="alpha" maskUnits="userSpaceOnUse" x="338" y="119" width="42" height="42">
<path d="M359.272 160.798C370.737 160.573 379.848 151.096 379.623 139.631C379.398 128.166 369.921 119.054 358.456 119.28C346.991 119.505 337.879 128.982 338.105 140.447C338.33 151.912 347.807 161.024 359.272 160.798Z" fill="white"/>
</mask>
<g mask="url(#mask9)">
<path d="M338.326 128.941C338.326 128.941 345.663 124.347 350.343 124.255C355.024 124.163 361.233 127.321 367.19 127.204C373.148 127.087 373.072 120.678 373.072 120.678L353.836 117.413L341.628 121.297L338.326 128.941Z" fill="url(#paint123_linear)"/>
<path d="M377.311 127.756C377.311 127.756 375.921 126.659 374.453 127.25C372.985 127.841 372.832 129.719 369.26 130.854C365.689 131.988 359.572 129.289 355.822 131.118C350.87 133.534 347.696 141.104 349.886 149.396C351.811 156.686 359.858 160.744 359.858 160.744L375.306 157.764L382.889 140.967L377.311 127.756Z" fill="url(#paint124_linear)"/>
<path opacity="0.3" fill-rule="evenodd" clip-rule="evenodd" d="M373.91 131.279C374.397 130.933 375.073 131.048 375.419 131.536C376.62 133.228 377.542 136.626 377.452 140.29C377.36 144 376.228 148.209 373.051 151.444C372.632 151.871 371.947 151.877 371.52 151.458C371.093 151.039 371.087 150.353 371.506 149.927C374.188 147.196 375.205 143.579 375.287 140.237C375.37 136.849 374.491 133.969 373.653 132.789C373.307 132.301 373.422 131.625 373.91 131.279Z" fill="url(#paint125_linear)"/>
<path opacity="0.4" d="M349.36 119.381L349.883 119.282C353.838 118.542 356.524 118.352 359.047 118.806C362.37 119.403 364.981 121.168 366.945 124.393C367.095 124.64 367.017 124.962 366.77 125.113C366.522 125.263 366.2 125.185 366.05 124.938C364.244 121.971 361.891 120.381 358.862 119.837C356.389 119.392 353.685 119.611 349.559 120.41C349.275 120.464 349 120.279 348.945 119.995C348.89 119.711 349.076 119.436 349.36 119.381Z" fill="#17413B"/>
</g>
<rect x="341.487" y="133.452" width="6.73403" height="8.23048" rx="3.36702" transform="rotate(5.87377 341.487 133.452)" fill="url(#paint126_linear)"/>
<rect x="340.739" y="133.467" width="6.73403" height="8.23048" rx="3.36702" transform="rotate(5.87377 340.739 133.467)" fill="url(#paint127_linear)"/>
<path d="M345.341 135.445C345.353 135.34 345.225 135.281 345.153 135.358L344.808 135.724L344.297 140.155L344.55 140.613C344.602 140.706 344.742 140.678 344.754 140.572L345.341 135.445Z" fill="#17413B"/>
<path d="M343.074 160.388C344.26 158.389 346.842 157.731 348.841 158.917C350.84 160.103 351.499 162.685 350.313 164.684C347.431 169.54 346.234 174.098 346.737 179.98C346.935 182.296 345.218 184.334 342.902 184.532C340.586 184.731 338.548 183.014 338.35 180.698C337.699 173.082 339.287 166.769 343.074 160.388Z" fill="url(#paint128_linear)"/>
<path fill-rule="evenodd" clip-rule="evenodd" d="M373.173 154.75C374.13 153.883 375.609 153.955 376.476 154.912C377.344 155.868 377.271 157.347 376.315 158.215C371.921 162.199 365.445 164.096 358.441 163.968C352.169 163.853 346.152 162.079 342.913 159.298C341.933 158.457 341.821 156.981 342.662 156.001C343.482 155.045 344.907 154.915 345.886 155.69L345.959 155.75C348.258 157.724 353.25 159.195 358.527 159.292C364.435 159.4 369.768 157.838 373.173 154.75Z" fill="url(#paint129_linear)"/>
<mask id="mask10" mask-type="alpha" maskUnits="userSpaceOnUse" x="342" y="154" width="36" height="10">
<path fill-rule="evenodd" clip-rule="evenodd" d="M373.173 154.75C374.13 153.883 375.609 153.955 376.476 154.912C377.344 155.868 377.271 157.347 376.315 158.215C371.921 162.199 365.445 164.096 358.441 163.968C352.169 163.853 346.152 162.079 342.913 159.298C341.933 158.457 341.821 156.981 342.662 156.001C343.482 155.045 344.907 154.915 345.886 155.69L345.959 155.75C348.258 157.724 353.25 159.195 358.527 159.292C364.435 159.4 369.768 157.838 373.173 154.75Z" fill="white"/>
</mask>
<g mask="url(#mask10)">
<path opacity="0.969457" d="M347.727 155.836L348.012 156.319C345.783 157.637 344.836 159.63 345.192 162.38L345.213 162.531L344.657 162.611C344.222 159.614 345.222 157.374 347.6 155.912L347.727 155.836Z" fill="url(#paint130_linear)"/>
<path opacity="0.969457" d="M347.114 154.652L347.307 155.178C344.875 156.069 343.582 157.857 343.432 160.625L343.425 160.777L342.864 160.756C342.981 157.729 344.371 155.708 346.976 154.703L347.114 154.652Z" fill="url(#paint131_linear)"/>
<path opacity="0.969457" d="M351.715 157.413L352.175 157.735C350.942 159.501 350.278 161.517 350.093 163.855L350.076 164.09L349.516 164.053C349.676 161.597 350.335 159.465 351.592 157.594L351.715 157.413Z" fill="url(#paint132_linear)"/>
<path opacity="0.969457" d="M349.948 156.018L350.34 156.419C348.8 157.926 347.774 159.783 347.157 162.046L347.097 162.274L346.553 162.134C347.167 159.75 348.211 157.778 349.793 156.172L349.948 156.018Z" fill="url(#paint133_linear)"/>
<path opacity="0.969457" d="M356.629 157.529L357.185 157.609L357.13 157.972L357.036 158.546C356.622 161.05 356.566 162.529 356.997 165.597L357.031 165.837L356.476 165.917L356.408 165.436C356.016 162.543 356.068 161.026 356.451 158.649L356.594 157.764L356.629 157.529Z" fill="url(#paint134_linear)"/>
<path opacity="0.969457" d="M359.046 157.517L359.602 157.597L359.547 157.96L359.454 158.533C359.039 161.038 358.984 162.516 359.414 165.585L359.448 165.824L358.893 165.905L358.825 165.423C358.433 162.531 358.485 161.014 358.868 158.636L359.011 157.752L359.046 157.517Z" fill="url(#paint135_linear)"/>
<path opacity="0.969457" d="M354.006 157.157L354.55 157.296L354.457 157.651L354.303 158.211C353.626 160.658 353.413 162.122 353.516 165.219L353.524 165.461L352.963 165.481L352.947 164.996C352.864 162.078 353.077 160.575 353.71 158.252L353.946 157.387L354.006 157.157Z" fill="url(#paint136_linear)"/>
<path opacity="0.969457" d="M361.34 156.783L361.891 156.674L362.037 157.401C362.718 160.746 362.907 162.529 362.668 165.528L362.646 165.788L362.087 165.74C362.346 162.731 362.187 161.003 361.544 157.792L361.34 156.783Z" fill="url(#paint137_linear)"/>
<path opacity="0.969457" d="M363.721 156.312L364.261 156.159L364.466 156.871C365.417 160.149 365.752 161.911 365.758 164.92L365.757 165.181L365.196 165.178C365.208 162.158 364.909 160.449 364.006 157.3L363.721 156.312Z" fill="url(#paint138_linear)"/>
<path opacity="0.969457" d="M366.818 156.771C367.91 159.785 368.397 161.855 368.452 164.579L368.456 164.836L367.894 164.842C367.867 162.147 367.425 160.141 366.389 157.237L366.29 156.962L366.818 156.771Z" fill="url(#paint139_linear)"/>
<path opacity="0.969457" d="M368.993 155.471C370.404 158.349 371.111 160.354 371.46 163.056L371.491 163.311L370.934 163.378C370.616 160.702 369.96 158.755 368.617 155.98L368.489 155.717L368.993 155.471Z" fill="url(#paint140_linear)"/>
<path opacity="0.969457" d="M370.403 155.105L370.872 154.797L371.054 155.073C372.96 157.967 373.615 159.531 373.561 162.246L373.557 162.421L372.996 162.404C373.074 159.835 372.523 158.374 370.815 155.733L370.403 155.105Z" fill="url(#paint141_linear)"/>
<path opacity="0.969457" d="M373.099 153.716L373.569 153.408L373.75 153.685C375.657 156.578 376.312 158.142 376.258 160.858L376.253 161.033L375.692 161.016C375.77 158.446 375.22 156.985 373.511 154.345L373.099 153.716Z" fill="url(#paint142_linear)"/>
</g>
<path fill-rule="evenodd" clip-rule="evenodd" d="M344.327 152.486C344.533 152.482 344.697 152.312 344.693 152.105C344.689 151.898 344.518 151.734 344.312 151.738C344.105 151.742 343.941 151.913 343.945 152.12C343.949 152.326 344.12 152.49 344.327 152.486Z" fill="url(#paint143_linear)"/>
<path fill-rule="evenodd" clip-rule="evenodd" d="M345.853 153.953C346.06 153.949 346.224 153.778 346.22 153.572C346.216 153.365 346.045 153.201 345.839 153.205C345.632 153.209 345.468 153.38 345.472 153.586C345.476 153.793 345.647 153.957 345.853 153.953Z" fill="url(#paint144_linear)"/>
<path fill-rule="evenodd" clip-rule="evenodd" d="M347.372 155.044C347.579 155.04 347.743 154.87 347.739 154.663C347.735 154.456 347.564 154.292 347.358 154.296C347.151 154.3 346.987 154.471 346.991 154.678C346.995 154.884 347.166 155.049 347.372 155.044Z" fill="url(#paint145_linear)"/>
<path fill-rule="evenodd" clip-rule="evenodd" d="M341.877 160.59C345.069 158.142 350.87 160.823 350.962 165.603C350.99 167.022 349.065 168.155 348.993 167.488C348.622 164.03 344.5 161.685 341.687 162.967L341.601 163.008C340.997 163.302 340.522 161.628 341.877 160.59Z" fill="url(#paint146_linear)"/>
<rect x="354.14" y="167.858" width="1.202" height="6.01" rx="0.601" transform="rotate(-1.12623 354.14 167.858)" fill="#A7DFFF"/>
<path fill-rule="evenodd" clip-rule="evenodd" d="M370.587 167.116L370.526 170.234L369.392 170.212L369.453 167.094L370.587 167.116ZM372.897 165.034L372.836 168.153L371.702 168.13L371.741 166.146L369.473 166.101L369.495 164.968L372.897 165.034Z" fill="#A7DFFF"/>
</g>
</g>
<g opacity="0.5" filter="url(#filter7_d)">
<path fill-rule="evenodd" clip-rule="evenodd" d="M65.2817 135.037C65.2817 132.478 67.1082 130.284 69.6245 129.82L127.981 119.056C131.241 118.454 134.248 120.957 134.248 124.273V167.614C134.248 170.396 132.1 172.705 129.326 172.905L70.9696 177.127C67.897 177.349 65.2817 174.916 65.2817 171.836V135.037Z" fill="url(#paint147_linear)" fill-opacity="0.7"/>
</g>
<rect x="459.234" y="426.535" width="109.407" height="38.308" fill="url(#paint148_linear)"/>
<rect x="459.234" y="464.844" width="146.597" height="38.308" fill="url(#paint149_linear)"/>
<rect x="459.234" y="503.15" width="187.753" height="38.308" fill="url(#paint150_linear)"/>
<rect opacity="0.4" x="459.234" y="426.535" width="76.4342" height="114.924" fill="url(#paint151_linear)"/>
<defs>
<filter id="filter0_d" x="482.748" y="285.971" width="167.919" height="149.406" filterUnits="userSpaceOnUse" color-interpolation-filters="sRGB">
<feFlood flood-opacity="0" result="BackgroundImageFix"/>
<feColorMatrix in="SourceAlpha" type="matrix" values="0 0 0 0 0 0 0 0 0 0 0 0 0 0 0 0 0 0 127 0"/>
<feOffset dx="5.23332" dy="-3.27083"/>
<feGaussianBlur stdDeviation="25.493"/>
<feColorMatrix type="matrix" values="0 0 0 0 0.566667 0 0 0 0 0.74 0 0 0 0 1 0 0 0 0.74 0"/>
<feBlend mode="normal" in2="BackgroundImageFix" result="effect1_dropShadow"/>
<feBlend mode="normal" in="SourceGraphic" in2="effect1_dropShadow" result="shape"/>
</filter>
<filter id="filter1_d" x="237.977" y="135.405" width="247.608" height="243.953" filterUnits="userSpaceOnUse" color-interpolation-filters="sRGB">
<feFlood flood-opacity="0" result="BackgroundImageFix"/>
<feColorMatrix in="SourceAlpha" type="matrix" values="0 0 0 0 0 0 0 0 0 0 0 0 0 0 0 0 0 0 127 0"/>
<feOffset dx="9.37824" dy="-5.8614"/>
<feGaussianBlur stdDeviation="45.6841"/>
<feColorMatrix type="matrix" values="0 0 0 0 0.566667 0 0 0 0 0.74 0 0 0 0 1 0 0 0 0.74 0"/>
<feBlend mode="normal" in2="BackgroundImageFix" result="effect1_dropShadow"/>
<feBlend mode="normal" in="SourceGraphic" in2="effect1_dropShadow" result="shape"/>
</filter>
<filter id="filter2_d" x="342.737" y="254.63" width="16.578" height="17.1844" filterUnits="userSpaceOnUse" color-interpolation-filters="sRGB">
<feFlood flood-opacity="0" result="BackgroundImageFix"/>
<feColorMatrix in="SourceAlpha" type="matrix" values="0 0 0 0 0 0 0 0 0 0 0 0 0 0 0 0 0 0 127 0"/>
<feOffset/>
<feGaussianBlur stdDeviation="1.82736"/>
<feColorMatrix type="matrix" values="0 0 0 0 0 0 0 0 0 1 0 0 0 0 0.94 0 0 0 0.34 0"/>
<feBlend mode="normal" in2="BackgroundImageFix" result="effect1_dropShadow"/>
<feBlend mode="normal" in="SourceGraphic" in2="effect1_dropShadow" result="shape"/>
</filter>
<filter id="filter3_d" x="145.056" y="0.868676" width="224.766" height="218.93" filterUnits="userSpaceOnUse" color-interpolation-filters="sRGB">
<feFlood flood-opacity="0" result="BackgroundImageFix"/>
<feColorMatrix in="SourceAlpha" type="matrix" values="0 0 0 0 0 0 0 0 0 0 0 0 0 0 0 0 0 0 127 0"/>
<feOffset dy="3.65473"/>
<feGaussianBlur stdDeviation="26.4968"/>
<feColorMatrix type="matrix" values="0 0 0 0 0 0 0 0 0 1 0 0 0 0 0.88 0 0 0 0.5 0"/>
<feBlend mode="normal" in2="BackgroundImageFix" result="effect1_dropShadow"/>
<feBlend mode="normal" in="SourceGraphic" in2="effect1_dropShadow" result="shape"/>
</filter>
<filter id="filter4_d" x="68.5422" y="107.281" width="169.031" height="177.867" filterUnits="userSpaceOnUse" color-interpolation-filters="sRGB">
<feFlood flood-opacity="0" result="BackgroundImageFix"/>
<feColorMatrix in="SourceAlpha" type="matrix" values="0 0 0 0 0 0 0 0 0 0 0 0 0 0 0 0 0 0 127 0"/>
<feOffset dy="3.65473"/>
<feGaussianBlur stdDeviation="22.8421"/>
<feColorMatrix type="matrix" values="0 0 0 0 0.366667 0 0 0 0 0.962 0 0 0 0 1 0 0 0 0.67 0"/>
<feBlend mode="normal" in2="BackgroundImageFix" result="effect1_dropShadow"/>
<feBlend mode="normal" in="SourceGraphic" in2="effect1_dropShadow" result="shape"/>
</filter>
<filter id="filter5_d" x="289.228" y="64.1711" width="145.184" height="153.61" filterUnits="userSpaceOnUse" color-interpolation-filters="sRGB">
<feFlood flood-opacity="0" result="BackgroundImageFix"/>
<feColorMatrix in="SourceAlpha" type="matrix" values="0 0 0 0 0 0 0 0 0 0 0 0 0 0 0 0 0 0 127 0"/>
<feOffset dy="3.1391"/>
<feGaussianBlur stdDeviation="19.6194"/>
<feColorMatrix type="matrix" values="0 0 0 0 0.366667 0 0 0 0 0.962 0 0 0 0 1 0 0 0 0.67 0"/>
<feBlend mode="normal" in2="BackgroundImageFix" result="effect1_dropShadow"/>
<feBlend mode="normal" in="SourceGraphic" in2="effect1_dropShadow" result="shape"/>
</filter>
<filter id="filter6_d" x="323.23" y="160.52" width="45.4058" height="40.3997" filterUnits="userSpaceOnUse" color-interpolation-filters="sRGB">
<feFlood flood-opacity="0" result="BackgroundImageFix"/>
<feColorMatrix in="SourceAlpha" type="matrix" values="0 0 0 0 0 0 0 0 0 0 0 0 0 0 0 0 0 0 127 0"/>
<feOffset dx="1.4151" dy="-0.88444"/>
<feGaussianBlur stdDeviation="6.89338"/>
<feColorMatrix type="matrix" values="0 0 0 0 0.566667 0 0 0 0 0.74 0 0 0 0 1 0 0 0 0.74 0"/>
<feBlend mode="normal" in2="BackgroundImageFix" result="effect1_dropShadow"/>
<feBlend mode="normal" in="SourceGraphic" in2="effect1_dropShadow" result="shape"/>
</filter>
<filter id="filter7_d" x="37.8713" y="93.0713" width="123.787" height="112.996" filterUnits="userSpaceOnUse" color-interpolation-filters="sRGB">
<feFlood flood-opacity="0" result="BackgroundImageFix"/>
<feColorMatrix in="SourceAlpha" type="matrix" values="0 0 0 0 0 0 0 0 0 0 0 0 0 0 0 0 0 0 127 0"/>
<feOffset dy="1.51575"/>
<feGaussianBlur stdDeviation="13.7052"/>
<feColorMatrix type="matrix" values="0 0 0 0 0.35 0 0 0 0 1 0 0 0 0 0.922 0 0 0 0.15 0"/>
<feBlend mode="normal" in2="BackgroundImageFix" result="effect1_dropShadow"/>
<feBlend mode="normal" in="SourceGraphic" in2="effect1_dropShadow" result="shape"/>
</filter>
<linearGradient id="paint0_linear" x1="480.678" y1="362.434" x2="525.104" y2="429.742" gradientUnits="userSpaceOnUse">
<stop stop-color="#10899B"/>
<stop offset="1" stop-color="#34D7E8"/>
</linearGradient>
<linearGradient id="paint1_linear" x1="523.49" y1="491.385" x2="465.919" y2="426.519" gradientUnits="userSpaceOnUse">
<stop stop-color="#2BB6C4"/>
<stop offset="0.85" stop-color="#259EB1"/>
<stop offset="1" stop-color="#2290A1"/>
</linearGradient>
<linearGradient id="paint2_linear" x1="532.42" y1="373.819" x2="551.088" y2="444.447" gradientUnits="userSpaceOnUse">
<stop stop-color="#10899B"/>
<stop offset="1" stop-color="#34D7E8"/>
</linearGradient>
<linearGradient id="paint3_linear" x1="543.645" y1="458.959" x2="527.65" y2="408.238" gradientUnits="userSpaceOnUse">
<stop stop-color="#2BB6C4"/>
<stop offset="0.85" stop-color="#259EB1"/>
<stop offset="1" stop-color="#2290A1"/>
</linearGradient>
<linearGradient id="paint4_linear" x1="398.437" y1="167.306" x2="534.043" y2="271.205" gradientUnits="userSpaceOnUse">
<stop stop-color="#52EFFF"/>
<stop offset="1" stop-color="#25A0B3"/>
</linearGradient>
<linearGradient id="paint5_linear" x1="403.772" y1="238.252" x2="402.854" y2="246.483" gradientUnits="userSpaceOnUse">
<stop stop-color="#042635"/>
<stop offset="1" stop-color="#06565B"/>
</linearGradient>
<linearGradient id="paint6_linear" x1="465.622" y1="202.485" x2="524.481" y2="255.453" gradientUnits="userSpaceOnUse">
<stop stop-color="#042635"/>
<stop offset="1" stop-color="#001431"/>
</linearGradient>
<linearGradient id="paint7_linear" x1="465.623" y1="202.485" x2="524.482" y2="255.453" gradientUnits="userSpaceOnUse">
<stop stop-color="#042635"/>
<stop offset="1" stop-color="#001431"/>
</linearGradient>
<linearGradient id="paint8_linear" x1="594.555" y1="294.282" x2="602.73" y2="318.696" gradientUnits="userSpaceOnUse">
<stop stop-color="#042635"/>
<stop offset="1" stop-color="#06565B"/>
</linearGradient>
<linearGradient id="paint9_linear" x1="657.509" y1="376.496" x2="563.303" y2="374.644" gradientUnits="userSpaceOnUse">
<stop stop-color="#77CEFF"/>
<stop offset="0.854221" stop-color="#20B0FF"/>
<stop offset="1" stop-color="#1070A5"/>
</linearGradient>
<linearGradient id="paint10_linear" x1="654.532" y1="329.886" x2="593.335" y2="378.892" gradientUnits="userSpaceOnUse">
<stop stop-color="#00A5FF"/>
<stop offset="1" stop-color="#0F38CD"/>
</linearGradient>
<linearGradient id="paint11_linear" x1="427.341" y1="254.305" x2="632.448" y2="248.005" gradientUnits="userSpaceOnUse">
<stop stop-color="#25A0B3"/>
<stop offset="1" stop-color="#34D7E8"/>
</linearGradient>
<linearGradient id="paint12_linear" x1="585.8" y1="550.66" x2="494.475" y2="511.356" gradientUnits="userSpaceOnUse">
<stop stop-color="#34D7E8"/>
<stop offset="0.85" stop-color="#259EB1"/>
<stop offset="1" stop-color="#25A0B3"/>
</linearGradient>
<linearGradient id="paint13_linear" x1="527.142" y1="290.603" x2="590.041" y2="349.578" gradientUnits="userSpaceOnUse">
<stop stop-color="#165B7A"/>
<stop offset="1" stop-color="#001431"/>
</linearGradient>
<linearGradient id="paint14_linear" x1="541.76" y1="354.38" x2="532.91" y2="399.497" gradientUnits="userSpaceOnUse">
<stop stop-color="#042635"/>
<stop offset="1" stop-color="#06565B"/>
</linearGradient>
<linearGradient id="paint15_linear" x1="472.984" y1="359.596" x2="528.502" y2="404.576" gradientUnits="userSpaceOnUse">
<stop stop-color="#CAECFF"/>
<stop offset="1" stop-color="#99DAFE"/>
</linearGradient>
<linearGradient id="paint16_linear" x1="555.56" y1="340.988" x2="537.55" y2="350.222" gradientUnits="userSpaceOnUse">
<stop stop-color="#165B7A"/>
<stop offset="1" stop-color="#001431"/>
</linearGradient>
<linearGradient id="paint17_linear" x1="586.697" y1="134.964" x2="583.679" y2="288.507" gradientUnits="userSpaceOnUse">
<stop stop-color="#52EFFF"/>
<stop offset="1" stop-color="#25A0B3"/>
</linearGradient>
<linearGradient id="paint18_linear" x1="607.313" y1="244.984" x2="570.763" y2="146.183" gradientUnits="userSpaceOnUse">
<stop stop-color="#34D7E8"/>
<stop offset="0.85" stop-color="#259EB1"/>
<stop offset="1" stop-color="#25A0B3"/>
</linearGradient>
<linearGradient id="paint19_linear" x1="573.953" y1="270.736" x2="403.658" y2="339.35" gradientUnits="userSpaceOnUse">
<stop stop-color="#165B7A"/>
<stop offset="1" stop-color="#001431"/>
</linearGradient>
<linearGradient id="paint20_linear" x1="532.922" y1="218.785" x2="540.595" y2="233.06" gradientUnits="userSpaceOnUse">
<stop stop-color="#BAFEFF"/>
<stop offset="1" stop-color="#A5FFFE"/>
</linearGradient>
<linearGradient id="paint21_linear" x1="518.55" y1="187.436" x2="518.999" y2="189.851" gradientUnits="userSpaceOnUse">
<stop stop-color="#BAFEFF"/>
<stop offset="1" stop-color="#A5FFFE"/>
</linearGradient>
<linearGradient id="paint22_linear" x1="-4.7135" y1="85.6916" x2="33.6765" y2="59.96" gradientUnits="userSpaceOnUse">
<stop stop-color="#34D7E8"/>
<stop offset="0.85" stop-color="#259EB1"/>
<stop offset="1" stop-color="#25A0B3"/>
</linearGradient>
<linearGradient id="paint23_linear" x1="-28.1188" y1="62.2031" x2="42.8417" y2="69.8476" gradientUnits="userSpaceOnUse">
<stop stop-color="#B1F5FF"/>
<stop offset="1" stop-color="#34D7E8"/>
</linearGradient>
<linearGradient id="paint24_linear" x1="561.67" y1="246.641" x2="549.266" y2="243.164" gradientUnits="userSpaceOnUse">
<stop stop-color="#34D7E8"/>
<stop offset="0.85" stop-color="#259EB1"/>
<stop offset="1" stop-color="#25A0B3"/>
</linearGradient>
<linearGradient id="paint25_linear" x1="540.123" y1="191.157" x2="654.277" y2="234.027" gradientUnits="userSpaceOnUse">
<stop stop-color="#52EFFF"/>
<stop offset="1" stop-color="#25A0B3"/>
</linearGradient>
<linearGradient id="paint26_linear" x1="560.926" y1="368.732" x2="559.946" y2="377.298" gradientUnits="userSpaceOnUse">
<stop stop-color="#042635"/>
<stop offset="1" stop-color="#06565B"/>
</linearGradient>
<linearGradient id="paint27_linear" x1="542.647" y1="276.024" x2="544.612" y2="311.479" gradientUnits="userSpaceOnUse">
<stop stop-color="#042635"/>
<stop offset="1" stop-color="#06565B"/>
</linearGradient>
<linearGradient id="paint28_linear" x1="566.899" y1="253.81" x2="567.583" y2="300.63" gradientUnits="userSpaceOnUse">
<stop stop-color="#5DF1D7"/>
<stop offset="1" stop-color="#021F24"/>
</linearGradient>
<linearGradient id="paint29_linear" x1="566.184" y1="246.529" x2="575.365" y2="292.445" gradientUnits="userSpaceOnUse">
<stop stop-color="#5DF1D7"/>
<stop offset="1" stop-color="#021F24"/>
</linearGradient>
<linearGradient id="paint30_linear" x1="547.587" y1="259.711" x2="548.681" y2="306.016" gradientUnits="userSpaceOnUse">
<stop stop-color="#5DF1D7"/>
<stop offset="1" stop-color="#021F24"/>
</linearGradient>
<linearGradient id="paint31_linear" x1="551.154" y1="252.451" x2="560.829" y2="297.747" gradientUnits="userSpaceOnUse">
<stop stop-color="#5DF1D7"/>
<stop offset="1" stop-color="#021F24"/>
</linearGradient>
<linearGradient id="paint32_linear" x1="520.781" y1="256.03" x2="527.338" y2="313.649" gradientUnits="userSpaceOnUse">
<stop stop-color="#5DF1D7"/>
<stop offset="1" stop-color="#021F24"/>
</linearGradient>
<linearGradient id="paint33_linear" x1="511.837" y1="255.992" x2="518.393" y2="313.611" gradientUnits="userSpaceOnUse">
<stop stop-color="#5DF1D7"/>
<stop offset="1" stop-color="#021F24"/>
</linearGradient>
<linearGradient id="paint34_linear" x1="528.449" y1="254.329" x2="541.083" y2="310.927" gradientUnits="userSpaceOnUse">
<stop stop-color="#5DF1D7"/>
<stop offset="1" stop-color="#021F24"/>
</linearGradient>
<linearGradient id="paint35_linear" x1="501.469" y1="251.198" x2="508.204" y2="314.028" gradientUnits="userSpaceOnUse">
<stop stop-color="#5DF1D7"/>
<stop offset="1" stop-color="#021F24"/>
</linearGradient>
<linearGradient id="paint36_linear" x1="494.363" y1="249.7" x2="495.949" y2="312.87" gradientUnits="userSpaceOnUse">
<stop stop-color="#5DF1D7"/>
<stop offset="1" stop-color="#021F24"/>
</linearGradient>
<linearGradient id="paint37_linear" x1="483.664" y1="253.789" x2="488.848" y2="309.495" gradientUnits="userSpaceOnUse">
<stop stop-color="#5DF1D7"/>
<stop offset="1" stop-color="#021F24"/>
</linearGradient>
<linearGradient id="paint38_linear" x1="477.57" y1="249.589" x2="476.713" y2="305.529" gradientUnits="userSpaceOnUse">
<stop stop-color="#5DF1D7"/>
<stop offset="1" stop-color="#021F24"/>
</linearGradient>
<linearGradient id="paint39_linear" x1="470.268" y1="247.572" x2="471.674" y2="301.066" gradientUnits="userSpaceOnUse">
<stop stop-color="#5DF1D7"/>
<stop offset="1" stop-color="#021F24"/>
</linearGradient>
<linearGradient id="paint40_linear" x1="460.302" y1="242.434" x2="461.708" y2="295.928" gradientUnits="userSpaceOnUse">
<stop stop-color="#5DF1D7"/>
<stop offset="1" stop-color="#021F24"/>
</linearGradient>
<linearGradient id="paint41_linear" x1="562.998" y1="254.433" x2="563.664" y2="257.045" gradientUnits="userSpaceOnUse">
<stop stop-color="#042635"/>
<stop offset="1" stop-color="#06565B"/>
</linearGradient>
<linearGradient id="paint42_linear" x1="557.356" y1="259.858" x2="558.022" y2="262.47" gradientUnits="userSpaceOnUse">
<stop stop-color="#042635"/>
<stop offset="1" stop-color="#06565B"/>
</linearGradient>
<linearGradient id="paint43_linear" x1="551.741" y1="263.898" x2="552.407" y2="266.51" gradientUnits="userSpaceOnUse">
<stop stop-color="#042635"/>
<stop offset="1" stop-color="#06565B"/>
</linearGradient>
<linearGradient id="paint44_linear" x1="566.688" y1="293.921" x2="570.774" y2="324.454" gradientUnits="userSpaceOnUse">
<stop stop-color="#042635"/>
<stop offset="1" stop-color="#06565B"/>
</linearGradient>
<radialGradient id="paint45_radial" cx="0" cy="0" r="1" gradientUnits="userSpaceOnUse" gradientTransform="translate(363.008 502.202) rotate(-88.4087) scale(108.888 308.652)">
<stop stop-color="#00A3FF" stop-opacity="0.26"/>
<stop offset="1" stop-color="#00A5FF" stop-opacity="0"/>
</radialGradient>
<linearGradient id="paint46_linear" x1="213.525" y1="380.194" x2="459.762" y2="469.735" gradientUnits="userSpaceOnUse">
<stop stop-color="#5DF1D7"/>
<stop offset="1" stop-color="#128698"/>
</linearGradient>
<linearGradient id="paint47_linear" x1="213.525" y1="380.194" x2="459.762" y2="469.735" gradientUnits="userSpaceOnUse">
<stop stop-color="#5DF1D7"/>
<stop offset="1" stop-color="#128698"/>
</linearGradient>
<linearGradient id="paint48_linear" x1="418.925" y1="330.127" x2="424.415" y2="360.499" gradientUnits="userSpaceOnUse">
<stop stop-color="#BAFEFF"/>
<stop offset="1" stop-color="#A5FFFE"/>
</linearGradient>
<linearGradient id="paint49_linear" x1="413.708" y1="145.461" x2="355.65" y2="146.901" gradientUnits="userSpaceOnUse">
<stop stop-color="#042635"/>
<stop offset="1" stop-color="#06565B"/>
</linearGradient>
<linearGradient id="paint50_linear" x1="-218.947" y1="497.825" x2="-218.947" y2="547.398" gradientUnits="userSpaceOnUse">
<stop stop-color="#5DF1D7"/>
<stop offset="1" stop-color="#0C6674"/>
</linearGradient>
<linearGradient id="paint51_linear" x1="357.483" y1="303.934" x2="306.716" y2="339.175" gradientUnits="userSpaceOnUse">
<stop stop-color="#ECF3FF"/>
<stop offset="1" stop-color="#C6D6FF"/>
</linearGradient>
<linearGradient id="paint52_linear" x1="228.463" y1="280.591" x2="245.917" y2="335.769" gradientUnits="userSpaceOnUse">
<stop stop-color="#CAECFF"/>
<stop offset="1" stop-color="#0399EB"/>
</linearGradient>
<linearGradient id="paint53_linear" x1="429.391" y1="221.458" x2="354.395" y2="252.131" gradientUnits="userSpaceOnUse">
<stop stop-color="#00A5FF"/>
<stop offset="1" stop-color="#14329F"/>
</linearGradient>
<linearGradient id="paint54_linear" x1="263.963" y1="258.34" x2="330.597" y2="298.989" gradientUnits="userSpaceOnUse">
<stop stop-color="#CAECFF"/>
<stop offset="1" stop-color="#00A5FF"/>
</linearGradient>
<linearGradient id="paint55_linear" x1="345.003" y1="261.773" x2="348.047" y2="259.433" gradientUnits="userSpaceOnUse">
<stop stop-color="#C1F4FF"/>
<stop offset="1" stop-color="#A4FAFF"/>
</linearGradient>
<linearGradient id="paint56_linear" x1="359.256" y1="418.569" x2="478.063" y2="333.137" gradientUnits="userSpaceOnUse">
<stop stop-color="#5DF1D7"/>
<stop offset="1" stop-color="#128698"/>
</linearGradient>
<linearGradient id="paint57_linear" x1="389.247" y1="277.983" x2="348.576" y2="291.477" gradientUnits="userSpaceOnUse">
<stop stop-color="#3183A7"/>
<stop offset="1" stop-color="#06565B"/>
</linearGradient>
<linearGradient id="paint58_linear" x1="382.779" y1="294.45" x2="382.241" y2="303.483" gradientUnits="userSpaceOnUse">
<stop stop-color="#042635"/>
<stop offset="1" stop-color="#06565B"/>
</linearGradient>
<linearGradient id="paint59_linear" x1="440.574" y1="222.584" x2="440.574" y2="229.893" gradientUnits="userSpaceOnUse">
<stop stop-color="#52EFFF"/>
<stop offset="1" stop-color="#25A0B3"/>
</linearGradient>
<linearGradient id="paint60_linear" x1="245.123" y1="241.933" x2="244.603" y2="332.811" gradientUnits="userSpaceOnUse">
<stop stop-color="#5DF1D7"/>
<stop offset="1" stop-color="#021F24"/>
</linearGradient>
<linearGradient id="paint61_linear" x1="283.237" y1="95.4859" x2="285.92" y2="95.9202" gradientUnits="userSpaceOnUse">
<stop stop-color="#042635"/>
<stop offset="1" stop-color="#001431"/>
</linearGradient>
<linearGradient id="paint62_linear" x1="260.598" y1="137.952" x2="292.109" y2="183.965" gradientUnits="userSpaceOnUse">
<stop stop-color="#5DF1D7"/>
<stop offset="1" stop-color="#128698"/>
</linearGradient>
<linearGradient id="paint63_linear" x1="169.81" y1="136.67" x2="197.307" y2="189.484" gradientUnits="userSpaceOnUse">
<stop stop-color="#5DF1D7"/>
<stop offset="1" stop-color="#128698"/>
</linearGradient>
<linearGradient id="paint64_linear" x1="174.072" y1="140.955" x2="224.687" y2="223.053" gradientUnits="userSpaceOnUse">
<stop stop-color="#5DF1D7"/>
<stop offset="1" stop-color="#128698"/>
</linearGradient>
<linearGradient id="paint65_linear" x1="241.124" y1="118.16" x2="234.562" y2="118.294" gradientUnits="userSpaceOnUse">
<stop stop-color="#D8E7FF"/>
<stop offset="1" stop-color="#C6D6FF"/>
</linearGradient>
<linearGradient id="paint66_linear" x1="229.928" y1="158.652" x2="290.726" y2="172.679" gradientUnits="userSpaceOnUse">
<stop stop-color="#5DF1D7"/>
<stop offset="1" stop-color="#128698"/>
</linearGradient>
<linearGradient id="paint67_linear" x1="260.871" y1="117.305" x2="255.199" y2="117.457" gradientUnits="userSpaceOnUse">
<stop stop-color="#042635"/>
<stop offset="1" stop-color="#06565B"/>
</linearGradient>
<linearGradient id="paint68_linear" x1="246.965" y1="122.014" x2="246.474" y2="132.887" gradientUnits="userSpaceOnUse">
<stop stop-color="#042635"/>
<stop offset="1" stop-color="#06565B"/>
</linearGradient>
<linearGradient id="paint69_linear" x1="248.35" y1="121.308" x2="273.489" y2="141.482" gradientUnits="userSpaceOnUse">
<stop stop-color="#042635"/>
<stop offset="1" stop-color="#001431"/>
</linearGradient>
<linearGradient id="paint70_linear" x1="239.625" y1="118.709" x2="254.939" y2="111.169" gradientUnits="userSpaceOnUse">
<stop stop-color="#28674F"/>
<stop offset="1" stop-color="#123635"/>
</linearGradient>
<linearGradient id="paint71_linear" x1="191.128" y1="84.9465" x2="200.216" y2="135.357" gradientUnits="userSpaceOnUse">
<stop stop-color="#5DF1D7"/>
<stop offset="1" stop-color="#128698"/>
</linearGradient>
<linearGradient id="paint72_linear" x1="224.588" y1="108.772" x2="254.828" y2="116.408" gradientUnits="userSpaceOnUse">
<stop stop-color="#5DF1D7"/>
<stop offset="1" stop-color="#128698"/>
</linearGradient>
<linearGradient id="paint73_linear" x1="244.359" y1="82.6033" x2="245.294" y2="91.0473" gradientUnits="userSpaceOnUse">
<stop stop-color="#042635"/>
<stop offset="1" stop-color="#001431"/>
</linearGradient>
<linearGradient id="paint74_linear" x1="259.475" y1="79.8072" x2="260.844" y2="79.9259" gradientUnits="userSpaceOnUse">
<stop stop-color="#042635"/>
<stop offset="1" stop-color="#001431"/>
</linearGradient>
<linearGradient id="paint75_linear" x1="233.695" y1="97.6713" x2="231.042" y2="123.432" gradientUnits="userSpaceOnUse">
<stop stop-color="#042635"/>
<stop offset="1" stop-color="#06565B"/>
</linearGradient>
<linearGradient id="paint76_linear" x1="216.888" y1="100.709" x2="205.609" y2="102.914" gradientUnits="userSpaceOnUse">
<stop stop-color="#042635"/>
<stop offset="1" stop-color="#06565B"/>
</linearGradient>
<linearGradient id="paint77_linear" x1="194.453" y1="87.734" x2="214.775" y2="99.2475" gradientUnits="userSpaceOnUse">
<stop stop-color="#5DF1D7"/>
<stop offset="1" stop-color="#128698"/>
</linearGradient>
<linearGradient id="paint78_linear" x1="204.641" y1="97.6016" x2="216.154" y2="106.59" gradientUnits="userSpaceOnUse">
<stop stop-color="#042635"/>
<stop offset="1" stop-color="#001431"/>
</linearGradient>
<linearGradient id="paint79_linear" x1="211.791" y1="91.5637" x2="213.628" y2="91.4721" gradientUnits="userSpaceOnUse">
<stop stop-color="#042635"/>
<stop offset="1" stop-color="#001431"/>
</linearGradient>
<linearGradient id="paint80_linear" x1="151.761" y1="127.035" x2="182.516" y2="156.511" gradientUnits="userSpaceOnUse">
<stop stop-color="#33B7D5"/>
<stop offset="1" stop-color="#123635"/>
</linearGradient>
<linearGradient id="paint81_linear" x1="131.979" y1="111.031" x2="147.929" y2="161.845" gradientUnits="userSpaceOnUse">
<stop stop-color="#33B7D5"/>
<stop offset="1" stop-color="#123635"/>
</linearGradient>
<linearGradient id="paint82_linear" x1="170.773" y1="131.401" x2="191.387" y2="156.307" gradientUnits="userSpaceOnUse">
<stop stop-color="#33B7D5"/>
<stop offset="1" stop-color="#123635"/>
</linearGradient>
<linearGradient id="paint83_linear" x1="188.504" y1="136.219" x2="209.262" y2="155.781" gradientUnits="userSpaceOnUse">
<stop stop-color="#33B7D5"/>
<stop offset="1" stop-color="#123635"/>
</linearGradient>
<linearGradient id="paint84_linear" x1="230.224" y1="99.9208" x2="213.311" y2="100.882" gradientUnits="userSpaceOnUse">
<stop stop-color="#042635"/>
<stop offset="1" stop-color="#06565B"/>
</linearGradient>
<linearGradient id="paint85_linear" x1="287.752" y1="99.2089" x2="271.502" y2="100.068" gradientUnits="userSpaceOnUse">
<stop stop-color="#042635"/>
<stop offset="1" stop-color="#06565B"/>
</linearGradient>
<linearGradient id="paint86_linear" x1="273.357" y1="124.316" x2="262.527" y2="131.944" gradientUnits="userSpaceOnUse">
<stop stop-color="#D8E7FF"/>
<stop offset="1" stop-color="#C6D6FF"/>
</linearGradient>
<linearGradient id="paint87_linear" x1="237.137" y1="97.6666" x2="240.418" y2="98.477" gradientUnits="userSpaceOnUse">
<stop stop-color="#042635"/>
<stop offset="1" stop-color="#001431"/>
</linearGradient>
<linearGradient id="paint88_linear" x1="232.833" y1="103.125" x2="239.154" y2="104.701" gradientUnits="userSpaceOnUse">
<stop stop-color="#5DF1D7"/>
<stop offset="1" stop-color="#128698"/>
</linearGradient>
<linearGradient id="paint89_linear" x1="254.965" y1="93.4481" x2="255.379" y2="93.9526" gradientUnits="userSpaceOnUse">
<stop stop-color="#BAFEFF"/>
<stop offset="1" stop-color="#A5FFFE"/>
</linearGradient>
<linearGradient id="paint90_linear" x1="280.521" y1="92.6258" x2="281.191" y2="92.6461" gradientUnits="userSpaceOnUse">
<stop stop-color="#BAFEFF"/>
<stop offset="1" stop-color="#A5FFFE"/>
</linearGradient>
<linearGradient id="paint91_linear" x1="279.246" y1="104.069" x2="279.453" y2="104.321" gradientUnits="userSpaceOnUse">
<stop stop-color="#BAFEFF"/>
<stop offset="1" stop-color="#A5FFFE"/>
</linearGradient>
<linearGradient id="paint92_linear" x1="243.698" y1="94.366" x2="222.147" y2="95.2385" gradientUnits="userSpaceOnUse">
<stop stop-color="#00A5FF"/>
<stop offset="1" stop-color="#14329F"/>
</linearGradient>
<linearGradient id="paint93_linear" x1="243.698" y1="339.168" x2="222.203" y2="340.569" gradientUnits="userSpaceOnUse">
<stop stop-color="#00A5FF"/>
<stop offset="1" stop-color="#14329F"/>
</linearGradient>
<linearGradient id="paint94_linear" x1="199.957" y1="349.506" x2="168.75" y2="367.5" gradientUnits="userSpaceOnUse">
<stop stop-color="#00A5FF"/>
<stop offset="1" stop-color="#14329F"/>
</linearGradient>
<linearGradient id="paint95_linear" x1="289.639" y1="349.506" x2="320.846" y2="367.5" gradientUnits="userSpaceOnUse">
<stop stop-color="#00A5FF"/>
<stop offset="1" stop-color="#14329F"/>
</linearGradient>
<linearGradient id="paint96_linear" x1="241.915" y1="413.784" x2="209.603" y2="446.163" gradientUnits="userSpaceOnUse">
<stop stop-color="#00A5FF"/>
<stop offset="1" stop-color="#14329F"/>
</linearGradient>
<linearGradient id="paint97_linear" x1="238.585" y1="215.609" x2="238.647" y2="255.799" gradientUnits="userSpaceOnUse">
<stop stop-color="#00A5FF"/>
<stop offset="1" stop-color="#14329F"/>
</linearGradient>
<linearGradient id="paint98_linear" x1="224.748" y1="213.567" x2="226.518" y2="238.695" gradientUnits="userSpaceOnUse">
<stop stop-color="#00A5FF"/>
<stop offset="1" stop-color="#14329F"/>
</linearGradient>
<linearGradient id="paint99_linear" x1="218.753" y1="228.552" x2="206.511" y2="258.796" gradientUnits="userSpaceOnUse">
<stop stop-color="#00A5FF"/>
<stop offset="1" stop-color="#14329F"/>
</linearGradient>
<linearGradient id="paint100_linear" x1="237.14" y1="245.027" x2="232.043" y2="266.432" gradientUnits="userSpaceOnUse">
<stop stop-color="#00A5FF"/>
<stop offset="1" stop-color="#14329F"/>
</linearGradient>
<linearGradient id="paint101_linear" x1="259.636" y1="209.173" x2="245.867" y2="235.947" gradientUnits="userSpaceOnUse">
<stop stop-color="#00A5FF"/>
<stop offset="1" stop-color="#14329F"/>
</linearGradient>
<linearGradient id="paint102_linear" x1="194.04" y1="245.34" x2="231.483" y2="263.594" gradientUnits="userSpaceOnUse">
<stop stop-color="#CAECFF"/>
<stop offset="1" stop-color="#0498DF"/>
</linearGradient>
<linearGradient id="paint103_linear" x1="273.975" y1="203.479" x2="251.47" y2="208.685" gradientUnits="userSpaceOnUse">
<stop stop-color="#00A5FF"/>
<stop offset="1" stop-color="#14329F"/>
</linearGradient>
<linearGradient id="paint104_linear" x1="286.378" y1="244.049" x2="264.81" y2="252.318" gradientUnits="userSpaceOnUse">
<stop stop-color="#00A5FF"/>
<stop offset="1" stop-color="#14329F"/>
</linearGradient>
<linearGradient id="paint105_linear" x1="228.619" y1="227.012" x2="252.327" y2="244.857" gradientUnits="userSpaceOnUse">
<stop stop-color="#CAECFF"/>
<stop offset="1" stop-color="#0498DF"/>
</linearGradient>
<linearGradient id="paint106_linear" x1="207.095" y1="259.298" x2="208.128" y2="266.192" gradientUnits="userSpaceOnUse">
<stop stop-color="#CAECFF"/>
<stop offset="1" stop-color="#0399EB"/>
</linearGradient>
<linearGradient id="paint107_linear" x1="120.124" y1="395.391" x2="426.09" y2="246.199" gradientUnits="userSpaceOnUse">
<stop stop-color="#00A5FF"/>
<stop offset="1" stop-color="#14329F"/>
</linearGradient>
<linearGradient id="paint108_linear" x1="235.778" y1="247.207" x2="233.736" y2="280.433" gradientUnits="userSpaceOnUse">
<stop stop-color="#00A5FF"/>
<stop offset="1" stop-color="#14329F"/>
</linearGradient>
<linearGradient id="paint109_linear" x1="231.305" y1="264.228" x2="241.689" y2="270.103" gradientUnits="userSpaceOnUse">
<stop stop-color="#CAECFF"/>
<stop offset="1" stop-color="#0399EB"/>
</linearGradient>
<linearGradient id="paint110_linear" x1="202.583" y1="279.358" x2="205.285" y2="287.901" gradientUnits="userSpaceOnUse">
<stop stop-color="#CAECFF"/>
<stop offset="1" stop-color="#0096E8"/>
</linearGradient>
<linearGradient id="paint111_linear" x1="120.955" y1="182.356" x2="128.819" y2="226.375" gradientUnits="userSpaceOnUse">
<stop stop-color="#CEFFDD"/>
<stop offset="1" stop-color="#B2FFF9"/>
</linearGradient>
<linearGradient id="paint112_linear" x1="171.007" y1="205.75" x2="147.482" y2="231.754" gradientUnits="userSpaceOnUse">
<stop stop-color="#066A81"/>
<stop offset="1" stop-color="#12E2EF"/>
</linearGradient>
<linearGradient id="paint113_linear" x1="141.159" y1="200.866" x2="168.749" y2="205.251" gradientUnits="userSpaceOnUse">
<stop stop-color="#165B7A"/>
<stop offset="1" stop-color="#001431"/>
</linearGradient>
<linearGradient id="paint114_linear" x1="388.602" y1="128.433" x2="351.934" y2="156.527" gradientUnits="userSpaceOnUse">
<stop stop-color="#52EFFF"/>
<stop offset="1" stop-color="#25A0B3"/>
</linearGradient>
<linearGradient id="paint115_linear" x1="370.437" y1="137.943" x2="354.521" y2="152.266" gradientUnits="userSpaceOnUse">
<stop stop-color="#042635"/>
<stop offset="1" stop-color="#001431"/>
</linearGradient>
<linearGradient id="paint116_linear" x1="319.354" y1="172.395" x2="335.902" y2="185.646" gradientUnits="userSpaceOnUse">
<stop stop-color="#00A5FF"/>
<stop offset="1" stop-color="#0F38CD"/>
</linearGradient>
<linearGradient id="paint117_linear" x1="380.788" y1="151.958" x2="325.326" y2="150.254" gradientUnits="userSpaceOnUse">
<stop stop-color="#25A0B3"/>
<stop offset="1" stop-color="#34D7E8"/>
</linearGradient>
<linearGradient id="paint118_linear" x1="337.942" y1="232.093" x2="362.636" y2="221.465" gradientUnits="userSpaceOnUse">
<stop stop-color="#34D7E8"/>
<stop offset="0.85" stop-color="#259EB1"/>
<stop offset="1" stop-color="#25A0B3"/>
</linearGradient>
<linearGradient id="paint119_linear" x1="353.802" y1="161.772" x2="336.794" y2="177.719" gradientUnits="userSpaceOnUse">
<stop stop-color="#165B7A"/>
<stop offset="1" stop-color="#001431"/>
</linearGradient>
<linearGradient id="paint120_linear" x1="3.78274" y1="4.1999" x2="1.38972" y2="16.3996" gradientUnits="userSpaceOnUse">
<stop stop-color="#042635"/>
<stop offset="1" stop-color="#06565B"/>
</linearGradient>
<linearGradient id="paint121_linear" x1="-15.2314" y1="5.26377" x2="-0.219363" y2="17.4265" gradientUnits="userSpaceOnUse">
<stop stop-color="#CAECFF"/>
<stop offset="1" stop-color="#99DAFE"/>
</linearGradient>
<linearGradient id="paint122_linear" x1="337.696" y1="119.688" x2="338.513" y2="161.206" gradientUnits="userSpaceOnUse">
<stop stop-color="#52EFFF"/>
<stop offset="1" stop-color="#25A0B3"/>
</linearGradient>
<linearGradient id="paint123_linear" x1="332.122" y1="149.437" x2="342.006" y2="122.721" gradientUnits="userSpaceOnUse">
<stop stop-color="#34D7E8"/>
<stop offset="0.85" stop-color="#259EB1"/>
<stop offset="1" stop-color="#25A0B3"/>
</linearGradient>
<linearGradient id="paint124_linear" x1="341.142" y1="156.4" x2="387.19" y2="174.954" gradientUnits="userSpaceOnUse">
<stop stop-color="#165B7A"/>
<stop offset="1" stop-color="#001431"/>
</linearGradient>
<linearGradient id="paint125_linear" x1="376.876" y1="137.427" x2="379.048" y2="141.468" gradientUnits="userSpaceOnUse">
<stop stop-color="#BAFEFF"/>
<stop offset="1" stop-color="#A5FFFE"/>
</linearGradient>
<linearGradient id="paint126_linear" x1="340.212" y1="156.623" x2="350.593" y2="149.665" gradientUnits="userSpaceOnUse">
<stop stop-color="#34D7E8"/>
<stop offset="0.85" stop-color="#259EB1"/>
<stop offset="1" stop-color="#25A0B3"/>
</linearGradient>
<linearGradient id="paint127_linear" x1="333.136" y1="150.287" x2="352.324" y2="152.354" gradientUnits="userSpaceOnUse">
<stop stop-color="#B1F5FF"/>
<stop offset="1" stop-color="#34D7E8"/>
</linearGradient>
<linearGradient id="paint128_linear" x1="350.289" y1="134.882" x2="319.422" y2="146.474" gradientUnits="userSpaceOnUse">
<stop stop-color="#52EFFF"/>
<stop offset="1" stop-color="#25A0B3"/>
</linearGradient>
<linearGradient id="paint129_linear" x1="349.609" y1="157.831" x2="349.078" y2="167.418" gradientUnits="userSpaceOnUse">
<stop stop-color="#042635"/>
<stop offset="1" stop-color="#06565B"/>
</linearGradient>
<linearGradient id="paint130_linear" x1="343.051" y1="151.823" x2="342.866" y2="164.483" gradientUnits="userSpaceOnUse">
<stop stop-color="#5DF1D7"/>
<stop offset="1" stop-color="#021F24"/>
</linearGradient>
<linearGradient id="paint131_linear" x1="343.245" y1="149.855" x2="340.762" y2="162.271" gradientUnits="userSpaceOnUse">
<stop stop-color="#5DF1D7"/>
<stop offset="1" stop-color="#021F24"/>
</linearGradient>
<linearGradient id="paint132_linear" x1="348.273" y1="153.419" x2="347.977" y2="165.94" gradientUnits="userSpaceOnUse">
<stop stop-color="#5DF1D7"/>
<stop offset="1" stop-color="#021F24"/>
</linearGradient>
<linearGradient id="paint133_linear" x1="347.307" y1="151.454" x2="344.691" y2="163.702" gradientUnits="userSpaceOnUse">
<stop stop-color="#5DF1D7"/>
<stop offset="1" stop-color="#021F24"/>
</linearGradient>
<linearGradient id="paint134_linear" x1="355.523" y1="152.425" x2="353.75" y2="168.005" gradientUnits="userSpaceOnUse">
<stop stop-color="#5DF1D7"/>
<stop offset="1" stop-color="#021F24"/>
</linearGradient>
<linearGradient id="paint135_linear" x1="357.94" y1="152.412" x2="356.167" y2="167.993" gradientUnits="userSpaceOnUse">
<stop stop-color="#5DF1D7"/>
<stop offset="1" stop-color="#021F24"/>
</linearGradient>
<linearGradient id="paint136_linear" x1="353.448" y1="151.964" x2="350.032" y2="167.268" gradientUnits="userSpaceOnUse">
<stop stop-color="#5DF1D7"/>
<stop offset="1" stop-color="#021F24"/>
</linearGradient>
<linearGradient id="paint137_linear" x1="360.745" y1="151.116" x2="358.924" y2="168.105" gradientUnits="userSpaceOnUse">
<stop stop-color="#5DF1D7"/>
<stop offset="1" stop-color="#021F24"/>
</linearGradient>
<linearGradient id="paint138_linear" x1="362.666" y1="150.712" x2="362.237" y2="167.794" gradientUnits="userSpaceOnUse">
<stop stop-color="#5DF1D7"/>
<stop offset="1" stop-color="#021F24"/>
</linearGradient>
<linearGradient id="paint139_linear" x1="365.559" y1="151.818" x2="364.157" y2="166.881" gradientUnits="userSpaceOnUse">
<stop stop-color="#5DF1D7"/>
<stop offset="1" stop-color="#021F24"/>
</linearGradient>
<linearGradient id="paint140_linear" x1="367.207" y1="150.682" x2="367.438" y2="165.808" gradientUnits="userSpaceOnUse">
<stop stop-color="#5DF1D7"/>
<stop offset="1" stop-color="#021F24"/>
</linearGradient>
<linearGradient id="paint141_linear" x1="369.18" y1="150.137" x2="368.8" y2="164.602" gradientUnits="userSpaceOnUse">
<stop stop-color="#5DF1D7"/>
<stop offset="1" stop-color="#021F24"/>
</linearGradient>
<linearGradient id="paint142_linear" x1="371.876" y1="148.748" x2="371.496" y2="163.213" gradientUnits="userSpaceOnUse">
<stop stop-color="#5DF1D7"/>
<stop offset="1" stop-color="#021F24"/>
</linearGradient>
<linearGradient id="paint143_linear" x1="344.103" y1="151.993" x2="343.923" y2="152.699" gradientUnits="userSpaceOnUse">
<stop stop-color="#042635"/>
<stop offset="1" stop-color="#06565B"/>
</linearGradient>
<linearGradient id="paint144_linear" x1="345.63" y1="153.46" x2="345.45" y2="154.166" gradientUnits="userSpaceOnUse">
<stop stop-color="#042635"/>
<stop offset="1" stop-color="#06565B"/>
</linearGradient>
<linearGradient id="paint145_linear" x1="347.149" y1="154.551" x2="346.969" y2="155.258" gradientUnits="userSpaceOnUse">
<stop stop-color="#042635"/>
<stop offset="1" stop-color="#06565B"/>
</linearGradient>
<linearGradient id="paint146_linear" x1="343.106" y1="162.67" x2="342.001" y2="170.926" gradientUnits="userSpaceOnUse">
<stop stop-color="#042635"/>
<stop offset="1" stop-color="#06565B"/>
</linearGradient>
<linearGradient id="paint147_linear" x1="70.1439" y1="176.245" x2="164.873" y2="176.375" gradientUnits="userSpaceOnUse">
<stop stop-color="#50FDBF" stop-opacity="0.65"/>
<stop offset="1" stop-color="#56FFFF" stop-opacity="0"/>
</linearGradient>
<linearGradient id="paint148_linear" x1="459.234" y1="426.535" x2="459.234" y2="464.843" gradientUnits="userSpaceOnUse">
<stop stop-color="#446E73"/>
<stop offset="1" stop-color="#1B474E"/>
</linearGradient>
<linearGradient id="paint149_linear" x1="459.234" y1="464.843" x2="459.234" y2="503.152" gradientUnits="userSpaceOnUse">
<stop stop-color="#446E73"/>
<stop offset="1" stop-color="#1B474E"/>
</linearGradient>
<linearGradient id="paint150_linear" x1="459.234" y1="503.15" x2="459.234" y2="541.458" gradientUnits="userSpaceOnUse">
<stop stop-color="#446E73"/>
<stop offset="1" stop-color="#1B474E"/>
</linearGradient>
<linearGradient id="paint151_linear" x1="458.651" y1="347.109" x2="297.772" y2="370.26" gradientUnits="userSpaceOnUse">
<stop stop-color="#042635"/>
<stop offset="1" stop-color="#06565B"/>
</linearGradient>
</defs>
</svg>
