<svg width="34" height="52" viewBox="0 0 34 52" fill="none" xmlns="http://www.w3.org/2000/svg">
<circle opacity="0.2" cx="17" cy="35" r="17" fill="#3EF3F3"/>
<path d="M16.5789 25.8947C20.1502 25.8947 23.031 22.9924 23.031 19.4211L23.0526 6.47368C23.0526 2.89158 20.161 0 16.5789 0C13.0076 0 10.1052 2.89158 10.1052 6.47368V19.4211C10.1052 22.9924 13.0076 25.8947 16.5789 25.8947ZM28.0157 19.4211C28.0157 25.8947 22.5455 30.4263 16.5789 30.4263C10.6231 30.4263 5.14205 25.8947 5.14205 19.4211H1.47363C1.47363 26.7903 7.34311 32.8755 14.421 33.9221V41H18.7368V33.9221C25.8147 32.8755 31.6842 26.7903 31.6842 19.4211H28.0157Z" fill="#12D6D6"/>
</svg>
