<svg width="54" height="54" viewBox="0 0 54 54" fill="none" xmlns="http://www.w3.org/2000/svg">
<path d="M27 24C31.9706 24 36 19.9706 36 15C36 10.0294 31.9706 6 27 6C22.0294 6 18 10.0294 18 15C18 19.9706 22.0294 24 27 24ZM27 30C18.7157 30 12 23.2843 12 15C12 6.71573 18.7157 0 27 0C35.2843 0 42 6.71573 42 15C42 23.2843 35.2843 30 27 30ZM48 54V45C48 41.6863 45.3137 39 42 39H12C8.68629 39 6 41.6863 6 45V54H0V45C0 38.3726 5.37258 33 12 33H42C48.6274 33 54 38.3726 54 45V54H48Z" fill="#B2B5BB"/>
</svg>
