<svg width="509" height="512" viewBox="0 0 509 512" fill="none" xmlns="http://www.w3.org/2000/svg">
<circle opacity="0.2" cx="264.5" cy="302.5" r="181.5" stroke="#129292" stroke-width="55"/>
<path d="M204.368 389.179C200.936 391.135 199.076 394.865 198.788 400.365C198.355 408.622 204.758 412.902 226.46 419.047C248.162 425.196 293.323 427.562 314.142 420.783C334.962 414.003 343.85 403.987 345.762 398.167C347.675 392.343 345.517 383.584 341.332 383.364C338.543 383.218 292.887 385.157 204.368 389.179Z" fill="url(#paint0_linear)"/>
<path fill-rule="evenodd" clip-rule="evenodd" d="M345.584 387.865C344.711 385.323 343.231 383.464 341.332 383.364C341.257 383.36 341.152 383.358 341.02 383.357L345.584 387.865ZM339.403 383.828L346.289 390.864C346.507 392.441 346.528 394.103 346.319 395.681L337.311 385.806C338.017 385.161 338.713 384.504 339.403 383.828ZM345.889 397.756L336.228 386.774C335.508 387.409 334.78 388.026 334.044 388.627L344.321 401.2C344.988 400.103 345.462 399.082 345.762 398.167C345.809 398.031 345.849 397.895 345.889 397.756ZM332.913 389.535L343.297 402.73C342.65 403.615 341.887 404.536 340.999 405.481L330.637 391.26C331.404 390.7 332.162 390.127 332.913 389.535ZM329.464 392.097L339.727 406.76C338.921 407.535 338.029 408.321 337.051 409.111L327.1 393.686C327.897 393.172 328.685 392.642 329.464 392.097ZM335.628 410.211L325.884 394.454C325.077 394.953 324.261 395.435 323.436 395.903L332.701 412.241C333.745 411.566 334.719 410.89 335.628 410.211ZM331.18 413.192L322.184 396.597C321.351 397.049 320.508 397.486 319.656 397.907L328.081 414.952C329.17 414.372 330.202 413.784 331.18 413.192ZM318.43 398.501L326.569 415.735C325.542 416.252 324.468 416.761 323.346 417.264L315.827 399.671C316.704 399.296 317.572 398.906 318.43 398.501ZM212.838 394.601C211.963 394.198 211.112 393.786 210.283 393.365L202.346 408.972C203.153 409.697 204.113 410.396 205.24 411.086L212.838 394.601ZM321.677 417.987L314.48 400.231C313.599 400.588 312.708 400.928 311.808 401.257L318.368 419.304C319.512 418.874 320.614 418.436 321.677 417.987ZM218.169 396.836C219.069 397.178 219.988 397.514 220.928 397.84L214.83 415.404C213.669 414.988 212.582 414.577 211.566 414.166L218.169 396.836ZM316.666 419.924L310.432 401.743C309.53 402.051 308.618 402.345 307.697 402.627L313.294 421.051C313.581 420.964 313.864 420.873 314.142 420.783C315.004 420.503 315.845 420.217 316.666 419.924ZM222.343 398.319C223.27 398.626 224.216 398.925 225.181 399.216L219.788 417.063C218.634 416.699 217.535 416.339 216.491 415.983L222.343 398.319ZM311.574 421.54L306.303 403.038C305.381 403.299 304.45 403.548 303.509 403.781L308.127 422.36C309.325 422.107 310.476 421.834 311.574 421.54ZM226.631 399.644C227.581 399.919 228.548 400.186 229.532 400.445L224.763 418.562C223.616 418.231 222.515 417.903 221.458 417.581L226.631 399.644ZM306.376 422.71L302.086 404.121C301.147 404.339 300.199 404.542 299.242 404.729L302.897 423.294C304.09 423.116 305.252 422.921 306.376 422.71ZM231.02 400.826C231.989 401.069 232.974 401.307 233.976 401.537L229.767 419.915C228.613 419.635 227.509 419.346 226.46 419.047C226.455 419.047 226.45 419.047 226.445 419.044L231.02 400.826ZM301.181 423.537L297.83 404.997C296.876 405.17 295.913 405.326 294.94 405.471L297.695 423.952C298.881 423.828 300.044 423.691 301.181 423.537ZM235.412 401.858C236.397 402.072 237.396 402.281 238.411 402.484L234.723 420.994C233.572 420.769 232.456 420.533 231.377 420.29L235.412 401.858ZM239.927 402.777C240.925 402.967 241.937 403.15 242.962 403.326L239.763 421.901C238.619 421.715 237.5 421.518 236.408 421.317L239.927 402.777ZM244.496 403.584C245.505 403.751 246.527 403.91 247.562 404.063L244.811 422.656C243.672 422.503 242.551 422.339 241.451 422.17L244.496 403.584ZM249.109 404.285C250.128 404.429 251.159 404.564 252.201 404.697L249.859 423.287C248.725 423.158 247.604 423.021 246.499 422.879L249.109 404.285ZM253.758 404.887C254.784 405.009 255.822 405.127 256.871 405.239L254.902 423.8C253.773 423.696 252.653 423.586 251.544 423.468L253.758 404.887ZM258.443 405.399C259.476 405.502 260.52 405.601 261.574 405.693L259.946 424.215C258.821 424.132 257.702 424.046 256.59 423.949L258.443 405.399ZM266.295 406.069C265.236 405.993 264.188 405.914 263.149 405.826L261.628 424.33C262.742 424.401 263.86 424.468 264.98 424.527L266.295 406.069ZM271.04 406.369C269.978 406.31 268.924 406.246 267.881 406.177L266.667 424.609C267.782 424.662 268.899 424.705 270.016 424.743L271.04 406.369ZM275.146 424.861L275.625 406.567C274.628 406.539 273.623 406.501 272.61 406.451L271.711 424.795C272.858 424.826 274.004 424.847 275.146 424.861ZM280.32 424.874L280.138 406.603C279.145 406.614 278.144 406.612 277.135 406.595L276.872 424.88C278.026 424.886 279.176 424.883 280.32 424.874ZM285.501 424.767L284.616 406.474C283.631 406.521 282.637 406.556 281.635 406.579L282.046 424.85C283.206 424.833 284.359 424.803 285.501 424.767ZM290.707 424.526L289.063 406.169C288.086 406.256 287.099 406.331 286.104 406.393L287.234 424.702C288.404 424.652 289.562 424.595 290.707 424.526ZM295.931 424.127L293.469 405.679C292.504 405.809 291.529 405.923 290.545 406.027L292.456 424.411C293.632 424.328 294.791 424.233 295.931 424.127ZM214.172 395.203C215.039 395.581 215.928 395.955 216.839 396.319L209.984 413.5C208.824 412.995 207.768 412.489 206.81 411.979L214.172 395.203ZM206.606 391.345C207.387 391.81 208.193 392.264 209.024 392.707L201.039 407.624C200.091 406.484 199.468 405.277 199.118 403.967L206.606 391.345ZM205.43 390.629C204.864 390.275 204.31 389.915 203.771 389.55L203.657 389.626C200.679 391.678 199.056 395.257 198.788 400.365C198.772 400.677 198.765 400.98 198.768 401.281L205.43 390.629Z" fill="url(#paint1_linear)"/>
<path fill-rule="evenodd" clip-rule="evenodd" d="M337.766 301.817C337.739 302.068 337.765 302.328 337.841 302.566C346.472 329.593 359.715 356.254 367.668 365.449C382.008 382.029 422.596 355.419 432.523 295.741C432.681 294.792 432.479 293.879 431.636 293.468L411.583 282.33C410.795 281.945 409.839 282.186 409.333 282.903C404.629 289.543 389.201 310.215 389.201 310.215C389.201 310.215 358.417 237.587 351.859 236.946C347.188 236.489 342.491 258.113 337.766 301.817Z" fill="url(#paint2_linear)"/>
<path opacity="0.1" fill-rule="evenodd" clip-rule="evenodd" d="M345.275 257.857C350.424 271.043 354.87 290.991 358.61 317.702C363.437 352.175 394.446 359.461 412.14 349.595C398.736 365.234 380.115 377.416 368.668 366.449C360.043 358.183 346.393 329.432 337.725 302.202L338.207 297.806C339.974 281.97 341.737 269.224 343.496 259.569L345.275 257.857Z" fill="#262626"/>
<path opacity="0.1" fill-rule="evenodd" clip-rule="evenodd" d="M381.765 336.667C378.889 329.423 379.147 315.771 382.539 295.713C385.454 300.499 387.88 305.124 389.402 309.084L389.676 309.818C384.884 318.544 382.246 327.493 381.765 336.667Z" fill="#262626"/>
<path fill-rule="evenodd" clip-rule="evenodd" d="M231.385 209.042C231.134 209.04 230.881 209.092 230.651 209.192C216.041 215.571 205.195 222.136 198.112 228.889C187.403 239.098 200.183 283.615 199.301 300.448C198.419 317.279 194.913 380.257 199.089 390.552C203.265 400.846 236.416 410.617 275.605 412.671C314.794 414.724 337.852 393.763 341.201 385.866C344.55 377.969 336.986 327.825 342.054 300.347C345.395 282.229 348.63 261.359 351.755 237.736C351.82 237.234 351.676 236.725 351.341 236.346C344.503 228.644 332.063 222.26 314.021 217.193C295.577 212.013 268.031 209.296 231.385 209.042Z" fill="url(#paint3_linear)"/>
<path opacity="0.5" d="M219.831 262.703L218.191 262.703C216.379 262.703 214.91 264.172 214.91 265.984L214.91 310.276C214.91 312.087 216.379 313.558 218.191 313.557L219.831 313.559C221.643 313.558 223.112 312.088 223.112 310.276L223.112 265.984C223.112 264.172 221.643 262.703 219.831 262.703Z" fill="url(#paint4_linear)"/>
<path fill-rule="evenodd" clip-rule="evenodd" d="M272.684 212.422C272.785 211.45 273.645 210.736 274.619 210.819C290.588 212.176 303.722 214.3 314.018 217.192C332.059 222.258 344.498 228.642 351.335 236.344C351.673 236.723 351.817 237.232 351.752 237.734L350.937 243.819C348.066 264.957 345.105 283.799 342.051 300.347C336.984 327.825 344.547 377.966 341.198 385.863C339.611 389.604 333.602 396.277 323.55 402.046C307.505 411.291 288.5 414 267.466 412L270.042 237.744L272.684 212.422Z" fill="url(#paint5_linear)"/>
<path opacity="0.5" fill-rule="evenodd" clip-rule="evenodd" d="M308.209 353.029C308.817 352.932 309.431 353.15 309.848 353.605C316.466 360.81 326.92 368.991 341.212 378.149C341.744 378.489 342.061 379.083 342.046 379.716L342.042 379.848C341.947 382.631 341.691 384.705 341.201 385.866C337.849 393.762 314.793 414.724 275.604 412.671C243.526 410.989 215.493 404.137 204.086 396.062C203.186 395.423 203.187 394.134 204.014 393.405C215.931 382.888 226.773 370.947 236.539 357.58C236.899 357.088 237.484 356.806 238.093 356.838C261.589 358 284.961 356.732 308.209 353.029Z" fill="url(#paint6_linear)"/>
<path opacity="0.1" fill-rule="evenodd" clip-rule="evenodd" d="M204.723 283.002C206.686 285.378 201.73 223.437 212.895 228.252C224.06 233.066 212.508 278.859 219.011 300.445C225.514 322.032 235.545 329.638 240.41 345.433L240.928 347.13C249.381 375.1 257.846 413.726 314.9 406.297C304.584 410.584 291.405 413.499 275.603 412.671C236.414 410.617 203.263 400.846 199.087 390.552C195.078 380.668 198.149 322.234 199.181 302.683L199.299 300.445C199.485 296.907 199.066 292.139 198.388 286.726L204.723 283.002Z" fill="#262626"/>
<path d="M266.737 244.967L267.874 275.085L271.005 275.249L272.576 245.273L266.737 244.967Z" fill="url(#paint7_linear)"/>
<path d="M245.925 220.09L253.338 241.105C254.942 245.65 259.318 248.622 264.135 248.437L276.358 247.967C280.078 247.824 283.472 245.81 285.38 242.613L297.222 222.778L245.925 220.09Z" fill="url(#paint8_linear)"/>
<path d="M305.476 146.166C305.476 146.166 302.321 168.084 306.14 176.132C309.96 184.18 310.148 206.214 298.242 214.629C286.337 223.044 281.652 221.02 281.652 221.02L284.327 169.991L300.364 145.898L305.476 146.166Z" fill="url(#paint9_linear)"/>
<path d="M227.465 204.296C227.342 202.505 228.412 200.844 230.135 200.34C249.45 194.689 285.82 194.297 313.339 201.954C315.064 202.434 316.216 204.038 316.176 205.828L316.087 209.82C316.039 212.021 314.22 213.769 312.019 213.731L231.682 212.329C229.606 212.292 227.903 210.674 227.761 208.603L227.465 204.296Z" fill="url(#paint10_linear)"/>
<path fill-rule="evenodd" clip-rule="evenodd" d="M237.563 219.945C245.394 210.2 256.585 192.753 260.406 173.735L286.485 175.102C287.145 197.655 294.901 208.66 300.137 223.767L237.563 219.945Z" fill="url(#paint11_linear)"/>
<path fill-rule="evenodd" clip-rule="evenodd" d="M261.826 173.809L286.54 176.598C286.875 184.191 288.026 190.455 289.601 196.03C278.954 195.283 269.235 192.447 258.367 181.711C259.175 179.095 259.864 176.431 260.406 173.735L261.826 173.809Z" fill="#0D0908" fill-opacity="0.108883"/>
<path fill-rule="evenodd" clip-rule="evenodd" d="M251.092 157.297C254.052 156.934 255.961 152.64 255.355 147.706C254.749 142.773 251.859 139.068 248.899 139.432C245.938 139.795 244.03 144.089 244.636 149.023C245.241 153.956 248.132 157.661 251.092 157.297Z" fill="url(#paint12_linear)"/>
<path fill-rule="evenodd" clip-rule="evenodd" d="M300.699 159.897C297.793 159.226 296.343 154.756 297.462 149.913C298.58 145.07 301.842 141.688 304.748 142.358C307.654 143.029 309.103 147.499 307.985 152.342C306.867 157.186 303.604 160.568 300.699 159.897Z" fill="url(#paint13_linear)"/>
<path fill-rule="evenodd" clip-rule="evenodd" d="M274.381 187.494C289.272 188.275 302.23 172.007 303.322 151.159C304.415 130.311 293.229 112.778 278.338 111.998C263.446 111.217 250.489 127.485 249.396 148.333C248.304 169.181 259.49 186.714 274.381 187.494Z" fill="url(#paint14_linear)"/>
<path fill-rule="evenodd" clip-rule="evenodd" d="M301.865 135.924L279.898 122.774L258.595 128.194L254.062 139.773C254.062 139.773 269.647 151.583 289.046 151.128C295.042 150.987 299.748 150.195 303.39 149.167C303.461 144.51 302.92 140.044 301.865 135.924Z" fill="#0D0908" fill-opacity="0.108883"/>
<path d="M249.417 136.917L249.417 148.364L253.452 138.773L249.417 136.917Z" fill="url(#paint15_linear)"/>
<path d="M264.228 155.772C265.221 155.824 266.082 154.793 266.152 153.469C266.221 152.146 265.472 151.03 264.48 150.978C263.487 150.926 262.626 151.957 262.557 153.281C262.487 154.605 263.236 155.72 264.228 155.772Z" fill="url(#paint16_linear)"/>
<path d="M286.997 157.965C287.99 158.017 288.851 156.986 288.92 155.663C288.99 154.339 288.241 153.224 287.248 153.172C286.256 153.12 285.395 154.15 285.325 155.474C285.256 156.798 286.004 157.913 286.997 157.965Z" fill="url(#paint17_linear)"/>
<path fill-rule="evenodd" clip-rule="evenodd" d="M268.97 170.993L280.295 171.587L280.252 172.396C280.088 175.523 277.42 177.925 274.293 177.761C271.166 177.597 268.764 174.929 268.928 171.802L268.97 170.993Z" fill="url(#paint18_linear)"/>
<mask id="mask0" mask-type="alpha" maskUnits="userSpaceOnUse" x="268" y="170" width="13" height="8">
<path fill-rule="evenodd" clip-rule="evenodd" d="M268.97 170.993L280.295 171.587L280.252 172.396C280.088 175.523 277.42 177.925 274.293 177.761C271.166 177.597 268.764 174.929 268.928 171.802L268.97 170.993Z" fill="white"/>
</mask>
<g mask="url(#mask0)">
<path opacity="0.5" fill-rule="evenodd" clip-rule="evenodd" d="M268.802 178.366C268.961 175.33 272.162 173.436 274.9 174.759L275.019 174.817C277.746 173.769 280.648 175.876 280.495 178.794L280.486 178.978L268.802 178.366Z" fill="#BDFFEE"/>
</g>
<path d="M247.098 135.735C248.899 139.432 255.498 142.733 262.693 143.197L266.358 134.224L267.005 145.538C275.76 150.715 295.852 150.768 306.466 146.606C306.466 146.606 308.714 103.711 273.802 107.733C255.498 104.357 247.098 135.735 247.098 135.735Z" fill="url(#paint19_linear)"/>
<path d="M275.244 156.617C275.244 156.617 272.683 161.054 272.683 162.256C272.683 163.459 276.359 164.231 276.359 164.231" stroke="#0B3856" stroke-linecap="round"/>
<path fill-rule="evenodd" clip-rule="evenodd" d="M238.542 218.395C238.994 209.778 246.687 203.375 255.252 204.421C262.988 205.367 271.261 206.321 274.263 206.467C277.038 206.601 283.744 206.454 290.306 206.25C298.882 205.984 305.907 213.072 305.458 221.639L238.542 218.395Z" fill="url(#paint20_linear)"/>
<path d="M227.245 201.081C224.544 200.362 220.123 209.773 221.515 215.013C223.603 222.872 235.646 228.135 263.49 231.958C291.334 235.78 311.666 226.933 318.903 222.067C326.14 217.201 322.063 199.435 314.323 201.852C306.583 204.27 302.882 212.301 274.32 212.101C244.241 211.891 229.946 201.8 227.245 201.081Z" fill="url(#paint21_linear)"/>
<path fill-rule="evenodd" clip-rule="evenodd" d="M316.111 201.808C315.939 201.846 315.757 201.886 315.571 201.814L322.078 209.757C321.713 206.593 320.724 204.097 316.58 201.814C316.439 201.736 316.28 201.771 316.111 201.808ZM313.054 202.393L322.32 215.433C322.001 216.016 321.767 216.714 321.528 217.426C321.108 218.683 320.671 219.985 319.725 220.784L309.46 204.209C309.992 203.871 310.552 203.636 311.111 203.401C311.774 203.123 312.437 202.844 313.054 202.393ZM230.005 202.556C229.418 202.467 228.84 202.379 228.272 202.016L228.049 202.03L221.073 211.872C221.081 212.894 221.228 213.941 221.513 215.013C221.833 216.216 222.385 217.358 223.192 218.444L231.674 203.034C231.109 202.723 230.553 202.639 230.005 202.556ZM306.081 206.193L315.769 223.947C314.342 224.721 312.676 225.534 310.785 226.341L302.397 208.04C303.64 207.471 304.868 206.855 306.081 206.193ZM239.332 206.632C237.999 206.101 236.703 205.541 235.444 204.951L227.359 222.197C228.71 223.075 230.298 223.91 232.141 224.704L239.332 206.632ZM298.565 209.633L305.56 228.333C303.909 228.892 302.144 229.429 300.272 229.925L294.673 210.933C295.987 210.545 297.284 210.112 298.565 209.633ZM247.494 209.374C246.078 208.977 244.695 208.553 243.347 208.1L237.154 226.563C238.729 227.07 240.433 227.558 242.271 228.03L247.494 209.374ZM290.689 211.956L294.909 231.162C293.177 231.505 291.373 231.807 289.5 232.059L286.621 212.703C287.995 212.499 289.351 212.249 290.689 211.956ZM256.129 211.365C254.652 211.091 253.205 210.791 251.79 210.466L247.474 229.241C249.105 229.587 250.822 229.923 252.627 230.25L256.129 211.365ZM284.053 232.628L282.461 213.181C281.08 213.294 279.68 213.364 278.261 213.391L278.635 232.876C280.49 232.845 282.296 232.76 284.053 232.628ZM273.042 213.301C271.849 213.238 270.671 213.163 269.508 213.074L268.031 232.478C269.802 232.64 271.539 232.752 273.242 232.817L274.014 213.346L273.042 213.301ZM260.489 212.085C261.952 212.298 263.444 212.488 264.963 212.654L262.86 231.871C261.08 231.623 259.365 231.369 257.714 231.108L260.489 212.085Z" fill="url(#paint22_linear)"/>
<path d="M188.55 237.36C191.839 254.154 194.176 261.409 193.562 273.125C192.641 290.698 195.586 303.365 198.654 302.627C205.875 297.313 206.007 282.332 205.917 265.352C205.827 248.374 204.083 236.235 200.917 230.768C197.752 225.302 191.712 226.758 189.616 230.176C188.219 232.454 187.864 234.849 188.55 237.36Z" fill="url(#paint23_linear)"/>
<path fill-rule="evenodd" clip-rule="evenodd" d="M195.168 225.929C178.489 234.376 176.181 247.72 170.245 261.961C159.494 287.75 124.085 364.871 147.664 378.088C171.243 391.305 185.044 363.773 185.044 363.773L197.373 276.87C197.373 276.87 198.625 224.178 195.168 225.929Z" fill="url(#paint24_linear)"/>
<path opacity="0.1" fill-rule="evenodd" clip-rule="evenodd" d="M206.802 278.085L182.809 270.645L182.658 270.598L182.55 270.715C172.895 281.271 162.542 294.284 151.782 308.73C151.545 309.325 151.309 309.921 151.076 310.518C162.187 295.539 172.871 282.051 182.812 271.169L206.687 278.573L206.802 278.085Z" fill="#262626"/>
<path fill-rule="evenodd" clip-rule="evenodd" d="M139.546 351.857C141.141 321.425 187.989 271.568 187.989 271.568L207.771 281.376C207.771 281.376 193.269 362.17 179.473 376.732C161.43 395.777 137.951 382.289 139.546 351.857Z" fill="url(#paint25_linear)"/>
<path d="M202.194 230.176C202.194 230.176 209.672 234.908 212.244 234.82C214.816 234.732 215.731 229.63 216.936 226.735C218.141 223.84 221.643 221.847 223.866 222.884C226.088 223.921 221.687 229.631 221.465 233.853C221.244 238.075 221.454 240.768 220.038 246.909C218.621 253.049 214.07 260.74 214.07 260.74L202.194 230.176Z" fill="url(#paint26_linear)"/>
<path d="M206.504 214.175C206.504 214.175 215.777 207.231 217.677 208.682C218.667 209.439 215.815 213.274 209.121 220.189C208.479 220.852 211.334 232.245 212.499 236.767C212.788 237.889 212.412 239.072 211.528 239.82L206.414 244.147L201.312 228.329L206.504 214.175Z" fill="url(#paint27_linear)"/>
<path d="M217.517 208.982C218.199 209.489 216.614 211.347 213.849 214.7C213.12 215.585 210.363 218.544 209.441 219.53C209.248 219.738 209.152 220.016 209.179 220.298C209.719 226.06 211.065 230.361 212.421 234.644" stroke="#174B49" stroke-linecap="round" stroke-linejoin="round"/>
<path d="M217.894 200.892C219.285 202.776 209.019 211.709 208.84 215.125C208.661 218.541 208.596 219.779 208.596 219.779L200.132 225.654C200.132 225.654 197.805 217.945 201.824 212.794C205.843 207.643 216.502 199.007 217.894 200.892Z" fill="url(#paint28_linear)"/>
<path d="M192.825 235.473C192.825 235.473 193.551 218.843 194.826 216.393C196.101 213.944 206.83 202.301 207.986 204.676C209.142 207.051 202.004 213.904 200.941 218.146C199.878 222.389 202.421 225.832 202.421 225.832L192.825 235.473Z" fill="url(#paint29_linear)"/>
<path d="M208.018 205.48C209.174 207.855 201.038 214.656 199.975 218.898C199.266 221.727 200.151 223.944 200.456 226.531" stroke="#174B49" stroke-linecap="round" stroke-linejoin="round"/>
<path d="M217.794 201.039C219.186 202.923 210.594 212.085 208.845 214.275C207.124 216.429 205.648 217.947 205.605 218.773" stroke="#174B49" stroke-linecap="round" stroke-linejoin="round"/>
<path d="M186.121 265.588C186.121 265.588 191.741 258.653 192.013 253.468C192.284 248.282 192.157 229.161 194.277 225.69C196.398 222.219 206.087 212.795 207.357 213.865C208.628 214.934 201.614 227.923 201.614 227.923C201.614 227.923 207.006 235.78 208.616 237.332C214.035 242.558 214.864 250.946 215.244 253.763C215.954 259.028 210.985 274.965 210.985 274.965C202.553 274.615 194.225 272.242 186.121 265.588Z" fill="url(#paint30_linear)"/>
<path d="M168.412 290.018C169.578 293.537 188.413 309.64 206.59 303.919C209.297 303.067 215.191 273.875 214.229 272.943C198.315 270.901 187.53 262.292 185.879 261.194C184.228 260.096 167.246 286.499 168.412 290.018Z" fill="url(#paint31_linear)"/>
<path d="M188.228 274.464L182.146 286.438C179.661 286.033 177.117 284.368 174.513 281.44L174.71 281.039C175.886 278.694 178.587 274.123 180.987 270.239L188.228 274.464Z" fill="url(#paint32_linear)"/>
<path d="M192.242 278.628L187.222 288.54L190.493 289.745L195.11 280.17L192.242 278.628Z" fill="url(#paint33_linear)"/>
<path d="M340.688 310.514C337.136 309.069 334.986 304.18 334.237 295.852C333.113 283.357 335.922 263.688 340.327 248.517C344.732 233.345 349.586 231.262 352.147 231.396C354.712 231.53 358.973 233.339 353.327 247.759C347.683 262.179 346.432 286.053 346.108 292.226C345.893 296.343 344.086 302.437 340.688 310.514Z" fill="url(#paint34_linear)"/>
<path d="M413.597 273.938C413.597 273.938 420.181 265.541 421.676 258.689C423.171 251.837 427.66 227.151 431.025 227.033C434.389 226.916 431.943 243.815 434.257 243.734C436.572 243.653 439.324 239.462 441.884 234.161C444.444 228.86 444.784 218.52 447.015 218.072C449.247 217.624 449.368 221.087 449.368 221.087C449.368 221.087 449.823 218.81 451.936 218.736C454.049 218.662 453.546 227.075 453.648 229.988C454.455 226.314 454.78 226.204 456.515 226.143C458.25 226.083 457.673 236.133 457.673 236.133C457.673 236.133 458.139 232.49 459.88 232.429C461.621 232.368 462.389 246.372 457.853 252.325C453.317 258.278 447.258 259.138 442.602 265.13C437.946 271.122 434.785 283.074 434.785 283.074C425.532 283.657 418.21 281.04 413.597 273.938Z" fill="url(#paint35_linear)"/>
<path d="M457.673 236.133C457.673 236.133 456.258 245.104 452.648 248C449.038 250.896 440.274 250.933 437.323 253.29C434.372 255.647 430.389 261.385 430.389 261.385" stroke="#174B49"/>
<path d="M453.771 228.995C453.771 228.995 452.607 239.962 447.013 244.809" stroke="#174B49"/>
<path d="M449.383 220.316C449.383 220.316 449.531 229.343 447.086 234.982C444.64 240.621 443.18 241.787 443.18 241.787" stroke="#174B49"/>
<path d="M400.784 299.192C405.465 305.011 416.232 311.319 427.051 313.878C434.207 315.571 443.527 276.773 441.236 276.992C438.944 277.21 417.657 270.234 416.232 266.571C414.807 262.909 400.43 289.378 400.43 289.378C398.359 292.366 398.505 296.36 400.784 299.192Z" fill="url(#paint36_linear)"/>
<path d="M417.972 286.663C418.799 286.706 419.505 286.07 419.548 285.243C419.591 284.416 418.956 283.71 418.129 283.667C417.301 283.623 416.595 284.259 416.552 285.086C416.509 285.913 417.144 286.619 417.972 286.663Z" fill="url(#paint37_linear)"/>
<path d="M413.972 293.663C414.799 293.706 415.505 293.07 415.548 292.243C415.591 291.416 414.956 290.71 414.129 290.667C413.301 290.623 412.595 291.259 412.552 292.086C412.509 292.913 413.144 293.619 413.972 293.663Z" fill="url(#paint38_linear)"/>
<path fill-rule="evenodd" clip-rule="evenodd" d="M439.769 288.505L425.173 284.23L418.258 300.786L433.733 306.713C436.126 301.528 438.314 294.452 439.769 288.505Z" fill="url(#paint39_linear)"/>
<path opacity="0.5" fill-rule="evenodd" clip-rule="evenodd" d="M308.4 276.379L307.519 293.184L301.408 292.864L302.288 276.058L308.4 276.379ZM321.222 265.561L320.342 282.366L314.231 282.046L314.791 271.352L302.569 270.711L302.889 264.6L321.222 265.561Z" fill="url(#paint40_linear)"/>
<g opacity="0.5" filter="url(#filter0_d)">
<rect x="192" y="173" width="173" height="79" rx="10" fill="#12E2EF" fill-opacity="0.7"/>
</g>
<g opacity="0.5" filter="url(#filter1_d)">
<rect x="92" y="85" width="126" height="107" rx="10" fill="#12E2EF" fill-opacity="0.7"/>
</g>
<g opacity="0.3" filter="url(#filter2_d)">
<rect x="339" y="130" width="115" height="70" rx="9.33333" fill="#12E2EF" fill-opacity="0.7"/>
</g>
<defs>
<filter id="filter0_d" x="134" y="119" width="289" height="195" filterUnits="userSpaceOnUse" color-interpolation-filters="sRGB">
<feFlood flood-opacity="0" result="BackgroundImageFix"/>
<feColorMatrix in="SourceAlpha" type="matrix" values="0 0 0 0 0 0 0 0 0 0 0 0 0 0 0 0 0 0 127 0"/>
<feOffset dy="4"/>
<feGaussianBlur stdDeviation="29"/>
<feColorMatrix type="matrix" values="0 0 0 0 0 0 0 0 0 1 0 0 0 0 0.88 0 0 0 0.5 0"/>
<feBlend mode="normal" in2="BackgroundImageFix" result="effect1_dropShadow"/>
<feBlend mode="normal" in="SourceGraphic" in2="effect1_dropShadow" result="shape"/>
</filter>
<filter id="filter1_d" x="0.857147" y="0.142861" width="308.286" height="289.286" filterUnits="userSpaceOnUse" color-interpolation-filters="sRGB">
<feFlood flood-opacity="0" result="BackgroundImageFix"/>
<feColorMatrix in="SourceAlpha" type="matrix" values="0 0 0 0 0 0 0 0 0 0 0 0 0 0 0 0 0 0 127 0"/>
<feOffset dy="6.28571"/>
<feGaussianBlur stdDeviation="45.5714"/>
<feColorMatrix type="matrix" values="0 0 0 0 0 0 0 0 0 1 0 0 0 0 0.88 0 0 0 0.5 0"/>
<feBlend mode="normal" in2="BackgroundImageFix" result="effect1_dropShadow"/>
<feBlend mode="normal" in="SourceGraphic" in2="effect1_dropShadow" result="shape"/>
</filter>
<filter id="filter2_d" x="284.867" y="79.6" width="223.267" height="178.267" filterUnits="userSpaceOnUse" color-interpolation-filters="sRGB">
<feFlood flood-opacity="0" result="BackgroundImageFix"/>
<feColorMatrix in="SourceAlpha" type="matrix" values="0 0 0 0 0 0 0 0 0 0 0 0 0 0 0 0 0 0 127 0"/>
<feOffset dy="3.73333"/>
<feGaussianBlur stdDeviation="27.0667"/>
<feColorMatrix type="matrix" values="0 0 0 0 0 0 0 0 0 1 0 0 0 0 0.88 0 0 0 0.5 0"/>
<feBlend mode="normal" in2="BackgroundImageFix" result="effect1_dropShadow"/>
<feBlend mode="normal" in="SourceGraphic" in2="effect1_dropShadow" result="shape"/>
</filter>
<linearGradient id="paint0_linear" x1="219.762" y1="417.945" x2="299.259" y2="496.648" gradientUnits="userSpaceOnUse">
<stop stop-color="#042635"/>
<stop offset="1" stop-color="#001431"/>
</linearGradient>
<linearGradient id="paint1_linear" x1="188.687" y1="406.787" x2="244.132" y2="381.19" gradientUnits="userSpaceOnUse">
<stop stop-color="#28674F"/>
<stop offset="1" stop-color="#123635"/>
</linearGradient>
<linearGradient id="paint2_linear" x1="248.645" y1="273.046" x2="323.174" y2="413.22" gradientUnits="userSpaceOnUse">
<stop stop-color="#5DF1D7"/>
<stop offset="1" stop-color="#128698"/>
</linearGradient>
<linearGradient id="paint3_linear" x1="42.8763" y1="267.325" x2="161.512" y2="484.428" gradientUnits="userSpaceOnUse">
<stop stop-color="#5DF1D7"/>
<stop offset="1" stop-color="#128698"/>
</linearGradient>
<linearGradient id="paint4_linear" x1="219.706" y1="182.355" x2="194.318" y2="181.545" gradientUnits="userSpaceOnUse">
<stop stop-color="#D8E7FF"/>
<stop offset="1" stop-color="#C6D6FF"/>
</linearGradient>
<linearGradient id="paint5_linear" x1="183.585" y1="320.159" x2="337.445" y2="364.252" gradientUnits="userSpaceOnUse">
<stop stop-color="#5DF1D7"/>
<stop offset="1" stop-color="#128698"/>
</linearGradient>
<linearGradient id="paint6_linear" x1="63.6357" y1="346.003" x2="61.4822" y2="426.912" gradientUnits="userSpaceOnUse">
<stop stop-color="#5DF1D7"/>
<stop offset="1" stop-color="#128698"/>
</linearGradient>
<linearGradient id="paint7_linear" x1="268.401" y1="218.396" x2="253.85" y2="218.024" gradientUnits="userSpaceOnUse">
<stop stop-color="#042635"/>
<stop offset="1" stop-color="#06565B"/>
</linearGradient>
<linearGradient id="paint8_linear" x1="231.157" y1="227.39" x2="228.536" y2="254.498" gradientUnits="userSpaceOnUse">
<stop stop-color="#042635"/>
<stop offset="1" stop-color="#06565B"/>
</linearGradient>
<linearGradient id="paint9_linear" x1="281.661" y1="230.737" x2="313.943" y2="234.506" gradientUnits="userSpaceOnUse">
<stop stop-color="#165B7A"/>
<stop offset="1" stop-color="#001431"/>
</linearGradient>
<linearGradient id="paint10_linear" x1="240.334" y1="210.636" x2="268.881" y2="253.493" gradientUnits="userSpaceOnUse">
<stop stop-color="#042635"/>
<stop offset="1" stop-color="#001431"/>
</linearGradient>
<linearGradient id="paint11_linear" x1="202.904" y1="179.489" x2="205.644" y2="235.118" gradientUnits="userSpaceOnUse">
<stop stop-color="#CEFFDD"/>
<stop offset="1" stop-color="#B2FFF9"/>
</linearGradient>
<linearGradient id="paint12_linear" x1="237.659" y1="144.127" x2="250.156" y2="148.908" gradientUnits="userSpaceOnUse">
<stop stop-color="#CEFFDD"/>
<stop offset="1" stop-color="#84F3EB"/>
</linearGradient>
<linearGradient id="paint13_linear" x1="315.434" y1="148.203" x2="302.507" y2="151.652" gradientUnits="userSpaceOnUse">
<stop stop-color="#CEFFDD"/>
<stop offset="1" stop-color="#84F3EB"/>
</linearGradient>
<linearGradient id="paint14_linear" x1="219.056" y1="122.733" x2="230.519" y2="208.86" gradientUnits="userSpaceOnUse">
<stop stop-color="#CEFFDD"/>
<stop offset="1" stop-color="#B2FFF9"/>
</linearGradient>
<linearGradient id="paint15_linear" x1="248.83" y1="149.746" x2="254.115" y2="150.395" gradientUnits="userSpaceOnUse">
<stop stop-color="#165B7A"/>
<stop offset="1" stop-color="#001431"/>
</linearGradient>
<linearGradient id="paint16_linear" x1="262.474" y1="156.273" x2="266.993" y2="157.173" gradientUnits="userSpaceOnUse">
<stop stop-color="#165B7A"/>
<stop offset="1" stop-color="#001431"/>
</linearGradient>
<linearGradient id="paint17_linear" x1="285.243" y1="158.466" x2="289.762" y2="159.367" gradientUnits="userSpaceOnUse">
<stop stop-color="#165B7A"/>
<stop offset="1" stop-color="#001431"/>
</linearGradient>
<linearGradient id="paint18_linear" x1="268.822" y1="178.275" x2="281.726" y2="183.419" gradientUnits="userSpaceOnUse">
<stop stop-color="#165B7A"/>
<stop offset="1" stop-color="#001431"/>
</linearGradient>
<linearGradient id="paint19_linear" x1="247.436" y1="152.764" x2="318.206" y2="176.417" gradientUnits="userSpaceOnUse">
<stop stop-color="#165B7A"/>
<stop offset="1" stop-color="#001431"/>
</linearGradient>
<linearGradient id="paint20_linear" x1="213.421" y1="180.55" x2="212.543" y2="206.241" gradientUnits="userSpaceOnUse">
<stop stop-color="#5DF1D7"/>
<stop offset="1" stop-color="#128698"/>
</linearGradient>
<linearGradient id="paint21_linear" x1="235.575" y1="227.189" x2="293.907" y2="280.974" gradientUnits="userSpaceOnUse">
<stop stop-color="#042635"/>
<stop offset="1" stop-color="#001431"/>
</linearGradient>
<linearGradient id="paint22_linear" x1="213.956" y1="219.42" x2="253.141" y2="202.633" gradientUnits="userSpaceOnUse">
<stop stop-color="#28674F"/>
<stop offset="1" stop-color="#123635"/>
</linearGradient>
<linearGradient id="paint23_linear" x1="190.991" y1="176.457" x2="149.058" y2="176.774" gradientUnits="userSpaceOnUse">
<stop stop-color="#042635"/>
<stop offset="1" stop-color="#06565B"/>
</linearGradient>
<linearGradient id="paint24_linear" x1="74.8482" y1="284.955" x2="189.777" y2="373.939" gradientUnits="userSpaceOnUse">
<stop stop-color="#5DF1D7"/>
<stop offset="1" stop-color="#128698"/>
</linearGradient>
<linearGradient id="paint25_linear" x1="80.2383" y1="302.21" x2="153.044" y2="407.92" gradientUnits="userSpaceOnUse">
<stop stop-color="#5DF1D7"/>
<stop offset="1" stop-color="#128698"/>
</linearGradient>
<linearGradient id="paint26_linear" x1="203.872" y1="194.957" x2="157.188" y2="198.243" gradientUnits="userSpaceOnUse">
<stop stop-color="#042635"/>
<stop offset="1" stop-color="#06565B"/>
</linearGradient>
<linearGradient id="paint27_linear" x1="206.536" y1="195.6" x2="179.149" y2="192.819" gradientUnits="userSpaceOnUse">
<stop stop-color="#042635"/>
<stop offset="1" stop-color="#06565B"/>
</linearGradient>
<linearGradient id="paint28_linear" x1="204.797" y1="191.186" x2="173.668" y2="187.106" gradientUnits="userSpaceOnUse">
<stop stop-color="#042635"/>
<stop offset="1" stop-color="#06565B"/>
</linearGradient>
<linearGradient id="paint29_linear" x1="198.128" y1="193.063" x2="173.959" y2="190.604" gradientUnits="userSpaceOnUse">
<stop stop-color="#042635"/>
<stop offset="1" stop-color="#06565B"/>
</linearGradient>
<linearGradient id="paint30_linear" x1="225.002" y1="216.228" x2="183.575" y2="209.719" gradientUnits="userSpaceOnUse">
<stop stop-color="#042635"/>
<stop offset="1" stop-color="#06565B"/>
</linearGradient>
<linearGradient id="paint31_linear" x1="25.6007" y1="291.412" x2="89.2705" y2="377.771" gradientUnits="userSpaceOnUse">
<stop stop-color="#33B7D5"/>
<stop offset="1" stop-color="#123635"/>
</linearGradient>
<linearGradient id="paint32_linear" x1="111.446" y1="266.759" x2="144.926" y2="359.36" gradientUnits="userSpaceOnUse">
<stop stop-color="#33B7D5"/>
<stop offset="1" stop-color="#123635"/>
</linearGradient>
<linearGradient id="paint33_linear" x1="157.899" y1="269.033" x2="166.766" y2="308.636" gradientUnits="userSpaceOnUse">
<stop stop-color="#33B7D5"/>
<stop offset="1" stop-color="#123635"/>
</linearGradient>
<linearGradient id="paint34_linear" x1="339.691" y1="175.648" x2="297.948" y2="175.668" gradientUnits="userSpaceOnUse">
<stop stop-color="#042635"/>
<stop offset="1" stop-color="#06565B"/>
</linearGradient>
<linearGradient id="paint35_linear" x1="409.758" y1="174.672" x2="308.165" y2="194.966" gradientUnits="userSpaceOnUse">
<stop stop-color="#042635"/>
<stop offset="1" stop-color="#06565B"/>
</linearGradient>
<linearGradient id="paint36_linear" x1="266.544" y1="300.379" x2="337.879" y2="382.432" gradientUnits="userSpaceOnUse">
<stop stop-color="#33B7D5"/>
<stop offset="1" stop-color="#123635"/>
</linearGradient>
<linearGradient id="paint37_linear" x1="413.538" y1="284.915" x2="423.85" y2="287.037" gradientUnits="userSpaceOnUse">
<stop stop-color="#33B7D5"/>
<stop offset="1" stop-color="#123635"/>
</linearGradient>
<linearGradient id="paint38_linear" x1="409.538" y1="291.915" x2="419.85" y2="294.037" gradientUnits="userSpaceOnUse">
<stop stop-color="#33B7D5"/>
<stop offset="1" stop-color="#123635"/>
</linearGradient>
<linearGradient id="paint39_linear" x1="397.629" y1="293.705" x2="469.458" y2="307.899" gradientUnits="userSpaceOnUse">
<stop stop-color="#33B7D5"/>
<stop offset="1" stop-color="#123635"/>
</linearGradient>
<linearGradient id="paint40_linear" x1="300.913" y1="239.888" x2="274.084" y2="256.753" gradientUnits="userSpaceOnUse">
<stop stop-color="#D8E7FF"/>
<stop offset="1" stop-color="#C6D6FF"/>
</linearGradient>
</defs>
</svg>
