<svg width="75" height="73" viewBox="0 0 75 73" fill="none" xmlns="http://www.w3.org/2000/svg">
<mask id="mask0" mask-type="alpha" maskUnits="userSpaceOnUse" x="0" y="0" width="75" height="73">
<path d="M74.4009 72.4808V0.515564H0.5V72.4808H74.4009Z" fill="white"/>
</mask>
<g mask="url(#mask0)">
<path fill-rule="evenodd" clip-rule="evenodd" d="M37.5219 0.514893C36.5186 0.514893 35.5149 0.754026 34.5593 1.18377L10.3807 12.7483C8.46902 13.6558 7.13133 15.3285 6.65352 17.3832L0.680238 43.331C0.202429 45.3857 0.680238 47.4885 2.01837 49.1612L18.7426 69.9478C20.0331 71.5728 21.9919 72.4803 24.0466 72.4803H50.8538C52.9084 72.4803 54.8673 71.5728 56.1577 69.9478L72.882 49.1612C74.2201 47.5362 74.6979 45.3857 74.2201 43.331L68.2468 17.3832C67.769 15.3285 66.4313 13.6558 64.5196 12.7483L40.4368 1.18377C39.5288 0.754026 38.5251 0.514893 37.5219 0.514893ZM37.5219 2.76064C38.1907 2.76064 38.86 2.90404 39.4812 3.19082L63.6598 14.7072C64.9021 15.3285 65.8578 16.4756 66.1445 17.8133L72.1174 43.7612C72.4518 45.1471 72.1174 46.5805 71.2094 47.6796L54.4852 68.4667C53.6249 69.5657 52.2872 70.1869 50.9014 70.1869H24.0947C22.7089 70.1869 21.3708 69.5657 20.5109 68.4667L3.78622 47.6796C2.92634 46.5805 2.59191 45.1471 2.87825 43.7612L8.85153 17.8133C9.18595 16.4275 10.0939 15.2808 11.3363 14.7072L35.5149 3.14317C36.1361 2.90404 36.853 2.76064 37.5219 2.76064Z" fill="#326DE6"/>
</g>
<path fill-rule="evenodd" clip-rule="evenodd" d="M23.5326 64.1195C24.3898 65.1959 25.6755 65.79 27.0175 65.79L48.0547 65.7528C49.3972 65.7528 50.6693 65.1215 51.5266 64.0824L64.351 47.9354C64.7212 47.4314 64.6801 46.4429 64.6801 45.6101V23.0621L37.1263 38.9275V38.9271L9.59869 23.077V45.6101C9.59869 46.4565 9.89771 47.2819 10.4476 47.9726L23.5326 64.1195Z" fill="#1FBFCF"/>
<path fill-rule="evenodd" clip-rule="evenodd" d="M37.1263 38.9273L64.6801 23.0624L37.1005 7.2066L9.59869 23.0759L37.1263 38.9273Z" fill="#C9E9EC"/>
<path fill-rule="evenodd" clip-rule="evenodd" d="M43.6997 51.1843C42.9098 51.687 41.8322 51.5437 41.1856 50.7533C40.9701 50.5377 40.8984 50.2505 40.8267 49.9633L40.1802 38.2545C45.1362 38.8294 49.6616 41.0559 53.1095 44.5039L43.6997 51.1843ZM33.9311 49.6756C33.8589 50.6815 33.069 51.5437 31.9914 51.5437C31.7042 51.5437 31.3453 51.4715 31.1298 51.3281L21.5762 44.5039C24.5213 41.5587 28.1847 39.5477 32.2791 38.6139C33.069 38.47 33.7872 38.3262 34.5776 38.1828L33.9311 49.6756ZM60.7951 44.8632L61.5133 44.2167V44.0728C61.5133 43.7139 61.585 43.3546 61.8727 42.9956C62.7343 42.2052 63.8119 41.5587 65.1045 40.7687C65.3201 40.6249 65.5356 40.5532 65.7511 40.4093C66.1821 40.1942 66.5415 39.9787 66.9725 39.6911C67.0442 39.6194 67.1876 39.5477 67.3314 39.4038C67.4031 39.3321 67.4752 39.3321 67.4752 39.26C68.4807 38.3983 68.6962 36.9618 67.978 36.028C67.6186 35.5248 66.9725 35.2376 66.326 35.2376C65.7511 35.2376 65.2484 35.4531 64.7456 35.8125L64.6018 35.9559C64.4584 36.028 64.3863 36.1714 64.2429 36.2431C63.8836 36.6024 63.5964 36.8897 63.3092 37.249C63.1653 37.3924 63.0219 37.6079 62.8064 37.7518C61.8005 38.8294 60.8668 39.6911 59.933 40.3376C59.7175 40.4815 59.502 40.5532 59.2864 40.5532C59.1431 40.5532 58.9992 40.5532 58.8554 40.4815H58.712L57.85 41.0559C56.9162 40.0504 55.9107 39.1883 54.9049 38.3262C50.5954 34.9504 45.3517 32.8672 39.893 32.3645L39.8208 31.4307L39.6775 31.2869C39.4619 31.0713 39.1743 30.8558 39.1026 30.3531C39.0309 29.2037 39.1743 27.9106 39.3181 26.474V26.4024C39.3181 26.1868 39.3898 25.8996 39.4619 25.6841C39.5336 25.253 39.6053 24.822 39.6775 24.3192V23.8882V23.6727C39.6775 22.3799 38.6716 21.3023 37.4506 21.3023C36.8762 21.3023 36.3013 21.5895 35.8703 22.0206C35.4392 22.4516 35.2237 23.0261 35.2237 23.6727V23.8165V24.2475C35.2237 24.7503 35.2959 25.1813 35.4392 25.6119C35.5114 25.8275 35.5114 26.043 35.5831 26.3307V26.4024C35.7269 27.8389 35.942 29.1321 35.7986 30.2814C35.7269 30.7841 35.4392 30.9996 35.2237 31.2152C35.152 31.2869 35.152 31.2869 35.0803 31.3586L35.0082 32.2924C33.7155 32.4362 32.4224 32.58 31.1298 32.8672C25.5989 34.0883 20.7146 36.8897 16.9074 40.9125L16.1891 40.4093H16.0453C15.9019 40.4093 15.7581 40.4815 15.6147 40.4815C15.3992 40.4815 15.1837 40.4093 14.9682 40.2659C14.0344 39.6194 13.1007 38.6856 12.0948 37.6079C11.9514 37.4645 11.8076 37.249 11.592 37.1052C11.3048 36.7463 11.0176 36.4586 10.6583 36.0997C10.5866 36.028 10.4428 35.9559 10.2994 35.8125C10.2272 35.7403 10.1555 35.7403 10.1555 35.6686C9.72451 35.3093 9.15009 35.0938 8.57523 35.0938C7.92868 35.0938 7.28257 35.3814 6.92323 35.8842C6.20498 36.818 6.4205 38.2545 7.42595 39.1166C7.49808 39.1166 7.49808 39.1883 7.56978 39.1883C7.71316 39.26 7.78529 39.4038 7.92868 39.4755C8.35972 39.7632 8.71906 39.9787 9.15009 40.1942C9.36561 40.2659 9.58112 40.4093 9.7962 40.5532C11.0893 41.3436 12.1669 41.9897 13.0285 42.7801C13.3879 43.139 13.3879 43.4984 13.3879 43.8573V44.0011L14.1061 44.6477C13.9623 44.8632 13.8189 45.0066 13.7472 45.2222C12.9048 46.5533 12.1896 47.9414 11.5929 49.3692L15.6877 54.422C16.2416 52.4665 17.0525 50.5775 18.1284 48.814L26.676 56.4282C27.4664 57.0743 27.5381 58.2958 26.8916 59.0857C26.676 59.373 26.3888 59.5885 26.0299 59.6606L21.094 61.0937L23.5465 64.1193C24.4037 65.1961 25.689 65.7898 27.0315 65.7898L48.0686 65.7526C49.4107 65.7526 50.6828 65.1218 51.5405 64.0822L53.843 61.1828L48.7996 59.7323C47.7941 59.4451 47.2192 58.4392 47.4348 57.4337C47.5065 57.1464 47.6503 56.8592 47.8658 56.6437L56.5573 48.814C57.6152 50.557 58.4567 52.5164 59.0364 54.6441L63.213 49.3858C62.5389 47.8124 61.7301 46.3015 60.7951 44.8632Z" fill="#326DE6"/>
</svg>
